<?xml version="1.0" encoding="utf-8"?>
<!-- Generator: Adobe Illustrator 13.0.0, SVG Export Plug-In . SVG Version: 6.00 Build 14948)  -->
<svg version="1.2" baseProfile="tiny" id="Layer_1" xmlns="http://www.w3.org/2000/svg" xmlns:xlink="http://www.w3.org/1999/xlink"
	 x="0px" y="0px" width="536.79px" height="537.05px" viewBox="0 0 536.79 537.05" xml:space="preserve">
<g>
	<g id="XMLID_1_">
		<g>
			<path fill="#FFFFFE" d="M331.88,494.82c-1.07,9.84-5.2,18.74-11.42,25.72c-8.44-3.97-15.73-10.51-20.59-19.13
				C310.8,499.95,321.49,497.74,331.88,494.82z"/>
			<path fill="#FFFFFE" d="M272.15,299.89c-1.23,0.14-2.48,0.22-3.75,0.22c-4.41,0-8.62-0.92-12.44-2.57
				c-5.1-2.19-9.51-5.7-12.81-10.1c-3.25-4.33-5.42-9.52-6.1-15.16c-0.14-1.23-0.22-2.48-0.22-3.75c0-4.41,0.91-8.61,2.56-12.43
				c2.2-5.11,5.71-9.53,10.1-12.83c4.33-3.26,9.52-5.43,15.16-6.11c1.23-0.14,2.48-0.22,3.75-0.22c4.4,0,8.6,0.91,12.42,2.56
				c5.11,2.2,9.53,5.71,12.83,10.11c3.25,4.34,5.42,9.53,6.09,15.17c0.14,1.23,0.22,2.48,0.22,3.75c0,4.41-0.91,8.61-2.56,12.43
				c-2.19,5.12-5.71,9.54-10.1,12.84C282.97,297.05,277.78,299.21,272.15,299.89z"/>
			<path fill="#FFFFFE" d="M283.03,14.08c5.78,5.61,10.14,12.78,12.38,21.01c-8.86-1.01-17.88-1.53-27.01-1.53
				C271.54,25.64,276.67,19.01,283.03,14.08z"/>
			<path fill="#FFFFFE" d="M305.37,456.1c-13.13-11.62-29.34-19.36-46.63-20.36c-18.29-1.06-36.25,5.52-51.13,16.64
				c-0.28-0.94-0.58-1.87-0.89-2.8c-18.61-88.51,56.02-67.73,65.43-149.69c5.63-0.68,10.82-2.84,15.15-6.09l0.02,0.02
				C320.12,369.46,245.18,388.81,305.37,456.1z M268.09,401.31c5.48-14.77,4.88-28.61-1.35-30.92c-6.25-2.32-15.74,7.76-21.22,22.52
				c-5.49,14.76-4.89,28.61,1.34,30.92C253.09,426.16,262.6,416.07,268.09,401.31z"/>
			<path fill="#FFFFFE" d="M304.45,466.53c-3.65,11.26-5.25,23.23-4.6,34.85c-6.72-18.28-23.63-30.84-43.07-31.96
				c3.84,0.22,7.72,0.33,11.62,0.33C280.71,469.75,292.75,468.64,304.45,466.53z"/>
			<path fill="#FFFFFE" d="M320.46,520.54c-7.7,8.66-18.6,14.38-30.85,15.35c-13.64,1.08-26.57-3.92-35.85-12.92
				c6.36-4.91,11.5-11.54,14.64-19.46c10.67,0,21.18-0.71,31.47-2.1C304.73,510.03,312.02,516.57,320.46,520.54z"/>
			<path fill="#FFFFFE" d="M289.93,113.22c6.23,2.31,6.84,16.16,1.34,30.92c-5.48,14.76-14.98,24.86-21.21,22.52
				c-6.25-2.31-6.84-16.16-1.36-30.92C274.19,120.98,283.7,110.9,289.93,113.22z"/>
			<path fill="#FFFFFE" d="M307.49,458.42c0.03-0.1,0.07-0.19,0.12-0.28c2.18,2.04,4.26,4.2,6.24,6.45
				c-3.11,0.72-6.24,1.36-9.4,1.94C305.34,463.78,306.35,461.07,307.49,458.42z"/>
			<path fill="#FFFFFE" d="M305.37,456.1c0.69,0.77,1.4,1.54,2.12,2.32c-1.14,2.65-2.15,5.36-3.04,8.11
				c-11.7,2.11-23.74,3.22-36.05,3.22c-3.9,0-7.78-0.11-11.62-0.33c-16.27-0.93-32.01-3.79-47.02-8.36
				c-0.58-2.93-1.3-5.83-2.15-8.68c14.88-11.12,32.84-17.7,51.13-16.64C276.03,436.74,292.24,444.48,305.37,456.1z"/>
			<path fill="#FFFFFE" d="M35.65,300c18.18-6.68,30.69-23.46,31.92-42.76c-0.21,3.74-0.31,7.5-0.31,11.29
				c0,12.32,1.11,24.38,3.23,36.09c-11.26-3.65-23.23-5.26-34.85-4.61L35.65,300L35.65,300z"/>
			<path fill="#FFFFFE" d="M35.08,241.49c-1.02,8.87-1.54,17.89-1.54,27.04c-7.91-3.15-14.54-8.28-19.46-14.65
				C19.69,248.1,26.86,243.73,35.08,241.49z"/>
			<path fill="#FFFFFE" d="M24.22,187.63c2.94,8.88,8.57,16.91,16.57,22.76c-2.58,10.12-4.5,20.5-5.71,31.1
				c-8.22,2.24-15.39,6.61-21,12.39c-7.96-10.27-11.48-23.75-8.82-37.24C7.65,204.52,14.65,194.29,24.22,187.63z"/>
			<path fill="#FFFFFE" d="M35.64,300v0.01h-0.01c-8.62,4.87-15.16,12.16-19.13,20.61C7.85,312.91,2.13,302,1.16,289.75
				c-1.08-13.65,3.92-26.58,12.92-35.87c4.92,6.37,11.55,11.5,19.46,14.65C33.54,279.2,34.25,289.71,35.64,300z"/>
			<path fill="#FFFFFE" d="M42.23,332.05c-9.85-1.08-18.75-5.21-25.73-11.43c3.97-8.45,10.51-15.74,19.13-20.61h0.01
				C37.09,310.95,39.31,321.65,42.23,332.05z"/>
			<path fill="#FFFFFE" d="M232.32,70.52c-0.89,2.75-1.9,5.45-3.03,8.1c-0.04,0.1-0.08,0.2-0.12,0.29
				c-2.17-2.05-4.25-4.21-6.23-6.46C226.04,71.73,229.17,71.09,232.32,70.52z"/>
			<path fill="#FFFFFE" d="M115.08,398.77c2.05,2.43,4.17,4.8,6.34,7.13c-3.79,11.23-9.64,21.8-17.1,30.75
				c-7.8-7.62-15.08-15.78-21.76-24.43C92.31,405.83,103.49,401.24,115.08,398.77z"/>
			<path fill="#FFFFFE" d="M179.4,318.02c1.12,6.55-10.58,14-26.1,16.63c-15.52,2.63-29-0.56-30.1-7.13
				c-1.12-6.55,10.57-13.99,26.09-16.63C164.81,308.26,178.3,311.45,179.4,318.02z"/>
			<path fill="#FFFFFE" d="M55.47,128.63c1.08,7.96,4.25,15.71,9.52,22.38c-5.26,9.08-9.93,18.54-13.94,28.34h-0.01
				c-9.89-0.09-19.18,2.95-26.82,8.28c-3.64-11-3.14-23.31,2.14-34.4C32.24,140.86,43.03,132.16,55.47,128.63z"/>
			<path fill="#FFFFFE" d="M42.23,332.05c2.86,10.24,6.4,20.19,10.57,29.81c-5.99,6.05-10,13.41-11.96,21.22
				c-12.03-4.92-21.82-14.84-26.25-27.87c-4-11.7-3.05-24.05,1.91-34.59C23.48,326.84,32.38,330.97,42.23,332.05z"/>
			<path fill="#FFFFFE" d="M64.97,386.02c-4.51-7.78-8.57-15.84-12.17-24.16c-4.17-9.62-7.71-19.57-10.57-29.81
				c0.02,0.01,0.04,0.01,0.06,0.01c18.79-1.07,36.46,8.78,45.51,25.16c0.55,1.12,1.11,2.24,1.69,3.35
				c7.79,17.07,5.15,37.16-6.93,51.65C76.13,403.91,70.25,395.16,64.97,386.02z"/>
			<path fill="#FFFFFE" d="M115.08,398.77c2.91-0.62,5.84-1.1,8.79-1.45c-0.68,2.89-1.5,5.76-2.45,8.58
				C119.25,403.57,117.13,401.2,115.08,398.77z"/>
			<path fill="#FFFFFE" d="M236.94,35.66c6.67,18.18,23.42,30.69,42.7,31.94c-3.72-0.21-7.47-0.31-11.24-0.31
				c-12.32,0-24.37,1.11-36.08,3.23c3.65-11.27,5.25-23.23,4.6-34.86C236.92,35.66,236.93,35.65,236.94,35.66z"/>
			<path fill="#FFFFFE" d="M243.15,287.44l-0.02,0.02c-76.42,33.17-95.37-43.79-164.42,20.07c29.28-29.48,31.61-69.29,6.91-100.32
				c90.57-20.03,68.97,55.62,151.43,65.07C237.73,277.92,239.9,283.11,243.15,287.44z M166.58,266.87
				c2.33-6.25-7.76-15.75-22.51-21.23c-14.75-5.49-28.59-4.89-30.91,1.34c-2.31,6.23,7.76,15.75,22.52,21.24
				C150.43,273.7,164.27,273.11,166.58,266.87z"/>
			<path fill="#FFFFFE" d="M85.62,207.21c24.7,31.03,22.37,70.84-6.91,100.32c-0.04,0.04-0.08,0.07-0.12,0.12h-0.01
				c-2.64-1.13-5.35-2.14-8.09-3.03c-2.12-11.71-3.23-23.77-3.23-36.09c0-3.79,0.1-7.55,0.31-11.29c0.02-0.11,0.02-0.22,0.03-0.33
				c0.01-0.13,0.01-0.25,0.02-0.38c1.03-17.6,4.32-34.59,9.59-50.69c1.99-0.53,3.93-1.1,5.82-1.73
				C83.93,205.13,84.79,206.17,85.62,207.21z"/>
			<path fill="#FFFFFE" d="M128.35,457.17c7.22,5.38,14.76,10.35,22.59,14.88c-6.67,5.26-14.42,8.43-22.37,9.51
				C126.37,473.81,126.17,465.42,128.35,457.17z"/>
			<path fill="#FFFFFE" d="M51.04,179.35L51.04,179.35c-4.1,10.02-7.54,20.38-10.25,31.04c-8-5.85-13.63-13.88-16.57-22.76
				C31.86,182.3,41.15,179.26,51.04,179.35z"/>
			<path fill="#FFFFFE" d="M79.85,128.41c6.3-8.46,13.15-16.49,20.5-24.03c10.45,15.96,10.64,36.5,0.59,52.64
				c-0.46,0.68-0.91,1.36-1.35,2.05c-0.06,0.08-0.11,0.16-0.16,0.24c-10.85,15.43-29.66,23.27-48.32,20.04c-0.02,0-0.04,0-0.06,0
				c4.01-9.8,8.68-19.26,13.94-28.34C69.51,143.18,74.48,135.63,79.85,128.41z"/>
			<path fill="#FFFFFE" d="M70.49,304.62c0.53,2.97,1.14,5.92,1.8,8.84c-8.29,7.04-18.29,13.34-30,18.6c-0.02,0-0.04,0-0.06-0.01
				c-2.92-10.4-5.14-21.1-6.59-32.04C47.26,299.36,59.23,300.97,70.49,304.62z"/>
			<path fill="#FFFFFE" d="M100.35,104.37v0.01c-7.35,7.54-14.2,15.57-20.5,24.03c-8.24-2.18-16.63-1.98-24.38,0.22
				c-1.76-12.88,1.93-26.32,10.99-36.67c8.12-9.31,19.29-14.66,30.9-15.65C95.46,85.48,96.33,95.28,100.35,104.37z"/>
			<path fill="#FFFFFE" d="M82.56,412.22c-5.05,8.53-7.07,18.12-6.29,27.43c-11.34-2.35-21.74-8.94-28.7-19.07
				c-7.75-11.27-9.89-24.96-6.73-37.5c7.44,3.04,15.72,4.17,24.13,2.94C70.25,395.16,76.13,403.91,82.56,412.22z"/>
			<path fill="#FFFFFE" d="M89.49,360.57c7.07,13.73,15.67,26.53,25.59,38.2c-11.59,2.47-22.77,7.06-32.52,13.45
				C94.64,397.73,97.28,377.64,89.49,360.57z"/>
			<path fill="#FFFFFE" d="M79.23,200c-0.71,1.93-1.38,3.88-2.02,5.84c-10.73,2.86-22.85,4.48-36.38,4.58
				c-0.01-0.01-0.03-0.02-0.04-0.03c2.71-10.66,6.15-21.02,10.26-31.04C62.28,185.31,71.67,192.3,79.23,200z"/>
			<path fill="#FFFFFE" d="M255.96,297.54v0.01c-49.07,66.25-103.3,10.99-131.44,96.81c3.5-17.19,2.09-35.11-5.69-50.6
				c-8.27-16.46-23.06-28.78-40.24-36.11c0.04-0.05,0.08-0.08,0.12-0.12c69.05-63.86,88,13.1,164.42-20.07l0.02-0.02
				C246.45,291.84,250.86,295.35,255.96,297.54z M153.3,334.65c15.52-2.63,27.22-10.08,26.1-16.63c-1.1-6.57-14.59-9.76-30.11-7.13
				c-15.52,2.64-27.21,10.08-26.09,16.63C124.3,334.09,137.78,337.28,153.3,334.65z"/>
			<path fill="#FFFFFE" d="M64.97,386.02c-8.41,1.23-16.69,0.1-24.13-2.94c1.96-7.81,5.97-15.17,11.96-21.22
				C56.4,370.18,60.46,378.24,64.97,386.02z"/>
			<path fill="#FFFFFE" d="M82.56,412.22c6.68,8.65,13.96,16.81,21.76,24.43c-9.08,4.02-18.88,4.9-28.05,3
				C75.49,430.34,77.51,420.75,82.56,412.22z"/>
			<path fill="#FFFFFE" d="M124.52,394.36c-0.19,0.99-0.41,1.98-0.65,2.96c-2.95,0.35-5.88,0.83-8.79,1.45
				c-9.92-11.67-18.52-24.47-25.59-38.2c-0.26-0.56-0.52-1.11-0.8-1.66c-0.29-0.57-0.58-1.13-0.89-1.69
				c-6.77-13.77-12.01-28.43-15.51-43.76c2.23-1.89,4.32-3.82,6.3-5.81c17.18,7.33,31.97,19.65,40.24,36.11
				C126.61,359.25,128.02,377.17,124.52,394.36z"/>
			<path fill="#FFFFFE" d="M77.21,205.84c-5.27,16.1-8.56,33.09-9.59,50.69c0.96-19.31-9.51-37.38-26.79-46.11
				C54.36,210.32,66.48,208.7,77.21,205.84z"/>
			<path fill="#FFFFFE" d="M204.91,42.31c4.01,10.92,10.22,21.26,18.03,30.14c-15.14,3.5-29.62,8.71-43.24,15.42
				C196.12,78.81,205.96,61.13,204.91,42.31z"/>
			<path fill="#FFFFFE" d="M97.36,76.31c9.31-0.78,18.9,1.24,27.42,6.29c-8.65,6.69-16.81,13.97-24.42,21.77h-0.01
				C96.33,95.28,95.46,85.48,97.36,76.31z"/>
			<path fill="#FFFFFE" d="M55.47,128.63c7.75-2.2,16.14-2.4,24.38-0.22c-5.37,7.22-10.34,14.77-14.86,22.6
				C59.72,144.34,56.55,136.59,55.47,128.63z"/>
			<path fill="#FFFFFE" d="M78.58,307.65L78.58,307.65c-1.97,1.99-4.06,3.92-6.29,5.81c-0.66-2.92-1.27-5.87-1.8-8.84
				C73.23,305.51,75.94,306.52,78.58,307.65z"/>
			<path fill="#FFFFFE" d="M72.29,313.46c3.5,15.33,8.74,29.99,15.51,43.76c-9.05-16.38-26.72-26.23-45.51-25.16
				C54,326.8,64,320.5,72.29,313.46z"/>
			<path fill="#FFFFFE" d="M299.85,501.38c0.01,0.01,0.01,0.02,0.02,0.03c-10.29,1.39-20.8,2.1-31.47,2.1
				c-9.13,0-18.15-0.52-27.01-1.53c-10.6-1.22-20.98-3.14-31.1-5.72c0.01-0.01,0.02-0.03,0.03-0.04
				c8.79-17.4,27.03-27.92,46.46-26.8C276.22,470.54,293.13,483.1,299.85,501.38z"/>
			<path fill="#FFFFFE" d="M131.09,121.47c-11.36,10.63-21.49,22.56-30.15,35.55c10.05-16.14,9.86-36.68-0.59-52.64v-0.01h0.01
				C109.3,111.84,119.87,117.69,131.09,121.47z"/>
			<path fill="#FFFFFE" d="M283.03,14.08c-6.36,4.93-11.49,11.56-14.63,19.48c-10.67,0-21.17,0.71-31.46,2.1
				c-4.86-8.63-12.15-15.18-20.61-19.15c7.7-8.66,18.6-14.38,30.85-15.35C260.83,0.08,273.76,5.08,283.03,14.08z"/>
			<path fill="#FFFFFE" d="M256.78,469.42c-19.43-1.12-37.67,9.4-46.46,26.8c1.99-11.48,1.77-23.55-0.56-35.16
				C224.77,465.63,240.51,468.49,256.78,469.42z"/>
			<path fill="#FFFFFE" d="M268.4,300.11c1.27,0,2.52-0.08,3.75-0.22c-9.41,81.96-84.04,61.18-65.43,149.69
				c-5.56-16.68-15.74-31.55-30.25-41.09c-15.31-10.06-34.15-13.34-52.6-11.17c0.24-0.98,0.46-1.97,0.65-2.96
				c28.14-85.82,82.37-30.56,131.44-96.81v-0.01C259.78,299.19,263.99,300.11,268.4,300.11z M201.78,383.37
				c12.12-10.04,18.52-22.33,14.27-27.47c-4.24-5.13-17.5-1.13-29.64,8.91c-12.12,10.03-18.52,22.31-14.27,27.45
				C176.38,397.39,189.64,393.41,201.78,383.37z"/>
			<path fill="#FFFFFE" d="M266.74,370.39c6.23,2.31,6.83,16.15,1.35,30.92c-5.49,14.76-15,24.85-21.23,22.52
				c-6.23-2.31-6.83-16.16-1.34-30.92C251,378.15,260.49,368.07,266.74,370.39z"/>
			<path fill="#FFFFFE" d="M268.4,503.51c-3.14,7.92-8.28,14.55-14.64,19.46c-5.77-5.61-10.13-12.77-12.37-20.99
				C250.25,502.99,259.27,503.51,268.4,503.51z"/>
			<path fill="#FFFFFE" d="M249.47,243.25l0.02,0.02c-4.39,3.3-7.9,7.72-10.1,12.83l-0.01-0.01
				c-66.24-49.11-10.95-103.38-96.81-131.52c17.2,3.51,35.13,2.11,50.63-5.68c16.36-8.23,28.63-22.91,35.97-39.98
				c0.75,0.71,1.52,1.41,2.29,2.09C291.59,148.27,216.67,167.63,249.47,243.25z M218.94,179.48c6.54-1.1,9.73-14.59,7.1-30.11
				c-2.61-15.53-10.05-27.23-16.61-26.11c-6.57,1.1-9.76,14.59-7.13,30.12C204.93,168.9,212.37,180.6,218.94,179.48z"/>
			<path fill="#FFFFFE" d="M206.72,449.58c0.31,0.93,0.61,1.86,0.89,2.8c-2.39,1.78-4.7,3.67-6.91,5.68
				c-14.93-5.33-29.05-12.38-42.12-20.92c-0.21-0.15-0.42-0.29-0.63-0.43c-0.19-0.12-0.38-0.25-0.57-0.36
				c-13.15-8.72-25.22-18.96-35.96-30.45c0.95-2.82,1.77-5.69,2.45-8.58c18.45-2.17,37.29,1.11,52.6,11.17
				C190.98,418.03,201.16,432.9,206.72,449.58z"/>
			<path fill="#FFFFFE" d="M239.38,256.09l0.01,0.01c-1.65,3.82-2.56,8.02-2.56,12.43c0,1.27,0.08,2.52,0.22,3.75
				c-82.46-9.45-60.86-85.1-151.43-65.07c-0.83-1.04-1.69-2.08-2.59-3.1c41.44-13.43,60-46.44,56.96-80.1
				c0.86,0.2,1.72,0.39,2.58,0.56C228.43,152.71,173.14,206.98,239.38,256.09z M181.06,216.17c5.13-4.25,1.15-17.52-8.88-29.65
				c-10.04-12.15-22.33-18.55-27.46-14.3c-5.13,4.24-1.14,17.51,8.9,29.66C163.65,214.01,175.93,220.41,181.06,216.17z"/>
			<path fill="#FFFFFE" d="M216.33,16.51c8.46,3.97,15.75,10.52,20.61,19.15c-0.01-0.01-0.02,0-0.02,0
				c-10.92,1.46-21.61,3.67-32,6.59C205.98,32.39,210.12,23.49,216.33,16.51z"/>
			<path fill="#FFFFFE" d="M179.27,485.99c5.25-10.41,12.63-19.99,21.43-27.93c2.99,1.08,6.01,2.08,9.06,3
				c2.33,11.61,2.55,23.68,0.56,35.16c-0.01,0.01-0.02,0.03-0.03,0.04C199.64,493.55,189.28,490.11,179.27,485.99z"/>
			<path fill="#FFFFFE" d="M144.07,245.64c14.75,5.48,24.84,14.98,22.51,21.23c-2.31,6.24-16.15,6.83-30.9,1.35
				c-14.76-5.49-24.83-15.01-22.52-21.24C115.48,240.75,129.32,240.15,144.07,245.64z"/>
			<path fill="#FFFFFE" d="M138.61,114.78c-2.56,2.17-5.07,4.4-7.52,6.69c-11.22-3.78-21.79-9.63-30.73-17.1
				c7.61-7.8,15.77-15.08,24.42-21.77C131.69,92.76,136.32,103.71,138.61,114.78z"/>
			<path fill="#FFFFFE" d="M139.96,123.74c0.01,0.09,0.02,0.18,0.03,0.27c-3-0.69-5.97-1.54-8.9-2.54c2.45-2.29,4.96-4.52,7.52-6.69
				C139.24,117.76,139.69,120.76,139.96,123.74z"/>
			<path fill="#FFFFFE" d="M153.91,40.86c-3.04,7.44-4.17,15.73-2.94,24.14c-9.14,5.28-17.89,11.17-26.19,17.6
				c-8.52-5.05-18.11-7.07-27.42-6.29c2.35-11.35,8.93-21.75,19.05-28.72C127.68,39.83,141.37,37.69,153.91,40.86z"/>
			<path fill="#FFFFFE" d="M157.38,436.35c-16.21-10.36-36.96-10.25-53.06,0.3c7.46-8.95,13.31-19.52,17.1-30.75
				C132.16,417.39,144.23,427.63,157.38,436.35z"/>
			<path fill="#FFFFFE" d="M128.35,457.16L128.35,457.16c-2.18,8.26-1.98,16.65,0.22,24.4c-12.87,1.76-26.3-1.94-36.65-10.98
				c-9.31-8.14-14.66-19.32-15.65-30.93c9.17,1.9,18.97,1.02,28.05-3C111.86,444.01,119.88,450.87,128.35,457.16z"/>
			<path fill="#FFFFFE" d="M139.99,124.01c3.04,33.66-15.52,66.67-56.96,80.1c-1.21-1.39-2.47-2.76-3.8-4.11
				c5.21-14.4,12.01-28.03,20.2-40.69c0.05-0.08,0.1-0.16,0.16-0.24c0.25-0.35,0.49-0.7,0.72-1.05c0.22-0.33,0.43-0.66,0.63-1
				c8.66-12.99,18.79-24.92,30.15-35.55C134.02,122.47,136.99,123.32,139.99,124.01z"/>
			<path fill="#FFFFFE" d="M204.91,42.31c1.05,18.82-8.79,36.5-25.21,45.56c-1.1,0.53-2.19,1.08-3.27,1.65
				c-17.06,7.81-37.17,5.18-51.65-6.92c8.3-6.43,17.05-12.32,26.19-17.6c7.77-4.5,15.83-8.57,24.13-12.17
				c9.62-4.17,19.58-7.72,29.82-10.58C204.91,42.27,204.91,42.29,204.91,42.31z"/>
			<path fill="#FFFFFE" d="M153.91,40.86c7.8,1.96,15.15,5.98,21.19,11.97c-8.3,3.6-16.36,7.67-24.13,12.17
				C149.74,56.59,150.87,48.3,153.91,40.86z"/>
			<path fill="#FFFFFE" d="M210.29,496.26c-5.85,8-13.87,13.63-22.74,16.56c-5.34-7.65-8.38-16.94-8.28-26.83
				C189.28,490.11,199.64,493.55,210.29,496.26z"/>
			<path fill="#FFFFFE" d="M172.18,186.52c10.03,12.13,14.01,25.4,8.88,29.65c-5.13,4.24-17.41-2.16-27.44-14.29
				c-10.04-12.15-14.03-25.42-8.9-29.66C149.85,167.97,162.14,174.37,172.18,186.52z"/>
			<path fill="#FFFFFE" d="M124.78,82.6c14.48,12.1,34.59,14.73,51.65,6.92c-13.58,6.99-26.26,15.49-37.82,25.26
				C136.32,103.71,131.69,92.76,124.78,82.6z"/>
			<path fill="#FFFFFE" d="M216.33,16.51c-6.21,6.98-10.35,15.88-11.41,25.74c-10.24,2.86-20.2,6.41-29.82,10.58
				c-6.04-5.99-13.39-10.01-21.19-11.97c4.92-12.03,14.83-21.83,27.84-26.26C193.44,10.6,205.79,11.55,216.33,16.51z"/>
			<path fill="#FFFFFE" d="M179.27,485.99c-0.1,9.89,2.94,19.18,8.28,26.83c-11,3.65-23.31,3.14-34.4-2.14
				c-12.37-5.89-21.06-16.68-24.58-29.12c7.95-1.08,15.7-4.25,22.37-9.51C160.01,477.31,169.48,481.98,179.27,485.99z"/>
			<path fill="#FFFFFE" d="M179.27,485.93c0,0.02,0,0.04,0,0.06c-9.79-4.01-19.26-8.68-28.33-13.94
				c-7.83-4.53-15.37-9.5-22.59-14.88v-0.01c-8.47-6.29-16.49-13.15-24.03-20.51c16.1-10.55,36.85-10.66,53.06-0.3
				c0.4,0.26,0.8,0.53,1.2,0.79C174.43,447.9,182.55,466.98,179.27,485.93z"/>
			<path fill="#FFFFFE" d="M222.94,72.45c1.98,2.25,4.06,4.41,6.23,6.46c-7.34,17.07-19.61,31.75-35.97,39.98
				c-15.5,7.79-33.43,9.19-50.63,5.68c-0.85-0.28-1.72-0.56-2.61-0.83c-0.27-2.98-0.72-5.98-1.35-8.96
				c11.56-9.77,24.24-18.27,37.82-25.26c0.54-0.25,1.08-0.51,1.62-0.78c0.56-0.28,1.11-0.57,1.65-0.87
				C193.32,81.16,207.8,75.95,222.94,72.45z"/>
			<path fill="#FFFFFE" d="M222.94,72.45c-7.81-8.88-14.02-19.22-18.03-30.14c0-0.02,0-0.04,0.01-0.06
				c10.39-2.92,21.08-5.13,32-6.59c0.65,11.63-0.95,23.59-4.6,34.86C229.17,71.09,226.04,71.73,222.94,72.45z"/>
			<path fill="#FFFFFE" d="M200.7,458.06c-8.8,7.94-16.18,17.52-21.43,27.93c0-0.02,0-0.04,0-0.06
				c3.28-18.95-4.84-38.03-20.69-48.79C171.65,445.68,185.77,452.73,200.7,458.06z"/>
			<path fill="#FFFFFE" d="M216.05,355.9c4.25,5.14-2.15,17.43-14.27,27.47c-12.14,10.04-25.4,14.02-29.64,8.89
				c-4.25-5.14,2.15-17.42,14.27-27.45C198.55,354.77,211.81,350.77,216.05,355.9z"/>
			<path fill="#FFFFFE" d="M207.61,452.38c0.85,2.85,1.57,5.75,2.15,8.68c-3.05-0.92-6.07-1.92-9.06-3
				C202.91,456.05,205.22,454.16,207.61,452.38z"/>
			<path fill="#FFFFFE" d="M226.04,149.37c2.63,15.52-0.56,29.01-7.1,30.11c-6.57,1.12-14.01-10.58-16.64-26.1
				c-2.63-15.53,0.56-29.02,7.13-30.12C215.99,122.14,223.43,133.84,226.04,149.37z"/>
			<path fill="#FFFFFE" d="M241.39,501.98c2.24,8.22,6.6,15.38,12.37,20.99c-10.27,7.96-23.74,11.47-37.23,8.81
				c-12.12-2.39-22.34-9.39-28.98-18.96c8.87-2.93,16.89-8.56,22.74-16.56C220.41,498.84,230.79,500.76,241.39,501.98z"/>
			<path fill="#FFFFFE" d="M40.83,210.42c17.28,8.73,27.75,26.8,26.79,46.11c-0.02,0.24-0.04,0.47-0.05,0.71
				c-1.23,19.3-13.74,36.08-31.92,42.76h-0.01c-1.39-10.29-2.1-20.8-2.1-31.47c0-9.15,0.52-18.17,1.54-27.04
				c1.21-10.6,3.13-20.98,5.71-31.1C40.8,210.4,40.82,210.41,40.83,210.42z"/>
			<path fill="#FFFFFE" d="M51.11,179.35c18.66,3.23,37.47-4.61,48.32-20.04c-8.19,12.66-14.99,26.29-20.2,40.69
				c-7.56-7.7-16.95-14.69-28.18-20.65C51.07,179.35,51.09,179.35,51.11,179.35z"/>
			<path fill="#FFFFFE" d="M485.76,357.7c-4.01,9.8-8.68,19.27-13.94,28.35c-4.52,7.84-9.49,15.38-14.87,22.61
				c-6.3,8.47-13.15,16.5-20.5,24.04h-0.01v-0.01c-10.63-16.25-10.65-37.22-0.06-53.47c0.1-0.15,0.19-0.29,0.28-0.44
				c10.73-16.12,29.94-24.39,49.03-21.08C485.71,357.7,485.74,357.7,485.76,357.7z"/>
			<path fill="#FFFFFE" d="M408.46,79.9c8.46,6.29,16.48,13.14,24.02,20.5c-16.12,10.55-36.9,10.65-53.08,0.3
				c-0.39-0.27-0.79-0.53-1.18-0.78c-15.86-10.78-23.98-29.85-20.7-48.79c0-0.02,0-0.04,0-0.06c9.8,4.02,19.26,8.68,28.34,13.95
				C393.69,69.54,401.23,74.52,408.46,79.9z"/>
			<path fill="#FFFFFE" d="M383.19,335.19c10.03,12.13,14,25.4,8.87,29.65c-5.12,4.24-17.4-2.16-27.43-14.29
				c-10.04-12.13-14.03-25.42-8.9-29.65C360.86,316.66,373.15,323.04,383.19,335.19z"/>
			<path fill="#FFFFFE" d="M357.16,449.14c-16.44,9.05-26.34,26.77-25.27,45.62c-4.01-10.93-10.23-21.28-18.04-30.17
				C329.01,461.09,343.52,455.86,357.16,449.14z"/>
			<path fill="#FFFFFE" d="M413.61,209.53c1.1,6.57-10.58,14.01-26.12,16.62c-15.51,2.64-28.98-0.55-30.1-7.11
				c-1.1-6.56,10.58-14.01,26.09-16.64C399,199.77,412.49,202.96,413.61,209.53z"/>
			<path fill="#FFFFFE" d="M522.22,181.83c3.98,11.7,3.03,24.07-1.93,34.61c-6.97-6.22-15.86-10.35-25.71-11.42
				c-2.86-10.25-6.4-20.21-10.58-29.83c5.99-6.04,10-13.4,11.96-21.2C507.99,158.9,517.78,168.82,522.22,181.83z"/>
			<path fill="#FFFFFE" d="M408.23,55.49c-7.96,1.08-15.7,4.25-22.37,9.53c-9.08-5.27-18.54-9.93-28.34-13.95
				c0.09-9.89-2.94-19.18-8.27-26.84c11-3.64,23.29-3.14,34.38,2.14C395.99,32.26,404.69,43.04,408.23,55.49z"/>
			<path fill="#FFFFFE" d="M326.47,40.85c0.01-0.01,0.02-0.03,0.03-0.04c-1.99,11.48-1.77,23.57,0.56,35.19
				c-14.89-4.55-30.51-7.41-46.65-8.35C299.7,68.6,317.76,58.12,326.47,40.85z"/>
			<path fill="#FFFFFE" d="M457.92,229.29c-0.67,0.71-1.33,1.43-1.97,2.17c-67.31,60.37-86.64-14.71-162.27,18.13l-0.03,0.02
				c-3.3-4.4-7.72-7.91-12.83-10.11c49.08-66.25,103.31-10.99,131.45-96.8c-3.5,17.19-2.1,35.11,5.68,50.59
				C426.19,209.66,440.86,221.94,457.92,229.29z M387.49,226.15c15.54-2.61,27.22-10.05,26.12-16.62
				c-1.12-6.57-14.61-9.76-30.13-7.13c-15.51,2.63-27.19,10.08-26.09,16.64C358.51,225.6,371.98,228.79,387.49,226.15z"/>
			<path fill="#FFFFFE" d="M496.03,326.67c7.99,5.86,13.61,13.88,16.55,22.75c-7.64,5.33-16.93,8.37-26.82,8.28
				C489.88,347.69,493.32,337.32,496.03,326.67z"/>
			<path fill="#FFFFFE" d="M535.63,247.3c1.08,13.65-3.91,26.58-12.92,35.86c-4.92-6.36-11.54-11.49-19.44-14.63
				c0-10.68-0.71-21.2-2.1-31.5c8.62-4.85,15.16-12.14,19.12-20.59C528.94,224.15,534.66,235.05,535.63,247.3z"/>
			<path fill="#FFFFFE" d="M494.58,205.02c2.92,10.39,5.13,21.08,6.59,32.01c-0.01,0.01-0.02,0.01-0.03,0.02
				c-11.63,0.65-23.59-0.95-34.85-4.61c-0.57-3.15-1.21-6.27-1.92-9.37c8.89-7.83,19.22-14.05,30.15-18.06
				C494.54,205.01,494.56,205.01,494.58,205.02z"/>
			<path fill="#FFFFFE" d="M495.96,153.99c-1.96,7.8-5.97,15.16-11.96,21.2c-3.59-8.31-7.66-16.37-12.16-24.15
				C480.25,149.81,488.53,150.95,495.96,153.99z"/>
			<path fill="#FFFFFE" d="M357.52,51.07c0,0.02,0,0.04,0,0.06c-5.24,10.39-12.6,19.94-21.38,27.87c-2.99-1.08-6.02-2.08-9.08-3
				c-2.33-11.62-2.55-23.71-0.56-35.19C337.15,43.52,347.51,46.96,357.52,51.07z"/>
			<path fill="#FFFFFE" d="M349.25,24.23c5.33,7.66,8.36,16.95,8.27,26.84c-10.01-4.11-20.37-7.55-31.02-10.26V40.8
				C332.37,32.8,340.38,27.17,349.25,24.23z"/>
			<path fill="#FFFFFE" d="M436.44,432.69L436.44,432.69c-7.62,7.81-15.78,15.09-24.41,21.77c0-0.01-0.01-0.01-0.01-0.01
				c-6.39-9.76-10.98-20.94-13.45-32.54c2.42-2.05,4.79-4.16,7.11-6.33C416.92,419.36,427.49,425.22,436.44,432.69z"/>
			<path fill="#FFFFFE" d="M455.95,231.46c-11.66,13.15-19.42,29.41-20.43,46.74c-1.06,18.3,5.52,36.28,16.63,51.18
				c-0.86,0.25-1.72,0.52-2.57,0.81c-88.73,18.79-67.87-56.01-149.84-65.41c-0.67-5.64-2.84-10.83-6.09-15.17l0.03-0.02
				C369.31,216.75,388.64,291.83,455.95,231.46z M423.62,290.07c2.33-6.23-7.76-15.75-22.51-21.24
				c-14.75-5.48-28.59-4.89-30.91,1.36c-2.31,6.24,7.76,15.74,22.52,21.24C407.47,296.92,421.31,296.3,423.62,290.07z"/>
			<path fill="#FFFFFE" d="M357.52,51.13c-3.28,18.94,4.84,38.01,20.7,48.79c-13.06-8.53-27.16-15.59-42.08-20.92
				C344.92,71.07,352.28,61.52,357.52,51.13z"/>
			<path fill="#FFFFFE" d="M495.97,326.63c0.01,0.01,0.03,0.02,0.04,0.03c-11.48-1.99-23.56-1.77-35.18,0.57
				c4.57-15.03,7.43-30.8,8.36-47.09C468.07,299.59,478.59,317.85,495.97,326.63z"/>
			<path fill="#FFFFFE" d="M496.01,326.66c0.01,0,0.01,0.01,0.02,0.01c-2.71,10.65-6.15,21.02-10.27,31.03c-0.02,0-0.05,0-0.07,0
				c-10.39-5.25-19.94-12.62-27.86-21.4c1.07-2.99,2.07-6.01,3-9.07C472.45,324.89,484.53,324.67,496.01,326.66z"/>
			<path fill="#FFFFFE" d="M412.02,454.45c-14.5-12.1-34.61-14.73-51.69-6.91c13.74-7.08,26.57-15.69,38.24-25.63
				C401.04,433.51,405.63,444.69,412.02,454.45z"/>
			<path fill="#FFFFFE" d="M299.74,264.78c81.97,9.4,61.11,84.2,149.84,65.41c-16.77,5.53-31.71,15.73-41.29,30.3
				c-10.05,15.33-13.34,34.18-11.17,52.63c-1-0.24-2.01-0.46-3.02-0.66c-85.68-28.17-30.49-82.41-96.69-131.5h-0.01
				c1.65-3.82,2.56-8.02,2.56-12.43C299.96,267.26,299.88,266.01,299.74,264.78z M392.06,364.84c5.13-4.25,1.16-17.52-8.87-29.65
				c-10.04-12.15-22.33-18.53-27.46-14.29c-5.13,4.23-1.14,17.52,8.9,29.65C374.66,362.68,386.94,369.08,392.06,364.84z"/>
			<path fill="#FFFFFE" d="M432.48,100.4c-7.46,8.96-13.32,19.53-17.1,30.77c-10.74-11.5-22.81-21.74-35.98-30.47
				C395.58,111.05,416.36,110.95,432.48,100.4z"/>
			<path fill="#FFFFFE" d="M471.82,386.05c5.27,6.67,8.43,14.42,9.5,22.38c-7.75,2.21-16.13,2.41-24.37,0.23
				C462.33,401.43,467.3,393.89,471.82,386.05z"/>
			<path fill="#FFFFFE" d="M327.06,76c0.58,2.93,1.3,5.83,2.16,8.68c-14.89,11.12-32.86,17.7-51.16,16.65
				c-17.27-1-33.47-8.73-46.6-20.33c-0.71-0.78-1.43-1.58-2.17-2.38c1.13-2.65,2.14-5.35,3.03-8.1c11.71-2.12,23.76-3.23,36.08-3.23
				c3.77,0,7.52,0.1,11.24,0.31c0.12,0.02,0.24,0.02,0.36,0.03c0.14,0.01,0.27,0.01,0.41,0.02C296.55,68.59,312.17,71.45,327.06,76z
				"/>
			<path fill="#FFFFFE" d="M460.51,97.4c-9.17-1.9-18.95-1.02-28.03,3c-7.54-7.36-15.56-14.21-24.02-20.5
				c2.18-8.26,1.98-16.66-0.23-24.41c12.87-1.76,26.3,1.94,36.66,11C454.18,74.62,459.52,85.79,460.51,97.4z"/>
			<path fill="#FFFFFE" d="M460.51,97.4c0.79,9.31-1.23,18.9-6.27,27.42c-6.69-8.64-13.97-16.8-21.76-24.42
				C441.56,96.38,451.34,95.5,460.51,97.4z"/>
			<path fill="#FFFFFE" d="M481.32,408.43c1.76,12.88-1.93,26.31-10.97,36.67c-8.14,9.3-19.31,14.65-30.91,15.64
				c1.89-9.17,1.02-18.96-2.99-28.04c7.35-7.54,14.2-15.57,20.5-24.04C465.19,410.84,473.57,410.64,481.32,408.43z"/>
			<path fill="#FFFFFE" d="M385.83,472.07c1.23,8.41,0.1,16.7-2.93,24.14c-7.81-1.96-15.17-5.97-21.22-11.97
				C369.99,480.64,378.05,476.57,385.83,472.07z"/>
			<path fill="#FFFFFE" d="M448.96,179.79c9.05,16.42,26.74,26.27,45.56,25.22c-10.93,4.01-21.26,10.23-30.15,18.06
				C460.87,207.92,455.66,193.42,448.96,179.79z"/>
			<path fill="#FFFFFE" d="M464.37,223.07c-2.25,1.97-4.4,4.05-6.45,6.22c-17.06-7.35-31.73-19.63-39.97-36
				c-7.78-15.48-9.18-33.4-5.68-50.59c0.33-0.98,0.64-1.97,0.96-2.99c2.85-0.34,5.68-0.81,8.49-1.42
				c9.92,11.67,18.52,24.49,25.6,38.24c0.24,0.54,0.5,1.08,0.77,1.61c0.28,0.56,0.57,1.11,0.87,1.65
				C455.66,193.42,460.87,207.92,464.37,223.07z"/>
			<path fill="#FFFFFE" d="M485.69,357.7c-19.09-3.31-38.3,4.96-49.03,21.08c8.65-13.17,15.78-27.41,21.17-42.48
				C465.75,345.08,475.3,352.45,485.69,357.7z"/>
			<path fill="#FFFFFE" d="M295.41,35.1c10.6,1.21,20.98,3.13,31.09,5.71c-0.01,0.01-0.02,0.03-0.03,0.04
				c-8.71,17.27-26.77,27.75-46.06,26.8c-0.25-0.02-0.51-0.04-0.77-0.05c-19.28-1.25-36.03-13.76-42.7-31.94
				c10.29-1.39,20.79-2.1,31.46-2.1C277.53,33.56,286.55,34.08,295.41,35.1L295.41,35.1z"/>
			<path fill="#FFFFFE" d="M494.58,205.02c9.85,1.07,18.74,5.2,25.71,11.42c-3.96,8.45-10.5,15.74-19.12,20.59
				C499.71,226.1,497.5,215.41,494.58,205.02z"/>
			<path fill="#FFFFFE" d="M501.14,237.05c-18.28,6.72-30.83,23.65-31.95,43.09c0.22-3.84,0.33-7.71,0.33-11.61
				c0-12.32-1.11-24.38-3.23-36.09C477.55,236.1,489.51,237.7,501.14,237.05z"/>
			<path fill="#FFFFFE" d="M349.25,24.23c-8.87,2.94-16.88,8.57-22.75,16.57v0.01c-10.11-2.58-20.49-4.5-31.09-5.71v-0.01
				c-2.24-8.23-6.6-15.4-12.38-21.01c10.27-7.96,23.75-11.48,37.24-8.82C332.39,7.66,342.61,14.66,349.25,24.23z"/>
			<path fill="#FFFFFE" d="M329.43,84.52c-0.07,0.06-0.14,0.11-0.21,0.16c-0.86-2.85-1.58-5.75-2.16-8.68
				c3.06,0.92,6.09,1.92,9.08,3C333.99,80.94,331.75,82.79,329.43,84.52z"/>
			<path fill="#FFFFFE" d="M412.92,139.75c-0.24,0.98-0.45,1.97-0.65,2.95c-28.14,85.81-82.37,30.55-131.45,96.8
				c-3.82-1.65-8.02-2.56-12.42-2.56c-1.27,0-2.52,0.08-3.75,0.22c9.4-82.02,84.17-61.13,65.37-149.93
				c5.53,16.78,15.73,31.75,30.3,41.33C375.64,138.63,394.48,141.92,412.92,139.75z M350.38,172.26
				c12.12-10.04,18.52-22.34,14.28-27.47c-4.25-5.13-17.51-1.14-29.63,8.9c-12.15,10.04-18.52,22.32-14.29,27.45
				C324.97,186.28,338.25,182.3,350.38,172.26z"/>
			<path fill="#FFFFFE" d="M485.76,357.7c9.89,0.09,19.18-2.95,26.82-8.28c3.64,11,3.13,23.31-2.15,34.4
				c-5.88,12.37-16.67,21.08-29.11,24.61c-1.07-7.96-4.23-15.71-9.5-22.38C477.08,376.97,481.75,367.5,485.76,357.7z"/>
			<path fill="#FFFFFE" d="M361.68,484.24c6.05,6,13.41,10.01,21.22,11.97c-4.92,12.02-14.84,21.81-27.86,26.26
				c-11.7,3.99-24.04,3.03-34.58-1.93c6.22-6.98,10.35-15.88,11.42-25.72C342.12,491.96,352.07,488.41,361.68,484.24z"/>
			<path fill="#FFFFFE" d="M413.23,139.71c-0.1,0.02-0.21,0.03-0.31,0.04c0.68-2.89,1.5-5.76,2.46-8.58
				c2.17,2.32,4.28,4.7,6.34,7.12C418.91,138.9,416.08,139.37,413.23,139.71z"/>
			<path fill="#FFFFFE" d="M408.23,55.49c2.21,7.75,2.41,16.15,0.23,24.41c-7.23-5.38-14.77-10.36-22.6-14.88
				C392.53,59.74,400.27,56.57,408.23,55.49z"/>
			<path fill="#FFFFFE" d="M405.68,415.58c-2.32,2.17-4.69,4.28-7.11,6.33c-0.6-2.8-1.07-5.63-1.41-8.47
				c-0.02-0.11-0.03-0.21-0.04-0.32C400.01,413.8,402.87,414.62,405.68,415.58z"/>
			<path fill="#FFFFFE" d="M489.22,116.47c7.76,11.27,9.9,24.97,6.74,37.52c-7.43-3.04-15.71-4.18-24.12-2.95
				c-5.28-9.15-11.17-17.9-17.6-26.21v-0.01c5.04-8.52,7.06-18.11,6.27-27.42C471.85,99.75,482.26,106.34,489.22,116.47z"/>
			<path fill="#FFFFFE" d="M503.27,268.53c7.9,3.14,14.52,8.27,19.44,14.63c-5.6,5.78-12.75,10.14-20.97,12.38
				C502.75,286.68,503.27,277.66,503.27,268.53z"/>
			<path fill="#FFFFFE" d="M360.33,447.54c17.08-7.82,37.19-5.19,51.69,6.91c0,0,0.01,0,0.01,0.01
				c-8.31,6.43-17.06,12.32-26.2,17.61c-7.78,4.5-15.84,8.57-24.15,12.17c-9.61,4.17-19.56,7.72-29.8,10.58
				c0.01-0.02,0.01-0.04,0.01-0.06c-1.07-18.85,8.83-36.57,25.27-45.62c0.01-0.01,0.03-0.01,0.04-0.02
				C358.25,448.6,359.29,448.08,360.33,447.54z"/>
			<path fill="#FFFFFE" d="M394.1,412.46c-17.16-3.48-35.05-2.07-50.51,5.7c-16.37,8.24-28.64,22.92-35.98,39.98
				c-0.73-0.7-1.48-1.38-2.24-2.04c-60.19-67.29,14.75-86.64-18.05-162.28l-0.02-0.02c4.39-3.3,7.91-7.72,10.1-12.84h0.01
				C363.61,330.05,308.42,384.29,394.1,412.46z M327.36,413.81c6.57-1.12,9.76-14.61,7.13-30.14c-2.63-15.52-10.08-27.21-16.62-26.1
				c-6.57,1.11-9.76,14.59-7.13,30.11C313.37,403.23,320.81,414.91,327.36,413.81z"/>
			<path fill="#FFFFFE" d="M469.52,268.53c0,3.9-0.11,7.77-0.33,11.61c-0.93,16.29-3.79,32.06-8.36,47.09
				c-2.93,0.57-5.83,1.29-8.68,2.15c-11.11-14.9-17.69-32.88-16.63-51.18c1.01-17.33,8.77-33.59,20.43-46.74
				c0.74-0.67,1.49-1.35,2.24-2.05c2.65,1.13,5.35,2.14,8.1,3.03C468.41,244.15,469.52,256.21,469.52,268.53z"/>
			<path fill="#FFFFFE" d="M364.66,144.79c4.24,5.13-2.16,17.43-14.28,27.47c-12.13,10.04-25.41,14.02-29.64,8.88
				c-4.23-5.13,2.14-17.41,14.29-27.45C347.15,143.65,360.41,139.66,364.66,144.79z"/>
			<path fill="#FFFFFE" d="M458.19,229.41c-0.09-0.04-0.18-0.08-0.27-0.12c2.05-2.17,4.2-4.25,6.45-6.22
				c0.71,3.1,1.35,6.22,1.92,9.37C463.54,231.55,460.84,230.54,458.19,229.41z"/>
			<path fill="#FFFFFE" d="M494.52,205.01c-18.82,1.05-36.51-8.8-45.56-25.22c-0.54-1.09-1.09-2.18-1.64-3.26
				c-7.81-17.08-5.19-37.2,6.91-51.69c0,0,0-0.01,0.01-0.01c6.43,8.31,12.32,17.06,17.6,26.21c4.5,7.78,8.57,15.84,12.16,24.15
				c4.18,9.62,7.72,19.58,10.58,29.83C494.56,205.01,494.54,205.01,494.52,205.01z"/>
			<path fill="#FFFFFE" d="M454.23,124.84c-12.1,14.49-14.72,34.61-6.91,51.69c-7.08-13.75-15.68-26.57-25.6-38.24
				C433.31,135.82,444.48,131.23,454.23,124.84z"/>
			<path fill="#FFFFFE" d="M412.03,454.46c8.52,5.04,18.11,7.06,27.41,6.28c-2.35,11.35-8.94,21.75-19.06,28.72
				c-11.26,7.76-24.95,9.9-37.48,6.75c3.03-7.44,4.16-15.73,2.93-24.14C394.97,466.78,403.72,460.89,412.03,454.46z"/>
			<path fill="#FFFFFE" d="M432.48,100.4c7.79,7.62,15.07,15.78,21.76,24.42v0.01c-0.01,0-0.01,0.01-0.01,0.01
				c-9.75,6.39-20.92,10.98-32.51,13.45c-2.06-2.42-4.17-4.8-6.34-7.12C419.16,119.93,425.02,109.36,432.48,100.4z"/>
			<path fill="#FFFFFE" d="M436.38,379.22c-10.59,16.25-10.57,37.22,0.06,53.47c-8.95-7.47-19.52-13.33-30.76-17.11
				C417.28,404.73,427.6,392.53,436.38,379.22z"/>
			<path fill="#FFFFFE" d="M452.31,329.6c1.73,2.31,3.58,4.55,5.52,6.7c-5.39,15.07-12.52,29.31-21.17,42.48
				c-0.09,0.15-0.18,0.29-0.28,0.44c-8.78,13.31-19.1,25.51-30.7,36.36c-2.81-0.96-5.67-1.78-8.56-2.46
				c-2.17-18.45,1.12-37.3,11.17-52.63c9.58-14.57,24.52-24.77,41.29-30.3C450.48,330,451.39,329.8,452.31,329.6z"/>
			<path fill="#FFFFFE" d="M334.49,383.67c2.63,15.53-0.56,29.02-7.13,30.14c-6.55,1.1-13.99-10.58-16.62-26.13
				c-2.63-15.52,0.56-29,7.13-30.11C324.41,356.46,331.86,368.15,334.49,383.67z"/>
			<path fill="#FFFFFE" d="M452.31,329.6c-0.05-0.07-0.11-0.15-0.16-0.22c2.85-0.86,5.75-1.58,8.68-2.15
				c-0.93,3.06-1.93,6.08-3,9.07C455.89,334.15,454.04,331.91,452.31,329.6z"/>
			<path fill="#FFFFFE" d="M522.71,283.16c7.96,10.27,11.47,23.77,8.81,37.27c-2.39,12.12-9.38,22.33-18.94,28.99
				c-2.94-8.87-8.56-16.89-16.55-22.75c2.57-10.13,4.49-20.52,5.71-31.13C509.96,293.3,517.11,288.94,522.71,283.16z"/>
			<path fill="#FFFFFE" d="M330.02,87.23c18.8,88.8-55.97,67.91-65.37,149.93c-5.64,0.68-10.83,2.85-15.16,6.11l-0.02-0.02
				c-32.8-75.62,42.12-94.98-18.01-162.25c13.13,11.6,29.33,19.33,46.6,20.33c18.3,1.05,36.27-5.53,51.16-16.65
				C329.47,85.53,329.74,86.39,330.02,87.23z M291.27,144.14c5.5-14.76,4.89-28.61-1.34-30.92c-6.23-2.32-15.74,7.76-21.23,22.52
				c-5.48,14.76-4.89,28.61,1.36,30.92C276.29,169,285.79,158.9,291.27,144.14z"/>
			<path fill="#FFFFFE" d="M397.16,413.44c0.34,2.84,0.81,5.67,1.41,8.47c-11.67,9.94-24.5,18.55-38.24,25.63
				c-0.54,0.25-1.07,0.5-1.6,0.77c-0.52,0.26-1.03,0.53-1.53,0.81c-0.01,0.01-0.03,0.01-0.04,0.02
				c-13.64,6.72-28.15,11.95-43.31,15.45c-1.98-2.25-4.06-4.41-6.24-6.45c7.34-17.06,19.61-31.74,35.98-39.98
				c15.46-7.77,33.35-9.18,50.51-5.7C395.1,412.79,396.12,413.12,397.16,413.44z"/>
			<path fill="#FFFFFE" d="M436.45,432.7c4.01,9.08,4.88,18.87,2.99,28.04c-9.3,0.78-18.89-1.24-27.41-6.28
				C420.66,447.78,428.82,440.5,436.45,432.7L436.45,432.7z"/>
			<path fill="#FFFFFE" d="M415.38,131.17c-0.96,2.82-1.78,5.69-2.46,8.58c-18.44,2.17-37.28-1.12-52.6-11.19
				c-14.57-9.58-24.77-24.55-30.3-41.33c-0.18-0.89-0.38-1.79-0.59-2.71c2.32-1.73,4.56-3.58,6.71-5.52
				c14.92,5.33,29.02,12.39,42.08,20.92c0.21,0.15,0.42,0.3,0.64,0.44c0.18,0.12,0.36,0.23,0.54,0.34
				C392.57,109.43,404.64,119.67,415.38,131.17z"/>
			<path fill="#FFFFFE" d="M501.14,237.05c0.01-0.01,0.02-0.01,0.03-0.02c1.39,10.3,2.1,20.82,2.1,31.5
				c0,9.13-0.52,18.15-1.53,27.01c-1.22,10.61-3.14,21-5.71,31.13c-0.01,0-0.01-0.01-0.02-0.01c-0.01-0.01-0.03-0.02-0.04-0.03
				c-17.38-8.78-27.9-27.04-26.78-46.49C470.31,260.7,482.86,243.77,501.14,237.05z"/>
			<path fill="#FFFFFE" d="M313.85,464.59c7.81,8.89,14.03,19.24,18.04,30.17c0,0.02,0,0.04-0.01,0.06
				c-10.39,2.92-21.08,5.13-32.01,6.59c-0.01-0.01-0.01-0.02-0.02-0.03c-0.65-11.62,0.95-23.59,4.6-34.85
				C307.61,465.95,310.74,465.31,313.85,464.59z"/>
			<path fill="#FFFFFE" d="M401.11,268.83c14.75,5.49,24.84,15.01,22.51,21.24c-2.31,6.23-16.15,6.85-30.9,1.36
				c-14.76-5.5-24.83-15-22.52-21.24C372.52,263.94,386.36,263.35,401.11,268.83z"/>
		</g>
		<g>
			
				<path fill="none" stroke="#000000" stroke-width="2.0286" stroke-linecap="round" stroke-linejoin="round" stroke-miterlimit="10" d="
				M357.52,51.13c0-0.02,0-0.04,0-0.06c0.09-9.89-2.94-19.18-8.27-26.84c-6.64-9.57-16.86-16.57-28.98-18.97
				c-13.49-2.66-26.97,0.86-37.24,8.82c-6.36,4.93-11.49,11.56-14.63,19.48"/>
			
				<path fill="none" stroke="#000000" stroke-width="2.0286" stroke-linecap="round" stroke-linejoin="round" stroke-miterlimit="10" d="
				M357.52,51.13c-3.28,18.94,4.84,38.01,20.7,48.79c0.21,0.15,0.42,0.3,0.64,0.44c0.18,0.12,0.36,0.23,0.54,0.34
				c16.18,10.35,36.96,10.25,53.08-0.3"/>
			
				<path fill="none" stroke="#000000" stroke-width="2.0286" stroke-linecap="round" stroke-linejoin="round" stroke-miterlimit="10" d="
				M436.45,432.7c7.35-7.54,14.2-15.57,20.5-24.04c5.38-7.23,10.35-14.77,14.87-22.61c5.26-9.08,9.93-18.55,13.94-28.35
				c4.12-10.01,7.56-20.38,10.27-31.03c2.57-10.13,4.49-20.52,5.71-31.13c1.01-8.86,1.53-17.88,1.53-27.01
				c0-10.68-0.71-21.2-2.1-31.5c-1.46-10.93-3.67-21.62-6.59-32.01c-2.86-10.25-6.4-20.21-10.58-29.83
				c-3.59-8.31-7.66-16.37-12.16-24.15c-5.28-9.15-11.17-17.9-17.6-26.21"/>
			
				<path fill="none" stroke="#000000" stroke-width="2.0286" stroke-linecap="round" stroke-linejoin="round" stroke-miterlimit="10" d="
				M128.35,457.17c7.22,5.38,14.76,10.35,22.59,14.88c9.07,5.26,18.54,9.93,28.33,13.94c10.01,4.12,20.37,7.56,31.02,10.27
				c10.12,2.58,20.5,4.5,31.1,5.72c8.86,1.01,17.88,1.53,27.01,1.53c10.67,0,21.18-0.71,31.47-2.1c10.93-1.46,21.62-3.67,32.01-6.59
				c10.24-2.86,20.19-6.41,29.8-10.58c8.31-3.6,16.37-7.67,24.15-12.17c9.14-5.29,17.89-11.18,26.2-17.61
				c8.63-6.68,16.79-13.96,24.41-21.76"/>
			
				<path fill="none" stroke="#000000" stroke-width="2.0286" stroke-linecap="round" stroke-linejoin="round" stroke-miterlimit="10" d="
				M35.64,300.01c1.45,10.94,3.67,21.64,6.59,32.04c2.86,10.24,6.4,20.19,10.57,29.81c3.6,8.32,7.66,16.38,12.17,24.16
				c5.28,9.14,11.16,17.89,17.59,26.2c6.68,8.65,13.96,16.81,21.76,24.43c7.54,7.36,15.56,14.22,24.03,20.51"/>
			
				<path fill="none" stroke="#000000" stroke-width="2.0286" stroke-linecap="round" stroke-linejoin="round" stroke-miterlimit="10" d="
				M100.35,104.38c-7.35,7.54-14.2,15.57-20.5,24.03c-5.37,7.22-10.34,14.77-14.86,22.6c-5.26,9.08-9.93,18.54-13.94,28.34
				c-4.11,10.02-7.55,20.38-10.26,31.04c-2.58,10.12-4.5,20.5-5.71,31.1c-1.02,8.87-1.54,17.89-1.54,27.04
				c0,10.67,0.71,21.18,2.1,31.47"/>
			
				<path fill="none" stroke="#000000" stroke-width="2.0286" stroke-linecap="round" stroke-linejoin="round" stroke-miterlimit="10" d="
				M295.41,35.09c-8.86-1.01-17.88-1.53-27.01-1.53c-10.67,0-21.17,0.71-31.46,2.1c-0.01-0.01-0.02,0-0.02,0
				c-10.92,1.46-21.61,3.67-32,6.59c-10.24,2.86-20.2,6.41-29.82,10.58c-8.3,3.6-16.36,7.67-24.13,12.17
				c-9.14,5.28-17.89,11.17-26.19,17.6c-8.65,6.69-16.81,13.97-24.42,21.77"/>
			
				<path fill="none" stroke="#000000" stroke-width="2.0286" stroke-linecap="round" stroke-linejoin="round" stroke-miterlimit="10" d="
				M454.24,124.82c-6.69-8.64-13.97-16.8-21.76-24.42c-7.54-7.36-15.56-14.21-24.02-20.5c-7.23-5.38-14.77-10.36-22.6-14.88
				c-9.08-5.27-18.54-9.93-28.34-13.95c-10.01-4.11-20.37-7.55-31.02-10.26c-10.11-2.58-20.49-4.5-31.09-5.71"/>
			
				<path fill="none" stroke="#000000" stroke-width="2.0286" stroke-linecap="round" stroke-linejoin="round" stroke-miterlimit="10" d="
				M483.96,175.23c0.01-0.01,0.03-0.03,0.04-0.04c5.99-6.04,10-13.4,11.96-21.2c3.16-12.55,1.02-26.25-6.74-37.52
				c-6.96-10.13-17.37-16.72-28.71-19.07c-9.17-1.9-18.95-1.02-28.03,3"/>
			
				<path fill="none" stroke="#000000" stroke-width="2.0286" stroke-linecap="round" stroke-linejoin="round" stroke-miterlimit="10" d="
				M236.94,35.66c-4.86-8.63-12.15-15.18-20.61-19.15c-10.54-4.96-22.89-5.91-34.58-1.91c-13.01,4.43-22.92,14.23-27.84,26.26
				c-3.04,7.44-4.17,15.73-2.94,24.14c0,0.01,0,0.03,0,0.04"/>
			
				<path fill="none" stroke="#000000" stroke-width="2.0286" stroke-linecap="round" stroke-linejoin="round" stroke-miterlimit="10" d="
				M236.94,35.66c6.67,18.18,23.42,30.69,42.7,31.94c0.12,0.02,0.24,0.02,0.36,0.03c0.14,0.01,0.27,0.01,0.41,0.02
				c19.29,0.95,37.35-9.53,46.06-26.8"/>
			
				<path fill="none" stroke="#000000" stroke-width="2.0286" stroke-linecap="round" stroke-linejoin="round" stroke-miterlimit="10" d="
				M326.5,40.81c-0.01,0.01-0.02,0.03-0.03,0.04"/>
			
				<path fill="none" stroke="#000000" stroke-width="2.0286" stroke-linecap="round" stroke-linejoin="round" stroke-miterlimit="10" d="
				M408.46,79.91L408.46,79.91c2.18-8.27,1.98-16.67-0.23-24.42c-3.54-12.45-12.24-23.23-24.6-29.12
				c-11.09-5.28-23.38-5.78-34.38-2.14c-8.87,2.94-16.88,8.57-22.75,16.57"/>
			
				<path fill="none" stroke="#000000" stroke-width="2.0286" stroke-linecap="round" stroke-linejoin="round" stroke-miterlimit="10" d="
				M124.78,82.6c-8.52-5.05-18.11-7.07-27.42-6.29c-11.61,0.99-22.78,6.34-30.9,15.65c-9.06,10.35-12.75,23.79-10.99,36.67
				c1.08,7.96,4.25,15.71,9.52,22.38c0,0.01,0.01,0.02,0.02,0.03"/>
			
				<path fill="none" stroke="#000000" stroke-width="2.0286" stroke-linecap="round" stroke-linejoin="round" stroke-miterlimit="10" d="
				M124.78,82.6c14.48,12.1,34.59,14.73,51.65,6.92c0.54-0.25,1.08-0.51,1.62-0.78c0.56-0.28,1.11-0.57,1.65-0.87
				c16.42-9.06,26.26-26.74,25.21-45.56"/>
			
				<path fill="none" stroke="#000000" stroke-width="2.0286" stroke-linecap="round" stroke-linejoin="round" stroke-miterlimit="10" d="
				M295.41,35.1L295.41,35.1c-2.24-8.24-6.6-15.41-12.38-21.02c-9.27-9-22.2-14-35.85-12.92c-12.25,0.97-23.15,6.69-30.85,15.35
				c-6.21,6.98-10.35,15.88-11.41,25.74c-0.01,0.02-0.01,0.04-0.01,0.06"/>
			
				<path fill="none" stroke="#000000" stroke-width="2.0286" stroke-linecap="round" stroke-linejoin="round" stroke-miterlimit="10" d="
				M51.04,179.35c-9.89-0.09-19.18,2.95-26.82,8.28c-9.57,6.66-16.57,16.89-18.96,29.01c-2.66,13.49,0.86,26.97,8.82,37.24
				c4.92,6.37,11.55,11.5,19.46,14.65"/>
			
				<path fill="none" stroke="#000000" stroke-width="2.0286" stroke-linecap="round" stroke-linejoin="round" stroke-miterlimit="10" d="
				M51.11,179.35c-0.02,0-0.04,0-0.06,0"/>
			
				<path fill="none" stroke="#000000" stroke-width="2.0286" stroke-linecap="round" stroke-linejoin="round" stroke-miterlimit="10" d="
				M99.59,159.07c0.25-0.35,0.49-0.7,0.72-1.05c0.22-0.33,0.43-0.66,0.63-1c10.05-16.14,9.86-36.68-0.59-52.64v-0.01"/>
			
				<path fill="none" stroke="#000000" stroke-width="2.0286" stroke-linecap="round" stroke-linejoin="round" stroke-miterlimit="10" d="
				M51.11,179.35c18.66,3.23,37.47-4.61,48.32-20.04"/>
			
				<path fill="none" stroke="#000000" stroke-width="2.0286" stroke-linecap="round" stroke-linejoin="round" stroke-miterlimit="10" d="
				M175.14,52.87c-0.01-0.01-0.03-0.03-0.04-0.04c-6.04-5.99-13.39-10.01-21.19-11.97c-12.54-3.17-26.23-1.03-37.5,6.73
				c-10.12,6.97-16.7,17.37-19.05,28.72c-1.9,9.17-1.03,18.97,2.99,28.06"/>
			
				<path fill="none" stroke="#000000" stroke-width="2.0286" stroke-linecap="round" stroke-linejoin="round" stroke-miterlimit="10" d="
				M35.63,300.01c-8.62,4.87-15.16,12.16-19.13,20.61c-4.96,10.54-5.91,22.89-1.91,34.59c4.43,13.03,14.22,22.95,26.25,27.87
				c7.44,3.04,15.72,4.17,24.13,2.94c0.01,0,0.03,0,0.04,0"/>
			
				<polyline fill="none" stroke="#000000" stroke-width="2.0286" stroke-linecap="round" stroke-linejoin="round" stroke-miterlimit="10" points="
				35.65,300 35.64,300 35.64,300.01 			"/>
			
				<path fill="none" stroke="#000000" stroke-width="2.0286" stroke-linecap="round" stroke-linejoin="round" stroke-miterlimit="10" d="
				M35.65,300c18.18-6.68,30.69-23.46,31.92-42.76c0.02-0.11,0.02-0.22,0.03-0.33c0.01-0.13,0.01-0.25,0.02-0.38
				c0.96-19.31-9.51-37.38-26.79-46.11"/>
			
				<path fill="none" stroke="#000000" stroke-width="2.0286" stroke-linecap="round" stroke-linejoin="round" stroke-miterlimit="10" d="
				M79.87,128.41c-0.01,0-0.01,0-0.02,0c-8.24-2.18-16.63-1.98-24.38,0.22c-12.44,3.53-23.23,12.23-29.11,24.6
				c-5.28,11.09-5.78,23.4-2.14,34.4c2.94,8.88,8.57,16.91,16.57,22.76c0.01,0.01,0.03,0.02,0.04,0.03"/>
			
				<path fill="none" stroke="#000000" stroke-width="2.0286" stroke-linecap="round" stroke-linejoin="round" stroke-miterlimit="10" d="
				M82.56,412.22c-5.05,8.53-7.07,18.12-6.29,27.43c0.99,11.61,6.34,22.79,15.65,30.93c10.35,9.04,23.78,12.74,36.65,10.98
				c7.95-1.08,15.7-4.25,22.37-9.51c0.01,0,0.02-0.01,0.03-0.02"/>
			
				<path fill="none" stroke="#000000" stroke-width="2.0286" stroke-linecap="round" stroke-linejoin="round" stroke-miterlimit="10" d="
				M82.56,412.22c12.08-14.49,14.72-34.58,6.93-51.65c-0.26-0.56-0.52-1.11-0.8-1.66c-0.29-0.57-0.58-1.13-0.89-1.69
				c-9.05-16.38-26.72-26.23-45.51-25.16"/>
			
				<path fill="none" stroke="#000000" stroke-width="2.0286" stroke-linecap="round" stroke-linejoin="round" stroke-miterlimit="10" d="
				M35.09,241.49L35.09,241.49c-8.23,2.24-15.4,6.61-21.01,12.39c-9,9.29-14,22.22-12.92,35.87C2.13,302,7.85,312.91,16.5,320.62
				c6.98,6.22,15.88,10.35,25.73,11.43c0.02,0.01,0.04,0.01,0.06,0.01"/>
			
				<path fill="none" stroke="#000000" stroke-width="2.0286" stroke-linecap="round" stroke-linejoin="round" stroke-miterlimit="10" d="
				M179.27,485.93c0,0.02,0,0.04,0,0.06c-0.1,9.89,2.94,19.18,8.28,26.83c6.64,9.57,16.86,16.57,28.98,18.96
				c13.49,2.66,26.96-0.85,37.23-8.81c6.36-4.91,11.5-11.54,14.64-19.46"/>
			
				<path fill="none" stroke="#000000" stroke-width="2.0286" stroke-linecap="round" stroke-linejoin="round" stroke-miterlimit="10" d="
				M179.27,485.93c3.28-18.95-4.84-38.03-20.69-48.79c-0.21-0.15-0.42-0.29-0.63-0.43c-0.19-0.12-0.38-0.25-0.57-0.36
				c-16.21-10.36-36.96-10.25-53.06,0.3"/>
			
				<path fill="none" stroke="#000000" stroke-width="2.0286" stroke-linecap="round" stroke-linejoin="round" stroke-miterlimit="10" d="
				M52.84,361.82c-0.01,0.01-0.03,0.03-0.04,0.04c-5.99,6.05-10,13.41-11.96,21.22c-3.16,12.54-1.02,26.23,6.73,37.5
				c6.96,10.13,17.36,16.72,28.7,19.07c9.17,1.9,18.97,1.02,28.05-3"/>
			
				<path fill="none" stroke="#000000" stroke-width="2.0286" stroke-linecap="round" stroke-linejoin="round" stroke-miterlimit="10" d="
				M299.85,501.38c0.01,0.01,0.01,0.02,0.02,0.03c4.86,8.62,12.15,15.16,20.59,19.13c10.54,4.96,22.88,5.92,34.58,1.93
				c13.02-4.45,22.94-14.24,27.86-26.26c3.03-7.44,4.16-15.73,2.93-24.14c0-0.01,0-0.03,0-0.04"/>
			
				<path fill="none" stroke="#000000" stroke-width="2.0286" stroke-linecap="round" stroke-linejoin="round" stroke-miterlimit="10" d="
				M299.85,501.38c-6.72-18.28-23.63-30.84-43.07-31.96c-19.43-1.12-37.67,9.4-46.46,26.8"/>
			
				<path fill="none" stroke="#000000" stroke-width="2.0286" stroke-linecap="round" stroke-linejoin="round" stroke-miterlimit="10" d="
				M128.35,457.16L128.35,457.16c-2.18,8.26-1.98,16.65,0.22,24.4c3.52,12.44,12.21,23.23,24.58,29.12
				c11.09,5.28,23.4,5.79,34.4,2.14c8.87-2.93,16.89-8.56,22.74-16.56c0.01-0.01,0.02-0.03,0.03-0.04"/>
			
				<path fill="none" stroke="#000000" stroke-width="2.0286" stroke-linecap="round" stroke-linejoin="round" stroke-miterlimit="10" d="
				M412.02,454.45C412.02,454.45,412.03,454.45,412.02,454.45c8.53,5.05,18.12,7.07,27.42,6.29c11.6-0.99,22.77-6.34,30.91-15.64
				c9.04-10.36,12.73-23.79,10.97-36.67c-1.07-7.96-4.23-15.71-9.5-22.38c0-0.01-0.01-0.02-0.02-0.03"/>
			
				<path fill="none" stroke="#000000" stroke-width="2.0286" stroke-linecap="round" stroke-linejoin="round" stroke-miterlimit="10" d="
				M357.16,449.14c-16.44,9.05-26.34,26.77-25.27,45.62"/>
			
				<path fill="none" stroke="#000000" stroke-width="2.0286" stroke-linecap="round" stroke-linejoin="round" stroke-miterlimit="10" d="
				M412.02,454.45c-14.5-12.1-34.61-14.73-51.69-6.91c-0.54,0.25-1.07,0.5-1.6,0.77c-0.52,0.26-1.03,0.53-1.53,0.81"/>
			
				<path fill="none" stroke="#000000" stroke-width="2.0286" stroke-linecap="round" stroke-linejoin="round" stroke-miterlimit="10" d="
				M241.38,501.94c0,0.01,0.01,0.03,0.01,0.04c2.24,8.22,6.6,15.38,12.37,20.99c9.28,9,22.21,14,35.85,12.92
				c12.25-0.97,23.15-6.69,30.85-15.35c6.22-6.98,10.35-15.88,11.42-25.72c0.01-0.02,0.01-0.04,0.01-0.06"/>
			
				<path fill="none" stroke="#000000" stroke-width="2.0286" stroke-linecap="round" stroke-linejoin="round" stroke-miterlimit="10" d="
				M485.69,357.7c0.02,0,0.05,0,0.07,0c9.89,0.09,19.18-2.95,26.82-8.28c9.56-6.66,16.55-16.87,18.94-28.99
				c2.66-13.5-0.85-27-8.81-37.27c-4.92-6.36-11.54-11.49-19.44-14.63"/>
			
				<path fill="none" stroke="#000000" stroke-width="2.0286" stroke-linecap="round" stroke-linejoin="round" stroke-miterlimit="10" d="
				M436.38,379.22c-10.59,16.25-10.57,37.22,0.06,53.47"/>
			
				<path fill="none" stroke="#000000" stroke-width="2.0286" stroke-linecap="round" stroke-linejoin="round" stroke-miterlimit="10" d="
				M485.69,357.7c-19.09-3.31-38.3,4.96-49.03,21.08"/>
			
				<path fill="none" stroke="#000000" stroke-width="2.0286" stroke-linecap="round" stroke-linejoin="round" stroke-miterlimit="10" d="
				M361.64,484.2c0.01,0.01,0.03,0.03,0.04,0.04c6.05,6,13.41,10.01,21.22,11.97c12.53,3.15,26.22,1.01,37.48-6.75
				c10.12-6.97,16.71-17.37,19.06-28.72c1.89-9.17,1.02-18.96-2.99-28.04h-0.01v-0.01"/>
			
				<path fill="none" stroke="#000000" stroke-width="2.0286" stroke-linecap="round" stroke-linejoin="round" stroke-miterlimit="10" d="
				M501.14,237.05c0.01-0.01,0.02-0.01,0.03-0.02c8.62-4.85,15.16-12.14,19.12-20.59c4.96-10.54,5.91-22.91,1.93-34.61
				c-4.44-13.01-14.23-22.93-26.26-27.84c-7.43-3.04-15.71-4.18-24.12-2.95c-0.01,0-0.03,0-0.04,0"/>
			
				<path fill="none" stroke="#000000" stroke-width="2.0286" stroke-linecap="round" stroke-linejoin="round" stroke-miterlimit="10" d="
				M501.14,237.05c-18.28,6.72-30.83,23.65-31.95,43.09c-1.12,19.45,9.4,37.71,26.78,46.49"/>
			
				<path fill="none" stroke="#000000" stroke-width="2.0286" stroke-linecap="round" stroke-linejoin="round" stroke-miterlimit="10" d="
				M456.94,408.66L456.94,408.66c8.25,2.18,16.63,1.98,24.38-0.23c12.44-3.53,23.23-12.24,29.11-24.61
				c5.28-11.09,5.79-23.4,2.15-34.4c-2.94-8.87-8.56-16.89-16.55-22.75c-0.01,0-0.01-0.01-0.02-0.01c-0.01-0.01-0.03-0.02-0.04-0.03
				"/>
			
				<path fill="none" stroke="#000000" stroke-width="2.0286" stroke-linecap="round" stroke-linejoin="round" stroke-miterlimit="10" d="
				M454.23,124.84c0,0,0-0.01,0.01-0.01v-0.01c5.04-8.52,7.06-18.11,6.27-27.42c-0.99-11.61-6.33-22.78-15.62-30.91
				c-10.36-9.06-23.79-12.76-36.66-11c-7.96,1.08-15.7,4.25-22.37,9.53c-0.01,0-0.02,0.01-0.03,0.02"/>
			
				<path fill="none" stroke="#000000" stroke-width="2.0286" stroke-linecap="round" stroke-linejoin="round" stroke-miterlimit="10" d="
				M454.23,124.84c-12.1,14.49-14.72,34.61-6.91,51.69c0.24,0.54,0.5,1.08,0.77,1.61c0.28,0.56,0.57,1.11,0.87,1.65
				c9.05,16.42,26.74,26.27,45.56,25.22"/>
			
				<path fill="none" stroke="#000000" stroke-width="2.0286" stroke-linecap="round" stroke-linejoin="round" stroke-miterlimit="10" d="
				M501.7,295.55c0.01,0,0.03-0.01,0.04-0.01c8.22-2.24,15.37-6.6,20.97-12.38c9.01-9.28,14-22.21,12.92-35.86
				c-0.97-12.25-6.69-23.15-15.34-30.86c-6.97-6.22-15.86-10.35-25.71-11.42c-0.02-0.01-0.04-0.01-0.06-0.01"/>
			
				<path fill="none" stroke="#000000" stroke-width="2.0286" stroke-linecap="round" stroke-linejoin="round" stroke-miterlimit="10" d="
				M469.19,280.14c0.22-3.84,0.33-7.71,0.33-11.61c0-12.32-1.11-24.38-3.23-36.09c-0.57-3.15-1.21-6.27-1.92-9.37
				c-3.5-15.15-8.71-29.65-15.41-43.28c-0.54-1.09-1.09-2.18-1.64-3.26c-7.08-13.75-15.68-26.57-25.6-38.24
				c-2.06-2.42-4.17-4.8-6.34-7.12c-10.74-11.5-22.81-21.74-35.98-30.47c-0.39-0.27-0.79-0.53-1.18-0.78
				c-13.06-8.53-27.16-15.59-42.08-20.92c-2.99-1.08-6.02-2.08-9.08-3c-14.89-4.55-30.51-7.41-46.65-8.35
				c-0.25-0.02-0.51-0.04-0.77-0.05c-3.72-0.21-7.47-0.31-11.24-0.31c-12.32,0-24.37,1.11-36.08,3.23
				c-3.15,0.57-6.28,1.21-9.38,1.93c-15.14,3.5-29.62,8.71-43.24,15.42c-1.1,0.53-2.19,1.08-3.27,1.65
				c-13.58,6.99-26.26,15.49-37.82,25.26c-2.56,2.17-5.07,4.4-7.52,6.69c-11.36,10.63-21.49,22.56-30.15,35.55
				c-0.46,0.68-0.91,1.36-1.35,2.05c-0.06,0.08-0.11,0.16-0.16,0.24c-8.19,12.66-14.99,26.29-20.2,40.69
				c-0.71,1.93-1.38,3.88-2.02,5.84c-5.27,16.1-8.56,33.09-9.59,50.69c-0.02,0.24-0.04,0.47-0.05,0.71
				c-0.21,3.74-0.31,7.5-0.31,11.29c0,12.32,1.11,24.38,3.23,36.09c0.53,2.97,1.14,5.92,1.8,8.84c3.5,15.33,8.74,29.99,15.51,43.76
				c0.55,1.12,1.11,2.24,1.69,3.35c7.07,13.73,15.67,26.53,25.59,38.2c2.05,2.43,4.17,4.8,6.34,7.13
				c10.74,11.49,22.81,21.73,35.96,30.45c0.4,0.26,0.8,0.53,1.2,0.79c13.07,8.54,27.19,15.59,42.12,20.92
				c2.99,1.08,6.01,2.08,9.06,3c15.01,4.57,30.75,7.43,47.02,8.36c3.84,0.22,7.72,0.33,11.62,0.33c12.31,0,24.35-1.11,36.05-3.22
				c3.16-0.58,6.29-1.22,9.4-1.94c15.16-3.5,29.67-8.73,43.31-15.45c0.01-0.01,0.03-0.01,0.04-0.02c1.05-0.52,2.09-1.04,3.13-1.58
				c13.74-7.08,26.57-15.69,38.24-25.63c2.42-2.05,4.79-4.16,7.11-6.33c11.6-10.85,21.92-23.05,30.7-36.36
				c0.1-0.15,0.19-0.29,0.28-0.44c8.65-13.17,15.78-27.41,21.17-42.48c1.07-2.99,2.07-6.01,3-9.07
				C465.4,312.2,468.26,296.43,469.19,280.14z"/>
			
				<path fill="none" stroke="#000000" stroke-width="2.0286" stroke-linecap="round" stroke-linejoin="round" stroke-miterlimit="10" d="
				M331.89,494.76c-4.01-10.93-10.23-21.28-18.04-30.17c-1.98-2.25-4.06-4.41-6.24-6.45c-0.73-0.7-1.48-1.38-2.24-2.04
				c-13.13-11.62-29.34-19.36-46.63-20.36c-18.29-1.06-36.25,5.52-51.13,16.64c-2.39,1.78-4.7,3.67-6.91,5.68
				c-8.8,7.94-16.18,17.52-21.43,27.93"/>
			
				<path fill="none" stroke="#000000" stroke-width="2.0286" stroke-linecap="round" stroke-linejoin="round" stroke-miterlimit="10" d="
				M436.44,432.69c-8.95-7.47-19.52-13.33-30.76-17.11c-2.81-0.96-5.67-1.78-8.56-2.46c-1-0.24-2.01-0.46-3.02-0.66
				c-17.16-3.48-35.05-2.07-50.51,5.7c-16.37,8.24-28.64,22.92-35.98,39.98c-0.05,0.09-0.09,0.18-0.12,0.28
				c-1.14,2.65-2.15,5.36-3.04,8.11c-3.65,11.26-5.25,23.23-4.6,34.85"/>
			
				<path fill="none" stroke="#000000" stroke-width="2.0286" stroke-linecap="round" stroke-linejoin="round" stroke-miterlimit="10" d="
				M496.01,326.66c-11.48-1.99-23.56-1.77-35.18,0.57c-2.93,0.57-5.83,1.29-8.68,2.15c-0.86,0.25-1.72,0.52-2.57,0.81
				c-16.77,5.53-31.71,15.73-41.29,30.3c-10.05,15.33-13.34,34.18-11.17,52.63c0.01,0.11,0.02,0.21,0.04,0.32
				c0.34,2.84,0.81,5.67,1.41,8.47c2.47,11.6,7.06,22.78,13.45,32.54"/>
			
				<path fill="none" stroke="#000000" stroke-width="2.0286" stroke-linecap="round" stroke-linejoin="round" stroke-miterlimit="10" d="
				M494.52,205.01c-10.93,4.01-21.26,10.23-30.15,18.06c-2.25,1.97-4.4,4.05-6.45,6.22c-0.67,0.71-1.33,1.43-1.97,2.17
				c-11.66,13.15-19.42,29.41-20.43,46.74c-1.06,18.3,5.52,36.28,16.63,51.18c0.05,0.07,0.11,0.15,0.16,0.22
				c1.73,2.31,3.58,4.55,5.52,6.7c7.92,8.78,17.47,16.15,27.86,21.4"/>
			
				<path fill="none" stroke="#000000" stroke-width="2.0286" stroke-linecap="round" stroke-linejoin="round" stroke-miterlimit="10" d="
				M432.48,100.4c-7.46,8.96-13.32,19.53-17.1,30.77c-0.96,2.82-1.78,5.69-2.46,8.58c-0.24,0.98-0.45,1.97-0.65,2.95
				c-3.5,17.19-2.1,35.11,5.68,50.59c8.24,16.37,22.91,28.65,39.97,36c0.09,0.04,0.18,0.08,0.27,0.12c2.65,1.13,5.35,2.14,8.1,3.03
				c11.26,3.66,23.22,5.26,34.85,4.61"/>
			
				<path fill="none" stroke="#000000" stroke-width="2.0286" stroke-linecap="round" stroke-linejoin="round" stroke-miterlimit="10" d="
				M326.5,40.8L326.5,40.8c-1.99,11.49-1.77,23.58,0.56,35.2c0.58,2.93,1.3,5.83,2.16,8.68c0.25,0.85,0.52,1.71,0.8,2.55
				c5.53,16.78,15.73,31.75,30.3,41.33c15.32,10.07,34.16,13.36,52.6,11.19c0.1-0.01,0.21-0.02,0.31-0.04
				c2.85-0.34,5.68-0.81,8.49-1.42c11.59-2.47,22.76-7.06,32.51-13.45"/>
			
				<path fill="none" stroke="#000000" stroke-width="2.0286" stroke-linecap="round" stroke-linejoin="round" stroke-miterlimit="10" d="
				M204.91,42.31c4.01,10.92,10.22,21.26,18.03,30.14c1.98,2.25,4.06,4.41,6.23,6.46c0.75,0.71,1.52,1.41,2.29,2.09
				c13.13,11.6,29.33,19.33,46.6,20.33c18.3,1.05,36.27-5.53,51.16-16.65c0.07-0.05,0.14-0.1,0.21-0.16
				c2.32-1.73,4.56-3.58,6.71-5.52c8.78-7.93,16.14-17.48,21.38-27.87"/>
			
				<path fill="none" stroke="#000000" stroke-width="2.0286" stroke-linecap="round" stroke-linejoin="round" stroke-miterlimit="10" d="
				M100.35,104.37L100.35,104.37c8.95,7.47,19.52,13.32,30.74,17.1c2.93,1,5.9,1.85,8.9,2.54c0.86,0.2,1.72,0.39,2.58,0.56
				c17.2,3.51,35.13,2.11,50.63-5.68c16.36-8.23,28.63-22.91,35.97-39.98c0.04-0.09,0.08-0.19,0.12-0.29
				c1.13-2.65,2.14-5.35,3.03-8.1c3.65-11.27,5.25-23.23,4.6-34.86v-0.01"/>
			
				<path fill="none" stroke="#000000" stroke-width="2.0286" stroke-linecap="round" stroke-linejoin="round" stroke-miterlimit="10" d="
				M78.58,307.65c-2.64-1.13-5.35-2.14-8.09-3.03c-11.26-3.65-23.23-5.26-34.85-4.61h-0.01"/>
			
				<path fill="none" stroke="#000000" stroke-width="2.0286" stroke-linecap="round" stroke-linejoin="round" stroke-miterlimit="10" d="
				M104.32,436.65c7.46-8.95,13.31-19.52,17.1-30.75c0.95-2.82,1.77-5.69,2.45-8.58c0.24-0.98,0.46-1.97,0.65-2.96
				c3.5-17.19,2.09-35.11-5.69-50.6c-8.27-16.46-23.06-28.78-40.24-36.11"/>
			
				<path fill="none" stroke="#000000" stroke-width="2.0286" stroke-linecap="round" stroke-linejoin="round" stroke-miterlimit="10" d="
				M210.32,496.22c1.99-11.48,1.77-23.55-0.56-35.16c-0.58-2.93-1.3-5.83-2.15-8.68c-0.28-0.94-0.58-1.87-0.89-2.8
				c-5.56-16.68-15.74-31.55-30.25-41.09c-15.31-10.06-34.15-13.34-52.6-11.17c-2.95,0.35-5.88,0.83-8.79,1.45
				c-11.59,2.47-22.77,7.06-32.52,13.45"/>
			
				<path fill="none" stroke="#000000" stroke-width="2.0286" stroke-linecap="round" stroke-linejoin="round" stroke-miterlimit="10" d="
				M78.71,307.53c29.28-29.48,31.61-69.29,6.91-100.32c-0.83-1.04-1.69-2.08-2.59-3.1c-1.21-1.39-2.47-2.76-3.8-4.11
				c-7.56-7.7-16.95-14.69-28.18-20.65h-0.01"/>
			
				<path fill="none" stroke="#000000" stroke-width="2.0286" stroke-linecap="round" stroke-linejoin="round" stroke-miterlimit="10" d="
				M42.29,332.06c11.71-5.26,21.71-11.56,30-18.6c2.23-1.89,4.32-3.82,6.3-5.81"/>
			
				<path fill="none" stroke="#000000" stroke-width="2.0286" stroke-linecap="round" stroke-linejoin="round" stroke-miterlimit="10" d="
				M40.83,210.42c13.53-0.1,25.65-1.72,36.38-4.58c1.99-0.53,3.93-1.1,5.82-1.73c41.44-13.43,60-46.44,56.96-80.1
				c-0.01-0.09-0.02-0.18-0.03-0.27c-0.27-2.98-0.72-5.98-1.35-8.96c-2.29-11.07-6.92-22.02-13.83-32.18"/>
			
				<path fill="none" stroke="#000000" stroke-width="2.0286" stroke-linecap="round" stroke-linejoin="round" stroke-miterlimit="10" d="
				M255.96,297.54c3.82,1.65,8.03,2.57,12.44,2.57c1.27,0,2.52-0.08,3.75-0.22c5.63-0.68,10.82-2.84,15.15-6.09
				c4.39-3.3,7.91-7.72,10.1-12.84c1.65-3.82,2.56-8.02,2.56-12.43c0-1.27-0.08-2.52-0.22-3.75c-0.67-5.64-2.84-10.83-6.09-15.17
				c-3.3-4.4-7.72-7.91-12.83-10.11c-3.82-1.65-8.02-2.56-12.42-2.56c-1.27,0-2.52,0.08-3.75,0.22c-5.64,0.68-10.83,2.85-15.16,6.11
				c-4.39,3.3-7.9,7.72-10.1,12.83c-1.65,3.82-2.56,8.02-2.56,12.43c0,1.27,0.08,2.52,0.22,3.75c0.68,5.64,2.85,10.83,6.1,15.16
				C246.45,291.84,250.86,295.35,255.96,297.54z"/>
			
				<path fill="none" stroke="#000000" stroke-width="2.0286" stroke-linecap="round" stroke-linejoin="round" stroke-miterlimit="10" d="
				M243.13,287.46c-76.42,33.17-95.37-43.79-164.42,20.07c-0.04,0.04-0.08,0.07-0.12,0.12h-0.01"/>
			
				<path fill="none" stroke="#000000" stroke-width="2.0286" stroke-linecap="round" stroke-linejoin="round" stroke-miterlimit="10" d="
				M255.96,297.55c-49.07,66.25-103.3,10.99-131.44,96.81c-0.32,0.98-0.64,1.97-0.95,2.99"/>
			
				<path fill="none" stroke="#000000" stroke-width="2.0286" stroke-linecap="round" stroke-linejoin="round" stroke-miterlimit="10" d="
				M272.15,299.88L272.15,299.88c-9.41,81.97-84.04,61.19-65.43,149.7c0.2,0.97,0.41,1.97,0.64,2.97"/>
			
				<path fill="none" stroke="#000000" stroke-width="2.0286" stroke-linecap="round" stroke-linejoin="round" stroke-miterlimit="10" d="
				M287.32,293.82c32.8,75.64-42.14,94.99,18.05,162.28c0.69,0.77,1.4,1.54,2.12,2.32l0.01,0.01"/>
			
				<path fill="none" stroke="#000000" stroke-width="2.0286" stroke-linecap="round" stroke-linejoin="round" stroke-miterlimit="10" d="
				M297.41,280.96c66.2,49.09,11.01,103.33,96.69,131.5c1,0.33,2.02,0.66,3.06,0.98"/>
			
				<path fill="none" stroke="#000000" stroke-width="2.0286" stroke-linecap="round" stroke-linejoin="round" stroke-miterlimit="10" d="
				M299.74,264.78c81.97,9.4,61.11,84.2,149.84,65.41c0.9-0.19,1.81-0.39,2.73-0.59c0.01-0.01,0.01-0.01,0.02-0.01"/>
			
				<path fill="none" stroke="#000000" stroke-width="2.0286" stroke-linecap="round" stroke-linejoin="round" stroke-miterlimit="10" d="
				M293.68,249.59c75.63-32.84,94.96,42.24,162.27-18.13c0.74-0.67,1.49-1.35,2.24-2.05l0.01-0.01"/>
			
				<path fill="none" stroke="#000000" stroke-width="2.0286" stroke-linecap="round" stroke-linejoin="round" stroke-miterlimit="10" d="
				M280.82,239.5c49.08-66.25,103.31-10.99,131.45-96.8c0.33-0.98,0.64-1.97,0.96-2.99v-0.01"/>
			
				<path fill="none" stroke="#000000" stroke-width="2.0286" stroke-linecap="round" stroke-linejoin="round" stroke-miterlimit="10" d="
				M264.65,237.16c9.4-82.02,84.17-61.13,65.37-149.93c-0.18-0.89-0.38-1.79-0.59-2.71c0-0.01,0-0.01,0-0.02"/>
			
				<path fill="none" stroke="#000000" stroke-width="2.0286" stroke-linecap="round" stroke-linejoin="round" stroke-miterlimit="10" d="
				M249.47,243.25c-32.8-75.62,42.12-94.98-18.01-162.25c-0.71-0.78-1.43-1.58-2.17-2.38"/>
			
				<path fill="none" stroke="#000000" stroke-width="2.0286" stroke-linecap="round" stroke-linejoin="round" stroke-miterlimit="10" d="
				M239.38,256.09c-66.24-49.11-10.95-103.38-96.81-131.52c-0.85-0.28-1.72-0.56-2.61-0.83c-0.11-0.04-0.22-0.08-0.33-0.11"/>
			
				<path fill="none" stroke="#000000" stroke-width="2.0286" stroke-linecap="round" stroke-linejoin="round" stroke-miterlimit="10" d="
				M237.05,272.28c-82.46-9.45-60.86-85.1-151.43-65.07c-0.38,0.07-0.77,0.16-1.16,0.25"/>
			
				<path fill="none" stroke="#000000" stroke-width="2.0286" stroke-linecap="round" stroke-linejoin="round" stroke-miterlimit="10" d="
				M179.4,318.02c1.12,6.55-10.58,14-26.1,16.63c-15.52,2.63-29-0.56-30.1-7.13c-1.12-6.55,10.57-13.99,26.09-16.63
				C164.81,308.26,178.3,311.45,179.4,318.02z"/>
			
				<path fill="none" stroke="#000000" stroke-width="2.0286" stroke-linecap="round" stroke-linejoin="round" stroke-miterlimit="10" d="
				M216.05,355.9c4.25,5.14-2.15,17.43-14.27,27.47c-12.14,10.04-25.4,14.02-29.64,8.89c-4.25-5.14,2.15-17.42,14.27-27.45
				C198.55,354.77,211.81,350.77,216.05,355.9z"/>
			
				<path fill="none" stroke="#000000" stroke-width="2.0286" stroke-linecap="round" stroke-linejoin="round" stroke-miterlimit="10" d="
				M266.74,370.39c6.23,2.31,6.83,16.15,1.35,30.92c-5.49,14.76-15,24.85-21.23,22.52c-6.23-2.31-6.83-16.16-1.34-30.92
				C251,378.15,260.49,368.07,266.74,370.39z"/>
			
				<path fill="none" stroke="#000000" stroke-width="2.0286" stroke-linecap="round" stroke-linejoin="round" stroke-miterlimit="10" d="
				M317.87,357.57c6.54-1.11,13.99,10.58,16.62,26.1c2.63,15.53-0.56,29.02-7.13,30.14c-6.55,1.1-13.99-10.58-16.62-26.13
				C308.11,372.16,311.3,358.68,317.87,357.57z"/>
			
				<path fill="none" stroke="#000000" stroke-width="2.0286" stroke-linecap="round" stroke-linejoin="round" stroke-miterlimit="10" d="
				M355.73,320.9c5.13-4.24,17.42,2.14,27.46,14.29c10.03,12.13,14,25.4,8.87,29.65c-5.12,4.24-17.4-2.16-27.43-14.29
				C354.59,338.42,350.6,325.13,355.73,320.9z"/>
			
				<path fill="none" stroke="#000000" stroke-width="2.0286" stroke-linecap="round" stroke-linejoin="round" stroke-miterlimit="10" d="
				M370.2,270.19c2.32-6.25,16.16-6.84,30.91-1.36c14.75,5.49,24.84,15.01,22.51,21.24c-2.31,6.23-16.15,6.85-30.9,1.36
				C377.96,285.93,367.89,276.43,370.2,270.19z"/>
			
				<path fill="none" stroke="#000000" stroke-width="2.0286" stroke-linecap="round" stroke-linejoin="round" stroke-miterlimit="10" d="
				M357.39,219.04c-1.1-6.56,10.58-14.01,26.09-16.64c15.52-2.63,29.01,0.56,30.13,7.13c1.1,6.57-10.58,14.01-26.12,16.62
				C371.98,228.79,358.51,225.6,357.39,219.04z"/>
			
				<path fill="none" stroke="#000000" stroke-width="2.0286" stroke-linecap="round" stroke-linejoin="round" stroke-miterlimit="10" d="
				M320.74,181.14c-4.23-5.13,2.14-17.41,14.29-27.45c12.12-10.04,25.38-14.03,29.63-8.9c4.24,5.13-2.16,17.43-14.28,27.47
				C338.25,182.3,324.97,186.28,320.74,181.14z"/>
			
				<path fill="none" stroke="#000000" stroke-width="2.0286" stroke-linecap="round" stroke-linejoin="round" stroke-miterlimit="10" d="
				M270.06,166.66c-6.25-2.31-6.84-16.16-1.36-30.92c5.49-14.76,15-24.84,21.23-22.52c6.23,2.31,6.84,16.16,1.34,30.92
				C285.79,158.9,276.29,169,270.06,166.66z"/>
			
				<path fill="none" stroke="#000000" stroke-width="2.0286" stroke-linecap="round" stroke-linejoin="round" stroke-miterlimit="10" d="
				M218.94,179.48c-6.57,1.12-14.01-10.58-16.64-26.1c-2.63-15.53,0.56-29.02,7.13-30.12c6.56-1.12,14,10.58,16.61,26.11
				C228.67,164.89,225.48,178.38,218.94,179.48z"/>
			
				<path fill="none" stroke="#000000" stroke-width="2.0286" stroke-linecap="round" stroke-linejoin="round" stroke-miterlimit="10" d="
				M181.06,216.17c-5.13,4.24-17.41-2.16-27.44-14.29c-10.04-12.15-14.03-25.42-8.9-29.66c5.13-4.25,17.42,2.15,27.46,14.3
				C182.21,198.65,186.19,211.92,181.06,216.17z"/>
			
				<path fill="none" stroke="#000000" stroke-width="2.0286" stroke-linecap="round" stroke-linejoin="round" stroke-miterlimit="10" d="
				M166.58,266.87c-2.31,6.24-16.15,6.83-30.9,1.35c-14.76-5.49-24.83-15.01-22.52-21.24c2.32-6.23,16.16-6.83,30.91-1.34
				C158.82,251.12,168.91,260.62,166.58,266.87z"/>
		</g>
	</g>
</g>
</svg>
