<?xml version="1.0" encoding="utf-8"?>

<svg version="1.2" baseProfile="tiny" id="Layer_1" xmlns="http://www.w3.org/2000/svg" xmlns:xlink="http://www.w3.org/1999/xlink"
	 x="0px" y="0px" width="867.71px" height="884.09px" viewBox="0 0 867.71 884.09" xml:space="preserve">
<g>
	<path fill-rule="evenodd" fill="#FFFFFE" stroke="#000000" stroke-width="3" stroke-miterlimit="10" d="M476.79,424.45
		c-5.31-17.26-21.05-24.91-30.96-29.66c24.96-63.94,59.14-82.71,113.46-120.34c10.97-7.8,14.79-14.91,20.42-23.83
		c-0.71-7.34-1.06-16.31-8.2-22.23c10.05-1.17,35.78,28.11,50.55,41.89c-11.79-3.2-19.82-4.74-30.24-4.4
		c-13.42,1.37-28.33,20.91-33.5,25.94c-2.51,8.57-8.6,18.09-10.08,29.43C542.21,367.2,527.96,423.94,476.79,424.45L476.79,424.45z"
		/>
	<path fill-rule="evenodd" fill="#FFFFFE" stroke="#000000" stroke-width="3" stroke-miterlimit="10" d="M443.55,394.03
		c-16.73-6.71-32.61,0.69-42.52,5.4c-33.93-59.63-27.02-98.03-22.05-163.94c0.83-13.46-2.28-20.89-5.68-30.86
		c-6.14-4.06-13.34-9.46-22.42-7.66c5.43-8.51,44.35-10.09,64.34-12.91c-9.91,7.14-16.16,12.43-22.42,20.74
		c-7.4,11.31-1.6,35.2-0.94,42.37c5.05,7.37,8.62,18.09,16.51,26.37C440.26,307.11,475.36,353.91,443.55,394.03L443.55,394.03z"/>
	<path fill-rule="evenodd" fill="#FFFFFE" stroke="#000000" stroke-width="3" stroke-miterlimit="10" d="M399.03,400.71
		c-15.79,8.8-20.02,25.8-22.59,36.46c-67.68-11.14-93.15-40.69-141.22-86c-9.94-9.11-17.68-11.37-27.56-15.03
		c-7.02,2.23-15.73,4.43-20.05,12.63c-3.2-9.6,20.08-40.83,30.47-58.17c-0.69,12.23-0.54,20.4,1.97,30.51
		c4.14,12.86,26.36,23.37,32.33,27.4c8.91,0.69,19.48,4.66,30.9,3.74C329.43,348.6,387.86,350.74,399.03,400.71L399.03,400.71z"/>
	<path fill-rule="evenodd" fill="#FFFFFE" stroke="#000000" stroke-width="3" stroke-miterlimit="10" d="M376.18,439.57
		c-3.11,17.77,7.43,31.77,14.11,40.49c-51.26,45.6-90.21,46.83-155.67,55.69c-13.34,1.97-19.99,6.57-29.04,11.94
		c-2.68,6.89-6.45,15.03-2.8,23.54c-9.45-3.54-19.08-41.31-25.99-60.29c9.05,8.23,15.48,13.26,24.93,17.66
		c12.59,4.89,34.73-5.77,41.61-7.89c6.14-6.49,15.88-12.23,22.36-21.66C291.88,460.85,330.35,416.77,376.18,439.57L376.18,439.57z"
		/>
	<path fill-rule="evenodd" fill="#FFFFFE" stroke="#000000" stroke-width="3" stroke-miterlimit="10" d="M391.97,481.77
		c11.88,13.6,29.36,14.2,40.35,14.51c3.17,68.54-20.42,99.6-54.74,156.09c-6.85,11.6-7.45,19.66-8.97,30.09
		c3.66,6.4,7.6,14.49,16.51,16.97c-8.68,5.14-44.09-11.14-63.17-17.71c12.08-1.86,20.02-3.71,29.39-8.29
		c11.71-6.71,17.39-30.63,20.08-37.31c-1.17-8.86,0.51-20.03-2.74-31C355.48,560.71,345.42,503.05,391.97,481.77L391.97,481.77z"/>
	<path fill-rule="evenodd" fill="#FFFFFE" stroke="#000000" stroke-width="3" stroke-miterlimit="10" d="M434.7,496.03
		c18.05-0.66,29.53-13.89,36.67-22.23c55.23,40.69,64.54,78.57,86.79,140.77c4.71,12.66,10.6,18.2,17.73,25.91
		c7.28,1.2,16.05,3.23,23.59-2.14c-1.49,10-36.41,27.29-53.52,38c6.14-10.57,9.71-17.94,12.05-28.08
		c2.17-13.34-12.85-32.8-16.36-39.09c-7.63-4.66-15.22-13-25.82-17.37C473.05,574.11,421.96,545.63,434.7,496.03L434.7,496.03z"/>
	<path fill-rule="evenodd" fill="#FFFFFE" stroke="#000000" stroke-width="3" stroke-miterlimit="10" d="M472.68,471.8
		c10.82-14.43,7.8-31.69,5.8-42.49c66.37-17.37,101.64-0.74,163.98,21.11c12.77,4.29,20.76,3.2,31.27,2.51
		c5.51-4.91,14.39-11.57,14.96-20.83c2.77,8.71-2.86,48.57-3.91,66.66c-4.34-11.43-9.85-18.83-16.25-27.06
		c-9.02-10.06-33.58-10.63-40.67-11.89c-8.42,3-19.71,3.69-29.76,9.14C557.43,491.11,503.18,512.94,472.68,471.8L472.68,471.8z"/>
	<path fill-rule="evenodd" fill="#FFFFFF" stroke="#000000" stroke-width="3" stroke-miterlimit="10" d="M363.42,366.68
		c-21.16-10.11,14.19-29.26-32.1-21.29c-5.57,0.97-12.65,11.8-1.94,22.34c-11.62-3.11-15.59-2.77-21.79-0.49
		c-13.05,8.03-17.76,35.57,10.4,27.43c-12.94,12.94-9.17,37.34,15.54,36.14c3.46-3.57,7.8-8.97,10.82-16.6
		c3.34,18.29,22.76,16.74,34.04,1.2c0.51-15.43-5.28-15.4-17.71-17.89c11.25,1.34,21.93-4.6,23.79-17.86
		C384.86,368.31,373.78,351.05,363.42,366.68L363.42,366.68z"/>
	<path fill-rule="evenodd" fill="#FFFFFF" stroke="#000000" stroke-width="3" stroke-miterlimit="10" d="M327.35,445.83
		c-21.19,10.09-13.82-29.43-36.72,11.54c-2.77,4.97,1.17,17.29,16.11,15.6c-9.74,7.06-11.97,10.37-14.11,16.63
		c-1.94,15.2,16.48,36.2,27.87,9.17c1.91,18.2,23.22,30.63,37.84,10.69c-0.6-4.94-2.06-11.71-6.08-18.86
		c16.31,8.89,27.33-7.2,22.36-25.74c-11.65-10.11-15.28-5.57-25.04,2.51c8.14-7.91,10.25-19.94,1.11-29.74
		C342.08,430.17,321.72,427.91,327.35,445.83L327.35,445.83z"/>
	<path fill-rule="evenodd" fill="#FFFFFF" stroke="#000000" stroke-width="3" stroke-miterlimit="10" d="M366.1,523.68
		c-5.48,22.8-31.56-7.8-14.14,35.83c2.11,5.26,14.16,9.94,22.25-2.74c-0.63,12.03,0.54,15.83,4.06,21.43
		c10.57,11.09,38.47,9.97,24.65-15.86c15.36,9.94,38.41,1.2,32.13-22.74c-4.23-2.63-10.4-5.74-18.48-7.14
		c17.16-7.06,11.62-25.74-5.91-33.57c-15.19,2.71-13.96,8.37-13.82,21.06c-1-11.29-9.02-20.49-22.39-19.57
		C363.22,502.34,348.65,516.8,366.1,523.68L366.1,523.68z"/>
	<path fill-rule="evenodd" fill="#FFFFFF" stroke="#000000" stroke-width="3" stroke-miterlimit="10" d="M450.97,542.51
		c14.28,18.63-25.9,19.66,18.93,33.54c5.43,1.69,16.65-4.74,11.88-19c8.94,8.06,12.65,9.54,19.19,10.34
		c15.28-1.26,31.96-23.66,3.2-29.17c17.39-5.66,25.1-29.11,2.57-39.26c-4.71,1.63-11.05,4.46-17.19,9.86
		c5.31-17.8-12.68-25.23-29.81-16.51c-7.45,13.51-2.26,16.11,7.68,23.97c-9.42-6.31-21.62-5.86-29.33,5.09
		C432.58,531.34,434.64,551.77,450.97,542.51L450.97,542.51z"/>
	<path fill-rule="evenodd" fill="#FFFFFF" stroke="#000000" stroke-width="3" stroke-miterlimit="10" d="M519.03,488.4
		c23.45,0.63-1.06,32.51,37.95,6.4c4.74-3.17,6.8-15.94-7.28-21.2c11.88-1.89,15.36-3.83,20.13-8.43
		c8.62-12.66,1.74-39.74-20.68-20.83c6.57-17.09-6.8-37.83-28.87-26.71c-1.71,4.69-3.48,11.4-3.14,19.57
		c-10.51-15.34-27.59-6-31.61,12.77c5.83,14.31,11.08,11.91,23.47,9.14c-10.85,3.34-18.16,13.11-14.51,26
		C498.78,495.65,515.91,506.91,519.03,488.4L519.03,488.4z"/>
	<path fill-rule="evenodd" fill="#FFFFFF" stroke="#000000" stroke-width="3" stroke-miterlimit="10" d="M519.8,401.43
		c15.25-17.83,24.59,21.29,28.87-25.49c0.51-5.66-8.11-15.31-21.05-7.69c6-10.4,6.68-14.34,6.11-20.94
		c-4.4-14.66-29.76-26.34-29.19,2.97c-9.14-15.86-33.67-18.51-38.92,5.63c2.57,4.29,6.65,9.89,13.22,14.77
		c-18.5-1.51-22.02,17.66-9.97,32.6c14.76,4.49,16.22-1.11,21.88-12.49c-4.23,10.54-1.26,22.37,11.05,27.63
		C512.71,421.74,532.22,415.48,519.8,401.43L519.8,401.43z"/>
	<path fill-rule="evenodd" fill="#FFFFFF" stroke="#000000" stroke-width="3" stroke-miterlimit="10" d="M452.74,346.08
		c-4.25-23.06,32.01-5.71-1.66-38.49c-4.05-3.94-16.96-3.31-19.19,11.54c-4.31-11.23-6.94-14.23-12.42-17.94
		c-14.16-5.8-39.21,6.57-16.08,24.57c-18.08-2.89-35.55,14.51-20.1,33.8c4.94,0.69,11.85,1.06,19.79-0.97
		c-12.82,13.43-0.14,28.23,19.05,28.26c12.79-8.66,9.34-13.31,4.06-24.86c5.54,9.91,16.59,15.06,28.44,8.77
		C464.05,364.4,471.48,345.28,452.74,346.08L452.74,346.08z"/>
	
		<path fill-rule="evenodd" fill="#8774B4" stroke="#000000" stroke-width="3" stroke-linecap="round" stroke-linejoin="round" stroke-miterlimit="10" d="
		M339.34,480.05c0-5.69-4.6-10.29-10.28-10.29c-5.68,0-10.31,4.6-10.31,10.29s4.63,10.31,10.31,10.31
		C334.74,490.37,339.34,485.74,339.34,480.05L339.34,480.05z"/>
	
		<path fill-rule="evenodd" fill="#8774B4" stroke="#000000" stroke-width="3" stroke-linecap="round" stroke-linejoin="round" stroke-miterlimit="10" d="
		M402.54,539.43c0-5.69-4.6-10.29-10.28-10.29c-5.68,0-10.31,4.6-10.31,10.29s4.63,10.29,10.31,10.29
		C397.94,549.71,402.54,545.11,402.54,539.43L402.54,539.43z"/>
	
		<path fill-rule="evenodd" fill="#8774B4" stroke="#000000" stroke-width="3" stroke-linecap="round" stroke-linejoin="round" stroke-miterlimit="10" d="
		M488.33,527c0-5.69-4.6-10.29-10.28-10.29c-5.68,0-10.31,4.6-10.31,10.29c0,5.69,4.63,10.29,10.31,10.29
		C483.73,537.28,488.33,532.68,488.33,527L488.33,527z"/>
	
		<path fill-rule="evenodd" fill="#8774B4" stroke="#000000" stroke-width="3" stroke-linecap="round" stroke-linejoin="round" stroke-miterlimit="10" d="
		M537.39,463.11c0-5.69-4.6-10.31-10.28-10.31c-5.68,0-10.28,4.63-10.28,10.31c0,5.69,4.6,10.29,10.28,10.29
		C532.79,473.4,537.39,468.8,537.39,463.11L537.39,463.11z"/>
	
		<path fill-rule="evenodd" fill="#8774B4" stroke="#000000" stroke-width="3" stroke-linecap="round" stroke-linejoin="round" stroke-miterlimit="10" d="
		M511.57,376.37c0-5.69-4.63-10.29-10.31-10.29s-10.28,4.6-10.28,10.29c0,5.69,4.6,10.29,10.28,10.29S511.57,382.05,511.57,376.37
		L511.57,376.37z"/>
	
		<path fill-rule="evenodd" fill="#8774B4" stroke="#000000" stroke-width="3" stroke-linecap="round" stroke-linejoin="round" stroke-miterlimit="10" d="
		M431.73,343.31c0-5.69-4.6-10.31-10.28-10.31c-5.68,0-10.28,4.63-10.28,10.31c0,5.69,4.6,10.29,10.28,10.29
		C427.13,353.6,431.73,349,431.73,343.31L431.73,343.31z"/>
	
		<path fill-rule="evenodd" fill="#403092" stroke="#000000" stroke-width="3" stroke-linecap="round" stroke-linejoin="round" stroke-miterlimit="10" d="
		M351.17,387.2c0-5.69-4.6-10.31-10.28-10.31c-5.68,0-10.31,4.63-10.31,10.31c0,5.69,4.63,10.29,10.31,10.29
		C346.57,397.48,351.17,392.88,351.17,387.2L351.17,387.2z"/>
	
		<path fill-rule="evenodd" fill="#FFFFFE" stroke="#000000" stroke-width="3" stroke-linecap="round" stroke-linejoin="round" stroke-miterlimit="10" d="
		M480.96,443.4c0-28.91-23.42-52.34-52.29-52.34c-28.9,0-52.32,23.43-52.32,52.34s23.42,52.34,52.32,52.34
		C457.54,495.74,480.96,472.31,480.96,443.4L480.96,443.4z"/>
	
		<path fill-rule="evenodd" fill="#FFFFFE" stroke="#000000" stroke-width="3" stroke-linecap="round" stroke-linejoin="round" stroke-miterlimit="10" d="
		M182.16,356.31l36.38-70.34c9.25-5.49,18.51-10.94,28.02-16.4c9.85-5.66,19.96-11.29,26.24-21c6.45-9.97,8.88-24.26,2.26-34.46
		c-4.4-6.77-12.79-11.74-14.25-18c-1.4-6,3.63-13.2,6.74-20.97c3.94-9.77,4.91-20.46,0.74-27.74c-4.28-7.51-14.05-11.43-23.99-15.71
		c-14.34-6.23-29.01-13.23-40.47-9c-13.79,5.09-22.93,26.4-36.72,33.71c-10.22,5.43-22.99,3.17-36.72,3.74
		c-29.44,1.23-63.28,15.43-67.48,41.23c-3.23,19.83,11.05,46.51,2.26,60.69c-5.43,8.77-19.62,12.77-31.5,20.26
		C16.1,293.37,3.65,312.03,5.94,330.25c2.48,19.66,22.13,38.83,20.25,56.2c-1.6,14.63-18.45,27.97-22.5,44.97
		c-3.2,13.54,1.71,29.4,11.99,38.23c12.91,11.06,34.21,11.03,50.23,0c14.48-9.97,24.65-28.94,35.98-27.74
		c8.28,0.91,17.22,12.57,29.24,15.74c16.68,4.4,39.32-7.57,39.72-23.23c0.4-15.23-20.25-33.94-13.51-42.71
		c4.43-5.71,20.48-7.2,25.5-14.23C186.47,372.37,184.33,364.34,182.16,356.31L182.16,356.31z"/>
	
		<path fill-rule="evenodd" fill="#FFFFFE" stroke="#000000" stroke-width="3" stroke-linecap="round" stroke-linejoin="round" stroke-miterlimit="10" d="
		M205.89,580.25l-31.76-72.57c1.57-10.63,3.14-21.29,4.88-32.11c1.83-11.2,3.8-22.6,0.23-33.6c-3.68-11.29-13.28-22.17-25.36-23.43
		c-8.02-0.86-17.16,2.57-22.93-0.26c-5.54-2.69-8-11.11-12.05-18.46c-5.11-9.2-12.79-16.66-21.08-18.03
		c-8.57-1.4-17.73,3.74-27.33,8.77c-13.85,7.23-28.53,14.23-32.44,25.8c-4.74,13.91,6.05,34.43,3.06,49.77
		c-2.2,11.37-11.99,19.89-20.19,30.91c-17.56,23.66-27.84,58.91-10.45,78.4c13.36,15,43.09,20.69,48.58,36.46
		c3.37,9.71-2.43,23.29-4.11,37.23c-2.46,20.6,4.2,42.06,19.82,51.74c16.82,10.43,44.09,7.23,56.4,19.63
		c10.34,10.43,10.11,31.94,20.76,45.77c8.51,11.03,23.93,17.17,37.24,14.74c16.71-3.09,30.1-19.66,31.61-39.06
		c1.37-17.54-7-37.37,1.09-45.43c5.91-5.89,20.62-5.46,30.64-12.83c13.91-10.2,18.85-35.34,6.94-45.51
		c-11.57-9.89-39.1-5.6-41.67-16.37c-1.66-7.03,7.28-20.46,5-28.8C221.09,587,213.49,583.63,205.89,580.25L205.89,580.25z"/>
	
		<path fill-rule="evenodd" fill="#FFFFFE" stroke="#000000" stroke-width="3" stroke-linecap="round" stroke-linejoin="round" stroke-miterlimit="10" d="
		M394.77,702.74l-76.36-21c-7.25-7.91-14.54-15.83-21.85-24c-7.57-8.46-15.16-17.17-25.96-21.31c-11.11-4.26-25.59-3.63-34.18,4.97
		c-5.71,5.71-8.8,14.94-14.62,17.69c-5.57,2.6-13.68-0.8-21.9-2.26c-10.39-1.83-21.02-0.54-27.27,5.03
		c-6.48,5.77-8.25,16.14-10.4,26.77c-3.08,15.31-6.88,31.11-0.37,41.46c7.82,12.46,30.56,16.97,40.61,28.94
		c7.42,8.89,7.88,21.86,11.28,35.17c7.31,28.54,28.21,58.71,54.32,57.46c20.08-0.97,43.18-20.49,58.89-14.83
		c9.68,3.49,16.56,16.54,26.33,26.6c14.48,14.89,35.3,23.23,52.66,17.17c18.71-6.51,33.35-29.74,50.75-31.49
		c14.62-1.49,31.18,12.26,48.63,12.66c13.91,0.34,28.39-7.8,34.87-19.69c8.14-14.91,3.68-35.77-10.45-49.14
		c-12.77-12.11-33.41-18.11-34.58-29.46c-0.86-8.29,8.71-19.46,9.31-31.89c0.83-17.23-15.59-36.89-30.98-34.03
		c-14.96,2.77-28.96,26.86-38.95,22.08c-6.48-3.14-11.28-18.54-19.22-22C409.56,695.17,402.17,698.94,394.77,702.74L394.77,702.74z"
		/>
	
		<path fill-rule="evenodd" fill="#FFFFFE" stroke="#000000" stroke-width="3" stroke-linecap="round" stroke-linejoin="round" stroke-miterlimit="10" d="
		M608.78,632.97l-64.37,46.14c-10.71,0.66-21.45,1.34-32.38,1.89c-11.34,0.57-22.9,0.97-32.9,6.77
		c-10.28,5.97-18.93,17.6-17.65,29.69c0.86,8.06,6.08,16.29,4.54,22.51c-1.48,5.97-9.22,10.11-15.54,15.63
		c-7.97,6.91-13.65,16-13.25,24.37c0.4,8.66,7.34,16.57,14.22,24.91c9.97,12.03,19.85,24.94,31.98,26.4
		c14.59,1.71,32.41-13.11,48.03-13.37c11.57-0.2,21.93,7.63,34.44,13.34c26.76,12.26,63.34,15,78.79-6.09
		c11.88-16.2,11.25-46.46,25.56-55.09c8.79-5.34,23.25-2.46,37.24-3.74c20.65-1.88,40.24-12.83,46.46-30.14
		c6.71-18.63-2.11-44.66,7.48-59.26c8.05-12.31,29.13-16.54,40.44-29.86c9-10.6,11.79-26.97,6.65-39.49
		c-6.48-15.71-25.47-25.37-44.75-22.83c-17.45,2.31-35.1,14.6-44.64,8.37c-7-4.57-9.65-19.03-18.93-27.31
		c-12.85-11.49-38.47-11.09-45.92,2.66c-7.28,13.4,2.63,39.46-7.37,44.2c-6.51,3.08-21.5-2.89-29.16,1.11
		C612.21,616.68,610.49,624.83,608.78,632.97L608.78,632.97z"/>
	
		<path fill-rule="evenodd" fill="#FFFFFE" stroke="#000000" stroke-width="3" stroke-linecap="round" stroke-linejoin="round" stroke-miterlimit="10" d="
		M689.26,422.65l-4.66,79.06c-6.23,8.77-12.45,17.54-18.93,26.4c-6.68,9.14-13.62,18.4-15.42,29.83
		c-1.86,11.74,1.77,25.8,11.97,32.43c6.77,4.37,16.45,5.49,20.3,10.63c3.71,4.92,2.08,13.54,2.37,21.92
		c0.37,10.51,3.83,20.66,10.59,25.63c7,5.14,17.51,4.74,28.3,4.63c15.65-0.17,31.9,0.26,40.64-8.26
		c10.54-10.26,10.22-33.46,19.85-45.77c7.14-9.11,19.73-12.26,32.04-18.37c26.36-13.08,51.55-39.83,44.86-65.11
		c-5.11-19.4-28.99-37.97-26.73-54.51c1.4-10.2,12.74-19.66,20.53-31.31c11.57-17.26,15.36-39.37,5.85-55.09
		c-10.25-16.97-36.01-26.49-41.35-43.11c-4.48-14,5.51-33.06,2.28-50.23c-2.57-13.69-13.54-26.17-26.5-30.03
		c-16.28-4.86-35.73,3.83-45.89,20.43c-9.17,15-10.74,36.49-21.59,39.97c-7.94,2.57-20.82-4.49-33.1-2.49
		c-17.02,2.77-32.84,22.94-26.87,37.4c5.83,14.09,32.33,22.77,29.7,33.54c-1.68,7-15.76,14.89-17.48,23.37
		C678.78,409.74,684,416.2,689.26,422.65L689.26,422.65z"/>
	
		<path fill-rule="evenodd" fill="#FFFFFE" stroke="#000000" stroke-width="3" stroke-linecap="round" stroke-linejoin="round" stroke-miterlimit="10" d="
		M576.54,227.71l58.49,53.4c2.88,10.34,5.8,20.71,8.6,31.31c2.91,10.94,5.71,22.2,13.45,30.77c7.97,8.83,21.16,14.86,32.73,11.09
		c7.65-2.49,14.62-9.31,21.05-9.09c6.14,0.2,11.82,6.91,18.51,11.94c8.42,6.34,18.48,10.03,26.56,7.89
		c8.4-2.2,14.71-10.63,21.42-19.09c9.71-12.26,20.28-24.63,19.16-36.8c-1.34-14.63-19.56-29-23.04-44.23
		c-2.6-11.29,2.88-23.03,5.88-36.46c6.42-28.74,1.48-65.14-22.33-75.89c-18.31-8.23-47.75-1.34-59.2-13.51
		c-7.03-7.51-7.23-22.29-11.37-35.69c-6.14-19.83-20.93-36.71-39.12-39.2c-19.65-2.69-43.24,11.34-59.51,5
		c-13.71-5.31-22.22-25.06-37.58-33.37c-12.25-6.6-28.84-5.94-40.01,1.71c-14.02,9.6-19.5,30.2-12.99,48.54
		c5.88,16.57,21.56,31.29,17.45,41.94c-3,7.77-16.59,13.37-22.76,24.17c-8.54,14.97-2.86,39.97,12.14,44.4
		c14.62,4.34,38.04-10.77,44.75-1.97c4.37,5.74,1.66,21.63,7.14,28.31C559.92,227.74,568.23,227.74,576.54,227.71L576.54,227.71z"/>
	
		<path fill-rule="evenodd" fill="#FFFFFE" stroke="#000000" stroke-width="3" stroke-linecap="round" stroke-linejoin="round" stroke-miterlimit="10" d="
		M354.19,192.68l78.28-11.89c9.85,4.29,19.73,8.54,29.73,13.03c10.34,4.66,20.85,9.51,32.38,8.91c11.88-0.66,24.84-7.09,29.19-18.46
		c2.91-7.54,1.97-17.23,6.2-22.09c4.03-4.66,12.79-4.86,20.93-6.89c10.19-2.54,19.39-8.06,22.85-15.69c3.57-7.91,1-18.11-1.37-28.66
		c-3.43-15.26-6.37-31.26-16.53-38.06C543.64,64.74,521.02,69.85,507,63c-10.4-5.09-16.11-16.74-24.65-27.51
		c-18.28-23.09-49.63-42.17-72.96-30.4c-17.93,9.06-31.13,36.29-47.78,37.51c-10.25,0.74-21.85-8.37-34.87-13.6
		c-19.25-7.71-41.69-6.83-55.09,5.74c-14.42,13.57-18.39,40.74-33.53,49.43c-12.77,7.29-33.47,1.49-49.58,8.23
		c-12.85,5.34-22.79,18.66-23.87,32.17c-1.37,16.91,11.19,34.17,29.53,40.63c16.59,5.89,37.9,2.94,43.58,12.83
		c4.14,7.26-0.06,21.31,4.45,32.91c6.25,16.09,29.24,27.37,42.12,18.51c12.57-8.63,15.56-36.34,26.62-36.03
		c7.23,0.2,17.85,12.34,26.5,12.26C343.74,205.63,348.97,199.17,354.19,192.68L354.19,192.68z"/>
</g>
</svg>
