<?xml version="1.0" encoding="utf-8"?>
<!-- Generator: Adobe Illustrator 13.0.0, SVG Export Plug-In . SVG Version: 6.00 Build 14948)  -->
<svg version="1.2" baseProfile="tiny" id="Layer_1" xmlns="http://www.w3.org/2000/svg" xmlns:xlink="http://www.w3.org/1999/xlink"
	 x="0px" y="0px" width="574.24px" height="543.64px" viewBox="0 0 574.24 543.64" xml:space="preserve">
<g>
	<g id="XMLID_1_">
		<g>
			<path fill="#FFFFFF" stroke="#000000" stroke-width="4" stroke-linecap="round" stroke-linejoin="round" stroke-miterlimit="10"  d="M324.88,399.42c9.59,0,17.43,7.85,17.43,17.45c0,9.62-7.84,17.46-17.43,17.46
				c-9.62,0-17.46-7.84-17.46-17.46C307.42,407.27,315.26,399.42,324.88,399.42z"/>
			<path fill="#FFFFFF" stroke="#000000" stroke-width="4" stroke-linecap="round" stroke-linejoin="round" stroke-miterlimit="10"  d="M111.06,251.76c9.62,0,17.46,7.85,17.46,17.45c0,9.62-7.84,17.46-17.46,17.46
				c-9.6,0-17.43-7.84-17.43-17.46C93.63,259.61,101.46,251.76,111.06,251.76z"/>
			<path fill="#FFFFFF" stroke="#000000" stroke-width="4" stroke-linecap="round" stroke-linejoin="round" stroke-miterlimit="10"  d="M113.92,160.91c21.04-8.1,60.93,24.54,5.37,37.95c-14.38,3.46-51.84,11.34-51.56,40.08
				c-4.6-6.54-4.33-21.19,0.6-33.23C73.79,192.3,91.61,169.49,113.92,160.91z M133.08,179.88c0-3.74-3.04-6.78-6.78-6.78
				c-3.75,0-6.8,3.04-6.8,6.78c0,3.74,3.05,6.8,6.8,6.8C130.04,186.68,133.08,183.62,133.08,179.88z"/>
			<path fill="#FFFFFF" stroke="#000000" stroke-width="4" stroke-linecap="round" stroke-linejoin="round" stroke-miterlimit="10"  d="M118.28,337.01c55.55,13.39,15.66,46.05-5.39,37.93c-22.29-8.57-40.11-31.39-45.58-44.78
				c-4.91-12.06-5.19-26.7-0.61-33.23C66.43,325.67,103.88,333.53,118.28,337.01z M132.07,355.98c0-3.74-3.06-6.8-6.8-6.8
				c-3.73,0-6.79,3.06-6.79,6.8c0,3.73,3.06,6.79,6.79,6.79C129.01,362.77,132.07,359.71,132.07,355.98z"/>
			<path fill="#FFFFFF" stroke="#000000" stroke-width="4" stroke-linecap="round" stroke-linejoin="round" stroke-miterlimit="10"  d="M461.53,251.76c9.61,0,17.45,7.85,17.45,17.45c0,9.62-7.84,17.46-17.45,17.46
				c-9.62,0-17.44-7.84-17.44-17.46C444.09,259.61,451.91,251.76,461.53,251.76z"/>
			<path fill="#FFFFFF" stroke="#000000" stroke-width="4" stroke-linecap="round" stroke-linejoin="round" stroke-miterlimit="10"  d="M496.97,275.84c11.65,10.58,17.47,35.72,7.93,56.64c-9.76,21.35-18.59,35.97-51.58,54.85
				c-34.39,19.68-98.68-36.94-6.48-59.17C470.7,322.4,497.43,323.5,496.97,275.84z M498.14,332.04c4.93-12.05,5.18-26.69,0.6-33.22
				c0.28,28.73-37.18,36.61-51.55,40.08c-55.57,13.39-15.68,46.05,5.36,37.95C474.84,368.25,492.66,345.44,498.14,332.04z"/>
			<path fill="#FFFFFF" stroke="#000000" stroke-width="4" stroke-linecap="round" stroke-linejoin="round" stroke-miterlimit="10"  d="M499.16,203.83c4.92,12.04,5.19,26.68,0.61,33.2c0.28-28.71-37.2-36.59-51.58-40.06
				c-55.55-13.41-15.67-46.06,5.39-37.95C475.87,167.6,493.69,190.41,499.16,203.83z M447.97,177.99c0-3.74-3.04-6.8-6.77-6.8
				c-3.74,0-6.8,3.06-6.8,6.8c0,3.74,3.06,6.8,6.8,6.8C444.93,184.79,447.97,181.73,447.97,177.99z"/>
			<path fill="#FFFFFF" stroke="#000000" stroke-width="4" stroke-linecap="round" stroke-linejoin="round" stroke-miterlimit="10"  d="M441.2,171.19c3.73,0,6.77,3.06,6.77,6.8c0,3.74-3.04,6.8-6.77,6.8c-3.74,0-6.8-3.06-6.8-6.8
				C434.4,174.25,437.46,171.19,441.2,171.19z"/>
			<path fill="#FFFFFF" stroke="#000000" stroke-width="4" stroke-linecap="round" stroke-linejoin="round" stroke-miterlimit="10"  d="M498.74,298.82c4.58,6.53,4.33,21.17-0.6,33.22c-5.48,13.4-23.3,36.21-45.59,44.81
				c-21.04,8.1-60.93-24.56-5.36-37.95C461.56,335.43,499.02,327.55,498.74,298.82z M446.97,357.86c0-3.74-3.06-6.78-6.8-6.78
				c-3.73,0-6.77,3.04-6.77,6.78s3.04,6.8,6.77,6.8C443.91,364.66,446.97,361.6,446.97,357.86z"/>
			<path fill="#FFFFFF" stroke="#000000" stroke-width="4" stroke-linecap="round" stroke-linejoin="round" stroke-miterlimit="10"  d="M505.91,203.37c9.56,20.93,3.73,46.07-7.93,56.64c0.45-47.66-26.25-46.54-50.12-52.3
				c-92.2-22.24-27.93-78.85,6.49-59.17C487.33,167.42,496.16,182.02,505.91,203.37z M499.77,237.03c4.58-6.52,4.31-21.16-0.61-33.2
				c-5.47-13.42-23.29-36.23-45.58-44.81c-21.06-8.11-60.94,24.54-5.39,37.95C462.57,200.44,500.05,208.32,499.77,237.03z"/>
			<path fill="#FFFFFF" stroke="#000000" stroke-width="4" stroke-linecap="round" stroke-linejoin="round" stroke-miterlimit="10"  d="M440.17,351.08c3.74,0,6.8,3.04,6.8,6.78s-3.06,6.8-6.8,6.8c-3.73,0-6.77-3.06-6.77-6.8
				S436.44,351.08,440.17,351.08z"/>
			<path fill="#FFFFFF" stroke="#000000" stroke-width="4" stroke-linecap="round" stroke-linejoin="round" stroke-miterlimit="10"  d="M376.42,138.13c4.99,29.57-2.36,56.35-18.22,76.43c-15.3,5.68-29.19,15.57-40.27,29.42
				c-6.54,2.55-13.49,4.47-20.77,5.7c-1.33-7.87-1.78-15.54-1.43-22.94c9.46-14.68,14.64-30.99,15.3-47.48
				C325.21,157.91,348.29,142.89,376.42,138.13z"/>
			<path fill="#FFFFFF" stroke="#000000" stroke-width="4" stroke-linecap="round" stroke-linejoin="round" stroke-miterlimit="10"  d="M325.76,270.99c17.09-4.68,34.12-4.52,49.83-0.13C359.72,275.32,342.63,275.44,325.76,270.99z"/>
			<path fill="#FFFFFF" stroke="#000000" stroke-width="4" stroke-linecap="round" stroke-linejoin="round" stroke-miterlimit="10"  d="M356.59,326.64c15.93,20.09,23.08,46.69,18.91,74.93c-29.65-4.38-52.85-19.66-67.03-40.97
				c-0.67-16.31-5.78-32.58-15.51-47.4c-0.4-7-0.08-14.19,1-21.49c7.89,1.17,15.32,3.1,22.25,5.72
				C327.23,310.96,341.13,320.91,356.59,326.64z"/>
			<path fill="#FFFFFF" stroke="#000000" stroke-width="4" stroke-linecap="round" stroke-linejoin="round" stroke-miterlimit="10"  d="M358.2,214.56c24.01-8.93,51.49-7.51,77.04,5.19c-13.33,26.85-35.01,44.2-59.65,51.11
				c-15.71-4.39-32.74-4.55-49.83,0.13c-6.79-1.79-13.53-4.32-20.15-7.61c3.55-7.15,7.69-13.62,12.32-19.4
				C334.21,237.66,347.97,227.51,358.2,214.56z"/>
			<path fill="#FFFFFF" stroke="#000000" stroke-width="4" stroke-linecap="round" stroke-linejoin="round" stroke-miterlimit="10"  d="M324.88,101.54c9.59,0,17.43,7.84,17.43,17.45c0,9.62-7.84,17.46-17.43,17.46
				c-9.62,0-17.46-7.84-17.46-17.46C307.42,109.38,315.26,101.54,324.88,101.54z"/>
			<path fill="#FFFFFF" stroke="#000000" stroke-width="4" stroke-linecap="round" stroke-linejoin="round" stroke-miterlimit="10"  d="M434.9,320.37c-26.57,13.9-54.31,15.17-78.31,6.27c-10.12-12.79-23.8-22.95-40.38-29.21
				c-4.44-5.43-8.41-11.44-11.83-17.98c7.07-3.7,14.23-6.5,21.38-8.46c16.87,4.45,33.96,4.33,49.83-0.13
				C400.27,277.75,421.69,295.07,434.9,320.37z"/>
			<path fill="#FFFFFF" stroke="#000000" stroke-width="4" stroke-linecap="round" stroke-linejoin="round" stroke-miterlimit="10"  d="M311.03,179.26c-0.66,16.49-5.84,32.8-15.3,47.48C296.56,209.02,301.99,192.86,311.03,179.26z"/>
			<path fill="#FFFFFF" stroke="#000000" stroke-width="4" stroke-linecap="round" stroke-linejoin="round" stroke-miterlimit="10"  d="M308.47,360.6c14.18,21.31,37.38,36.59,67.03,40.97c4.17-28.24-2.98-54.84-18.91-74.93
				c24,8.9,51.74,7.63,78.31-6.27c-13.21-25.3-34.63-42.62-59.31-49.51c24.64-6.91,46.32-24.26,59.65-51.11
				c-25.55-12.7-53.03-14.12-77.04-5.19c15.86-20.08,23.21-46.86,18.22-76.43c-28.13,4.76-51.21,19.78-65.39,41.13
				c1.04-25.57-8.75-51.57-30.17-72.55c-19.96,20.39-29.8,46.11-28.73,71.72c-14.18-21.3-37.38-36.58-67.04-40.96
				c-4.17,28.24,2.98,54.84,18.91,74.93c-23.99-8.89-51.73-7.6-78.3,6.29c13.22,25.29,34.62,42.6,59.28,49.5
				c-24.62,6.92-46.29,24.27-59.61,51.12c25.55,12.69,53.04,14.11,77.05,5.17c-15.87,20.08-23.22,46.87-18.22,76.45
				c28.14-4.77,51.21-19.79,65.39-41.15c-1.06,25.58,8.74,51.57,30.16,72.55C299.71,411.94,309.55,386.22,308.47,360.6z
				 M280.09,33.12c137.39,0,249.46,106.06,249.46,236.09c0,130.05-112.07,236.11-249.46,236.11
				c-137.4,0-249.47-106.06-249.47-236.11C30.62,139.18,142.69,33.12,280.09,33.12z M497.98,260.01
				c11.66-10.57,17.49-35.71,7.93-56.64c-9.75-21.35-18.58-35.95-51.56-54.83c-34.42-19.68-98.69,36.93-6.49,59.17
				C471.73,213.47,498.43,212.35,497.98,260.01z M504.9,332.48c9.54-20.92,3.72-46.06-7.93-56.64
				c0.46,47.66-26.27,46.56-50.13,52.32c-92.2,22.23-27.91,78.85,6.48,59.17C486.31,368.45,495.14,353.83,504.9,332.48z
				 M478.98,269.21c0-9.6-7.84-17.45-17.45-17.45c-9.62,0-17.44,7.85-17.44,17.45c0,9.62,7.82,17.46,17.44,17.46
				C471.14,286.67,478.98,278.83,478.98,269.21z M392.88,154.86c32.53-45.59-17.58-116.25-109.62-116.04
				c-97.01,0.22-147.42,65.91-117.14,116.91c-12.33-58.2,83.52-75.41,121.26-74.86C325.11,81.44,409.6,95.71,392.88,154.86z
				 M283.26,497.06c92.04,0.2,142.15-70.48,109.62-116.05c16.72,59.15-67.77,73.42-105.5,73.97
				c-37.74,0.57-133.59-16.64-121.26-74.83C135.84,431.14,186.25,496.84,283.26,497.06z M342.31,118.99
				c0-9.61-7.84-17.45-17.43-17.45c-9.62,0-17.46,7.84-17.46,17.45c0,9.62,7.84,17.46,17.46,17.46
				C334.47,136.45,342.31,128.61,342.31,118.99z M342.31,416.87c0-9.6-7.84-17.45-17.43-17.45c-9.62,0-17.46,7.85-17.46,17.45
				c0,9.62,7.84,17.46,17.46,17.46C334.47,434.33,342.31,426.49,342.31,416.87z M252.81,118.99c0-9.61-7.84-17.45-17.46-17.45
				s-17.44,7.84-17.44,17.45c0,9.62,7.82,17.46,17.44,17.46S252.81,128.61,252.81,118.99z M252.81,416.87
				c0-9.6-7.84-17.45-17.46-17.45s-17.44,7.85-17.44,17.45c0,9.62,7.82,17.46,17.44,17.46S252.81,426.49,252.81,416.87z
				 M119.63,209.6c92.18-22.25,27.92-78.85-6.5-59.17c-32.99,18.87-41.81,33.48-51.56,54.85c-9.56,20.9-3.71,46.04,7.93,56.64
				C69.05,214.24,95.77,215.35,119.63,209.6z M112.12,385.42c34.42,19.7,98.69-36.92,6.49-59.15c-23.87-5.77-50.59-4.65-50.11-52.32
				c-11.67,10.58-17.5,35.72-7.95,56.65C70.31,351.94,79.14,366.55,112.12,385.42z M128.52,269.21c0-9.6-7.84-17.45-17.46-17.45
				c-9.6,0-17.43,7.85-17.43,17.45c0,9.62,7.83,17.46,17.43,17.46C120.68,286.67,128.52,278.83,128.52,269.21z"/>
			<path fill="#FFFFFF" stroke="#000000" stroke-width="4" stroke-linecap="round" stroke-linejoin="round" stroke-miterlimit="10"  d="M358.2,214.56c-10.23,12.95-23.99,23.1-40.27,29.42C329.01,230.13,342.9,220.24,358.2,214.56z"/>
			<path fill="#FFFFFF" stroke="#000000" stroke-width="4" stroke-linecap="round" stroke-linejoin="round" stroke-miterlimit="10"  d="M308.47,360.6c1.08,25.62-8.76,51.34-28.72,71.73c-21.42-20.98-31.22-46.97-30.16-72.55
				c9.02-13.59,14.44-29.74,15.27-47.44c3.79-5.91,8.28-11.55,13.46-16.84c5.69,5.58,10.57,11.51,14.64,17.7
				C293.93,330.64,299.33,346.87,308.47,360.6z"/>
			<path fill="#FFFFFF" stroke="#000000" stroke-width="4" stroke-linecap="round" stroke-linejoin="round" stroke-miterlimit="10"  d="M356.59,326.64c-15.46-5.73-29.36-15.68-40.38-29.21C332.79,303.69,346.47,313.85,356.59,326.64z"/>
			<path fill="#FFFFFF" stroke="#000000" stroke-width="4" stroke-linecap="round" stroke-linejoin="round" stroke-miterlimit="10"  d="M292.96,313.2c9.73,14.82,14.84,31.09,15.51,47.4C299.33,346.87,293.93,330.64,292.96,313.2z"/>
			<path fill="#FFFFFF" stroke="#000000" stroke-width="4" stroke-linecap="round" stroke-linejoin="round" stroke-miterlimit="10"  d="M305.61,263.38c6.62,3.29,13.36,5.82,20.15,7.61c-7.15,1.96-14.31,4.76-21.38,8.46
				c3.42,6.54,7.39,12.55,11.83,17.98c-6.93-2.62-14.36-4.55-22.25-5.72c-1.08,7.3-1.4,14.49-1,21.49
				c-4.07-6.19-8.95-12.12-14.64-17.7c-5.18,5.29-9.67,10.93-13.46,16.84c0.35-7.4-0.1-15.08-1.43-22.96
				c-7.29,1.23-14.24,3.15-20.78,5.7c4.64-5.78,8.78-12.26,12.33-19.42c-6.6-3.28-13.34-5.81-20.1-7.6
				c7.13-1.96,14.27-4.76,21.33-8.45c-3.42-6.55-7.4-12.57-11.84-18.01c6.93,2.62,14.38,4.56,22.28,5.73c1.08-7.3,1.4-14.49,1-21.49
				c4.07,6.19,8.94,12.12,14.64,17.7c5.16-5.27,9.65-10.91,13.44-16.8c-0.35,7.4,0.1,15.07,1.43,22.94
				c7.28-1.23,14.23-3.15,20.77-5.7C313.3,249.76,309.16,256.23,305.61,263.38z"/>
			<path fill="#FFFFFF" stroke="#000000" stroke-width="4" stroke-linecap="round" stroke-linejoin="round" stroke-miterlimit="10"  d="M280.86,106.71c21.42,20.98,31.21,46.98,30.17,72.55c-9.04,13.6-14.47,29.76-15.3,47.48
				c-3.79,5.89-8.28,11.53-13.44,16.8c-5.7-5.58-10.57-11.51-14.64-17.7c-0.97-17.44-6.37-33.68-15.52-47.41
				C251.06,152.82,260.9,127.1,280.86,106.71z"/>
			<path fill="#FFFFFF" stroke="#000000" stroke-width="4" stroke-linecap="round" stroke-linejoin="round" stroke-miterlimit="10"  d="M267.65,225.84c0.4,7,0.08,14.19-1,21.49c-7.9-1.17-15.35-3.11-22.28-5.73
				c-11.02-13.52-24.92-23.47-40.37-29.2c-15.93-20.09-23.08-46.69-18.91-74.93c29.66,4.38,52.86,19.66,67.04,40.96
				C252.8,194.75,257.91,211.02,267.65,225.84z"/>
			<path fill="#FFFFFF" stroke="#000000" stroke-width="4" stroke-linecap="round" stroke-linejoin="round" stroke-miterlimit="10"  d="M242.65,295.08c-11.07,13.84-24.95,23.71-40.23,29.4C212.63,311.54,226.38,301.39,242.65,295.08z"/>
			<path fill="#FFFFFF" stroke="#000000" stroke-width="4" stroke-linecap="round" stroke-linejoin="round" stroke-miterlimit="10"  d="M235.35,399.42c9.62,0,17.46,7.85,17.46,17.45c0,9.62-7.84,17.46-17.46,17.46s-17.44-7.84-17.44-17.46
				C217.91,407.27,225.73,399.42,235.35,399.42z"/>
			<path fill="#FFFFFF" stroke="#000000" stroke-width="4" stroke-linecap="round" stroke-linejoin="round" stroke-miterlimit="10"  d="M263.43,289.38c1.33,7.88,1.78,15.56,1.43,22.96c-9.45,14.67-14.61,30.97-15.27,47.44
				c-14.18,21.36-37.25,36.38-65.39,41.15c-5-29.58,2.35-56.37,18.22-76.45c15.28-5.69,29.16-15.56,40.23-29.4
				C249.19,292.53,256.14,290.61,263.43,289.38z"/>
			<path fill="#FFFFFF" stroke="#000000" stroke-width="4" stroke-linecap="round" stroke-linejoin="round" stroke-miterlimit="10"  d="M184.98,268.19c15.88-4.47,33-4.59,49.9-0.13C217.77,272.76,200.71,272.59,184.98,268.19z"/>
			<path fill="#FFFFFF" stroke="#000000" stroke-width="4" stroke-linecap="round" stroke-linejoin="round" stroke-miterlimit="10"  d="M252.13,178.43c9.15,13.73,14.55,29.97,15.52,47.41C257.91,211.02,252.8,194.75,252.13,178.43z"/>
			<path fill="#FFFFFF" stroke="#000000" stroke-width="4" stroke-linecap="round" stroke-linejoin="round" stroke-miterlimit="10"  d="M254.98,275.66c-3.55,7.16-7.69,13.64-12.33,19.42c-16.27,6.31-30.02,16.46-40.23,29.4
				c-24.01,8.94-51.5,7.52-77.05-5.17c13.32-26.85,34.99-44.2,59.61-51.12c15.73,4.4,32.79,4.57,49.9-0.13
				C241.64,269.85,248.38,272.38,254.98,275.66z"/>
			<path fill="#FFFFFF" stroke="#000000" stroke-width="4" stroke-linecap="round" stroke-linejoin="round" stroke-miterlimit="10"  d="M204,212.4c15.45,5.73,29.35,15.68,40.37,29.2C227.8,235.33,214.12,225.18,204,212.4z"/>
			<path fill="#FFFFFF" stroke="#000000" stroke-width="4" stroke-linecap="round" stroke-linejoin="round" stroke-miterlimit="10"  d="M264.86,312.34c-0.83,17.7-6.25,33.85-15.27,47.44C250.25,343.31,255.41,327.01,264.86,312.34z"/>
			<path fill="#FFFFFF" stroke="#000000" stroke-width="4" stroke-linecap="round" stroke-linejoin="round" stroke-miterlimit="10"  d="M244.37,241.6c4.44,5.44,8.42,11.46,11.84,18.01c-7.06,3.69-14.2,6.49-21.33,8.45
				c-16.9-4.46-34.02-4.34-49.9,0.13c-24.66-6.9-46.06-24.21-59.28-49.5c26.57-13.89,54.31-15.18,78.3-6.29
				C214.12,225.18,227.8,235.33,244.37,241.6z"/>
			<path fill="#FFFFFF" stroke="#000000" stroke-width="4" stroke-linecap="round" stroke-linejoin="round" stroke-miterlimit="10"  d="M235.35,101.54c9.62,0,17.46,7.84,17.46,17.45c0,9.62-7.84,17.46-17.46,17.46s-17.44-7.84-17.44-17.46
				C217.91,109.38,225.73,101.54,235.35,101.54z"/>
			<path fill="#FFFFFF" stroke="#000000" stroke-width="4" stroke-linecap="round" stroke-linejoin="round" stroke-miterlimit="10"  d="M126.3,173.1c3.74,0,6.78,3.04,6.78,6.78c0,3.74-3.04,6.8-6.78,6.8c-3.75,0-6.8-3.06-6.8-6.8
				C119.5,176.14,122.55,173.1,126.3,173.1z"/>
			<path fill="#FFFFFF" stroke="#000000" stroke-width="4" stroke-linecap="round" stroke-linejoin="round" stroke-miterlimit="10"  d="M113.13,150.43c34.42-19.68,98.68,36.92,6.5,59.17c-23.86,5.75-50.58,4.64-50.13,52.32
				c-11.64-10.6-17.49-35.74-7.93-56.64C71.32,183.91,80.14,169.3,113.13,150.43z M119.29,198.86
				c55.56-13.41,15.67-46.05-5.37-37.95c-22.31,8.58-40.13,31.39-45.59,44.8c-4.93,12.04-5.2,26.69-0.6,33.23
				C67.45,210.2,104.91,202.32,119.29,198.86z"/>
			<path fill="#FFFFFF" stroke="#000000" stroke-width="4" stroke-linecap="round" stroke-linejoin="round" stroke-miterlimit="10"  d="M125.27,349.18c3.74,0,6.8,3.06,6.8,6.8c0,3.73-3.06,6.79-6.8,6.79c-3.73,0-6.79-3.06-6.79-6.79
				C118.48,352.24,121.54,349.18,125.27,349.18z"/>
			<path fill="#FFFFFF" stroke="#000000" stroke-width="4" stroke-linecap="round" stroke-linejoin="round" stroke-miterlimit="10"  d="M118.61,326.27c92.2,22.23,27.93,78.85-6.49,59.15c-32.98-18.87-41.81-33.48-51.57-54.82
				c-9.55-20.93-3.72-46.07,7.95-56.65C68.02,321.62,94.74,320.5,118.61,326.27z M112.89,374.94c21.05,8.12,60.94-24.54,5.39-37.93
				c-14.4-3.48-51.85-11.34-51.58-40.08c-4.58,6.53-4.3,21.17,0.61,33.23C72.78,343.55,90.6,366.37,112.89,374.94z"/>
			<path fill="#FFFFFF" stroke="#000000" stroke-width="4" stroke-linecap="round" stroke-linejoin="round" stroke-miterlimit="10"  d="M283.26,38.82c92.04-0.21,142.15,70.45,109.62,116.04c16.72-59.15-67.77-73.42-105.5-73.99
				c-37.74-0.55-133.59,16.66-121.26,74.86C135.84,104.73,186.25,39.04,283.26,38.82z"/>
			<path fill="#FFFFFF" stroke="#000000" stroke-width="4" stroke-linecap="round" stroke-linejoin="round" stroke-miterlimit="10"  d="M392.88,381.01c32.53,45.57-17.58,116.25-109.62,116.05c-97.01-0.22-147.42-65.92-117.14-116.91
				c-12.33,58.19,83.52,75.4,121.26,74.83C325.11,454.43,409.6,440.16,392.88,381.01z"/>
		</g>
	</g>
</g>
</svg>
