<?xml version="1.0" encoding="utf-8"?>
<!-- Generator: Adobe Illustrator 13.0.0, SVG Export Plug-In . SVG Version: 6.00 Build 14948)  -->
<svg version="1.2" baseProfile="tiny" id="Layer_1" xmlns="http://www.w3.org/2000/svg" xmlns:xlink="http://www.w3.org/1999/xlink"
	 x="0px" y="0px" width="527.95px" height="525.26px" viewBox="0 0 527.95 525.26" xml:space="preserve">
<g>
	<path fill-rule="evenodd" fill="#FFFFFF" stroke="#161717" stroke-width="4.0286" stroke-miterlimit="10" d="M263.97,523.25
		c144.29,0,261.97-117.07,261.97-260.63c0-143.54-117.69-260.61-261.97-260.61C119.68,2.01,2.01,119.09,2.01,262.62
		C2.01,406.18,119.68,523.25,263.97,523.25L263.97,523.25z"/>
	<path fill-rule="evenodd" fill="#FFFFFF" stroke="#161717" stroke-width="0.5143" stroke-miterlimit="10" d="M263.97,455.01
		c106.5,0,193.36-86.42,193.36-192.39c0-105.95-86.86-192.37-193.36-192.37S70.6,156.68,70.6,262.62
		C70.6,368.59,157.46,455.01,263.97,455.01L263.97,455.01z"/>
	<path fill-rule="evenodd" fill="#FFFFFF" stroke="#161717" stroke-width="3.0286" stroke-miterlimit="10" d="M263.97,440.86
		c98.69,0,179.16-80.06,179.16-178.24c0-98.16-80.48-178.24-179.16-178.24c-98.67,0-179.14,80.08-179.14,178.24
		C84.82,360.8,165.3,440.86,263.97,440.86L263.97,440.86z"/>
	<path fill-rule="evenodd" fill="#FFFFFF" stroke="#161717" stroke-width="3.0286" stroke-miterlimit="10" d="M263.97,368.62
		c57.6,0,104.56-47.61,104.56-106c0-58.37-46.96-106-104.56-106c-57.58,0-104.56,47.63-104.56,106
		C159.41,321.02,206.38,368.62,263.97,368.62L263.97,368.62z"/>
	<path fill-rule="evenodd" fill="#FFFFFF" stroke="#161717" stroke-width="4.0286" stroke-miterlimit="10" d="M197.88,236.56
		c-7.84,5.51-26.7,7.65-26.74,13.52c-0.04,5.89,18.75,15.49,22.17,28.16c3.42,12.66-8.54,28.39-8.37,34.09
		c0.15,5.68,12.4,1.32,21.02-1.17c8.6-2.47,13.55-3.06,14.96,3.19c1.42,6.25-0.71,19.35-0.46,26.37c0.23,7.02,2.83,7.95,8.89,4.19
		c6.08-3.79,15.63-12.28,21.65-15.87c6-3.59,8.49-2.29,12.36,3.37c3.9,5.66,9.21,15.68,13.28,20.82c4.05,5.12,6.9,5.37,9.84-0.31
		c2.94-5.66,6-17.21,8.43-24.42c2.41-7.19,4.19-10.02,9.79-9.08c5.6,0.96,15.04,5.66,21.1,7.07c6.08,1.42,8.79-0.46,8.14-6.65
		c-0.65-6.2-4.68-16.69-6.57-23.12c-1.87-6.44-1.62-8.79,1.21-10.52c2.83-1.7,8.26-2.77,13.4-4.05c5.12-1.3,9.96-2.85,12.5-5.26
		c2.52-2.43,2.77-5.72-2.37-10.67c-5.12-4.97-15.61-11.57-20.75-17.06c-5.12-5.49-4.89-9.85-1.05-14.91
		c3.82-5.09,11.26-10.86,14.62-15.1s2.66-6.96-3.19-7.32c-5.83-0.34-16.8,1.66-24.23-0.78c-7.42-2.43-11.31-9.31-12.37-16.98
		c-1.07-7.67,0.71-16.12-0.8-18.57c-1.51-2.45-6.31,1.13-12.14,5.72c-5.85,4.61-12.73,10.25-20.24,8.05s-15.65-12.24-20.95-17.25
		c-5.31-5.01-7.8-5.01-9.67-0.82c-1.89,4.19-3.19,12.56-4.83,18.7c-1.66,6.14-3.67,10.02-10.8,10.02s-19.4-3.88-26.18-4.84
		c-6.77-0.94-8.06,1.07-7.19,4.61s3.96,8.6,7.07,15.56C202.54,222.22,205.72,231.07,197.88,236.56L197.88,236.56z"/>
	<path fill-rule="evenodd" fill="#FFFFFF" stroke="#161717" stroke-width="0.5143" stroke-miterlimit="10" d="M263.97,305.74
		c23.74,0,43.09-19.37,43.09-43.12c0-23.75-19.36-43.12-43.09-43.12s-43.09,19.37-43.09,43.12
		C220.87,286.37,240.23,305.74,263.97,305.74L263.97,305.74z"/>
	<path fill-rule="evenodd" fill="#FFFFFF" stroke="#161717" stroke-width="0.5143" stroke-miterlimit="10" d="M263.97,319.33
		c31.23,0,56.68-25.47,56.68-56.71c0-31.22-25.46-56.71-56.68-56.71c-31.21,0-56.68,25.49-56.68,56.71
		C207.28,293.86,232.76,319.33,263.97,319.33L263.97,319.33z"/>
	<path fill-rule="evenodd" fill="#FFFFFF" stroke="#161717" stroke-width="0.5143" stroke-miterlimit="10" d="M263.68,301.65
		c21.46,0,38.97-17.53,38.97-39.01s-17.51-38.99-38.97-38.99c-21.46,0-38.97,17.51-38.97,38.99S242.22,301.65,263.68,301.65
		L263.68,301.65z"/>
	<path fill-rule="evenodd" fill="#FFFFFF" stroke="#161717" stroke-width="0.5143" stroke-miterlimit="10" d="M263.97,284.92
		c12.29,0,22.28-10,22.28-22.29c0-12.28-10-22.29-22.28-22.29c-12.27,0-22.28,10.02-22.28,22.29
		C241.68,274.92,251.7,284.92,263.97,284.92L263.97,284.92z"/>
	<path fill-rule="evenodd" fill="#FFFFFF" stroke="#161717" stroke-width="0.5143" stroke-miterlimit="10" d="M263.97,276.27
		c7.76,0,14.1-6.14,14.1-13.65c0-7.51-6.34-13.65-14.1-13.65s-14.08,6.14-14.08,13.65C249.88,270.14,256.21,276.27,263.97,276.27
		L263.97,276.27z"/>
	<polygon fill-rule="evenodd" fill="#FFFFFF" stroke="#161717" stroke-width="0.5143" stroke-miterlimit="10" points="391.7,362.49 
		381.36,373.04 372.09,380.1 363.99,384.93 357.93,387.74 361.37,381.57 368.33,373.12 377.27,366.81 386.27,363.37 	"/>
	<polygon fill-rule="evenodd" fill="#FFFFFF" stroke="#161717" stroke-width="0.5143" stroke-miterlimit="10" points="425.97,268.3 
		423.81,282.91 420.46,294.07 416.74,302.76 413.49,308.61 412.65,301.57 413.32,290.63 416.85,280.27 422.11,272.2 	"/>
	<polygon fill-rule="evenodd" fill="#FFFFFF" stroke="#161717" stroke-width="0.5143" stroke-miterlimit="10" points="
		398.37,171.95 405.19,185.03 409.05,196.05 411.14,205.26 411.94,211.9 407.12,206.7 401.24,197.46 398.01,187 397.53,177.38 	"/>
	<polygon fill-rule="evenodd" fill="#FFFFFF" stroke="#161717" stroke-width="0.5143" stroke-miterlimit="10" points="
		319.42,110.23 332.65,116.81 342.22,123.45 349.33,129.66 353.88,134.57 346.92,133.18 336.74,129.18 327.99,122.62 321.95,115.11 
			"/>
	<polygon fill-rule="evenodd" fill="#FFFFFF" stroke="#161717" stroke-width="0.5143" stroke-miterlimit="10" points="219.3,106.72 
		233.87,104.27 245.5,104 254.91,104.86 261.46,106.16 255.04,109.13 244.45,111.88 233.5,111.71 224.22,109.2 	"/>
	<polygon fill-rule="evenodd" fill="#FFFFFF" stroke="#161717" stroke-width="0.5143" stroke-miterlimit="10" points="
		136.25,162.78 146.57,152.22 155.84,145.17 163.96,140.31 170.02,137.5 166.56,143.69 159.62,152.15 150.66,158.46 141.66,161.88 	
		"/>
	<polygon fill-rule="evenodd" fill="#FFFFFF" stroke="#161717" stroke-width="0.5143" stroke-miterlimit="10" points="
		101.96,256.96 104.12,242.35 107.49,231.19 111.19,222.49 114.46,216.66 115.28,223.69 114.63,234.61 111.1,244.97 105.84,253.04 	
		"/>
	<polygon fill-rule="evenodd" fill="#FFFFFF" stroke="#161717" stroke-width="0.5143" stroke-miterlimit="10" points="
		129.58,353.31 122.74,340.21 118.9,329.22 116.79,320 116.01,313.37 120.81,318.57 126.69,327.78 129.92,338.26 130.4,347.88 	"/>
	<polygon fill-rule="evenodd" fill="#FFFFFF" stroke="#161717" stroke-width="0.5143" stroke-miterlimit="10" points="
		208.52,415.03 195.3,408.45 185.73,401.82 178.62,395.58 174.07,390.69 181.01,392.07 191.19,396.06 199.96,402.64 206,410.13 	"/>
	<polygon fill-rule="evenodd" fill="#FFFFFF" stroke="#161717" stroke-width="0.5143" stroke-miterlimit="10" points="
		308.65,418.53 294.08,420.99 282.43,421.24 273.02,420.4 266.47,419.1 272.91,416.14 283.5,413.38 294.43,413.54 303.74,416.06 	
		"/>
	<polygon fill-rule="evenodd" fill="#FFFFFF" stroke="#161717" stroke-width="0.5143" stroke-miterlimit="10" points="
		391.59,362.33 384.4,351.72 378.25,344.44 371.48,338.49 365.98,337.06 360.61,338.63 353.27,343.02 343.92,350.61 341.76,354.82 
		341.52,361.91 342.42,366.48 356.83,386.79 357.93,387.74 361.37,381.57 368.33,373.12 377.27,366.81 386.27,363.37 	"/>
	<polygon fill-rule="evenodd" fill="#FFFFFF" stroke="#161717" stroke-width="0.5143" stroke-miterlimit="10" points="425.8,268.24 
		413.74,263.88 404.49,261.61 395.5,260.77 390.21,262.85 386.81,267.29 383.45,275.15 380.35,286.79 381.06,291.48 385.03,297.34 
		388.45,300.54 412.04,308.47 413.49,308.61 412.65,301.57 413.32,290.63 416.85,280.27 422.11,272.2 	"/>
	<polygon fill-rule="evenodd" fill="#FFFFFF" stroke="#161717" stroke-width="0.5143" stroke-miterlimit="10" points="
		398.18,172.01 385.87,175.57 377.06,179.18 369.3,183.77 366.25,188.57 366.09,194.15 367.99,202.51 372.3,213.73 375.65,217.1 
		382.3,219.53 386.94,220.1 410.68,212.64 411.94,211.9 407.12,206.7 401.24,197.46 398.01,187 397.53,177.38 	"/>
	<polygon fill-rule="evenodd" fill="#FFFFFF" stroke="#161717" stroke-width="0.5143" stroke-miterlimit="10" points="
		319.31,110.39 311.44,120.5 306.43,128.61 302.86,136.89 303.2,142.57 306.35,147.17 312.79,152.81 322.88,159.37 327.57,160.12 
		334.39,158.17 338.46,155.89 353.31,135.91 353.88,134.57 346.92,133.18 336.74,129.18 327.99,122.62 321.95,115.11 	"/>
	<polygon fill-rule="evenodd" fill="#FFFFFF" stroke="#161717" stroke-width="0.5143" stroke-miterlimit="10" points="219.3,106.93 
		218.88,119.74 219.59,129.24 221.56,138.04 225.17,142.43 230.44,144.31 238.97,145.09 250.97,144.44 255.19,142.3 259.57,136.72 
		261.54,132.47 261.79,107.58 261.46,106.16 255.04,109.13 244.45,111.88 233.5,111.71 224.22,109.2 	"/>
	<polygon fill-rule="evenodd" fill="#FFFFFF" stroke="#161717" stroke-width="0.5143" stroke-miterlimit="10" points="
		136.36,162.93 143.53,173.54 149.7,180.81 156.47,186.77 161.97,188.21 167.32,186.62 174.68,182.24 184.02,174.65 186.18,170.44 
		186.43,163.35 185.53,158.76 171.13,138.48 170.02,137.5 166.56,143.69 159.62,152.15 150.66,158.46 141.66,161.88 	"/>
	<polygon fill-rule="evenodd" fill="#FFFFFF" stroke="#161717" stroke-width="0.5143" stroke-miterlimit="10" points="
		102.15,257.02 114.19,261.38 123.46,263.64 132.43,264.48 137.72,262.39 141.12,257.98 144.5,250.1 147.6,238.47 146.87,233.79 
		142.92,227.92 139.5,224.73 115.91,216.79 114.46,216.66 115.28,223.69 114.63,234.61 111.1,244.97 105.84,253.04 	"/>
	<polygon fill-rule="evenodd" fill="#FFFFFF" stroke="#161717" stroke-width="0.5143" stroke-miterlimit="10" points="
		129.77,353.25 142.08,349.7 150.89,346.08 158.65,341.49 161.7,336.69 161.86,331.09 159.96,322.76 155.63,311.51 152.3,308.15 
		145.63,305.74 141.01,305.16 117.25,312.6 116.01,313.37 120.81,318.57 126.69,327.78 129.92,338.26 130.4,347.88 	"/>
	<polygon fill-rule="evenodd" fill="#FFFFFF" stroke="#161717" stroke-width="0.5143" stroke-miterlimit="10" points="
		208.64,414.86 216.49,404.76 221.5,396.65 225.07,388.38 224.73,382.68 221.58,378.07 215.14,372.43 205.05,365.89 200.36,365.13 
		193.56,367.1 189.47,369.35 174.64,389.35 174.07,390.69 181.01,392.07 191.19,396.06 199.96,402.64 206,410.13 	"/>
	<polygon fill-rule="evenodd" fill="#FFFFFF" stroke="#161717" stroke-width="0.5143" stroke-miterlimit="10" points="
		308.65,418.34 309.07,405.53 308.36,396.02 306.37,387.23 302.76,382.83 297.5,380.96 288.98,380.17 276.96,380.82 272.74,382.96 
		268.38,388.55 266.41,392.77 266.14,417.69 266.47,419.1 272.91,416.14 283.5,413.38 294.43,413.54 303.74,416.06 	"/>
	<polygon fill-rule="evenodd" fill="#FFFFFF" stroke="#161717" stroke-width="0.5143" stroke-miterlimit="10" points="
		355.49,385.05 348.99,384.25 341.56,381.03 337.98,378.26 337.62,374.74 340.1,370.9 343.58,368.2 345.15,370.5 342.32,373.19 
		341.76,373.54 341.84,375.37 343.6,377.71 348.84,380.29 352.43,381.4 	"/>
	<polygon fill-rule="evenodd" fill="#FFFFFF" stroke="#161717" stroke-width="0.5143" stroke-miterlimit="10" points="
		409.93,307.86 404.2,311.02 396.31,312.79 391.78,312.64 389.41,310.02 389.18,305.45 390.4,301.23 393.02,302.16 392.31,306.01 
		392.07,306.6 393.21,308.05 396,308.89 401.75,307.9 405.31,306.69 	"/>
	<polygon fill-rule="evenodd" fill="#FFFFFF" stroke="#161717" stroke-width="0.5143" stroke-miterlimit="10" points="
		408.61,213.39 405.84,219.32 400.49,225.4 396.77,227.94 393.31,227.19 390.42,223.64 388.93,219.51 391.61,218.7 393.29,222.24 
		393.44,222.87 395.22,223.37 397.97,222.41 402.04,218.24 404.2,215.17 	"/>
	<polygon fill-rule="evenodd" fill="#FFFFFF" stroke="#161717" stroke-width="0.5143" stroke-miterlimit="10" points="
		352.07,137.73 353.31,144.15 352.54,152.22 351.01,156.47 347.79,157.9 343.37,156.73 339.74,154.25 341.42,152.05 344.86,153.9 
		345.36,154.33 347.08,153.69 348.74,151.29 349.58,145.53 349.52,141.76 	"/>
	<polygon fill-rule="evenodd" fill="#FFFFFF" stroke="#161717" stroke-width="0.5143" stroke-miterlimit="10" points="
		261.86,109.78 266.64,114.23 270.77,121.21 272.03,125.55 270.25,128.63 265.99,130.27 261.6,130.41 261.67,127.61 265.55,127.1 
		266.18,127.16 267.21,125.63 267.14,122.7 264.44,117.54 262.19,114.52 	"/>
	<polygon fill-rule="evenodd" fill="#FFFFFF" stroke="#161717" stroke-width="0.5143" stroke-miterlimit="10" points="172.46,140.2 
		178.96,141.02 186.38,144.23 189.95,147 190.33,150.52 187.85,154.36 184.37,157.04 182.78,154.77 185.63,152.07 186.17,151.73 
		186.11,149.87 184.33,147.56 179.11,144.98 175.52,143.87 	"/>
	<polygon fill-rule="evenodd" fill="#FFFFFF" stroke="#161717" stroke-width="0.5143" stroke-miterlimit="10" points="118.02,217.4 
		123.73,214.23 131.64,212.47 136.15,212.6 138.52,215.24 138.77,219.81 137.55,224.02 134.91,223.1 135.64,219.26 135.87,218.67 
		134.74,217.21 131.95,216.37 126.2,217.35 122.64,218.57 	"/>
	<polygon fill-rule="evenodd" fill="#FFFFFF" stroke="#161717" stroke-width="0.5143" stroke-miterlimit="10" points="
		119.32,311.88 122.09,305.95 127.44,299.87 131.18,297.32 134.64,298.05 137.53,301.61 139,305.74 136.34,306.54 134.66,303 
		134.51,302.39 132.73,301.88 129.98,302.85 125.91,307.02 123.75,310.1 	"/>
	<polygon fill-rule="evenodd" fill="#FFFFFF" stroke="#161717" stroke-width="0.5143" stroke-miterlimit="10" points="
		175.88,387.53 174.64,381.11 175.39,373.04 176.92,368.8 180.16,367.34 184.58,368.53 188.21,371 186.51,373.21 183.09,371.34 
		182.59,370.94 180.85,371.57 179.19,373.96 178.35,379.73 178.41,383.5 	"/>
	<polygon fill-rule="evenodd" fill="#FFFFFF" stroke="#161717" stroke-width="0.5143" stroke-miterlimit="10" points="
		266.09,415.49 261.31,411.01 257.18,404.04 255.92,399.71 257.68,396.64 261.96,394.99 266.34,394.86 266.28,397.65 262.4,398.15 
		261.75,398.11 260.74,399.64 260.79,402.54 263.51,407.73 265.76,410.73 	"/>
	<polygon fill-rule="evenodd" fill="#FFFFFF" stroke="#161717" stroke-width="0.5143" stroke-miterlimit="10" points="
		374.14,340.38 376.05,335.87 375.86,331.55 375.46,331.11 373.49,329.66 368.86,329.31 360.7,331.67 349.31,337.9 340.18,345.01 
		331.83,354.17 328.71,359.69 328.33,365.35 332.55,367.82 337.22,367.48 342.18,366.18 341.34,360.08 341.94,354.21 343.5,351.07 
		351.76,344.48 358.98,339.43 365.98,337.06 370.41,337.96 	"/>
	<polygon fill-rule="evenodd" fill="#FFFFFF" stroke="#161717" stroke-width="0.5143" stroke-miterlimit="10" points="
		398.77,260.75 397.68,255.97 394.99,252.58 394.4,252.47 391.97,252.45 388.01,254.9 382.78,261.59 377.24,273.33 374.02,284.46 
		372.65,296.79 373.37,303.08 376.39,307.88 381.27,307.4 384.82,304.38 388.09,300.4 383.83,295.97 380.85,290.86 380.27,287.4 
		383.08,277.21 385.95,268.87 390.21,262.85 394.34,260.96 	"/>
	<polygon fill-rule="evenodd" fill="#FFFFFF" stroke="#161717" stroke-width="0.5143" stroke-miterlimit="10" points="
		371.94,181.84 368.23,178.61 364.07,177.46 363.51,177.71 361.54,179.12 359.79,183.43 359.48,191.92 361.89,204.69 365.84,215.57 
		371.96,226.35 376.24,231.02 381.51,233.12 385.17,229.87 386.27,225.34 386.58,220.21 380.52,219.12 375.11,216.73 372.61,214.29 
		368.9,204.38 366.32,195.95 366.25,188.57 368.46,184.63 	"/>
	<polygon fill-rule="evenodd" fill="#FFFFFF" stroke="#161717" stroke-width="0.5143" stroke-miterlimit="10" points="
		303.85,133.77 298.96,133.33 294.91,134.86 294.62,135.38 293.85,137.69 294.96,142.22 299.7,149.26 309.14,158.17 318.74,164.65 
		330.03,169.77 336.22,171.02 341.75,169.64 342.76,164.86 341,160.54 338.25,156.2 332.69,158.9 326.92,160.14 323.46,159.62 
		314.65,153.81 307.59,148.47 303.2,142.57 302.68,138.07 	"/>
	<polygon fill-rule="evenodd" fill="#FFFFFF" stroke="#161717" stroke-width="0.5143" stroke-miterlimit="10" points="
		220.53,134.94 216.32,137.46 213.93,141.08 214.01,141.67 214.74,143.98 218.29,146.98 226.28,149.89 239.14,151.55 250.72,151.15 
		262.86,148.67 268.61,146.03 272.26,141.67 270.27,137.19 266.32,134.73 261.54,132.85 258.61,138.28 254.68,142.7 251.58,144.31 
		241.03,144.78 232.2,144.63 225.17,142.43 222.11,139.11 	"/>
	<polygon fill-rule="evenodd" fill="#FFFFFF" stroke="#161717" stroke-width="0.5143" stroke-miterlimit="10" points="
		153.81,184.86 151.88,189.37 152.07,193.71 152.49,194.15 154.44,195.59 159.09,195.93 167.25,193.6 178.64,187.37 187.75,180.23 
		196.12,171.09 199.22,165.57 199.6,159.89 195.38,157.44 190.73,157.79 185.76,159.07 186.59,165.19 185.99,171.06 184.45,174.19 
		176.19,180.79 168.95,185.84 161.97,188.21 157.54,187.31 	"/>
	<polygon fill-rule="evenodd" fill="#FFFFFF" stroke="#161717" stroke-width="0.5143" stroke-miterlimit="10" points="129.16,264.5 
		130.27,269.28 132.96,272.68 133.53,272.79 135.98,272.81 139.94,270.35 145.15,263.65 150.71,251.92 153.91,240.79 155.3,228.47 
		154.56,222.18 151.54,217.36 146.68,217.86 143.13,220.88 139.86,224.84 144.12,229.3 147.08,234.4 147.68,237.84 144.87,248.03 
		141.98,256.39 137.72,262.39 133.61,264.29 	"/>
	<polygon fill-rule="evenodd" fill="#FFFFFF" stroke="#161717" stroke-width="0.5143" stroke-miterlimit="10" points="
		156.01,343.42 159.7,346.66 163.88,347.8 164.42,347.55 166.4,346.14 168.16,341.82 168.45,333.33 166.04,320.58 162.1,309.68 
		155.99,298.89 151.69,294.25 146.42,292.12 142.78,295.39 141.68,299.93 141.37,305.05 147.43,306.14 152.84,308.53 155.32,310.98 
		159.05,320.86 161.61,329.31 161.7,336.69 159.49,340.63 	"/>
	<polygon fill-rule="evenodd" fill="#FFFFFF" stroke="#161717" stroke-width="0.5143" stroke-miterlimit="10" points="224.1,391.49 
		228.97,391.91 233.04,390.4 233.33,389.87 234.1,387.55 232.99,383.04 228.25,376.01 218.79,367.1 209.19,360.61 197.92,355.47 
		191.71,354.23 186.2,355.62 185.17,360.4 186.95,364.72 189.7,369.05 195.24,366.37 201.01,365.13 204.47,365.62 213.3,371.45 
		220.34,376.77 224.73,382.68 225.27,387.19 	"/>
	<polygon fill-rule="evenodd" fill="#FFFFFF" stroke="#161717" stroke-width="0.5143" stroke-miterlimit="10" points="307.4,390.33 
		311.61,387.8 314,384.19 313.94,383.6 313.19,381.26 309.64,378.26 301.67,375.35 288.79,373.71 277.23,374.09 265.07,376.6 
		259.32,379.24 255.69,383.6 257.66,388.07 261.63,390.52 266.41,392.41 269.32,386.96 273.25,382.56 276.35,380.94 286.92,380.46 
		295.73,380.63 302.76,382.83 305.84,386.16 	"/>
	<polygon fill-rule="evenodd" fill="#FFFFFF" stroke="#161717" stroke-width="0.5143" stroke-miterlimit="10" points="
		250.45,359.01 256.02,356.69 259.13,351.17 259.26,346.52 259.17,345.24 259,341.44 257.05,338.38 254.45,337.88 251.62,340.77 
		249.5,345.34 247.26,351.19 245.87,355.58 246.71,357.84 	"/>
	<polygon fill-rule="evenodd" fill="#FFFFFF" stroke="#161717" stroke-width="0.5143" stroke-miterlimit="10" points="
		309.66,348.55 312.79,343.4 312.07,337.1 309.45,333.27 308.63,332.3 306.24,329.31 302.87,327.99 300.49,329.1 299.89,333.1 
		300.85,338.05 302.49,344.09 303.94,348.47 305.95,349.81 	"/>
	<polygon fill-rule="evenodd" fill="#FFFFFF" stroke="#161717" stroke-width="0.5143" stroke-miterlimit="10" points="
		351.42,305.26 350.92,299.28 346.64,294.59 342.26,293.02 341.02,292.74 337.33,291.72 333.83,292.62 332.55,294.94 334.45,298.53 
		338.11,301.97 342.99,305.89 346.73,308.59 349.16,308.47 	"/>
	<polygon fill-rule="evenodd" fill="#FFFFFF" stroke="#161717" stroke-width="0.5143" stroke-miterlimit="10" points="359.77,245.7 
		355.83,241.13 349.62,239.87 345.19,241.17 343.98,241.67 340.41,243.02 338.11,245.82 338.44,248.44 342.07,250.23 347.06,250.84 
		353.33,251.15 357.93,251.13 359.83,249.62 	"/>
	<polygon fill-rule="evenodd" fill="#FFFFFF" stroke="#161717" stroke-width="0.5143" stroke-miterlimit="10" points="331.52,192.6 
		325.67,191.21 319.9,193.85 317.08,197.52 316.39,198.63 314.3,201.8 314.07,205.42 315.87,207.35 319.86,206.68 324.28,204.23 
		329.51,200.81 333.22,198.07 333.87,195.74 	"/>
	<polygon fill-rule="evenodd" fill="#FFFFFF" stroke="#161717" stroke-width="0.5143" stroke-miterlimit="10" points="
		277.48,166.26 271.93,168.57 268.8,174.1 268.67,178.72 268.78,180.02 268.95,183.83 270.9,186.87 273.48,187.38 276.31,184.48 
		278.45,179.93 280.67,174.06 282.08,169.66 281.22,167.4 	"/>
	<polygon fill-rule="evenodd" fill="#FFFFFF" stroke="#161717" stroke-width="0.5143" stroke-miterlimit="10" points="
		218.27,176.72 215.16,181.86 215.86,188.17 218.48,191.99 219.32,192.97 221.71,195.95 225.07,197.27 227.46,196.16 228.06,192.15 
		227.1,187.21 225.46,181.15 224,176.77 222,175.45 	"/>
	<polygon fill-rule="evenodd" fill="#FFFFFF" stroke="#161717" stroke-width="0.5143" stroke-miterlimit="10" points="
		176.53,219.98 177.03,225.99 181.31,230.67 185.67,232.22 186.93,232.53 190.6,233.54 194.1,232.62 195.38,230.33 193.5,226.73 
		189.83,223.29 184.94,219.37 181.2,216.68 178.79,216.79 	"/>
	<polygon fill-rule="evenodd" fill="#FFFFFF" stroke="#161717" stroke-width="0.5143" stroke-miterlimit="10" points="
		168.18,279.56 172.1,284.11 178.31,285.38 182.76,284.07 183.95,283.58 187.52,282.24 189.82,279.45 189.51,276.83 185.88,275.03 
		180.87,274.4 174.62,274.09 170.02,274.13 168.12,275.64 	"/>
	<polygon fill-rule="evenodd" fill="#FFFFFF" stroke="#161717" stroke-width="0.5143" stroke-miterlimit="10" points="
		196.43,332.66 202.28,334.04 208.05,331.42 210.88,327.75 211.54,326.64 213.65,323.44 213.86,319.83 212.06,317.9 208.07,318.59 
		203.67,321.02 198.42,324.46 194.71,327.19 194.08,329.5 	"/>
	<polygon fill-rule="evenodd" fill="#FFFFFF" stroke="#161717" stroke-width="0.5143" stroke-miterlimit="10" points="
		337.98,409.26 341.1,404.11 340.39,397.8 337.77,393.98 336.93,393 334.54,390.02 331.18,388.7 328.79,389.81 328.2,393.82 
		329.15,398.76 330.8,404.82 332.25,409.2 334.25,410.52 	"/>
	<polygon fill-rule="evenodd" fill="#FFFFFF" stroke="#161717" stroke-width="0.5143" stroke-miterlimit="10" points="
		409.99,337.73 409.49,331.74 405.19,327.06 400.84,325.49 399.59,325.18 395.91,324.19 392.41,325.09 391.13,327.4 393,331 
		396.69,334.44 401.56,338.36 405.31,341.05 407.72,340.94 	"/>
	<polygon fill-rule="evenodd" fill="#FFFFFF" stroke="#161717" stroke-width="0.5143" stroke-miterlimit="10" points="
		426.22,237.52 422.3,232.97 416.09,231.69 411.63,233.01 410.45,233.48 406.88,234.84 404.58,237.63 404.89,240.25 408.52,242.05 
		413.53,242.68 419.77,242.99 424.38,242.95 426.27,241.44 	"/>
	<polygon fill-rule="evenodd" fill="#FFFFFF" stroke="#161717" stroke-width="0.5143" stroke-miterlimit="10" points="
		380.48,146.91 374.64,145.51 368.84,148.15 366.02,151.82 365.35,152.91 363.26,156.1 363.04,159.72 364.83,161.65 368.83,160.98 
		373.24,158.53 378.48,155.11 382.18,152.38 382.83,150.04 	"/>
	<polygon fill-rule="evenodd" fill="#FFFFFF" stroke="#161717" stroke-width="0.5143" stroke-miterlimit="10" points="
		290.24,100.48 284.7,102.82 281.57,108.34 281.43,112.97 281.53,114.25 281.72,118.07 283.67,121.11 286.25,121.61 289.08,118.72 
		291.22,114.15 293.43,108.3 294.83,103.91 293.99,101.65 	"/>
	<polygon fill-rule="evenodd" fill="#FFFFFF" stroke="#161717" stroke-width="0.5143" stroke-miterlimit="10" points="
		189.97,116.01 186.83,121.15 187.56,127.46 190.18,131.29 191.02,132.26 193.39,135.24 196.75,136.56 199.16,135.45 199.73,131.44 
		198.8,126.51 197.15,120.44 195.7,116.07 193.68,114.75 	"/>
	<polygon fill-rule="evenodd" fill="#FFFFFF" stroke="#161717" stroke-width="0.5143" stroke-miterlimit="10" points="
		117.96,187.52 118.46,193.52 122.74,198.21 127.09,199.75 128.36,200.06 132.04,201.07 135.54,200.16 136.82,197.86 134.93,194.27 
		131.26,190.83 126.37,186.91 122.62,184.21 120.21,184.33 	"/>
	<polygon fill-rule="evenodd" fill="#FFFFFF" stroke="#161717" stroke-width="0.5143" stroke-miterlimit="10" points="
		101.71,287.75 105.65,292.3 111.86,293.56 116.32,292.26 117.5,291.76 121.07,290.42 123.37,287.63 123.04,285.01 119.41,283.22 
		114.42,282.58 108.16,282.28 103.55,282.3 101.68,283.81 	"/>
	<polygon fill-rule="evenodd" fill="#FFFFFF" stroke="#161717" stroke-width="0.5143" stroke-miterlimit="10" points="
		147.47,378.36 153.31,379.73 159.09,377.11 161.91,373.44 162.58,372.33 164.69,369.14 164.9,365.55 163.1,363.61 159.1,364.28 
		154.71,366.71 149.47,370.15 145.75,372.89 145.12,375.22 	"/>
	<polygon fill-rule="evenodd" fill="#FFFFFF" stroke="#161717" stroke-width="0.5143" stroke-miterlimit="10" points="
		237.71,424.78 243.25,422.45 246.36,416.92 246.5,412.3 246.4,410.99 246.23,407.19 244.28,404.15 241.7,403.63 238.85,406.54 
		236.73,411.09 234.5,416.96 233.1,421.36 233.96,423.61 	"/>
	<polyline fill="none" stroke="#161717" stroke-width="0.5143" stroke-miterlimit="10" points="252.17,353.14 253.36,347.57 
		255.46,340.46 	"/>
	<polyline fill="none" stroke="#161717" stroke-width="0.5143" stroke-miterlimit="10" points="307.59,342.77 305.28,337.59 
		302.82,330.59 	"/>
	<polyline fill="none" stroke="#161717" stroke-width="0.5143" stroke-miterlimit="10" points="346.35,301.82 341.44,298.97 
		335.33,294.78 	"/>
	<polyline fill="none" stroke="#161717" stroke-width="0.5143" stroke-miterlimit="10" points="353.65,245.87 348,246.48 
		340.58,246.68 	"/>
	<polyline fill="none" stroke="#161717" stroke-width="0.5143" stroke-miterlimit="10" points="326.69,196.35 322.46,200.16 
		316.58,204.67 	"/>
	<polyline fill="none" stroke="#161717" stroke-width="0.5143" stroke-miterlimit="10" points="275.76,172.13 274.59,177.69 
		272.49,184.8 	"/>
	<polyline fill="none" stroke="#161717" stroke-width="0.5143" stroke-miterlimit="10" points="220.34,182.47 222.65,187.67 
		225.13,194.65 	"/>
	<polyline fill="none" stroke="#161717" stroke-width="0.5143" stroke-miterlimit="10" points="181.58,223.45 186.51,226.27 
		192.61,230.48 	"/>
	<polyline fill="none" stroke="#161717" stroke-width="0.5143" stroke-miterlimit="10" points="174.3,279.37 179.95,278.78 
		187.35,278.59 	"/>
	<polyline fill="none" stroke="#161717" stroke-width="0.5143" stroke-miterlimit="10" points="201.26,328.91 205.49,325.11 
		211.35,320.59 	"/>
	<polyline fill="none" stroke="#161717" stroke-width="0.5143" stroke-miterlimit="10" points="335.92,403.5 333.6,398.3 
		331.12,391.3 	"/>
	<polyline fill="none" stroke="#161717" stroke-width="0.5143" stroke-miterlimit="10" points="404.93,334.28 400,331.44 
		393.9,327.25 	"/>
	<polyline fill="none" stroke="#161717" stroke-width="0.5143" stroke-miterlimit="10" points="420.1,237.71 414.44,238.3 
		407.05,238.49 	"/>
	<polyline fill="none" stroke="#161717" stroke-width="0.5143" stroke-miterlimit="10" points="375.65,150.65 371.42,154.46 
		365.54,158.97 	"/>
	<polyline fill="none" stroke="#161717" stroke-width="0.5143" stroke-miterlimit="10" points="288.52,106.35 287.34,111.94 
		285.24,119.03 	"/>
	<polyline fill="none" stroke="#161717" stroke-width="0.5143" stroke-miterlimit="10" points="192.03,121.76 194.34,126.96 
		196.81,133.94 	"/>
	<polyline fill="none" stroke="#161717" stroke-width="0.5143" stroke-miterlimit="10" points="123,190.98 127.94,193.83 
		134.05,198.02 	"/>
	<polyline fill="none" stroke="#161717" stroke-width="0.5143" stroke-miterlimit="10" points="107.83,287.56 113.49,286.96 
		120.9,286.77 	"/>
	<polyline fill="none" stroke="#161717" stroke-width="0.5143" stroke-miterlimit="10" points="152.3,374.61 156.52,370.8 
		162.39,366.29 	"/>
	<polyline fill="none" stroke="#161717" stroke-width="0.5143" stroke-miterlimit="10" points="239.41,418.89 240.59,413.33 
		242.69,406.22 	"/>
	
		<line fill="none" stroke="#161717" stroke-width="0.5143" stroke-miterlimit="10" x1="250.95" y1="357.25" x2="252.29" y2="352.64"/>
	
		<line fill="none" stroke="#161717" stroke-width="0.5143" stroke-miterlimit="10" x1="309.03" y1="346.83" x2="307.4" y2="342.33"/>
	
		<line fill="none" stroke="#161717" stroke-width="0.5143" stroke-miterlimit="10" x1="349.89" y1="304.25" x2="345.93" y2="301.57"/>
	
		<line fill="none" stroke="#161717" stroke-width="0.5143" stroke-miterlimit="10" x1="357.93" y1="245.78" x2="353.16" y2="245.93"/>
	
		<line fill="none" stroke="#161717" stroke-width="0.5143" stroke-miterlimit="10" x1="330.09" y1="193.73" x2="326.31" y2="196.68"/>
	
		<line fill="none" stroke="#161717" stroke-width="0.5143" stroke-miterlimit="10" x1="276.98" y1="168.02" x2="275.66" y2="172.62"/>
	
		<line fill="none" stroke="#161717" stroke-width="0.5143" stroke-miterlimit="10" x1="218.9" y1="178.42" x2="220.55" y2="182.93"/>
	<line fill="none" stroke="#161717" stroke-width="0.5143" stroke-miterlimit="10" x1="178.04" y1="221" x2="182.02" y2="223.69"/>
	<line fill="none" stroke="#161717" stroke-width="0.5143" stroke-miterlimit="10" x1="170" y1="279.49" x2="174.79" y2="279.31"/>
	
		<line fill="none" stroke="#161717" stroke-width="0.5143" stroke-miterlimit="10" x1="197.86" y1="331.53" x2="201.63" y2="328.57"/>
	
		<line fill="none" stroke="#161717" stroke-width="0.5143" stroke-miterlimit="10" x1="337.35" y1="407.53" x2="335.71" y2="403.04"/>
	
		<line fill="none" stroke="#161717" stroke-width="0.5143" stroke-miterlimit="10" x1="408.46" y1="336.71" x2="404.49" y2="334.04"/>
	<line fill="none" stroke="#161717" stroke-width="0.5143" stroke-miterlimit="10" x1="424.4" y1="237.59" x2="419.6" y2="237.75"/>
	
		<line fill="none" stroke="#161717" stroke-width="0.5143" stroke-miterlimit="10" x1="379.05" y1="148.04" x2="375.27" y2="150.98"/>
	
		<line fill="none" stroke="#161717" stroke-width="0.5143" stroke-miterlimit="10" x1="289.75" y1="102.24" x2="288.43" y2="106.85"/>
	
		<line fill="none" stroke="#161717" stroke-width="0.5143" stroke-miterlimit="10" x1="190.6" y1="117.71" x2="192.24" y2="122.22"/>
	
		<line fill="none" stroke="#161717" stroke-width="0.5143" stroke-miterlimit="10" x1="119.47" y1="188.53" x2="123.44" y2="191.23"/>
	
		<line fill="none" stroke="#161717" stroke-width="0.5143" stroke-miterlimit="10" x1="103.55" y1="287.67" x2="108.33" y2="287.5"/>
	
		<line fill="none" stroke="#161717" stroke-width="0.5143" stroke-miterlimit="10" x1="148.9" y1="377.23" x2="152.66" y2="374.28"/>
	<line fill="none" stroke="#161717" stroke-width="0.5143" stroke-miterlimit="10" x1="238.2" y1="423" x2="239.52" y2="418.41"/>
	<polyline fill="none" stroke="#161717" stroke-width="0.5143" stroke-miterlimit="10" points="253.8,340.12 252.94,344.19 
		251.22,350.46 248.49,357.11 	"/>
	<polyline fill="none" stroke="#161717" stroke-width="0.5143" stroke-miterlimit="10" points="301.27,331.3 302.95,335.11 
		305.26,341.19 306.95,348.19 	"/>
	<polyline fill="none" stroke="#161717" stroke-width="0.5143" stroke-miterlimit="10" points="334.48,296.25 338.1,298.34 
		343.52,301.9 349.01,306.56 	"/>
	<polyline fill="none" stroke="#161717" stroke-width="0.5143" stroke-miterlimit="10" points="340.77,248.36 344.92,247.92 
		351.4,247.61 358.58,248.17 	"/>
	<polyline fill="none" stroke="#161717" stroke-width="0.5143" stroke-miterlimit="10" points="317.72,205.91 320.82,203.14 
		325.88,199.07 332.02,195.3 	"/>
	<polyline fill="none" stroke="#161717" stroke-width="0.5143" stroke-miterlimit="10" points="274.13,185.15 275.01,181.06 
		276.71,174.78 279.46,168.15 	"/>
	<polyline fill="none" stroke="#161717" stroke-width="0.5143" stroke-miterlimit="10" points="226.68,193.96 224.98,190.16 
		222.69,184.08 221,177.08 	"/>
	<polyline fill="none" stroke="#161717" stroke-width="0.5143" stroke-miterlimit="10" points="193.45,229.01 189.85,226.92 
		184.41,223.35 178.94,218.68 	"/>
	<polyline fill="none" stroke="#161717" stroke-width="0.5143" stroke-miterlimit="10" points="187.18,276.9 183.03,277.33 
		176.53,277.63 169.37,277.08 	"/>
	<polyline fill="none" stroke="#161717" stroke-width="0.5143" stroke-miterlimit="10" points="210.23,319.33 207.13,322.12 
		202.05,326.2 195.93,329.96 	"/>
	<polyline fill="none" stroke="#161717" stroke-width="0.5143" stroke-miterlimit="10" points="329.57,392.01 331.27,395.81 
		333.57,401.89 335.25,408.89 	"/>
	<polyline fill="none" stroke="#161717" stroke-width="0.5143" stroke-miterlimit="10" points="393.06,328.7 396.67,330.81 
		402.1,334.36 407.56,339.03 	"/>
	<polyline fill="none" stroke="#161717" stroke-width="0.5143" stroke-miterlimit="10" points="407.22,240.18 411.37,239.75 
		417.86,239.43 425.03,240 	"/>
	<polyline fill="none" stroke="#161717" stroke-width="0.5143" stroke-miterlimit="10" points="366.69,160.21 369.78,157.44 
		374.85,153.37 380.98,149.6 	"/>
	<polyline fill="none" stroke="#161717" stroke-width="0.5143" stroke-miterlimit="10" points="286.9,119.37 287.78,115.3 
		289.48,109.03 292.23,102.38 	"/>
	<polyline fill="none" stroke="#161717" stroke-width="0.5143" stroke-miterlimit="10" points="198.36,133.26 196.68,129.45 
		194.36,123.37 192.68,116.37 	"/>
	<polyline fill="none" stroke="#161717" stroke-width="0.5143" stroke-miterlimit="10" points="134.89,196.54 131.28,194.46 
		125.85,190.88 120.37,186.22 	"/>
	<polyline fill="none" stroke="#161717" stroke-width="0.5143" stroke-miterlimit="10" points="120.71,285.07 116.56,285.51 
		110.09,285.81 102.92,285.26 	"/>
	<polyline fill="none" stroke="#161717" stroke-width="0.5143" stroke-miterlimit="10" points="161.26,365.03 158.17,367.82 
		153.08,371.89 146.97,375.66 	"/>
	<polyline fill="none" stroke="#161717" stroke-width="0.5143" stroke-miterlimit="10" points="241.05,405.87 240.17,409.96 
		238.45,416.23 235.72,422.87 	"/>
	<polygon fill-rule="evenodd" fill="#FFFFFF" stroke="#161717" stroke-width="0.5143" stroke-miterlimit="10" points="498.7,248.99 
		499.75,275.87 463.04,276.71 461.82,250.35 	"/>
	<polygon fill-rule="evenodd" fill="#FFFFFF" stroke="#161717" stroke-width="0.5143" stroke-miterlimit="10" points="
		483.01,177.08 492.3,202.32 457.65,214.48 448.33,189.77 	"/>
	<polygon fill-rule="evenodd" fill="#FFFFFF" stroke="#161717" stroke-width="0.5143" stroke-miterlimit="10" points="
		445.86,113.54 462.51,134.69 433.31,156.96 416.81,136.35 	"/>
	<polygon fill-rule="evenodd" fill="#FFFFFF" stroke="#161717" stroke-width="0.5143" stroke-miterlimit="10" points="390.92,64.61 
		413.26,79.57 392.37,109.78 370.32,95.28 	"/>
	<polygon fill-rule="evenodd" fill="#FFFFFF" stroke="#161717" stroke-width="0.5143" stroke-miterlimit="10" points="323.53,35.05 
		349.41,42.36 338.88,77.56 313.42,70.58 	"/>
	<polygon fill-rule="evenodd" fill="#FFFFFF" stroke="#161717" stroke-width="0.5143" stroke-miterlimit="10" points="250.34,27.77 
		277.21,26.74 278.05,63.47 251.7,64.69 	"/>
	<polygon fill-rule="evenodd" fill="#FFFFFF" stroke="#161717" stroke-width="0.5143" stroke-miterlimit="10" points="178.46,43.49 
		203.69,34.17 215.84,68.86 191.15,78.17 	"/>
	<polygon fill-rule="evenodd" fill="#FFFFFF" stroke="#161717" stroke-width="0.5143" stroke-miterlimit="10" points="114.96,80.66 
		136.08,64 158.36,93.22 137.76,109.72 	"/>
	<polygon fill-rule="evenodd" fill="#FFFFFF" stroke="#161717" stroke-width="0.5143" stroke-miterlimit="10" points="66.05,135.63 
		81,113.26 111.19,134.15 96.71,156.22 	"/>
	<polygon fill-rule="evenodd" fill="#FFFFFF" stroke="#161717" stroke-width="0.5143" stroke-miterlimit="10" points="36.51,203.02 
		43.81,177.14 78.99,187.69 72.02,213.14 	"/>
	<polygon fill-rule="evenodd" fill="#FFFFFF" stroke="#161717" stroke-width="0.5143" stroke-miterlimit="10" points="29.23,276.27 
		28.2,249.39 64.91,248.53 66.13,274.92 	"/>
	<polygon fill-rule="evenodd" fill="#FFFFFF" stroke="#161717" stroke-width="0.5143" stroke-miterlimit="10" points="44.94,348.17 
		35.63,322.93 70.3,310.77 79.6,335.47 	"/>
	<polygon fill-rule="evenodd" fill="#FFFFFF" stroke="#161717" stroke-width="0.5143" stroke-miterlimit="10" points="82.09,411.7 
		65.44,390.57 94.64,368.3 111.14,388.91 	"/>
	<polygon fill-rule="evenodd" fill="#FFFFFF" stroke="#161717" stroke-width="0.5143" stroke-miterlimit="10" points="
		137.03,460.65 114.67,445.7 135.56,415.47 157.61,429.98 	"/>
	<polygon fill-rule="evenodd" fill="#FFFFFF" stroke="#161717" stroke-width="0.5143" stroke-miterlimit="10" points="204.4,490.21 
		178.52,482.89 189.07,447.69 214.51,454.66 	"/>
	<polygon fill-rule="evenodd" fill="#FFFFFF" stroke="#161717" stroke-width="0.5143" stroke-miterlimit="10" points="
		277.61,497.48 250.74,498.53 249.88,461.8 276.25,460.57 	"/>
	<polygon fill-rule="evenodd" fill="#FFFFFF" stroke="#161717" stroke-width="0.5143" stroke-miterlimit="10" points="
		349.47,481.78 324.24,491.07 312.09,456.41 336.78,447.07 	"/>
	<polygon fill-rule="evenodd" fill="#FFFFFF" stroke="#161717" stroke-width="0.5143" stroke-miterlimit="10" points="
		412.97,444.61 391.85,461.26 369.59,432.05 390.19,415.55 	"/>
	<polygon fill-rule="evenodd" fill="#FFFFFF" stroke="#161717" stroke-width="0.5143" stroke-miterlimit="10" points="461.9,389.64 
		446.95,411.99 416.74,391.09 431.24,369.05 	"/>
	<polygon fill-rule="evenodd" fill="#FFFFFF" stroke="#161717" stroke-width="0.5143" stroke-miterlimit="10" points="
		491.44,322.22 484.12,348.11 448.94,337.57 455.91,312.1 	"/>
	<path fill-rule="evenodd" fill="#FFFFFF" stroke="#161717" stroke-width="0.5143" stroke-miterlimit="10" d="M499.75,275.87
		c0,1.49-0.23,3.04-0.79,4.84c-1.13,2.1-2.45,3.82-4.78,5.96c-1.95,1.68-4.47,2.66-7.19,3.61c-2.06,0.17-3.97,0.09-5.81-0.4
		c-2.37-0.54-4.26-2.45-5.81-3.9l-2.54-3.44l-1.38-2.71l-0.5-3.29l2.31-0.02l1.05,3.42l3.02,4.46l3.84,3.36l3.99,0.88l3.76-1.07
		l3.69-2.47l1.7-1.76l2.24-4.17l0.46-3.25L499.75,275.87z"/>
	<path fill-rule="evenodd" fill="#FFFFFF" stroke="#161717" stroke-width="0.5143" stroke-miterlimit="10" d="M492.3,202.32
		c0.46,1.42,0.73,2.96,0.75,4.86c-0.42,2.35-1.15,4.4-2.69,7.15c-1.34,2.2-3.42,3.92-5.71,5.66c-1.91,0.8-3.75,1.3-5.66,1.42
		c-2.43,0.21-4.82-1.01-6.73-1.91l-3.46-2.49l-2.18-2.16l-1.47-2.98l2.18-0.75l2.06,2.94l4.24,3.31l4.7,2.01l4.07-0.4l3.25-2.18
		l2.73-3.48l1.09-2.22l0.84-4.65l-0.57-3.23L492.3,202.32z"/>
	<path fill-rule="evenodd" fill="#FFFFFF" stroke="#161717" stroke-width="0.5143" stroke-miterlimit="10" d="M462.51,134.69
		c0.88,1.21,1.61,2.58,2.2,4.38c0.33,2.35,0.27,4.53-0.36,7.63c-0.57,2.5-2.04,4.78-3.67,7.15c-1.57,1.36-3.17,2.41-4.93,3.1
		c-2.25,0.96-4.91,0.52-7.01,0.27l-4.05-1.3l-2.73-1.4l-2.33-2.37l1.85-1.38l2.87,2.16l5.06,1.84l5.08,0.46l3.74-1.66l2.41-3.06
		l1.55-4.15l0.34-2.45l-0.65-4.68l-1.53-2.89L462.51,134.69z"/>
	<path fill-rule="evenodd" fill="#FFFFFF" stroke="#161717" stroke-width="0.5143" stroke-miterlimit="10" d="M413.26,79.57
		c1.21,0.88,2.33,1.97,3.46,3.48c1.05,2.16,1.66,4.23,2.01,7.38c0.23,2.56-0.46,5.18-1.28,7.93c-1.07,1.78-2.28,3.27-3.75,4.47
		c-1.83,1.61-4.49,2.01-6.57,2.41l-4.26,0.02l-3.02-0.48l-2.96-1.53l1.36-1.89l3.38,1.17l5.39,0.19l4.97-1.15l3.06-2.72l1.36-3.67
		l0.17-4.42l-0.42-2.45l-2.06-4.24l-2.35-2.28L413.26,79.57z"/>
	<path fill-rule="evenodd" fill="#FFFFFF" stroke="#161717" stroke-width="0.5143" stroke-miterlimit="10" d="M349.41,42.36
		c1.41,0.46,2.83,1.17,4.38,2.26c1.64,1.72,2.87,3.52,4.19,6.39c0.99,2.37,1.15,5.07,1.22,7.95c-0.48,2.01-1.15,3.81-2.18,5.41
		c-1.26,2.08-3.65,3.29-5.5,4.32l-4.05,1.34l-3.02,0.48l-3.29-0.54l0.71-2.22l3.57,0.06l5.18-1.49l4.38-2.62l2.06-3.54l0.15-3.9
		l-1.2-4.26l-1.15-2.18l-3.27-3.4l-2.94-1.43L349.41,42.36z"/>
	<path fill-rule="evenodd" fill="#FFFFFF" stroke="#161717" stroke-width="0.5143" stroke-miterlimit="10" d="M277.21,26.74
		c1.49,0,3.04,0.23,4.84,0.78c2.1,1.13,3.82,2.45,5.96,4.78c1.68,1.95,2.66,4.46,3.61,7.19c0.17,2.05,0.09,3.96-0.4,5.79
		c-0.54,2.39-2.45,4.28-3.9,5.83l-3.44,2.52l-2.71,1.4l-3.29,0.5l-0.02-2.31l3.42-1.07l4.45-3l3.36-3.86l0.88-4l-1.07-3.75
		l-2.47-3.69l-1.76-1.72l-4.17-2.22l-3.25-0.46L277.21,26.74z"/>
	<path fill-rule="evenodd" fill="#FFFFFF" stroke="#161717" stroke-width="0.5143" stroke-miterlimit="10" d="M203.69,34.17
		c1.41-0.46,2.96-0.71,4.85-0.75c2.35,0.42,4.4,1.17,7.15,2.72c2.2,1.32,3.92,3.42,5.66,5.72c0.8,1.89,1.3,3.75,1.41,5.64
		c0.21,2.43-1.01,4.82-1.91,6.75l-2.48,3.46l-2.16,2.16l-2.98,1.49l-0.75-2.2l2.94-2.06l3.31-4.24l2.01-4.7l-0.4-4.07l-2.18-3.23
		l-3.48-2.75L212.46,37l-4.64-0.82l-3.23,0.57L203.69,34.17z"/>
	<path fill-rule="evenodd" fill="#FFFFFF" stroke="#161717" stroke-width="0.5143" stroke-miterlimit="10" d="M136.08,64
		c1.22-0.88,2.6-1.61,4.4-2.22c2.35-0.32,4.53-0.25,7.63,0.36c2.5,0.59,4.78,2.05,7.15,3.69c1.36,1.57,2.41,3.15,3.1,4.93
		c0.96,2.26,0.52,4.9,0.27,7l-1.3,4.07l-1.4,2.73l-2.37,2.33l-1.38-1.87l2.16-2.87l1.83-5.05l0.46-5.11l-1.66-3.75l-3.06-2.41
		l-4.15-1.53l-2.45-0.34l-4.68,0.65l-2.89,1.53L136.08,64z"/>
	<path fill-rule="evenodd" fill="#FFFFFF" stroke="#161717" stroke-width="0.5143" stroke-miterlimit="10" d="M81,113.26
		c0.88-1.2,1.97-2.33,3.48-3.46c2.14-1.03,4.22-1.64,7.36-2.01c2.58-0.21,5.2,0.48,7.95,1.3c1.78,1.07,3.27,2.26,4.47,3.73
		c1.6,1.85,2.01,4.51,2.41,6.58l0.02,4.28l-0.48,3.02l-1.53,2.94l-1.89-1.34l1.17-3.4l0.19-5.37l-1.15-4.99l-2.73-3.04l-3.65-1.36
		l-4.43-0.17l-2.43,0.42l-4.24,2.06l-2.27,2.35L81,113.26z"/>
	<path fill-rule="evenodd" fill="#FFFFFF" stroke="#161717" stroke-width="0.5143" stroke-miterlimit="10" d="M43.81,177.14
		c0.46-1.41,1.17-2.83,2.26-4.36c1.72-1.64,3.52-2.89,6.38-4.19c2.37-1.01,5.06-1.17,7.95-1.22c2.01,0.46,3.8,1.15,5.39,2.16
		c2.1,1.26,3.31,3.67,4.34,5.53l1.34,4.05l0.48,3l-0.55,3.29l-2.2-0.69l0.06-3.59l-1.49-5.16l-2.62-4.4l-3.54-2.06l-3.9-0.13
		l-4.26,1.19l-2.18,1.17l-3.4,3.27l-1.43,2.94L43.81,177.14z"/>
	<path fill-rule="evenodd" fill="#FFFFFF" stroke="#161717" stroke-width="0.5143" stroke-miterlimit="10" d="M28.2,249.39
		c0-1.49,0.23-3.04,0.78-4.86c1.13-2.1,2.45-3.8,4.78-5.95c1.95-1.7,4.45-2.68,7.17-3.61c2.06-0.19,3.98-0.1,5.81,0.38
		c2.39,0.55,4.28,2.47,5.83,3.9l2.52,3.44l1.4,2.73l0.5,3.29l-2.31,0.02l-1.07-3.42l-3-4.47l-3.86-3.37l-3.99-0.86l-3.75,1.07
		l-3.69,2.45l-1.72,1.78l-2.22,4.17l-0.46,3.23L28.2,249.39z"/>
	<path fill-rule="evenodd" fill="#FFFFFF" stroke="#161717" stroke-width="0.5143" stroke-miterlimit="10" d="M35.63,322.93
		c-0.46-1.42-0.71-2.96-0.75-4.84c0.42-2.35,1.17-4.4,2.71-7.15c1.32-2.22,3.42-3.92,5.71-5.66c1.89-0.8,3.75-1.32,5.64-1.43
		c2.43-0.21,4.82,1.03,6.75,1.93l3.46,2.49l2.16,2.16l1.49,2.98l-2.2,0.73l-2.06-2.92l-4.24-3.31l-4.7-2.03l-4.07,0.42l-3.23,2.18
		l-2.75,3.46l-1.09,2.22l-0.82,4.67l0.57,3.21L35.63,322.93z"/>
	<path fill-rule="evenodd" fill="#FFFFFF" stroke="#161717" stroke-width="0.5143" stroke-miterlimit="10" d="M65.44,390.57
		c-0.88-1.21-1.6-2.6-2.22-4.38c-0.32-2.37-0.25-4.53,0.36-7.63c0.59-2.52,2.04-4.78,3.69-7.15c1.57-1.36,3.15-2.41,4.93-3.1
		c2.26-0.96,4.89-0.54,6.99-0.27l4.07,1.3l2.73,1.38l2.33,2.39l-1.87,1.38l-2.87-2.16l-5.05-1.83l-5.1-0.46l-3.75,1.64l-2.41,3.08
		l-1.53,4.15l-0.34,2.45l0.65,4.68l1.53,2.89L65.44,390.57z"/>
	<path fill-rule="evenodd" fill="#FFFFFF" stroke="#161717" stroke-width="0.5143" stroke-miterlimit="10" d="M114.67,445.7
		c-1.2-0.88-2.33-1.99-3.46-3.48c-1.03-2.16-1.64-4.25-2.01-7.38c-0.21-2.58,0.48-5.18,1.3-7.93c1.07-1.78,2.26-3.27,3.73-4.47
		c1.85-1.61,4.49-2.01,6.57-2.41l4.28-0.04l3.02,0.48l2.94,1.55l-1.34,1.87l-3.4-1.15l-5.37-0.19l-4.99,1.13l-3.04,2.73l-1.36,3.67
		l-0.17,4.42l0.42,2.43l2.06,4.26l2.35,2.28L114.67,445.7z"/>
	<path fill-rule="evenodd" fill="#FFFFFF" stroke="#161717" stroke-width="0.5143" stroke-miterlimit="10" d="M178.52,482.89
		c-1.41-0.46-2.83-1.15-4.36-2.24c-1.66-1.72-2.89-3.52-4.19-6.39c-1.01-2.39-1.17-5.08-1.22-7.95c0.46-2.03,1.15-3.8,2.16-5.41
		c1.26-2.1,3.67-3.31,5.52-4.32l4.05-1.36l3-0.48l3.29,0.55l-0.69,2.22l-3.59-0.06l-5.16,1.49l-4.4,2.62l-2.06,3.54l-0.13,3.9
		l1.19,4.26l1.17,2.18l3.27,3.4l2.94,1.43L178.52,482.89z"/>
	<path fill-rule="evenodd" fill="#FFFFFF" stroke="#161717" stroke-width="0.5143" stroke-miterlimit="10" d="M250.74,498.53
		c-1.49,0-3.04-0.23-4.85-0.78c-2.1-1.13-3.8-2.45-5.94-4.78c-1.7-1.95-2.67-4.47-3.61-7.19c-0.19-2.07-0.1-3.98,0.38-5.81
		c0.55-2.37,2.46-4.26,3.9-5.81l3.44-2.54l2.73-1.38l3.29-0.5l0.02,2.31l-3.42,1.05l-4.47,3.02l-3.36,3.84l-0.86,4l1.07,3.77
		l2.45,3.69l1.78,1.72l4.17,2.22l3.23,0.46L250.74,498.53z"/>
	<path fill-rule="evenodd" fill="#FFFFFF" stroke="#161717" stroke-width="0.5143" stroke-miterlimit="10" d="M324.24,491.07
		c-1.41,0.46-2.96,0.73-4.84,0.75c-2.35-0.42-4.39-1.15-7.15-2.7c-2.22-1.34-3.92-3.42-5.66-5.72c-0.8-1.91-1.32-3.75-1.43-5.64
		c-0.21-2.45,1.03-4.84,1.93-6.75l2.48-3.46l2.16-2.18l2.98-1.47l0.73,2.18l-2.92,2.06l-3.33,4.25l-2.01,4.7l0.42,4.07l2.16,3.25
		l3.48,2.73l2.21,1.09l4.66,0.84l3.21-0.57L324.24,491.07z"/>
	<path fill-rule="evenodd" fill="#FFFFFF" stroke="#161717" stroke-width="0.5143" stroke-miterlimit="10" d="M391.85,461.26
		c-1.2,0.88-2.6,1.61-4.38,2.2c-2.37,0.33-4.53,0.27-7.63-0.36c-2.52-0.57-4.8-2.05-7.15-3.67c-1.36-1.57-2.41-3.17-3.1-4.93
		c-0.96-2.26-0.54-4.91-0.27-7.02l1.3-4.05l1.38-2.73l2.39-2.33l1.38,1.85l-2.16,2.87l-1.83,5.07l-0.46,5.09l1.64,3.75l3.08,2.41
		l4.15,1.55l2.45,0.34l4.68-0.65l2.89-1.53L391.85,461.26z"/>
	<path fill-rule="evenodd" fill="#FFFFFF" stroke="#161717" stroke-width="0.5143" stroke-miterlimit="10" d="M446.95,411.99
		c-0.88,1.2-1.99,2.33-3.48,3.46c-2.16,1.05-4.24,1.66-7.38,2.03c-2.58,0.21-5.18-0.48-7.93-1.3c-1.78-1.07-3.27-2.28-4.47-3.75
		c-1.61-1.83-2.01-4.49-2.41-6.58l-0.04-4.26l0.48-3.02l1.55-2.96l1.87,1.36l-1.15,3.38l-0.19,5.39l1.13,4.97l2.73,3.06l3.67,1.36
		l4.42,0.17l2.43-0.42l4.26-2.06l2.28-2.35L446.95,411.99z"/>
	<path fill-rule="evenodd" fill="#FFFFFF" stroke="#161717" stroke-width="0.5143" stroke-miterlimit="10" d="M484.12,348.11
		c-0.46,1.43-1.15,2.83-2.24,4.38c-1.72,1.64-3.52,2.87-6.38,4.19c-2.39,1.01-5.08,1.15-7.95,1.22c-2.03-0.48-3.8-1.15-5.41-2.18
		c-2.1-1.26-3.31-3.65-4.32-5.51l-1.36-4.05l-0.48-3.02l0.55-3.29l2.22,0.71l-0.06,3.58l1.47,5.18l2.62,4.38l3.55,2.07l3.9,0.15
		l4.26-1.21l2.18-1.15l3.4-3.27l1.43-2.95L484.12,348.11z"/>
	<path fill-rule="evenodd" fill="#FFFFFF" stroke="#161717" stroke-width="0.5143" stroke-miterlimit="10" d="M498.7,248.99
		l2.65,0.06c8.03,0.52,11.12,7.82,11.56,12.87c0.48,5.33-3,12.71-11.1,13.44l-2.23,0.31L498.7,248.99z"/>
	<path fill-rule="evenodd" fill="#FFFFFF" stroke="#161717" stroke-width="0.5143" stroke-miterlimit="10" d="M483.01,177.08
		l2.54-0.76c7.78-1.99,12.97,4.02,14.96,8.68c2.1,4.91,1.07,13.02-6.4,16.21l-2.04,0.96L483.01,177.08z"/>
	<path fill-rule="evenodd" fill="#FFFFFF" stroke="#161717" stroke-width="0.5143" stroke-miterlimit="10" d="M445.86,113.54
		l2.2-1.51c6.78-4.28,13.57-0.19,16.91,3.61c3.52,4.03,5.03,12.06-1.11,17.42l-1.63,1.55L445.86,113.54z"/>
	<path fill-rule="evenodd" fill="#FFFFFF" stroke="#161717" stroke-width="0.5143" stroke-miterlimit="10" d="M390.92,64.61
		l1.61-2.12c5.14-6.18,12.86-4.4,17.2-1.8c4.61,2.75,8.52,9.92,4.34,16.9l-1.07,1.99L390.92,64.61z"/>
	<path fill-rule="evenodd" fill="#FFFFFF" stroke="#161717" stroke-width="0.5143" stroke-miterlimit="10" d="M323.53,35.05l0.9-2.5
		c2.96-7.48,10.85-8.16,15.8-7.04c5.22,1.2,11.16,6.81,9.32,14.74l-0.4,2.2L323.53,35.05z"/>
	<path fill-rule="evenodd" fill="#FFFFFF" stroke="#161717" stroke-width="0.5143" stroke-miterlimit="10" d="M250.34,27.77
		l0.06-2.66c0.52-8.01,7.82-11.11,12.86-11.57c5.33-0.48,12.71,3.02,13.43,11.13l0.31,2.24L250.34,27.77z"/>
	<path fill-rule="evenodd" fill="#FFFFFF" stroke="#161717" stroke-width="0.5143" stroke-miterlimit="10" d="M178.46,43.49
		l-0.76-2.54c-1.99-7.8,4.01-12.98,8.66-14.99c4.93-2.1,13.03-1.05,16.23,6.42l0.96,2.03L178.46,43.49z"/>
	<path fill-rule="evenodd" fill="#FFFFFF" stroke="#161717" stroke-width="0.5143" stroke-miterlimit="10" d="M114.96,80.66
		l-1.51-2.2c-4.28-6.79-0.19-13.59,3.61-16.92c4.03-3.52,12.06-5.05,17.41,1.09l1.55,1.64L114.96,80.66z"/>
	<path fill-rule="evenodd" fill="#FFFFFF" stroke="#161717" stroke-width="0.5143" stroke-miterlimit="10" d="M66.05,135.63
		L63.93,134c-6.17-5.12-4.4-12.85-1.8-17.21c2.75-4.59,9.92-8.51,16.89-4.34l1.99,1.07L66.05,135.63z"/>
	<path fill-rule="evenodd" fill="#FFFFFF" stroke="#161717" stroke-width="0.5143" stroke-miterlimit="10" d="M36.51,203.02
		l-2.5-0.88c-7.47-2.96-8.16-10.88-7.03-15.81c1.2-5.22,6.8-11.17,14.73-9.35l2.2,0.42L36.51,203.02z"/>
	<path fill-rule="evenodd" fill="#FFFFFF" stroke="#161717" stroke-width="0.5143" stroke-miterlimit="10" d="M29.23,276.27
		l-2.66-0.08c-8.01-0.52-11.1-7.82-11.56-12.87c-0.48-5.33,3.02-12.71,11.12-13.44l2.24-0.29L29.23,276.27z"/>
	<path fill-rule="evenodd" fill="#FFFFFF" stroke="#161717" stroke-width="0.5143" stroke-miterlimit="10" d="M44.94,348.17
		l-2.54,0.76c-7.8,1.99-13-4-14.98-8.66c-2.1-4.93-1.05-13.02,6.42-16.21l2.03-0.97L44.94,348.17z"/>
	<path fill-rule="evenodd" fill="#FFFFFF" stroke="#161717" stroke-width="0.5143" stroke-miterlimit="10" d="M82.09,411.7
		l-2.2,1.51c-6.78,4.3-13.59,0.21-16.91-3.61c-3.52-4.03-5.05-12.05,1.09-17.4l1.64-1.55L82.09,411.7z"/>
	<path fill-rule="evenodd" fill="#FFFFFF" stroke="#161717" stroke-width="0.5143" stroke-miterlimit="10" d="M137.03,460.65
		l-1.62,2.1c-5.12,6.2-12.84,4.4-17.2,1.8c-4.59-2.75-8.5-9.9-4.34-16.88l1.07-1.99L137.03,460.65z"/>
	<path fill-rule="evenodd" fill="#FFFFFF" stroke="#161717" stroke-width="0.5143" stroke-miterlimit="10" d="M204.4,490.21
		l-0.88,2.5c-2.96,7.46-10.87,8.15-15.8,7.02c-5.22-1.19-11.16-6.79-9.35-14.72l0.42-2.22L204.4,490.21z"/>
	<path fill-rule="evenodd" fill="#FFFFFF" stroke="#161717" stroke-width="0.5143" stroke-miterlimit="10" d="M277.61,497.48
		l-0.08,2.66c-0.52,8.03-7.82,11.13-12.86,11.57c-5.33,0.48-12.71-3-13.43-11.11l-0.29-2.24L277.61,497.48z"/>
	<path fill-rule="evenodd" fill="#FFFFFF" stroke="#161717" stroke-width="0.5143" stroke-miterlimit="10" d="M349.47,481.78
		l0.76,2.54c1.99,7.78-3.99,12.98-8.66,14.97c-4.93,2.1-13.02,1.07-16.21-6.41l-0.97-2.05L349.47,481.78z"/>
	<path fill-rule="evenodd" fill="#FFFFFF" stroke="#161717" stroke-width="0.5143" stroke-miterlimit="10" d="M412.97,444.61
		l1.51,2.2c4.3,6.79,0.21,13.58-3.61,16.92c-4.03,3.52-12.04,5.03-17.39-1.11l-1.55-1.62L412.97,444.61z"/>
	<path fill-rule="evenodd" fill="#FFFFFF" stroke="#161717" stroke-width="0.5143" stroke-miterlimit="10" d="M461.9,389.64
		l2.1,1.61c6.19,5.14,4.4,12.87,1.8,17.21c-2.75,4.61-9.9,8.53-16.88,4.34l-1.99-1.07L461.9,389.64z"/>
	<path fill-rule="evenodd" fill="#FFFFFF" stroke="#161717" stroke-width="0.5143" stroke-miterlimit="10" d="M491.44,322.22
		l2.5,0.9c7.45,2.96,8.14,10.86,7.01,15.81c-1.19,5.22-6.79,11.17-14.71,9.35l-2.22-0.42L491.44,322.22z"/>
	<path fill-rule="evenodd" fill="#FFFFFF" stroke="#161717" stroke-width="0.5143" stroke-miterlimit="10" d="M518.37,261.86
		c0,1.68-1.22,3.06-2.75,3.06c-1.51,0-2.75-1.38-2.75-3.06c0-1.7,1.24-3.08,2.75-3.08C517.15,258.78,518.37,260.16,518.37,261.86
		L518.37,261.86z"/>
	<path fill-rule="evenodd" fill="#FFFFFF" stroke="#161717" stroke-width="0.5143" stroke-miterlimit="10" d="M505.68,183.24
		c0.52,1.63-0.23,3.31-1.66,3.77c-1.45,0.48-3.04-0.44-3.57-2.06c-0.52-1.61,0.23-3.29,1.68-3.77
		C503.56,180.71,505.16,181.63,505.68,183.24L505.68,183.24z"/>
	<path fill-rule="evenodd" fill="#FFFFFF" stroke="#161717" stroke-width="0.5143" stroke-miterlimit="10" d="M469.33,112.4
		c0.99,1.38,0.8,3.21-0.42,4.11c-1.22,0.88-3.04,0.5-4.03-0.88c-0.99-1.36-0.8-3.19,0.42-4.09S468.34,111.02,469.33,112.4
		L469.33,112.4z"/>
	<path fill-rule="evenodd" fill="#FFFFFF" stroke="#161717" stroke-width="0.5143" stroke-miterlimit="10" d="M412.88,56.26
		c1.38,0.99,1.76,2.81,0.86,4.03c-0.88,1.22-2.71,1.42-4.09,0.42c-1.38-0.99-1.76-2.81-0.86-4.03
		C409.67,55.46,411.5,55.26,412.88,56.26L412.88,56.26z"/>
	<path fill-rule="evenodd" fill="#FFFFFF" stroke="#161717" stroke-width="0.5143" stroke-miterlimit="10" d="M341.84,20.33
		c1.63,0.52,2.54,2.12,2.08,3.56c-0.48,1.45-2.16,2.2-3.78,1.66c-1.61-0.52-2.52-2.12-2.06-3.56
		C338.55,20.54,340.24,19.8,341.84,20.33L341.84,20.33z"/>
	<path fill-rule="evenodd" fill="#FFFFFF" stroke="#161717" stroke-width="0.5143" stroke-miterlimit="10" d="M263.2,8.11
		c1.68,0,3.06,1.22,3.06,2.73c0,1.53-1.38,2.75-3.06,2.75c-1.7,0-3.08-1.22-3.08-2.75C260.12,9.34,261.5,8.11,263.2,8.11L263.2,8.11
		z"/>
	<path fill-rule="evenodd" fill="#FFFFFF" stroke="#161717" stroke-width="0.5143" stroke-miterlimit="10" d="M184.62,20.81
		c1.62-0.54,3.31,0.21,3.76,1.66c0.48,1.43-0.46,3.04-2.06,3.56c-1.61,0.54-3.29-0.21-3.76-1.66
		C182.1,22.93,183.01,21.33,184.62,20.81L184.62,20.81z"/>
	<path fill-rule="evenodd" fill="#FFFFFF" stroke="#161717" stroke-width="0.5143" stroke-miterlimit="10" d="M113.81,57.18
		c1.38-0.99,3.21-0.82,4.11,0.42c0.88,1.22,0.5,3.02-0.88,4.02c-1.36,1.01-3.19,0.82-4.09-0.42
		C112.05,59.97,112.44,58.17,113.81,57.18L113.81,57.18z"/>
	<path fill-rule="evenodd" fill="#FFFFFF" stroke="#161717" stroke-width="0.5143" stroke-miterlimit="10" d="M57.7,113.66
		c0.99-1.38,2.81-1.76,4.03-0.88c1.22,0.9,1.41,2.73,0.42,4.11c-0.99,1.36-2.81,1.76-4.03,0.86
		C56.9,116.85,56.71,115.01,57.7,113.66L57.7,113.66z"/>
	<path fill-rule="evenodd" fill="#FFFFFF" stroke="#161717" stroke-width="0.5143" stroke-miterlimit="10" d="M21.79,184.71
		c0.52-1.61,2.1-2.52,3.55-2.06c1.45,0.48,2.2,2.16,1.66,3.77c-0.52,1.61-2.12,2.54-3.55,2.06C22,188.02,21.26,186.33,21.79,184.71
		L21.79,184.71z"/>
	<path fill-rule="evenodd" fill="#FFFFFF" stroke="#161717" stroke-width="0.5143" stroke-miterlimit="10" d="M9.58,263.41
		c0-1.7,1.22-3.08,2.73-3.08c1.53,0,2.75,1.38,2.75,3.08c0,1.68-1.22,3.06-2.75,3.06C10.8,266.47,9.58,265.09,9.58,263.41
		L9.58,263.41z"/>
	<path fill-rule="evenodd" fill="#FFFFFF" stroke="#161717" stroke-width="0.5143" stroke-miterlimit="10" d="M22.27,342.01
		c-0.54-1.61,0.21-3.29,1.66-3.77c1.43-0.46,3.04,0.46,3.55,2.06c0.54,1.63-0.21,3.31-1.66,3.79
		C24.37,344.55,22.79,343.63,22.27,342.01L22.27,342.01z"/>
	<path fill-rule="evenodd" fill="#FFFFFF" stroke="#161717" stroke-width="0.5143" stroke-miterlimit="10" d="M58.62,412.85
		c-0.99-1.36-0.82-3.19,0.42-4.09c1.22-0.9,3.02-0.5,4.01,0.86c1.01,1.38,0.82,3.21-0.42,4.11
		C61.41,414.61,59.61,414.23,58.62,412.85L58.62,412.85z"/>
	<path fill-rule="evenodd" fill="#FFFFFF" stroke="#161717" stroke-width="0.5143" stroke-miterlimit="10" d="M115.07,468.99
		c-1.38-0.99-1.76-2.79-0.88-4.01c0.9-1.24,2.73-1.42,4.11-0.42c1.36,0.99,1.76,2.79,0.86,4.02
		C118.26,469.81,116.43,470,115.07,468.99L115.07,468.99z"/>
	<path fill-rule="evenodd" fill="#FFFFFF" stroke="#161717" stroke-width="0.5143" stroke-miterlimit="10" d="M186.09,504.93
		c-1.6-0.52-2.54-2.12-2.06-3.56c0.48-1.45,2.16-2.2,3.76-1.68c1.61,0.54,2.54,2.12,2.06,3.58
		C189.4,504.7,187.71,505.45,186.09,504.93L186.09,504.93z"/>
	<path fill-rule="evenodd" fill="#FFFFFF" stroke="#161717" stroke-width="0.5143" stroke-miterlimit="10" d="M264.75,517.15
		c-1.7,0-3.08-1.22-3.08-2.75c0-1.51,1.38-2.75,3.08-2.75c1.68,0,3.06,1.24,3.06,2.75C267.81,515.93,266.43,517.15,264.75,517.15
		L264.75,517.15z"/>
	<path fill-rule="evenodd" fill="#FFFFFF" stroke="#161717" stroke-width="0.5143" stroke-miterlimit="10" d="M343.31,504.45
		c-1.61,0.52-3.29-0.23-3.77-1.66c-0.46-1.45,0.46-3.04,2.06-3.58c1.63-0.52,3.31,0.23,3.77,1.68
		C345.85,502.33,344.94,503.94,343.31,504.45L343.31,504.45z"/>
	<path fill-rule="evenodd" fill="#FFFFFF" stroke="#161717" stroke-width="0.5143" stroke-miterlimit="10" d="M414.12,468.09
		c-1.36,0.99-3.19,0.8-4.09-0.42c-0.9-1.22-0.5-3.04,0.86-4.03c1.38-0.99,3.21-0.8,4.11,0.42
		C415.88,465.28,415.5,467.09,414.12,468.09L414.12,468.09z"/>
	<path fill-rule="evenodd" fill="#FFFFFF" stroke="#161717" stroke-width="0.5143" stroke-miterlimit="10" d="M470.23,411.61
		c-0.99,1.38-2.79,1.76-4.01,0.86c-1.24-0.88-1.41-2.72-0.42-4.09c0.99-1.38,2.79-1.76,4.01-0.86
		C471.05,408.39,471.24,410.23,470.23,411.61L470.23,411.61z"/>
	<path fill-rule="evenodd" fill="#FFFFFF" stroke="#161717" stroke-width="0.5143" stroke-miterlimit="10" d="M506.16,340.54
		c-0.52,1.62-2.12,2.54-3.55,2.08c-1.45-0.48-2.2-2.16-1.68-3.79c0.54-1.61,2.12-2.52,3.57-2.07
		C505.93,337.25,506.67,338.93,506.16,340.54L506.16,340.54z"/>
	<path fill="none" stroke="#161717" stroke-width="0.5143" stroke-miterlimit="10" d="M358.32,308.36
		c31.53,19.25,46.32,55.72,33.58,79.06c-18.46,11.78-62.74,11.34-83.65-28.74"/>
	<path fill="none" stroke="#161717" stroke-width="0.5143" stroke-miterlimit="10" d="M366.93,244.11
		c36.81-2.96,70.44,17.86,73.84,44.24c-8.03,20.38-44.83,45.7-85.29,25.56"/>
	<path fill="none" stroke="#161717" stroke-width="0.5143" stroke-miterlimit="10" d="M336.89,186.73
		c28.04-24.03,66.98-26.62,85.23-7.27c5.48,21.2-9.73,63.38-54.29,70.88"/>
	<path fill="none" stroke="#161717" stroke-width="0.5143" stroke-miterlimit="10" d="M278.55,157.65
		c8.56-35.95,38.37-60.23,64.52-55.31c16.89,13.94,29.77,56.56-1.87,88.83"/>
	<path fill="none" stroke="#161717" stroke-width="0.5143" stroke-miterlimit="10" d="M214.2,169.39
		c-14.2-34.11-4.43-71.55,19.59-82.94c21.86,1.32,57.45,27.53,50.82,72.24"/>
	<path fill="none" stroke="#161717" stroke-width="0.5143" stroke-miterlimit="10" d="M169.62,216.89
		c-31.51-19.25-46.32-55.7-33.56-79.04c18.46-11.78,62.74-11.34,83.63,28.74"/>
	<path fill="none" stroke="#161717" stroke-width="0.5143" stroke-miterlimit="10" d="M161,281.09
		c-36.81,2.96-70.42-17.8-73.83-44.19c8.01-20.4,44.85-45.75,85.31-25.62"/>
	<path fill="none" stroke="#161717" stroke-width="0.5143" stroke-miterlimit="10" d="M191,338.55
		c-28.04,24.05-66.93,26.6-85.18,7.25c-5.5-21.22,9.73-63.38,54.27-70.88"/>
	<path fill="none" stroke="#161717" stroke-width="0.5143" stroke-miterlimit="10" d="M249.38,367.61
		c-8.56,35.93-38.37,60.21-64.5,55.29c-16.91-13.92-29.72-56.48,1.93-88.76"/>
	<path fill="none" stroke="#161717" stroke-width="0.5143" stroke-miterlimit="10" d="M313.75,355.87
		c14.18,34.11,4.43,71.55-19.59,82.94c-21.86-1.34-57.43-27.72-50.8-72.45"/>
</g>
</svg>
