<?xml version="1.0" encoding="utf-8"?>
<svg version="1.2" baseProfile="tiny" id="Layer_1" xmlns="http://www.w3.org/2000/svg" xmlns:xlink="http://www.w3.org/1999/xlink"
	 x="0px" y="0px" width="458.43px" height="458.66px" viewBox="0 0 458.43 458.66" xml:space="preserve">
<g>
	<g id="XMLID_1_">
		<g>
			<path fill="#FFFFFE" d="M456.93,229.34c0,13.18-1.13,26.1-3.3,38.67l-2.27-0.4c-17-26.42-33.8-54.16-76.79-38.24
				c-9.36,3.46-28.77,24.35-51.21,8.77c19.27-3.48,40.62-12.09,44.17-53.3c3.63-23.25,4.66-64.59,63.89-55.18l2-0.98
				C448.47,159.06,456.93,193.24,456.93,229.34z"/>
			<path fill="#FFFFFE" d="M451.36,267.61l2.27,0.4c-8.32,48.35-31.96,91.57-65.71,124.44l-1.47-1.52
				c1.75-31.35,4.47-63.69-39.67-76.1c-9.61-2.69-37.59,2.8-46.59-23.02c17.63,8.52,39.97,14.11,67.07-17.14
				C383.85,258,408.97,225.17,451.36,267.61z"/>
			<path fill="#FFFFFE" d="M335.18,27.77c42.39,22.42,76.92,57.85,98.24,100.91l-2,0.98c-29.26-11.36-59.17-23.94-84.59,14.23
				c-5.54,8.31-8.97,36.62-36.27,37.22c13.54-14.15,25.75-33.67,4.41-69.1c-10.71-20.96-34.16-55,19.27-82.22L335.18,27.77z"/>
			<path fill="#FFFFFE" d="M335.18,27.77l-0.94,2.02c-30.35,8.01-61.92,15.43-60.07,61.25c0.4,9.98,14.26,34.9-7.48,51.44
				c2.64-19.41,1.05-42.39-37.02-58.5c-20.99-10.64-59.95-24.39-32.72-77.84l-0.33-2.3c10.65-1.54,21.54-2.34,32.61-2.34
				C267.44,1.5,303.5,11,335.18,27.77z"/>
			<path fill="#FFFFFE" d="M323.36,238.14c-7.09,1.28-13.9,1.87-19.43,3.13c0-0.03,0-0.07,0-0.1c0.61-3.85,0.93-7.81,0.93-11.83
				c0-5.07-0.5-10.03-1.46-14.83c-0.01-0.06-0.01-0.11-0.02-0.17C310.18,226.15,316.9,233.66,323.36,238.14z"/>
			<path fill="#FFFFFF" d="M303.93,241.17c0.27-8.49,1.08-16.62-0.44-25.68c-0.03-0.32-0.06-0.65-0.09-0.98
				c0.96,4.8,1.46,9.76,1.46,14.83C304.86,233.36,304.54,237.32,303.93,241.17z"/>
			<path fill="#FFFFFE" d="M303.93,241.27c5.53-1.26,12.34-1.85,19.43-3.13c22.44,15.58,41.85-5.31,51.21-8.77
				c42.99-15.92,59.79,11.82,76.79,38.24c-42.39-42.44-67.51-9.61-84.1,7.06c-27.1,31.25-49.44,25.66-67.07,17.14
				c-2.59-7.42-3.61-17.44-2.17-30.98c-0.08,0.14-0.16,0.27-0.24,0.41c2.94-6.27,5.04-13.01,6.15-20.07
				C303.93,241.2,303.93,241.24,303.93,241.27z"/>
			<path fill="#FFFFFF" d="M303.93,241.17c-1.11,7.06-3.21,13.8-6.15,20.07c-0.14,0.24-0.29,0.49-0.43,0.73
				c5.19-10.32,8.28-23.99,6.14-46.48C305.01,224.55,304.2,232.68,303.93,241.17z"/>
			<path fill="#FFFFFE" d="M303.4,214.51c-1.39-6.96-3.74-13.58-6.91-19.72c0.07,0.09,0.13,0.18,0.19,0.27
				c3.74-4.27,8.9-8.75,13.88-13.95c27.3-0.6,30.73-28.91,36.27-37.22c25.42-38.17,55.33-25.59,84.59-14.23
				c-59.23-9.41-60.26,31.93-63.89,55.18c-3.55,41.21-24.9,49.82-44.17,53.3c-6.46-4.48-13.18-11.99-19.98-23.8
				C303.39,214.4,303.39,214.45,303.4,214.51z"/>
			<path fill="#FFFFFE" d="M297.78,261.24c0.08-0.14,0.16-0.27,0.24-0.41c-1.44,13.54-0.42,23.56,2.17,30.98
				c-6.48-3.13-12.33-6.65-17.54-8.89c0.14-0.18,0.28-0.36,0.41-0.53C289.1,276.27,294.1,269.12,297.78,261.24z"/>
			<path fill="#FFFFFF" d="M297.35,261.97c0.14-0.24,0.29-0.49,0.43-0.73c-3.68,7.88-8.68,15.03-14.72,21.15
				C288.12,275.9,293.36,269.93,297.35,261.97z"/>
			<path fill="#FFFFFF" d="M296.49,194.79c-4.66-6.87-8.73-13.78-15.1-20.1c-0.02-0.03-0.05-0.06-0.08-0.09
				c-0.1-0.11-0.2-0.22-0.3-0.33C287.27,180.15,292.52,187.09,296.49,194.79z"/>
			<path fill="#FFFFFE" d="M281.39,174.69c14.7,16.74,20.21,29.5,22.1,40.8c2.14,22.49-0.95,36.16-6.14,46.48
				c-9.83,16.59-18.95,25.73-27.81,31.33c-0.03,0.03-0.06,0.05-0.1,0.07c-1.39,0.87-2.78,1.66-4.16,2.38
				c-2.49,1.07-4.88,2.04-7.18,2.9l-62.11-1.88c-5.41-2.47-9.8-5.15-13.5-8.01c-0.07-0.05-0.14-0.11-0.21-0.16
				c-1.23-0.98-2.42-1.99-3.58-3.04c-0.05-0.04-0.1-0.08-0.15-0.13c-0.43-0.41-0.86-0.81-1.28-1.23
				c-14.86-16.85-20.41-29.68-22.31-41.04c-2.13-22.38,0.92-36.03,6.06-46.34c11.45-19.38,21.96-28.62,32.19-33.92
				c20.6-8.91,34.5-10.21,45.88-8.49c18.27,4.07,29.66,9.71,37.68,16.15c0.54,0.43,1.08,0.87,1.6,1.33
				c0.26,0.22,0.51,0.45,0.77,0.67c0.75,0.67,1.48,1.35,2.17,2.04C281.34,174.63,281.37,174.66,281.39,174.69z M287.23,202.29
				c-3.19-4.76-6.89-8.49-10.8-10.86c-6.86-4.15-14.38-4.12-20.97,1.92v0.01c-3.18,2.92-6.14,7.25-8.71,13.19
				C264.97,218.68,275.41,216.48,287.23,202.29z M251.62,280.8c3.84-2.89,5.35-8.73,8.04-13.1c-9.24,0.82-11.53,1.98-16.86-2.71
				c-5.34-4.69-6.67-2.27-8.01-1.03c-0.89,0.83-3.18,3.74-6.64,3.33c-1.71-0.2-7.28-6.37-9.74-4.92
				c-6.89,4.01-12.76,6.51-22.55,8.19c3.29,4,4.87,7.69,8.94,10.5C215.38,288.37,236.76,291.98,251.62,280.8z M212.38,206.67
				c-2.56-5.93-5.53-10.26-8.71-13.18v-0.01c-6.59-6.04-14.11-6.09-20.98-1.94c-3.92,2.37-7.62,6.11-10.81,10.87
				C183.72,216.6,194.15,218.8,212.38,206.67z"/>
			<path fill="#FFFFFF" d="M281.39,174.69c6.37,6.32,10.44,13.23,15.1,20.1c3.17,6.14,5.52,12.76,6.91,19.72
				c0.03,0.33,0.06,0.66,0.09,0.98C301.6,204.19,296.09,191.43,281.39,174.69z"/>
			<path fill="#FFFFFE" d="M261.49,452.53c19.84-24.33,41.03-48.9,12.61-84.9c-0.25-0.32-0.54-0.65-0.85-0.98
				c-6.17-6.56-23.58-16.06-24.74-33.65c0-0.01,0-0.03,0-0.04c0.12-3.06,0.77-6.39,2.11-10.04c9.32,16.83,24.36,33.39,63.63,24.26
				c23.24-3.72,62.84-15.51,72.2,43.75l1.47,1.52c-33.69,32.83-77.45,55.35-126.1,62.37L261.49,452.53z"/>
			<path fill="#FFFFFE" d="M280.42,173.6c12.44,5.56,22.28,7.68,30.14,7.51c-4.98,5.2-10.14,9.68-13.88,13.95
				c-0.06-0.09-0.12-0.18-0.19-0.27c-3.97-7.7-9.22-14.64-15.48-20.52C280.82,174.05,280.62,173.82,280.42,173.6z"/>
			<path fill="#FFFFFF" d="M269.54,293.3c8.86-5.6,17.98-14.74,27.81-31.33c-3.99,7.96-9.23,13.93-14.29,20.42
				C279,286.52,274.46,290.19,269.54,293.3z"/>
			<path fill="#FFFFFF" d="M279.14,172.56c0.64,0.55,1.26,1.12,1.87,1.71c0.1,0.11,0.2,0.22,0.3,0.33
				C280.62,173.91,279.89,173.23,279.14,172.56z"/>
			<path fill="#FFFFFE" d="M280.42,173.6c0.2,0.22,0.4,0.45,0.59,0.67c-0.61-0.59-1.23-1.16-1.87-1.71
				c-0.26-0.23-0.51-0.46-0.77-0.67c-0.52-0.46-1.06-0.9-1.6-1.33c-4.12-3.36-8.6-6.28-13.37-8.71c0.08,0.03,0.17,0.06,0.25,0.09
				c0.51-5.66,2.06-12.32,3.04-19.46c21.74-16.54,7.88-41.46,7.48-51.44c-1.85-45.82,29.72-53.24,60.07-61.25
				c-53.43,27.22-29.98,61.26-19.27,82.22c21.34,35.43,9.13,54.95-4.41,69.1C302.7,181.28,292.86,179.16,280.42,173.6z"/>
			<path fill="#FFFFFF" d="M279.14,172.56c-0.26-0.22-0.51-0.45-0.77-0.67C278.63,172.1,278.88,172.33,279.14,172.56z"/>
			<path fill="#FFFFFE" d="M276.43,191.43c3.91,2.37,7.61,6.1,10.8,10.86c-11.82,14.19-22.26,16.39-40.48,4.26
				c2.57-5.94,5.53-10.27,8.71-13.19c-4.94,18.92,26.91,21.64,20.78-1.62L276.43,191.43z"/>
			<path fill="#FFFFFE" d="M276.43,191.43l-0.19,0.31c6.13,23.26-25.72,20.54-20.78,1.62v-0.01
				C262.05,187.31,269.57,187.28,276.43,191.43z M266.54,202.52c2.55-0.08,4.57-2.57,4.51-5.58c-0.08-3.02-2.2-5.38-4.75-5.32
				c-2.54,0.07-4.55,2.57-4.49,5.58C261.87,200.2,263.99,202.58,266.54,202.52z"/>
			<path fill="#FFFFFE" d="M271.05,196.94c0.06,3.01-1.96,5.5-4.51,5.58c-2.55,0.06-4.67-2.32-4.73-5.32
				c-0.06-3.01,1.95-5.51,4.49-5.58C268.85,191.56,270.97,193.92,271.05,196.94z"/>
			<path fill="#FFFFFE" d="M263.3,298.8l3.15,0.1c-8.36,9.26-13.31,17.19-15.83,24.02c-0.23-0.43-0.47-0.86-0.7-1.28
				C251.92,315,256.09,307.44,263.3,298.8z"/>
			<path fill="#FFFFFE" d="M282.65,282.92c5.21,2.24,11.06,5.76,17.54,8.89c9,25.82,36.98,20.33,46.59,23.02
				c44.14,12.41,41.42,44.75,39.67,76.1c-9.36-59.26-48.96-47.47-72.2-43.75c-39.27,9.13-54.31-7.43-63.63-24.26
				c2.52-6.83,7.47-14.76,15.83-24.02l-3.15-0.1c0.97-1.15,1.99-2.33,3.07-3.53c-0.19,0.09-0.39,0.17-0.58,0.26
				c1.25-0.69,2.46-1.41,3.65-2.16c0.04-0.02,0.07-0.04,0.1-0.07c4.92-3.11,9.46-6.78,13.52-10.91
				C282.93,282.56,282.79,282.74,282.65,282.92z"/>
			<path fill="#FFFFFF" d="M265.28,295.75c1.38-0.72,2.77-1.51,4.16-2.38c-1.19,0.75-2.4,1.47-3.65,2.16
				C265.62,295.6,265.45,295.67,265.28,295.75z"/>
			<path fill="#FFFFFF" d="M259.42,298.69c2.18-0.95,4.31-2.01,6.37-3.16c0.19-0.09,0.39-0.17,0.58-0.26
				c-1.08,1.2-2.1,2.38-3.07,3.53L259.42,298.69z"/>
			<path fill="#FFFFFE" d="M266.69,142.48c-0.98,7.14-2.53,13.8-3.04,19.46c-0.08-0.03-0.17-0.06-0.25-0.09
				c-7.8-3.98-16.37-6.64-25.42-7.69c-0.03-0.01-0.06-0.01-0.09-0.02C251.22,151.32,260.43,147.25,266.69,142.48z"/>
			<path fill="#FFFFFF" d="M265.79,295.53c-2.06,1.15-4.19,2.21-6.37,3.16l-0.65-0.02c2.17-0.84,4.33-1.79,6.51-2.92
				C265.45,295.67,265.62,295.6,265.79,295.53z"/>
			<path fill="#FFFFFF" d="M258.1,298.65c2.3-0.86,4.69-1.83,7.18-2.9c-2.18,1.13-4.34,2.08-6.51,2.92L258.1,298.65z"/>
			<path fill="#FFFFFF" d="M263.4,161.85c4.77,2.43,9.25,5.35,13.37,8.71c-8.02-6.44-19.41-12.08-37.68-16.15
				C248.08,155.76,255.5,159,263.4,161.85z"/>
			<path fill="#FFFFFE" d="M259.42,298.69l3.88,0.11c-7.21,8.64-11.38,16.2-13.38,22.84c-3.4-6.35-6.06-12.65-8.97-17.53
				c0.06-0.02,0.11-0.03,0.17-0.05C247.52,303.04,253.66,301.22,259.42,298.69z"/>
			<path fill="#FFFFFE" d="M240.95,304.11c2.91,4.88,5.57,11.18,8.97,17.53c-1.23,4.11-1.63,7.87-1.41,11.32c0,0.01,0,0.03,0,0.04
				c-0.62,18.35,18.24,26.9,24.74,33.65c0.31,0.33,0.6,0.66,0.85,0.98c28.42,36,7.23,60.57-12.61,84.9
				c27.24-53.45-11.73-67.2-32.71-77.85c-38.08-16.11-39.68-39.08-37.03-58.49c6.26-4.77,15.46-8.84,28.79-11.66
				c-0.1-0.02-0.2-0.04-0.3-0.07c2.95,0.36,5.95,0.54,8.99,0.54c4.04,0,8.02-0.32,11.89-0.94
				C241.06,304.08,241.01,304.09,240.95,304.11z"/>
			<path fill="#FFFFFF" d="M258.77,298.67l0.65,0.02c-5.76,2.53-11.9,4.35-18.3,5.37C247.05,302.34,252.89,300.94,258.77,298.67z"/>
			<path fill="#FFFFFE" d="M195.99,296.77l62.11,1.88c-16.77,6.3-28.73,7.12-38.75,5.61C209.88,302.15,202.25,299.61,195.99,296.77z
				"/>
			<path fill="#FFFFFE" d="M242.8,264.99c5.33,4.69,7.62,3.53,16.86,2.71c-19.71,14.78-47.22,9.6-63.8,2.86
				c9.79-1.68,15.66-4.18,22.55-8.19c2.46-1.45,8.03,4.72,9.74,4.92c3.46,0.41,5.75-2.5,6.64-3.33
				C236.13,262.72,237.46,260.3,242.8,264.99z"/>
			<path fill="#FAE00B" d="M249.92,321.64c0.23,0.42,0.47,0.85,0.7,1.28c-1.34,3.65-1.99,6.98-2.11,10.04
				C248.29,329.51,248.69,325.75,249.92,321.64z"/>
			<path fill="#FFFFFF" d="M248.51,333c1.16,17.59,18.57,27.09,24.74,33.65C266.75,359.9,247.89,351.35,248.51,333z"/>
			<path fill="#FFFFFE" d="M263.4,161.85c-7.9-2.85-15.32-6.09-24.31-7.44c-0.37-0.09-0.74-0.17-1.11-0.25
				C247.03,155.21,255.6,157.87,263.4,161.85z"/>
			<path fill="#FFFFFE" d="M237.89,154.14c0.03,0.01,0.06,0.01,0.09,0.02c-2.87-0.34-5.79-0.51-8.75-0.51
				c-3.99,0-7.92,0.31-11.75,0.91c-2.9-4.88-5.56-11.17-8.97-17.52c7.88-26.17-17.98-38.19-24.18-46.02
				c-28.41-35.98-7.22-60.55,12.62-84.88c-27.23,53.45,11.73,67.2,32.72,77.84c38.07,16.11,39.66,39.09,37.02,58.5
				C260.43,147.25,251.22,151.32,237.89,154.14z"/>
			<path fill="#FFFFFE" d="M228.78,374.68c20.98,10.65,59.95,24.4,32.71,77.85l0.33,2.29c-10.65,1.54-21.53,2.34-32.59,2.34
				c-38.22,0-74.29-9.5-105.97-26.27l0.93-2.01c30.36-8.01,61.93-15.44,60.08-61.26c-0.4-9.97-14.25-34.89,7.48-51.43
				C189.1,335.6,190.7,358.57,228.78,374.68z"/>
			<path fill="#FFFFFE" d="M219.35,304.26c10.02,1.51,21.98,0.69,38.75-5.61l0.67,0.02c-5.88,2.27-11.72,3.67-17.65,5.39
				c-3.87,0.62-7.85,0.94-11.89,0.94c-3.04,0-6.04-0.18-8.99-0.54C219.94,304.4,219.64,304.33,219.35,304.26z"/>
			<path fill="#FFFFFF" d="M219.35,304.26c-8.92-1.34-16.3-4.54-24.14-7.37c-0.1-0.05-0.2-0.1-0.3-0.16l1.08,0.04
				C202.25,299.61,209.88,302.15,219.35,304.26z"/>
			<path fill="#FFFFFF" d="M220.24,304.46c-8.9-1.06-17.34-3.67-25.03-7.57c7.84,2.83,15.22,6.03,24.14,7.37
				C219.64,304.33,219.94,304.4,220.24,304.46z"/>
			<path fill="#FFFFFE" d="M195.21,296.89c7.69,3.9,16.13,6.51,25.03,7.57c0.1,0.03,0.2,0.05,0.3,0.07
				c-13.33,2.82-22.53,6.89-28.79,11.66c0.97-7.14,2.52-13.8,3.03-19.46C194.92,296.78,195.07,296.83,195.21,296.89z"/>
			<path fill="#FFFFFF" d="M239.09,154.41c-11.38-1.72-25.28-0.42-45.88,8.49c8.13-4.23,16.1-5.96,24.24-8.33
				c0.01,0,0.02,0,0.03-0.01c3.83-0.6,7.76-0.91,11.75-0.91c2.96,0,5.88,0.17,8.75,0.51C238.35,154.24,238.72,154.32,239.09,154.41z
				"/>
			<path fill="#FFFFFE" d="M184.33,91.02c6.2,7.83,32.06,19.85,24.18,46.02c-9.26-17.26-24.05-34.92-64.32-25.57
				C120.95,115.21,81.36,127,72,67.74l-1.48-1.53c33.69-32.83,77.45-55.34,126.1-62.37l0.33,2.3
				C177.11,30.47,155.92,55.04,184.33,91.02z"/>
			<path fill="#FFFFFE" d="M203.67,193.49c3.18,2.92,6.15,7.25,8.71,13.18c-18.23,12.13-28.66,9.93-40.5-4.26
				c3.19-4.76,6.89-8.5,10.81-10.87l0.2,0.32C176.76,215.13,208.61,212.41,203.67,193.49z"/>
			<path fill="#FFFFFE" d="M203.67,193.49c4.94,18.92-26.91,21.64-20.78-1.63l-0.2-0.32c6.87-4.15,14.39-4.1,20.98,1.94V193.49z
				 M197.32,197.32c0.06-3.01-1.95-5.5-4.5-5.58c-2.54-0.06-4.66,2.31-4.74,5.32c-0.06,3.01,1.95,5.51,4.51,5.58
				C195.14,202.7,197.24,200.32,197.32,197.32z"/>
			<path fill="#FFFFFE" d="M192.82,191.74c2.55,0.08,4.56,2.57,4.5,5.58c-0.08,3-2.18,5.38-4.73,5.32
				c-2.56-0.07-4.57-2.57-4.51-5.58C188.16,194.05,190.28,191.68,192.82,191.74z"/>
			<path fill="#FFFFFE" d="M195.86,270.56c16.58,6.74,44.09,11.92,63.8-2.86c-2.69,4.37-4.2,10.21-8.04,13.1
				c-14.86,11.18-36.24,7.57-46.82,0.26C200.73,278.25,199.15,274.56,195.86,270.56z"/>
			<path fill="#FFFFFF" d="M194.91,296.73c0.1,0.06,0.2,0.11,0.3,0.16c-0.14-0.06-0.29-0.11-0.43-0.16H194.91z"/>
			<path fill="#FFFFFF" d="M182.49,288.76c3.7,2.86,8.09,5.54,13.5,8.01l-1.08-0.04C190.5,294.48,186.35,291.81,182.49,288.76z"/>
			<path fill="#FFFFFE" d="M192.52,163.2c7.61-4.25,16.01-7.23,24.93-8.63c-8.14,2.37-16.11,4.1-24.24,8.33
				C192.98,163,192.75,163.1,192.52,163.2z"/>
			<path fill="#FFFFFE" d="M192.06,163.4c9.13-10.12,14.19-18.82,16.45-26.36c3.41,6.35,6.07,12.64,8.97,17.52
				c-0.01,0.01-0.02,0.01-0.03,0.01c-8.92,1.4-17.32,4.38-24.93,8.63C192.37,163.26,192.21,163.33,192.06,163.4z"/>
			<path fill="#FFFFFF" d="M182.28,288.6c-1.27-1-2.46-2.01-3.58-3.04C179.86,286.61,181.05,287.62,182.28,288.6z"/>
			<path fill="#FFFFFE" d="M194.78,296.73c-0.51,5.66-2.06,12.32-3.03,19.46c-21.73,16.54-7.88,41.46-7.48,51.43
				c1.85,45.82-29.72,53.25-60.08,61.26c53.46-27.23,30-61.26,19.28-82.22c-21.35-35.43-9.12-54.96,4.43-69.11
				c7.86-0.17,17.7,1.96,30.13,7.51c-0.18-0.2-0.36-0.41-0.54-0.61c0.35,0.33,0.7,0.66,1.06,0.98c0.05,0.05,0.1,0.09,0.15,0.13
				c1.12,1.03,2.31,2.04,3.58,3.04c0.07,0.05,0.14,0.11,0.21,0.16c3.86,3.05,8.01,5.72,12.42,7.97H194.78z"/>
			<path fill="#FFFFFF" d="M178.55,285.43c-0.36-0.32-0.71-0.65-1.06-0.98c-0.08-0.09-0.15-0.17-0.22-0.25
				C177.69,284.62,178.12,285.02,178.55,285.43z"/>
			<path fill="#FFFFFF" d="M177.27,284.2c0.07,0.08,0.14,0.16,0.22,0.25c-6.29-5.9-11.57-12.87-15.55-20.6
				C166.66,270.82,170.77,277.81,177.27,284.2z"/>
			<path fill="#FFFFFF" d="M193.21,162.9c-10.23,5.3-20.74,14.54-32.19,33.92c3.98-7.99,9.22-13.97,14.29-20.47
				c0-0.02,0.01-0.03,0.03-0.04c5.05-5.15,10.84-9.57,17.18-13.11C192.75,163.1,192.98,163,193.21,162.9z"/>
			<path fill="#FFFFFE" d="M192.06,163.4c0.15-0.07,0.31-0.14,0.46-0.2c-6.34,3.54-12.13,7.96-17.18,13.11
				c0.15-0.19,0.3-0.39,0.45-0.58c-5.22-2.24-11.07-5.76-17.55-8.89c-9.01-25.8-36.99-20.32-46.59-23.01
				C67.53,131.43,70.23,99.1,72,67.74c9.36,59.26,48.95,47.47,72.19,43.73c40.27-9.35,55.06,8.31,64.32,25.57
				C206.25,144.58,201.19,153.28,192.06,163.4z"/>
			<path fill="#FFFFFE" d="M175.79,175.73c-0.15,0.19-0.3,0.39-0.45,0.58c-0.02,0.01-0.03,0.02-0.03,0.04
				c-6.02,6.11-11,13.24-14.66,21.1c-0.08,0.13-0.15,0.26-0.23,0.39c1.44-13.56,0.42-23.58-2.18-31
				C164.72,169.97,170.57,173.49,175.79,175.73z"/>
			<path fill="#FFFFFE" d="M161.94,263.85c3.98,7.73,9.26,14.7,15.55,20.6c0.18,0.2,0.36,0.41,0.54,0.61
				c-12.43-5.55-22.27-7.68-30.13-7.51c4.98-5.2,10.13-9.67,13.87-13.94C161.82,263.69,161.88,263.77,161.94,263.85z"/>
			<path fill="#FFFFFF" d="M175.31,176.35c-5.07,6.5-10.31,12.48-14.29,20.47c-0.12,0.21-0.25,0.42-0.37,0.63
				C164.31,189.59,169.29,182.46,175.31,176.35z"/>
			<path fill="#FFFFFE" d="M160.42,197.84c0.08-0.13,0.15-0.26,0.23-0.39c-2.92,6.23-5.01,12.93-6.13,19.94
				c-5.54,1.26-12.35,1.84-19.44,3.13c-22.45-15.57-41.84,5.31-51.2,8.77c-42.99,15.93-59.8-11.82-76.8-38.23
				c42.4,42.44,67.5,9.61,84.12-7.07c27.08-31.26,49.41-25.67,67.04-17.15C160.84,174.26,161.86,184.28,160.42,197.84z"/>
			<path fill="#FFFFFE" d="M161.94,263.85c-3.14-6.08-5.48-12.65-6.87-19.55c0,0,0-0.01,0-0.02c-0.04-0.38-0.08-0.75-0.11-1.12
				c1.9,11.36,7.45,24.19,22.31,41.04C170.77,277.81,166.66,270.82,161.94,263.85z"/>
			<path fill="#FFFFFE" d="M155.07,244.3c1.39,6.9,3.73,13.47,6.87,19.55c-0.06-0.08-0.12-0.16-0.17-0.24
				c-3.74,4.27-8.89,8.74-13.87,13.94c-27.32,0.6-30.75,28.92-36.28,37.23c-25.43,38.15-55.33,25.59-84.59,14.23
				c59.23,9.39,60.25-31.92,63.89-55.19c3.55-41.21,24.89-49.83,44.16-53.3C141.54,224.99,148.26,232.49,155.07,244.3z"/>
			<path fill="#FFFFFE" d="M155.07,244.28c0,0.01,0,0.02,0,0.02c-6.81-11.81-13.53-19.31-19.99-23.78
				c7.09-1.29,13.9-1.87,19.44-3.13c0,0.01,0,0.02,0,0.03c-0.62,3.88-0.94,7.86-0.94,11.92
				C153.58,234.45,154.09,239.45,155.07,244.28z"/>
			<path fill="#FFFFFE" d="M154.96,243.16c0.03,0.37,0.07,0.74,0.11,1.12c-0.98-4.83-1.49-9.83-1.49-14.94
				c0-4.06,0.32-8.04,0.94-11.92C154.26,225.93,153.44,234.08,154.96,243.16z"/>
			<path fill="#FFFFFE" d="M154.52,217.39c1.12-7.01,3.21-13.71,6.13-19.94c0.12-0.21,0.25-0.42,0.37-0.63
				c-5.14,10.31-8.19,23.96-6.06,46.34c-1.52-9.08-0.7-17.23-0.44-25.74C154.52,217.41,154.52,217.4,154.52,217.39z"/>
			<path fill="#FFFFFE" d="M143.47,346.66c10.72,20.96,34.18,54.99-19.28,82.22l-0.93,2.01C80.87,408.47,46.34,373.05,25.01,330
				l2.02-0.99c29.26,11.36,59.16,23.92,84.59-14.23c5.53-8.31,8.96-36.63,36.28-37.23C134.35,291.7,122.12,311.23,143.47,346.66z"/>
			<path fill="#FFFFFE" d="M83.88,229.29c9.36-3.46,28.75-24.34,51.2-8.77c-19.27,3.47-40.61,12.09-44.16,53.3
				c-3.64,23.27-4.66,64.58-63.89,55.19L25.01,330C9.96,299.62,1.5,265.43,1.5,229.34c0-13.18,1.13-26.11,3.3-38.68l2.28,0.4
				C24.08,217.47,40.89,245.22,83.88,229.29z"/>
			<path fill="#FFFFFE" d="M7.08,191.06l-2.28-0.4c8.32-48.35,31.96-91.58,65.72-124.45L72,67.74
				c-1.77,31.36-4.47,63.69,39.65,76.09c9.6,2.69,37.58-2.79,46.59,23.01c-17.63-8.52-39.96-14.11-67.04,17.15
				C74.58,200.67,49.48,233.5,7.08,191.06z"/>
		</g>
		<g>
			<path fill="none" stroke="#000000" stroke-width="3" stroke-miterlimit="10" d="M123.26,430.89
				c31.68,16.77,67.75,26.27,105.97,26.27c11.06,0,21.94-0.8,32.59-2.34c48.65-7.02,92.41-29.54,126.1-62.37
				c33.75-32.87,57.39-76.09,65.71-124.44c2.17-12.57,3.3-25.49,3.3-38.67c0-36.1-8.46-70.28-23.51-100.66
				c-21.32-43.06-55.85-78.49-98.24-100.91C303.5,11,267.44,1.5,229.23,1.5c-11.07,0-21.96,0.8-32.61,2.34
				c-48.65,7.03-92.41,29.54-126.1,62.37c-33.76,32.87-57.4,76.1-65.72,124.45c-2.17,12.57-3.3,25.5-3.3,38.68
				c0,36.09,8.46,70.28,23.51,100.66C46.34,373.05,80.87,408.47,123.26,430.89z"/>
			<path fill="none" stroke="#000000" stroke-width="3" stroke-miterlimit="10" d="M248.51,332.96c0.12-3.06,0.77-6.39,2.11-10.04"
				/>
			<path fill="none" stroke="#000000" stroke-width="3" stroke-linecap="round" stroke-linejoin="round" stroke-miterlimit="10" d="
				M249.92,321.64c0.23,0.42,0.47,0.85,0.7,1.28c9.32,16.83,24.36,33.39,63.63,24.26c23.24-3.72,62.84-15.51,72.2,43.75
				c1.75-31.35,4.47-63.69-39.67-76.1c-9.61-2.69-37.59,2.8-46.59-23.02"/>
			<path fill="none" stroke="#000000" stroke-width="3" stroke-linecap="round" stroke-linejoin="round" stroke-miterlimit="10" d="
				M283.06,282.39c-0.13,0.17-0.27,0.35-0.41,0.53c5.21,2.24,11.06,5.76,17.54,8.89c17.63,8.52,39.97,14.11,67.07-17.14
				c16.59-16.67,41.71-49.5,84.1-7.06c-17-26.42-33.8-54.16-76.79-38.24c-9.36,3.46-28.77,24.35-51.21,8.77"/>
			<path fill="none" stroke="#000000" stroke-width="3" stroke-linecap="round" stroke-linejoin="round" stroke-miterlimit="10" d="
				M303.93,241.17c0,0.03,0,0.07,0,0.1c5.53-1.26,12.34-1.85,19.43-3.13c19.27-3.48,40.62-12.09,44.17-53.3
				c3.63-23.25,4.66-64.59,63.89-55.18c-29.26-11.36-59.17-23.94-84.59,14.23c-5.54,8.31-8.97,36.62-36.27,37.22"/>
			<path fill="none" stroke="#000000" stroke-width="3" stroke-linecap="round" stroke-linejoin="round" stroke-miterlimit="10" d="
				M296.49,194.79c0.07,0.09,0.13,0.18,0.19,0.27c3.74-4.27,8.9-8.75,13.88-13.95c13.54-14.15,25.75-33.67,4.41-69.1
				c-10.71-20.96-34.16-55,19.27-82.22c-30.35,8.01-61.92,15.43-60.07,61.25c0.4,9.98,14.26,34.9-7.48,51.44"/>
			<path fill="none" stroke="#000000" stroke-width="3" stroke-linecap="round" stroke-linejoin="round" stroke-miterlimit="10" d="
				M263.4,161.85c0.08,0.03,0.17,0.06,0.25,0.09c0.51-5.66,2.06-12.32,3.04-19.46c2.64-19.41,1.05-42.39-37.02-58.5
				c-20.99-10.64-59.95-24.39-32.72-77.84c-19.84,24.33-41.03,48.9-12.62,84.88c6.2,7.83,32.06,19.85,24.18,46.02"/>
			<path fill="none" stroke="#000000" stroke-width="3" stroke-linecap="round" stroke-linejoin="round" stroke-miterlimit="10" d="
				M217.48,154.56c-2.9-4.88-5.56-11.17-8.97-17.52c-9.26-17.26-24.05-34.92-64.32-25.57C120.95,115.21,81.36,127,72,67.74
				c-1.77,31.36-4.47,63.69,39.65,76.09c9.6,2.69,37.58-2.79,46.59,23.01"/>
			<path fill="none" stroke="#000000" stroke-width="3" stroke-linecap="round" stroke-linejoin="round" stroke-miterlimit="10" d="
				M175.34,176.31c0.15-0.19,0.3-0.39,0.45-0.58c-5.22-2.24-11.07-5.76-17.55-8.89c-17.63-8.52-39.96-14.11-67.04,17.15
				c-16.62,16.68-41.72,49.51-84.12,7.07c17,26.41,33.81,54.16,76.8,38.23c9.36-3.46,28.75-24.34,51.2-8.77"/>
			<path fill="none" stroke="#000000" stroke-width="3" stroke-linecap="round" stroke-linejoin="round" stroke-miterlimit="10" d="
				M154.52,217.39c-5.54,1.26-12.35,1.84-19.44,3.13c-19.27,3.47-40.61,12.09-44.16,53.3c-3.64,23.27-4.66,64.58-63.89,55.19
				c29.26,11.36,59.16,23.92,84.59-14.23c5.53-8.31,8.96-36.63,36.28-37.23"/>
			<path fill="none" stroke="#000000" stroke-width="3" stroke-linecap="round" stroke-linejoin="round" stroke-miterlimit="10" d="
				M161.94,263.85c-0.06-0.08-0.12-0.16-0.17-0.24c-3.74,4.27-8.89,8.74-13.87,13.94c-13.55,14.15-25.78,33.68-4.43,69.11
				c10.72,20.96,34.18,54.99-19.28,82.22c30.36-8.01,61.93-15.44,60.08-61.26c-0.4-9.97-14.25-34.89,7.48-51.43"/>
			<path fill="none" stroke="#000000" stroke-width="3" stroke-linecap="round" stroke-linejoin="round" stroke-miterlimit="10" d="
				M182.28,288.6c-1.27-1-2.46-2.01-3.58-3.04"/>
			<path fill="none" stroke="#000000" stroke-width="3" stroke-linecap="round" stroke-linejoin="round" stroke-miterlimit="10" d="
				M195.21,296.89c-0.14-0.06-0.29-0.11-0.43-0.16c-0.51,5.66-2.06,12.32-3.03,19.46c-2.65,19.41-1.05,42.38,37.03,58.49
				c20.98,10.65,59.95,24.4,32.71,77.85c19.84-24.33,41.03-48.9,12.61-84.9c-0.25-0.32-0.54-0.65-0.85-0.98
				c-6.17-6.56-23.58-16.06-24.74-33.65c0-0.01,0-0.03,0-0.04c-0.22-3.45,0.18-7.21,1.41-11.32c2-6.64,6.17-14.2,13.38-22.84
				c0.97-1.15,1.99-2.33,3.07-3.53c-0.19,0.09-0.39,0.17-0.58,0.26"/>
			<path fill="none" stroke="#000000" stroke-width="3" stroke-miterlimit="10" d="M220.24,304.46c2.95,0.36,5.95,0.54,8.99,0.54
				c4.04,0,8.02-0.32,11.89-0.94c6.4-1.02,12.54-2.84,18.3-5.37c2.18-0.95,4.31-2.01,6.37-3.16c1.25-0.69,2.46-1.41,3.65-2.16
				c0.04-0.02,0.07-0.04,0.1-0.07c4.92-3.11,9.46-6.78,13.52-10.91c6.04-6.12,11.04-13.27,14.72-21.15
				c2.94-6.27,5.04-13.01,6.15-20.07c0.61-3.85,0.93-7.81,0.93-11.83c0-5.07-0.5-10.03-1.46-14.83c-1.39-6.96-3.74-13.58-6.91-19.72
				c-3.97-7.7-9.22-14.64-15.48-20.52c-0.61-0.59-1.23-1.16-1.87-1.71c-0.26-0.23-0.51-0.46-0.77-0.67c-0.52-0.46-1.06-0.9-1.6-1.33
				c-4.12-3.36-8.6-6.28-13.37-8.71c-7.8-3.98-16.37-6.64-25.42-7.69c-2.87-0.34-5.79-0.51-8.75-0.51c-3.99,0-7.92,0.31-11.75,0.91
				c-0.01,0.01-0.02,0.01-0.03,0.01c-8.92,1.4-17.32,4.38-24.93,8.63c-6.34,3.54-12.13,7.96-17.18,13.11
				c-0.02,0.01-0.03,0.02-0.03,0.04c-6.02,6.11-11,13.24-14.66,21.1c-2.92,6.23-5.01,12.93-6.13,19.94c0,0.01,0,0.02,0,0.03
				c-0.62,3.88-0.94,7.86-0.94,11.92c0,5.11,0.51,10.11,1.49,14.94c0,0.01,0,0.02,0,0.02c1.39,6.9,3.73,13.47,6.87,19.55
				c3.98,7.73,9.26,14.7,15.55,20.6c0.35,0.33,0.7,0.66,1.06,0.98c0.05,0.05,0.1,0.09,0.15,0.13c1.16,1.05,2.35,2.06,3.58,3.04
				c0.07,0.05,0.14,0.11,0.21,0.16c3.86,3.05,8.01,5.72,12.42,7.97c0.1,0.06,0.2,0.11,0.3,0.16
				C202.9,300.79,211.34,303.4,220.24,304.46z"/>
			<path fill="none" stroke="#000000" stroke-width="3" stroke-linecap="round" stroke-linejoin="round" stroke-miterlimit="10" d="
				M292.76,193.22c-8.22-4.17-16.43-8.35-24.94-8.06c-5.67,0.18-11.47,2.34-16.46,5.9c-4.04,2.88-7.55,6.69-9.64,11.38
				c-1.47,3.31-2.26,7.05-2.58,10.66c-0.54,6.12,0.23,11.9,3.21,18.3c1.57,3.35,3.74,6.87,2.84,9.22c-0.86,2.23-4.48,3.42-7.47,4.03
				c-1.85,0.39-3.47,0.54-5.01,1.45c-1.21,0.7-2.36,1.87-3.59,2.15c-1.72,0.4-3.6-0.91-5.41-1.88c-1.98-1.06-3.9-1.72-5.78-2.58
				c-1.71-0.8-3.38-1.74-4.89-3.32c-0.87-0.92-1.7-2.06-1.8-3.17c-0.13-1.54,1.16-3,2.45-4.46"/>
			<path fill="none" stroke="#000000" stroke-width="3" stroke-linecap="round" stroke-linejoin="round" stroke-miterlimit="10" d="
				M195.86,270.56c9.79-1.68,15.66-4.18,22.55-8.19c2.46-1.45,8.03,4.72,9.74,4.92c3.46,0.41,5.75-2.5,6.64-3.33
				c1.34-1.24,2.67-3.66,8.01,1.03c5.33,4.69,7.62,3.53,16.86,2.71C239.95,282.48,212.44,277.3,195.86,270.56z"/>
			<path fill="none" stroke="#000000" stroke-width="3" stroke-linecap="round" stroke-linejoin="round" stroke-miterlimit="10" d="
				M195.86,270.56c3.29,4,4.87,7.69,8.94,10.5c10.58,7.31,31.96,10.92,46.82-0.26c3.84-2.89,5.35-8.73,8.04-13.1"/>
			<path fill="none" stroke="#000000" stroke-width="3" stroke-miterlimit="10" d="M168.55,194.28
				c33.61-22.31,41.71-3.48,51.99,14.41"/>
			<path fill="none" stroke="#000000" stroke-width="3" stroke-miterlimit="10" d="M203.67,193.49c3.18,2.92,6.15,7.25,8.71,13.18
				c-18.23,12.13-28.66,9.93-40.5-4.26c3.19-4.76,6.89-8.5,10.81-10.87c6.87-4.15,14.39-4.1,20.98,1.94"/>
			<path fill="none" stroke="#000000" stroke-width="3" stroke-miterlimit="10" d="M255.46,193.36c-3.18,2.92-6.14,7.25-8.71,13.19
				c18.22,12.13,28.66,9.93,40.48-4.26c-3.19-4.76-6.89-8.49-10.8-10.86C269.57,187.28,262.05,187.31,255.46,193.36"/>
			<path fill="none" stroke="#000000" stroke-width="3" stroke-miterlimit="10" d="M182.89,191.86
				c-6.13,23.27,25.72,20.55,20.78,1.63v-0.01"/>
			<path fill="none" stroke="#000000" stroke-width="3" stroke-miterlimit="10" d="M276.24,191.74
				c6.13,23.26-25.72,20.54-20.78,1.62v-0.01"/>
			<path fill="none" stroke="#000000" stroke-width="3" stroke-miterlimit="10" d="M192.82,191.74c2.55,0.08,4.56,2.57,4.5,5.58
				c-0.08,3-2.18,5.38-4.73,5.32c-2.56-0.07-4.57-2.57-4.51-5.58C188.16,194.05,190.28,191.68,192.82,191.74z"/>
			<path fill="none" stroke="#000000" stroke-width="3" stroke-miterlimit="10" d="M266.3,191.62c-2.54,0.07-4.55,2.57-4.49,5.58
				c0.06,3,2.18,5.38,4.73,5.32c2.55-0.08,4.57-2.57,4.51-5.58C270.97,193.92,268.85,191.56,266.3,191.62z"/>
		</g>
	</g>
</g>
</svg>
