<?xml version="1.0" encoding="utf-8"?>

<svg version="1.2" baseProfile="tiny" id="Layer_1" xmlns="http://www.w3.org/2000/svg" xmlns:xlink="http://www.w3.org/1999/xlink"
	 x="0px" y="0px" width="448.56px" height="387.02px" viewBox="0 0 448.56 387.02" xml:space="preserve">
<g>
	<polygon fill-rule="evenodd" fill="#FFFFFE" stroke="#000000" stroke-width="2" stroke-miterlimit="10" points="222.92,191.24 
		171.76,61.81 162.15,62.72 153.78,61.81 150.67,60.28 132.93,26.13 133.47,22.58 136.72,19.98 138.13,20.81 138.6,25.75 
		142.3,26.68 146.33,26.06 146.96,24.82 149.75,22.68 151.91,19.28 151.6,11.57 147.27,8.79 111.93,2.02 96.41,34.67 96.11,39.01 
		97.96,43.32 102.62,45.46 104.48,46.69 109.75,46.69 116.87,41.48 116.57,40.54 116.57,37.47 112.23,35.61 112.23,34.37 
		116.87,32.83 120.6,35 140.75,67.36 139.21,73.83 137.36,78.75 131.45,84.62 	"/>
	<polygon fill-rule="evenodd" fill="#FFFFFE" stroke="#000000" stroke-width="2" stroke-miterlimit="10" points="132.25,53.68 
		107.71,68.24 107.24,68.38 96.39,69.01 93.27,66.54 93.13,64.24 93.91,61.77 102.11,57.76 110.8,55.15 104.9,53.29 96.69,53.29 
		89.1,54.99 83.52,58.53 78.86,63.93 76.7,69.15 77.48,73.79 79.96,75.95 84.3,77.63 92.66,75.32 92.97,76.86 82.12,83.8 
		76.24,83.8 71.27,84.88 69.09,88.42 62.6,99.67 79.49,99.36 81.81,98.43 82.42,98.13 86.78,91.05 97.63,85.34 98.71,84.88 
		99.02,86.27 97.94,88.28 92.66,95.19 92.5,98.6 94.68,100.9 100.87,103.07 110.17,102.3 116.99,97.83 122.9,90.42 125.99,81.17 
		121.02,83.17 116.22,87.51 112.05,91.05 108.48,91.35 107.08,87.81 107.08,87.18 107.55,82.57 111.74,78.1 137.54,62.21 	"/>
	<polygon fill-rule="evenodd" fill="#FFFFFE" stroke="#000000" stroke-width="2" stroke-miterlimit="10" points="148.25,55.62 
		173.54,41.03 174.01,40.89 184.86,40.27 187.98,42.73 188.12,45.04 187.34,47.51 179.14,51.52 170.45,54.15 176.33,55.99 
		184.55,55.99 192.15,54.29 197.72,50.75 202.39,45.37 204.54,40.13 203.77,35.49 201.29,33.35 196.95,31.65 188.59,33.95 
		188.28,32.42 199.13,25.47 205.01,25.47 209.98,24.4 212.14,20.86 218.65,9.61 201.76,9.91 199.44,10.84 198.83,11.15 
		194.47,18.23 183.62,23.94 182.54,24.4 182.23,23 183.31,21 188.59,14.08 188.75,10.68 186.57,8.37 180.36,6.21 171.08,7 
		164.26,11.45 158.35,18.86 155.26,28.11 160.23,26.1 165.03,21.79 169.2,18.23 172.77,17.93 174.17,21.47 174.17,22.1 173.7,26.71 
		169.51,31.18 143.68,47.07 	"/>
	<polygon fill-rule="evenodd" fill="#FFFFFE" stroke="#000000" stroke-width="2" stroke-miterlimit="10" points="221.6,193.55 
		83.27,172.86 79.26,181.6 74.27,188.33 71.39,190.24 32.76,188.44 29.95,186.21 29.3,182.11 30.75,181.32 35.27,183.39 
		37.94,180.64 39.42,176.87 38.65,175.73 38.15,172.23 36.3,168.67 29.44,165.1 24.84,167.43 1.27,194.48 21.96,224.16 
		25.57,226.58 30.26,227.14 34.47,224.2 36.47,223.22 39.12,218.68 38.11,209.92 37.15,209.74 34.47,208.2 30.68,210.99 
		29.6,210.39 30.58,205.61 34.33,203.49 72.6,202.33 77.45,206.89 80.83,210.97 82.99,218.96 	"/>
	<polygon fill-rule="evenodd" fill="#FFFFFE" stroke="#000000" stroke-width="2" stroke-miterlimit="10" points="56.43,202.82 
		56.83,231.21 56.74,231.7 51.86,241.35 48.16,242.79 46.08,241.77 44.29,239.86 44.93,230.79 46.99,222.01 42.42,226.16 
		38.32,233.22 36,240.6 36.3,247.19 38.67,253.88 42.14,258.38 46.57,260.01 49.68,258.96 53.32,256.07 55.5,247.71 57,248.22 
		57.61,261.03 54.68,266.09 53.13,270.91 55.12,274.54 61.68,285.77 69.86,271.07 70.21,268.6 70.26,267.93 66.25,260.64 
		66.7,248.45 66.84,247.29 68.2,247.71 69.42,249.64 72.81,257.65 75.7,259.47 78.79,258.77 83.78,254.51 87.74,246.12 
		87.27,238.02 83.76,229.23 77.27,221.94 76.52,227.23 77.88,233.52 78.88,238.88 77.36,242.12 73.59,241.53 73.05,241.23 
		69.25,238.53 67.45,232.68 66.51,202.51 	"/>
	<polygon fill-rule="evenodd" fill="#FFFFFE" stroke="#000000" stroke-width="2" stroke-miterlimit="10" points="66.11,190 
		66.07,160.93 66.16,160.47 71.06,150.82 74.76,149.38 76.85,150.4 78.6,152.29 77.99,161.38 75.93,170.16 80.48,166.01 
		84.6,158.93 86.92,151.54 86.62,144.98 84.25,138.27 80.76,133.79 76.35,132.14 73.24,133.19 69.58,136.08 67.42,144.44 
		65.92,143.95 65.29,131.14 68.25,126.06 69.79,121.26 67.78,117.63 61.24,106.4 53.06,121.1 52.71,123.54 52.66,124.24 
		56.67,131.51 56.2,143.72 56.06,144.88 54.7,144.44 53.5,142.51 50.11,134.52 47.22,132.68 44.13,133.4 39.14,137.66 35.15,146.05 
		35.65,154.15 39.14,162.91 45.65,170.2 46.38,164.94 45.02,158.65 44.04,153.27 45.54,150.05 49.33,150.61 49.87,150.94 
		53.67,153.64 55.47,159.47 56.39,189.66 	"/>
	<polygon fill-rule="evenodd" fill="#FFFFFE" stroke="#000000" stroke-width="2" stroke-miterlimit="10" points="222.96,195.81 
		135.79,304.57 141.39,312.37 144.76,320.04 144.97,323.48 124.11,355.82 120.76,357.15 116.85,355.63 116.9,354.03 120.95,351.16 
		119.9,347.48 117.34,344.33 115.96,344.4 112.68,343.08 108.65,342.91 102.09,347.04 101.85,352.16 113.62,385.96 149.82,382.98 
		153.74,381.09 156.55,377.32 156.1,372.24 156.27,370.03 153.62,365.49 145.49,361.97 144.85,362.71 142.16,364.25 142.72,368.91 
		141.64,369.52 137.97,366.28 137.99,362.01 156.1,328.47 162.52,326.58 167.75,325.72 175.79,327.86 	"/>
	<polygon fill-rule="evenodd" fill="#FFFFFE" stroke="#000000" stroke-width="2" stroke-miterlimit="10" points="148.46,342.63 
		173.42,356.49 173.77,356.82 179.75,365.86 179.14,369.75 177.2,371.03 174.66,371.61 167.07,366.53 160.44,360.38 161.77,366.37 
		165.9,373.45 171.17,379.14 177.05,382.17 184.06,383.47 189.71,382.72 193.37,379.74 194,376.53 193.3,371.94 187.11,365.91 
		188.3,364.86 199.76,370.73 202.69,375.81 206.11,379.53 210.29,379.63 223.36,379.6 214.65,365.23 212.68,363.67 212.09,363.3 
		203.75,363.11 193.34,356.61 192.4,355.91 193.46,354.96 195.76,354.89 204.43,355.96 207.45,354.4 208.39,351.37 207.17,344.96 
		201.85,337.32 194.54,333.69 185.14,332.31 175.53,334.27 179.77,337.56 185.94,339.54 191.12,341.35 193.15,344.26 190.77,347.25 
		190.23,347.55 185.98,349.46 179.98,348.08 153.22,333.8 	"/>
	<polygon fill-rule="evenodd" fill="#FFFFFE" stroke="#000000" stroke-width="2" stroke-miterlimit="10" points="142.14,327.89 
		116.8,313.4 116.43,313.07 110.45,304.06 111.06,300.14 113.01,298.86 115.54,298.3 123.13,303.36 129.76,309.53 128.43,303.52 
		124.3,296.46 119.03,290.78 113.17,287.73 106.14,286.42 100.49,287.19 96.84,290.15 96.2,293.36 96.91,297.95 103.09,304.01 
		101.92,305.04 90.44,299.17 87.51,294.11 84.09,290.36 79.92,290.27 66.86,290.29 75.56,304.69 77.52,306.22 78.11,306.6 
		86.45,306.81 96.86,313.28 97.8,313.98 96.74,314.96 94.47,315.01 85.77,313.93 82.75,315.52 81.81,318.52 83.03,324.95 
		88.35,332.57 95.66,336.2 105.06,337.58 114.67,335.62 110.43,332.36 104.27,330.38 99.09,328.54 97.05,325.63 99.44,322.65 
		99.98,322.34 104.24,320.43 110.22,321.81 136.98,336.09 	"/>
	<polygon fill-rule="evenodd" fill="#FFFFFE" stroke="#000000" stroke-width="2" stroke-miterlimit="10" points="225.61,195.78 
		276.77,325.21 286.38,324.3 294.77,325.21 297.86,326.75 315.6,360.9 315.09,364.44 311.81,367.05 310.43,366.21 309.96,361.27 
		306.23,360.34 302.2,360.97 301.59,362.2 298.8,364.34 296.62,367.75 296.93,375.46 301.26,378.23 336.63,385.01 352.12,352.32 
		352.42,348.01 350.57,343.71 345.91,341.54 344.05,340.33 338.78,340.33 331.66,345.54 331.96,346.48 331.96,349.55 336.3,351.42 
		336.3,352.65 331.66,354.19 327.93,352.02 307.78,319.66 309.32,313.19 311.2,308.27 317.08,302.4 	"/>
	<polygon fill-rule="evenodd" fill="#FFFFFE" stroke="#000000" stroke-width="2" stroke-miterlimit="10" points="316.28,333.34 
		340.84,318.78 341.31,318.64 352.16,318.01 355.26,320.48 355.42,322.79 354.65,325.26 346.42,329.26 337.75,331.87 343.63,333.74 
		351.84,333.74 359.45,332.03 365.03,328.49 369.67,323.09 371.85,317.85 371.08,313.24 368.59,311.07 364.26,309.39 355.87,311.7 
		355.56,310.16 366.41,303.22 372.32,303.22 377.26,302.15 379.44,298.61 385.96,287.35 369.06,287.66 366.72,288.59 366.11,288.89 
		361.77,295.97 350.92,301.68 349.82,302.15 349.52,300.75 350.62,298.75 355.87,291.83 356.03,288.43 353.85,286.12 347.66,283.95 
		338.36,284.72 331.54,289.19 325.66,296.6 322.54,305.85 327.51,303.85 332.31,299.51 336.51,295.97 340.07,295.67 341.45,299.21 
		341.45,299.84 340.98,304.45 336.81,308.93 310.99,324.81 	"/>
	<polygon fill-rule="evenodd" fill="#FFFFFE" stroke="#000000" stroke-width="2" stroke-miterlimit="10" points="300.28,331.41 
		274.99,345.99 274.52,346.13 263.67,346.76 260.58,344.29 260.41,341.98 261.19,339.51 269.41,335.5 278.08,332.87 272.2,331.03 
		263.98,331.03 256.38,332.73 250.81,336.27 246.17,341.66 243.99,346.9 244.76,351.53 247.24,353.68 251.58,355.38 259.95,353.07 
		260.27,354.61 249.42,361.55 243.52,361.55 238.57,362.62 236.39,366.16 229.88,377.41 246.77,377.11 249.1,376.18 249.73,375.88 
		254.06,368.79 264.91,363.09 265.99,362.62 266.32,364.02 265.22,366 259.95,372.94 259.81,376.34 261.96,378.65 268.17,380.81 
		277.48,380.02 284.29,375.57 290.18,368.17 293.27,358.92 288.33,360.92 283.52,365.23 279.33,368.79 275.76,369.1 274.36,365.56 
		274.36,364.93 274.83,360.31 279.02,355.84 304.85,339.95 	"/>
	<polygon fill-rule="evenodd" fill="#FFFFFE" stroke="#000000" stroke-width="2" stroke-miterlimit="10" points="226.93,193.48 
		365.26,214.16 369.27,205.43 374.26,198.67 377.15,196.78 415.77,198.58 418.6,200.81 419.23,204.91 417.81,205.71 413.28,203.63 
		410.61,206.38 409.14,210.15 409.88,211.3 410.38,214.79 412.25,218.35 419.12,221.92 423.69,219.59 447.29,192.54 426.57,162.87 
		422.96,160.44 418.27,159.88 414.08,162.82 412.06,163.8 409.44,168.34 410.42,177.1 411.38,177.29 414.08,178.82 417.85,176 
		418.93,176.63 417.95,181.41 414.2,183.53 375.95,184.69 371.08,180.13 367.7,176.05 365.55,168.06 	"/>
	<polygon fill-rule="evenodd" fill="#FFFFFE" stroke="#000000" stroke-width="2" stroke-miterlimit="10" points="392.1,184.2 
		391.7,155.81 391.79,155.32 396.69,145.67 400.39,144.23 402.48,145.26 404.24,147.17 403.63,156.23 401.56,165.01 406.11,160.86 
		410.21,153.8 412.53,146.42 412.25,139.83 409.86,133.14 406.39,128.65 401.99,126.99 398.87,128.06 395.21,130.95 393.03,139.32 
		391.53,138.8 390.93,125.99 393.88,120.94 395.4,116.11 393.41,112.48 386.87,101.25 378.69,115.95 378.32,118.42 378.29,119.1 
		382.3,126.39 381.83,138.57 381.69,139.73 380.33,139.32 379.14,137.38 375.72,129.37 372.86,127.55 369.74,128.25 364.77,132.51 
		360.79,140.9 361.28,149.01 364.77,157.79 371.26,165.08 372.01,159.79 370.65,153.5 369.67,148.12 371.17,144.91 374.97,145.49 
		375.51,145.79 379.28,148.49 381.08,154.34 382.02,184.51 	"/>
	<polygon fill-rule="evenodd" fill="#FFFFFE" stroke="#000000" stroke-width="2" stroke-miterlimit="10" points="382.42,197.02 
		382.47,226.09 382.37,226.56 377.47,236.2 373.77,237.64 371.69,236.62 369.93,234.73 370.54,225.65 372.6,216.86 368.05,221.01 
		363.95,228.09 361.63,235.48 361.91,242.05 364.3,248.76 367.77,253.23 372.18,254.88 375.29,253.81 378.95,250.92 381.13,242.56 
		382.63,243.07 383.24,255.88 380.29,260.96 378.76,265.76 380.76,269.39 387.29,280.62 395.47,265.92 395.85,263.48 395.87,262.78 
		391.86,255.51 392.33,243.3 392.47,242.14 393.83,242.56 395.03,244.52 398.45,252.51 401.31,254.35 404.42,253.62 409.39,249.36 
		413.38,240.97 412.88,232.87 409.39,224.11 402.9,216.82 402.15,222.08 403.51,228.37 404.49,233.75 402.99,236.97 399.2,236.41 
		398.66,236.08 394.86,233.38 393.08,227.53 392.14,197.37 	"/>
	<polygon fill-rule="evenodd" fill="#FFFFFE" stroke="#000000" stroke-width="2" stroke-miterlimit="10" points="225.57,191.22 
		312.77,82.45 307.14,74.65 303.77,66.98 303.56,63.54 324.44,31.2 327.79,29.88 331.7,31.39 331.66,33 327.58,35.86 328.63,39.54 
		331.19,42.69 332.57,42.62 335.85,43.95 339.88,44.11 346.44,39.99 346.7,34.86 334.94,1.06 298.73,4.04 294.82,5.93 291.98,9.7 
		292.43,14.78 292.29,16.99 294.91,21.54 303.04,25.05 303.7,24.31 306.37,22.77 305.83,18.11 306.89,17.51 310.57,20.72 
		310.54,25.01 292.43,58.53 286.01,60.44 280.78,61.3 272.74,59.16 	"/>
	<polygon fill-rule="evenodd" fill="#FFFFFE" stroke="#000000" stroke-width="2" stroke-miterlimit="10" points="300.09,44.39 
		275.13,30.53 274.76,30.2 268.8,21.16 269.39,17.27 271.34,15.97 273.87,15.41 281.46,20.49 288.09,26.64 286.76,20.65 
		282.65,13.57 277.38,7.89 271.5,4.86 264.47,3.55 258.82,4.3 255.19,7.28 254.53,10.49 255.23,15.08 261.42,21.12 260.25,22.17 
		248.79,16.29 245.84,11.22 242.42,7.49 238.24,7.4 225.19,7.42 233.91,21.79 235.88,23.33 236.44,23.73 244.78,23.91 255.19,30.41 
		256.13,31.11 255.07,32.07 252.8,32.14 244.13,31.06 241.08,32.62 240.17,35.65 241.39,42.06 246.7,49.68 253.99,53.33 
		263.39,54.71 273,52.75 268.78,49.47 262.62,47.49 257.44,45.67 255.38,42.76 257.77,39.78 258.31,39.47 262.57,37.56 
		268.55,38.94 295.31,53.22 	"/>
	<polygon fill-rule="evenodd" fill="#FFFFFE" stroke="#000000" stroke-width="2" stroke-miterlimit="10" points="306.42,59.13 
		331.75,73.62 332.1,73.93 338.08,82.96 337.47,86.88 335.55,88.16 333.02,88.72 325.4,83.66 318.79,77.49 320.13,83.48 
		324.23,90.56 329.5,96.24 335.38,99.29 342.41,100.6 348.06,99.83 351.69,96.87 352.33,93.66 351.65,89.07 345.44,83.01 
		346.63,81.99 358.09,87.86 361.05,92.91 364.47,96.66 368.64,96.76 381.69,96.73 372.97,82.34 371.01,80.8 370.42,80.43 
		362.08,80.22 351.69,73.74 350.73,73.04 351.79,72.06 354.09,72.02 362.76,73.06 365.78,71.5 366.72,68.5 365.5,62.07 
		360.18,54.45 352.87,50.82 343.49,49.44 333.88,51.4 338.1,54.66 344.27,56.64 349.44,58.48 351.51,61.39 349.12,64.35 
		348.58,64.68 344.31,66.59 338.31,65.21 311.57,50.93 	"/>
</g>
</svg>
