<?xml version="1.0" encoding="utf-8"?>
<!-- Generator: Adobe Illustrator 13.0.0, SVG Export Plug-In . SVG Version: 6.00 Build 14948)  -->
<svg version="1.2" baseProfile="tiny" id="Layer_1" xmlns="http://www.w3.org/2000/svg" xmlns:xlink="http://www.w3.org/1999/xlink"
	 x="0px" y="0px" width="508.36px" height="508.6px" viewBox="0 0 508.36 508.6" xml:space="preserve">
<g>
	<g id="XMLID_1_">
		<g>
			<path fill="#FFFFFE" stroke="#000000" stroke-width="5" stroke-linecap="round" stroke-linejoin="round" stroke-miterlimit="10"  d="M463.32,132.92c-3.92-6.74-8.16-13.27-12.7-19.58l0.05-0.51l8.17-5.61
				c29.87,41.45,47.5,92.27,47.5,147.08c0,0.46,0,0.91-0.01,1.37l-10.1-0.27l-0.18-0.17c0.01-0.31,0.01-0.62,0.01-0.93
				c0-6.85-0.29-13.64-0.85-20.35C492.15,197.39,480.9,163.1,463.32,132.92z"/>
			<path fill="#FFFFFE" stroke="#000000" stroke-width="5" stroke-linecap="round" stroke-linejoin="round" stroke-miterlimit="10"  d="M494.82,278.93c0.77-7.68,1.19-15.46,1.23-23.33l0.18-0.2l10.1,0.27
				c-0.29,55.26-18.51,106.41-49.11,147.92l-7.89-6.03l-0.08-0.42c4.2-5.71,8.14-11.61,11.83-17.69
				C479.24,349.54,491.1,315.41,494.82,278.93z"/>
			<path fill="#FFFFFE" stroke="#000000" stroke-width="5" stroke-linecap="round" stroke-linejoin="round" stroke-miterlimit="10"  d="M496.23,255.4l-0.18,0.2c0.01-0.12,0.01-0.25,0-0.37L496.23,255.4z"/>
			<path fill="#FFFFFE" stroke="#000000" stroke-width="3" stroke-linecap="round" stroke-linejoin="round" stroke-miterlimit="10"  d="M496.06,254.3c0,0.31,0,0.62-0.01,0.93l-54.31-52.1l8.88-89.79c4.54,6.31,8.78,12.84,12.7,19.58
				l-7.47,64.91l39.36,36.12C495.77,240.66,496.06,247.45,496.06,254.3z"/>
			<path fill="#FFFFFE" stroke="#000000" stroke-width="3" stroke-linecap="round" stroke-linejoin="round" stroke-miterlimit="10"  d="M162.26,96.93l-4.74,9.82l-11.74,2.57l-68.64,15.02l10.21,56.67l1.94,10.78l-7.98,8.98L34.6,253.28
				l41.56,39.82l7.87,7.55v0.04l-1.18,11.92l-6.9,69.97l57.02,7.79l10.81,1.48l6.06,10.36l35.49,60.67l50.74-27.22l9.63-5.17
				l11,4.82l64.32,28.18l25.01-51.84l4.76-9.85l0.04-0.01l0.01,0.01v-0.01l11.69-2.58l68.61-15.16l-10.19-56.51l-1.93-10.73
				l7.99-8.99l46.54-52.34l-41.45-40l-7.84-7.57l0.02-0.01h-0.03l1.18-11.95l6.93-69.94l-56.97-7.81l-10.85-1.49l-6.07-10.37
				l-35.49-60.63l-50.69,27.21l-9.66,5.19l-0.01-0.04l-0.01,0.03l-10.98-4.81l-64.34-28.23L162.26,96.93z M496.05,255.23
				c0.01,0.12,0.01,0.25,0,0.37l-60.1,67.61l13.3,73.93c-0.12,0.18-0.25,0.35-0.38,0.52l-88.12,19.28l-32.76,67.86
				c-0.08,0.03-0.17,0.06-0.26,0.08l-82.89-36.32l-66.45,35.64c-0.06-0.01-0.12-0.03-0.18-0.06l-45.73-78.18l-74.5-10.2
				c-0.1-0.12-0.19-0.24-0.27-0.37l8.91-89.97l-54.44-52.19c-0.01-0.06-0.01-0.12,0-0.18l60.19-67.71l-13.32-73.98
				c0.09-0.13,0.19-0.27,0.29-0.4l88.27-19.35l32.76-67.87c0.08-0.03,0.16-0.06,0.24-0.08l82.91,36.37l66.32-35.64
				c0.11,0.03,0.21,0.06,0.31,0.1l45.73,78.14l74.33,10.14c0.14,0.19,0.28,0.38,0.41,0.57l-8.88,89.79L496.05,255.23z"/>
			<path fill="#FFFFFE" stroke="#000000" stroke-width="3" stroke-linecap="round" stroke-linejoin="round" stroke-miterlimit="10"  d="M435.95,323.21l60.1-67.61c-0.04,7.87-0.46,15.65-1.23,23.33l-44.31,48.28l10.57,52.24
				c-3.69,6.08-7.63,11.98-11.83,17.69L435.95,323.21z"/>
			<path fill="#FFFFFE" stroke="#000000" stroke-width="3" stroke-linecap="round" stroke-linejoin="round" stroke-miterlimit="10"  d="M495.21,233.95l-39.36-36.12l7.47-64.91C480.9,163.1,492.15,197.39,495.21,233.95z"/>
			<path fill="#FFFFFE" stroke="#000000" stroke-width="3" stroke-linecap="round" stroke-linejoin="round" stroke-miterlimit="10"  d="M450.51,327.21l44.31-48.28c-3.72,36.48-15.58,70.61-33.74,100.52L450.51,327.21z"/>
			<path fill="#FFFFFE" stroke="#000000" stroke-width="3" stroke-linecap="round" stroke-linejoin="round" stroke-miterlimit="10"  d="M473.55,255.48l-46.54,52.34l-39.5-31.61c1.17-7.14,1.78-14.45,1.78-21.91c0-5.37-0.32-10.67-0.93-15.89
				l43.74-22.93L473.55,255.48z"/>
			<path fill="#FFFFFE" stroke="#000000" stroke-width="5" stroke-linecap="round" stroke-linejoin="round" stroke-miterlimit="10"  d="M436.97,96.05c-23.21-26.8-52.19-48.49-84.97-63.08c-7.11-3.17-14.4-6-21.85-8.48l-0.12-0.2l3.34-9.5
				c50.91,16.93,94.7,49.7,125.47,92.43l-8.17,5.61l-0.46-0.06C446.04,107,441.62,101.42,436.97,96.05z"/>
			<path fill="#FFFFFE" stroke="#000000" stroke-width="5" stroke-linecap="round" stroke-linejoin="round" stroke-miterlimit="10"  d="M434.09,415.8c5.21-5.8,10.14-11.85,14.78-18.14l0.46-0.1l7.89,6.03
				c-31.22,42.36-75.33,74.67-126.44,91.05l-2.87-9.68l0.08-0.16c6.8-2.18,13.47-4.67,19.99-7.44
				C381.06,463.36,410.42,442.18,434.09,415.8z"/>
			<path fill="#FFFFFE" stroke="#000000" stroke-width="5" stroke-linecap="round" stroke-linejoin="round" stroke-miterlimit="10"  d="M450.67,112.83l-0.05,0.51c-0.13-0.19-0.27-0.38-0.41-0.57L450.67,112.83z"/>
			<path fill="#FFFFFE" stroke="#000000" stroke-width="3" stroke-linecap="round" stroke-linejoin="round" stroke-miterlimit="10"  d="M450.21,112.77l-74.33-10.14l-45.73-78.14c7.45,2.48,14.74,5.31,21.85,8.48l32.15,57.01l52.82,6.07
				C441.62,101.42,446.04,107,450.21,112.77z"/>
			<path fill="#FFFFFE" stroke="#000000" stroke-width="5" stroke-linecap="round" stroke-linejoin="round" stroke-miterlimit="10"  d="M449.25,397.14l0.08,0.42l-0.46,0.1C449,397.49,449.13,397.32,449.25,397.14z"/>
			<path fill="#FFFFFE" stroke="#000000" stroke-width="3" stroke-linecap="round" stroke-linejoin="round" stroke-miterlimit="10"  d="M360.75,416.94l88.12-19.28c-4.64,6.29-9.57,12.34-14.78,18.14l-63.92,12.93l-22.19,48.63
				c-6.52,2.77-13.19,5.26-19.99,7.44L360.75,416.94z"/>
			<path fill="#FFFFFE" stroke="#000000" stroke-width="3" stroke-linecap="round" stroke-linejoin="round" stroke-miterlimit="10"  d="M436.97,96.05l-52.82-6.07L352,32.97C384.78,47.56,413.76,69.25,436.97,96.05z"/>
			<path fill="#FFFFFE" stroke="#000000" stroke-width="3" stroke-linecap="round" stroke-linejoin="round" stroke-miterlimit="10"  d="M370.17,428.73l63.92-12.93c-23.67,26.38-53.03,47.56-86.11,61.56L370.17,428.73z"/>
			<path fill="#FFFFFE" stroke="#000000" stroke-width="3" stroke-linecap="round" stroke-linejoin="round" stroke-miterlimit="10"  d="M432.36,126.01l-6.93,69.94l-50.56-2.34c-5.72-11.32-12.98-21.73-21.5-30.96l22.02-44.43v-0.02
				L432.36,126.01z"/>
			<path fill="#FFFFFE" stroke="#000000" stroke-width="3" stroke-linecap="round" stroke-linejoin="round" stroke-miterlimit="10"  d="M424.26,207.91l7.84,7.57l-43.74,22.93c-0.45-3.77-1.05-7.5-1.8-11.17L424.26,207.91z"/>
			<path fill="#FFFFFE" stroke="#000000" stroke-width="3" stroke-linecap="round" stroke-linejoin="round" stroke-miterlimit="10"  d="M420.95,327.54l10.19,56.51l-68.61,15.16l-13.41-48.85c8.94-8.86,16.66-18.94,22.87-29.99L420.95,327.54z
				"/>
			<path fill="#FFFFFE" stroke="#000000" stroke-width="3" stroke-linecap="round" stroke-linejoin="round" stroke-miterlimit="10"  d="M427.01,307.82l-7.99,8.99l-34.35-27.46c1.16-4.3,2.11-8.69,2.84-13.14L427.01,307.82z"/>
			<path fill="#FFFFFE" stroke="#000000" stroke-width="3" stroke-linecap="round" stroke-linejoin="round" stroke-miterlimit="10"  d="M425.43,195.95l-1.18,11.95l-43.94-2.01c-1.61-4.2-3.43-8.3-5.44-12.28L425.43,195.95z"/>
			<polygon fill="#FFFFFE" stroke="#000000" stroke-width="5" stroke-linecap="round" stroke-linejoin="round" stroke-miterlimit="10"  points="424.28,207.9 424.26,207.91 424.25,207.9 			"/>
			<path fill="#FFFFFE" stroke="#000000" stroke-width="3" stroke-linecap="round" stroke-linejoin="round" stroke-miterlimit="10"  d="M424.25,207.9l0.01,0.01l-37.7,19.33c-1.5-7.35-3.6-14.48-6.25-21.35L424.25,207.9z"/>
			<path fill="#FFFFFE" stroke="#000000" stroke-width="3" stroke-linecap="round" stroke-linejoin="round" stroke-miterlimit="10"  d="M419.02,316.81l1.93,10.73l-48.96-7.17c1.86-3.29,3.58-6.66,5.15-10.12L419.02,316.81z"/>
			<path fill="#FFFFFE" stroke="#000000" stroke-width="3" stroke-linecap="round" stroke-linejoin="round" stroke-miterlimit="10"  d="M419.02,316.81l-41.88-6.56c3.06-6.69,5.59-13.68,7.53-20.9L419.02,316.81z"/>
			<path fill="#FFFFFE" stroke="#000000" stroke-width="3" stroke-linecap="round" stroke-linejoin="round" stroke-miterlimit="10"  d="M388.36,238.41c0.61,5.22,0.93,10.52,0.93,15.89c0,7.46-0.61,14.77-1.78,21.91l-28.19-22.57
				L388.36,238.41z"/>
			<path fill="#FFFFFE" stroke="#000000" stroke-width="3" stroke-linecap="round" stroke-linejoin="round" stroke-miterlimit="10"  d="M388.36,238.41l-29.04,15.23h-0.3c-0.02-4.02-0.27-7.99-0.75-11.9l28.29-14.5
				C387.31,230.91,387.91,234.64,388.36,238.41z"/>
			<path fill="#FFFFFE" stroke="#000000" stroke-width="3" stroke-linecap="round" stroke-linejoin="round" stroke-miterlimit="10"  d="M386.56,227.24l-28.29,14.5c-0.81-6.85-2.3-13.5-4.39-19.88l0.09-0.16l-0.17-0.1
				c-1.97-6.01-4.47-11.78-7.45-17.26l33.96,1.55C382.96,212.76,385.06,219.89,386.56,227.24z"/>
			<path fill="#FFFFFE" stroke="#000000" stroke-width="3" stroke-linecap="round" stroke-linejoin="round" stroke-miterlimit="10"  d="M358.12,268.12l26.55,21.23c-1.94,7.22-4.47,14.21-7.53,20.9l-31.37-4.91c3.31-5.9,6.05-12.14,8.15-18.66
				l0.14-0.07l-0.07-0.15C355.9,280.55,357.3,274.42,358.12,268.12z"/>
			<path fill="#FFFFFE" stroke="#000000" stroke-width="3" stroke-linecap="round" stroke-linejoin="round" stroke-miterlimit="10"  d="M380.31,205.89l-33.96-1.55c-2.31-4.25-4.9-8.33-7.76-12.21l0.25-0.18l36.03,1.66
				C376.88,197.59,378.7,201.69,380.31,205.89z"/>
			<path fill="#FFFFFE" stroke="#000000" stroke-width="3" stroke-linecap="round" stroke-linejoin="round" stroke-miterlimit="10"  d="M345.77,305.34l31.37,4.91c-1.57,3.46-3.29,6.83-5.15,10.12l-32.41-4.74l-0.22-0.16
				C341.68,312.23,343.83,308.85,345.77,305.34z"/>
			<path fill="#FFFFFE" stroke="#000000" stroke-width="3" stroke-linecap="round" stroke-linejoin="round" stroke-miterlimit="10"  d="M375.39,118.2v0.02l-22.02,44.43c-2.56-2.78-5.25-5.46-8.04-8.01l19.21-37.93L375.39,118.2z"/>
			<path fill="#FFFFFE" stroke="#000000" stroke-width="3" stroke-linecap="round" stroke-linejoin="round" stroke-miterlimit="10"  d="M374.87,193.61l-36.03-1.66l14.53-29.3C361.89,171.88,369.15,182.29,374.87,193.61z"/>
			<path fill="#FFFFFE" stroke="#000000" stroke-width="3" stroke-linecap="round" stroke-linejoin="round" stroke-miterlimit="10"  d="M339.58,315.63l32.41,4.74c-6.21,11.05-13.93,21.13-22.87,29.99L339.58,315.63z"/>
			<path fill="#FFFFFE" stroke="#000000" stroke-width="3" stroke-linecap="round" stroke-linejoin="round" stroke-miterlimit="10"  d="M358.47,106.34l6.07,10.37l-36.8,24.26c-3.73-2.44-7.59-4.7-11.56-6.77L358.47,106.34L358.47,106.34z"/>
			<path fill="#FFFFFE" stroke="#000000" stroke-width="3" stroke-linecap="round" stroke-linejoin="round" stroke-miterlimit="10"  d="M364.54,116.71l-19.21,37.93c-5.47-5.03-11.35-9.6-17.59-13.67L364.54,116.71z"/>
			<path fill="#FFFFFE" stroke="#000000" stroke-width="3" stroke-linecap="round" stroke-linejoin="round" stroke-miterlimit="10"  d="M349.12,350.36l13.41,48.85l-11.69,2.58l-11.68-42.48C342.63,356.49,345.95,353.51,349.12,350.36z"/>
			<path fill="#FFFFFE" stroke="#000000" stroke-width="3" stroke-linecap="round" stroke-linejoin="round" stroke-miterlimit="10"  d="M359.32,253.64l28.19,22.57c-0.73,4.45-1.68,8.84-2.84,13.14l-26.55-21.23c0.6-4.51,0.91-9.11,0.91-13.78
				c0-0.23,0-0.47-0.01-0.7H359.32z"/>
			<path fill="#FFFFFE" stroke="#000000" stroke-width="3" stroke-linecap="round" stroke-linejoin="round" stroke-miterlimit="10"  d="M359.02,253.64c0.01,0.23,0.01,0.47,0.01,0.7c0,4.67-0.31,9.27-0.91,13.78l-20.05-16.03l20.2-10.35
				C358.75,245.65,359,249.62,359.02,253.64z"/>
			<path fill="#FFFFFE" stroke="#000000" stroke-width="3" stroke-linecap="round" stroke-linejoin="round" stroke-miterlimit="10"  d="M322.98,45.71l35.49,60.63h-0.01l-42.28,27.86c-11.07-5.76-23.03-10.03-35.61-12.55l-8.28-48.72v-0.01
				L322.98,45.71z"/>
			<path fill="#FFFFFE" stroke="#000000" stroke-width="3" stroke-linecap="round" stroke-linejoin="round" stroke-miterlimit="10"  d="M358.27,241.74l-20.2,10.35l-0.04-0.04l15.85-30.19C355.97,228.24,357.46,234.89,358.27,241.74z"/>
			<path fill="#FFFFFE" stroke="#000000" stroke-width="3" stroke-linecap="round" stroke-linejoin="round" stroke-miterlimit="10"  d="M338.07,252.09l20.05,16.03c-0.82,6.3-2.22,12.43-4.13,18.34L338.07,252.09z"/>
			<path fill="#FFFFFE" stroke="#000000" stroke-width="5" stroke-linecap="round" stroke-linejoin="round" stroke-miterlimit="10"  d="M353.99,286.46l0.07,0.15l-0.14,0.07C353.96,286.61,353.98,286.53,353.99,286.46z"/>
			<path fill="#FFFFFE" stroke="#000000" stroke-width="5" stroke-linecap="round" stroke-linejoin="round" stroke-miterlimit="10"  d="M353.97,221.7l-0.09,0.16c-0.02-0.09-0.04-0.17-0.08-0.26L353.97,221.7z"/>
			<path fill="#FFFFFE" stroke="#000000" stroke-width="3" stroke-linecap="round" stroke-linejoin="round" stroke-miterlimit="10"  d="M323.61,301.87l30.31-15.19c-2.1,6.52-4.84,12.76-8.15,18.66L323.61,301.87z"/>
			<path fill="#FFFFFE" stroke="#000000" stroke-width="3" stroke-linecap="round" stroke-linejoin="round" stroke-miterlimit="10"  d="M353.8,221.6c0.04,0.09,0.06,0.17,0.08,0.26l-15.85,30.19l-0.19,0.01c-0.49-18.28-6.87-35.13-17.32-48.72
				l0.22-0.17L353.8,221.6z"/>
			<path fill="#FFFFFE" stroke="#000000" stroke-width="3" stroke-linecap="round" stroke-linejoin="round" stroke-miterlimit="10"  d="M353.8,221.6l-33.06-18.43l25.61,1.17C349.33,209.82,351.83,215.59,353.8,221.6z"/>
			<path fill="#FFFFFE" stroke="#000000" stroke-width="3" stroke-linecap="round" stroke-linejoin="round" stroke-miterlimit="10"  d="M353.37,162.65l-14.53,29.3l-0.25,0.18c-2.36-3.21-4.89-6.27-7.6-9.18l14.34-28.31
				C348.12,157.19,350.81,159.87,353.37,162.65z"/>
			<polygon fill="#FFFFFE" stroke="#000000" stroke-width="5" stroke-linecap="round" stroke-linejoin="round" stroke-miterlimit="10"  points="350.84,401.79 350.84,401.8 350.83,401.79 			"/>
			<path fill="#FFFFFE" stroke="#000000" stroke-width="3" stroke-linecap="round" stroke-linejoin="round" stroke-miterlimit="10"  d="M339.16,359.31l11.68,42.48h-0.01l-30.03-29.9C327.27,368.2,333.41,363.99,339.16,359.31z"/>
			<path fill="#FFFFFE" stroke="#000000" stroke-width="3" stroke-linecap="round" stroke-linejoin="round" stroke-miterlimit="10"  d="M350.83,401.79l-0.04,0.01l-4.76,9.85l-35.31-34.54c3.44-1.6,6.8-3.34,10.08-5.22L350.83,401.79z"/>
			<path fill="#FFFFFE" stroke="#000000" stroke-width="3" stroke-linecap="round" stroke-linejoin="round" stroke-miterlimit="10"  d="M339.58,315.63l9.54,34.73c-3.17,3.15-6.49,6.13-9.96,8.95l-9-32.73c3.31-3.49,6.38-7.2,9.2-11.11
				L339.58,315.63z"/>
			<path fill="#FFFFFE" stroke="#000000" stroke-width="3" stroke-linecap="round" stroke-linejoin="round" stroke-miterlimit="10"  d="M346.35,204.34l-25.61-1.17l0.11-0.23l10.14-19.99c2.71,2.91,5.24,5.97,7.6,9.18
				C341.45,196.01,344.04,200.09,346.35,204.34z"/>
			<path fill="#FFFFFE" stroke="#000000" stroke-width="3" stroke-linecap="round" stroke-linejoin="round" stroke-miterlimit="10"  d="M346.03,411.65l-25.01,51.84l-64.32-28.18l0.01-0.01l17.78-47.24c12.74-1.95,24.9-5.69,36.23-10.95
				L346.03,411.65z"/>
			<path fill="#FFFFFE" stroke="#000000" stroke-width="3" stroke-linecap="round" stroke-linejoin="round" stroke-miterlimit="10"  d="M323.61,301.87l22.16,3.47c-1.94,3.51-4.09,6.89-6.41,10.13c-2.82,3.91-5.89,7.62-9.2,11.11l-6.77-24.6
				L323.61,301.87z"/>
			<path fill="#FFFFFE" stroke="#000000" stroke-width="3" stroke-linecap="round" stroke-linejoin="round" stroke-miterlimit="10"  d="M345.33,154.64l-14.34,28.31c-4.62-4.99-9.71-9.52-15.2-13.54l-0.03-0.19l-0.2,0.02
				c-5.05-3.67-10.43-6.9-16.1-9.63l28.28-18.64C333.98,145.04,339.86,149.61,345.33,154.64z"/>
			<path fill="#FFFFFE" stroke="#000000" stroke-width="3" stroke-linecap="round" stroke-linejoin="round" stroke-miterlimit="10"  d="M330.16,326.58l9,32.73c-5.75,4.68-11.89,8.89-18.36,12.58l-22.44-22.34c6.2-2.9,12.07-6.39,17.54-10.4
				l0.11,0.02l0.02-0.12C321.1,335.32,325.84,331.15,330.16,326.58z"/>
			<path fill="#FFFFFE" stroke="#000000" stroke-width="3" stroke-linecap="round" stroke-linejoin="round" stroke-miterlimit="10"  d="M338.07,252.09l15.92,34.37c-0.01,0.07-0.03,0.15-0.07,0.22l-30.31,15.19l-0.26-0.04l-0.18-0.13
				c9.27-13.49,14.7-29.81,14.7-47.36c0-0.76-0.01-1.52-0.03-2.28l0.19-0.01L338.07,252.09z"/>
			<path fill="#FFFFFE" stroke="#000000" stroke-width="5" stroke-linecap="round" stroke-linejoin="round" stroke-miterlimit="10"  d="M309.39,18.61c-17.76-4.19-36.28-6.4-55.29-6.4c-17.48,0-34.54,1.87-50.98,5.43
				c-7.64,1.65-15.16,3.66-22.51,6.02l-0.17-0.07l-2.87-9.64c24.17-7.76,49.92-11.94,76.61-11.94c27.64,0,54.27,4.49,79.19,12.78
				l-3.34,9.5l-0.19,0.1C323.15,22.17,316.33,20.24,309.39,18.61z"/>
			<path fill="#FFFFFE" stroke="#000000" stroke-width="3" stroke-linecap="round" stroke-linejoin="round" stroke-miterlimit="10"  d="M330.99,182.95l-10.14,19.99l-0.28-0.14l-4.78-33.39C321.28,173.43,326.37,177.96,330.99,182.95z"/>
			<path fill="#FFFFFE" stroke="#000000" stroke-width="5" stroke-linecap="round" stroke-linejoin="round" stroke-miterlimit="10"  d="M198.88,489.99c17.75,4.18,36.23,6.39,55.22,6.39c17.5,0,34.58-1.88,51.05-5.44
				c7.67-1.66,15.2-3.68,22.58-6.06l0.18,0.08l2.87,9.68c-24.17,7.75-49.92,11.94-76.6,11.94c-27.66,0-54.31-4.5-79.24-12.8
				l3.34-9.52l0.11-0.06C185.09,486.43,191.93,488.36,198.88,489.99z"/>
			<path fill="#FFFFFE" stroke="#000000" stroke-width="3" stroke-linecap="round" stroke-linejoin="round" stroke-miterlimit="10"  d="M323.39,301.98l6.77,24.6c-4.32,4.57-9.06,8.74-14.13,12.47l7.28-37.03L323.39,301.98z"/>
			<path fill="#FFFFFE" stroke="#000000" stroke-width="5" stroke-linecap="round" stroke-linejoin="round" stroke-miterlimit="10"  d="M330.15,24.49c-0.1-0.04-0.2-0.07-0.31-0.1l0.19-0.1L330.15,24.49z"/>
			<path fill="#FFFFFE" stroke="#000000" stroke-width="3" stroke-linecap="round" stroke-linejoin="round" stroke-miterlimit="10"  d="M329.84,24.39l-66.32,35.64l-82.91-36.37c7.35-2.36,14.87-4.37,22.51-6.02l59.7,27.29l46.57-26.32
				C316.33,20.24,323.15,22.17,329.84,24.39z"/>
			<path fill="#FFFFFE" stroke="#000000" stroke-width="5" stroke-linecap="round" stroke-linejoin="round" stroke-miterlimit="10"  d="M327.99,484.8l-0.08,0.16l-0.18-0.08C327.82,484.86,327.91,484.83,327.99,484.8z"/>
			<path fill="#FFFFFE" stroke="#000000" stroke-width="3" stroke-linecap="round" stroke-linejoin="round" stroke-miterlimit="10"  d="M327.74,140.97l-28.28,18.64c-4.33-2.1-8.82-3.9-13.45-5.38l0.06-0.19l30.11-19.84
				C320.15,136.27,324.01,138.53,327.74,140.97z"/>
			<path fill="#FFFFFE" stroke="#000000" stroke-width="3" stroke-linecap="round" stroke-linejoin="round" stroke-miterlimit="10"  d="M244.84,448.56l82.89,36.32c-7.38,2.38-14.91,4.4-22.58,6.06l-59.62-27.28l-46.65,26.33
				c-6.95-1.63-13.79-3.56-20.49-5.79L244.84,448.56z"/>
			<polygon fill="#FFFFFE" stroke="#000000" stroke-width="5" stroke-linecap="round" stroke-linejoin="round" stroke-miterlimit="10"  points="323.61,301.87 323.39,301.98 323.35,301.83 			"/>
			<polygon fill="#FFFFFE" stroke="#000000" stroke-width="5" stroke-linecap="round" stroke-linejoin="round" stroke-miterlimit="10"  points="323.35,301.83 323.39,301.98 323.31,302.02 			"/>
			<path fill="#FFFFFE" stroke="#000000" stroke-width="3" stroke-linecap="round" stroke-linejoin="round" stroke-miterlimit="10"  d="M282.32,333.32c16.7-6.02,30.96-17.21,40.85-31.62l0.18,0.13l-0.04,0.19l-7.28,37.03
				c-0.04,0.04-0.08,0.07-0.13,0.1l-33.54-5.73L282.32,333.32z"/>
			<path fill="#FFFFFE" stroke="#000000" stroke-width="3" stroke-linecap="round" stroke-linejoin="round" stroke-miterlimit="10"  d="M322.18,244.46l-0.96,0.13l-38.5,12.55l-11.19-42.15l22.41-16.31l0.23-0.31
				C309.02,209.09,319.46,225.56,322.18,244.46z"/>
			<path fill="#FFFFFE" stroke="#000000" stroke-width="3" stroke-linecap="round" stroke-linejoin="round" stroke-miterlimit="10"  d="M298.36,349.55l22.44,22.34c-3.28,1.88-6.64,3.62-10.08,5.22l-23.47-22.97l-0.04-0.13
				C291.03,352.74,294.75,351.25,298.36,349.55z"/>
			<path fill="#FFFFFE" stroke="#000000" stroke-width="3" stroke-linecap="round" stroke-linejoin="round" stroke-miterlimit="10"  d="M320.52,203.34c-10.12-13.19-24.07-23.31-40.17-28.67l0.01-0.02l-1.09-1.05l36.29-4.36
				c0.08,0.06,0.16,0.11,0.23,0.17l4.78,33.39l0.28,0.14l-0.11,0.23L320.52,203.34z"/>
			<path fill="#FFFFFE" stroke="#000000" stroke-width="3" stroke-linecap="round" stroke-linejoin="round" stroke-miterlimit="10"  d="M316.18,134.2l-30.11,19.84l-5.5-32.39C293.15,124.17,305.11,128.44,316.18,134.2z"/>
			<path fill="#FFFFFE" stroke="#000000" stroke-width="5" stroke-linecap="round" stroke-linejoin="round" stroke-miterlimit="10"  d="M316.03,339.05l-0.02,0.12l-0.11-0.02C315.95,339.12,315.99,339.09,316.03,339.05z"/>
			<path fill="#FFFFFE" stroke="#000000" stroke-width="5" stroke-linecap="round" stroke-linejoin="round" stroke-miterlimit="10"  d="M315.76,169.22l0.03,0.19c-0.07-0.06-0.15-0.11-0.23-0.17L315.76,169.22z"/>
			<path fill="#FFFFFE" stroke="#000000" stroke-width="3" stroke-linecap="round" stroke-linejoin="round" stroke-miterlimit="10"  d="M315.56,169.24l-36.29,4.36l-0.42-0.41l20.61-13.58C305.13,162.34,310.51,165.57,315.56,169.24z"/>
			<path fill="#FFFFFE" stroke="#000000" stroke-width="3" stroke-linecap="round" stroke-linejoin="round" stroke-miterlimit="10"  d="M287.25,354.14l23.47,22.97c-11.33,5.26-23.49,9-36.23,10.95L287.25,354.14z"/>
			<path fill="#FFFFFE" stroke="#000000" stroke-width="3" stroke-linecap="round" stroke-linejoin="round" stroke-miterlimit="10"  d="M309.39,18.61l-46.57,26.32l-59.7-27.29c16.44-3.56,33.5-5.43,50.98-5.43
				C273.11,12.21,291.63,14.42,309.39,18.61z"/>
			<path fill="#FFFFFE" stroke="#000000" stroke-width="3" stroke-linecap="round" stroke-linejoin="round" stroke-miterlimit="10"  d="M245.53,463.66l59.62,27.28c-16.47,3.56-33.55,5.44-51.05,5.44c-18.99,0-37.47-2.21-55.22-6.39
				L245.53,463.66z"/>
			<path fill="#FFFFFE" stroke="#000000" stroke-width="3" stroke-linecap="round" stroke-linejoin="round" stroke-miterlimit="10"  d="M299.46,159.61l-20.61,13.58l-1.11-1.07l-3.36-20.9c3.96,0.78,7.84,1.79,11.63,3.01
				C290.64,155.71,295.13,157.51,299.46,159.61z"/>
			<path fill="#FFFFFE" stroke="#000000" stroke-width="3" stroke-linecap="round" stroke-linejoin="round" stroke-miterlimit="10"  d="M282.2,333.46l16.16,16.09c-3.61,1.7-7.33,3.19-11.15,4.46c-4.57,1.54-9.28,2.77-14.11,3.65L282.2,333.46
				z"/>
			<path fill="#FFFFFE" stroke="#000000" stroke-width="3" stroke-linecap="round" stroke-linejoin="round" stroke-miterlimit="10"  d="M322.9,254.34c0,22.02-10.39,41.67-26.51,54.31l-13.67-51.51l38.5-12.55l0.96-0.13
				C322.66,247.69,322.9,250.99,322.9,254.34z"/>
			<path fill="#FFFFFE" stroke="#000000" stroke-width="3" stroke-linecap="round" stroke-linejoin="round" stroke-miterlimit="10"  d="M282.66,257.16l0.06-0.02l13.67,51.51c-3.7,2.9-7.69,5.44-11.94,7.54l-0.01-0.03l-34.97-48.18
				L282.66,257.16z"/>
			<path fill="#FFFFFE" stroke="#000000" stroke-width="3" stroke-linecap="round" stroke-linejoin="round" stroke-miterlimit="10"  d="M294.17,198.37l-0.23,0.31l-22.41,16.31l-4.67-17.57l9.91-7.06l0.35-0.99
				C283.25,191.57,288.98,194.62,294.17,198.37z"/>
			<path fill="#FFFFFE" stroke="#000000" stroke-width="3" stroke-linecap="round" stroke-linejoin="round" stroke-miterlimit="10"  d="M287.21,354.01l0.04,0.13l-12.76,33.92c-4.38,0.66-8.83,1.12-13.34,1.35l11.95-31.75
				C277.93,356.78,282.64,355.55,287.21,354.01z"/>
			<path fill="#FFFFFE" stroke="#000000" stroke-width="3" stroke-linecap="round" stroke-linejoin="round" stroke-miterlimit="10"  d="M280.57,121.65l5.5,32.39l-0.06,0.19c-3.79-1.22-7.67-2.23-11.63-3.01l-5.04-31.33
				C273.13,120.32,276.88,120.91,280.57,121.65z"/>
			<path fill="#FFFFFE" stroke="#000000" stroke-width="3" stroke-linecap="round" stroke-linejoin="round" stroke-miterlimit="10"  d="M284.44,316.16l0.01,0.03c-4.03,2-8.28,3.62-12.71,4.8l-57.23-41.62l34.96-11.39L284.44,316.16z"/>
			<polygon fill="#FFFFFE" stroke="#000000" stroke-width="5" stroke-linecap="round" stroke-linejoin="round" stroke-miterlimit="10"  points="271.53,214.99 282.72,257.14 282.66,257.16 271.51,215.01 			"/>
			<polygon fill="#FFFFFE" stroke="#000000" stroke-width="3" stroke-linecap="round" stroke-linejoin="round" stroke-miterlimit="10"  points="271.51,215.01 282.66,257.16 249.47,267.98 231.93,243.82 			"/>
			<path fill="#FFFFFE" stroke="#000000" stroke-width="3" stroke-linecap="round" stroke-linejoin="round" stroke-miterlimit="10"  d="M282.36,333.42l33.54,5.73c-5.47,4.01-11.34,7.5-17.54,10.4l-16.16-16.09l-0.03-0.09
				c0.05-0.01,0.1-0.03,0.15-0.05L282.36,333.42z"/>
			<path fill="#FFFFFE" stroke="#000000" stroke-width="3" stroke-linecap="round" stroke-linejoin="round" stroke-miterlimit="10"  d="M282.17,333.37l0.03,0.09l-27.9,25.87l-23.57-24.12l0.06-0.21c7.37,2.13,15.14,3.27,23.18,3.27
				C263.85,338.27,273.35,336.55,282.17,333.37z"/>
			<path fill="#FFFFFE" stroke="#000000" stroke-width="3" stroke-linecap="round" stroke-linejoin="round" stroke-miterlimit="10"  d="M282.2,333.46l-9.1,24.2c-6.1,1.13-12.38,1.73-18.8,1.75v-0.08L282.2,333.46z"/>
			<path fill="#FFFFFE" stroke="#000000" stroke-width="3" stroke-linecap="round" stroke-linejoin="round" stroke-miterlimit="10"  d="M272.29,72.93l8.28,48.72c-3.69-0.74-7.44-1.33-11.23-1.76l-6.71-41.78l9.66-5.19V72.93z"/>
			<polygon fill="#FFFFFE" stroke="#000000" stroke-width="5" stroke-linecap="round" stroke-linejoin="round" stroke-miterlimit="10"  points="278.85,173.19 279.27,173.6 278,173.75 			"/>
			<polygon fill="#FFFFFE" stroke="#000000" stroke-width="5" stroke-linecap="round" stroke-linejoin="round" stroke-miterlimit="10"  points="278.85,173.19 278,173.75 277.74,172.12 			"/>
			<path fill="#FFFFFE" stroke="#000000" stroke-width="3" stroke-linecap="round" stroke-linejoin="round" stroke-miterlimit="10"  d="M278,173.75l1.27-0.15l1.09,1.05l-0.01,0.02c-8.3-2.76-17.17-4.26-26.38-4.26
				c-8.93,0-17.53,1.41-25.61,4.01l-1.27-0.18l26.92-25.01l23.73,22.89L278,173.75z"/>
			<path fill="#FFFFFE" stroke="#000000" stroke-width="3" stroke-linecap="round" stroke-linejoin="round" stroke-miterlimit="10"  d="M277.12,189.37l-0.35,0.99l-9.91,7.06l-2.77-10.45l0.12-0.86C268.67,186.78,272.98,187.88,277.12,189.37z
				"/>
			<path fill="#FFFFFE" stroke="#000000" stroke-width="3" stroke-linecap="round" stroke-linejoin="round" stroke-miterlimit="10"  d="M274.49,388.06l-17.78,47.24l-0.01,0.01l-11-4.82l15.45-41.08C265.66,389.18,270.11,388.72,274.49,388.06
				z"/>
			<path fill="#FFFFFE" stroke="#000000" stroke-width="3" stroke-linecap="round" stroke-linejoin="round" stroke-miterlimit="10"  d="M269.34,119.89l5.04,31.33c-6.59-1.31-13.4-1.99-20.37-1.99c-6.41,0-12.68,0.58-18.78,1.69l11.92-31.71
				c2.29-0.12,4.59-0.18,6.91-0.18C259.22,119.03,264.32,119.32,269.34,119.89z"/>
			<path fill="#FFFFFE" stroke="#000000" stroke-width="3" stroke-linecap="round" stroke-linejoin="round" stroke-miterlimit="10"  d="M273.1,357.66l-11.95,31.75c-2.35,0.13-4.71,0.19-7.09,0.19c-5.09,0-10.12-0.28-15.07-0.84l-5.03-31.28
				c6.49,1.27,13.2,1.93,20.05,1.93c0.1,0,0.19,0,0.29,0C260.72,359.39,267,358.79,273.1,357.66z"/>
			<path fill="#FFFFFE" stroke="#000000" stroke-width="3" stroke-linecap="round" stroke-linejoin="round" stroke-miterlimit="10"  d="M214.51,279.37l57.23,41.62c-5.68,1.54-11.66,2.35-17.81,2.35c-26.44,0-49.48-14.99-61.06-36.91
				L214.51,279.37z"/>
			<polygon fill="#FFFFFE" stroke="#000000" stroke-width="5" stroke-linecap="round" stroke-linejoin="round" stroke-miterlimit="10"  points="266.86,197.42 271.53,214.99 271.51,215.01 			"/>
			<polygon fill="#FFFFFE" stroke="#000000" stroke-width="3" stroke-linecap="round" stroke-linejoin="round" stroke-miterlimit="10"  points="266.86,197.42 271.51,215.01 231.93,243.82 221.64,229.65 			"/>
			<path fill="#FFFFFE" stroke="#000000" stroke-width="3" stroke-linecap="round" stroke-linejoin="round" stroke-miterlimit="10"  d="M262.63,78.11l6.71,41.78c-5.02-0.57-10.12-0.86-15.28-0.86c-2.32,0-4.62,0.06-6.91,0.18l15.46-41.11
				L262.63,78.11L262.63,78.11z"/>
			<path fill="#FFFFFE" stroke="#000000" stroke-width="3" stroke-linecap="round" stroke-linejoin="round" stroke-miterlimit="10"  d="M266.86,197.42l-45.22,32.23l-16.28-22.44l-1.34-0.43c12.58-13.2,30.31-21.44,49.91-21.44
				c3.49,0,6.93,0.26,10.28,0.77l-0.12,0.86L266.86,197.42z"/>
			<polygon fill="#FFFFFE" stroke="#000000" stroke-width="5" stroke-linecap="round" stroke-linejoin="round" stroke-miterlimit="10"  points="262.62,78.07 262.63,78.11 262.62,78.11 262.61,78.1 			"/>
			<path fill="#FFFFFE" stroke="#000000" stroke-width="3" stroke-linecap="round" stroke-linejoin="round" stroke-miterlimit="10"  d="M262.61,78.1l-15.46,41.11c-4.49,0.22-8.93,0.67-13.3,1.33l17.78-47.25L262.61,78.1z"/>
			<path fill="#FFFFFE" stroke="#000000" stroke-width="3" stroke-linecap="round" stroke-linejoin="round" stroke-miterlimit="10"  d="M261.15,389.41l-15.45,41.08l-6.71-41.73c4.95,0.56,9.98,0.84,15.07,0.84
				C256.44,389.6,258.8,389.54,261.15,389.41z"/>
			<path fill="#FFFFFE" stroke="#000000" stroke-width="3" stroke-linecap="round" stroke-linejoin="round" stroke-miterlimit="10"  d="M254.01,149.23c6.97,0,13.78,0.68,20.37,1.99l3.36,20.9L254.01,149.23z"/>
			<path fill="#FFFFFE" stroke="#000000" stroke-width="3" stroke-linecap="round" stroke-linejoin="round" stroke-miterlimit="10"  d="M254.01,149.23l-26.92,25.01l-0.6-0.08l8.74-23.24C241.33,149.81,247.6,149.23,254.01,149.23z"/>
			<path fill="#FFFFFE" stroke="#000000" stroke-width="3" stroke-linecap="round" stroke-linejoin="round" stroke-miterlimit="10"  d="M251.63,73.29l-17.78,47.25c-12.75,1.93-24.93,5.65-36.27,10.9l-35.32-34.51l25.03-51.87L251.63,73.29z"
				/>
			<polygon fill="#FFFFFE" stroke="#000000" stroke-width="3" stroke-linecap="round" stroke-linejoin="round" stroke-miterlimit="10"  points="231.93,243.82 249.47,267.98 214.51,279.37 198.79,267.94 			"/>
			<path fill="#FFFFFE" stroke="#000000" stroke-width="3" stroke-linecap="round" stroke-linejoin="round" stroke-miterlimit="10"  d="M247.15,119.21l-11.92,31.71c-4.82,0.87-9.52,2.08-14.09,3.6l-0.04-0.11l12.75-33.87
				C238.22,119.88,242.66,119.43,247.15,119.21z"/>
			<path fill="#FFFFFE" stroke="#000000" stroke-width="3" stroke-linecap="round" stroke-linejoin="round" stroke-miterlimit="10"  d="M238.99,388.76l6.71,41.73l-9.63,5.17l-8.28-48.64C231.47,387.76,235.21,388.34,238.99,388.76z"/>
			<path fill="#FFFFFE" stroke="#000000" stroke-width="3" stroke-linecap="round" stroke-linejoin="round" stroke-miterlimit="10"  d="M233.96,357.48l5.03,31.28c-3.78-0.42-7.52-1-11.2-1.74l-5.54-32.51l0.01-0.03
				C226.07,355.71,229.97,356.71,233.96,357.48z"/>
			<path fill="#FFFFFE" stroke="#000000" stroke-width="3" stroke-linecap="round" stroke-linejoin="round" stroke-miterlimit="10"  d="M227.79,387.02l8.28,48.64l-50.74,27.22l-35.49-60.67h0.01l42.14-27.76
				C203.12,380.23,215.14,384.52,227.79,387.02z"/>
			<path fill="#FFFFFE" stroke="#000000" stroke-width="3" stroke-linecap="round" stroke-linejoin="round" stroke-miterlimit="10"  d="M235.23,150.92l-8.74,23.24l-1.57-0.22l-15.01-14.96c3.64-1.71,7.38-3.2,11.23-4.46
				C225.71,153,230.41,151.79,235.23,150.92z"/>
			<path fill="#FFFFFE" stroke="#000000" stroke-width="3" stroke-linecap="round" stroke-linejoin="round" stroke-miterlimit="10"  d="M230.33,334.87l3.63,22.61c-3.99-0.77-7.89-1.77-11.7-3c-4.68-1.48-9.23-3.29-13.6-5.4l21.59-14.24
				C230.28,334.85,230.3,334.86,230.33,334.87z"/>
			<path fill="#FFFFFE" stroke="#000000" stroke-width="3" stroke-linecap="round" stroke-linejoin="round" stroke-miterlimit="10"  d="M233.85,120.54l-12.75,33.87l-23.52-22.97C208.92,126.19,221.1,122.47,233.85,120.54z"/>
			<path fill="#FFFFFE" stroke="#000000" stroke-width="3" stroke-linecap="round" stroke-linejoin="round" stroke-miterlimit="10"  d="M221.64,229.65l10.29,14.17l-33.14,24.12l-13.77-10.01c-0.03-0.71-0.06-1.42-0.07-2.13L221.64,229.65z"/>
			<path fill="#FFFFFE" stroke="#000000" stroke-width="3" stroke-linecap="round" stroke-linejoin="round" stroke-miterlimit="10"  d="M230.73,335.21l23.57,24.12v0.08c-0.1,0-0.19,0-0.29,0c-6.85,0-13.56-0.66-20.05-1.93l-3.63-22.61
				c0.15,0.04,0.31,0.09,0.46,0.13L230.73,335.21z"/>
			<path fill="#FFFFFE" stroke="#000000" stroke-width="5" stroke-linecap="round" stroke-linejoin="round" stroke-miterlimit="10"  d="M271.74,320.99c4.43-1.18,8.68-2.8,12.71-4.8c4.25-2.1,8.24-4.64,11.94-7.54
				c16.12-12.64,26.51-32.29,26.51-54.31c0-3.35-0.24-6.65-0.72-9.88c-2.72-18.9-13.16-35.37-28.01-46.09
				c-5.19-3.75-10.92-6.8-17.05-9c-4.14-1.49-8.45-2.59-12.91-3.26c-3.35-0.51-6.79-0.77-10.28-0.77c-19.6,0-37.33,8.24-49.91,21.44
				c-11.82,12.39-19.09,29.16-19.09,47.56c0,0.49,0.01,0.97,0.02,1.46c0.01,0.71,0.04,1.42,0.07,2.13
				c0.31,5.85,1.34,11.52,3.02,16.9c1.26,4.04,2.88,7.92,4.83,11.6c11.58,21.92,34.62,36.91,61.06,36.91
				C260.08,323.34,266.06,322.53,271.74,320.99z M186.23,204.94c10.36-14.19,25.07-25.02,42.13-30.52
				c8.08-2.6,16.68-4.01,25.61-4.01c9.21,0,18.08,1.5,26.38,4.26c16.1,5.36,30.05,15.48,40.17,28.67
				c10.45,13.59,16.83,30.44,17.32,48.72c0.02,0.76,0.03,1.52,0.03,2.28c0,17.55-5.43,33.87-14.7,47.36
				c-9.89,14.41-24.15,25.6-40.85,31.62c-0.05,0.02-0.1,0.04-0.15,0.05c-8.82,3.18-18.32,4.9-28.2,4.9
				c-8.04,0-15.81-1.14-23.18-3.27c-0.15-0.04-0.31-0.09-0.46-0.13l-0.01-0.07l-0.15,0.02c-17.18-5.11-32.09-15.59-42.75-29.49
				c-0.18-0.22-0.35-0.45-0.52-0.67l0.07-0.13l-0.17-0.01c-0.18-0.24-0.36-0.48-0.53-0.72c-9.84-13.42-15.78-29.85-16.16-47.61
				c-0.02-0.54-0.03-1.08-0.03-1.63c0-0.07,0-0.15,0-0.22c0-17.66,5.5-34.08,14.88-47.63l0.05,0.01l0.02-0.1
				C185.41,206.05,185.81,205.49,186.23,204.94z"/>
			<path fill="#FFFFFE" stroke="#000000" stroke-width="5" stroke-linecap="round" stroke-linejoin="round" stroke-miterlimit="10"  d="M230.32,334.8l0.01,0.07c-0.03-0.01-0.05-0.02-0.08-0.03L230.32,334.8z"/>
			<path fill="#FFFFFE" stroke="#000000" stroke-width="5" stroke-linecap="round" stroke-linejoin="round" stroke-miterlimit="10"  d="M230.32,334.8l-0.07,0.04c-0.03,0-0.05-0.01-0.08-0.02L230.32,334.8z"/>
			<path fill="#FFFFFE" stroke="#000000" stroke-width="3" stroke-linecap="round" stroke-linejoin="round" stroke-miterlimit="10"  d="M230.25,334.84l-21.59,14.24c-5.69-2.74-11.09-5.97-16.15-9.66l0.04-0.05l37.62-4.55
				C230.2,334.83,230.22,334.84,230.25,334.84z"/>
			<path fill="#FFFFFE" stroke="#000000" stroke-width="3" stroke-linecap="round" stroke-linejoin="round" stroke-miterlimit="10"  d="M230.17,334.82l-37.62,4.55l-6-33.99l0.21-0.42l0.66,0.37C198.08,319.23,212.99,329.71,230.17,334.82z"/>
			<path fill="#FFFFFE" stroke="#000000" stroke-width="3" stroke-linecap="round" stroke-linejoin="round" stroke-miterlimit="10"  d="M222.25,354.51l5.54,32.51c-12.65-2.5-24.67-6.79-35.8-12.57L222.25,354.51z"/>
			<polygon fill="#FFFFFE" stroke="#000000" stroke-width="5" stroke-linecap="round" stroke-linejoin="round" stroke-miterlimit="10"  points="227.09,174.24 226.12,175.14 226.49,174.16 			"/>
			<polygon fill="#FFFFFE" stroke="#000000" stroke-width="5" stroke-linecap="round" stroke-linejoin="round" stroke-miterlimit="10"  points="226.49,174.16 226.12,175.14 224.92,173.94 			"/>
			<path fill="#FFFFFE" stroke="#000000" stroke-width="3" stroke-linecap="round" stroke-linejoin="round" stroke-miterlimit="10"  d="M226.12,175.14l0.97-0.9l1.27,0.18c-17.06,5.5-31.77,16.33-42.13,30.52l-0.97,0.51l7.05-36.06l32.61,4.55
				L226.12,175.14z"/>
			<path fill="#FFFFFE" stroke="#000000" stroke-width="3" stroke-linecap="round" stroke-linejoin="round" stroke-miterlimit="10"  d="M224.92,173.94l-32.61-4.55l-0.01-0.02c5.49-4.02,11.39-7.51,17.61-10.39L224.92,173.94z"/>
			<path fill="#FFFFFE" stroke="#000000" stroke-width="3" stroke-linecap="round" stroke-linejoin="round" stroke-miterlimit="10"  d="M222.26,354.48l-0.01,0.03l-30.26,19.94c-3.97-2.07-7.82-4.33-11.55-6.77l28.22-18.6
				C213.03,351.19,217.58,353,222.26,354.48z"/>
			<path fill="#FFFFFE" stroke="#000000" stroke-width="3" stroke-linecap="round" stroke-linejoin="round" stroke-miterlimit="10"  d="M205.36,207.21l16.28,22.44l-36.69,26.15c-0.01-0.49-0.02-0.97-0.02-1.46c0-18.4,7.27-35.17,19.09-47.56
				L205.36,207.21z"/>
			<path fill="#FFFFFE" stroke="#000000" stroke-width="3" stroke-linecap="round" stroke-linejoin="round" stroke-miterlimit="10"  d="M221.1,154.41l0.04,0.11c-3.85,1.26-7.59,2.75-11.23,4.46l-22.42-22.35c3.28-1.87,6.64-3.6,10.09-5.19
				L221.1,154.41z"/>
			<path fill="#FFFFFE" stroke="#000000" stroke-width="3" stroke-linecap="round" stroke-linejoin="round" stroke-miterlimit="10"  d="M214.51,279.37l-21.64,7.06c-1.95-3.68-3.57-7.56-4.83-11.6l1.41-0.09l9.34-6.8L214.51,279.37z"/>
			<path fill="#FFFFFE" stroke="#000000" stroke-width="3" stroke-linecap="round" stroke-linejoin="round" stroke-miterlimit="10"  d="M187.49,136.63l22.42,22.35c-6.22,2.88-12.12,6.37-17.61,10.39c-5.08,3.71-9.82,7.86-14.15,12.4
				l-8.98-32.64C174.91,144.49,181.03,140.3,187.49,136.63z"/>
			<path fill="#FFFFFE" stroke="#000000" stroke-width="3" stroke-linecap="round" stroke-linejoin="round" stroke-miterlimit="10"  d="M208.66,349.08l-28.22,18.6c-6.33-4.13-12.3-8.78-17.84-13.88l14.09-28.48
				c4.79,5.22,10.09,9.94,15.82,14.1C197.57,343.11,202.97,346.34,208.66,349.08z"/>
			<path fill="#FFFFFE" stroke="#000000" stroke-width="3" stroke-linecap="round" stroke-linejoin="round" stroke-miterlimit="10"  d="M198.79,267.94l-9.34,6.8l-1.41,0.09c-1.68-5.38-2.71-11.05-3.02-16.9L198.79,267.94z"/>
			<path fill="#FFFFFE" stroke="#000000" stroke-width="3" stroke-linecap="round" stroke-linejoin="round" stroke-miterlimit="10"  d="M162.26,96.93l35.32,34.51c-3.45,1.59-6.81,3.32-10.09,5.19l-29.97-29.88L162.26,96.93z"/>
			<path fill="#FFFFFE" stroke="#000000" stroke-width="3" stroke-linecap="round" stroke-linejoin="round" stroke-miterlimit="10"  d="M186.55,305.38l6,33.99l-0.04,0.05c-5.73-4.16-11.03-8.88-15.82-14.1L186.55,305.38z"/>
			<path fill="#FFFFFE" stroke="#000000" stroke-width="3" stroke-linecap="round" stroke-linejoin="round" stroke-miterlimit="10"  d="M192.3,169.37l0.01,0.02l-7.05,36.06l-0.52,0.28l-6.59-23.96C182.48,177.23,187.22,173.08,192.3,169.37z"
				/>
			<path fill="#FFFFFE" stroke="#000000" stroke-width="3" stroke-linecap="round" stroke-linejoin="round" stroke-miterlimit="10"  d="M191.99,374.45l-42.14,27.76h-0.01l-6.06-10.36l36.66-24.17C184.17,370.12,188.02,372.38,191.99,374.45z"
				/>
			<path fill="#FFFFFE" stroke="#000000" stroke-width="3" stroke-linecap="round" stroke-linejoin="round" stroke-miterlimit="10"  d="M157.52,106.75l29.97,29.88c-6.46,3.67-12.58,7.86-18.32,12.5L157.52,106.75z"/>
			<path fill="#FFFFFE" stroke="#000000" stroke-width="5" stroke-linecap="round" stroke-linejoin="round" stroke-miterlimit="10"  d="M187.42,305.33l-0.66-0.37l0.14-0.3C187.07,304.88,187.24,305.11,187.42,305.33z"/>
			<path fill="#FFFFFE" stroke="#000000" stroke-width="5" stroke-linecap="round" stroke-linejoin="round" stroke-miterlimit="10"  d="M186.97,304.53l-0.07,0.13c-0.03-0.05-0.07-0.09-0.1-0.14L186.97,304.53z"/>
			<path fill="#FFFFFE" stroke="#000000" stroke-width="5" stroke-linecap="round" stroke-linejoin="round" stroke-miterlimit="10"  d="M186.9,304.66l-0.14,0.3l-0.31-0.17l-0.05-0.28l0.4,0.01C186.83,304.57,186.87,304.61,186.9,304.66z"/>
			<path fill="#FFFFFE" stroke="#000000" stroke-width="5" stroke-linecap="round" stroke-linejoin="round" stroke-miterlimit="10"  d="M186.8,304.52l-0.4-0.01l-0.13-0.71C186.44,304.04,186.62,304.28,186.8,304.52z"/>
			<polygon fill="#FFFFFE" stroke="#000000" stroke-width="5" stroke-linecap="round" stroke-linejoin="round" stroke-miterlimit="10"  points="186.76,304.96 186.55,305.38 186.45,304.79 			"/>
			<path fill="#FFFFFE" stroke="#000000" stroke-width="3" stroke-linecap="round" stroke-linejoin="round" stroke-miterlimit="10"  d="M186.45,304.79l0.1,0.59l-9.86,19.94c-2.55-2.78-4.96-5.7-7.19-8.74c-3.05-4.12-5.8-8.46-8.21-13.01
				l24.62,0.92L186.45,304.79z"/>
			<polygon fill="#FFFFFE" stroke="#000000" stroke-width="5" stroke-linecap="round" stroke-linejoin="round" stroke-miterlimit="10"  points="186.4,304.51 186.45,304.79 185.91,304.49 			"/>
			<path fill="#FFFFFE" stroke="#000000" stroke-width="3" stroke-linecap="round" stroke-linejoin="round" stroke-miterlimit="10"  d="M186.27,303.8l0.13,0.71l-0.49-0.02l-31.57-17.59l15.27-31.38l0.15-0.07l0.35,0.74
				C170.49,273.95,176.43,290.38,186.27,303.8z"/>
			<path fill="#FFFFFE" stroke="#000000" stroke-width="5" stroke-linecap="round" stroke-linejoin="round" stroke-miterlimit="10"  d="M185.26,205.45l0.97-0.51c-0.42,0.55-0.82,1.11-1.2,1.68L185.26,205.45z"/>
			<path fill="#FFFFFE" stroke="#000000" stroke-width="3" stroke-linecap="round" stroke-linejoin="round" stroke-miterlimit="10"  d="M185.91,304.49l-24.62-0.92c-2.83-5.29-5.21-10.84-7.09-16.62l0.14-0.05L185.91,304.49z"/>
			<path fill="#FFFFFE" stroke="#000000" stroke-width="5" stroke-linecap="round" stroke-linejoin="round" stroke-miterlimit="10"  d="M184.74,205.73l0.52-0.28l-0.23,1.17c-0.02,0.02-0.03,0.03-0.03,0.05L184.74,205.73z"/>
			<path fill="#FFFFFE" stroke="#000000" stroke-width="5" stroke-linecap="round" stroke-linejoin="round" stroke-miterlimit="10"  d="M185,206.67c0-0.02,0.01-0.03,0.03-0.05l-0.02,0.1L185,206.67z"/>
			<path fill="#FFFFFE" stroke="#000000" stroke-width="5" stroke-linecap="round" stroke-linejoin="round" stroke-miterlimit="10"  d="M185,206.67l0.01,0.05l-0.05-0.01C184.97,206.7,184.98,206.68,185,206.67z"/>
			<path fill="#FFFFFE" stroke="#000000" stroke-width="5" stroke-linecap="round" stroke-linejoin="round" stroke-miterlimit="10"  d="M185,206.67c-0.02,0.01-0.03,0.03-0.04,0.04l-1.6-0.25l1.38-0.73L185,206.67z"/>
			<path fill="#FFFFFE" stroke="#000000" stroke-width="3" stroke-linecap="round" stroke-linejoin="round" stroke-miterlimit="10"  d="M183.36,206.46l1.6,0.25c-9.38,13.55-14.88,29.97-14.88,47.63c0,0.07,0,0.15,0,0.22l-0.29,0.6l-0.26-0.21
				l-15.27-32.97L183.36,206.46z"/>
			<path fill="#FFFFFE" stroke="#000000" stroke-width="3" stroke-linecap="round" stroke-linejoin="round" stroke-miterlimit="10"  d="M178.15,181.77l6.59,23.96l-1.38,0.73l-21.03-3.28c1.96-3.52,4.12-6.91,6.47-10.16
				C171.65,189.05,174.78,185.29,178.15,181.77z"/>
			<path fill="#FFFFFE" stroke="#000000" stroke-width="3" stroke-linecap="round" stroke-linejoin="round" stroke-miterlimit="10"  d="M183.36,206.46l-29.1,15.52l-0.14-0.04c2.13-6.56,4.89-12.84,8.21-18.76L183.36,206.46z"/>
			<path fill="#FFFFFE" stroke="#000000" stroke-width="5" stroke-linecap="round" stroke-linejoin="round" stroke-miterlimit="10"  d="M180.61,23.66c-0.08,0.02-0.16,0.05-0.24,0.08l0.07-0.15L180.61,23.66z"/>
			<path fill="#FFFFFE" stroke="#000000" stroke-width="5" stroke-linecap="round" stroke-linejoin="round" stroke-miterlimit="10"  d="M160.4,31.15c-33.13,14.01-62.54,35.21-86.25,61.62c-5.22,5.82-10.17,11.89-14.81,18.19l-0.35,0.08
				L51.11,105c31.21-42.36,75.32-74.68,126.46-91.05l2.87,9.64l-0.07,0.15C173.58,25.92,166.91,28.4,160.4,31.15z"/>
			<path fill="#FFFFFE" stroke="#000000" stroke-width="3" stroke-linecap="round" stroke-linejoin="round" stroke-miterlimit="10"  d="M180.44,367.68l-36.66,24.17l18.82-38.05C168.14,358.9,174.11,363.55,180.44,367.68z"/>
			<path fill="#FFFFFE" stroke="#000000" stroke-width="3" stroke-linecap="round" stroke-linejoin="round" stroke-miterlimit="10"  d="M180.37,23.74l-32.76,67.87l-88.27,19.35c4.64-6.3,9.59-12.37,14.81-18.19l64-12.95l22.25-48.67
				C166.91,28.4,173.58,25.92,180.37,23.74z"/>
			<path fill="#FFFFFE" stroke="#000000" stroke-width="5" stroke-linecap="round" stroke-linejoin="round" stroke-miterlimit="10"  d="M178.39,484.2l-0.11,0.06l-0.07-0.12C178.27,484.17,178.33,484.19,178.39,484.2z"/>
			<path fill="#FFFFFE" stroke="#000000" stroke-width="5" stroke-linecap="round" stroke-linejoin="round" stroke-miterlimit="10"  d="M156.37,475.68c7.11,3.17,14.39,5.99,21.84,8.46l0.07,0.12l-3.34,9.52
				c-50.9-16.93-94.67-49.69-125.44-92.41l8.18-5.65l0.3,0.04c4.16,5.77,8.58,11.35,13.23,16.73
				C94.47,439.36,123.51,461.09,156.37,475.68z"/>
			<path fill="#FFFFFE" stroke="#000000" stroke-width="3" stroke-linecap="round" stroke-linejoin="round" stroke-miterlimit="10"  d="M132.48,405.96l45.73,78.18c-7.45-2.47-14.73-5.29-21.84-8.46l-32.21-57.11l-52.95-6.08
				c-4.65-5.38-9.07-10.96-13.23-16.73L132.48,405.96z"/>
			<path fill="#FFFFFE" stroke="#000000" stroke-width="3" stroke-linecap="round" stroke-linejoin="round" stroke-miterlimit="10"  d="M169.17,149.13l8.98,32.64c-3.37,3.52-6.5,7.28-9.35,11.25l-0.06-0.05l-9.57-34.88
				C162.35,154.94,165.69,151.96,169.17,149.13z"/>
			<path fill="#FFFFFE" stroke="#000000" stroke-width="3" stroke-linecap="round" stroke-linejoin="round" stroke-miterlimit="10"  d="M176.69,325.32L162.6,353.8c-2.67-2.47-5.25-5.04-7.72-7.71l14.59-29.49l0.03-0.02
				C171.73,319.62,174.14,322.54,176.69,325.32z"/>
			<path fill="#FFFFFE" stroke="#000000" stroke-width="5" stroke-linecap="round" stroke-linejoin="round" stroke-miterlimit="10"  d="M170.08,254.56c0,0.55,0.01,1.09,0.03,1.63l-0.35-0.74l0.24-0.13l-0.21-0.16L170.08,254.56z"/>
			<polygon fill="#FFFFFE" stroke="#000000" stroke-width="5" stroke-linecap="round" stroke-linejoin="round" stroke-miterlimit="10"  points="170,255.32 169.76,255.45 169.71,255.33 169.79,255.16 			"/>
			<polygon fill="#FFFFFE" stroke="#000000" stroke-width="5" stroke-linecap="round" stroke-linejoin="round" stroke-miterlimit="10"  points="169.53,254.95 169.79,255.16 169.71,255.33 			"/>
			<polygon fill="#FFFFFE" stroke="#000000" stroke-width="5" stroke-linecap="round" stroke-linejoin="round" stroke-miterlimit="10"  points="169.71,255.33 169.76,255.45 169.61,255.52 			"/>
			<path fill="#FFFFFE" stroke="#000000" stroke-width="3" stroke-linecap="round" stroke-linejoin="round" stroke-miterlimit="10"  d="M169.53,254.95l0.18,0.38l-0.1,0.19l-19.95,10.53c-0.42-3.65-0.64-7.36-0.65-11.12l0.03-0.02l-0.03-0.03
				c-0.01-0.18-0.01-0.36-0.01-0.54c0-5,0.35-9.92,1.04-14.73L169.53,254.95z"/>
			<path fill="#FFFFFE" stroke="#000000" stroke-width="3" stroke-linecap="round" stroke-linejoin="round" stroke-miterlimit="10"  d="M149.66,266.05l19.95-10.53l-15.27,31.38l-0.14,0.05C151.99,280.25,150.45,273.26,149.66,266.05z"/>
			<path fill="#FFFFFE" stroke="#000000" stroke-width="3" stroke-linecap="round" stroke-linejoin="round" stroke-miterlimit="10"  d="M154.26,221.98l15.27,32.97l-19.49-15.34c0.85-6.07,2.22-11.98,4.08-17.67L154.26,221.98z"/>
			<path fill="#FFFFFE" stroke="#000000" stroke-width="3" stroke-linecap="round" stroke-linejoin="round" stroke-miterlimit="10"  d="M169.5,316.58l-0.03,0.02l-36.22-1.67c-2.07-4.09-3.93-8.3-5.58-12.61l33.62,1.25
				C163.7,308.12,166.45,312.46,169.5,316.58z"/>
			<path fill="#FFFFFE" stroke="#000000" stroke-width="3" stroke-linecap="round" stroke-linejoin="round" stroke-miterlimit="10"  d="M169.47,316.6l-14.59,29.49c-8.58-9.28-15.89-19.76-21.63-31.16L169.47,316.6z"/>
			<path fill="#FFFFFE" stroke="#000000" stroke-width="3" stroke-linecap="round" stroke-linejoin="round" stroke-miterlimit="10"  d="M157.52,106.75l11.65,42.38c-3.48,2.83-6.82,5.81-10,8.96l-13.39-48.77L157.52,106.75z"/>
			<path fill="#FFFFFE" stroke="#000000" stroke-width="3" stroke-linecap="round" stroke-linejoin="round" stroke-miterlimit="10"  d="M168.74,192.97l0.06,0.05c-2.35,3.25-4.51,6.64-6.47,10.16l-31.31-4.88c1.58-3.45,3.3-6.82,5.16-10.11
				L168.74,192.97z"/>
			<path fill="#FFFFFE" stroke="#000000" stroke-width="3" stroke-linecap="round" stroke-linejoin="round" stroke-miterlimit="10"  d="M159.17,158.09l9.57,34.88l-32.56-4.78C142.41,177.1,150.18,166.97,159.17,158.09z"/>
			<path fill="#FFFFFE" stroke="#000000" stroke-width="3" stroke-linecap="round" stroke-linejoin="round" stroke-miterlimit="10"  d="M162.6,353.8l-18.82,38.05l-10.81-1.48l21.91-44.28C157.35,348.76,159.93,351.33,162.6,353.8z"/>
			<path fill="#FFFFFE" stroke="#000000" stroke-width="3" stroke-linecap="round" stroke-linejoin="round" stroke-miterlimit="10"  d="M131.02,198.3l31.31,4.88c-3.32,5.92-6.08,12.2-8.21,18.76c-1.86,5.69-3.23,11.6-4.08,17.67L123.6,218.8
				C125.53,211.72,128.02,204.87,131.02,198.3z"/>
			<path fill="#FFFFFE" stroke="#000000" stroke-width="3" stroke-linecap="round" stroke-linejoin="round" stroke-miterlimit="10"  d="M161.29,303.57l-33.62-1.25c-2.62-6.89-4.7-14.04-6.17-21.41l28.16-14.86c0.79,7.21,2.33,14.2,4.54,20.9
				C156.08,292.73,158.46,298.28,161.29,303.57z"/>
			<path fill="#FFFFFE" stroke="#000000" stroke-width="3" stroke-linecap="round" stroke-linejoin="round" stroke-miterlimit="10"  d="M160.4,31.15l-22.25,48.67l-64,12.95C97.86,66.36,127.27,45.16,160.4,31.15z"/>
			<path fill="#FFFFFE" stroke="#000000" stroke-width="3" stroke-linecap="round" stroke-linejoin="round" stroke-miterlimit="10"  d="M159.17,158.09c-8.99,8.88-16.76,19.01-22.99,30.1l-48.83-7.18l-10.21-56.67l68.64-15.02L159.17,158.09z"
				/>
			<path fill="#FFFFFE" stroke="#000000" stroke-width="3" stroke-linecap="round" stroke-linejoin="round" stroke-miterlimit="10"  d="M124.16,418.57l32.21,57.11c-32.86-14.59-61.9-36.32-85.16-63.19L124.16,418.57z"/>
			<path fill="#FFFFFE" stroke="#000000" stroke-width="3" stroke-linecap="round" stroke-linejoin="round" stroke-miterlimit="10"  d="M154.88,346.09l-21.91,44.28l-57.02-7.79l6.9-69.97h0.04l50.36,2.32
				C138.99,326.33,146.3,336.81,154.88,346.09z"/>
			<path fill="#FFFFFE" stroke="#000000" stroke-width="3" stroke-linecap="round" stroke-linejoin="round" stroke-miterlimit="10"  d="M123.6,218.8l26.44,20.81c-0.69,4.81-1.04,9.73-1.04,14.73c0,0.18,0,0.36,0.01,0.54l-28.35-22.65
				C121.42,227.68,122.4,223.19,123.6,218.8z"/>
			<path fill="#FFFFFE" stroke="#000000" stroke-width="3" stroke-linecap="round" stroke-linejoin="round" stroke-miterlimit="10"  d="M149.66,266.05l-28.16,14.86c-0.71-3.51-1.28-7.07-1.71-10.67l29.22-15.31
				C149.02,258.69,149.24,262.4,149.66,266.05z"/>
			<path fill="#FFFFFE" stroke="#000000" stroke-width="5" stroke-linecap="round" stroke-linejoin="round" stroke-miterlimit="10"  d="M149.04,254.91l-0.03,0.02c-0.01-0.01-0.01-0.03,0-0.05L149.04,254.91z"/>
			<path fill="#FFFFFE" stroke="#000000" stroke-width="3" stroke-linecap="round" stroke-linejoin="round" stroke-miterlimit="10"  d="M149.01,254.88c-0.01,0.02-0.01,0.04,0,0.05l-29.22,15.31c-0.61-5.23-0.93-10.55-0.93-15.94
				c0-7.51,0.62-14.88,1.8-22.07L149.01,254.88z"/>
			<path fill="#FFFFFE" stroke="#000000" stroke-width="3" stroke-linecap="round" stroke-linejoin="round" stroke-miterlimit="10"  d="M87.35,181.01l48.83,7.18c-1.86,3.29-3.58,6.66-5.16,10.11l-41.73-6.51L87.35,181.01z"/>
			<path fill="#FFFFFE" stroke="#000000" stroke-width="3" stroke-linecap="round" stroke-linejoin="round" stroke-miterlimit="10"  d="M133.25,314.93l-50.36-2.32h-0.04l1.18-11.92h0.04l43.6,1.63C129.32,306.63,131.18,310.84,133.25,314.93z
				"/>
			<path fill="#FFFFFE" stroke="#000000" stroke-width="3" stroke-linecap="round" stroke-linejoin="round" stroke-miterlimit="10"  d="M89.29,191.79l41.73,6.51c-3,6.57-5.49,13.42-7.42,20.5L89.29,191.79z"/>
			<path fill="#FFFFFE" stroke="#000000" stroke-width="3" stroke-linecap="round" stroke-linejoin="round" stroke-miterlimit="10"  d="M127.67,302.32l-43.6-1.63v-0.04l37.43-19.74C122.97,288.28,125.05,295.43,127.67,302.32z"/>
			<path fill="#FFFFFE" stroke="#000000" stroke-width="3" stroke-linecap="round" stroke-linejoin="round" stroke-miterlimit="10"  d="M89.29,191.79l34.31,27.01c-1.2,4.39-2.18,8.88-2.94,13.43l-39.35-31.46L89.29,191.79z"/>
			<path fill="#FFFFFE" stroke="#000000" stroke-width="3" stroke-linecap="round" stroke-linejoin="round" stroke-miterlimit="10"  d="M81.31,200.77l39.35,31.46c-1.18,7.19-1.8,14.56-1.8,22.07c0,5.39,0.32,10.71,0.93,15.94L76.16,293.1
				L34.6,253.28L81.31,200.77z"/>
			<path fill="#FFFFFE" stroke="#000000" stroke-width="3" stroke-linecap="round" stroke-linejoin="round" stroke-miterlimit="10"  d="M84.07,300.65v0.04h-0.04v-0.04l-7.87-7.55l43.63-22.86c0.43,3.6,1,7.16,1.71,10.67L84.07,300.65z"/>
			<path fill="#FFFFFE" stroke="#000000" stroke-width="3" stroke-linecap="round" stroke-linejoin="round" stroke-miterlimit="10"  d="M59.05,111.36l13.32,73.98l-60.19,67.71c0.03-7.87,0.45-15.65,1.23-23.32h0.02l44.38-48.39l-10.6-52.3
				C50.9,122.97,54.85,117.07,59.05,111.36z"/>
			<path fill="#FFFFFE" stroke="#000000" stroke-width="3" stroke-linecap="round" stroke-linejoin="round" stroke-miterlimit="10"  d="M66.62,305.42l-8.91,89.97c-4.55-6.31-8.8-12.84-12.73-19.59l7.48-65.03l-39.45-36.26
				c-0.56-6.66-0.84-13.4-0.84-20.21c0-0.36,0-0.71,0.01-1.07L66.62,305.42z"/>
			<path fill="#FFFFFE" stroke="#000000" stroke-width="5" stroke-linecap="round" stroke-linejoin="round" stroke-miterlimit="10"  d="M59.34,110.96c-0.1,0.13-0.2,0.27-0.29,0.4l-0.06-0.32L59.34,110.96z"/>
			<path fill="#FFFFFE" stroke="#000000" stroke-width="5" stroke-linecap="round" stroke-linejoin="round" stroke-miterlimit="10"  d="M47.21,129.04c-18.2,29.96-30.09,64.14-33.8,100.69c-0.78,7.67-1.2,15.45-1.23,23.32l-0.09,0.1
				l-10.07-0.23C2.31,197.65,20.52,146.5,51.11,105l7.88,6.04l0.06,0.32C54.85,117.07,50.9,122.97,47.21,129.04z"/>
			<path fill="#FFFFFE" stroke="#000000" stroke-width="3" stroke-linecap="round" stroke-linejoin="round" stroke-miterlimit="10"  d="M57.98,395.76l-0.3-0.04l0.03-0.33C57.79,395.52,57.88,395.64,57.98,395.76z"/>
			<path fill="#FFFFFE" stroke="#000000" stroke-width="3" stroke-linecap="round" stroke-linejoin="round" stroke-miterlimit="10"  d="M47.21,129.04l10.6,52.3l-44.38,48.39h-0.02C17.12,193.18,29.01,159,47.21,129.04z"/>
			<path fill="#FFFFFE" stroke="#000000" stroke-width="5" stroke-linecap="round" stroke-linejoin="round" stroke-miterlimit="10"  d="M44.98,375.8c3.93,6.75,8.18,13.28,12.73,19.59l-0.03,0.33l-8.18,5.65
				C19.63,359.92,2.01,309.1,2.01,254.3c0-0.46,0-0.92,0.01-1.38l10.07,0.23l0.09,0.08c-0.01,0.36-0.01,0.71-0.01,1.07
				c0,6.81,0.28,13.55,0.84,20.21C16.06,311.17,27.34,345.56,44.98,375.8z"/>
			<path fill="#FFFFFE" stroke="#000000" stroke-width="3" stroke-linecap="round" stroke-linejoin="round" stroke-miterlimit="10"  d="M52.46,310.77l-7.48,65.03c-17.64-30.24-28.92-64.63-31.97-101.29L52.46,310.77z"/>
			<path fill="#FFFFFE" stroke="#000000" stroke-width="5" stroke-linecap="round" stroke-linejoin="round" stroke-miterlimit="10"  d="M12.18,253.05c-0.01,0.06-0.01,0.12,0,0.18l-0.09-0.08L12.18,253.05z"/>
		</g>
	</g>
</g>
</svg>
