<?xml version="1.0" encoding="UTF-8"?>
<!DOCTYPE svg PUBLIC "-//W3C//DTD SVG 1.1//EN" "http://www.w3.org/Graphics/SVG/1.1/DTD/svg11.dtd">
<svg xmlns="http://www.w3.org/2000/svg" xml:space="preserve" width="500px" height="500px" version="1.1" shape-rendering="geometricPrecision" text-rendering="geometricPrecision" image-rendering="optimizeQuality" fill-rule="evenodd" clip-rule="evenodd"
viewBox="0 0 1168 1168"
 xmlns:xlink="http://www.w3.org/1999/xlink">
 <g id="geometric_2">
  <metadata id="CorelCorpID_0Corel-Layer"/>
  <circle fill="#FFFFFF" stroke="#000000" stroke-width="16.5352" stroke-linecap="round" stroke-linejoin="round" cx="584" cy="584" r="576"/>
  <circle fill="#FFFFFF" stroke="#000000" stroke-width="4.13409" stroke-linecap="round" stroke-linejoin="round" cx="584" cy="584" r="356"/>
  <circle fill="#FFFFFF" stroke="#000000" stroke-width="4.13409" stroke-linecap="round" stroke-linejoin="round" cx="584" cy="584" r="429"/>
  <path fill="none" stroke="#000000" stroke-width="4.13409" stroke-linecap="round" stroke-linejoin="round" d="M1034 944c-14,-3 -25,-9 -37,-18 -50,-36 -61,-106 -25,-155 36,-50 106,-61 155,-25 4,3 4,3 8,6"/>
  <path fill="none" stroke="#000000" stroke-width="4.13409" stroke-linecap="round" stroke-linejoin="round" d="M1107 342c-9,11 -19,18 -32,25 -54,28 -122,7 -150,-47 -28,-54 -7,-122 47,-150 4,-2 5,-3 9,-4"/>
  <path fill="none" stroke="#000000" stroke-width="4.13409" stroke-linecap="round" stroke-linejoin="round" d="M808 53c1,14 -2,26 -7,40 -21,58 -85,87 -143,66 -58,-21 -87,-85 -66,-143 2,-4 2,-5 4,-9"/>
  <path fill="none" stroke="#000000" stroke-width="4.13409" stroke-linecap="round" stroke-linejoin="round" d="M601 8c6,13 8,25 8,40 1,61 -48,112 -109,113 -61,1 -112,-48 -113,-109 0,-4 0,-5 0,-10"/>
  <path fill="none" stroke="#000000" stroke-width="4.13409" stroke-linecap="round" stroke-linejoin="round" d="M392 41c10,10 16,20 22,34 23,57 -4,122 -61,145 -57,23 -122,-4 -145,-61 -2,-4 -2,-5 -3,-9"/>
  <path fill="none" stroke="#000000" stroke-width="4.13409" stroke-linecap="round" stroke-linejoin="round" d="M115 918c7,-13 15,-21 27,-31 48,-38 118,-29 156,19 38,48 29,118 -19,156 -3,3 -4,3 -8,6"/>
  <path fill="none" stroke="#000000" stroke-width="4.13409" stroke-linecap="round" stroke-linejoin="round" d="M267 1065c2,-14 6,-25 14,-38 31,-53 100,-70 152,-39 53,31 70,100 39,152 -2,4 -3,5 -5,8"/>
  <path fill="none" stroke="#000000" stroke-width="4.13409" stroke-linecap="round" stroke-linejoin="round" d="M462 1147c-3,-14 -3,-26 -1,-41 10,-61 68,-101 128,-91 61,10 101,68 91,128 -1,4 -1,5 -2,10"/>
  <path fill="none" stroke="#000000" stroke-width="4.13409" stroke-linecap="round" stroke-linejoin="round" d="M674 1153c-8,-12 -12,-23 -15,-38 -12,-60 26,-119 87,-131 60,-12 119,26 131,87 1,4 1,5 2,10"/>
  <path fill="none" stroke="#000000" stroke-width="4.13409" stroke-linecap="round" stroke-linejoin="round" d="M873 1082c-12,-8 -20,-17 -28,-30 -33,-52 -18,-120 33,-154 52,-33 120,-18 154,33 2,4 3,5 5,8"/>
  <path fill="none" stroke="#000000" stroke-width="4.13409" stroke-linecap="round" stroke-linejoin="round" d="M1034 944c-14,-3 -25,-9 -37,-18 -50,-36 -61,-106 -25,-155 36,-50 106,-61 155,-25 4,3 4,3 8,6"/>
  <path fill="none" stroke="#000000" stroke-width="4.13409" stroke-linecap="round" stroke-linejoin="round" d="M1133 758c-14,2 -26,1 -41,-3 -59,-16 -95,-77 -79,-136 16,-59 77,-95 136,-79 4,1 5,1 9,3"/>
  <path fill="none" stroke="#000000" stroke-width="4.13409" stroke-linecap="round" stroke-linejoin="round" d="M1159 548c-13,7 -24,10 -39,12 -61,7 -116,-37 -123,-98 -7,-61 37,-116 98,-123 4,0 5,-1 10,-1"/>
  <circle fill="#FFFFFF" stroke="#000000" stroke-width="4.13409" stroke-linecap="round" stroke-linejoin="round" cx="522" cy="197" r="36"/>
  <circle fill="#FFFFFF" stroke="#000000" stroke-width="4.13409" stroke-linecap="round" stroke-linejoin="round" transform="matrix(1.28708 -0.418199 0.418199 1.28708 405.289 235.009)" r="27"/>
  <circle fill="#FFFFFF" stroke="#000000" stroke-width="4.13409" stroke-linecap="round" stroke-linejoin="round" transform="matrix(-1.09486 -0.795462 0.795462 -1.09486 406.867 934.211)" r="27"/>
  <circle fill="#FFFFFF" stroke="#000000" stroke-width="4.13409" stroke-linecap="round" stroke-linejoin="round" transform="matrix(-1.28708 -0.418199 0.418199 -1.28708 523.703 971.882)" r="27"/>
  <circle fill="#FFFFFF" stroke="#000000" stroke-width="4.13409" stroke-linecap="round" stroke-linejoin="round" cx="646" cy="972" r="36"/>
  <circle fill="#FFFFFF" stroke="#000000" stroke-width="4.13409" stroke-linecap="round" stroke-linejoin="round" transform="matrix(-1.28708 0.418199 -0.418199 -1.28708 763.128 933.407)" r="27"/>
  <path fill="none" stroke="#000000" stroke-width="4.13409" stroke-linecap="round" stroke-linejoin="round" d="M984 170c-5,14 -11,24 -21,35 -41,46 -111,51 -157,10 -46,-41 -51,-111 -10,-157 3,-3 4,-4 7,-7"/>
  <path fill="none" stroke="#000000" stroke-width="4.13409" stroke-linecap="round" stroke-linejoin="round" d="M209 148c13,6 23,13 33,24 42,45 40,115 -4,157 -45,42 -115,40 -157,-4 -3,-3 -4,-4 -6,-7"/>
  <circle fill="#FFFFFF" stroke="#000000" stroke-width="4.13409" stroke-linecap="round" stroke-linejoin="round" transform="matrix(1.09486 0.795462 -0.795462 1.09486 761.55 234.206)" r="27"/>
  <circle fill="#FFFFFF" stroke="#000000" stroke-width="4.13409" stroke-linecap="round" stroke-linejoin="round" transform="matrix(1.28708 0.418199 -0.418199 1.28708 644.714 196.534)" r="27"/>
  <circle fill="#FFFFFF" stroke="#000000" stroke-width="4.13409" stroke-linecap="round" stroke-linejoin="round" cx="584" cy="584" r="282"/>
  <circle fill="#FFFFFF" stroke="#000000" stroke-width="4.13409" stroke-linecap="round" stroke-linejoin="round" transform="matrix(0.956943 0.956943 -0.956943 0.956943 728.301 386.719)" r="27"/>
  <circle fill="#FFFFFF" stroke="#000000" stroke-width="4.13409" stroke-linecap="round" stroke-linejoin="round" transform="matrix(1.09486 -0.795462 0.795462 1.09486 306.138 307.389)" r="27"/>
  <circle fill="#FFFFFF" stroke="#000000" stroke-width="4.13409" stroke-linecap="round" stroke-linejoin="round" transform="matrix(-0.795462 1.09486 -1.09486 -0.795462 934.211 761.55)" r="27"/>
  <circle fill="#FFFFFF" stroke="#000000" stroke-width="4.13409" stroke-linecap="round" stroke-linejoin="round" transform="matrix(-0.418199 1.28708 -1.28708 -0.418199 971.883 644.714)" r="27"/>
  <circle fill="#FFFFFF" stroke="#000000" stroke-width="4.13409" stroke-linecap="round" stroke-linejoin="round" transform="matrix(-1.08157E-013 1.35332 -1.35332 -1.08157E-013 971.606 521.954)" r="27"/>
  <circle fill="#FFFFFF" stroke="#000000" stroke-width="4.13409" stroke-linecap="round" stroke-linejoin="round" transform="matrix(0.418199 1.28708 -1.28708 0.418199 933.408 405.289)" r="27"/>
  <circle fill="#FFFFFF" stroke="#000000" stroke-width="4.13409" stroke-linecap="round" stroke-linejoin="round" transform="matrix(0.795462 1.09486 -1.09486 0.795462 861.027 306.138)" r="27"/>
  <circle fill="#FFFFFF" stroke="#000000" stroke-width="4.13409" stroke-linecap="round" stroke-linejoin="round" cx="584" cy="584" r="209"/>
  <circle fill="#FFFFFF" stroke="#000000" stroke-width="4.13409" stroke-linecap="round" stroke-linejoin="round" transform="matrix(-0.418199 1.28708 -1.28708 -0.418199 825.589 622.937)" r="27"/>
  <circle fill="#FFFFFF" stroke="#000000" stroke-width="4.13409" stroke-linecap="round" stroke-linejoin="round" transform="matrix(-1.32375 -0.281371 0.281371 -1.32375 570.923 828.315)" r="27"/>
  <circle fill="#FFFFFF" stroke="#000000" stroke-width="4.13409" stroke-linecap="round" stroke-linejoin="round" transform="matrix(-1.33666 0.211706 -0.211706 -1.33666 659.285 816.862)" r="27"/>
  <circle fill="#FFFFFF" stroke="#000000" stroke-width="4.13409" stroke-linecap="round" stroke-linejoin="round" transform="matrix(-0.795462 -1.09486 1.09486 -0.795462 307.39 862.279)" r="27"/>
  <circle fill="#FFFFFF" stroke="#000000" stroke-width="4.13409" stroke-linecap="round" stroke-linejoin="round" transform="matrix(-1.09486 0.795462 -0.795462 -1.09486 862.279 861.027)" r="27"/>
  <path fill="none" stroke="#000000" stroke-width="4.13409" stroke-linecap="round" stroke-linejoin="round" d="M26 726c11,-9 22,-14 36,-19 59,-18 121,15 139,74 18,59 -15,121 -74,139 -4,1 -5,2 -9,2"/>
  <circle fill="#FFFFFF" stroke="#000000" stroke-width="4.13409" stroke-linecap="round" stroke-linejoin="round" transform="matrix(-0.795462 -1.09486 1.09486 -0.795462 410.996 756.725)" r="27"/>
  <circle fill="#FFFFFF" stroke="#000000" stroke-width="4.13409" stroke-linecap="round" stroke-linejoin="round" transform="matrix(-1.13499 -0.737071 0.737071 -1.13499 484.325 807.34)" r="27"/>
  <circle fill="#FFFFFF" stroke="#000000" stroke-width="4.13409" stroke-linecap="round" stroke-linejoin="round" transform="matrix(-1.17201 0.676661 -0.676661 -1.17201 737.674 774.505)" r="27"/>
  <circle fill="#FFFFFF" stroke="#000000" stroke-width="4.13409" stroke-linecap="round" stroke-linejoin="round" transform="matrix(-0.418199 -1.28708 1.28708 -0.418199 235.009 763.127)" r="27"/>
  <circle fill="#FFFFFF" stroke="#000000" stroke-width="4.13409" stroke-linecap="round" stroke-linejoin="round" transform="matrix(-0.350265 -1.30721 1.30721 -0.350265 360.676 683.193)" r="27"/>
  <circle fill="#FFFFFF" stroke="#000000" stroke-width="4.13409" stroke-linecap="round" stroke-linejoin="round" transform="matrix(0.0708274 1.35147 -1.35147 0.0708274 823.436 533.862)" r="27"/>
  <circle fill="#FFFFFF" stroke="#000000" stroke-width="4.13409" stroke-linecap="round" stroke-linejoin="round" transform="matrix(0.550445 1.23632 -1.23632 0.550445 789.504 451.474)" r="27"/>
  <path fill="none" stroke="#000000" stroke-width="4.13409" stroke-linecap="round" stroke-linejoin="round" d="M12 515c14,-5 26,-6 41,-5 61,5 107,58 103,119 -5,61 -58,107 -119,103 -4,0 -5,0 -10,-1"/>
  <circle fill="#FFFFFF" stroke="#000000" stroke-width="8.2676" stroke-linecap="round" stroke-linejoin="round" cx="584" cy="584" r="135"/>
  <circle fill="#FFFFFF" stroke="#000000" stroke-width="4.13409" stroke-linecap="round" stroke-linejoin="round" transform="matrix(-0.851673 1.05173 -1.05173 -0.851673 795.677 706.868)" r="27"/>
  <circle fill="#FFFFFF" stroke="#000000" stroke-width="4.13409" stroke-linecap="round" stroke-linejoin="round" transform="matrix(1.26343 -0.484987 0.484987 1.26343 462.401 372.247)" r="27"/>
  <circle fill="#FFFFFF" stroke="#000000" stroke-width="4.13409" stroke-linecap="round" stroke-linejoin="round" transform="matrix(1.23632 0.550445 -0.550445 1.23632 647.956 348.198)" r="27"/>
  <circle fill="#FFFFFF" stroke="#000000" stroke-width="4.13409" stroke-linecap="round" stroke-linejoin="round" transform="matrix(1.35147 0.0708274 -0.0708274 1.35147 553.077 341.019)" r="27"/>
  <circle fill="#FFFFFF" stroke="#000000" stroke-width="4.13409" stroke-linecap="round" stroke-linejoin="round" transform="matrix(0.795462 -1.09486 1.09486 0.795462 234.206 406.866)" r="27"/>
  <path fill="none" stroke="#000000" stroke-width="4.13409" stroke-linecap="round" stroke-linejoin="round" d="M76 313c14,1 26,4 40,10 55,26 79,93 53,148 -26,55 -93,79 -148,53 -4,-2 -5,-2 -9,-5"/>
  <circle fill="#FFFFFF" stroke="#000000" stroke-width="4.13409" stroke-linecap="round" stroke-linejoin="round" transform="matrix(1.00571 -0.905549 0.905549 1.00571 394.531 429.978)" r="27"/>
  <circle fill="#FFFFFF" stroke="#000000" stroke-width="8.2676" stroke-linecap="round" stroke-linejoin="round" cx="584" cy="584" r="62"/>
  <circle fill="#FFFFFF" stroke="#000000" stroke-width="4.13409" stroke-linecap="round" stroke-linejoin="round" transform="matrix(0.614395 -1.20582 1.20582 0.614395 351.858 508.196)" r="27"/>
  <circle fill="#FFFFFF" stroke="#000000" stroke-width="4.13409" stroke-linecap="round" stroke-linejoin="round" transform="matrix(0.141461 -1.34591 1.34591 0.141461 340.051 596.511)" r="27"/>
  <circle fill="#FFFFFF" stroke="#000000" stroke-width="4.13409" stroke-linecap="round" stroke-linejoin="round" transform="matrix(0.418199 -1.28708 1.28708 0.418199 196.534 523.703)" r="27"/>
  <circle fill="#FFFFFF" stroke="#000000" stroke-width="4.13409" stroke-linecap="round" stroke-linejoin="round" transform="matrix(3.61164E-014 -1.35332 1.35332 3.61164E-014 196.811 646.462)" r="27"/>
 </g>
</svg>
