<?xml version="1.0" encoding="utf-8"?>
<svg version="1.2" baseProfile="tiny" id="Layer_1" xmlns="http://www.w3.org/2000/svg" xmlns:xlink="http://www.w3.org/1999/xlink"
	 x="0px" y="0px" width="473.6px" height="473.83px" viewBox="0 0 473.6 473.83" xml:space="preserve">
<g>
	<g id="XMLID_1_">
		<g>
			<polygon fill="#FFFFFE" stroke="#000000" stroke-width="2" stroke-linecap="round" stroke-linejoin="round" points="466.13,233.73 473.1,241.2 463.12,239.07 460.12,248.83 456.99,239.12 447.04,241.4 
				453.89,233.83 446.93,226.36 456.9,228.49 459.9,218.73 463.03,228.46 472.98,226.15 			"/>
			<polygon fill="#FFFFFE" stroke="#000000" stroke-width="2" stroke-linecap="round" stroke-linejoin="round" points="471.76,263.27 463.81,269.67 469.52,278.14 459.99,274.47 455.51,283.63 453.94,273.55 
				443.76,274.26 451.7,267.84 446,259.37 455.51,263.06 460,253.88 461.58,263.96 			"/>
			<polygon fill="#FFFFFE" stroke="#000000" stroke-width="2" stroke-linecap="round" stroke-linejoin="round" points="470.86,204.17 460.66,203.61 459.24,213.73 454.62,204.61 445.15,208.44 450.74,199.89 
				442.69,193.6 452.89,194.16 454.31,184.04 458.92,193.14 468.39,189.33 462.81,197.89 			"/>
			<polygon fill="#FFFFFE" stroke="#000000" stroke-width="2" stroke-linecap="round" stroke-linejoin="round" points="464.75,299.7 455.89,304.8 460.21,314.05 451.36,308.93 445.52,317.29 445.54,307.09 
				435.36,306.19 444.22,301.11 439.9,291.84 448.74,296.97 454.6,288.6 454.57,298.82 			"/>
			<polygon fill="#FFFFFE" stroke="#000000" stroke-width="2" stroke-linecap="round" stroke-linejoin="round" points="462.85,167.94 452.7,168.99 452.87,179.2 446.89,170.93 438.14,176.18 442.32,166.86 
				433.38,161.91 443.54,160.86 443.37,150.64 449.35,158.93 458.11,153.66 453.92,162.98 			"/>
			<polygon fill="#FFFFFE" stroke="#000000" stroke-width="2" stroke-linecap="round" stroke-linejoin="round" points="452.11,334.61 442.57,338.25 445.38,348.06 437.48,341.62 430.38,348.98 431.99,338.88 
				422.1,336.4 431.63,332.78 428.82,322.95 436.73,329.39 443.83,322.05 442.22,332.13 			"/>
			<polygon fill="#FFFFFE" stroke="#000000" stroke-width="2" stroke-linecap="round" stroke-linejoin="round" points="449.28,133.41 439.42,136.03 441.19,146.08 433.99,138.85 426.16,145.42 428.82,135.56 
				419.23,132.05 429.11,129.44 427.33,119.38 434.54,126.61 442.35,120.05 439.7,129.92 			"/>
			<polygon fill="#FFFFFE" stroke="#000000" stroke-width="2" stroke-linecap="round" stroke-linejoin="round" points="418.56,256.44 441.69,279.96 410.54,259.49 377.92,247.54 387.71,243.74 389.11,242.5 
				389.36,242.78 			"/>
			<polygon fill="#FFFFFE" stroke="#000000" stroke-width="2" stroke-linecap="round" stroke-linejoin="round" points="434.19,367.11 424.2,369.21 425.43,379.35 418.62,371.74 410.48,377.89 413.64,368.18 
				404.24,364.18 414.24,362.08 413,351.94 419.81,359.55 427.97,353.4 424.79,363.11 			"/>
			<polygon fill="#FFFFFE" stroke="#000000" stroke-width="2" stroke-linecap="round" stroke-linejoin="round" points="431.78,238.56 400.23,232.68 404.6,228.81 404.7,228.93 			"/>
			<polygon fill="#FFFFFE" stroke="#000000" stroke-width="2" stroke-linecap="round" stroke-linejoin="round" points="430.5,101.43 421.15,105.56 424.47,115.22 416.24,109.19 409.53,116.9 410.61,106.75 
				400.6,104.8 409.94,100.67 406.61,91.01 414.86,97.02 421.55,89.31 420.47,99.48 			"/>
			<polygon fill="#FFFFFE" stroke="#000000" stroke-width="2" stroke-linecap="round" stroke-linejoin="round" points="423.08,286.45 426.04,293.4 423.08,300.36 420.11,307.33 412.97,310.21 405.82,313.09 
				398.67,310.21 391.52,307.33 388.56,300.36 385.61,293.4 388.56,286.45 391.52,279.48 398.67,276.6 405.82,273.72 412.97,276.6 
				420.11,279.48 			"/>
			<polygon fill="#FFFFFE" stroke="#000000" stroke-width="2" stroke-linecap="round" stroke-linejoin="round" points="425.48,177.99 406.34,196.9 381.38,209.8 381.28,209.88 377.37,204.92 377.65,204.7 			"/>
			<polygon fill="#FFFFFE" stroke="#000000" stroke-width="2" stroke-linecap="round" stroke-linejoin="round" points="380.46,241.04 384.12,239.95 395.43,232.19 401.21,228.22 419.32,215.8 404.6,228.81 
				400.23,232.68 389.11,242.5 387.71,243.74 377.92,247.54 346.94,259.55 345.18,254.54 341.82,252.52 366.81,245.09 			"/>
			<polygon fill="#FFFFFE" stroke="#000000" stroke-width="2" stroke-linecap="round" stroke-linejoin="round" points="413.34,150 416.17,157.01 413.14,164.11 410.12,171.2 403.04,174.21 395.94,177.23 
				388.93,174.42 381.92,171.59 379.09,164.57 376.26,157.56 379.29,150.45 382.31,143.37 389.39,140.36 396.49,137.32 
				403.5,140.15 410.51,142.98 			"/>
			<polygon fill="#FFFFFE" stroke="#000000" stroke-width="2" stroke-linecap="round" stroke-linejoin="round" points="412.03,122.21 377.55,128.87 344.3,144.03 344.28,144.02 348.35,134.85 348.47,132.96 
				348.77,132.98 379.09,121.93 			"/>
			<polygon fill="#FFFFFE" stroke="#000000" stroke-width="2" stroke-linecap="round" stroke-linejoin="round" points="411.78,328.88 384.95,328.68 358.17,319.9 358.1,319.89 358.8,313.88 359.14,313.92 			"/>
			<polygon fill="#FFFFFE" stroke="#000000" stroke-width="2" stroke-linecap="round" stroke-linejoin="round" points="411.41,396.39 401.21,396.92 400.84,407.12 395.3,398.55 386.29,403.34 390.95,394.24 
				382.29,388.84 392.49,388.31 392.84,378.11 398.38,386.68 407.39,381.89 402.75,390.99 			"/>
			<polygon fill="#FFFFFE" stroke="#000000" stroke-width="2" stroke-linecap="round" stroke-linejoin="round" points="406.92,72.77 398.35,78.32 403.14,87.35 394.05,82.69 388.64,91.35 388.12,81.15 377.92,80.79 
				386.49,75.25 381.7,66.22 390.79,70.88 396.2,62.22 396.72,72.42 			"/>
			<polygon fill="#FFFFFE" stroke="#000000" stroke-width="2" stroke-linecap="round" stroke-linejoin="round" points="384.31,421.76 374.16,420.68 372.21,430.71 368.08,421.36 358.43,424.68 364.44,416.44 
				356.75,409.73 366.9,410.81 368.84,400.8 372.98,410.14 382.63,406.81 376.62,415.07 			"/>
			<polygon fill="#FFFFFE" stroke="#000000" stroke-width="2" stroke-linecap="round" stroke-linejoin="round" points="379.16,48.17 371.55,55 377.7,63.15 368,59.98 364,69.37 361.9,59.39 351.77,60.62 359.37,53.79 
				353.23,45.64 362.93,48.81 366.93,39.42 369.03,49.41 			"/>
			<polygon fill="#FFFFFE" stroke="#000000" stroke-width="2" stroke-linecap="round" stroke-linejoin="round" points="375.81,99.96 349.74,117.65 349.42,117.63 349.77,112.06 349.87,112.07 			"/>
			<polygon fill="#FFFFFE" stroke="#000000" stroke-width="2" stroke-linecap="round" stroke-linejoin="round" points="361.39,350.1 373.5,376.19 354.78,349.69 361.39,350.09 			"/>
			<polygon fill="#FFFFFE" stroke="#000000" stroke-width="2" stroke-linecap="round" stroke-linejoin="round" points="359.04,347.21 380.73,351.27 361.39,350.09 354.78,349.69 340.59,348.82 338.71,348.71 
				329.35,344.57 298.69,331.01 301.01,326.15 299.88,321.64 321.14,333.53 335.12,341.36 338.81,343.42 352.58,346 			"/>
			<polygon fill="#FFFFFE" stroke="#000000" stroke-width="2" stroke-linecap="round" stroke-linejoin="round" points="354.51,195.19 364.32,180.14 363.81,161.96 368.59,179.79 361.3,197.58 356.73,195.67 
				354.49,195.48 			"/>
			<polygon fill="#FFFFFE" stroke="#000000" stroke-width="2" stroke-linecap="round" stroke-linejoin="round" points="354.28,427.54 347.04,434.76 353.6,442.57 343.74,439.91 340.25,449.5 337.63,439.64 
				327.57,441.4 334.8,434.2 328.24,426.37 338.1,429.03 341.59,419.44 344.22,429.32 			"/>
			<polygon fill="#FFFFFE" stroke="#000000" stroke-width="2" stroke-linecap="round" stroke-linejoin="round" points="349.48,290.82 367.03,287.06 379.55,273.91 370.32,289.84 352.63,297.19 352.57,297.21 
				350.72,292.72 349.28,290.99 			"/>
			<polygon fill="#FFFFFE" stroke="#000000" stroke-width="2" stroke-linecap="round" stroke-linejoin="round" points="349.77,112.06 349.42,117.63 348.47,132.96 348.35,134.85 344.28,144.02 330.61,174.87 
				325.89,172.59 321.1,173.79 321.08,173.72 333.48,151.79 341.14,138.26 343.13,134.73 345.6,121.5 346.93,114.37 350.97,92.7 			
				"/>
			<polygon fill="#FFFFFE" stroke="#000000" stroke-width="2" stroke-linecap="round" stroke-linejoin="round" points="348.81,43.24 338.71,41.61 336.24,51.52 332.61,41.98 322.79,44.8 329.23,36.87 321.89,29.76 
				331.97,31.39 334.44,21.48 338.08,31.02 347.89,28.21 341.46,36.14 			"/>
			<polygon fill="#FFFFFE" stroke="#000000" stroke-width="2" stroke-linecap="round" stroke-linejoin="round" points="340.57,349.11 351.53,379.48 351.28,412.46 344.66,377.94 329.35,344.57 338.71,348.71 
				340.59,348.82 			"/>
			<polygon fill="#FFFFFE" stroke="#000000" stroke-width="2" stroke-linecap="round" stroke-linejoin="round" points="333.34,389.62 336.36,396.72 333.53,403.73 330.72,410.75 323.7,413.58 316.69,416.41 
				309.6,413.37 302.5,410.36 299.48,403.27 296.47,396.17 299.3,389.16 302.13,382.14 309.14,379.31 316.15,376.48 323.23,379.52 
				330.33,382.53 			"/>
			<polygon fill="#FFFFFE" stroke="#000000" stroke-width="2" stroke-linecap="round" stroke-linejoin="round" points="328.62,61.62 328.4,88.48 319.67,115.36 319.66,115.4 312.59,114.57 312.61,114.38 			"/>
			<polygon fill="#FFFFFE" stroke="#000000" stroke-width="2" stroke-linecap="round" stroke-linejoin="round" points="323.01,443.59 314.74,449.57 320,458.33 310.68,454.15 305.73,463.08 304.68,452.93 
				294.47,453.1 302.75,447.11 297.5,438.35 306.82,442.54 311.76,433.59 312.81,443.76 			"/>
			<polygon fill="#FFFFFE" stroke="#000000" stroke-width="2" stroke-linecap="round" stroke-linejoin="round" points="317.13,28.09 306.94,28.07 306.04,38.24 300.96,29.39 291.69,33.7 296.82,24.87 288.46,19 
				298.67,19.02 299.55,8.85 304.65,17.7 313.9,13.4 308.78,22.22 			"/>
			<polygon fill="#FFFFFE" stroke="#000000" stroke-width="2" stroke-linecap="round" stroke-linejoin="round" points="310.02,60.67 312.9,67.83 310.02,74.98 307.14,82.13 300.18,85.09 293.22,88.06 286.27,85.09 
				279.31,82.13 276.43,74.98 273.55,67.83 276.43,60.67 279.31,53.52 286.27,50.57 293.22,47.61 300.18,50.57 307.14,53.52 			"/>
			<polygon fill="#FFFFFE" stroke="#000000" stroke-width="2" stroke-linecap="round" stroke-linejoin="round" points="287.76,216.12 296.52,236.95 258.56,227.97 279.02,195.29 			"/>
			<polygon fill="#FFFFFE" stroke="#000000" stroke-width="2" stroke-linecap="round" stroke-linejoin="round" points="296.52,236.95 287.76,257.77 279.02,278.6 258.36,245.57 			"/>
			<polygon fill="#FFFFFE" stroke="#000000" stroke-width="2" stroke-linecap="round" stroke-linejoin="round" points="296.52,236.95 258.36,245.57 258.46,236.76 258.56,227.97 			"/>
			<polygon fill="#FFFFFE" stroke="#000000" stroke-width="2" stroke-linecap="round" stroke-linejoin="round" points="268.93,377.99 295.62,425.91 276.79,406.76 264.32,382.92 263.52,381.91 268.76,377.77 			"/>
			<polygon fill="#FFFFFE" stroke="#000000" stroke-width="2" stroke-linecap="round" stroke-linejoin="round" points="292.49,122.82 290.77,124.26 290.59,124.05 286.85,106.43 273.72,93.94 289.61,103.19 
				297.18,120.87 			"/>
			<polygon fill="#FFFFFE" stroke="#000000" stroke-width="2" stroke-linecap="round" stroke-linejoin="round" points="289.64,454.54 280.53,459.15 284.36,468.62 275.8,463.04 269.52,471.09 270.08,460.89 
				259.97,459.47 269.06,454.84 265.25,445.37 273.81,450.96 280.09,442.91 279.53,453.11 			"/>
			<polygon fill="#FFFFFE" stroke="#000000" stroke-width="2" stroke-linecap="round" stroke-linejoin="round" points="283.49,18.09 273.42,19.67 274.13,29.85 267.71,21.9 259.24,27.61 262.93,18.09 253.75,13.6 
				263.83,12.02 263.13,1.84 269.54,9.79 278.01,4.07 274.33,13.6 			"/>
			<polygon fill="#FFFFFE" stroke="#000000" stroke-width="2" stroke-linecap="round" stroke-linejoin="round" points="278.43,354.88 293.52,364.64 311.63,364.18 293.83,368.94 276.06,361.84 276.01,361.82 
				277.97,357.08 278.16,354.86 			"/>
			<polygon fill="#FFFFFE" stroke="#000000" stroke-width="2" stroke-linecap="round" stroke-linejoin="round" points="279.02,195.29 258.56,227.97 252.28,221.78 246.01,215.61 			"/>
			<polygon fill="#FFFFFE" stroke="#000000" stroke-width="2" stroke-linecap="round" stroke-linejoin="round" points="258.36,245.57 279.02,278.6 245.54,258.13 251.96,251.84 			"/>
			<polygon fill="#FFFFFE" stroke="#000000" stroke-width="2" stroke-linecap="round" stroke-linejoin="round" points="279.02,195.29 246.01,215.61 236.8,178.04 257.92,186.67 			"/>
			<polygon fill="#FFFFFE" stroke="#000000" stroke-width="2" stroke-linecap="round" stroke-linejoin="round" points="279.02,278.6 257.92,287.23 237.28,295.65 236.83,294.56 245.54,258.13 			"/>
			<path fill="#FFFFFE" stroke="#000000" stroke-width="2" stroke-linecap="round" stroke-linejoin="round" d="M258.56,227.97l-0.1,8.79l-0.1,8.81l-6.4,6.27l-6.42,6.29l-8.98,0.07l-8.96,0.07l-6.28-6.17l-6.27-6.17
				l0.1-8.81l0.09-8.8l6.41-6.28l6.41-6.27l8.97-0.07l8.98-0.09l6.27,6.17L258.56,227.97z M248.01,236.95l-1.64-3.87l-1.65-3.86
				l-3.96-1.59l-3.96-1.6l-3.97,1.6l-3.96,1.59l-1.64,3.86l-1.65,3.87l1.65,3.84l1.64,3.87l3.96,1.59l3.97,1.61l3.96-1.61l3.96-1.59
				l1.65-3.87L248.01,236.95z"/>
			<polygon fill="#FFFFFE" stroke="#000000" stroke-width="2" stroke-linecap="round" stroke-linejoin="round" points="254.97,460.13 245.25,463.26 247.54,473.21 239.96,466.36 232.49,473.33 234.65,463.35 
				224.87,460.35 234.59,457.21 232.31,447.27 239.88,454.11 247.35,447.15 245.2,457.13 			"/>
			<polygon fill="#FFFFFE" stroke="#000000" stroke-width="2" stroke-linecap="round" stroke-linejoin="round" points="248.7,13.46 239,16.61 241.29,26.56 233.71,19.72 226.24,26.68 228.38,16.68 218.62,13.7 
				228.34,10.57 226.04,0.6 233.61,7.46 241.08,0.5 238.95,10.48 			"/>
			<polygon fill="#FFFFFE" stroke="#000000" stroke-width="2" stroke-linecap="round" stroke-linejoin="round" points="246.37,233.08 248.01,236.95 246.37,240.79 244.72,244.66 240.76,246.25 236.8,247.86 
				232.83,246.25 228.87,244.66 227.23,240.79 225.58,236.95 227.23,233.08 228.87,229.22 232.83,227.63 236.8,226.03 
				240.76,227.63 244.72,229.22 			"/>
			<polygon fill="#FFFFFE" stroke="#000000" stroke-width="2" stroke-linecap="round" stroke-linejoin="round" points="236.8,178.04 246.01,215.61 237.03,215.7 228.06,215.77 			"/>
			<polygon fill="#FFFFFE" stroke="#000000" stroke-width="2" stroke-linecap="round" stroke-linejoin="round" points="245.81,402.14 257.87,419.76 244.63,404.73 239.23,398.59 231.24,389.51 230.01,388.12 
				225.93,377.64 214.15,347.32 214.15,347.31 219.23,345.52 221.4,341.9 221.45,341.93 228.46,366.18 232.48,380.12 233.75,384.51 
				239.95,393.56 			"/>
			<polygon fill="#FFFFFE" stroke="#000000" stroke-width="2" stroke-linecap="round" stroke-linejoin="round" points="245.54,258.13 236.83,294.56 227.6,258.27 236.56,258.2 			"/>
			<polygon fill="#FFFFFE" stroke="#000000" stroke-width="2" stroke-linecap="round" stroke-linejoin="round" points="239.23,398.59 244.63,404.73 244.11,405.19 235.17,432.23 239.22,398.6 			"/>
			<polygon fill="#FFFFFE" stroke="#000000" stroke-width="2" stroke-linecap="round" stroke-linejoin="round" points="242.62,84.08 256.28,54.85 279.77,31.66 260.07,60.81 247.4,95.46 247.31,95.49 243.66,85.72 
				242.39,84.28 			"/>
			<polygon fill="#FFFFFE" stroke="#000000" stroke-width="2" stroke-linecap="round" stroke-linejoin="round" points="238.41,41.59 232.41,72.33 232.09,72.61 228.37,68.39 228.63,68.16 			"/>
			<polygon fill="#FFFFFE" stroke="#000000" stroke-width="2" stroke-linecap="round" stroke-linejoin="round" points="236.83,294.56 237.28,295.65 237.28,295.66 236.8,295.85 215.68,287.23 194.57,278.6 
				227.6,258.27 			"/>
			<polygon fill="#FFFFFE" stroke="#000000" stroke-width="2" stroke-linecap="round" stroke-linejoin="round" points="236.8,178.04 228.06,215.77 194.57,195.29 215.68,186.67 			"/>
			<polygon fill="#FFFFFE" stroke="#000000" stroke-width="2" stroke-linecap="round" stroke-linejoin="round" points="230.01,388.12 231.24,389.51 230.97,389.75 217.34,418.98 193.88,442.15 213.54,413.04 
				225.93,377.64 			"/>
			<polygon fill="#FFFFFE" stroke="#000000" stroke-width="2" stroke-linecap="round" stroke-linejoin="round" points="245.31,108.54 240.97,93.24 239.86,89.33 231.9,77.71 228.19,72.28 215.73,54.08 228.37,68.39 
				232.09,72.61 242.39,84.28 243.66,85.72 247.31,95.49 258.97,126.73 254.38,128.36 252.04,132.25 			"/>
			<polygon fill="#FFFFFE" stroke="#000000" stroke-width="2" stroke-linecap="round" stroke-linejoin="round" points="228.06,215.77 221.65,222.04 215.24,228.32 194.57,195.29 			"/>
			<polygon fill="#FFFFFE" stroke="#000000" stroke-width="2" stroke-linecap="round" stroke-linejoin="round" points="227.6,258.27 194.57,278.6 215.05,245.93 221.32,252.1 			"/>
			<polygon fill="#FFFFFE" stroke="#000000" stroke-width="2" stroke-linecap="round" stroke-linejoin="round" points="227.28,300.89 223.18,332.73 213.58,344.81 212.19,320.39 			"/>
			<polygon fill="#FFFFFE" stroke="#000000" stroke-width="2" stroke-linecap="round" stroke-linejoin="round" points="219.84,460.23 209.75,461.81 210.46,471.99 204.06,464.04 195.59,469.75 199.26,460.21 
				190.1,455.74 200.18,454.16 199.47,443.98 205.89,451.93 214.34,446.22 210.66,455.74 			"/>
			<polygon fill="#FFFFFE" stroke="#000000" stroke-width="2" stroke-linecap="round" stroke-linejoin="round" points="194.57,195.29 215.24,228.32 177.07,236.95 185.81,216.12 			"/>
			<polygon fill="#FFFFFE" stroke="#000000" stroke-width="2" stroke-linecap="round" stroke-linejoin="round" points="215.24,228.32 215.15,237.12 215.05,245.93 177.07,236.95 			"/>
			<polygon fill="#FFFFFE" stroke="#000000" stroke-width="2" stroke-linecap="round" stroke-linejoin="round" points="215.05,245.93 194.57,278.6 185.81,257.77 177.07,236.95 			"/>
			<polygon fill="#FFFFFE" stroke="#000000" stroke-width="2" stroke-linecap="round" stroke-linejoin="round" points="213.63,14.36 204.51,18.97 208.34,28.44 199.79,22.87 193.5,30.92 194.06,20.72 183.95,19.29 
				193.05,14.67 189.24,5.19 197.79,10.79 204.07,2.74 203.51,12.94 			"/>
			<polygon fill="#FFFFFE" stroke="#000000" stroke-width="2" stroke-linecap="round" stroke-linejoin="round" points="210.92,297.48 187.66,337.35 184.16,339.93 196.65,314.29 			"/>
			<polygon fill="#FFFFFE" stroke="#000000" stroke-width="2" stroke-linecap="round" stroke-linejoin="round" points="209.93,92.02 209.94,92.04 204.83,96.07 204.65,95.84 177.97,47.91 196.81,67.06 			"/>
			<polygon fill="#FFFFFE" stroke="#000000" stroke-width="2" stroke-linecap="round" stroke-linejoin="round" points="197.16,398.9 200.04,406.05 197.16,413.2 194.28,420.36 187.32,423.32 180.36,426.29 
				173.42,423.32 166.45,420.36 163.58,413.2 160.7,406.05 163.58,398.9 166.45,391.75 173.42,388.79 180.36,385.84 187.32,388.79 
				194.28,391.75 			"/>
			<polygon fill="#FFFFFE" stroke="#000000" stroke-width="2" stroke-linecap="round" stroke-linejoin="round" points="195.62,116.75 195.43,118.99 195.16,118.97 180.12,109.19 161.97,109.67 179.77,104.94 
				197.47,111.99 197.58,112.03 			"/>
			<polygon fill="#FFFFFE" stroke="#000000" stroke-width="2" stroke-linecap="round" stroke-linejoin="round" points="185.14,454.82 174.92,454.79 174.03,464.98 168.94,456.11 159.7,460.43 164.81,451.59 
				156.44,445.74 166.66,445.76 167.56,435.57 172.64,444.44 181.9,440.12 176.77,448.96 			"/>
			<polygon fill="#FFFFFE" stroke="#000000" stroke-width="2" stroke-linecap="round" stroke-linejoin="round" points="183,349.84 186.75,367.42 199.89,379.91 183.97,370.65 176.75,353.64 176.48,352.99 
				181.11,351.08 182.83,349.63 			"/>
			<polygon fill="#FFFFFE" stroke="#000000" stroke-width="2" stroke-linecap="round" stroke-linejoin="round" points="181.56,294.97 128.04,352.16 130.46,339.15 131.44,337.2 			"/>
			<polygon fill="#FFFFFE" stroke="#000000" stroke-width="2" stroke-linecap="round" stroke-linejoin="round" points="179.11,20.72 170.84,26.71 176.09,35.46 166.78,31.29 161.83,40.22 160.78,30.07 150.57,30.24 
				158.85,24.26 153.58,15.5 162.9,19.67 167.86,10.73 168.91,20.9 			"/>
			<polygon fill="#FFFFFE" stroke="#000000" stroke-width="2" stroke-linecap="round" stroke-linejoin="round" points="174.09,70.62 177.13,77.72 174.3,84.74 171.47,91.75 164.46,94.57 157.44,97.4 150.35,94.38 
				143.27,91.36 140.25,84.26 137.22,77.18 140.05,70.16 142.88,63.15 149.89,60.32 156.9,57.49 164,60.5 171.08,63.52 			"/>
			<polygon fill="#FFFFFE" stroke="#000000" stroke-width="2" stroke-linecap="round" stroke-linejoin="round" points="163.27,353.25 190.59,309.92 177.82,344.25 177.99,344.48 166.18,353.18 163.32,353.58 			"/>
			<polygon fill="#FFFFFE" stroke="#000000" stroke-width="2" stroke-linecap="round" stroke-linejoin="round" points="160,359.16 159.97,359.43 144.98,412.25 145.18,385.33 153.53,358.4 			"/>
			<polygon fill="#FFFFFE" stroke="#000000" stroke-width="2" stroke-linecap="round" stroke-linejoin="round" points="151.7,444.05 141.62,442.44 139.15,452.33 135.51,442.79 125.69,445.61 132.14,437.69 
				124.79,430.59 134.87,432.2 137.34,422.3 140.98,431.84 150.8,429.03 144.35,436.95 			"/>
			<polygon fill="#FFFFFE" stroke="#000000" stroke-width="2" stroke-linecap="round" stroke-linejoin="round" points="146.01,32.41 138.78,39.63 145.35,47.44 135.49,44.78 131.99,54.39 129.38,44.51 119.32,46.27 
				126.55,39.07 119.99,31.24 129.85,33.92 133.34,24.31 135.97,34.19 			"/>
			<polygon fill="#FFFFFE" stroke="#000000" stroke-width="2" stroke-linecap="round" stroke-linejoin="round" points="134.88,125.17 133.07,125.06 133.09,124.71 122.04,94.41 122.31,61.37 128.92,95.94 
				146.46,130.25 			"/>
			<polygon fill="#FFFFFE" stroke="#000000" stroke-width="2" stroke-linecap="round" stroke-linejoin="round" points="129.84,328.51 125.23,339 125.12,340.86 124.82,340.84 94.5,351.89 61.56,351.64 96.04,344.94 
							"/>
			<path fill="#FFFFFE" stroke="#000000" stroke-width="2" stroke-linecap="round" stroke-linejoin="round" d="M338.24,255.29l-7.07-5.33l-33.3-3.08L338.24,255.29z M339.02,288.8l-1.95-2.67l-39.18-24.15l16.14,15.16
				L339.02,288.8z M344.82,201.06l-2.35-0.36l-51.73,12.32l29.05-2.36l25.02-9.54L344.82,201.06z M353.18,310.22l-0.36-2.56
				l-8.49-11.6l-0.01,0.01l-34.64-12.86l43.38,27.03L353.18,310.22z M287.8,136.17l-22.4,31.33v4.43l2.97-1.55l8.57-10.82
				L287.8,136.17z M272.03,348.76l0.91-6l-11.57-42.77l1.68,20.06L272.03,348.76z M295.15,317.54l-0.29-2.49l-9.05-19.82l-5.64-6.53
				l-5.08,2.46L295.15,317.54z M311.09,119.38l-14.95,8.79L283,163.93L311.09,119.38z M317.3,178.67l-4.55,0.66l-25.7,21.37
				l30.25-22V178.67z M354.8,202.6L320.96,218l49.82-11.61l0.06-0.08l-2.06-1.56L354.8,202.6z M252.71,137.77l-7.02,21.94l3.45,1.47
				l2.46-5.34l1.24-18.03L252.71,137.77z M271.06,355.11l-15.41-33.84l11.21,49.76l0.42,0.31l1.65-2.18L271.06,355.11z
				 M152.57,295.71l8.26-1.21l19.97-17.1L152.57,295.71z M177.8,151.13l0.75,7.85l18.87,25.23L177.8,151.13z M177.99,344.48
				l-0.17-0.23l12.77-34.33l-27.32,43.33l0.05,0.33l2.86-0.4L177.99,344.48z M184.16,339.93l3.5-2.58l23.26-39.87l-14.27,16.81
				L184.16,339.93z M201.14,127.93l-0.49,3.16l12.32,51.78l-2.41-29.08L201.14,127.93z M202.54,118.77L202.54,118.77l15.4,33.84
				l0.07-0.02l-11.33-50.26l-0.13-0.1l-1.85,2.45L202.54,118.77z M118.87,271.25l33.76-15.42l-51.03,10.81l3.22,2.44L118.87,271.25
				L118.87,271.25z M126.23,272.38l4.91,0.76l51.71-12.33l-29.05,2.42L126.23,272.38z M127.61,175.52l36.3,15.11l-43.51-27.06
				l0.36,2.59l6.84,9.36H127.61z M133.35,183.38l3.16,4.32l45.26,27.9l-22.23-18.9l-26.18-13.32H133.35z M135.75,218.86l6.67,5.01
				l33.3,3.08L135.75,218.86z M139.22,321.73l29.67-25.78l-19.12,4.77l-2.07,0.52l-4.87-2.33l-14.62-7.02l16.06,5.03l14.88-22.05
				l-20.9,5.15l-19.15-1.65l-2.24-0.19l-4.64-1.93l-15.26-6.36l-4.7-5.97l-8.53-10.82l12.52,9.49l39.55-12.53l-63.35-4.5l6.79-4.66
				l77.49-2.04L92.49,233l-0.02-0.07l17.68-5.61l36.93,3.22l-16.25-9.79l-2.42-1.46l-1.8-5.13l-5.38-15.31l7.79,14.95l0.31,0.23
				l25.76-5.26l-18.36-11.15l-12.41-14.77l-1.45-1.72l-1.99-4.82l-6.22-15.13l0.14-1.18l0.81-7.09l1.5-12.98l2.15,15.42l0.06-0.01
				l36.8,19.31l-41.72-48.06l6.92,1.3l-0.02,0.09l57.55,53.61l-40.19-49.27l13.22,6.47l-0.01,0.01l26,30.11l-4.93-19.81l-0.35-1.42
				l2.35-4.92l6.98-14.66l-4.88,15.15l0.1,1.05l21.77,14.83l-5.13-20.91l1.65-19.23l0.19-2.24l1.96-4.72l6.31-15.21l0.94-0.75
				l5.11-4.03l10.72-8.47l-9.78,12.93l12.81,39.26l4.5-63.48l3.71,5.43l2.98,79l5.85-63.4l0.24-0.07l4.34,15.3l-2.18,38.53
				l8.91-14.82l2.34-3.89l4.59-1.63l15.82-5.61l-15.36,10.22l5.52,23.74l11.08-18.45l14.74-12.37l1.72-1.44l4.69-1.95l15.23-6.32
				l0.18,0.02l7.07,0.83l13.99,1.65l-15.21,1.54v0.01l-19.5,37.5l47.99-41.73l-1.33,7.13l-0.05-0.01l-53.52,57.37l48.92-40.71
				l0.19,0.11l-7.66,13.53l-28.78,26.1l16.4-4.1l4.79-1.2l4.72,2.28l14.77,7.12l-15.59-4.93l-0.04,0.12l-15.31,21.77l20.88-5.13
				l19.17,1.66l2.24,0.19l4.57,1.91l15.33,6.41l0.74,0.93l3.91,4.96l8.6,10.87l-12.4-9.41l-0.07,0.09l-39.61,12.33l63.34,4.36
				l0.07,0.1l-5.78,3.97l-0.04-0.06l-78.53,2.89l63.6,6.02l-13.65,4.05l-0.03-0.08l-40.28-1.72l15.32,9.23l3.36,2.02l1.76,5.01
				l5.42,15.44l-7.77-14.86l-0.12,0.07l-25.96,4.93l18.41,11.08l12.36,14.78l1.44,1.73l1.85,4.49l6.37,15.49l-0.14,1.18l-0.7,6.01
				l-1.64,14.02l-2.19-15.76l-0.15,0.02l-36.65-18.98l41.57,48.02l-6.46-1.21l-57.84-53.71l40.38,49.07l-13.98-7.83l0.04-0.07
				l-25.46-28.47l4.16,16.65l1.13,4.51l-2.32,4.86l-7.02,14.71l4.92-15.7l-0.06-0.54l-0.11,0.01l-21.73-14.74l5.13,20.86
				l-1.66,19.25l-0.19,2.22l-1.96,4.74l-6.3,15.2l-0.95,0.75l-5.24,4.14l-10.58,8.37l9.48-12.52l-0.01-0.01l-12.5-39.68l-4.1,64.07
				l-5.86-8.58l0.47-0.32l-1.69-76.14l-5.81,62.89l-0.44,0.13l-4.02-13.94l2-39.4l-9.06,15.12l-2.17,3.62l-5.08,1.79l-15.34,5.41
				l14.36-7.4l0.39-0.49l0.03,0.17l-0.01-0.19l9.6-12.08l4.1-31.84l-15.09,19.5l1.39,24.42l-0.02,0.02l-4.9-26.07l-11.09,18.44
				l-14.74,12.43l-1.72,1.45l-4.63,1.91l-15.28,6.31l-1.2-0.14l-6.47-0.76l-13.57-1.58l15.71-2.18l-0.04-0.26l19.01-36.65
				l-47.96,41.75l1.36-7.32l53.52-57.19l-50.12,42.23L139.22,321.73z M296.52,236.95l-8.76-20.83l-8.74-20.83l-21.1-8.62
				l-21.12-8.63l-21.12,8.63l-21.11,8.62l-8.76,20.83l-8.74,20.83l8.74,20.82l8.76,20.83l21.11,8.63l21.12,8.62l0.48-0.19v-0.01
				l20.64-8.42l21.1-8.63l8.74-20.83L296.52,236.95z"/>
			<polygon fill="#FFFFFE" stroke="#000000" stroke-width="2" stroke-linecap="round" stroke-linejoin="round" points="131.44,337.2 130.46,339.15 128.04,352.16 126.68,359.48 122.65,381.13 123.85,361.5 
				124.31,353.98 125.12,340.86 125.23,339 129.84,328.51 142.83,298.91 147.7,301.24 149.77,300.72 139.22,321.73 			"/>
			<polygon fill="#FFFFFE" stroke="#000000" stroke-width="2" stroke-linecap="round" stroke-linejoin="round" points="124.31,353.98 123.85,361.5 97.77,373.87 			"/>
			<polygon fill="#FFFFFE" stroke="#000000" stroke-width="2" stroke-linecap="round" stroke-linejoin="round" points="121.82,413.2 114.22,420.02 120.35,428.18 110.66,425 106.66,434.4 104.56,424.4 94.42,425.64 
				102.02,418.83 95.89,410.68 105.6,413.85 109.58,404.44 111.68,414.44 			"/>
			<polygon fill="#FFFFFE" stroke="#000000" stroke-width="2" stroke-linecap="round" stroke-linejoin="round" points="122.87,181.13 124.32,182.85 124.11,183.03 106.55,186.77 94.08,199.99 103.26,184.01 
				120.88,176.31 			"/>
			<polygon fill="#FFFFFE" stroke="#000000" stroke-width="2" stroke-linecap="round" stroke-linejoin="round" points="116.86,278.18 119.1,278.37 119.08,278.63 109.32,293.73 109.8,311.87 105.02,294.06 
				111.95,276.89 112.22,276.25 			"/>
			<polygon fill="#FFFFFE" stroke="#000000" stroke-width="2" stroke-linecap="round" stroke-linejoin="round" points="100.09,97.65 118.03,124 118.02,124.11 112.64,123.78 			"/>
			<polygon fill="#FFFFFE" stroke="#000000" stroke-width="2" stroke-linecap="round" stroke-linejoin="round" points="116.84,64.1 106.7,63 104.75,73.03 100.62,63.69 90.96,67.01 96.98,58.76 89.27,52.05 
				99.43,53.15 101.38,43.12 105.51,52.46 115.17,49.13 109.14,57.39 			"/>
			<polygon fill="#FFFFFE" stroke="#000000" stroke-width="2" stroke-linecap="round" stroke-linejoin="round" points="115.61,152.91 114.8,160 114.46,159.96 61.81,144.96 88.66,145.17 			"/>
			<polygon fill="#FFFFFE" stroke="#000000" stroke-width="2" stroke-linecap="round" stroke-linejoin="round" points="112.64,123.78 118.02,124.11 133.07,125.06 134.88,125.17 146.46,130.25 174.77,142.68 
				174.94,142.76 172.59,147.68 172.94,149.1 151.88,138.79 138.66,132.32 134.78,130.42 121.32,127.89 114.4,126.59 92.86,122.54 
							"/>
			<polygon fill="#FFFFFE" stroke="#000000" stroke-width="2" stroke-linecap="round" stroke-linejoin="round" points="94.49,309.32 97.31,316.34 94.3,323.42 91.28,330.52 84.19,333.54 77.11,336.56 70.1,333.73 
				63.08,330.91 60.25,323.9 57.43,316.88 60.44,309.78 63.46,302.68 70.55,299.67 77.65,296.65 84.66,299.48 91.67,302.31 			"/>
			<polygon fill="#FFFFFE" stroke="#000000" stroke-width="2" stroke-linecap="round" stroke-linejoin="round" points="97.18,225.61 97.2,225.65 85.86,230.08 84.46,231.32 84.24,231.07 55.04,217.44 31.9,193.92 
				61,213.65 			"/>
			<polygon fill="#FFFFFE" stroke="#000000" stroke-width="2" stroke-linecap="round" stroke-linejoin="round" points="92.26,263.92 96.96,269.89 48.16,295.85 67.25,276.99 92.23,263.94 			"/>
			<polygon fill="#FFFFFE" stroke="#000000" stroke-width="2" stroke-linecap="round" stroke-linejoin="round" points="95.67,393.04 87.1,398.58 91.88,407.59 82.8,402.95 77.38,411.61 76.87,401.41 66.67,401.04 
				75.24,395.49 70.45,386.48 79.55,391.14 84.95,382.48 85.46,392.68 			"/>
			<polygon fill="#FFFFFE" stroke="#000000" stroke-width="2" stroke-linecap="round" stroke-linejoin="round" points="91.3,84.99 81.11,85.5 80.75,95.72 75.21,87.14 66.18,91.92 70.84,82.84 62.19,77.42 
				72.38,76.91 72.74,66.71 78.28,75.28 87.3,70.49 82.65,79.59 			"/>
			<polygon fill="#FFFFFE" stroke="#000000" stroke-width="2" stroke-linecap="round" stroke-linejoin="round" points="85.02,173.54 87.98,180.48 85.02,187.45 82.05,194.41 74.91,197.29 67.76,200.17 60.61,197.29 
				53.46,194.41 50.52,187.45 47.55,180.48 50.52,173.54 53.46,166.57 60.61,163.69 67.76,160.81 74.91,163.69 82.05,166.57 			"/>
			<polygon fill="#FFFFFE" stroke="#000000" stroke-width="2" stroke-linecap="round" stroke-linejoin="round" points="75.38,239.35 69.3,244.74 69.15,244.57 41.81,235.27 			"/>
			<polygon fill="#FFFFFE" stroke="#000000" stroke-width="2" stroke-linecap="round" stroke-linejoin="round" points="72.99,369.03 63.66,373.16 66.98,382.82 58.73,376.8 52.02,384.5 53.12,374.35 43.1,372.4 
				52.43,368.26 49.11,358.6 57.36,364.62 64.07,356.93 62.97,367.08 			"/>
			<polygon fill="#FFFFFE" stroke="#000000" stroke-width="2" stroke-linecap="round" stroke-linejoin="round" points="69.3,244.74 75.38,239.35 84.46,231.32 85.86,230.08 97.2,225.65 126.61,214.16 128.41,219.29 
				130.83,220.75 110.15,227.32 92.47,232.93 89.47,233.88 79.24,240.9 72.45,245.56 54.28,258.03 			"/>
			<polygon fill="#FFFFFE" stroke="#000000" stroke-width="2" stroke-linecap="round" stroke-linejoin="round" points="69.33,109.63 59.36,111.73 60.59,121.88 53.77,114.27 45.62,120.41 48.79,110.72 39.4,106.72 
				49.38,104.62 48.14,94.46 54.97,102.07 63.12,95.94 59.95,105.65 			"/>
			<polygon fill="#FFFFFE" stroke="#000000" stroke-width="2" stroke-linecap="round" stroke-linejoin="round" points="54.36,341.76 44.49,344.39 46.25,354.45 39.05,347.22 31.22,353.77 33.9,343.91 24.3,340.42 
				34.17,337.79 32.39,327.73 39.61,334.96 47.42,328.41 44.76,338.27 			"/>
			<polygon fill="#FFFFFE" stroke="#000000" stroke-width="2" stroke-linecap="round" stroke-linejoin="round" points="51.5,137.41 41.96,141.05 44.77,150.88 36.85,144.42 29.75,151.78 31.38,141.69 21.47,139.22 
				31,135.58 28.19,125.75 36.12,132.2 43.22,124.85 41.59,134.93 			"/>
			<polygon fill="#FFFFFE" stroke="#000000" stroke-width="2" stroke-linecap="round" stroke-linejoin="round" points="40.2,311.92 30.05,312.97 30.22,323.17 24.25,314.9 15.49,320.15 19.65,310.83 10.73,305.88 
				20.89,304.83 20.7,294.62 26.7,302.9 35.44,297.65 31.27,306.97 			"/>
			<polygon fill="#FFFFFE" stroke="#000000" stroke-width="2" stroke-linecap="round" stroke-linejoin="round" points="38.22,167.64 29.38,172.72 33.68,181.99 24.85,176.86 18.99,185.23 19.01,175.01 8.85,174.11 
				17.69,169.03 13.39,159.78 22.21,164.89 28.07,156.52 28.06,166.74 			"/>
			<polygon fill="#FFFFFE" stroke="#000000" stroke-width="2" stroke-linecap="round" stroke-linejoin="round" points="30.9,280.23 20.7,279.67 19.28,289.79 14.66,280.67 5.19,284.5 10.78,275.94 2.73,269.65 
				12.93,270.21 14.35,260.1 18.96,269.2 28.43,265.38 22.86,273.94 			"/>
			<polygon fill="#FFFFFE" stroke="#000000" stroke-width="2" stroke-linecap="round" stroke-linejoin="round" points="29.83,199.57 21.89,205.99 27.6,214.44 18.08,210.77 13.59,219.95 12.02,209.85 1.84,210.56 
				9.78,204.16 4.07,195.68 13.59,199.36 18.08,190.19 19.65,200.28 			"/>
			<polygon fill="#FFFFFE" stroke="#000000" stroke-width="2" stroke-linecap="round" stroke-linejoin="round" points="19.71,240 26.67,247.47 16.67,245.32 13.69,255.1 10.56,245.37 0.6,247.66 7.46,240.08 
				0.5,232.61 10.47,234.76 13.46,224.98 16.61,234.71 26.55,232.42 			"/>
		</g>
	</g>
</g>
</svg>
