<?xml version="1.0" encoding="utf-8"?>
<svg version="1.2" baseProfile="tiny" id="Layer_1" xmlns="http://www.w3.org/2000/svg" xmlns:xlink="http://www.w3.org/1999/xlink"
	 x="0px" y="0px" width="465.56px" height="465.79px" viewBox="0 0 465.56 465.79" xml:space="preserve">
<g>
	
		<path fill-rule="evenodd" fill="#FFFFFF" stroke="#000000" stroke-width="1.5" stroke-linecap="round" stroke-linejoin="round" stroke-miterlimit="10" d="
		M232.78,465.04c127.79,0,232.04-104.29,232.04-232.15c0-127.88-104.24-232.15-232.04-232.15C104.96,0.74,0.74,105.01,0.74,232.89
		C0.74,360.75,104.96,465.04,232.78,465.04L232.78,465.04z"/>
	
		<path fill-rule="evenodd" fill="#FFFFFF" stroke="#000000" stroke-width="1.5" stroke-linecap="round" stroke-linejoin="round" stroke-miterlimit="10" d="
		M232.78,368.61c75.03,0,136.25-60.97,136.25-135.72c0-74.77-61.22-135.72-136.25-135.72c-75.05,0-136.27,60.95-136.27,135.72
		C96.51,307.64,157.72,368.61,232.78,368.61L232.78,368.61z"/>
	
		<path fill-rule="evenodd" fill="#FFFFFF" stroke="#000000" stroke-width="1.5" stroke-linecap="round" stroke-linejoin="round" stroke-miterlimit="10" d="
		M54.26,177.84l-1.01-5.16l-1.42-0.92l-1.92,0.5l-3.14,2.93l0.41,2.34l1.31,0.8l1.42,0.92l-6.58,2.22l-3.25,2.75l-3.73,3.35
		l-0.71,3.53l-0.71,3.16l3.44-3.76l2.04-2.93l4.74-2.13l2.84-0.21l3.25,0.8l15.99,6.9c0,0,1.92,4.65,2.04,5.18
		c0.09,0.5,6.37,4.95,6.37,4.95l14.89,2.13l5.48,1.01L95,203.39l-6.19-3.05l-10.22-3.44l-4.35-3.85c0,0,6.87,1.31,7.88,1.51
		c1.03,0.21,9.32,0.6,9.32,0.6l4.97,0.62l0.3-1.83l-12.05-7.7l-6.58-2.31l-6.8,2.52l-7.19-7.29l-4.15-1.72l6.99-4.68l9.74,1.83
		l-4.97-3.46l-6.48-1.31l-5.06,1.83L54.26,177.84z"/>
	
		<path fill-rule="evenodd" fill="#FFFFFF" stroke="#000000" stroke-width="1.5" stroke-linecap="round" stroke-linejoin="round" stroke-miterlimit="10" d="
		M46.01,235.8l-2.54-4.58l-1.65-0.44l-1.67,1.08l-2.06,3.76l1.1,2.09l1.51,0.37l1.63,0.44l-5.59,4.15l-2.22,3.62l-2.54,4.33
		l0.44,3.6l0.3,3.21l2.11-4.63l1.01-3.44l3.87-3.48l2.63-1.08l3.35-0.23l17.34,1.6c0,0,3.28,3.85,3.53,4.29
		c0.25,0.46,7.61,2.75,7.61,2.75l14.82-2.57l5.52-0.73l-1.86-2.38l-6.8-0.99l-10.79-0.11l-5.34-2.31c0,0,6.96-0.87,7.97-0.99
		c1.03-0.14,9.05-2.31,9.05-2.31l4.93-0.96l-0.28-1.81l-13.86-3.6l-6.96-0.18l-5.68,4.49l-9.1-4.7l-4.49-0.37l5.22-6.6l9.81-1.26
		l-5.77-1.74l-6.58,0.76l-4.26,3.3L46.01,235.8z"/>
	
		<path fill-rule="evenodd" fill="#FFFFFF" stroke="#000000" stroke-width="1.5" stroke-linecap="round" stroke-linejoin="round" stroke-miterlimit="10" d="
		M56.09,293.5l-3.87-3.58l-1.67,0.09l-1.26,1.54l-0.82,4.22l1.7,1.65l1.56-0.11l1.67-0.09l-4.01,5.68l-1.03,4.1l-1.05,4.93
		l1.51,3.28l1.26,2.96l0.6-5.07l-0.09-3.55l2.61-4.54l2.18-1.83l3.09-1.24l17-3.85c0,0,4.28,2.66,4.67,3
		c0.37,0.34,8.09,0.25,8.09,0.25l13.29-7.01l5.02-2.41l-2.47-1.7l-6.8,1.17l-10.29,3.23l-5.8-0.55c0,0,6.35-3,7.29-3.42
		c0.94-0.44,7.9-5,7.9-5l4.38-2.43l-0.83-1.65l-14.3,0.85l-6.69,1.99l-4.01,6.05l-10.1-1.67l-4.38,1.03l2.93-7.89l8.94-4.24
		l-6.05,0.14l-6,2.75l-3.02,4.45L56.09,293.5z"/>
	
		<path fill-rule="evenodd" fill="#FFFFFF" stroke="#000000" stroke-width="1.5" stroke-linecap="round" stroke-linejoin="round" stroke-miterlimit="10" d="
		M83.47,345.26l-4.77-2.22l-1.58,0.62l-0.73,1.86l0.55,4.26l2.11,1.05l1.44-0.6l1.56-0.62l-2.06,6.65l0.3,4.22l0.5,5.02l2.45,2.66
		l2.13,2.41l-1.01-5l-1.19-3.35l1.08-5.11l1.51-2.43l2.57-2.13l14.98-8.92c0,0,4.9,1.19,5.36,1.4c0.48,0.23,7.77-2.25,7.77-2.25
		l10.47-10.8l4.03-3.83l-2.89-0.85l-6.09,3.21l-8.8,6.26l-5.66,1.26c0,0,5.11-4.79,5.87-5.5s5.98-7.2,5.98-7.2l3.39-3.64l-1.28-1.33
		l-13.31,5.23l-5.77,3.96l-1.92,6.99l-10.13,1.54l-3.85,2.34l0.34-8.39l7.19-6.81l-5.7,1.99l-4.88,4.47l-1.51,5.18L83.47,345.26z"/>
	
		<path fill-rule="evenodd" fill="#FFFFFF" stroke="#000000" stroke-width="1.5" stroke-linecap="round" stroke-linejoin="round" stroke-miterlimit="10" d="
		M125.51,386.01l-5.25-0.64l-1.31,1.08l-0.11,1.99l1.83,3.87l2.34,0.34l1.19-1.01l1.31-1.05l0.07,6.95l1.6,3.94l2.02,4.58l3.16,1.79
		l2.77,1.63l-2.5-4.42l-2.18-2.84l-0.55-5.18l0.69-2.77l1.76-2.82l11.5-13.11c0,0,5.02-0.39,5.54-0.32c0.5,0.05,6.69-4.54,6.69-4.54
		l6.62-13.52l2.66-4.88l-3,0.09l-4.81,4.93l-6.44,8.66l-4.99,2.96c0,0,3.37-6.14,3.87-7.04c0.5-0.92,3.46-8.69,3.46-8.69l2.11-4.54
		l-1.63-0.85l-11.07,9.1l-4.24,5.55l0.32,7.22l-9.16,4.61l-2.93,3.42l-2.27-8.09l4.74-8.69l-4.81,3.64l-3.25,5.78l0.16,5.39
		L125.51,386.01z"/>
	
		<path fill-rule="evenodd" fill="#FFFFFF" stroke="#000000" stroke-width="1.5" stroke-linecap="round" stroke-linejoin="round" stroke-miterlimit="10" d="
		M178.07,411.77l-5.18,1.01l-0.92,1.42l0.5,1.93l2.96,3.14l2.31-0.41l0.82-1.31l0.92-1.42l2.22,6.58l2.73,3.25l3.34,3.74l3.55,0.71
		l3.14,0.71l-3.76-3.44l-2.93-2.02l-2.13-4.77l-0.21-2.84l0.82-3.25l6.9-16c0,0,4.65-1.93,5.16-2.04c0.5-0.09,4.97-6.37,4.97-6.37
		l2.13-14.9l1.01-5.48l-2.84,1.01l-3.05,6.19l-3.44,10.25l-3.85,4.36c0,0,1.31-6.9,1.51-7.91c0.21-1.01,0.62-9.33,0.62-9.33
		l0.6-4.97l-1.81-0.3l-7.7,12.06l-2.34,6.6l2.54,6.79l-7.31,7.2l-1.72,4.15l-4.65-6.99l1.81-9.72l-3.44,4.95l-1.33,6.49l1.83,5.07
		L178.07,411.77z"/>
	
		<path fill-rule="evenodd" fill="#FFFFFF" stroke="#000000" stroke-width="1.5" stroke-linecap="round" stroke-linejoin="round" stroke-miterlimit="10" d="
		M236.01,420.03l-4.6,2.57l-0.44,1.63l1.08,1.67l3.78,2.09l2.08-1.12l0.37-1.49l0.44-1.63l4.15,5.57l3.6,2.22l4.33,2.54l3.6-0.41
		l3.21-0.3l-4.63-2.13l-3.41-1.01l-3.5-3.87l-1.05-2.64l-0.23-3.35l1.6-17.35c0,0,3.83-3.28,4.28-3.53
		c0.44-0.25,2.75-7.61,2.75-7.61l-2.59-14.83l-0.73-5.5l-2.38,1.83l-0.96,6.81l-0.11,10.82l-2.31,5.32c0,0-0.89-6.94-1.01-7.98
		c-0.11-1.03-2.29-9.05-2.29-9.05l-0.96-4.93l-1.83,0.27l-3.6,13.87l-0.18,6.99l4.51,5.66l-4.72,9.1l-0.34,4.49l-6.6-5.23
		l-1.28-9.81l-1.74,5.8l0.76,6.58l3.3,4.24L236.01,420.03z"/>
	
		<path fill-rule="evenodd" fill="#FFFFFF" stroke="#000000" stroke-width="1.5" stroke-linecap="round" stroke-linejoin="round" stroke-miterlimit="10" d="
		M293.67,409.96l-3.6,3.85l0.09,1.67l1.56,1.26l4.22,0.82l1.65-1.7l-0.12-1.54l-0.11-1.7l5.68,4.01l4.12,1.03l4.9,1.05l3.28-1.51
		l2.98-1.26l-5.06-0.6l-3.57,0.09l-4.51-2.59l-1.83-2.18l-1.26-3.12l-3.83-17.01c0,0,2.63-4.29,2.98-4.68
		c0.37-0.37,0.28-8.07,0.28-8.07l-7.03-13.32l-2.41-5.02l-1.7,2.5l1.17,6.78l3.23,10.29l-0.55,5.8c0,0-2.98-6.35-3.41-7.29
		c-0.44-0.94-4.99-7.91-4.99-7.91l-2.41-4.38l-1.67,0.83l0.87,14.3l1.97,6.69l6.05,4.01l-1.67,10.11l1.05,4.38l-7.88-2.93
		l-4.24-8.94l0.11,6.05l2.75,6.03l4.47,3.03L293.67,409.96z"/>
	
		<path fill-rule="evenodd" fill="#FFFFFF" stroke="#000000" stroke-width="1.5" stroke-linecap="round" stroke-linejoin="round" stroke-miterlimit="10" d="
		M345.38,382.55l-2.2,4.79l0.6,1.56l1.86,0.73l4.28-0.53l1.03-2.13l-0.6-1.42l-0.6-1.58l6.62,2.06l4.24-0.3l4.99-0.5l2.66-2.45
		l2.43-2.13l-4.99,1.01l-3.37,1.19l-5.11-1.08l-2.41-1.51l-2.15-2.57l-8.89-14.97c0,0,1.17-4.91,1.4-5.39
		c0.21-0.46-2.25-7.77-2.25-7.77l-10.81-10.48l-3.83-4.03l-0.85,2.89l3.21,6.1l6.25,8.8l1.28,5.68c0,0-4.81-5.13-5.52-5.89
		c-0.69-0.76-7.17-5.96-7.17-5.96l-3.67-3.42l-1.31,1.28l5.22,13.34l3.96,5.75l6.96,1.95l1.54,10.13l2.36,3.83l-8.41-0.34l-6.78-7.2
		l1.99,5.71l4.47,4.88l5.16,1.51L345.38,382.55z"/>
	
		<path fill-rule="evenodd" fill="#FFFFFF" stroke="#000000" stroke-width="1.5" stroke-linecap="round" stroke-linejoin="round" stroke-miterlimit="10" d="
		M386.12,340.51l-0.62,5.23l1.05,1.31l1.99,0.11l3.9-1.83l0.34-2.34l-1.01-1.17l-1.08-1.31l6.96-0.09l3.92-1.6l4.6-2.02l1.76-3.16
		l1.65-2.77l-4.45,2.52l-2.82,2.15l-5.2,0.55l-2.75-0.69l-2.84-1.77l-13.08-11.51c0,0-0.39-5.02-0.34-5.55
		c0.07-0.5-4.54-6.69-4.54-6.69l-13.49-6.63l-4.9-2.66l0.09,3.03l4.95,4.79l8.66,6.44l2.96,5.02c0,0-6.14-3.39-7.06-3.9
		c-0.89-0.5-8.66-3.46-8.66-3.46l-4.54-2.11l-0.87,1.63l9.09,11.07l5.54,4.24l7.24-0.3l4.58,9.15l3.41,2.93l-8.09,2.27l-8.68-4.74
		l3.67,4.81l5.75,3.25l5.38-0.16L386.12,340.51z"/>
	
		<path fill-rule="evenodd" fill="#FFFFFF" stroke="#000000" stroke-width="1.5" stroke-linecap="round" stroke-linejoin="round" stroke-miterlimit="10" d="
		M411.87,287.93l1.01,5.16l1.42,0.92l1.93-0.5l3.14-2.96l-0.39-2.32l-1.33-0.83l-1.42-0.89l6.6-2.25l3.23-2.73l3.76-3.35l0.71-3.55
		l0.71-3.14l-3.46,3.76l-2.02,2.93l-4.77,2.13l-2.84,0.21l-3.23-0.82l-16.01-6.88c0,0-1.92-4.68-2.02-5.18
		c-0.11-0.5-6.39-4.97-6.39-4.97l-14.89-2.11l-5.48-1.03l1.03,2.84l6.16,3.05l10.24,3.44l4.35,3.85c0,0-6.9-1.31-7.9-1.51
		c-1.01-0.21-9.32-0.62-9.32-0.62l-4.95-0.6l-0.32,1.81l12.07,7.7l6.57,2.34l6.78-2.52l7.19,7.29l4.17,1.72l-6.99,4.68l-9.74-1.83
		l4.97,3.44l6.48,1.33l5.06-1.83L411.87,287.93z"/>
	
		<path fill-rule="evenodd" fill="#FFFFFF" stroke="#000000" stroke-width="1.5" stroke-linecap="round" stroke-linejoin="round" stroke-miterlimit="10" d="
		M420.12,229.94l2.57,4.61l1.63,0.43l1.67-1.08l2.08-3.76l-1.1-2.11l-1.51-0.37l-1.63-0.41l5.57-4.17l2.25-3.6l2.52-4.33l-0.41-3.6
		l-0.3-3.21l-2.11,4.63l-1.03,3.42l-3.87,3.51l-2.63,1.08l-3.32,0.23l-17.37-1.6c0,0-3.25-3.85-3.5-4.31
		c-0.25-0.44-7.61-2.75-7.61-2.75l-14.82,2.59l-5.52,0.73l1.83,2.38l6.83,0.99l10.79,0.11l5.34,2.32c0,0-6.96,0.87-8,0.99
		c-1.01,0.11-9.05,2.31-9.05,2.31l-4.9,0.94l0.27,1.83l13.84,3.6l6.99,0.18l5.68-4.52l9.1,4.72l4.47,0.37l-5.2,6.58l-9.81,1.28
		l5.77,1.74l6.58-0.76l4.26-3.3L420.12,229.94z"/>
	
		<path fill-rule="evenodd" fill="#FFFFFF" stroke="#000000" stroke-width="1.5" stroke-linecap="round" stroke-linejoin="round" stroke-miterlimit="10" d="
		M410.06,172.27l3.85,3.58l1.7-0.09l1.26-1.54l0.8-4.24l-1.7-1.65l-1.53,0.14l-1.67,0.09l4.01-5.68l1.01-4.13l1.08-4.91l-1.51-3.28
		l-1.28-2.96l-0.57,5.04l0.09,3.58l-2.61,4.52l-2.18,1.83l-3.09,1.26l-17,3.83c0,0-4.31-2.64-4.67-2.98
		c-0.39-0.34-8.09-0.28-8.09-0.28l-13.29,7.04l-5.04,2.41l2.5,1.7l6.78-1.17l10.31-3.23l5.77,0.55c0,0-6.35,2.98-7.29,3.42
		c-0.94,0.44-7.88,5-7.88,5l-4.38,2.43l0.83,1.65l14.27-0.87l6.69-1.97l4.01-6.05l10.1,1.67l4.38-1.05l-2.91,7.88l-8.93,4.24
		l6.03-0.11l6.03-2.75l3.02-4.45L410.06,172.27z"/>
	
		<path fill-rule="evenodd" fill="#FFFFFF" stroke="#000000" stroke-width="1.5" stroke-linecap="round" stroke-linejoin="round" stroke-miterlimit="10" d="
		M382.68,120.51l4.77,2.22l1.58-0.62l0.71-1.86l-0.53-4.26l-2.13-1.05l-1.42,0.6l-1.58,0.62l2.08-6.65l-0.32-4.24l-0.5-5l-2.45-2.66
		l-2.11-2.43l1.01,5l1.17,3.37l-1.08,5.11l-1.49,2.41l-2.57,2.15l-14.98,8.89c0,0-4.9-1.17-5.36-1.4c-0.48-0.21-7.77,2.25-7.77,2.25
		l-10.49,10.82l-4.03,3.83l2.89,0.85l6.09-3.21l8.8-6.26l5.68-1.26c0,0-5.11,4.79-5.87,5.5c-0.76,0.69-5.98,7.17-5.98,7.17
		l-3.41,3.67l1.31,1.31l13.31-5.23l5.75-3.94l1.95-6.99l10.13-1.54l3.83-2.34l-0.32,8.39l-7.19,6.81l5.7-1.99l4.88-4.47l1.49-5.18
		L382.68,120.51z"/>
	
		<path fill-rule="evenodd" fill="#FFFFFF" stroke="#000000" stroke-width="1.5" stroke-linecap="round" stroke-linejoin="round" stroke-miterlimit="10" d="
		M340.64,79.75l5.22,0.64l1.31-1.08l0.11-1.99l-1.81-3.9l-2.36-0.32l-1.17,0.99l-1.31,1.08l-0.09-6.95l-1.6-3.94l-2.02-4.61
		l-3.14-1.77l-2.77-1.65l2.5,4.45l2.18,2.84l0.55,5.18l-0.69,2.75l-1.79,2.84l-11.48,13.11c0,0-5.04,0.39-5.54,0.32
		c-0.53-0.07-6.69,4.54-6.69,4.54l-6.62,13.52l-2.66,4.88l3-0.09l4.81-4.93l6.44-8.69l4.99-2.96c0,0-3.37,6.17-3.89,7.06
		c-0.5,0.89-3.44,8.69-3.44,8.69l-2.13,4.54l1.65,0.85l11.04-9.1l4.26-5.55l-0.32-7.24l9.16-4.58l2.91-3.42l2.29,8.09l-4.74,8.69
		l4.81-3.67l3.25-5.75l-0.18-5.39L340.64,79.75z"/>
	
		<path fill-rule="evenodd" fill="#FFFFFF" stroke="#000000" stroke-width="1.5" stroke-linecap="round" stroke-linejoin="round" stroke-miterlimit="10" d="
		M288.08,53.99l5.16-1.01l0.92-1.42l-0.5-1.93l-2.93-3.14l-2.34,0.39l-0.8,1.33l-0.92,1.42l-2.22-6.6l-2.75-3.23l-3.34-3.76
		l-3.53-0.71l-3.14-0.71l3.73,3.46l2.93,2.02l2.13,4.77l0.21,2.84l-0.8,3.23l-6.9,16.02c0,0-4.65,1.93-5.16,2.02
		c-0.53,0.11-4.97,6.4-4.97,6.4l-2.13,14.9l-1.01,5.48l2.84-1.01l3.02-6.19l3.46-10.25l3.85-4.36c0,0-1.33,6.9-1.53,7.91
		c-0.18,1.01-0.6,9.33-0.6,9.33l-0.62,4.95l1.83,0.32l7.7-12.06l2.34-6.6l-2.54-6.78l7.29-7.2l1.74-4.15l4.65,6.99l-1.83,9.72
		l3.46-4.95l1.31-6.49l-1.81-5.09L288.08,53.99z"/>
	
		<path fill-rule="evenodd" fill="#FFFFFF" stroke="#000000" stroke-width="1.5" stroke-linecap="round" stroke-linejoin="round" stroke-miterlimit="10" d="
		M230.14,45.74l4.61-2.57l0.41-1.63l-1.08-1.67l-3.76-2.09l-2.08,1.1l-0.37,1.51l-0.44,1.63l-4.15-5.57l-3.6-2.25l-4.35-2.52
		l-3.6,0.41l-3.21,0.3l4.65,2.11l3.41,1.03l3.48,3.87l1.08,2.64l0.23,3.32l-1.6,17.37c0,0-3.83,3.28-4.28,3.53
		c-0.46,0.25-2.75,7.61-2.75,7.61l2.57,14.81l0.73,5.52l2.38-1.83l0.99-6.83l0.11-10.8l2.31-5.34c0,0,0.87,6.97,1.01,8
		c0.11,1.03,2.29,9.05,2.29,9.05l0.96,4.91l1.83-0.27l3.6-13.84l0.18-6.99l-4.51-5.66l4.72-9.1l0.34-4.49l6.6,5.2l1.26,9.83
		l1.74-5.8l-0.73-6.58l-3.3-4.26L230.14,45.74z"/>
	
		<path fill-rule="evenodd" fill="#FFFFFF" stroke="#000000" stroke-width="1.5" stroke-linecap="round" stroke-linejoin="round" stroke-miterlimit="10" d="
		M172.48,55.8l3.6-3.85l-0.11-1.7l-1.54-1.26l-4.22-0.8l-1.65,1.7l0.11,1.54l0.09,1.7l-5.66-4.03l-4.12-1.01l-4.9-1.08l-3.3,1.51
		l-2.96,1.28l5.06,0.57l3.57-0.07l4.51,2.59l1.83,2.18l1.24,3.09l3.85,17.01c0,0-2.63,4.31-3,4.68c-0.34,0.39-0.25,8.09-0.25,8.09
		l7.03,13.32l2.38,5.02l1.7-2.5l-1.17-6.78l-3.23-10.32l0.55-5.78c0,0,3,6.35,3.44,7.29c0.41,0.94,4.97,7.89,4.97,7.89l2.43,4.38
		l1.65-0.83l-0.85-14.28l-1.99-6.69l-6.03-4.01l1.67-10.11l-1.05-4.38l7.88,2.91l4.24,8.96l-0.14-6.05l-2.75-6.03l-4.44-3.03
		L172.48,55.8z"/>
	
		<path fill-rule="evenodd" fill="#FFFFFF" stroke="#000000" stroke-width="1.5" stroke-linecap="round" stroke-linejoin="round" stroke-miterlimit="10" d="
		M120.75,83.19l2.22-4.77l-0.62-1.58l-1.86-0.71l-4.26,0.53l-1.03,2.13l0.57,1.42l0.62,1.58l-6.64-2.06l-4.22,0.3l-4.99,0.5
		l-2.66,2.45l-2.43,2.13l4.99-1.01l3.37-1.19l5.09,1.08l2.43,1.49l2.13,2.57l8.91,14.99c0,0-1.19,4.91-1.4,5.39
		c-0.23,0.46,2.25,7.77,2.25,7.77l10.79,10.48l3.83,4.03l0.85-2.89l-3.21-6.1l-6.25-8.8l-1.26-5.68c0,0,4.81,5.11,5.5,5.89
		c0.71,0.76,7.19,5.96,7.19,5.96l3.64,3.42l1.33-1.31l-5.22-13.32l-3.96-5.75l-6.99-1.95l-1.53-10.13l-2.34-3.83l8.39,0.34l6.8,7.17
		l-1.99-5.71l-4.47-4.86l-5.18-1.51L120.75,83.19z"/>
	
		<path fill-rule="evenodd" fill="#FFFFFF" stroke="#000000" stroke-width="1.5" stroke-linecap="round" stroke-linejoin="round" stroke-miterlimit="10" d="
		M80.01,125.25l0.64-5.23l-1.08-1.31l-1.97-0.11l-3.9,1.83l-0.34,2.34l1.01,1.17l1.05,1.31l-6.94,0.09l-3.92,1.6l-4.6,2.02
		l-1.76,3.16l-1.65,2.75l4.42-2.5l2.84-2.15l5.18-0.57l2.77,0.69l2.84,1.79l13.08,11.51c0,0,0.39,5.02,0.32,5.52
		c-0.05,0.53,4.54,6.72,4.54,6.72l13.52,6.62l4.88,2.66l-0.07-3.03l-4.95-4.79l-8.66-6.44l-2.96-5.02c0,0,6.14,3.39,7.03,3.9
		c0.92,0.5,8.68,3.46,8.68,3.46l4.54,2.11l0.85-1.65l-9.07-11.05l-5.54-4.26l-7.24,0.32l-4.58-9.17l-3.44-2.91l8.09-2.27l8.68,4.72
		l-3.64-4.79l-5.75-3.28l-5.38,0.18L80.01,125.25z"/>
	
		<path fill-rule="evenodd" fill="#FFFFFF" stroke="#000000" stroke-width="1.5" stroke-linecap="round" stroke-linejoin="round" stroke-miterlimit="10" d="
		M17.44,163.44c-3.99,0.66-1.92,3.39-1.92,3.39l5.06,2.2l-4.72,3.05c-0.73,1.6-0.64,3.94,3.05,3.62l3.8-4.52l3.9,4.58
		c3.32-0.32,3.5-1.99,2.86-3.85l-4.54-3.03l4.97-0.87c1.97-1.15,0.89-3.69-0.71-3.64l-4.51,1.4l0.76-4.42
		c-0.87-1.88-2.68-1.88-4.1-0.23l0.14,4.65L17.44,163.44z"/>
	
		<path fill-rule="evenodd" fill="#FFFFFF" stroke="#000000" stroke-width="1.5" stroke-linecap="round" stroke-linejoin="round" stroke-miterlimit="10" d="
		M12.13,182.49c-3.92,1.01-1.63,3.55-1.63,3.55l5.22,1.74l-4.42,3.46c-0.6,1.65-0.32,3.99,3.34,3.35l3.39-4.84l4.28,4.22
		c3.28-0.62,3.3-2.29,2.52-4.1l-4.79-2.61l4.88-1.31c1.86-1.31,0.55-3.74-1.03-3.55l-4.38,1.79l0.39-4.49
		c-1.05-1.79-2.86-1.63-4.12,0.14l0.53,4.63L12.13,182.49z"/>
	
		<path fill-rule="evenodd" fill="#FFFFFF" stroke="#000000" stroke-width="1.5" stroke-linecap="round" stroke-linejoin="round" stroke-miterlimit="10" d="
		M104.37,208.23c-3.9,1.01-1.63,3.55-1.63,3.55l5.25,1.74l-4.42,3.46c-0.6,1.65-0.32,3.99,3.34,3.35l3.37-4.84l4.31,4.22
		c3.28-0.6,3.3-2.29,2.52-4.08l-4.79-2.61l4.88-1.31c1.86-1.33,0.55-3.74-1.03-3.58l-4.38,1.79l0.37-4.47
		c-1.03-1.81-2.84-1.65-4.1,0.11l0.53,4.63L104.37,208.23z"/>
	
		<path fill-rule="evenodd" fill="#FFFFFF" stroke="#000000" stroke-width="1.5" stroke-linecap="round" stroke-linejoin="round" stroke-miterlimit="10" d="
		M205.68,221.41c-3.92,1.01-1.63,3.55-1.63,3.55l5.22,1.72l-4.42,3.48c-0.6,1.65-0.3,3.99,3.34,3.35l3.39-4.84l4.28,4.19
		c3.28-0.6,3.32-2.27,2.52-4.08l-4.79-2.61l4.88-1.31c1.88-1.31,0.55-3.74-1.03-3.55l-4.35,1.79l0.37-4.49
		c-1.05-1.79-2.86-1.63-4.12,0.14l0.55,4.63L205.68,221.41z"/>
	
		<path fill-rule="evenodd" fill="#FFFFFF" stroke="#000000" stroke-width="1.5" stroke-linecap="round" stroke-linejoin="round" stroke-miterlimit="10" d="
		M205.42,244.4c-2.04,3.46,1.37,3.64,1.37,3.64l4.93-2.48l-0.69,5.57c0.76,1.6,2.61,3.05,4.74,0l-1.03-5.8l6-0.07
		c1.9-2.73,0.73-3.94-1.1-4.65l-5.22,1.54l2.52-4.38c0.39-2.25-2.25-3.05-3.23-1.79l-1.83,4.35l-2.91-3.44
		c-2.02-0.53-3.16,0.85-2.82,3l3.64,2.89L205.42,244.4z"/>
	
		<path fill-rule="evenodd" fill="#FFFFFF" stroke="#000000" stroke-width="1.5" stroke-linecap="round" stroke-linejoin="round" stroke-miterlimit="10" d="
		M221.51,260.81c1.01,3.9,3.55,1.6,3.55,1.6l1.72-5.23l3.48,4.42c1.65,0.6,3.99,0.32,3.35-3.35l-4.83-3.39l4.19-4.29
		c-0.6-3.28-2.29-3.3-4.08-2.52l-2.61,4.79l-1.31-4.88c-1.31-1.86-3.73-0.55-3.55,1.03l1.79,4.38l-4.49-0.37
		c-1.79,1.03-1.63,2.84,0.14,4.1l4.63-0.53L221.51,260.81z"/>
	
		<path fill-rule="evenodd" fill="#FFFFFF" stroke="#000000" stroke-width="1.5" stroke-linecap="round" stroke-linejoin="round" stroke-miterlimit="10" d="
		M244.49,261.04c3.46,2.04,3.64-1.38,3.64-1.38l-2.47-4.93l5.57,0.69c1.6-0.76,3.05-2.59,0-4.72l-5.8,1.01l-0.07-6
		c-2.73-1.9-3.94-0.71-4.65,1.1l1.53,5.23l-4.38-2.52c-2.25-0.39-3.05,2.25-1.79,3.26l4.35,1.81l-3.44,2.93
		c-0.53,1.99,0.85,3.16,3,2.8l2.89-3.64L244.49,261.04z"/>
	
		<path fill-rule="evenodd" fill="#FFFFFF" stroke="#000000" stroke-width="1.5" stroke-linecap="round" stroke-linejoin="round" stroke-miterlimit="10" d="
		M260.89,244.95c3.89-1.01,1.6-3.55,1.6-3.55l-5.22-1.72l4.42-3.46c0.6-1.67,0.32-3.99-3.34-3.35l-3.39,4.81l-4.28-4.19
		c-3.28,0.6-3.3,2.29-2.52,4.08l4.79,2.61l-4.88,1.31c-1.86,1.31-0.55,3.74,1.03,3.55l4.38-1.79l-0.37,4.49
		c1.03,1.79,2.84,1.63,4.1-0.14l-0.53-4.63L260.89,244.95z"/>
	
		<path fill-rule="evenodd" fill="#FFFFFF" stroke="#000000" stroke-width="1.5" stroke-linecap="round" stroke-linejoin="round" stroke-miterlimit="10" d="
		M261.12,221.98c2.04-3.48-1.37-3.67-1.37-3.67l-4.93,2.48l0.69-5.57c-0.76-1.6-2.59-3.05-4.72,0l1.01,5.8l-6,0.07
		c-1.9,2.75-0.71,3.97,1.1,4.68l5.22-1.54l-2.52,4.35c-0.39,2.27,2.25,3.05,3.25,1.79l1.81-4.36l2.91,3.44
		c2.02,0.55,3.18-0.85,2.82-2.98l-3.64-2.91L261.12,221.98z"/>
	
		<path fill-rule="evenodd" fill="#FFFFFF" stroke="#000000" stroke-width="1.5" stroke-linecap="round" stroke-linejoin="round" stroke-miterlimit="10" d="
		M245.04,205.57c-1.01-3.92-3.55-1.63-3.55-1.63l-1.72,5.23l-3.46-4.42c-1.67-0.6-3.99-0.3-3.34,3.35l4.81,3.39l-4.19,4.29
		c0.6,3.28,2.29,3.32,4.08,2.52l2.61-4.79l1.31,4.88c1.31,1.88,3.73,0.55,3.55-1.03l-1.79-4.35l4.49,0.37
		c1.79-1.05,1.63-2.87-0.14-4.13l-4.63,0.55L245.04,205.57z"/>
	
		<path fill-rule="evenodd" fill="#FFFFFF" stroke="#000000" stroke-width="1.5" stroke-linecap="round" stroke-linejoin="round" stroke-miterlimit="10" d="
		M237.54,227.46c-1.01-3.92-3.55-1.63-3.55-1.63l-1.72,5.25l-3.48-4.45c-1.65-0.57-3.99-0.3-3.34,3.35l4.83,3.39l-4.19,4.29
		c0.6,3.28,2.29,3.32,4.08,2.52l2.61-4.77l1.31,4.86c1.31,1.88,3.73,0.57,3.55-1.03l-1.79-4.36l4.49,0.37
		c1.79-1.03,1.63-2.84-0.14-4.1l-4.63,0.53L237.54,227.46z"/>
	
		<path fill-rule="evenodd" fill="#FFFFFF" stroke="#000000" stroke-width="1.5" stroke-linecap="round" stroke-linejoin="round" stroke-miterlimit="10" d="
		M222.08,205.34c-3.48-2.06-3.67,1.35-3.67,1.35l2.47,4.93l-5.57-0.69c-1.6,0.76-3.05,2.61,0,4.75l5.8-1.03l0.07,6.01
		c2.75,1.9,3.96,0.73,4.67-1.1l-1.53-5.23l4.35,2.52c2.27,0.39,3.05-2.25,1.79-3.23l-4.35-1.83l3.44-2.91
		c0.55-2.02-0.85-3.16-3-2.82l-2.89,3.64L222.08,205.34z"/>
	
		<path fill-rule="evenodd" fill="#FFFFFF" stroke="#000000" stroke-width="1.5" stroke-linecap="round" stroke-linejoin="round" stroke-miterlimit="10" d="
		M102.05,230.97c-3.67,1.67-0.99,3.78-0.99,3.78l5.45,0.8l-3.76,4.17c-0.3,1.74,0.39,3.99,3.87,2.7l2.5-5.34l4.97,3.42
		c3.12-1.17,2.84-2.84,1.76-4.47l-5.15-1.74l4.56-2.13c1.6-1.63-0.09-3.78-1.63-3.32l-3.99,2.52l-0.41-4.49
		c-1.35-1.58-3.09-1.1-4.03,0.85l1.33,4.47L102.05,230.97z"/>
	
		<path fill-rule="evenodd" fill="#FFFFFF" stroke="#000000" stroke-width="1.5" stroke-linecap="round" stroke-linejoin="round" stroke-miterlimit="10" d="
		M103.7,253.77c-3.32,2.27-0.3,3.87-0.3,3.87l5.5-0.16l-2.96,4.77c0,1.77,1.05,3.85,4.28,1.99l1.51-5.68l5.48,2.48
		c2.89-1.67,2.34-3.28,0.96-4.7l-5.38-0.8l4.15-2.91c1.31-1.88-0.76-3.69-2.18-2.98l-3.51,3.16l-1.19-4.33
		c-1.58-1.33-3.23-0.57-3.8,1.51l2.08,4.17L103.7,253.77z"/>
	
		<path fill-rule="evenodd" fill="#FFFFFF" stroke="#000000" stroke-width="1.5" stroke-linecap="round" stroke-linejoin="round" stroke-miterlimit="10" d="
		M109.29,275.92c-2.86,2.82,0.39,3.9,0.39,3.9l5.38-1.12l-2.11,5.2c0.32,1.74,1.74,3.62,4.58,1.24l0.5-5.89l5.82,1.51
		c2.54-2.15,1.72-3.64,0.14-4.81l-5.43,0.14l3.55-3.58c0.96-2.06-1.37-3.51-2.66-2.54l-2.89,3.71l-1.92-4.06
		c-1.79-1.03-3.28,0-3.48,2.15l2.77,3.76L109.29,275.92z"/>
	
		<path fill-rule="evenodd" fill="#FFFFFF" stroke="#000000" stroke-width="1.5" stroke-linecap="round" stroke-linejoin="round" stroke-miterlimit="10" d="
		M118.66,296.78c-2.36,3.28,1.03,3.76,1.03,3.76l5.11-2.04l-1.15,5.5c0.6,1.65,2.31,3.25,4.7,0.41l-0.5-5.89l5.98,0.48
		c2.13-2.57,1.08-3.9-0.69-4.75l-5.34,1.05l2.89-4.13c0.6-2.2-1.97-3.23-3.07-2.06l-2.2,4.17l-2.59-3.67
		c-1.95-0.71-3.23,0.57-3.07,2.75l3.39,3.19L118.66,296.78z"/>
	
		<path fill-rule="evenodd" fill="#FFFFFF" stroke="#000000" stroke-width="1.5" stroke-linecap="round" stroke-linejoin="round" stroke-miterlimit="10" d="
		M131.47,315.69c-1.74,3.62,1.7,3.51,1.7,3.51l4.67-2.89l-0.18,5.62c0.89,1.51,2.84,2.8,4.72-0.41l-1.54-5.71l5.98-0.57
		c1.65-2.89,0.37-4.01-1.51-4.56l-5.06,1.99l2.13-4.58c0.18-2.27-2.5-2.82-3.39-1.49l-1.44,4.49l-3.19-3.16
		c-2.04-0.37-3.09,1.12-2.54,3.23l3.9,2.57L131.47,315.69z"/>
	
		<path fill-rule="evenodd" fill="#FFFFFF" stroke="#000000" stroke-width="1.5" stroke-linecap="round" stroke-linejoin="round" stroke-miterlimit="10" d="
		M147.39,332.08c-1.08,3.87,2.27,3.19,2.27,3.19l4.1-3.69l0.8,5.57c1.15,1.35,3.3,2.27,4.56-1.21l-2.5-5.34l5.8-1.63
		c1.12-3.14-0.32-4.01-2.27-4.22l-4.65,2.84l1.31-4.88c-0.21-2.27-2.96-2.36-3.6-0.89l-0.64,4.68l-3.69-2.57
		c-2.08,0.02-2.84,1.65-1.95,3.64l4.28,1.86L147.39,332.08z"/>
	
		<path fill-rule="evenodd" fill="#FFFFFF" stroke="#000000" stroke-width="1.5" stroke-linecap="round" stroke-linejoin="round" stroke-miterlimit="10" d="
		M165.9,345.44c-0.39,4.03,2.79,2.75,2.79,2.75l3.41-4.33l1.74,5.34c1.35,1.12,3.64,1.67,4.28-1.99l-3.39-4.84l5.43-2.59
		c0.55-3.28-1.03-3.9-2.98-3.76l-4.08,3.6l0.44-5.02c-0.6-2.22-3.32-1.81-3.69-0.25l0.18,4.7l-4.1-1.88
		c-2.04,0.37-2.5,2.13-1.28,3.92l4.54,1.08L165.9,345.44z"/>
	
		<path fill-rule="evenodd" fill="#FFFFFF" stroke="#000000" stroke-width="1.5" stroke-linecap="round" stroke-linejoin="round" stroke-miterlimit="10" d="
		M186.48,355.41c0.3,4.01,3.21,2.22,3.21,2.22l2.61-4.86l2.63,4.95c1.53,0.87,3.87,1.01,3.87-2.7l-4.17-4.17l4.9-3.51
		c-0.02-3.32-1.69-3.64-3.6-3.19l-3.39,4.26l-0.44-5.04c-0.99-2.06-3.6-1.19-3.69,0.39l1.01,4.63l-4.35-1.15
		c-1.95,0.71-2.11,2.52-0.6,4.06l4.65,0.3L186.48,355.41z"/>
	
		<path fill-rule="evenodd" fill="#FFFFFF" stroke="#000000" stroke-width="1.5" stroke-linecap="round" stroke-linejoin="round" stroke-miterlimit="10" d="
		M208.45,361.64c1.01,3.9,3.55,1.63,3.55,1.63l1.72-5.25l3.46,4.42c1.67,0.6,3.99,0.32,3.34-3.35l-4.81-3.37l4.19-4.31
		c-0.6-3.28-2.29-3.3-4.08-2.5l-2.61,4.77l-1.31-4.86c-1.31-1.88-3.73-0.57-3.55,1.01l1.79,4.38l-4.49-0.37
		c-1.79,1.03-1.63,2.84,0.14,4.1l4.63-0.53L208.45,361.64z"/>
	
		<path fill-rule="evenodd" fill="#FFFFFF" stroke="#000000" stroke-width="1.5" stroke-linecap="round" stroke-linejoin="round" stroke-miterlimit="10" d="
		M231.18,363.96c1.65,3.67,3.76,0.99,3.76,0.99l0.8-5.46l4.19,3.76c1.72,0.3,3.96-0.39,2.7-3.87l-5.34-2.5l3.39-4.95
		c-1.17-3.14-2.82-2.86-4.47-1.79l-1.72,5.18l-2.15-4.58c-1.6-1.6-3.76,0.09-3.32,1.63l2.52,3.99l-4.47,0.44
		c-1.58,1.33-1.12,3.07,0.82,4.01l4.47-1.33L231.18,363.96z"/>
	
		<path fill-rule="evenodd" fill="#FFFFFF" stroke="#000000" stroke-width="1.5" stroke-linecap="round" stroke-linejoin="round" stroke-miterlimit="10" d="
		M253.95,362.31c2.27,3.32,3.9,0.3,3.9,0.3l-0.18-5.5l4.79,2.98c1.76-0.02,3.85-1.08,1.99-4.29l-5.7-1.54l2.5-5.48
		c-1.69-2.86-3.3-2.31-4.7-0.96l-0.82,5.39l-2.89-4.15c-1.88-1.28-3.71,0.76-3,2.2l3.18,3.48l-4.35,1.19
		c-1.33,1.58-0.55,3.23,1.53,3.81l4.17-2.09L253.95,362.31z"/>
	
		<path fill-rule="evenodd" fill="#FFFFFF" stroke="#000000" stroke-width="1.5" stroke-linecap="round" stroke-linejoin="round" stroke-miterlimit="10" d="
		M276.1,356.72c2.82,2.87,3.87-0.37,3.87-0.37l-1.12-5.41l5.22,2.11c1.72-0.32,3.6-1.72,1.21-4.58l-5.86-0.5l1.49-5.82
		c-2.15-2.54-3.64-1.72-4.79-0.14l0.14,5.43l-3.57-3.55c-2.08-0.96-3.53,1.38-2.57,2.66l3.73,2.89l-4.08,1.93
		c-1.03,1.81,0.02,3.28,2.18,3.51l3.73-2.8L276.1,356.72z"/>
	
		<path fill-rule="evenodd" fill="#FFFFFF" stroke="#000000" stroke-width="1.5" stroke-linecap="round" stroke-linejoin="round" stroke-miterlimit="10" d="
		M296.93,347.36c3.28,2.34,3.76-1.05,3.76-1.05l-2.04-5.11l5.5,1.17c1.65-0.62,3.25-2.34,0.41-4.72l-5.87,0.5l0.46-5.98
		c-2.57-2.13-3.87-1.08-4.74,0.69l1.08,5.34l-4.15-2.89c-2.2-0.6-3.21,1.97-2.06,3.07l4.19,2.2l-3.69,2.59
		c-0.69,1.95,0.6,3.23,2.75,3.07l3.21-3.39L296.93,347.36z"/>
	
		<path fill-rule="evenodd" fill="#FFFFFF" stroke="#000000" stroke-width="1.5" stroke-linecap="round" stroke-linejoin="round" stroke-miterlimit="10" d="
		M315.83,334.53c3.64,1.74,3.53-1.67,3.53-1.67l-2.91-4.7l5.61,0.18c1.53-0.89,2.82-2.84-0.41-4.7l-5.68,1.51l-0.6-5.98
		c-2.89-1.65-3.99-0.37-4.54,1.51l1.97,5.07l-4.56-2.13c-2.29-0.18-2.84,2.52-1.51,3.39l4.51,1.44l-3.18,3.19
		c-0.34,2.04,1.15,3.09,3.23,2.54l2.57-3.87L315.83,334.53z"/>
	
		<path fill-rule="evenodd" fill="#FFFFFF" stroke="#000000" stroke-width="1.5" stroke-linecap="round" stroke-linejoin="round" stroke-miterlimit="10" d="
		M332.21,318.6c3.89,1.08,3.18-2.27,3.18-2.27l-3.67-4.1l5.57-0.8c1.33-1.15,2.25-3.28-1.24-4.56l-5.34,2.5l-1.6-5.8
		c-3.14-1.12-4.01,0.32-4.24,2.29l2.84,4.63l-4.88-1.31c-2.27,0.21-2.34,2.96-0.87,3.6l4.67,0.64l-2.57,3.71
		c0,2.06,1.65,2.82,3.62,1.93l1.86-4.26L332.21,318.6z"/>
	
		<path fill-rule="evenodd" fill="#FFFFFF" stroke="#000000" stroke-width="1.5" stroke-linecap="round" stroke-linejoin="round" stroke-miterlimit="10" d="
		M345.59,300.08c4.01,0.39,2.73-2.8,2.73-2.8l-4.33-3.42l5.36-1.74c1.12-1.35,1.65-3.62-2.02-4.29l-4.81,3.39l-2.61-5.43
		c-3.28-0.55-3.87,1.03-3.76,2.98l3.6,4.1l-5.02-0.46c-2.2,0.62-1.81,3.32-0.25,3.71l4.72-0.21l-1.88,4.1
		c0.37,2.04,2.11,2.5,3.89,1.28l1.08-4.54L345.59,300.08z"/>
	
		<path fill-rule="evenodd" fill="#FFFFFF" stroke="#000000" stroke-width="1.5" stroke-linecap="round" stroke-linejoin="round" stroke-miterlimit="10" d="
		M355.53,279.49c4.03-0.3,2.22-3.21,2.22-3.21l-4.86-2.61l4.95-2.64c0.87-1.54,1.01-3.87-2.7-3.87l-4.17,4.17l-3.5-4.91
		c-3.32,0.02-3.64,1.7-3.18,3.6l4.26,3.39l-5.02,0.44c-2.08,0.99-1.21,3.6,0.39,3.69l4.6-1.01l-1.15,4.36
		c0.71,1.95,2.52,2.11,4.08,0.6l0.27-4.65L355.53,279.49z"/>
	
		<path fill-rule="evenodd" fill="#FFFFFF" stroke="#000000" stroke-width="1.5" stroke-linecap="round" stroke-linejoin="round" stroke-miterlimit="10" d="
		M361.76,257.51c3.92-0.99,1.63-3.55,1.63-3.55l-5.22-1.72l4.42-3.46c0.6-1.67,0.3-3.99-3.34-3.35l-3.39,4.84l-4.28-4.22
		c-3.28,0.6-3.32,2.29-2.52,4.08l4.79,2.61l-4.88,1.31c-1.88,1.33-0.55,3.74,1.03,3.55l4.35-1.79l-0.37,4.49
		c1.05,1.79,2.86,1.63,4.12-0.14l-0.55-4.63L361.76,257.51z"/>
	
		<path fill-rule="evenodd" fill="#FFFFFF" stroke="#000000" stroke-width="1.5" stroke-linecap="round" stroke-linejoin="round" stroke-miterlimit="10" d="
		M364.1,234.8c3.67-1.67,0.96-3.78,0.96-3.78l-5.45-0.8l3.76-4.17c0.3-1.74-0.39-3.99-3.87-2.73l-2.5,5.34l-4.95-3.39
		c-3.12,1.17-2.86,2.84-1.76,4.47l5.15,1.74l-4.56,2.13c-1.63,1.6,0.09,3.78,1.63,3.32l3.99-2.52l0.41,4.49
		c1.33,1.58,3.09,1.1,4.03-0.85l-1.33-4.47L364.1,234.8z"/>
	
		<path fill-rule="evenodd" fill="#FFFFFF" stroke="#000000" stroke-width="1.5" stroke-linecap="round" stroke-linejoin="round" stroke-miterlimit="10" d="
		M362.43,211.99c3.32-2.27,0.32-3.9,0.32-3.9l-5.52,0.18l2.98-4.77c-0.02-1.76-1.08-3.87-4.28-2.02l-1.54,5.71l-5.48-2.5
		c-2.86,1.7-2.31,3.3-0.96,4.7l5.38,0.82l-4.12,2.89c-1.31,1.88,0.76,3.71,2.18,3l3.48-3.19l1.19,4.36c1.6,1.33,3.23,0.55,3.83-1.54
		l-2.08-4.17L362.43,211.99z"/>
	
		<path fill-rule="evenodd" fill="#FFFFFF" stroke="#000000" stroke-width="1.5" stroke-linecap="round" stroke-linejoin="round" stroke-miterlimit="10" d="
		M356.84,189.85c2.89-2.84-0.37-3.9-0.37-3.9l-5.41,1.12l2.11-5.23c-0.32-1.72-1.72-3.6-4.56-1.21l-0.53,5.87l-5.82-1.49
		c-2.54,2.15-1.72,3.64-0.14,4.79l5.45-0.11l-3.57,3.55c-0.96,2.09,1.4,3.53,2.68,2.57l2.89-3.74l1.92,4.08
		c1.79,1.03,3.28,0,3.48-2.18l-2.77-3.74L356.84,189.85z"/>
	
		<path fill-rule="evenodd" fill="#FFFFFF" stroke="#000000" stroke-width="1.5" stroke-linecap="round" stroke-linejoin="round" stroke-miterlimit="10" d="
		M347.49,168.99c2.34-3.28-1.03-3.76-1.03-3.76l-5.13,2.04l1.17-5.5c-0.62-1.65-2.31-3.25-4.72-0.41l0.53,5.87l-6-0.46
		c-2.13,2.57-1.05,3.87,0.71,4.75l5.34-1.08l-2.91,4.15c-0.57,2.2,1.97,3.21,3.07,2.06l2.2-4.19l2.61,3.69
		c1.95,0.71,3.23-0.57,3.07-2.75l-3.39-3.21L347.49,168.99z"/>
	
		<path fill-rule="evenodd" fill="#FFFFFF" stroke="#000000" stroke-width="1.5" stroke-linecap="round" stroke-linejoin="round" stroke-miterlimit="10" d="
		M334.66,150.08c1.74-3.64-1.67-3.53-1.67-3.53l-4.7,2.91l0.21-5.62c-0.89-1.54-2.86-2.82-4.72,0.41l1.54,5.68l-6,0.6
		c-1.63,2.89-0.37,4.01,1.51,4.54l5.09-1.97l-2.13,4.56c-0.21,2.29,2.5,2.84,3.37,1.51l1.44-4.49l3.21,3.16
		c2.04,0.34,3.07-1.15,2.54-3.23l-3.89-2.57L334.66,150.08z"/>
	
		<path fill-rule="evenodd" fill="#FFFFFF" stroke="#000000" stroke-width="1.5" stroke-linecap="round" stroke-linejoin="round" stroke-miterlimit="10" d="
		M318.74,133.69c1.1-3.9-2.25-3.19-2.25-3.19l-4.12,3.67l-0.78-5.57c-1.15-1.33-3.3-2.25-4.58,1.24l2.5,5.34l-5.8,1.63
		c-1.1,3.14,0.34,4.01,2.29,4.22l4.65-2.84l-1.31,4.88c0.21,2.27,2.96,2.34,3.6,0.89l0.62-4.7l3.71,2.57c2.06,0,2.84-1.65,1.95-3.62
		l-4.29-1.86L318.74,133.69z"/>
	
		<path fill-rule="evenodd" fill="#FFFFFF" stroke="#000000" stroke-width="1.5" stroke-linecap="round" stroke-linejoin="round" stroke-miterlimit="10" d="
		M300.23,120.3c0.39-4.01-2.77-2.73-2.77-2.73l-3.41,4.33l-1.74-5.34c-1.38-1.15-3.64-1.67-4.28,1.99l3.37,4.84l-5.41,2.59
		c-0.57,3.28,1.01,3.9,2.98,3.76l4.08-3.6l-0.43,5.02c0.6,2.2,3.32,1.81,3.69,0.25l-0.18-4.72l4.08,1.88
		c2.04-0.34,2.52-2.11,1.28-3.9l-4.54-1.08L300.23,120.3z"/>
	
		<path fill-rule="evenodd" fill="#FFFFFF" stroke="#000000" stroke-width="1.5" stroke-linecap="round" stroke-linejoin="round" stroke-miterlimit="10" d="
		M279.68,110.35c-0.32-4.03-3.21-2.22-3.21-2.22l-2.61,4.86l-2.66-4.95c-1.54-0.87-3.87-1.01-3.87,2.7l4.17,4.17l-4.88,3.51
		c0.02,3.32,1.67,3.64,3.57,3.19l3.41-4.26l0.44,5.02c0.96,2.09,3.57,1.21,3.67-0.39l-0.98-4.61l4.35,1.15
		c1.95-0.71,2.11-2.52,0.57-4.08l-4.65-0.27L279.68,110.35z"/>
	
		<path fill-rule="evenodd" fill="#FFFFFF" stroke="#000000" stroke-width="1.5" stroke-linecap="round" stroke-linejoin="round" stroke-miterlimit="10" d="
		M257.71,104.12c-1.01-3.92-3.55-1.63-3.55-1.63l-1.74,5.25l-3.46-4.45c-1.65-0.57-3.99-0.3-3.34,3.35l4.83,3.39l-4.22,4.29
		c0.62,3.28,2.29,3.32,4.1,2.52l2.59-4.77l1.33,4.86c1.31,1.88,3.73,0.57,3.55-1.03l-1.79-4.36l4.49,0.37
		c1.79-1.03,1.63-2.84-0.14-4.1l-4.63,0.53L257.71,104.12z"/>
	
		<path fill-rule="evenodd" fill="#FFFFFF" stroke="#000000" stroke-width="1.5" stroke-linecap="round" stroke-linejoin="round" stroke-miterlimit="10" d="
		M234.98,101.8c-1.67-3.69-3.78-0.99-3.78-0.99l-0.8,5.46l-4.17-3.76c-1.74-0.3-3.99,0.39-2.7,3.87l5.34,2.5l-3.39,4.95
		c1.15,3.12,2.82,2.87,4.44,1.76l1.74-5.16l2.13,4.58c1.63,1.6,3.78-0.11,3.32-1.63l-2.52-4.01l4.49-0.41
		c1.58-1.33,1.12-3.07-0.85-4.01l-4.47,1.33L234.98,101.8z"/>
	
		<path fill-rule="evenodd" fill="#FFFFFF" stroke="#000000" stroke-width="1.5" stroke-linecap="round" stroke-linejoin="round" stroke-miterlimit="10" d="
		M212.21,103.46c-2.29-3.32-3.9-0.32-3.9-0.32l0.16,5.52l-4.77-2.98c-1.76,0.02-3.85,1.08-1.99,4.29l5.68,1.54l-2.47,5.48
		c1.67,2.87,3.28,2.31,4.7,0.96l0.8-5.39l2.91,4.13c1.88,1.31,3.69-0.76,2.98-2.18l-3.16-3.48l4.33-1.19
		c1.33-1.58,0.57-3.23-1.51-3.83l-4.17,2.09L212.21,103.46z"/>
	
		<path fill-rule="evenodd" fill="#FFFFFF" stroke="#000000" stroke-width="1.5" stroke-linecap="round" stroke-linejoin="round" stroke-miterlimit="10" d="
		M190.05,109.05c-2.82-2.89-3.89,0.37-3.89,0.37l1.12,5.41l-5.2-2.11c-1.74,0.32-3.62,1.72-1.24,4.56l5.89,0.53l-1.51,5.82
		c2.18,2.54,3.64,1.72,4.81,0.14l-0.14-5.46l3.57,3.58c2.06,0.96,3.5-1.38,2.57-2.66l-3.73-2.89l4.05-1.93
		c1.03-1.81,0-3.3-2.15-3.51l-3.76,2.77L190.05,109.05z"/>
	
		<path fill-rule="evenodd" fill="#FFFFFF" stroke="#000000" stroke-width="1.5" stroke-linecap="round" stroke-linejoin="round" stroke-miterlimit="10" d="
		M169.2,118.4c-3.28-2.34-3.76,1.03-3.76,1.03l2.04,5.13l-5.5-1.17c-1.65,0.62-3.25,2.34-0.41,4.72l5.89-0.5l-0.48,5.98
		c2.57,2.13,3.89,1.05,4.77-0.69l-1.08-5.34l4.12,2.89c2.2,0.57,3.23-1.97,2.06-3.07l-4.17-2.2l3.67-2.61
		c0.71-1.95-0.57-3.23-2.73-3.05l-3.21,3.37L169.2,118.4z"/>
	
		<path fill-rule="evenodd" fill="#FFFFFF" stroke="#000000" stroke-width="1.5" stroke-linecap="round" stroke-linejoin="round" stroke-miterlimit="10" d="
		M150.3,131.24c-3.62-1.74-3.5,1.67-3.5,1.67l2.89,4.7l-5.61-0.18c-1.51,0.87-2.79,2.84,0.41,4.7l5.7-1.51l0.57,5.98
		c2.91,1.65,4.01,0.37,4.56-1.51l-1.99-5.09l4.58,2.13c2.27,0.21,2.82-2.5,1.49-3.37l-4.49-1.44l3.16-3.21
		c0.37-2.04-1.12-3.07-3.23-2.54l-2.57,3.9L150.3,131.24z"/>
	
		<path fill-rule="evenodd" fill="#FFFFFF" stroke="#000000" stroke-width="1.5" stroke-linecap="round" stroke-linejoin="round" stroke-miterlimit="10" d="
		M133.92,147.17c-3.87-1.1-3.16,2.25-3.16,2.25l3.67,4.13l-5.57,0.78c-1.35,1.15-2.27,3.3,1.21,4.58l5.36-2.5l1.6,5.8
		c3.14,1.12,4.01-0.34,4.22-2.29l-2.84-4.65l4.88,1.31c2.27-0.21,2.36-2.96,0.89-3.58l-4.67-0.64l2.57-3.71
		c0-2.06-1.65-2.84-3.62-1.95l-1.86,4.29L133.92,147.17z"/>
	
		<path fill-rule="evenodd" fill="#FFFFFF" stroke="#000000" stroke-width="1.5" stroke-linecap="round" stroke-linejoin="round" stroke-miterlimit="10" d="
		M120.56,165.69c-4.01-0.39-2.75,2.77-2.75,2.77l4.33,3.42l-5.34,1.74c-1.12,1.38-1.65,3.64,1.99,4.29l4.83-3.37l2.59,5.41
		c3.3,0.57,3.89-1.01,3.76-2.96l-3.6-4.1l5.04,0.44c2.2-0.6,1.79-3.32,0.25-3.69l-4.72,0.18l1.88-4.08
		c-0.37-2.04-2.13-2.52-3.92-1.28l-1.08,4.54L120.56,165.69z"/>
	
		<path fill-rule="evenodd" fill="#FFFFFF" stroke="#000000" stroke-width="1.5" stroke-linecap="round" stroke-linejoin="round" stroke-miterlimit="10" d="
		M110.6,186.25c-4.01,0.32-2.2,3.23-2.2,3.23l4.86,2.61l-4.97,2.64c-0.87,1.54-0.98,3.87,2.73,3.87l4.17-4.17l3.48,4.88
		c3.35-0.02,3.67-1.67,3.18-3.58l-4.24-3.39l5.02-0.46c2.06-0.96,1.19-3.58-0.39-3.67l-4.63,0.99l1.15-4.36
		c-0.71-1.93-2.52-2.09-4.06-0.57l-0.3,4.65L110.6,186.25z"/>
	
		<path fill-rule="evenodd" fill="#FFFFFF" stroke="#000000" stroke-width="1.5" stroke-linecap="round" stroke-linejoin="round" stroke-miterlimit="10" d="
		M8.46,201.93c-3.8,1.35-1.31,3.69-1.31,3.69l5.38,1.26l-4.12,3.83c-0.44,1.72,0.05,4.01,3.62,3.05l2.96-5.11l4.65,3.83
		c3.21-0.89,3.09-2.57,2.15-4.29l-4.99-2.2l4.74-1.72c1.74-1.47,0.23-3.78-1.33-3.46l-4.19,2.18l-0.05-4.52
		c-1.17-1.7-2.98-1.38-4.08,0.48l0.94,4.58L8.46,201.93z"/>
	
		<path fill-rule="evenodd" fill="#FFFFFF" stroke="#000000" stroke-width="1.5" stroke-linecap="round" stroke-linejoin="round" stroke-miterlimit="10" d="
		M6.54,221.62c-3.67,1.65-0.99,3.78-0.99,3.78l5.45,0.78l-3.76,4.2c-0.3,1.74,0.39,3.96,3.87,2.7l2.5-5.34l4.95,3.39
		c3.14-1.17,2.86-2.82,1.76-4.47l-5.15-1.72l4.58-2.15c1.6-1.6-0.09-3.76-1.63-3.32l-3.99,2.52l-0.44-4.47
		c-1.33-1.58-3.07-1.12-4.01,0.83l1.33,4.47L6.54,221.62z"/>
	
		<path fill-rule="evenodd" fill="#FFFFFF" stroke="#000000" stroke-width="1.5" stroke-linecap="round" stroke-linejoin="round" stroke-miterlimit="10" d="
		M6.31,241.37c-3.5,1.99-0.64,3.85-0.64,3.85l5.5,0.32l-3.37,4.49c-0.14,1.77,0.73,3.94,4.08,2.36l2.04-5.52l5.22,2.93
		c3-1.42,2.61-3.05,1.37-4.58l-5.29-1.28l4.38-2.52c1.44-1.77-0.44-3.76-1.92-3.19l-3.76,2.87l-0.8-4.42
		c-1.47-1.47-3.16-0.85-3.94,1.19l1.72,4.33L6.31,241.37z"/>
	
		<path fill-rule="evenodd" fill="#FFFFFF" stroke="#000000" stroke-width="1.5" stroke-linecap="round" stroke-linejoin="round" stroke-miterlimit="10" d="
		M7.82,261.11c-3.32,2.27-0.32,3.87-0.32,3.87l5.52-0.16l-2.98,4.77c0.02,1.76,1.08,3.85,4.28,2.02l1.54-5.71l5.48,2.5
		c2.86-1.7,2.31-3.3,0.96-4.72l-5.38-0.8l4.12-2.91c1.31-1.86-0.76-3.69-2.18-2.98l-3.48,3.16l-1.19-4.33
		c-1.6-1.33-3.23-0.57-3.83,1.54l2.08,4.17L7.82,261.11z"/>
	
		<path fill-rule="evenodd" fill="#FFFFFF" stroke="#000000" stroke-width="1.5" stroke-linecap="round" stroke-linejoin="round" stroke-miterlimit="10" d="
		M11.03,280.62c-3.12,2.57,0.05,3.9,0.05,3.9l5.48-0.64l-2.54,5.02c0.16,1.74,1.4,3.74,4.42,1.6l1.03-5.8l5.68,1.99
		c2.7-1.93,2.02-3.46,0.55-4.77l-5.43-0.34l3.85-3.23c1.15-1.99-1.08-3.62-2.43-2.8l-3.21,3.46l-1.56-4.22
		c-1.7-1.19-3.28-0.27-3.67,1.86l2.43,3.97H11.03z"/>
	
		<path fill-rule="evenodd" fill="#FFFFFF" stroke="#000000" stroke-width="1.5" stroke-linecap="round" stroke-linejoin="round" stroke-miterlimit="10" d="
		M15.93,299.78c-2.86,2.82,0.39,3.87,0.39,3.87l5.38-1.12l-2.08,5.23c0.3,1.74,1.72,3.6,4.56,1.22l0.5-5.87l5.82,1.49
		c2.54-2.15,1.74-3.62,0.14-4.79l-5.43,0.14l3.55-3.58c0.96-2.09-1.37-3.51-2.66-2.57l-2.89,3.74l-1.92-4.08
		c-1.79-1.03-3.28,0.02-3.48,2.18l2.77,3.74L15.93,299.78z"/>
	
		<path fill-rule="evenodd" fill="#FFFFFF" stroke="#000000" stroke-width="1.5" stroke-linecap="round" stroke-linejoin="round" stroke-miterlimit="10" d="
		M22.51,318.44c-2.63,3.05,0.69,3.83,0.69,3.83l5.29-1.58l-1.65,5.39c0.48,1.7,2.04,3.44,4.67,0.8v-5.89l5.93,0.99
		c2.34-2.38,1.37-3.78-0.3-4.79l-5.41,0.6l3.23-3.85c0.78-2.15-1.67-3.39-2.86-2.34l-2.57,3.99l-2.27-3.9
		c-1.88-0.87-3.25,0.3-3.28,2.45l3.09,3.51L22.51,318.44z"/>
	
		<path fill-rule="evenodd" fill="#FFFFFF" stroke="#000000" stroke-width="1.5" stroke-linecap="round" stroke-linejoin="round" stroke-miterlimit="10" d="
		M30.66,336.45c-2.36,3.28,1.03,3.76,1.03,3.76l5.13-2.04l-1.17,5.5c0.6,1.65,2.31,3.25,4.7,0.41l-0.5-5.89l5.98,0.48
		c2.13-2.59,1.08-3.9-0.69-4.77l-5.34,1.08l2.89-4.13c0.6-2.22-1.97-3.23-3.07-2.06l-2.2,4.17l-2.59-3.67
		c-1.95-0.71-3.23,0.57-3.07,2.73l3.39,3.21L30.66,336.45z"/>
	
		<path fill-rule="evenodd" fill="#FFFFFF" stroke="#000000" stroke-width="1.5" stroke-linecap="round" stroke-linejoin="round" stroke-miterlimit="10" d="
		M40.35,353.67c-2.06,3.48,1.35,3.67,1.35,3.67l4.93-2.48l-0.69,5.57c0.76,1.6,2.61,3.05,4.74,0l-1.03-5.8l6.03-0.07
		c1.88-2.73,0.71-3.97-1.12-4.65l-5.22,1.54l2.52-4.38c0.39-2.25-2.25-3.05-3.23-1.79l-1.83,4.35l-2.91-3.44
		c-1.99-0.53-3.16,0.85-2.82,3l3.67,2.89L40.35,353.67z"/>
	
		<path fill-rule="evenodd" fill="#FFFFFF" stroke="#000000" stroke-width="1.5" stroke-linecap="round" stroke-linejoin="round" stroke-miterlimit="10" d="
		M51.51,370.01c-1.74,3.62,1.67,3.51,1.67,3.51l4.7-2.89l-0.21,5.62c0.89,1.51,2.86,2.8,4.72-0.41l-1.53-5.71l5.98-0.57
		c1.65-2.89,0.39-4.01-1.51-4.56l-5.06,1.99l2.13-4.58c0.18-2.27-2.5-2.82-3.39-1.49l-1.42,4.49l-3.21-3.16
		c-2.04-0.37-3.07,1.12-2.54,3.23l3.9,2.57L51.51,370.01z"/>
	
		<path fill-rule="evenodd" fill="#FFFFFF" stroke="#000000" stroke-width="1.5" stroke-linecap="round" stroke-linejoin="round" stroke-miterlimit="10" d="
		M64.04,385.3c-1.42,3.76,1.97,3.35,1.97,3.35l4.42-3.3l0.3,5.62c1.03,1.44,3.09,2.54,4.65-0.8l-1.99-5.55l5.89-1.1
		c1.4-3.05,0.02-4.03-1.9-4.42l-4.88,2.43l1.74-4.74c-0.02-2.29-2.75-2.59-3.51-1.19l-1.05,4.61l-3.46-2.89
		c-2.06-0.18-2.96,1.4-2.25,3.44l4.1,2.22L64.04,385.3z"/>
	
		<path fill-rule="evenodd" fill="#FFFFFF" stroke="#000000" stroke-width="1.5" stroke-linecap="round" stroke-linejoin="round" stroke-miterlimit="10" d="
		M77.86,399.42c-1.08,3.9,2.27,3.19,2.27,3.19l4.12-3.67l0.78,5.57c1.15,1.33,3.3,2.27,4.56-1.24l-2.47-5.34l5.77-1.61
		c1.12-3.14-0.32-4.01-2.27-4.24l-4.65,2.84l1.31-4.86c-0.21-2.29-2.96-2.36-3.6-0.89l-0.64,4.68l-3.69-2.57
		c-2.08,0-2.84,1.65-1.95,3.62l4.28,1.86L77.86,399.42z"/>
	
		<path fill-rule="evenodd" fill="#FFFFFF" stroke="#000000" stroke-width="1.5" stroke-linecap="round" stroke-linejoin="round" stroke-miterlimit="10" d="
		M92.87,412.3c-0.73,3.96,2.54,2.98,2.54,2.98l3.78-4.01l1.26,5.48c1.26,1.24,3.48,1.95,4.44-1.63l-2.96-5.11l5.64-2.11
		c0.85-3.23-0.69-3.96-2.63-4.01l-4.4,3.23l0.87-4.97c-0.39-2.25-3.14-2.09-3.64-0.57l-0.23,4.72l-3.92-2.22
		c-2.06,0.18-2.68,1.88-1.6,3.76l4.42,1.49L92.87,412.3z"/>
	
		<path fill-rule="evenodd" fill="#FFFFFF" stroke="#000000" stroke-width="1.5" stroke-linecap="round" stroke-linejoin="round" stroke-miterlimit="10" d="
		M108.93,423.83c-0.39,4.01,2.8,2.73,2.8,2.73l3.41-4.33l1.74,5.36c1.35,1.12,3.62,1.65,4.28-2.02l-3.39-4.84l5.43-2.59
		c0.55-3.28-1.03-3.9-2.98-3.76l-4.08,3.6l0.44-5.02c-0.6-2.2-3.32-1.81-3.69-0.25l0.18,4.72l-4.1-1.88
		c-2.04,0.34-2.5,2.11-1.28,3.9l4.54,1.08L108.93,423.83z"/>
	
		<path fill-rule="evenodd" fill="#FFFFFF" stroke="#000000" stroke-width="1.5" stroke-linecap="round" stroke-linejoin="round" stroke-miterlimit="10" d="
		M125.95,433.89c-0.05,4.03,3,2.5,3,2.5l3.02-4.61l2.2,5.16c1.44,1.01,3.78,1.35,4.1-2.36l-3.8-4.52l5.18-3.05
		c0.27-3.32-1.35-3.81-3.3-3.51l-3.73,3.94l-0.02-5.04c-0.78-2.13-3.46-1.51-3.69,0.07l0.6,4.7l-4.24-1.54
		c-1.99,0.55-2.31,2.34-0.94,4.01l4.6,0.69L125.95,433.89z"/>
	
		<path fill-rule="evenodd" fill="#FFFFFF" stroke="#000000" stroke-width="1.5" stroke-linecap="round" stroke-linejoin="round" stroke-miterlimit="10" d="
		M143.77,442.47c0.3,4.01,3.21,2.2,3.21,2.2l2.61-4.86l2.63,4.97c1.53,0.87,3.87,0.99,3.87-2.73l-4.17-4.17l4.9-3.48
		c-0.02-3.35-1.69-3.67-3.6-3.19l-3.39,4.24l-0.44-5.02c-0.98-2.06-3.6-1.19-3.69,0.39l1.01,4.61l-4.35-1.12
		c-1.95,0.71-2.11,2.52-0.6,4.06l4.65,0.28L143.77,442.47z"/>
	
		<path fill-rule="evenodd" fill="#FFFFFF" stroke="#000000" stroke-width="1.5" stroke-linecap="round" stroke-linejoin="round" stroke-miterlimit="10" d="
		M162.26,449.43c0.66,3.97,3.39,1.93,3.39,1.93l2.18-5.07l3.07,4.7c1.6,0.73,3.94,0.67,3.62-3.05l-4.51-3.78l4.56-3.92
		c-0.3-3.3-1.99-3.48-3.85-2.87l-3,4.54l-0.89-4.95c-1.15-1.99-3.67-0.89-3.62,0.71l1.4,4.49l-4.44-0.76
		c-1.88,0.89-1.88,2.71-0.23,4.1l4.67-0.11L162.26,449.43z"/>
	
		<path fill-rule="evenodd" fill="#FFFFFF" stroke="#000000" stroke-width="1.5" stroke-linecap="round" stroke-linejoin="round" stroke-miterlimit="10" d="
		M181.3,454.75c1.01,3.9,3.55,1.63,3.55,1.63l1.72-5.25l3.46,4.42c1.67,0.6,3.99,0.32,3.35-3.32l-4.81-3.39l4.19-4.29
		c-0.6-3.3-2.29-3.32-4.08-2.52l-2.61,4.77l-1.31-4.86c-1.31-1.88-3.73-0.57-3.55,1.03l1.79,4.36l-4.49-0.37
		c-1.79,1.03-1.63,2.84,0.14,4.1l4.63-0.53L181.3,454.75z"/>
	
		<path fill-rule="evenodd" fill="#FFFFFF" stroke="#000000" stroke-width="1.5" stroke-linecap="round" stroke-linejoin="round" stroke-miterlimit="10" d="
		M200.73,458.4c1.33,3.8,3.67,1.31,3.67,1.31l1.28-5.36l3.83,4.1c1.7,0.46,3.99-0.02,3.05-3.62l-5.11-2.96l3.8-4.63
		c-0.87-3.21-2.57-3.09-4.28-2.16l-2.18,5l-1.72-4.75c-1.49-1.74-3.78-0.23-3.46,1.33l2.15,4.19l-4.49,0.02
		c-1.69,1.19-1.37,2.98,0.48,4.08l4.56-0.94L200.73,458.4z"/>
	
		<path fill-rule="evenodd" fill="#FFFFFF" stroke="#000000" stroke-width="1.5" stroke-linecap="round" stroke-linejoin="round" stroke-miterlimit="10" d="
		M220.38,460.35c1.67,3.67,3.78,0.99,3.78,0.99l0.8-5.46l4.17,3.76c1.74,0.28,3.99-0.39,2.73-3.9l-5.36-2.48l3.41-4.97
		c-1.17-3.12-2.84-2.87-4.47-1.76l-1.74,5.16l-2.13-4.56c-1.63-1.6-3.78,0.09-3.32,1.63l2.52,3.99l-4.49,0.41
		c-1.58,1.33-1.1,3.09,0.85,4.03l4.47-1.33L220.38,460.35z"/>
	
		<path fill-rule="evenodd" fill="#FFFFFF" stroke="#000000" stroke-width="1.5" stroke-linecap="round" stroke-linejoin="round" stroke-miterlimit="10" d="
		M240.16,460.55c1.97,3.53,3.85,0.66,3.85,0.66l0.32-5.52l4.49,3.39c1.76,0.14,3.92-0.73,2.36-4.1l-5.54-2.02l2.96-5.23
		c-1.42-3.03-3.07-2.61-4.6-1.38l-1.26,5.29l-2.54-4.38c-1.74-1.47-3.73,0.44-3.16,1.9l2.86,3.76l-4.44,0.83
		c-1.44,1.47-0.83,3.16,1.19,3.92l4.35-1.72L240.16,460.55z"/>
	
		<path fill-rule="evenodd" fill="#FFFFFF" stroke="#000000" stroke-width="1.5" stroke-linecap="round" stroke-linejoin="round" stroke-miterlimit="10" d="
		M259.86,459.06c2.29,3.32,3.89,0.3,3.89,0.3l-0.16-5.5l4.77,2.96c1.76,0,3.85-1.05,1.99-4.29l-5.68-1.51l2.47-5.48
		c-1.67-2.89-3.28-2.34-4.7-0.96l-0.82,5.39l-2.89-4.15c-1.88-1.31-3.69,0.76-2.98,2.2l3.16,3.48l-4.33,1.19
		c-1.33,1.58-0.57,3.23,1.51,3.8l4.17-2.09L259.86,459.06z"/>
	
		<path fill-rule="evenodd" fill="#FFFFFF" stroke="#000000" stroke-width="1.5" stroke-linecap="round" stroke-linejoin="round" stroke-miterlimit="10" d="
		M279.38,455.83c2.54,3.12,3.89-0.02,3.89-0.02l-0.64-5.48l4.99,2.54c1.76-0.16,3.76-1.4,1.63-4.45l-5.82-1.03l2.02-5.66
		c-1.92-2.73-3.48-2.04-4.76-0.55l-0.34,5.43l-3.25-3.87c-1.97-1.12-3.62,1.08-2.77,2.45l3.46,3.19l-4.24,1.58
		c-1.17,1.7-0.27,3.25,1.85,3.67l3.99-2.45V455.83z"/>
	
		<path fill-rule="evenodd" fill="#FFFFFF" stroke="#000000" stroke-width="1.5" stroke-linecap="round" stroke-linejoin="round" stroke-miterlimit="10" d="
		M298.51,450.92c2.82,2.89,3.9-0.37,3.9-0.37l-1.12-5.41l5.22,2.11c1.72-0.32,3.6-1.72,1.21-4.56l-5.87-0.53l1.49-5.82
		c-2.15-2.54-3.64-1.72-4.79-0.14l0.11,5.46l-3.55-3.58c-2.08-0.96-3.53,1.4-2.57,2.66l3.73,2.91l-4.08,1.93
		c-1.03,1.79,0,3.28,2.15,3.48l3.76-2.77L298.51,450.92z"/>
	
		<path fill-rule="evenodd" fill="#FFFFFF" stroke="#000000" stroke-width="1.5" stroke-linecap="round" stroke-linejoin="round" stroke-miterlimit="10" d="
		M317.16,444.37c3.07,2.61,3.85-0.71,3.85-0.71l-1.58-5.27l5.36,1.63c1.7-0.46,3.44-2.02,0.82-4.65h-5.89l0.99-5.94
		c-2.38-2.34-3.78-1.4-4.79,0.28l0.6,5.43l-3.87-3.26c-2.13-0.78-3.37,1.7-2.31,2.89l3.96,2.54l-3.9,2.27
		c-0.87,1.88,0.3,3.28,2.47,3.3l3.48-3.09L317.16,444.37z"/>
	
		<path fill-rule="evenodd" fill="#FFFFFF" stroke="#000000" stroke-width="1.5" stroke-linecap="round" stroke-linejoin="round" stroke-miterlimit="10" d="
		M335.17,436.21c3.28,2.34,3.76-1.03,3.76-1.03l-2.04-5.13l5.5,1.17c1.65-0.62,3.25-2.32,0.41-4.72l-5.86,0.53l0.46-6.01
		c-2.57-2.13-3.87-1.05-4.74,0.71l1.08,5.34l-4.15-2.91c-2.2-0.57-3.21,1.97-2.06,3.07l4.19,2.2l-3.69,2.61
		c-0.69,1.95,0.6,3.23,2.75,3.07l3.21-3.39L335.17,436.21z"/>
	
		<path fill-rule="evenodd" fill="#FFFFFF" stroke="#000000" stroke-width="1.5" stroke-linecap="round" stroke-linejoin="round" stroke-miterlimit="10" d="
		M352.39,426.51c3.48,2.04,3.67-1.38,3.67-1.38l-2.5-4.93l5.59,0.69c1.58-0.76,3.05-2.59,0-4.72l-5.82,1.01l-0.05-6
		c-2.75-1.9-3.96-0.71-4.67,1.12l1.54,5.23l-4.38-2.52c-2.25-0.41-3.02,2.25-1.79,3.23l4.35,1.83l-3.41,2.91
		c-0.55,1.99,0.85,3.16,2.98,2.8l2.91-3.64L352.39,426.51z"/>
	
		<path fill-rule="evenodd" fill="#FFFFFF" stroke="#000000" stroke-width="1.5" stroke-linecap="round" stroke-linejoin="round" stroke-miterlimit="10" d="
		M368.71,415.35c3.64,1.74,3.53-1.67,3.53-1.67l-2.91-4.7l5.64,0.18c1.51-0.89,2.79-2.84-0.41-4.7l-5.7,1.51l-0.57-5.98
		c-2.91-1.65-4.01-0.37-4.56,1.51l1.99,5.09l-4.58-2.13c-2.27-0.21-2.84,2.5-1.49,3.37l4.49,1.44l-3.18,3.21
		c-0.34,2.04,1.15,3.07,3.23,2.54l2.59-3.9L368.71,415.35z"/>
	
		<path fill-rule="evenodd" fill="#FFFFFF" stroke="#000000" stroke-width="1.5" stroke-linecap="round" stroke-linejoin="round" stroke-miterlimit="10" d="
		M383.99,402.81c3.78,1.4,3.37-1.99,3.37-1.99l-3.3-4.42l5.61-0.3c1.44-1.01,2.54-3.07-0.82-4.65l-5.54,2.02l-1.1-5.91
		c-3.02-1.38-4.01-0.02-4.4,1.9l2.43,4.88l-4.74-1.72c-2.29,0-2.61,2.73-1.21,3.51l4.61,1.03l-2.86,3.46
		c-0.18,2.06,1.4,2.98,3.44,2.27l2.22-4.1L383.99,402.81z"/>
	
		<path fill-rule="evenodd" fill="#FFFFFF" stroke="#000000" stroke-width="1.5" stroke-linecap="round" stroke-linejoin="round" stroke-miterlimit="10" d="
		M398.12,388.97c3.87,1.1,3.18-2.25,3.18-2.25l-3.67-4.13l5.54-0.78c1.35-1.15,2.27-3.3-1.21-4.58l-5.34,2.5l-1.63-5.8
		c-3.14-1.12-4.01,0.34-4.22,2.29l2.84,4.65l-4.88-1.31c-2.27,0.21-2.36,2.96-0.89,3.58l4.67,0.64l-2.54,3.71
		c0,2.06,1.65,2.84,3.62,1.95l1.86-4.29L398.12,388.97z"/>
	
		<path fill-rule="evenodd" fill="#FFFFFF" stroke="#000000" stroke-width="1.5" stroke-linecap="round" stroke-linejoin="round" stroke-miterlimit="10" d="
		M411,373.98c3.96,0.73,2.96-2.54,2.96-2.54l-4.01-3.78l5.48-1.26c1.24-1.26,1.97-3.48-1.6-4.45l-5.11,2.93l-2.11-5.62
		c-3.23-0.85-3.99,0.66-4.01,2.64l3.23,4.38l-4.97-0.87c-2.25,0.41-2.08,3.16-0.57,3.67l4.72,0.23l-2.25,3.9
		c0.18,2.06,1.9,2.68,3.78,1.63l1.47-4.42L411,373.98z"/>
	
		<path fill-rule="evenodd" fill="#FFFFFF" stroke="#000000" stroke-width="1.5" stroke-linecap="round" stroke-linejoin="round" stroke-miterlimit="10" d="
		M422.5,357.89c4.03,0.39,2.75-2.77,2.75-2.77l-4.33-3.42l5.34-1.74c1.12-1.35,1.65-3.64-1.99-4.29l-4.83,3.37l-2.59-5.41
		c-3.28-0.57-3.89,1.01-3.76,2.98l3.6,4.08l-5.02-0.43c-2.22,0.6-1.81,3.32-0.25,3.69l4.7-0.18l-1.88,4.1
		c0.37,2.02,2.13,2.5,3.92,1.26l1.08-4.52L422.5,357.89z"/>
	
		<path fill-rule="evenodd" fill="#FFFFFF" stroke="#000000" stroke-width="1.5" stroke-linecap="round" stroke-linejoin="round" stroke-miterlimit="10" d="
		M432.58,340.88c4.03,0.05,2.47-3,2.47-3l-4.6-3.03l5.18-2.2c1.01-1.47,1.33-3.78-2.36-4.1l-4.51,3.78l-3.07-5.18
		c-3.32-0.25-3.78,1.35-3.48,3.3l3.94,3.76h-5.04c-2.15,0.8-1.51,3.46,0.07,3.71l4.67-0.6l-1.51,4.24c0.55,1.99,2.34,2.32,4.01,0.94
		l0.69-4.63L432.58,340.88z"/>
	
		<path fill-rule="evenodd" fill="#FFFFFF" stroke="#000000" stroke-width="1.5" stroke-linecap="round" stroke-linejoin="round" stroke-miterlimit="10" d="
		M441.13,323.04c4.03-0.3,2.22-3.21,2.22-3.21l-4.86-2.61l4.95-2.64c0.87-1.54,1.01-3.87-2.7-3.9l-4.17,4.17l-3.51-4.88
		c-3.32,0.02-3.64,1.67-3.18,3.58l4.26,3.42l-5.02,0.44c-2.08,0.96-1.21,3.58,0.39,3.69l4.61-1.01l-1.15,4.36
		c0.71,1.95,2.52,2.11,4.08,0.6l0.28-4.68L441.13,323.04z"/>
	
		<path fill-rule="evenodd" fill="#FFFFFF" stroke="#000000" stroke-width="1.5" stroke-linecap="round" stroke-linejoin="round" stroke-miterlimit="10" d="
		M448.09,304.55c3.99-0.67,1.92-3.42,1.92-3.42l-5.06-2.18l4.72-3.05c0.73-1.6,0.66-3.94-3.05-3.62l-3.78,4.52l-3.92-4.58
		c-3.32,0.32-3.5,1.99-2.86,3.85l4.54,3.03l-4.97,0.87c-1.97,1.15-0.87,3.69,0.71,3.64l4.51-1.4l-0.76,4.42
		c0.87,1.88,2.68,1.88,4.1,0.23l-0.14-4.65L448.09,304.55z"/>
	
		<path fill-rule="evenodd" fill="#FFFFFF" stroke="#000000" stroke-width="1.5" stroke-linecap="round" stroke-linejoin="round" stroke-miterlimit="10" d="
		M453.43,285.5c3.89-1.01,1.6-3.55,1.6-3.55l-5.22-1.74l4.42-3.46c0.6-1.65,0.32-3.99-3.34-3.35l-3.37,4.84l-4.31-4.22
		c-3.28,0.62-3.3,2.29-2.52,4.1l4.79,2.61l-4.88,1.31c-1.86,1.31-0.55,3.74,1.03,3.55l4.38-1.79l-0.37,4.49
		c1.03,1.79,2.84,1.63,4.1-0.14l-0.53-4.63L453.43,285.5z"/>
	
		<path fill-rule="evenodd" fill="#FFFFFF" stroke="#000000" stroke-width="1.5" stroke-linecap="round" stroke-linejoin="round" stroke-miterlimit="10" d="
		M457.07,266.06c3.8-1.35,1.31-3.69,1.31-3.69l-5.36-1.26l4.1-3.83c0.44-1.72-0.05-4.01-3.62-3.05l-2.96,5.11l-4.65-3.83
		c-3.21,0.89-3.09,2.57-2.13,4.29l4.97,2.2l-4.72,1.72c-1.76,1.47-0.25,3.78,1.33,3.46l4.19-2.18l0.02,4.52
		c1.19,1.7,2.98,1.38,4.08-0.48l-0.94-4.58L457.07,266.06z"/>
	
		<path fill-rule="evenodd" fill="#FFFFFF" stroke="#000000" stroke-width="1.5" stroke-linecap="round" stroke-linejoin="round" stroke-miterlimit="10" d="
		M459.02,246.37c3.67-1.65,0.96-3.78,0.96-3.78l-5.45-0.78l3.76-4.19c0.3-1.74-0.39-3.97-3.87-2.7l-2.5,5.34l-4.95-3.39
		c-3.12,1.15-2.86,2.82-1.76,4.45l5.15,1.74l-4.58,2.13c-1.6,1.63,0.11,3.78,1.63,3.32l4.01-2.5l0.41,4.47
		c1.33,1.58,3.09,1.12,4.01-0.82l-1.33-4.49L459.02,246.37z"/>
	
		<path fill-rule="evenodd" fill="#FFFFFF" stroke="#000000" stroke-width="1.5" stroke-linecap="round" stroke-linejoin="round" stroke-miterlimit="10" d="
		M459.23,226.61c3.5-1.99,0.64-3.85,0.64-3.85l-5.5-0.32l3.39-4.49c0.14-1.77-0.73-3.94-4.1-2.36l-2.02,5.52l-5.25-2.93
		c-3,1.42-2.59,3.05-1.37,4.58l5.29,1.28l-4.35,2.52c-1.47,1.77,0.41,3.76,1.9,3.19l3.76-2.87l0.8,4.42
		c1.47,1.47,3.18,0.85,3.94-1.19l-1.72-4.33L459.23,226.61z"/>
	
		<path fill-rule="evenodd" fill="#FFFFFF" stroke="#000000" stroke-width="1.5" stroke-linecap="round" stroke-linejoin="round" stroke-miterlimit="10" d="
		M457.71,206.88c3.32-2.27,0.32-3.9,0.32-3.9l-5.52,0.18l2.98-4.77c0-1.77-1.08-3.85-4.28-2.02l-1.54,5.71l-5.45-2.5
		c-2.89,1.7-2.34,3.3-0.98,4.72l5.38,0.8l-4.12,2.91c-1.31,1.86,0.76,3.69,2.18,2.98l3.5-3.19l1.19,4.36
		c1.58,1.33,3.23,0.57,3.8-1.54l-2.08-4.17L457.71,206.88z"/>
	
		<path fill-rule="evenodd" fill="#FFFFFF" stroke="#000000" stroke-width="1.5" stroke-linecap="round" stroke-linejoin="round" stroke-miterlimit="10" d="
		M454.51,187.37c3.12-2.57-0.02-3.9-0.02-3.9l-5.48,0.64l2.54-5.02c-0.16-1.74-1.4-3.74-4.44-1.6l-1.03,5.8l-5.66-1.99
		c-2.73,1.93-2.04,3.46-0.55,4.77l5.43,0.34l-3.87,3.23c-1.15,1.99,1.08,3.62,2.43,2.8l3.21-3.46l1.56,4.22
		c1.7,1.19,3.28,0.28,3.67-1.86l-2.43-3.97H454.51z"/>
	
		<path fill-rule="evenodd" fill="#FFFFFF" stroke="#000000" stroke-width="1.5" stroke-linecap="round" stroke-linejoin="round" stroke-miterlimit="10" d="
		M449.6,168.21c2.86-2.82-0.37-3.87-0.37-3.87l-5.41,1.12l2.11-5.23c-0.32-1.74-1.72-3.6-4.58-1.22l-0.5,5.87l-5.82-1.49
		c-2.54,2.15-1.72,3.62-0.14,4.79l5.43-0.14l-3.55,3.58c-0.96,2.06,1.38,3.51,2.66,2.57l2.89-3.74l1.92,4.08
		c1.81,1.03,3.28-0.02,3.51-2.18l-2.8-3.74L449.6,168.21z"/>
	
		<path fill-rule="evenodd" fill="#FFFFFF" stroke="#000000" stroke-width="1.5" stroke-linecap="round" stroke-linejoin="round" stroke-miterlimit="10" d="
		M443.05,149.55c2.61-3.05-0.71-3.83-0.71-3.83l-5.29,1.58l1.65-5.39c-0.48-1.7-2.04-3.44-4.65-0.8v5.89l-5.93-0.99
		c-2.34,2.36-1.4,3.78,0.28,4.79l5.41-0.6l-3.23,3.85c-0.78,2.15,1.67,3.39,2.86,2.34l2.57-3.99l2.27,3.9
		c1.88,0.87,3.28-0.3,3.3-2.45l-3.09-3.51L443.05,149.55z"/>
	
		<path fill-rule="evenodd" fill="#FFFFFF" stroke="#000000" stroke-width="1.5" stroke-linecap="round" stroke-linejoin="round" stroke-miterlimit="10" d="
		M434.9,131.53c2.34-3.28-1.05-3.76-1.05-3.76l-5.11,2.04l1.17-5.5c-0.62-1.65-2.34-3.25-4.72-0.41l0.5,5.89l-5.98-0.48
		c-2.13,2.59-1.08,3.9,0.69,4.77l5.34-1.08l-2.89,4.13c-0.57,2.22,1.97,3.23,3.07,2.06l2.2-4.17l2.61,3.67
		c1.92,0.71,3.23-0.57,3.05-2.73l-3.39-3.21L434.9,131.53z"/>
	
		<path fill-rule="evenodd" fill="#FFFFFF" stroke="#000000" stroke-width="1.5" stroke-linecap="round" stroke-linejoin="round" stroke-miterlimit="10" d="
		M425.2,114.32c2.04-3.48-1.38-3.67-1.38-3.67l-4.93,2.48l0.69-5.57c-0.76-1.6-2.61-3.05-4.74,0l1.03,5.8l-6,0.07
		c-1.9,2.73-0.73,3.94,1.1,4.65l5.22-1.54l-2.52,4.38c-0.39,2.25,2.25,3.05,3.25,1.79l1.81-4.35l2.91,3.44
		c2.02,0.53,3.18-0.85,2.82-3l-3.64-2.89L425.2,114.32z"/>
	
		<path fill-rule="evenodd" fill="#FFFFFF" stroke="#000000" stroke-width="1.5" stroke-linecap="round" stroke-linejoin="round" stroke-miterlimit="10" d="
		M414.02,97.98c1.76-3.62-1.67-3.51-1.67-3.51l-4.67,2.89l0.18-5.62c-0.89-1.51-2.84-2.8-4.72,0.41l1.54,5.71l-5.98,0.57
		c-1.65,2.89-0.37,4.01,1.51,4.56l5.06-1.99l-2.13,4.58c-0.18,2.27,2.5,2.82,3.39,1.49l1.44-4.49l3.18,3.16
		c2.04,0.37,3.09-1.12,2.54-3.23l-3.89-2.57L414.02,97.98z"/>
	
		<path fill-rule="evenodd" fill="#FFFFFF" stroke="#000000" stroke-width="1.5" stroke-linecap="round" stroke-linejoin="round" stroke-miterlimit="10" d="
		M401.49,82.69c1.42-3.76-1.97-3.35-1.97-3.35l-4.42,3.28l-0.3-5.59c-1.03-1.44-3.09-2.54-4.65,0.8l2.02,5.55l-5.91,1.1
		c-1.4,3.05-0.02,4.03,1.9,4.42l4.88-2.43l-1.72,4.75c0,2.29,2.73,2.59,3.48,1.19l1.05-4.61l3.46,2.89c2.06,0.16,2.98-1.4,2.24-3.44
		l-4.1-2.22L401.49,82.69z"/>
	
		<path fill-rule="evenodd" fill="#FFFFFF" stroke="#000000" stroke-width="1.5" stroke-linecap="round" stroke-linejoin="round" stroke-miterlimit="10" d="
		M387.68,68.57c1.08-3.9-2.27-3.19-2.27-3.19l-4.1,3.67l-0.8-5.57c-1.15-1.33-3.3-2.27-4.56,1.24l2.5,5.34l-5.8,1.6
		c-1.12,3.14,0.32,4.01,2.27,4.22l4.65-2.82l-1.31,4.86c0.21,2.29,2.96,2.36,3.6,0.89l0.64-4.68l3.69,2.57
		c2.08,0,2.84-1.65,1.95-3.62l-4.28-1.86L387.68,68.57z"/>
	
		<path fill-rule="evenodd" fill="#FFFFFF" stroke="#000000" stroke-width="1.5" stroke-linecap="round" stroke-linejoin="round" stroke-miterlimit="10" d="
		M372.67,55.69c0.76-3.97-2.52-2.98-2.52-2.98l-3.78,4.01l-1.28-5.48c-1.24-1.24-3.46-1.95-4.44,1.63l2.96,5.11l-5.64,2.11
		c-0.82,3.23,0.69,3.97,2.66,4.01l4.38-3.23l-0.87,4.97c0.39,2.25,3.14,2.09,3.64,0.57l0.23-4.72l3.92,2.22
		c2.06-0.18,2.68-1.88,1.63-3.76l-4.44-1.49L372.67,55.69z"/>
	
		<path fill-rule="evenodd" fill="#FFFFFF" stroke="#000000" stroke-width="1.5" stroke-linecap="round" stroke-linejoin="round" stroke-miterlimit="10" d="
		M356.61,44.16c0.39-4.01-2.77-2.73-2.77-2.73l-3.41,4.33l-1.74-5.36c-1.38-1.12-3.64-1.65-4.28,2.02l3.37,4.84l-5.43,2.59
		c-0.55,3.28,1.03,3.9,2.98,3.76l4.1-3.6l-0.44,5.02c0.6,2.2,3.3,1.81,3.69,0.25l-0.18-4.72l4.08,1.88c2.04-0.34,2.52-2.11,1.28-3.9
		l-4.54-1.08L356.61,44.16z"/>
	
		<path fill-rule="evenodd" fill="#FFFFFF" stroke="#000000" stroke-width="1.5" stroke-linecap="round" stroke-linejoin="round" stroke-miterlimit="10" d="
		M339.61,34.09c0.02-4.03-3.02-2.5-3.02-2.5l-3.02,4.61l-2.2-5.16c-1.44-1.01-3.76-1.35-4.08,2.36l3.78,4.52l-5.18,3.05
		c-0.27,3.32,1.35,3.81,3.3,3.51l3.76-3.94v5.04c0.78,2.13,3.46,1.51,3.69-0.07l-0.6-4.7l4.24,1.54c1.99-0.55,2.31-2.34,0.94-4.01
		l-4.6-0.69L339.61,34.09z"/>
	
		<path fill-rule="evenodd" fill="#FFFFFF" stroke="#000000" stroke-width="1.5" stroke-linecap="round" stroke-linejoin="round" stroke-miterlimit="10" d="
		M321.79,25.52c-0.32-4.01-3.23-2.2-3.23-2.2l-2.61,4.86l-2.63-4.97c-1.54-0.87-3.87-0.99-3.87,2.73l4.17,4.17l-4.88,3.48
		c0.02,3.35,1.67,3.67,3.57,3.19l3.39-4.24l0.46,5.02c0.96,2.06,3.57,1.19,3.67-0.39l-0.98-4.61l4.35,1.12
		c1.92-0.71,2.08-2.52,0.57-4.06l-4.65-0.27L321.79,25.52z"/>
	
		<path fill-rule="evenodd" fill="#FFFFFF" stroke="#000000" stroke-width="1.5" stroke-linecap="round" stroke-linejoin="round" stroke-miterlimit="10" d="
		M303.27,18.55c-0.64-3.97-3.39-1.93-3.39-1.93l-2.18,5.07l-3.07-4.7c-1.6-0.73-3.94-0.66-3.62,3.05l4.51,3.78l-4.56,3.92
		c0.32,3.3,1.99,3.48,3.85,2.84l3.02-4.52l0.87,4.95c1.15,1.99,3.67,0.89,3.62-0.71l-1.4-4.49l4.44,0.76
		c1.88-0.89,1.88-2.71,0.23-4.1l-4.65,0.11L303.27,18.55z"/>
	
		<path fill-rule="evenodd" fill="#FFFFFF" stroke="#000000" stroke-width="1.5" stroke-linecap="round" stroke-linejoin="round" stroke-miterlimit="10" d="
		M284.24,13.24c-0.98-3.9-3.53-1.63-3.53-1.63l-1.74,5.25l-3.46-4.45c-1.67-0.57-3.99-0.3-3.35,3.35l4.83,3.39l-4.21,4.29
		c0.6,3.28,2.29,3.32,4.08,2.52l2.61-4.77l1.31,4.86c1.33,1.88,3.73,0.57,3.55-1.03l-1.79-4.36l4.49,0.37
		c1.79-1.03,1.65-2.84-0.11-4.1l-4.65,0.53L284.24,13.24z"/>
	
		<path fill-rule="evenodd" fill="#FFFFFF" stroke="#000000" stroke-width="1.5" stroke-linecap="round" stroke-linejoin="round" stroke-miterlimit="10" d="
		M264.81,9.59c-1.33-3.81-3.67-1.31-3.67-1.31l-1.26,5.36l-3.85-4.1c-1.7-0.46-3.99,0.02-3.02,3.62l5.09,2.96l-3.8,4.63
		c0.87,3.21,2.57,3.09,4.28,2.15l2.18-5l1.74,4.74c1.47,1.74,3.76,0.23,3.44-1.33l-2.15-4.19l4.49-0.02c1.7-1.19,1.4-2.98-0.48-4.08
		l-4.56,0.92L264.81,9.59z"/>
	
		<path fill-rule="evenodd" fill="#FFFFFF" stroke="#000000" stroke-width="1.5" stroke-linecap="round" stroke-linejoin="round" stroke-miterlimit="10" d="
		M245.15,7.64c-1.67-3.67-3.78-0.99-3.78-0.99l-0.8,5.46l-4.17-3.76c-1.74-0.27-3.99,0.39-2.7,3.87l5.34,2.5l-3.41,4.97
		c1.17,3.12,2.84,2.87,4.47,1.76l1.74-5.16l2.13,4.56c1.63,1.6,3.78-0.09,3.32-1.63l-2.52-3.99l4.49-0.41
		c1.58-1.33,1.1-3.09-0.85-4.03l-4.47,1.33L245.15,7.64z"/>
	
		<path fill-rule="evenodd" fill="#FFFFFF" stroke="#000000" stroke-width="1.5" stroke-linecap="round" stroke-linejoin="round" stroke-miterlimit="10" d="
		M225.38,7.44c-1.97-3.53-3.85-0.66-3.85-0.66l-0.32,5.52l-4.49-3.39c-1.74-0.14-3.92,0.73-2.36,4.1l5.54,2.02l-2.96,5.23
		c1.44,3.03,3.07,2.61,4.6,1.38l1.28-5.29l2.52,4.38c1.76,1.47,3.76-0.44,3.16-1.9l-2.86-3.76l4.44-0.83
		c1.47-1.47,0.85-3.16-1.19-3.92l-4.33,1.72L225.38,7.44z"/>
	
		<path fill-rule="evenodd" fill="#FFFFFF" stroke="#000000" stroke-width="1.5" stroke-linecap="round" stroke-linejoin="round" stroke-miterlimit="10" d="
		M205.68,8.93c-2.27-3.32-3.89-0.3-3.89-0.3l0.16,5.5l-4.77-2.98c-1.76,0.02-3.85,1.08-1.99,4.31l5.71,1.51l-2.5,5.48
		c1.7,2.89,3.28,2.34,4.7,0.96l0.82-5.39l2.89,4.15c1.88,1.31,3.71-0.76,3-2.2l-3.18-3.48l4.35-1.19c1.33-1.58,0.55-3.23-1.54-3.8
		l-4.17,2.09L205.68,8.93z"/>
	
		<path fill-rule="evenodd" fill="#FFFFFF" stroke="#000000" stroke-width="1.5" stroke-linecap="round" stroke-linejoin="round" stroke-miterlimit="10" d="
		M186.18,12.16c-2.57-3.12-3.92,0.02-3.92,0.02l0.66,5.48l-5.02-2.54c-1.76,0.16-3.73,1.4-1.63,4.45l5.82,1.03l-2.02,5.66
		c1.95,2.73,3.48,2.04,4.77,0.55l0.34-5.43l3.25,3.87c1.99,1.12,3.62-1.08,2.79-2.45l-3.48-3.19l4.24-1.58
		c1.17-1.7,0.27-3.25-1.86-3.67l-3.99,2.45L186.18,12.16z"/>
	
		<path fill-rule="evenodd" fill="#FFFFFF" stroke="#000000" stroke-width="1.5" stroke-linecap="round" stroke-linejoin="round" stroke-miterlimit="10" d="
		M167.03,17.06c-2.82-2.89-3.9,0.37-3.9,0.37l1.12,5.41l-5.2-2.11c-1.74,0.32-3.62,1.72-1.24,4.56l5.89,0.53l-1.51,5.82
		c2.18,2.54,3.64,1.72,4.81,0.14l-0.14-5.46l3.57,3.58c2.06,0.96,3.5-1.4,2.57-2.68l-3.73-2.89l4.06-1.93
		c1.03-1.79,0-3.28-2.15-3.48l-3.76,2.77L167.03,17.06z"/>
	
		<path fill-rule="evenodd" fill="#FFFFFF" stroke="#000000" stroke-width="1.5" stroke-linecap="round" stroke-linejoin="round" stroke-miterlimit="10" d="
		M148.38,23.62c-3.07-2.64-3.85,0.71-3.85,0.71l1.6,5.27l-5.38-1.63c-1.7,0.46-3.44,2.02-0.83,4.65h5.91l-0.98,5.94
		c2.36,2.34,3.76,1.4,4.79-0.27l-0.62-5.43l3.87,3.25c2.15,0.78,3.37-1.7,2.31-2.89l-3.96-2.54l3.9-2.27
		c0.87-1.88-0.3-3.28-2.47-3.3l-3.48,3.09L148.38,23.62z"/>
	
		<path fill-rule="evenodd" fill="#FFFFFF" stroke="#000000" stroke-width="1.5" stroke-linecap="round" stroke-linejoin="round" stroke-miterlimit="10" d="
		M130.37,31.78c-3.28-2.34-3.76,1.03-3.76,1.03l2.04,5.13l-5.5-1.17c-1.65,0.62-3.25,2.31-0.41,4.72l5.86-0.53l-0.46,6.01
		c2.57,2.13,3.87,1.05,4.74-0.71l-1.08-5.34l4.15,2.91c2.2,0.57,3.21-1.97,2.06-3.07l-4.17-2.2l3.67-2.61
		c0.71-1.95-0.57-3.23-2.75-3.07l-3.21,3.39L130.37,31.78z"/>
	
		<path fill-rule="evenodd" fill="#FFFFFF" stroke="#000000" stroke-width="1.5" stroke-linecap="round" stroke-linejoin="round" stroke-miterlimit="10" d="
		M113.14,41.47c-3.46-2.04-3.64,1.38-3.64,1.38l2.47,4.93l-5.59-0.69c-1.58,0.76-3.02,2.59,0,4.72l5.82-1.01l0.05,6.01
		c2.75,1.9,3.96,0.71,4.67-1.12l-1.54-5.23l4.38,2.52c2.25,0.39,3.02-2.25,1.79-3.23l-4.35-1.83l3.44-2.91
		c0.53-1.99-0.87-3.16-3-2.8l-2.91,3.65L113.14,41.47z"/>
	
		<path fill-rule="evenodd" fill="#FFFFFF" stroke="#000000" stroke-width="1.5" stroke-linecap="round" stroke-linejoin="round" stroke-miterlimit="10" d="
		M96.83,52.64c-3.64-1.74-3.53,1.67-3.53,1.67l2.91,4.7l-5.61-0.18c-1.54,0.89-2.82,2.84,0.41,4.7l5.68-1.51l0.6,5.98
		c2.89,1.65,4.01,0.37,4.54-1.51l-1.97-5.09l4.56,2.13c2.29,0.21,2.84-2.5,1.51-3.37l-4.49-1.44l3.16-3.21
		c0.34-2.04-1.15-3.07-3.23-2.54l-2.57,3.9L96.83,52.64z"/>
	
		<path fill-rule="evenodd" fill="#FFFFFF" stroke="#000000" stroke-width="1.5" stroke-linecap="round" stroke-linejoin="round" stroke-miterlimit="10" d="
		M81.55,65.18c-3.78-1.42-3.37,1.99-3.37,1.99l3.3,4.42l-5.61,0.3c-1.44,1.01-2.54,3.07,0.82,4.65l5.54-2.02l1.1,5.91
		c3.02,1.38,4.03,0.02,4.4-1.9l-2.41-4.88l4.72,1.72c2.29,0,2.61-2.75,1.21-3.51l-4.6-1.03l2.86-3.46c0.18-2.06-1.37-2.98-3.44-2.27
		l-2.22,4.1L81.55,65.18z"/>
	
		<path fill-rule="evenodd" fill="#FFFFFF" stroke="#000000" stroke-width="1.5" stroke-linecap="round" stroke-linejoin="round" stroke-miterlimit="10" d="
		M67.41,79.02c-3.87-1.1-3.16,2.25-3.16,2.25l3.67,4.13l-5.57,0.78c-1.35,1.15-2.27,3.3,1.21,4.58l5.36-2.5l1.6,5.8
		c3.14,1.12,4.01-0.34,4.22-2.29l-2.84-4.65l4.88,1.31c2.27-0.21,2.36-2.96,0.89-3.58L73,84.2l2.57-3.71
		c-0.02-2.06-1.65-2.84-3.62-1.95l-1.86,4.29L67.41,79.02z"/>
	
		<path fill-rule="evenodd" fill="#FFFFFF" stroke="#000000" stroke-width="1.5" stroke-linecap="round" stroke-linejoin="round" stroke-miterlimit="10" d="
		M54.54,94.01c-3.94-0.73-2.96,2.54-2.96,2.54l4.01,3.78l-5.48,1.26c-1.24,1.26-1.97,3.48,1.63,4.45l5.11-2.93l2.11,5.62
		c3.21,0.85,3.96-0.66,4.01-2.64l-3.23-4.38l4.95,0.87c2.27-0.41,2.11-3.16,0.57-3.67l-4.7-0.23l2.22-3.9
		c-0.18-2.06-1.88-2.68-3.78-1.63l-1.47,4.42L54.54,94.01z"/>
	
		<path fill-rule="evenodd" fill="#FFFFFF" stroke="#000000" stroke-width="1.5" stroke-linecap="round" stroke-linejoin="round" stroke-miterlimit="10" d="
		M43.04,110.1c-4.01-0.39-2.75,2.77-2.75,2.77l4.33,3.42l-5.34,1.74c-1.12,1.35-1.65,3.64,1.99,4.29l4.83-3.37l2.59,5.41
		c3.3,0.57,3.89-1.01,3.76-2.98l-3.6-4.08l5.04,0.44c2.2-0.6,1.79-3.32,0.25-3.69l-4.72,0.18l1.88-4.1
		c-0.37-2.02-2.11-2.5-3.89-1.26l-1.1,4.52L43.04,110.1z"/>
	
		<path fill-rule="evenodd" fill="#FFFFFF" stroke="#000000" stroke-width="1.5" stroke-linecap="round" stroke-linejoin="round" stroke-miterlimit="10" d="
		M32.95,127.11c-4.03-0.05-2.47,3-2.47,3l4.61,3.03l-5.18,2.2c-0.98,1.47-1.33,3.78,2.36,4.1l4.54-3.78l3.05,5.18
		c3.32,0.25,3.78-1.38,3.48-3.3l-3.94-3.76h5.04c2.15-0.8,1.51-3.46-0.07-3.71l-4.67,0.6l1.51-4.24c-0.53-1.99-2.31-2.31-3.99-0.94
		l-0.69,4.63L32.95,127.11z"/>
	
		<path fill-rule="evenodd" fill="#FFFFFF" stroke="#000000" stroke-width="1.5" stroke-linecap="round" stroke-linejoin="round" stroke-miterlimit="10" d="
		M24.41,144.94c-4.01,0.3-2.22,3.21-2.22,3.21l4.86,2.61l-4.95,2.64c-0.87,1.54-1.01,3.87,2.7,3.9l4.17-4.17l3.51,4.88
		c3.32-0.02,3.64-1.67,3.18-3.6l-4.26-3.39l5.04-0.44c2.06-0.99,1.19-3.58-0.41-3.69l-4.6,1.01l1.15-4.35
		c-0.71-1.95-2.52-2.11-4.08-0.6l-0.27,4.68L24.41,144.94z"/>
	
		<path fill-rule="evenodd" fill="#FFFFFF" stroke="#000000" stroke-width="1.5" stroke-linecap="round" stroke-linejoin="round" stroke-miterlimit="10" d="
		M123.45,218.29l19.36-8.92l21.08,4.15l3.02-3.55l8.91,4.56l9.44-0.16l4.65,1.79c12.1,4.65,0.92,22.94-5.36,16.82l-7.61-7.4
		l-3.55,3.35l-3.02-0.21l-8.73-8l-19.54-5.78l-17.32,6.88L123.45,218.29z"/>
	
		<path fill-rule="evenodd" fill="#FFFFFF" stroke="#000000" stroke-width="1.5" stroke-linecap="round" stroke-linejoin="round" stroke-miterlimit="10" d="
		M135.75,285.96l10.42-18.61l19.47-9.03l0.39-4.65l9.87-1.56l7.54-5.66l4.81-1.31c12.53-3.35,14.23,18.04,5.54,16.78l-10.49-1.51
		l-0.89,4.79l-2.59,1.63l-11.75-1.35l-19.2,6.81l-9.97,15.77L135.75,285.96z"/>
	
		<path fill-rule="evenodd" fill="#FFFFFF" stroke="#000000" stroke-width="1.5" stroke-linecap="round" stroke-linejoin="round" stroke-miterlimit="10" d="
		M185.45,333.45l-2.5-21.16l10.47-18.77l-2.43-3.99l7.08-7.06l2.75-9.03l3.14-3.87c8.18-10.09,22.11,6.21,14.34,10.31l-9.37,4.93
		l2.09,4.4l-1.15,2.84l-10.31,5.82l-11.52,16.8l1.19,18.61L185.45,333.45z"/>
	
		<path fill-rule="evenodd" fill="#FFFFFF" stroke="#000000" stroke-width="1.5" stroke-linecap="round" stroke-linejoin="round" stroke-miterlimit="10" d="
		M253.58,342.67l-14.46-15.66l-2.57-21.34l-4.31-1.79l1.58-9.9l-3.09-8.92l0.28-4.97c0.69-12.95,21.54-7.98,17.66-0.09l-4.7,9.51
		l4.28,2.34l0.73,2.96l-4.9,10.77l0.55,20.38l11.89,14.37L253.58,342.67z"/>
	
		<path fill-rule="evenodd" fill="#FFFFFF" stroke="#000000" stroke-width="1.5" stroke-linecap="round" stroke-linejoin="round" stroke-miterlimit="10" d="
		M314.09,310.05l-20.89-4.15l-14.59-15.77l-4.54,1.1l-4.54-8.94l-7.72-5.41l-2.73-4.2c-7.06-10.86,12.74-19.09,14.23-10.45
		l1.81,10.45l4.83-0.62l2.34,1.97l2.34,11.6l12.42,16.16l18.08,4.61L314.09,310.05z"/>
	
		<path fill-rule="evenodd" fill="#FFFFFF" stroke="#000000" stroke-width="1.5" stroke-linecap="round" stroke-linejoin="round" stroke-miterlimit="10" d="
		M343.89,248.09l-19.34,8.92l-21.08-4.15l-3.05,3.53l-8.91-4.56l-9.42,0.18l-4.65-1.79c-12.12-4.68-0.94-22.97,5.36-16.82l7.61,7.38
		l3.53-3.35l3.05,0.21l8.71,8.02l19.57,5.78l17.32-6.9L343.89,248.09z"/>
	
		<path fill-rule="evenodd" fill="#FFFFFF" stroke="#000000" stroke-width="1.5" stroke-linecap="round" stroke-linejoin="round" stroke-miterlimit="10" d="
		M331.61,180.43l-10.42,18.59l-19.5,9.03l-0.37,4.65l-9.9,1.56l-7.51,5.68l-4.83,1.28c-12.51,3.35-14.23-18.04-5.52-16.78
		l10.49,1.51l0.89-4.79l2.59-1.6l11.73,1.35l19.22-6.83l9.97-15.77L331.61,180.43z"/>
	
		<path fill-rule="evenodd" fill="#FFFFFF" stroke="#000000" stroke-width="1.5" stroke-linecap="round" stroke-linejoin="round" stroke-miterlimit="10" d="
		M281.9,132.91l2.5,21.16l-10.45,18.77l2.43,3.99l-7.1,7.08l-2.75,9.01l-3.14,3.87c-8.16,10.09-22.09-6.21-14.34-10.29l9.39-4.95
		l-2.08-4.4l1.12-2.84l10.31-5.8l11.55-16.82l-1.21-18.61L281.9,132.91z"/>
	
		<path fill-rule="evenodd" fill="#FFFFFF" stroke="#000000" stroke-width="1.5" stroke-linecap="round" stroke-linejoin="round" stroke-miterlimit="10" d="
		M213.79,123.69l14.46,15.66l2.57,21.34l4.31,1.79l-1.58,9.9l3.07,8.92l-0.25,4.97c-0.69,12.95-21.54,7.98-17.66,0.09l4.7-9.51
		l-4.28-2.34l-0.76-2.96l4.93-10.75l-0.55-20.4l-11.91-14.35L213.79,123.69z"/>
	
		<path fill-rule="evenodd" fill="#FFFFFF" stroke="#000000" stroke-width="1.5" stroke-linecap="round" stroke-linejoin="round" stroke-miterlimit="10" d="
		M153.26,156.31l20.89,4.17l14.62,15.75l4.54-1.08l4.54,8.92l7.72,5.41l2.73,4.19c7.03,10.89-12.74,19.09-14.25,10.45l-1.79-10.45
		l-4.83,0.62l-2.34-1.95l-2.34-11.6l-12.44-16.18l-18.05-4.61L153.26,156.31z"/>
	
		<polygon fill-rule="evenodd" fill="#FFFFFF" stroke="#000000" stroke-width="1.5" stroke-linecap="round" stroke-linejoin="round" stroke-miterlimit="10" points="
		169.66,218.89 169.25,220.4 182.63,222.85 184.23,221.23 177.36,218.38 	"/>
	
		<polygon fill-rule="evenodd" fill="#FFFFFF" stroke="#000000" stroke-width="1.5" stroke-linecap="round" stroke-linejoin="round" stroke-miterlimit="10" points="
		173.49,259.28 174.06,260.74 186.29,254.85 186.66,252.58 179.42,254.33 	"/>
	
		<polygon fill-rule="evenodd" fill="#FFFFFF" stroke="#000000" stroke-width="1.5" stroke-linecap="round" stroke-linejoin="round" stroke-miterlimit="10" points="
		200.31,289.69 201.62,290.54 208.08,278.58 207.03,276.54 202.22,282.2 	"/>
	
		<polygon fill-rule="evenodd" fill="#FFFFFF" stroke="#000000" stroke-width="1.5" stroke-linecap="round" stroke-linejoin="round" stroke-miterlimit="10" points="
		239.88,298.52 241.44,298.43 239.63,284.97 237.59,283.92 237.02,291.34 	"/>
	
		<polygon fill-rule="evenodd" fill="#FFFFFF" stroke="#000000" stroke-width="1.5" stroke-linecap="round" stroke-linejoin="round" stroke-miterlimit="10" points="
		277.09,282.4 278.3,281.4 268.91,271.56 266.64,271.93 270.56,278.28 	"/>
	
		<polygon fill-rule="evenodd" fill="#FFFFFF" stroke="#000000" stroke-width="1.5" stroke-linecap="round" stroke-linejoin="round" stroke-miterlimit="10" points="
		297.71,247.47 298.12,245.96 284.74,243.53 283.11,245.13 290.01,247.98 	"/>
	
		<polygon fill-rule="evenodd" fill="#FFFFFF" stroke="#000000" stroke-width="1.5" stroke-linecap="round" stroke-linejoin="round" stroke-miterlimit="10" points="
		293.88,207.08 293.31,205.62 281.05,211.53 280.71,213.78 287.95,212.03 	"/>
	
		<polygon fill-rule="evenodd" fill="#FFFFFF" stroke="#000000" stroke-width="1.5" stroke-linecap="round" stroke-linejoin="round" stroke-miterlimit="10" points="
		267.05,176.69 265.72,175.82 259.29,187.78 260.32,189.85 265.15,184.16 	"/>
	
		<polygon fill-rule="evenodd" fill="#FFFFFF" stroke="#000000" stroke-width="1.5" stroke-linecap="round" stroke-linejoin="round" stroke-miterlimit="10" points="
		227.49,167.84 225.91,167.93 227.74,181.41 229.78,182.44 230.35,175.02 	"/>
	
		<polygon fill-rule="evenodd" fill="#FFFFFF" stroke="#000000" stroke-width="1.5" stroke-linecap="round" stroke-linejoin="round" stroke-miterlimit="10" points="
		190.28,183.98 189.07,184.96 198.44,194.8 200.7,194.43 196.81,188.08 	"/>
	
		<polygon fill-rule="evenodd" fill="#FFFFFF" stroke="#000000" stroke-width="1.5" stroke-linecap="round" stroke-linejoin="round" stroke-miterlimit="10" points="
		129.54,231.86 144.23,231.45 163.68,243.71 163.89,245.04 157.7,248.39 146.36,250.11 140.89,248.98 137.04,245.96 129.04,239.68 
		127.8,235.62 	"/>
	
		<polygon fill-rule="evenodd" fill="#FFFFFF" stroke="#000000" stroke-width="1.5" stroke-linecap="round" stroke-linejoin="round" stroke-miterlimit="10" points="
		148.65,293.36 160.29,284.4 183.25,282.89 184.19,283.83 181.14,290.18 172.98,298.22 167.9,300.54 162.99,300.35 152.82,299.96 
		149.45,297.42 	"/>
	
		<polygon fill-rule="evenodd" fill="#FFFFFF" stroke="#000000" stroke-width="1.5" stroke-linecap="round" stroke-linejoin="round" stroke-miterlimit="10" points="
		200.25,331.87 204.39,317.77 222.06,303.06 223.39,303.26 224.65,310.19 222.79,321.51 220.04,326.37 215.96,329.1 207.51,334.76 
		203.27,334.67 	"/>
	
		<polygon fill-rule="evenodd" fill="#FFFFFF" stroke="#000000" stroke-width="1.5" stroke-linecap="round" stroke-linejoin="round" stroke-miterlimit="10" points="
		264.6,332.69 259.68,318.83 265.33,296.52 266.53,295.93 271.61,300.79 276.74,311.06 277.39,316.6 275.69,321.19 272.19,330.75 
		268.7,333.18 	"/>
	
		<polygon fill-rule="evenodd" fill="#FFFFFF" stroke="#000000" stroke-width="1.5" stroke-linecap="round" stroke-linejoin="round" stroke-miterlimit="10" points="
		317.16,295.49 305.04,287.17 296.52,265.83 297.11,264.64 304.08,265.56 314.27,270.85 318.05,274.96 319.38,279.68 322.15,289.49 
		320.75,293.48 	"/>
	
		<polygon fill-rule="evenodd" fill="#FFFFFF" stroke="#000000" stroke-width="1.5" stroke-linecap="round" stroke-linejoin="round" stroke-miterlimit="10" points="
		337.82,234.5 323.14,234.91 303.69,222.65 303.48,221.32 309.67,217.97 321.01,216.25 326.48,217.38 330.33,220.42 338.33,226.7 
		339.54,230.76 	"/>
	
		<polygon fill-rule="evenodd" fill="#FFFFFF" stroke="#000000" stroke-width="1.5" stroke-linecap="round" stroke-linejoin="round" stroke-miterlimit="10" points="
		318.72,173 307.05,181.96 284.12,183.5 283.18,182.53 286.21,176.21 294.39,168.14 299.47,165.82 304.37,166.01 314.52,166.4 
		317.89,168.96 	"/>
	
		<polygon fill-rule="evenodd" fill="#FFFFFF" stroke="#000000" stroke-width="1.5" stroke-linecap="round" stroke-linejoin="round" stroke-miterlimit="10" points="
		267.12,134.49 262.95,148.59 245.29,163.33 243.98,163.1 242.7,156.2 244.58,144.85 247.33,139.99 251.4,137.29 259.86,131.6 
		264.07,131.69 	"/>
	
		<polygon fill-rule="evenodd" fill="#FFFFFF" stroke="#000000" stroke-width="1.5" stroke-linecap="round" stroke-linejoin="round" stroke-miterlimit="10" points="
		202.74,133.69 207.67,147.53 202.03,169.84 200.84,170.43 195.76,165.6 190.6,155.33 189.98,149.78 191.68,145.17 195.18,135.61 
		198.64,133.21 	"/>
	
		<polygon fill-rule="evenodd" fill="#FFFFFF" stroke="#000000" stroke-width="1.5" stroke-linecap="round" stroke-linejoin="round" stroke-miterlimit="10" points="
		150.21,170.87 162.33,179.19 170.85,200.55 170.23,201.72 163.27,200.8 153.1,195.53 149.32,191.41 147.99,186.68 145.22,176.9 
		146.61,172.88 	"/>
	
		<polyline fill="none" stroke="#000000" stroke-width="1.5" stroke-linecap="round" stroke-linejoin="round" stroke-miterlimit="10" points="
		136.83,239.68 142.81,242.7 152.94,243.71 	"/>
	
		<polyline fill="none" stroke="#000000" stroke-width="1.5" stroke-linecap="round" stroke-linejoin="round" stroke-miterlimit="10" points="
		159.15,295.38 165.77,294.32 174.54,289.19 	"/>
	
		<polyline fill="none" stroke="#000000" stroke-width="1.5" stroke-linecap="round" stroke-linejoin="round" stroke-miterlimit="10" points="
		209.91,327.33 214.66,322.59 218.76,313.26 	"/>
	
		<polyline fill="none" stroke="#000000" stroke-width="1.5" stroke-linecap="round" stroke-linejoin="round" stroke-miterlimit="10" points="
		269.78,323.34 270.81,316.7 268.66,306.75 	"/>
	
		<polyline fill="none" stroke="#000000" stroke-width="1.5" stroke-linecap="round" stroke-linejoin="round" stroke-miterlimit="10" points="
		315.85,284.88 312.78,278.92 305.2,272.14 	"/>
	
		<polyline fill="none" stroke="#000000" stroke-width="1.5" stroke-linecap="round" stroke-linejoin="round" stroke-miterlimit="10" points="
		330.54,226.7 324.56,223.66 314.43,222.65 	"/>
	
		<polyline fill="none" stroke="#000000" stroke-width="1.5" stroke-linecap="round" stroke-linejoin="round" stroke-miterlimit="10" points="
		308.22,170.98 301.6,172.04 292.8,177.17 	"/>
	
		<polyline fill="none" stroke="#000000" stroke-width="1.5" stroke-linecap="round" stroke-linejoin="round" stroke-miterlimit="10" points="
		257.43,139.03 252.71,143.77 248.61,153.1 	"/>
	
		<polyline fill="none" stroke="#000000" stroke-width="1.5" stroke-linecap="round" stroke-linejoin="round" stroke-miterlimit="10" points="
		197.59,143.04 196.53,149.67 198.71,159.61 	"/>
	
		<polyline fill="none" stroke="#000000" stroke-width="1.5" stroke-linecap="round" stroke-linejoin="round" stroke-miterlimit="10" points="
		151.52,181.48 154.56,187.46 162.17,194.22 	"/>
	
		<polygon fill-rule="evenodd" fill="#8774B4" stroke="#000000" stroke-width="1.5" stroke-linecap="round" stroke-linejoin="round" stroke-miterlimit="10" points="
		58.22,180.47 57.93,182.51 60.24,184.32 61.66,183.11 61.57,181.09 	"/>
	
		<polygon fill-rule="evenodd" fill="#8774B4" stroke="#000000" stroke-width="1.5" stroke-linecap="round" stroke-linejoin="round" stroke-miterlimit="10" points="
		50.6,237.11 50.94,239.13 53.71,240.14 54.67,238.53 53.96,236.65 	"/>
	
		<polygon fill-rule="evenodd" fill="#8774B4" stroke="#000000" stroke-width="1.5" stroke-linecap="round" stroke-linejoin="round" stroke-miterlimit="10" points="
		60.84,293.32 61.78,295.13 64.73,295.24 65.17,293.41 63.88,291.83 	"/>
	
		<polygon fill-rule="evenodd" fill="#8774B4" stroke="#000000" stroke-width="1.5" stroke-linecap="round" stroke-linejoin="round" stroke-miterlimit="10" points="
		87.92,343.6 89.38,345.05 92.22,344.22 92.09,342.37 90.39,341.27 	"/>
	
		<polygon fill-rule="evenodd" fill="#8774B4" stroke="#000000" stroke-width="1.5" stroke-linecap="round" stroke-linejoin="round" stroke-miterlimit="10" points="
		129.22,383.05 131.06,383.97 133.51,382.32 132.8,380.6 130.83,380.07 	"/>
	
		<polygon fill-rule="evenodd" fill="#8774B4" stroke="#000000" stroke-width="1.5" stroke-linecap="round" stroke-linejoin="round" stroke-miterlimit="10" points="
		180.7,407.81 182.72,408.13 184.55,405.79 183.34,404.37 181.3,404.46 	"/>
	
		<polygon fill-rule="evenodd" fill="#8774B4" stroke="#000000" stroke-width="1.5" stroke-linecap="round" stroke-linejoin="round" stroke-miterlimit="10" points="
		237.29,415.44 239.31,415.12 240.32,412.32 238.74,411.36 236.83,412.07 	"/>
	
		<polygon fill-rule="evenodd" fill="#8774B4" stroke="#000000" stroke-width="1.5" stroke-linecap="round" stroke-linejoin="round" stroke-miterlimit="10" points="
		293.47,405.22 295.3,404.26 295.39,401.3 293.58,400.86 292,402.15 	"/>
	
		<polygon fill-rule="evenodd" fill="#8774B4" stroke="#000000" stroke-width="1.5" stroke-linecap="round" stroke-linejoin="round" stroke-miterlimit="10" points="
		343.73,378.1 345.18,376.64 344.38,373.79 342.5,373.95 341.4,375.65 	"/>
	
		<polygon fill-rule="evenodd" fill="#8774B4" stroke="#000000" stroke-width="1.5" stroke-linecap="round" stroke-linejoin="round" stroke-miterlimit="10" points="
		383.19,336.77 384.1,334.94 382.45,332.49 380.71,333.2 380.18,335.17 	"/>
	
		<polygon fill-rule="evenodd" fill="#8774B4" stroke="#000000" stroke-width="1.5" stroke-linecap="round" stroke-linejoin="round" stroke-miterlimit="10" points="
		407.93,285.29 408.23,283.25 405.89,281.44 404.47,282.66 404.58,284.67 	"/>
	
		<polygon fill-rule="evenodd" fill="#8774B4" stroke="#000000" stroke-width="1.5" stroke-linecap="round" stroke-linejoin="round" stroke-miterlimit="10" points="
		415.56,228.65 415.21,226.64 412.44,225.63 411.46,227.21 412.19,229.11 	"/>
	
		<polygon fill-rule="evenodd" fill="#8774B4" stroke="#000000" stroke-width="1.5" stroke-linecap="round" stroke-linejoin="round" stroke-miterlimit="10" points="
		405.32,172.45 404.38,170.64 401.42,170.52 400.99,172.33 402.25,173.92 	"/>
	
		<polygon fill-rule="evenodd" fill="#8774B4" stroke="#000000" stroke-width="1.5" stroke-linecap="round" stroke-linejoin="round" stroke-miterlimit="10" points="
		378.21,122.16 376.77,120.71 373.91,121.54 374.07,123.4 375.76,124.5 	"/>
	
		<polygon fill-rule="evenodd" fill="#8774B4" stroke="#000000" stroke-width="1.5" stroke-linecap="round" stroke-linejoin="round" stroke-miterlimit="10" points="
		336.93,82.69 335.1,81.77 332.62,83.44 333.36,85.16 335.3,85.69 	"/>
	
		<polygon fill-rule="evenodd" fill="#8774B4" stroke="#000000" stroke-width="1.5" stroke-linecap="round" stroke-linejoin="round" stroke-miterlimit="10" points="
		285.45,57.93 283.43,57.63 281.6,59.97 282.81,61.39 284.83,61.28 	"/>
	
		<polygon fill-rule="evenodd" fill="#8774B4" stroke="#000000" stroke-width="1.5" stroke-linecap="round" stroke-linejoin="round" stroke-miterlimit="10" points="
		228.86,50.3 226.82,50.64 225.81,53.44 227.42,54.4 229.32,53.67 	"/>
	
		<polygon fill-rule="evenodd" fill="#8774B4" stroke="#000000" stroke-width="1.5" stroke-linecap="round" stroke-linejoin="round" stroke-miterlimit="10" points="
		172.66,60.55 170.85,61.49 170.74,64.46 172.57,64.88 174.15,63.62 	"/>
	
		<polygon fill-rule="evenodd" fill="#8774B4" stroke="#000000" stroke-width="1.5" stroke-linecap="round" stroke-linejoin="round" stroke-miterlimit="10" points="
		122.4,87.66 120.95,89.13 121.78,91.97 123.63,91.81 124.76,90.11 	"/>
	
		<polygon fill-rule="evenodd" fill="#8774B4" stroke="#000000" stroke-width="1.5" stroke-linecap="round" stroke-linejoin="round" stroke-miterlimit="10" points="
		82.97,128.99 82.05,130.82 83.7,133.28 85.42,132.54 85.95,130.59 	"/>
</g>
</svg>
