<?xml version="1.0" encoding="utf-8"?>
<svg version="1.2" baseProfile="tiny" id="Layer_1" xmlns="http://www.w3.org/2000/svg" xmlns:xlink="http://www.w3.org/1999/xlink"
	 x="0px" y="0px" width="321.35px" height="329.59px" viewBox="0 0 321.35 329.59" xml:space="preserve">
<g>
	<path fill-rule="evenodd" fill="#FFFFFE" stroke="#000000" stroke-width="2.0286" stroke-miterlimit="10" d="M144.4,138
		c-8.54,5.23-12.37,9.37-14.79,22.77c-27.13-6.71-56.86-18.09-79.45-44.8c-26.53-30.74-33.78-8.83-39.69-5.29
		c1.91-11.31,2.11-26.23,22.5-43.49c-7.91,27.2,9.22,37.14,20.28,39.86c21.08,5.23,41.89-1.34,57.46,2.09
		C133.46,114.17,142.4,125.74,144.4,138L144.4,138z"/>
	<path fill-rule="evenodd" fill="#FFFFFE" stroke="#000000" stroke-width="2.0286" stroke-miterlimit="10" d="M129.35,165.48
		c0.26,10.03,1.94,15.4,12.31,24.2c-19.36,20.17-44.09,40.23-78.5,46.46c-39.9,7.6-24.53,24.83-24.42,31.74
		c-8.82-7.31-21.65-14.94-26.42-41.23c19.62,20.46,36.78,10.57,44.66,2.34c15.08-15.66,19.79-36.97,30.53-48.71
		C103.24,163.05,117.75,161.11,129.35,165.48L129.35,165.48z"/>
	<path fill-rule="evenodd" fill="#FFFFFE" stroke="#000000" stroke-width="2.0286" stroke-miterlimit="10" d="M145.62,192.28
		c8.8,4.8,14.28,6,27.1,1.46c7.74,26.83,12.77,58.29,0.94,91.2c-13.36,38.37,9.25,33.69,15.28,37.06
		c-10.77,3.97-23.76,11.29-48.92,2.26c27.53-6.77,27.56-26.57,24.39-37.51c-6.03-20.89-22.1-35.63-26.93-50.83
		C130.46,213.68,136.03,200.14,145.62,192.28L145.62,192.28z"/>
	<path fill-rule="evenodd" fill="#FFFFFE" stroke="#000000" stroke-width="2.0286" stroke-miterlimit="10" d="M176.95,191.57
		c8.54-5.23,12.34-9.37,14.79-22.74c27.1,6.69,56.83,18.06,79.45,44.77c26.53,30.77,33.78,8.86,39.7,5.29
		c-1.94,11.31-2.11,26.26-22.5,43.51c7.91-27.23-9.22-37.14-20.28-39.89c-21.08-5.23-41.89,1.34-57.46-2.08
		C187.89,215.43,178.95,203.83,176.95,191.57L176.95,191.57z"/>
	<path fill-rule="evenodd" fill="#FFFFFE" stroke="#000000" stroke-width="2.0286" stroke-miterlimit="10" d="M192,164.08
		c-0.26-10.03-1.94-15.4-12.31-24.2c19.36-20.14,44.06-40.23,78.48-46.43c39.89-7.63,24.56-24.86,24.44-31.77
		c8.82,7.34,21.65,14.97,26.39,41.26c-19.59-20.49-36.75-10.57-44.66-2.37c-15.05,15.66-19.76,36.97-30.5,48.74
		C218.1,166.51,203.6,168.48,192,164.08L192,164.08z"/>
	<path fill-rule="evenodd" fill="#FFFFFE" stroke="#000000" stroke-width="2.0286" stroke-miterlimit="10" d="M175.72,137.28
		c-8.8-4.77-14.31-6-27.1-1.43c-7.77-26.86-12.77-58.29-0.94-91.23c13.34-38.37-9.25-33.69-15.28-37.06
		c10.74-3.97,23.76-11.26,48.89-2.23c-27.5,6.74-27.53,26.57-24.39,37.51c6.03,20.86,22.13,35.63,26.93,50.8
		C190.89,115.88,185.32,129.43,175.72,137.28L175.72,137.28z"/>
	<path fill-rule="evenodd" fill="#FFFFFE" stroke="#000000" stroke-width="2.0286" stroke-miterlimit="10" d="M248.32,33.4
		c-10.54-3.51-19.71,1.89-28.96,4.37c10.02-6.43,14.51-16.11,7.11-19.34c-29.36-12.83-51.63-4.09-61.43,9.46
		c-3.03,9.86,2.37,21.37,7.51,30c11.91,20.03,21.5,39.03,18.25,61.66c13.91-9.46,35.9-22.97,50.92-27.91
		c14.99-4.94,19.79-2,30.73-9.03C279.44,73.51,275.5,43.23,248.32,33.4L248.32,33.4z"/>
	<path fill-rule="evenodd" fill="#FFFFFE" stroke="#000000" stroke-width="2.0286" stroke-miterlimit="10" d="M90.76,23.14
		c-8.31,7.37-8.22,18-10.71,27.29C79.51,38.51,73.37,29.8,66.86,34.6c-25.79,19-29.33,42.71-22.5,57.94
		c7.03,7.57,19.68,8.63,29.73,8.49c23.27-0.29,44.52,0.89,62.48,15.03c-1.23-16.77-1.91-42.6,1.29-58.06
		c3.23-15.49,8.17-18.14,7.54-31.14C141.05,16.23,112.87,4.51,90.76,23.14L90.76,23.14z"/>
	<path fill-rule="evenodd" fill="#FFFFFE" stroke="#000000" stroke-width="2.0286" stroke-miterlimit="10" d="M3.12,154.54
		c2.23,10.89,11.45,16.11,18.25,22.91c-10.57-5.49-21.19-4.51-20.3,3.51c3.57,31.83,22.3,46.77,38.9,48.49
		c10.08-2.31,17.33-12.74,22.25-21.51c11.37-20.34,23.02-38.14,44.24-46.66C91.31,154,68.6,141.65,56.81,131.14
		C45.04,120.63,45.19,115,33.65,109.05C22.26,107.51-1.96,126.08,3.12,154.54L3.12,154.54z"/>
	<path fill-rule="evenodd" fill="#FFFFFE" stroke="#000000" stroke-width="2.0286" stroke-miterlimit="10" d="M73.03,296.17
		c10.51,3.51,19.68-1.86,28.93-4.34c-10.02,6.4-14.48,16.09-7.08,19.34c29.36,12.83,51.63,4.06,61.43-9.46
		c3.03-9.89-2.4-21.4-7.51-30.03c-11.91-20.03-21.5-39.03-18.25-61.66c-13.91,9.46-35.92,22.97-50.92,27.91
		c-14.99,4.94-19.79,2.03-30.73,9.03C41.9,256.08,45.84,286.34,73.03,296.17L73.03,296.17z"/>
	<path fill-rule="evenodd" fill="#FFFFFE" stroke="#000000" stroke-width="2.0286" stroke-miterlimit="10" d="M230.58,306.43
		c8.31-7.37,8.22-18,10.68-27.26c0.57,11.89,6.71,20.6,13.19,15.83c25.79-19.03,29.36-42.71,22.53-57.97
		c-7.03-7.57-19.68-8.63-29.73-8.49c-23.3,0.29-44.52-0.89-62.51-15.03c1.26,16.77,1.94,42.6-1.28,58.09
		c-3.2,15.46-8.14,18.14-7.54,31.11C180.29,313.34,208.48,325.05,230.58,306.43L230.58,306.43z"/>
	<path fill-rule="evenodd" fill="#FFFFFE" stroke="#000000" stroke-width="2.0286" stroke-miterlimit="10" d="M318.22,175.03
		c-2.23-10.86-11.48-16.11-18.25-22.89c10.57,5.46,21.19,4.51,20.3-3.51c-3.6-31.86-22.3-46.8-38.9-48.51
		c-10.08,2.31-17.33,12.77-22.25,21.51c-11.39,20.34-23.02,38.14-44.24,46.66c15.13,7.31,37.84,19.63,49.6,30.14
		c11.79,10.51,11.65,16.14,23.19,22.11C299.06,222.05,323.31,203.48,318.22,175.03L318.22,175.03z"/>
	<path fill-rule="evenodd" fill="#FFFFFE" stroke="#000000" stroke-width="2.0286" stroke-miterlimit="10" d="M248.32,33.4
		c-10.54-3.51-19.71,1.89-28.96,4.37c10.02-6.43,14.51-16.11,7.11-19.34c-29.36-12.83-51.63-4.09-61.43,9.46
		c-3.03,9.86,2.37,21.37,7.51,30c11.91,20.03,21.5,39.03,18.25,61.66c13.91-9.46,35.9-22.97,50.92-27.91
		c14.99-4.94,19.79-2,30.73-9.03C279.44,73.51,275.5,43.23,248.32,33.4L248.32,33.4z"/>
	
		<path fill-rule="evenodd" fill="#FFFFFE" stroke="#000000" stroke-width="2.0286" stroke-linecap="round" stroke-linejoin="round" stroke-miterlimit="10" d="
		M192,164.8c0-17.31-14.02-31.37-31.33-31.37c-17.31,0-31.33,14.06-31.33,31.37s14.02,31.34,31.33,31.34
		C177.98,196.14,192,182.11,192,164.8L192,164.8z"/>
	
		<path fill-rule="evenodd" fill="#FFFFFE" stroke="#000000" stroke-width="2.0286" stroke-linecap="round" stroke-linejoin="round" stroke-miterlimit="10" d="
		M177.38,164.8c0-9.26-7.48-16.74-16.71-16.74c-9.25,0-16.73,7.49-16.73,16.74c0,9.23,7.48,16.71,16.73,16.71
		C169.9,181.51,177.38,174.03,177.38,164.8L177.38,164.8z"/>
</g>
</svg>
