<?xml version="1.0" encoding="utf-8"?>

<svg version="1.2" baseProfile="tiny" id="Layer_1" xmlns="http://www.w3.org/2000/svg" xmlns:xlink="http://www.w3.org/1999/xlink"
	 x="0px" y="0px" width="519.37px" height="516.98px" viewBox="0 0 519.37 516.98" xml:space="preserve">
<g>
	
		<path fill-rule="evenodd" fill="#FFFFFE" stroke="#000000" stroke-width="8.0857" stroke-linecap="round" stroke-linejoin="round" stroke-miterlimit="10" d="
		M120.64,126.08c48.05-196.63,263.76-123.06,272.32-6.8c128.21,16.97,192.6,224.21,5.24,271.59
		c3.42,110.08-218.59,205.06-271.63,6.99C-76.04,350.71,9.28,127.92,120.64,126.08L120.64,126.08z"/>
	
		<path fill-rule="evenodd" fill="#FFFFFE" stroke="#000000" stroke-width="3.0286" stroke-linecap="round" stroke-linejoin="round" stroke-miterlimit="10" d="
		M129.85,136.95C174.16-44.31,373,23.54,380.87,130.67c118.2,15.63,177.57,206.66,4.84,250.34
		c3.16,101.46-201.47,189.04-250.39,6.46C-51.43,344.01,27.21,138.63,129.85,136.95L129.85,136.95z"/>
	
		<path fill-rule="evenodd" fill="#FFFFFE" stroke="#000000" stroke-width="2.0286" stroke-linecap="round" stroke-linejoin="round" stroke-miterlimit="10" d="
		M258.04,289.98c16.61,0,30.14-13.92,30.14-30.97c0-17.07-13.53-30.97-30.14-30.97c-16.61,0-30.14,13.89-30.14,30.97
		C227.89,276.06,241.42,289.98,258.04,289.98L258.04,289.98z"/>
	
		<path fill-rule="evenodd" fill="#FFFFFE" stroke="#000000" stroke-width="2.0286" stroke-linecap="round" stroke-linejoin="round" stroke-miterlimit="10" d="
		M258.04,266.47c4.13,0,7.48-3.36,7.48-7.46c0-4.12-3.34-7.49-7.48-7.49c-4.13,0-7.48,3.36-7.48,7.49
		C250.56,263.11,253.9,266.47,258.04,266.47L258.04,266.47z"/>
	
		<path fill-rule="evenodd" fill="#FFFFFE" stroke="#000000" stroke-width="2.0286" stroke-linecap="round" stroke-linejoin="round" stroke-miterlimit="10" d="
		M258.04,277.95c10.45,0,18.98-8.51,18.98-18.94c0-10.43-8.53-18.94-18.98-18.94s-18.98,8.51-18.98,18.94
		C239.05,269.44,247.58,277.95,258.04,277.95L258.04,277.95z"/>
	
		<path fill-rule="evenodd" fill="#FFFFFE" stroke="#000000" stroke-width="2.0286" stroke-linecap="round" stroke-linejoin="round" stroke-miterlimit="10" d="
		M258.04,280.21c11.37,0,20.64-9.51,20.64-21.2c0-11.69-9.27-21.22-20.64-21.22s-20.64,9.53-20.64,21.22
		C237.4,270.7,246.66,280.21,258.04,280.21L258.04,280.21z"/>
	
		<path fill-rule="evenodd" fill="#FFFFFE" stroke="#000000" stroke-width="2.0286" stroke-linecap="round" stroke-linejoin="round" stroke-miterlimit="10" d="
		M258.04,271.38c6.63,0,12.06-5.57,12.06-12.37c0-6.83-5.42-12.37-12.06-12.37c-6.63,0-12.06,5.54-12.06,12.37
		C245.98,265.81,251.4,271.38,258.04,271.38L258.04,271.38z"/>
	<path fill-rule="evenodd" fill="#FFFFFE" stroke="#000000" stroke-width="2.0286" stroke-miterlimit="10" d="M362.18,285.33
		c2.97,0,5.4-12.87,5.4-28.66c0-15.81-2.42-28.68-5.4-28.68c-2.98,0-5.4,12.87-5.4,28.68C356.78,272.46,359.21,285.33,362.18,285.33
		L362.18,285.33z"/>
	<path fill-rule="evenodd" fill="#FFFFFE" stroke="#000000" stroke-width="2.0286" stroke-miterlimit="10" d="M228.52,155.1
		c0-2.97,12.87-5.38,28.75-5.38c15.88,0,28.72,2.42,28.72,5.38c0,2.97-12.85,5.38-28.72,5.38
		C241.4,160.49,228.52,158.07,228.52,155.1L228.52,155.1z"/>
	<path fill-rule="evenodd" fill="#FFFFFE" stroke="#000000" stroke-width="2.0286" stroke-miterlimit="10" d="M153.89,288.17
		c-2.97,0-5.4-12.82-5.4-28.66c0-15.84,2.42-28.66,5.4-28.66c2.98,0,5.4,12.82,5.4,28.66C159.29,275.35,156.86,288.17,153.89,288.17
		L153.89,288.17z"/>
	<path fill-rule="evenodd" fill="#FFFFFE" stroke="#000000" stroke-width="2.0286" stroke-miterlimit="10" d="M289.13,362.92
		c0,2.97-12.87,5.38-28.75,5.38s-28.72-2.42-28.72-5.38c0-2.99,12.85-5.41,28.72-5.41S289.13,359.92,289.13,362.92L289.13,362.92z"
		/>
	<polygon fill-rule="evenodd" fill="#FFFFFE" stroke="#000000" stroke-width="2.0286" stroke-miterlimit="10" points="
		367.55,254.23 390.56,254.05 414.6,244.85 438.79,229.72 449.77,227.65 457.09,229.57 470.33,238.42 484.41,248.5 498,254.57 
		505.66,258.04 491.39,263.79 474.49,274.38 463.17,282.36 453.24,287.06 446.11,288.64 440.19,288.11 429.73,282.02 417.39,273.51 
		406.59,265.87 394.56,261.53 390.38,261.01 367.53,260.43 	"/>
	<polygon fill-rule="evenodd" fill="#FFFFFE" stroke="#000000" stroke-width="2.0286" stroke-miterlimit="10" points="
		254.82,149.74 254.67,126.79 245.42,102.81 230.29,78.64 228.18,67.72 230.1,60.41 238.98,47.2 249.08,33.12 255.17,19.6 
		258.67,11.93 264.41,26.19 275.04,43.02 283.04,54.32 287.73,64.22 289.31,71.37 288.78,77.28 282.7,87.68 274.15,100.02 
		266.49,110.79 262.14,122.79 261.62,126.94 261.06,149.77 	"/>
	<polygon fill-rule="evenodd" fill="#FFFFFE" stroke="#000000" stroke-width="2.0286" stroke-miterlimit="10" points="
		148.52,261.95 125.51,262.11 101.47,271.33 77.28,286.43 66.3,288.53 58.98,286.62 45.77,277.74 31.66,267.68 18.07,261.58 
		10.41,258.12 24.68,252.39 41.58,241.78 52.9,233.8 62.83,229.09 69.96,227.54 75.88,228.07 86.34,234.14 98.68,242.65 
		109.48,250.29 121.51,254.65 125.69,255.18 148.54,255.73 	"/>
	<polygon fill-rule="evenodd" fill="#FFFFFE" stroke="#000000" stroke-width="2.0286" stroke-miterlimit="10" points="
		262.83,368.28 262.98,391.23 272.22,415.21 287.36,439.35 289.47,450.3 287.55,457.61 278.67,470.79 268.57,484.87 262.48,498.43 
		258.98,506.07 253.24,491.83 242.63,474.97 234.6,463.68 229.92,453.77 228.34,446.65 228.87,440.75 234.95,430.32 243.5,417.97 
		251.16,407.2 255.51,395.23 256.03,391.05 256.59,368.25 	"/>
	<polygon fill-rule="evenodd" fill="#FFFFFE" stroke="#000000" stroke-width="2.0286" stroke-miterlimit="10" points="
		356.78,254.57 346.52,254.05 337.62,251.63 328.75,245.38 319.16,236.16 315.58,239.28 314.56,243.75 314.5,250.26 306.98,250.24 
		297.73,257.88 306.11,265.52 314.64,265.52 314.82,273.69 316.22,276.63 317.77,278.55 320.38,279.24 323.01,276.29 330.54,268.47 
		337.57,265.08 346.89,261.93 356.84,260.64 	"/>
	<polygon fill-rule="evenodd" fill="#FFFFFE" stroke="#000000" stroke-width="2.0286" stroke-miterlimit="10" points="
		255.19,160.46 254.67,170.73 252.22,179.61 245.95,188.46 236.71,198.02 239.84,201.57 244.35,202.62 250.87,202.67 250.82,210.18 
		258.48,219.38 266.14,211.05 266.14,202.54 274.33,202.35 277.28,200.96 279.2,199.41 279.91,196.79 276.94,194.19 269.12,186.67 
		265.7,179.66 262.54,170.36 261.25,160.43 	"/>
	<polygon fill-rule="evenodd" fill="#FFFFFE" stroke="#000000" stroke-width="2.0286" stroke-miterlimit="10" points="
		159.29,261.58 169.58,262.11 178.45,264.55 187.32,270.8 196.91,280 200.49,276.87 201.51,272.41 201.57,265.89 209.09,265.95 
		218.33,258.3 209.96,250.66 201.43,250.66 201.25,242.49 199.85,239.52 198.3,237.6 195.69,236.92 193.06,239.86 185.53,247.69 
		178.5,251.1 169.18,254.23 159.23,255.52 	"/>
	<polygon fill-rule="evenodd" fill="#FFFFFE" stroke="#000000" stroke-width="2.0286" stroke-miterlimit="10" points="
		262.46,357.53 262.98,347.26 265.43,338.41 271.7,329.56 280.94,320 277.81,316.43 273.3,315.38 266.78,315.35 266.83,307.84 
		259.17,298.62 251.51,306.97 251.51,315.48 243.32,315.64 240.37,317.03 238.45,318.61 237.74,321.21 240.71,323.81 248.53,331.32 
		251.95,338.36 255.11,347.63 256.4,357.56 	"/>
	<polygon fill-rule="evenodd" fill="#FFFFFE" stroke="#000000" stroke-width="2.0286" stroke-miterlimit="10" points="
		357.28,244.59 353.89,242.44 350.31,238.79 346.99,233.85 346.99,215.33 343.59,212.47 340.83,210.47 336.3,209.95 336.38,211.34 
		339.17,214.28 340.65,218.04 340.65,219.93 339.44,224.71 338.83,233.32 338.83,233.58 339.78,237.05 339.96,237.31 342.38,241.73 
		346.31,245.38 350.39,247.37 354.57,249.21 356.92,249.97 	"/>
	<polygon fill-rule="evenodd" fill="#FFFFFE" stroke="#000000" stroke-width="2.0286" stroke-miterlimit="10" points="
		245.16,159.99 243,163.38 239.34,166.95 234.39,170.23 215.83,170.23 212.96,173.62 210.96,176.4 210.44,180.92 211.83,180.84 
		214.81,178.06 218.55,176.59 220.47,176.59 225.26,177.8 233.87,178.4 234.13,178.4 237.61,177.45 237.87,177.27 242.32,174.85 
		245.98,170.94 247.98,166.84 249.79,162.69 250.56,160.33 	"/>
	<polygon fill-rule="evenodd" fill="#FFFFFE" stroke="#000000" stroke-width="2.0286" stroke-miterlimit="10" points="
		158.79,271.59 162.18,273.75 165.76,277.37 169.08,282.33 169.08,300.83 172.47,303.71 175.24,305.71 179.77,306.21 179.69,304.84 
		176.9,301.88 175.42,298.15 175.42,296.23 176.63,291.45 177.24,282.86 177.24,282.6 176.29,279.13 176.11,278.87 173.69,274.43 
		169.76,270.78 165.68,268.78 161.5,266.97 159.15,266.18 	"/>
	<polygon fill-rule="evenodd" fill="#FFFFFE" stroke="#000000" stroke-width="2.0286" stroke-miterlimit="10" points="
		272.49,358.03 274.65,354.62 278.31,351.07 283.26,347.76 301.82,347.76 304.68,344.38 306.69,341.59 307.21,337.07 305.82,337.18 
		302.84,339.96 299.1,341.43 297.18,341.43 292.42,340.2 283.78,339.59 283.52,339.59 280.04,340.57 279.78,340.72 275.33,343.17 
		271.67,347.08 269.67,351.15 267.85,355.33 267.09,357.67 	"/>
	<polygon fill-rule="evenodd" fill="#FFFFFE" stroke="#000000" stroke-width="2.0286" stroke-miterlimit="10" points="
		357.44,271.01 354.05,273.17 350.47,276.82 347.15,281.76 347.15,300.27 343.75,303.14 340.96,305.13 336.43,305.66 336.54,304.27 
		339.33,301.3 340.8,297.57 340.8,295.65 339.59,290.9 338.96,282.28 338.96,282.02 339.94,278.55 340.09,278.29 342.54,273.85 
		346.46,270.2 350.54,268.2 354.73,266.39 357.07,265.63 	"/>
	<polygon fill-rule="evenodd" fill="#FFFFFE" stroke="#000000" stroke-width="2.0286" stroke-miterlimit="10" points="
		271.65,159.83 273.8,163.22 277.46,166.79 282.44,170.07 300.97,170.07 303.84,173.46 305.84,176.25 306.37,180.76 304.97,180.69 
		302.03,177.9 298.29,176.43 296.37,176.43 291.57,177.64 282.94,178.24 282.7,178.24 279.2,177.3 278.94,177.11 274.51,174.7 
		270.86,170.78 268.86,166.69 267.01,162.54 266.25,160.2 	"/>
	<polygon fill-rule="evenodd" fill="#FFFFFE" stroke="#000000" stroke-width="2.0286" stroke-miterlimit="10" points="
		158.63,245.14 162.02,243.01 165.6,239.36 168.92,234.4 168.92,215.91 172.32,213.04 175.11,211.05 179.64,210.52 179.53,211.92 
		176.74,214.86 175.27,218.59 175.27,220.5 176.48,225.28 177.11,233.87 177.11,234.14 176.13,237.63 175.98,237.87 173.53,242.31 
		169.61,245.96 165.52,247.95 161.34,249.79 159,250.55 	"/>
	<polygon fill-rule="evenodd" fill="#FFFFFE" stroke="#000000" stroke-width="2.0286" stroke-miterlimit="10" points="246,358.16 
		243.85,354.78 240.19,351.23 235.21,347.92 216.68,347.92 213.81,344.53 211.81,341.75 211.28,337.23 212.68,337.33 215.62,340.09 
		219.39,341.59 221.28,341.59 226.07,340.36 234.71,339.75 234.97,339.75 238.45,340.7 238.71,340.88 243.13,343.32 246.79,347.24 
		248.79,351.31 250.64,355.49 251.4,357.82 	"/>
	<polygon fill-rule="evenodd" fill="#FFFFFE" stroke="#000000" stroke-width="2.0286" stroke-miterlimit="10" points="
		369.71,242.41 378.42,239.1 385.22,233.03 390.09,222.61 391.3,213.91 390.09,206.45 386.59,200.2 382.06,197.6 378.92,197.76 
		371.11,204.35 367.1,204.35 367.26,190.98 370.58,180.92 374.24,170.84 382.43,164.93 393.04,161.8 401.75,161.8 409.94,163.87 
		417.07,167.87 423.34,173.78 427.71,183.52 427.52,197.6 425.07,211.84 420.55,220.01 412.54,229.57 403.3,236.34 393.04,241.73 
		383.64,244.85 371.63,245.88 	"/>
	<polygon fill-rule="evenodd" fill="#FFFFFE" stroke="#000000" stroke-width="2.0286" stroke-miterlimit="10" points="
		242.98,147.59 239.69,138.9 233.58,132.12 223.13,127.26 214.44,126.05 206.94,127.26 200.67,130.73 198.06,135.25 198.22,138.37 
		204.86,146.2 204.86,150.19 191.43,150.01 181.35,146.72 171.24,143.07 165.31,134.9 162.18,124.32 162.18,115.62 164.29,107.46 
		168.29,100.34 174.21,94.09 183.95,89.73 198.06,89.91 212.33,92.33 220.52,96.84 230.1,104.85 236.9,114.05 242.29,124.32 
		245.42,133.7 246.48,145.67 	"/>
	<polygon fill-rule="evenodd" fill="#FFFFFE" stroke="#000000" stroke-width="2.0286" stroke-miterlimit="10" points="
		146.36,273.75 137.65,277.05 130.85,283.15 125.98,293.55 124.77,302.24 125.98,309.73 129.48,315.98 134.01,318.58 137.15,318.4 
		144.96,311.8 148.97,311.8 148.81,325.17 145.49,335.26 141.83,345.35 133.64,351.23 123.03,354.38 114.32,354.38 106.13,352.28 
		99,348.29 92.73,342.38 88.39,332.66 88.55,318.58 91,304.35 95.52,296.18 103.53,286.62 112.77,279.84 123.03,274.46 
		132.43,271.33 144.44,270.28 	"/>
	<polygon fill-rule="evenodd" fill="#FFFFFE" stroke="#000000" stroke-width="2.0286" stroke-miterlimit="10" points="
		274.67,370.43 277.96,379.1 284.07,385.88 294.52,390.73 303.21,391.97 310.71,390.73 316.98,387.27 319.59,382.75 319.43,379.62 
		312.79,371.8 312.79,367.8 326.22,367.99 336.3,371.3 346.41,374.95 352.33,383.09 355.47,393.7 355.47,402.4 353.36,410.56 
		349.36,417.68 343.44,423.93 333.7,428.27 319.59,428.11 305.32,425.67 297.13,421.15 287.55,413.17 280.75,403.95 275.36,393.7 
		272.22,384.33 271.17,372.32 	"/>
	<polygon fill-rule="evenodd" fill="#FFFFFE" stroke="#000000" stroke-width="2.0286" stroke-miterlimit="10" points="
		370.68,274.03 379.4,277.32 386.19,283.41 391.06,293.84 392.27,302.51 391.06,309.99 387.56,316.24 383.03,318.84 379.9,318.69 
		372.08,312.07 368.08,312.07 368.24,325.44 371.55,335.52 375.21,345.61 383.4,351.52 394.01,354.64 402.72,354.64 410.91,352.54 
		418.05,348.55 424.31,342.64 428.68,332.92 428.5,318.84 426.05,304.61 421.52,296.44 413.52,286.88 404.28,280.1 394.01,274.72 
		384.61,271.59 372.61,270.54 	"/>
	<polygon fill-rule="evenodd" fill="#FFFFFE" stroke="#000000" stroke-width="2.0286" stroke-miterlimit="10" points="
		274.67,146.62 277.99,137.92 284.07,131.15 294.52,126.29 303.24,125.08 310.71,126.29 316.98,129.75 319.59,134.27 319.43,137.4 
		312.79,145.23 312.79,149.22 326.22,149.06 336.3,145.75 346.41,142.1 352.33,133.93 355.47,123.35 355.47,114.65 353.39,106.48 
		349.39,99.37 343.46,93.11 333.7,88.75 319.59,88.94 305.32,91.35 297.13,95.87 287.55,103.88 280.75,113.08 275.36,123.35 
		272.22,132.72 271.2,144.7 	"/>
	<polygon fill-rule="evenodd" fill="#FFFFFE" stroke="#000000" stroke-width="2.0286" stroke-miterlimit="10" points="
		145.39,242.15 136.67,238.84 129.88,232.77 125.01,222.34 123.8,213.65 125.01,206.19 128.51,199.94 133.04,197.31 136.17,197.5 
		143.99,204.09 147.99,204.09 147.83,190.72 144.52,180.63 140.86,170.57 132.67,164.66 122.06,161.54 113.35,161.54 105.16,163.61 
		98.02,167.6 91.76,173.51 87.42,183.26 87.57,197.31 90.02,211.57 94.55,219.74 102.55,229.28 111.79,236.05 122.06,241.44 
		131.46,244.56 143.46,245.61 	"/>
	<polygon fill-rule="evenodd" fill="#FFFFFE" stroke="#000000" stroke-width="2.0286" stroke-miterlimit="10" points="242.98,371.4 
		239.66,380.07 233.58,386.85 223.13,391.71 214.41,392.94 206.94,391.71 200.67,388.24 198.06,383.72 198.22,380.6 204.86,372.77 
		204.86,368.78 191.43,368.96 181.35,372.27 171.24,375.92 165.31,384.06 162.18,394.67 162.18,403.37 164.26,411.54 168.29,418.66 
		174.19,424.91 183.95,429.24 198.06,429.08 212.33,426.64 220.52,422.12 230.1,414.14 236.9,404.92 242.29,394.67 245.42,385.3 
		246.45,373.29 	"/>
	<polyline fill="#FFFFFD" stroke="#000000" stroke-width="2.0286" stroke-miterlimit="10" points="177.11,234.14 238.74,235.21 
		235.87,177.93 	"/>
	<polyline fill="#FFFFFD" stroke="#000000" stroke-width="2.0286" stroke-miterlimit="10" points="282.7,178.24 279.31,237.08 
		338.83,233.58 	"/>
	<polyline fill="#FFFFFD" stroke="#000000" stroke-width="2.0286" stroke-miterlimit="10" points="339.46,280.29 280.28,279.89 
		283.52,339.59 	"/>
	<polyline fill="#FFFFFD" stroke="#000000" stroke-width="2.0286" stroke-miterlimit="10" points="234.97,339.75 237.55,281.7 
		176.77,280.86 	"/>
</g>
</svg>
