<?xml version="1.0" encoding="utf-8"?>
<svg version="1.2" baseProfile="tiny" id="Layer_1" xmlns="http://www.w3.org/2000/svg" xmlns:xlink="http://www.w3.org/1999/xlink"
	 x="0px" y="0px" width="497.15px" height="497.39px" viewBox="0 0 497.15 497.39" xml:space="preserve">
<path fill="#FFFFFE" stroke="#000000" stroke-width="2" d="M121.59,375.57l-8.17,15l-5.27-7.15l-2.4,10.05l-5.61-12.34l0.15,12.16
	l-2.72-10.92l-1.79-7.87l1.85-3.56c0.39,0,0.76,0,1.15,0l12.84,0.71l9.76,3.8L121.59,375.57z"/>
<polygon fill="#FFFFFE" stroke="#000000" stroke-width="2" points="135.92,366.94 131.49,385.41 129.57,377.57 123.78,390.86 
	124.77,376.06 117.84,396.56 113.42,390.57 121.59,375.57 126.7,366.19 134.84,371.39 "/>
<polygon fill="#FFFFFE" stroke="#000000" stroke-width="2" points="146.73,327.69 144.29,332.49 142.05,331.21 138.27,336.85 
	134.92,334.92 140.65,324.6 "/>
<path fill="#FFFFFE" stroke="#000000" stroke-width="2" d="M126.7,366.19l-5.11,9.38l-0.21-0.12l-9.76-3.8l-12.84-0.71
	c-0.39,0-0.76,0-1.15,0l21.57-41.59l6.29,1.71l9.43,3.86l3.35,1.93l3.35,1.94L126.7,366.19z"/>
<polygon fill="#FFFFFE" stroke="#000000" stroke-width="2" points="249.62,178.19 252.82,232.69 212.51,235.06 212.51,235.05 
	212.83,182.32 212.83,182.31 "/>
<polygon fill="#FFFFFE" stroke="#000000" stroke-width="2" points="140.65,324.6 134.92,334.92 125.49,331.06 131.21,319.81 "/>
<polygon fill="#FFFFFE" stroke="#000000" stroke-width="2" points="154.49,324.21 148.42,334.86 144.29,332.49 146.73,327.69 
	147.49,328.08 150.97,321.83 "/>
<polygon fill="#FFFFFE" stroke="#000000" stroke-width="2" points="144.29,332.49 148.42,334.86 154.77,338.49 137.99,372.7 
	135.92,366.94 134.84,371.39 126.7,366.19 141.62,338.79 138.27,336.85 142.05,331.21 "/>
<polygon fill="#FFFFFE" stroke="#000000" stroke-width="2" points="189.4,272.84 159.47,326.93 154.49,324.21 150.97,321.83 
	178.48,272.47 173.7,269.62 173.12,268.84 181.35,267.94 "/>
<polygon fill="#FFFFFE" stroke="#000000" stroke-width="2" points="173.7,269.62 178.48,272.47 150.97,321.83 147.49,328.08 
	146.73,327.69 140.65,324.6 131.21,319.8 131.21,319.81 128.34,318.35 156.16,269.92 160.77,261.9 "/>
<polygon fill="#FFFFFE" stroke="#000000" stroke-width="2" points="364.43,355.15 378.58,379.21 377.8,392.56 373.81,382.84 
	369.23,396.56 364.09,374.85 360.37,384.27 358.95,358.28 358.9,358.18 "/>
<polygon fill="#FFFFFE" stroke="#000000" stroke-width="2" points="212.83,182.31 212.83,182.32 212.51,235.05 212.51,235.06 
	206.76,235.4 200.48,231.4 197.91,225.96 200.85,183.66 "/>
<polygon fill="#FFFFFE" stroke="#000000" stroke-width="2" points="266.58,176.29 271.3,218.52 270.18,225.96 265.32,231.96 
	252.82,232.69 249.62,178.19 "/>
<polygon fill="#FFFFFE" stroke="#000000" stroke-width="2" points="310.73,315.68 310.52,330.56 300.95,330 302.38,315.57 "/>
<polygon fill="#FFFFFE" stroke="#000000" stroke-width="2" points="154.49,324.21 159.47,326.93 189.4,272.84 181.35,267.94 
	298.97,255.09 297.52,315.48 310.73,315.67 310.73,315.68 302.38,315.57 300.95,330 295.92,330.15 295.43,360.44 295.1,380.44 
	300.11,392 294.97,380.55 292.1,387.42 284.11,369.71 285.81,397.7 277.83,389.71 274.39,399.43 257.25,356.55 255.54,393.71 
	245.82,378.84 245.26,389.71 237.84,371.41 237.84,392.56 230.97,387.42 225.27,394.85 229.82,377.14 216.7,393.71 205.83,380.55 
	205.27,394.27 196.12,378.84 196.12,394.27 186.98,369.71 188.13,396.56 181.84,389.13 180.12,401.14 165.84,362.28 161.85,393.71 
	160.12,396.56 150.43,377.7 146.99,397.7 137.99,372.71 137.99,372.7 154.77,338.49 148.42,334.86 "/>
<path fill="#FFFFFE" stroke="#000000" stroke-width="2" d="M279.73,65.31c12.84,0.43,22.73,19.9,2.78,24.63
	c9.96,11.06-14.03,27.91-33.36,11.56c-1.36,16.29-25.65,22.7-35.41-1.47c-11.32,12.98-32.69,2.29-29.48-15.32
	c-10.79-6.09-8.74-27.3,8.58-28.9c-7.89-16.29,18.72-27.74,30.4-10.83c4.04-8.06,24.42-24.97,31.87,7.65
	C264.24,43.8,279.83,45.93,279.73,65.31z"/>
<polygon fill="#FFFFFE" stroke="#000000" stroke-width="2" points="313.63,361.14 309.8,394.85 303.52,379.43 300.11,392 
	295.1,380.44 295.43,360.44 "/>
<polygon fill="#FFFFFE" stroke="#000000" stroke-width="2" points="316.95,331.86 313.63,361.14 295.43,360.44 295.92,330.15 
	300.95,330 310.52,330.56 "/>
<path fill="#FFFFFE" stroke="#000000" stroke-width="2" d="M317.64,115.55l1.45,8.67l-3.71,3.72l-0.57,0.28l-3.86,2.29l-0.71,0.28
	l-2.29,2.29l1.42,2.7l0.43,0.59l-0.12,4.14l-1.02,7.72l-0.28,0.43l-2.57,3.71l-3,2.58l2.14,3.41l1.57,2.59
	c0,0.67,0.11,0.45-0.28,0.84l-0.58,4.15l-0.13,4.15c-0.41,0.71-0.48,0.82-1.02,1.43l-1.12,2.85l-2.59,3.15
	c-0.52,0.24-0.99,0.35-1.55,0.56l-3.59,1.02c-0.73,0.37-0.41,0.28-1.14,0.28l-4.13,0.28c-0.71,0.22-0.69,0.15-1.44,0.15h-3.42
	c-0.9,0-0.67,0.04-1.42-0.71l-2.72-0.87l-0.43-0.43l-2.51-1.04l-1.92-1.59l22-64.38l14.86,4.58h0.84L317.64,115.55z"/>
<polygon fill="#FFFFFE" stroke="#000000" stroke-width="2" points="307.24,262.34 320.13,301.76 318.1,315.78 310.73,315.67 
	297.52,315.48 298.97,255.09 309.09,253.98 311.2,253.98 312.01,260.48 315.71,259.05 "/>
<polygon fill="#FFFFFE" stroke="#000000" stroke-width="2" points="322.95,94.22 322.95,94.63 322.8,99.06 322.52,99.49 
	320.51,102.21 320.08,102.36 318.66,103.92 318.66,104.35 317.77,107.56 301.23,102.9 303.39,96.57 304.58,82.64 314.38,83.48 
	319.09,85.77 322.8,88.77 322.95,89.21 "/>
<polygon fill="#FFFFFE" stroke="#000000" stroke-width="2" points="311.2,253.98 307.8,226.6 315.94,225.89 318.92,251.95 
	318.53,251.97 318.94,252.12 319.05,257.75 319.05,257.76 315.71,259.05 312.01,260.48 "/>
<polygon fill="#FFFFFE" stroke="#000000" stroke-width="2" points="330.51,59.2 333.94,107.35 327.94,109.06 321.1,108.5 
	318.55,107.78 318.38,107.74 317.77,107.56 318.66,104.35 318.66,103.92 320.08,102.36 320.51,102.21 322.52,99.49 322.8,99.06 
	322.95,94.63 322.95,94.22 322.95,89.21 322.8,88.77 319.09,85.77 314.38,83.48 304.58,82.64 305.38,73.35 305.81,73.35 
	310.67,60.34 315.66,55.05 322.37,55.2 "/>
<polygon fill="#FFFFFE" stroke="#000000" stroke-width="2" points="325.65,255.19 347.51,314.92 340.29,317.29 340.08,316.56 
	332.26,319.93 326.67,321.77 320.13,301.76 307.24,262.34 315.71,259.05 319.05,257.76 319.05,257.75 "/>
<path fill="#FFFFFE" stroke="#000000" stroke-width="2" d="M298.97,255.09l-117.62,12.85l-8.23,0.9l0.58,0.78l-12.93-7.72
	l-4.61,8.02l-0.75-0.43h-1.14l-1.14-2.29l-5.28-33.88l-2.67-17.09l-2.61-16.78l3.71-7.13l7.99-3.44l46.58-5.22l-2.94,42.3l2.57,5.44
	l6.28,4l5.75-0.34l40.31-2.37l12.5-0.73l4.86-6l1.12-7.44l-4.72-42.23l9.95-1.12l1.92,1.59l2.51,1.04l0.43,0.43l2.72,0.87
	c0.75,0.75,0.52,0.71,1.42,0.71h3.42c0.75,0,0.73,0.07,1.44-0.15l4.13-0.28c0.73,0,0.41,0.09,1.14-0.28l3.59-1.02
	c0.56-0.21,1.03-0.32,1.55-0.56l2.59-3.15l1.12-2.85c0.54-0.61,0.61-0.72,1.02-1.43l0.13-4.15l0.58-4.15
	c0.39-0.39,0.28-0.17,0.28-0.84l-1.57-2.59l-2.14-3.41l3-2.58l2.57-3.71l0.28-0.43l1.02-7.72l0.12-4.14l-0.43-0.59l-1.42-2.7
	l2.29-2.29l0.71-0.28l3.86-2.29l0.57-0.28l3.71-3.72l-1.45-8.67l12.87,0.66l1.15,0.58l8.68,9.53l10.14,14.06l-0.1,0.13l-4.15,60.3
	l4.28,28.3l2.29,11.15l-0.56,3.99l-3.44,4.58l-6.28,1.99l-23.6,1.13l-2.98-26.06l-8.14,0.71l3.4,27.38h-2.11L298.97,255.09z"/>
<polygon fill="#FFFFFE" stroke="#000000" stroke-width="2" points="340.29,317.29 343.33,327.71 343.32,327.71 335.4,332.54 
	334.08,333.13 332.26,319.93 "/>
<polygon fill="#FFFFFE" stroke="#000000" stroke-width="2" points="345.95,123.92 355.67,135.46 355.67,135.47 354.09,136.09 
	350.48,140.38 340.34,126.32 331.66,116.79 330.51,116.21 317.64,115.55 314.23,115.37 313.39,115.37 298.53,110.79 301.23,102.9 
	317.77,107.56 317.77,107.57 318.38,107.74 318.55,107.78 321.1,108.5 327.94,109.06 333.94,107.35 330.51,59.2 337.9,67.23 
	337.9,67.24 337.66,96.49 339.95,107.35 343.66,109.92 377.09,110.79 375.71,73.48 375.71,73.47 380.93,73.78 382.49,74.37 
	382.38,114.53 388.29,122.73 381.65,125.33 381.58,125.15 376.94,118.52 346.51,119.36 "/>
<polygon fill="#FFFFFE" stroke="#000000" stroke-width="2" points="313.63,361.14 316.95,331.86 310.52,330.56 310.73,315.68 
	310.73,315.67 318.1,315.78 320.13,301.76 326.67,321.77 332.26,319.93 334.08,333.13 335.4,332.54 335.35,332.57 331.66,335.29 
	330.66,335.57 346.12,365.19 354.37,381 358,363.24 352.08,394.27 350.94,396.56 348.67,381.13 344.66,395.41 333.23,367.98 
	332.09,393.71 326.39,389.13 320.1,394.85 321.81,378.84 309.8,394.85 "/>
<path fill="#FFFFFE" stroke="#000000" stroke-width="2" d="M350.33,78.14c3.55,0,6.44,2.9,6.44,6.44c0,3.55-2.89,6.42-6.44,6.42
	c-3.54,0-6.43-2.87-6.43-6.42C343.9,81.04,346.79,78.14,350.33,78.14z"/>
<polygon fill="#FFFFFE" stroke="#000000" stroke-width="2" points="358.9,358.18 358.95,358.28 358,363.24 354.37,381 
	346.12,365.19 "/>
<polygon fill="#FFFFFE" stroke="#000000" stroke-width="2" points="347.79,326.84 364.43,355.15 358.9,358.18 346.12,365.19 
	330.66,335.57 331.66,335.29 335.35,332.57 335.4,332.54 343.66,328.85 343.33,327.71 "/>
<path fill="#FFFFFE" stroke="#000000" stroke-width="2" d="M375.71,73.48l1.38,37.31l-33.43-0.87l-3.71-2.57l-2.29-10.86l0.24-29.25
	l3.91,4.25h0.43L375.71,73.48L375.71,73.48z M356.77,84.58c0-3.54-2.89-6.44-6.44-6.44c-3.54,0-6.43,2.9-6.43,6.44
	c0,3.55,2.89,6.42,6.43,6.42C353.88,91,356.77,88.13,356.77,84.58z"/>
<polygon fill="#FFFFFE" stroke="#000000" stroke-width="2" points="400.93,84.93 404.92,96.21 403.65,107.78 399.78,117.94 
	394.36,120.36 388.29,122.73 382.38,114.53 382.49,74.37 392.94,78.36 "/>
<polygon fill="#FFFFFE" stroke="#000000" stroke-width="2" points="381.58,125.15 381.65,125.33 355.67,135.47 355.67,135.46 
	345.95,123.92 346.51,119.36 376.94,118.52 "/>
<path fill="#FFFFFE" stroke="#000000" stroke-width="2" d="M113.42,390.57l4.42,5.99l6.93-20.5l-0.99,14.8l5.79-13.29l1.92,7.84
	l4.43-18.47l2.07,5.76v0.01l9,24.99l3.44-20l9.69,18.86l1.73-2.85l3.99-31.43l14.28,38.86l1.72-12.01l6.29,7.43l-1.15-26.85
	l9.14,24.56v-15.43l9.15,15.43l0.56-13.72l10.87,13.16l13.12-16.57l-4.55,17.71l5.7-7.43l6.87,5.14v-21.15l7.42,18.3l0.56-10.87
	l9.72,14.87l1.71-37.16l17.14,42.88l3.44-9.72l7.98,7.99l-1.7-27.99l7.99,17.71l2.87-6.87l5.14,11.45l3.41-12.57l6.28,15.42
	l12.01-16.01l-1.71,16.01l6.29-5.72l5.7,4.58l1.14-25.73l11.43,27.43l4.01-14.28l2.27,15.43l1.14-2.29l5.92-31.03l0.93-4.53
	l1.44,25.56l3.72-9.42l5.14,21.71l4.58-13.72l3.99,9.72l0.78-13.35l0.93-15.79l5.72,28l1.7-15.43l1.73-0.58l6.85,16.59l3.43-14.86
	l7.43,19.42l2.29-23.44l2.29,0.58l6.28,16.01l2.27-21.73l4.57,24.58l3.44-21.71l4.4,16.45c-1.35,1.79-2.73,3.55-4.14,5.3
	l-20.26,21.67l-14.61,13.32c-15.97,12.93-33.68,23.76-52.72,32.08l-24.35,9.03c-2.39,0.73-4.8,1.43-7.23,2.09l-42.82,7.33
	c-0.71,0.05-1.42,0.1-2.13,0.15l-41.25-1.69l-46.28-9.7l-34.85-16.01l-38.26-25.15l-26.86-25.16l-12.01-15.43l4.02-22.29
	l14.83,36.59l4.58-13.72l1.73,0.57L91.56,400l2.29-32.58l3.72,14.95l2.5,10.99l0.22-0.07l0.19-0.06l-0.34-12.1l5.61,12.34l0.11,0.24
	l2.29-10.29L113.42,390.57z"/>
<path fill="#FFFFFE" stroke="#000000" stroke-width="5" d="M248.59,1c136.36,0,247.56,111.28,247.56,247.71
	c0,136.42-111.2,247.68-247.56,247.68C112.23,496.39,1,385.13,1,248.71C1,112.28,112.23,1,248.59,1z M431.91,387.3
	c29.24-38.59,46.62-86.63,46.62-138.59c0-126.73-103.3-230.08-229.94-230.08c-126.67,0-229.97,103.35-229.97,230.08
	c0,58.12,21.73,111.32,57.48,151.89c26.62,30.2,61.01,53.4,99.98,66.41c22.81,7.62,47.19,11.75,72.51,11.75
	c5.06,0,10.08-0.16,15.06-0.49l1.03,0.04l1.1-0.19c14.69-1.09,29.01-3.58,42.82-7.33l2.93-0.5l4.3-1.59
	c8.33-2.56,16.45-5.58,24.35-9.03l6.76-2.51l34.86-19.45l11.1-10.12c12.83-10.38,24.53-22.12,34.87-34.99l4.32-4.62L431.91,387.3z"
	/>
<path fill="#FFFFFE" stroke="#000000" stroke-width="2" d="M450.61,199.04c11.23,0.43,19.87,19.9,2.44,24.6
	c8.68,11.09-12.26,27.92-29.15,11.58c-1.19,16.29-22.39,22.71-30.92-1.46c-9.89,12.98-28.57,2.26-25.74-15.32
	c-9.46-6.09-7.66-27.31,7.5-28.93c-6.91-16.29,16.32-27.72,26.53-10.8c3.52-8.06,21.36-24.97,27.86,7.65
	C437.1,177.52,450.72,179.66,450.61,199.04z"/>
<path fill="#FFFFFE" stroke="#000000" stroke-width="2" d="M154.27,269.49h1.14l0.75,0.43l-27.82,48.43l2.87,1.46l-5.72,11.25
	l-6.29-1.71l-21.57,41.59l-1.85,3.56l1.79,7.87l-3.72-14.95L91.56,400l-2.26-13.72l-1.73-0.57l-4.58,13.72l-14.83-36.59l-4.02,22.29
	l12.01,15.43l-0.05,0.04c-35.75-40.57-57.48-93.77-57.48-151.89c0-126.73,103.3-230.08,229.97-230.08
	c126.64,0,229.94,103.35,229.94,230.08c0,51.96-17.38,100-46.62,138.59l-4.4-16.45l-3.44,21.71l-4.57-24.58l-2.27,21.73l-6.28-16.01
	l-2.29-0.58l-2.29,23.44l-7.43-19.42L395.51,392l-6.85-16.59l-1.73,0.58l-1.7,15.43l-5.72-28l-0.93,15.79l-14.15-24.06l-16.64-28.31
	l-4.46,0.87l-3.04-10.42l7.22-2.37l-21.86-59.73l-6.6,2.56l-0.11-5.63l-0.02-0.17l23.6-1.13l6.28-1.99l3.44-4.58l0.56-3.99
	l-2.29-11.15l-4.28-28.3l4.15-60.3l0.1-0.13l3.61-4.29l1.58-0.62l25.98-10.14l6.64-2.6l6.07-2.37l5.42-2.42l3.87-10.16l1.27-11.57
	l-3.99-11.28l-7.99-6.57l-10.45-3.99l-1.56-0.59l-5.22-0.31l-33.47-1.98h-0.43l-3.91-4.25v-0.01l-7.39-8.03l-8.14-4l-6.71-0.15
	l-4.99,5.29l-4.86,13.01h-0.43l-0.8,9.29l-1.19,13.93l-2.16,6.33l-2.7,7.89l-22,64.38l-9.95,1.12l-16.96,1.9l-36.79,4.12
	l-11.98,1.35l-46.58,5.22l-7.99,3.44l-3.71,7.13l2.61,16.78l-11.83-4.27l-4.3,1.14L39.07,316l16.87,7.43l44.84,0.56l36.56-77.73
	l4.28-8.01l6.22-4.93h0.01l5.28,33.88L154.27,269.49z M453.05,223.64c17.43-4.7,8.79-24.17-2.44-24.6
	c0.11-19.38-13.51-21.52-21.48-12.68c-6.5-32.62-24.34-15.71-27.86-7.65c-10.21-16.92-33.44-5.49-26.53,10.8
	c-15.16,1.62-16.96,22.84-7.5,28.93c-2.83,17.58,15.85,28.3,25.74,15.32c8.53,24.17,29.73,17.75,30.92,1.46
	C440.79,251.56,461.73,234.73,453.05,223.64z M282.51,89.94c19.95-4.73,10.06-24.2-2.78-24.63c0.1-19.38-15.49-21.51-24.62-12.68
	c-7.45-32.62-27.83-15.71-31.87-7.65c-11.68-16.91-38.29-5.46-30.4,10.83c-17.32,1.6-19.37,22.81-8.58,28.9
	c-3.21,17.61,18.16,28.3,29.48,15.32c9.76,24.17,34.05,17.76,35.41,1.47C268.48,117.85,292.47,101,282.51,89.94z M168.59,145.87
	c15.31-13.65-2.64-26.07-14.17-20.35c-9.09-17.09-23.81-11.58-27.66,0.54c-22.05-25.17-31.96-0.6-31.7,8.43
	c-18.31-9.34-36.27,13.37-21.59,23.95c-14.49,9.66-6.24,29.3,6.18,29.52c5.52,17.02,29.4,16.28,33.21-0.52
	c20.06,16.63,38.39-0.56,31.85-15.54C169.47,177.11,182.58,150.88,168.59,145.87z"/>
<path fill="#FFFFFE" stroke="#000000" stroke-width="2" d="M154.42,125.52c11.53-5.72,29.48,6.7,14.17,20.35
	c13.99,5.01,0.88,31.24-23.88,26.03c6.54,14.98-11.79,32.17-31.85,15.54c-3.81,16.8-27.69,17.54-33.21,0.52
	c-12.42-0.22-20.67-19.86-6.18-29.52c-14.68-10.58,3.28-33.29,21.59-23.95c-0.26-9.03,9.65-33.6,31.7-8.43
	C130.61,113.94,145.33,108.43,154.42,125.52z"/>
<polygon fill="#FFFFFE" stroke="#000000" stroke-width="2" points="145.18,216.23 147.85,233.32 147.84,233.32 141.62,238.25 
	137.34,246.26 100.78,323.99 55.94,323.43 39.07,316 129.05,213.1 133.35,211.96 "/>
</svg>
