<?xml version="1.0" encoding="utf-8"?>
<svg version="1.2" baseProfile="tiny" id="Layer_1" xmlns="http://www.w3.org/2000/svg" xmlns:xlink="http://www.w3.org/1999/xlink"
	 x="0px" y="0px" width="517.3px" height="517.55px" viewBox="0 0 517.3 517.55" xml:space="preserve">
<g>
	<g id="XMLID_1_">
		<g>
			<path fill="#FFFFFE" stroke="#000000" stroke-width="2" stroke-linecap="round" stroke-linejoin="round" d="M516.3,258.79c0,48.82-13.57,94.48-37.15,133.39l-0.02-0.01l-23.9-14.45c0.85-1.41,1.68-2.82,2.5-4.24
				c6.34-11.01,11.7-22.43,16.09-34.16c19.72-52.73,19.57-111.44-1.43-164.74l-25.97,10.23h-0.01
				c-4.04-10.29-8.94-20.25-14.63-29.77l23.94-14.34c-23.36-39.03-57.49-69.83-97.67-89.12c-10.27-4.94-20.94-9.12-31.93-12.5
				c-8.79-2.7-17.79-4.88-26.95-6.52l4.93-27.52L304.11,5C424.72,26.48,516.3,131.93,516.3,258.79z"/>
			<path fill="#FFFFFE" stroke="#000000" stroke-width="2" stroke-linecap="round" stroke-linejoin="round" d="M479.13,392.17l0.02,0.01c-7.01,11.58-14.9,22.56-23.59,32.85L434.22,407
				c-27.9,33.08-64.17,57.18-104.34,70.29l-8.67-26.57c47.42-15.46,87.44-47.95,112.31-91.19l24.21,13.95
				c-0.82,1.42-1.65,2.83-2.5,4.24L479.13,392.17z"/>
			<path fill="#FFFFFE" stroke="#000000" stroke-width="2" stroke-linecap="round" stroke-linejoin="round" d="M472.39,174.58c21,53.3,21.15,112.01,1.43,164.74l-0.02-0.01l-26.13-9.78
				c18.1-48.44,16.45-99.76-1.26-144.72h0.01L472.39,174.58z"/>
			<path fill="#FFFFFE" stroke="#000000" stroke-width="2" stroke-linecap="round" stroke-linejoin="round" d="M64.38,204.17c9.52-33.94,27.96-65.58,54.67-91.17L99.73,92.83c9.14-8.77,18.95-16.72,29.3-23.8
				l15.76,23.08c50.7-34.69,114.43-44.36,173.13-26.32l8.2-26.71c10.99,3.38,21.66,7.56,31.93,12.5l-12.09,25.17
				c36.92,17.73,66.14,45.36,85.82,78.29c5.69,9.52,10.59,19.48,14.63,29.77c17.71,44.96,19.36,96.28,1.26,144.72l26.13,9.78
				l0.02,0.01c-4.39,11.73-9.75,23.15-16.09,34.16l-24.21-13.95c-24.87,43.24-64.89,75.73-112.31,91.19l8.67,26.57
				c-11.94,3.9-24.23,6.82-36.74,8.72l-4.18-27.62c-50.55,7.68-100.6-4.2-141.29-31c-9.21-6.06-17.95-12.9-26.09-20.45
				c-17.8-16.46-32.81-36.32-43.97-59.01c-16.27-33.07-22.79-68.97-20.2-104C58.4,230.48,60.74,217.16,64.38,204.17z M432.53,258.79
				c0-32.71-9.02-63.3-24.7-89.43c-5.77-9.61-12.45-18.62-19.9-26.91c-31.83-35.37-77.95-57.61-129.27-57.61
				c-32.68,0-63.26,9.02-89.37,24.71c-9.61,5.76-18.62,12.44-26.9,19.9c-35.36,31.84-57.59,77.99-57.59,129.34
				c0,32.69,9.01,63.27,24.69,89.4c5.77,9.62,12.44,18.63,19.9,26.92c31.82,35.38,77.94,57.63,129.27,57.63
				c32.68,0,63.25-9.02,89.37-24.71c9.61-5.77,18.62-12.45,26.91-19.92C410.3,356.27,432.53,310.12,432.53,258.79z"/>
			<path fill="#FFFFFE" stroke="#000000" stroke-width="2" stroke-linecap="round" stroke-linejoin="round" d="M455.72,140.7l-23.94,14.34c-19.68-32.93-48.9-60.56-85.82-78.29l12.09-25.17
				C398.23,70.87,432.36,101.67,455.72,140.7z"/>
			<path fill="#FFFFFE" stroke="#000000" stroke-width="2" stroke-linecap="round" stroke-linejoin="round" d="M434.22,407l21.34,18.03c-47.27,55.97-117.94,91.52-196.9,91.52c-1.75,0-3.5-0.02-5.24-0.05v-0.01
				l0.58-27.93c13.2,0.27,26.29-0.6,39.14-2.55c12.51-1.9,24.8-4.82,36.74-8.72C370.05,464.18,406.32,440.08,434.22,407z"/>
			<path fill="#FFFFFE" stroke="#000000" stroke-width="2" stroke-linecap="round" stroke-linejoin="round" d="M362.25,361.61c26.18-26.38,42.34-62.72,42.34-102.82c0-13.27-1.77-26.13-5.08-38.35
				c-3.54-13.05-8.85-25.38-15.64-36.7l23.93-14.36l0.03-0.02c15.68,26.13,24.7,56.72,24.7,89.43c0,51.33-22.23,97.48-57.59,129.32
				l-0.01-0.01l-18.68-20.76l-0.01-0.01C358.3,365.49,360.3,363.58,362.25,361.61z"/>
			<path fill="#FFFFFE" stroke="#000000" stroke-width="2" stroke-linecap="round" stroke-linejoin="round" d="M407.83,169.36l-0.03,0.02l-23.93,14.36c-4.84-8.07-10.45-15.64-16.72-22.6l0.01-0.01l20.76-18.67
				l0.01-0.01C395.38,150.74,402.06,159.75,407.83,169.36z"/>
			<path fill="#FFFFFE" stroke="#000000" stroke-width="2" stroke-linecap="round" stroke-linejoin="round" d="M399.51,220.44c3.31,12.22,5.08,25.08,5.08,38.35c0,40.1-16.16,76.44-42.34,102.82l-19.15-18.99
				c10.74-10.83,19.41-23.71,25.37-38.01c5.9-14.1,9.15-29.58,9.15-45.82c0-10.83-1.44-21.31-4.16-31.28l26.01-7.06L399.51,220.44z"
				/>
			<path fill="#FFFFFE" stroke="#000000" stroke-width="2" stroke-linecap="round" stroke-linejoin="round" d="M383.87,183.74c6.79,11.32,12.1,23.65,15.64,36.7l-0.04,0.01l-26.01,7.06
				c-3.98-14.68-10.7-28.23-19.57-40.07c-15.86-21.15-38.59-36.85-64.89-43.76l6.88-26.08l0.01-0.03
				c27.9,7.34,52.53,22.74,71.26,43.57C373.42,168.1,379.03,175.67,383.87,183.74z"/>
			<path fill="#FFFFFE" stroke="#000000" stroke-width="2" stroke-linecap="round" stroke-linejoin="round" d="M387.93,142.45L387.93,142.45l-20.77,18.68l-0.01,0.01c-18.73-20.83-43.36-36.23-71.26-43.57
				c-11.88-3.13-24.36-4.8-37.23-4.8c-27.43,0-53.1,7.57-75.02,20.74l-14.34-23.95l-0.01-0.01c26.11-15.69,56.69-24.71,89.37-24.71
				C309.98,84.84,356.1,107.08,387.93,142.45z"/>
			<path fill="#FFFFFE" stroke="#000000" stroke-width="2" stroke-linecap="round" stroke-linejoin="round" d="M374.93,388.1l0.01,0.01c-8.29,7.47-17.3,14.15-26.91,19.92l-0.02-0.03l-14.36-23.95
				c8.07-4.84,15.63-10.44,22.59-16.72l0.01,0.01L374.93,388.1z"/>
			<path fill="#FFFFFE" stroke="#000000" stroke-width="2" stroke-linecap="round" stroke-linejoin="round" d="M373.46,227.51c2.72,9.97,4.16,20.45,4.16,31.28c0,16.24-3.25,31.72-9.15,45.82l-0.02-0.01l-42.13-54.95
				l27.57-62.21C362.76,199.28,369.48,212.83,373.46,227.51z"/>
			<path fill="#FFFFFE" stroke="#000000" stroke-width="2" stroke-linecap="round" stroke-linejoin="round" d="M368.45,304.6l0.02,0.01c-5.96,14.3-14.63,27.18-25.37,38.01c-19.11,19.27-44.76,32.03-73.34,34.67
				l28.07-63.35L368.45,304.6z"/>
			<polygon fill="#FFFFFE" stroke="#000000" stroke-width="2" stroke-linecap="round" stroke-linejoin="round" points="326.32,249.65 368.45,304.6 297.83,313.94 311.51,283.08 			"/>
			<path fill="#FFFFFE" stroke="#000000" stroke-width="2" stroke-linecap="round" stroke-linejoin="round" d="M333.65,384.05c-21.91,13.16-47.57,20.73-74.99,20.73c-12.87,0-25.35-1.67-37.24-4.8v-0.02l6.89-26.07
				c9.69,2.56,19.86,3.92,30.35,3.92c3.74,0,7.45-0.17,11.1-0.52c28.58-2.64,54.23-15.4,73.34-34.67l19.15,18.99
				c-1.95,1.97-3.95,3.88-6.01,5.72C349.28,373.61,341.72,379.21,333.65,384.05z"/>
			<polygon fill="#FFFFFE" stroke="#000000" stroke-width="2" stroke-linecap="round" stroke-linejoin="round" points="353.89,187.44 326.32,249.65 306.05,223.21 285,195.75 			"/>
			<path fill="#FFFFFE" stroke="#000000" stroke-width="2" stroke-linecap="round" stroke-linejoin="round" d="M289,143.68c26.3,6.91,49.03,22.61,64.89,43.76L285,195.75l-41.79-54.51l-0.06-0.46
				c5.08-0.67,10.25-1.01,15.51-1.01C269.15,139.77,279.32,141.13,289,143.68z"/>
			<path fill="#FFFFFE" stroke="#000000" stroke-width="2" stroke-linecap="round" stroke-linejoin="round" d="M348.01,408l0.02,0.03c-26.12,15.69-56.69,24.71-89.37,24.71c-51.33,0-97.45-22.25-129.27-57.63
				l20.77-18.69c18.72,20.82,43.36,36.22,71.26,43.56c11.89,3.13,24.37,4.8,37.24,4.8c27.42,0,53.08-7.57,74.99-20.73L348.01,408z"
				/>
			<path fill="#FFFFFE" stroke="#000000" stroke-width="2" stroke-linecap="round" stroke-linejoin="round" d="M326.32,249.65l-14.81,33.43l-0.06-0.02c3.31-7.34,5.16-15.49,5.16-24.07c0-13.11-4.32-25.22-11.61-34.97
				l1.05-0.81L326.32,249.65z"/>
			<path fill="#FFFFFE" stroke="#000000" stroke-width="2" stroke-linecap="round" stroke-linejoin="round" d="M326.12,39.08l-8.2,26.71c-58.7-18.04-122.43-8.37-173.13,26.32l-15.76-23.08
				c39.08-26.72,85.94-41.02,134.29-40.04l0.56-27.93V1.05c13.7,0.27,27.14,1.62,40.23,3.95l-0.01,0.04l-4.93,27.52
				C308.33,34.2,317.33,36.38,326.12,39.08z"/>
			<path fill="#FFFFFE" stroke="#000000" stroke-width="2" stroke-linecap="round" stroke-linejoin="round" d="M316.61,258.99c0,8.58-1.85,16.73-5.16,24.07c-8.19,18.14-25.36,31.34-45.85,33.94
				c-2.43,0.31-4.92,0.47-7.44,0.47c-19.66,0-37.05-9.72-47.64-24.62c-6.79-9.56-10.78-21.24-10.78-33.86
				c0-7.57,1.44-14.8,4.05-21.43c7.68-19.47,25.49-33.82,46.93-36.55c2.44-0.31,4.92-0.47,7.44-0.47c19.17,0,36.18,9.23,46.84,23.48
				C312.29,233.77,316.61,245.88,316.61,258.99z M306.86,258.79c0-26.63-21.59-48.22-48.2-48.22c-26.61,0-48.19,21.57-48.19,48.22
				c0,26.62,21.56,48.21,48.19,48.21C285.27,307,306.86,285.41,306.86,258.79z"/>
			<path fill="#FFFFFE" stroke="#000000" stroke-width="2" stroke-linecap="round" stroke-linejoin="round" d="M311.51,283.08l-13.68,30.86l-32.07,4.24L265.6,317c20.49-2.6,37.66-15.8,45.85-33.94L311.51,283.08z"/>
			<polygon fill="#FFFFFE" stroke="#000000" stroke-width="2" stroke-linecap="round" stroke-linejoin="round" points="297.83,313.94 269.76,377.29 230.06,322.9 265.76,318.18 			"/>
			<path fill="#FFFFFE" stroke="#000000" stroke-width="2" stroke-linecap="round" stroke-linejoin="round" d="M183.64,133.51c21.92-13.17,47.59-20.74,75.02-20.74c12.87,0,25.35,1.67,37.23,4.8l-0.01,0.03L289,143.68
				c-9.68-2.55-19.85-3.91-30.34-3.91c-5.26,0-10.43,0.34-15.51,1.01c-26.81,3.48-50.82,15.9-68.94,34.18l-0.01-0.01l-19.13-19.02
				c1.94-1.96,3.93-3.86,5.98-5.7C168.01,143.97,175.57,138.36,183.64,133.51z"/>
			<path fill="#FFFFFE" stroke="#000000" stroke-width="2" stroke-linecap="round" stroke-linejoin="round" d="M258.66,210.57c26.61,0,48.2,21.59,48.2,48.22c0,26.62-21.59,48.21-48.2,48.21
				c-26.63,0-48.19-21.59-48.19-48.21C210.47,232.14,232.05,210.57,258.66,210.57z M292.9,258.79c0-18.92-15.33-34.26-34.24-34.26
				s-34.23,15.34-34.23,34.26c0,18.91,15.32,34.25,34.23,34.25S292.9,277.7,292.9,258.79z"/>
			<path fill="#FFFFFE" stroke="#000000" stroke-width="2" stroke-linecap="round" stroke-linejoin="round" d="M288.96,458.39l4.18,27.62c-12.85,1.95-25.94,2.82-39.14,2.55l-0.58,27.93v0.01
				c-13.7-0.28-27.14-1.62-40.23-3.96l0.01-0.03l4.93-27.5c-30.63-5.49-59.83-17.15-85.82-34.29l15.36-23.33
				C188.36,454.19,238.41,466.07,288.96,458.39z"/>
			<polygon fill="#FFFFFE" stroke="#000000" stroke-width="2" stroke-linecap="round" stroke-linejoin="round" points="243.21,141.24 285,195.75 250.59,199.91 217.3,203.92 			"/>
			<path fill="#FFFFFE" stroke="#000000" stroke-width="2" stroke-linecap="round" stroke-linejoin="round" d="M258.66,224.53c18.91,0,34.24,15.34,34.24,34.26c0,18.91-15.33,34.25-34.24,34.25
				s-34.23-15.34-34.23-34.25C224.43,239.87,239.75,224.53,258.66,224.53z"/>
			<path fill="#FFFFFE" stroke="#000000" stroke-width="2" stroke-linecap="round" stroke-linejoin="round" d="M228.31,373.89c-25.69-6.75-47.99-21.9-63.78-42.33l65.53-8.66l39.7,54.39
				c-3.65,0.35-7.36,0.52-11.1,0.52C248.17,377.81,238,376.45,228.31,373.89z"/>
			<path fill="#FFFFFE" stroke="#000000" stroke-width="2" stroke-linecap="round" stroke-linejoin="round" d="M263.88,1.05v0.01l-0.56,27.93c-48.35-0.98-95.21,13.32-134.29,40.04c-10.35,7.08-20.16,15.03-29.3,23.8
				c-5.82,5.58-11.38,11.49-16.63,17.72L61.75,92.54l-0.01-0.01C109,36.55,179.68,1,258.66,1C260.4,1,262.14,1.02,263.88,1.05z"/>
			<path fill="#FFFFFE" stroke="#000000" stroke-width="2" stroke-linecap="round" stroke-linejoin="round" d="M285,195.75l21.05,27.46l-1.05,0.81c-10.66-14.25-27.67-23.48-46.84-23.48c-2.52,0-5,0.16-7.44,0.47
				l-0.13-1.1L285,195.75z"/>
			<path fill="#FFFFFE" stroke="#000000" stroke-width="2" stroke-linecap="round" stroke-linejoin="round" d="M250.59,199.91l0.13,1.1c-21.44,2.73-39.25,17.08-46.93,36.55l-0.34-0.14l13.85-33.5L250.59,199.91z"/>
			<path fill="#FFFFFE" stroke="#000000" stroke-width="2" stroke-linecap="round" stroke-linejoin="round" d="M243.15,140.78l0.06,0.46l-25.91,62.68l-68.09,8.22l-0.02-0.01c5.95-13.97,14.49-26.56,25.02-37.17
				C192.33,156.68,216.34,144.26,243.15,140.78z"/>
			<polygon fill="#FFFFFE" stroke="#000000" stroke-width="2" stroke-linecap="round" stroke-linejoin="round" points="230.06,322.9 164.53,331.56 190.51,268.72 208.96,293.99 			"/>
			<path fill="#FFFFFE" stroke="#000000" stroke-width="2" stroke-linecap="round" stroke-linejoin="round" d="M133.45,333.83c-6.8-11.33-12.11-23.65-15.65-36.7l0.03-0.01l26.02-7.09
				c4.14,15.28,11.25,29.35,20.68,41.53c15.79,20.43,38.09,35.58,63.78,42.33l-6.89,26.07v0.02c-27.9-7.34-52.54-22.74-71.26-43.56
				C143.89,349.46,138.29,341.9,133.45,333.83z"/>
			<path fill="#FFFFFE" stroke="#000000" stroke-width="2" stroke-linecap="round" stroke-linejoin="round" d="M218.13,485.01l-4.93,27.5l-0.01,0.03C135.45,498.7,69.78,449.98,32.92,383.13l0.04-0.02l24.46-13.47
				c11.86,21.55,27.13,41.07,45.19,57.79l18.97-20.49c8.14,7.55,16.88,14.39,26.09,20.45l-15.36,23.33
				C158.3,467.86,187.5,479.52,218.13,485.01z"/>
			<polygon fill="#FFFFFE" stroke="#000000" stroke-width="2" stroke-linecap="round" stroke-linejoin="round" points="217.3,203.92 203.45,237.42 190.51,268.72 149.21,212.14 			"/>
			<path fill="#FFFFFE" stroke="#000000" stroke-width="2" stroke-linecap="round" stroke-linejoin="round" d="M258.16,317.47c2.52,0,5.01-0.16,7.44-0.47l0.16,1.18l-35.7,4.72l-21.1-28.91l1.56-1.14
				C221.11,307.75,238.5,317.47,258.16,317.47z"/>
			<path fill="#FFFFFE" stroke="#000000" stroke-width="2" stroke-linecap="round" stroke-linejoin="round" d="M210.52,292.85l-1.56,1.14l-18.45-25.27l12.94-31.3l0.34,0.14c-2.61,6.63-4.05,13.86-4.05,21.43
				C199.74,271.61,203.73,283.29,210.52,292.85z"/>
			<path fill="#FFFFFE" stroke="#000000" stroke-width="2" stroke-linecap="round" stroke-linejoin="round" d="M143.85,290.03c-2.71-9.95-4.15-20.43-4.15-31.24c0-16.56,3.38-32.34,9.49-46.66l0.02,0.01l41.3,56.58
				l-25.98,62.84C155.1,319.38,147.99,305.31,143.85,290.03z"/>
			<path fill="#FFFFFE" stroke="#000000" stroke-width="2" stroke-linecap="round" stroke-linejoin="round" d="M169.3,109.56l14.34,23.95c-8.07,4.85-15.63,10.46-22.59,16.72l-18.66-20.78
				c8.28-7.46,17.29-14.14,26.9-19.9L169.3,109.56z"/>
			<path fill="#FFFFFE" stroke="#000000" stroke-width="2" stroke-linecap="round" stroke-linejoin="round" d="M174.2,174.95L174.2,174.95c-10.52,10.62-19.06,23.21-25.01,37.18c-6.11,14.32-9.49,30.1-9.49,46.66
				c0,10.81,1.44,21.29,4.15,31.24l-26.02,7.09l-0.03,0.01c-3.32-12.22-5.09-25.07-5.09-38.34c0-40.13,16.18-76.47,42.36-102.86
				L174.2,174.95z"/>
			<path fill="#FFFFFE" stroke="#000000" stroke-width="2" stroke-linecap="round" stroke-linejoin="round" d="M142.39,129.45l18.66,20.78c-2.05,1.84-4.04,3.74-5.98,5.7c-26.18,26.39-42.36,62.73-42.36,102.86
				c0,13.27,1.77,26.12,5.09,38.34c3.54,13.05,8.85,25.37,15.65,36.7l-23.95,14.35l-0.01,0.01c-15.68-26.13-24.69-56.71-24.69-89.4
				C84.8,207.44,107.03,161.29,142.39,129.45z"/>
			<path fill="#FFFFFE" stroke="#000000" stroke-width="2" stroke-linecap="round" stroke-linejoin="round" d="M150.16,356.42l-20.77,18.69c-7.46-8.29-14.13-17.3-19.9-26.92l0.01-0.01l23.95-14.35
				C138.29,341.9,143.89,349.46,150.16,356.42z"/>
			<path fill="#FFFFFE" stroke="#000000" stroke-width="2" stroke-linecap="round" stroke-linejoin="round" d="M121.58,406.94l-18.97,20.49c-18.06-16.72-33.33-36.24-45.19-57.79l-24.46,13.47l-0.04,0.02
				c-6.49-11.75-12.08-24.05-16.68-36.83l0.07-0.03l26.26-9.49c-10.96-30.38-15.39-62.7-13.01-94.92l27.85,2.07
				c-2.59,35.03,3.93,70.93,20.2,104C88.77,370.62,103.78,390.48,121.58,406.94z"/>
			<path fill="#FFFFFE" stroke="#000000" stroke-width="2" stroke-linecap="round" stroke-linejoin="round" d="M99.73,92.83L119.05,113c-26.71,25.59-45.15,57.23-54.67,91.17l-26.89-7.57
				c5.62-19.93,13.88-39.03,24.59-56.75L38.2,125.39l-0.05-0.03c7.01-11.57,14.9-22.54,23.59-32.83l0.01,0.01l21.35,18.01
				C88.35,104.32,93.91,98.41,99.73,92.83z"/>
			<path fill="#FFFFFE" stroke="#000000" stroke-width="2" stroke-linecap="round" stroke-linejoin="round" d="M37.49,196.6l26.89,7.57c-3.64,12.99-5.98,26.31-6.97,39.76l-27.85-2.07
				c-2.38,32.22,2.05,64.54,13.01,94.92l-26.26,9.49l-0.07,0.03C6.37,318.98,1,289.51,1,258.79c0-48.84,13.57-94.51,37.15-133.43
				l0.05,0.03l23.88,14.46C51.37,157.57,43.11,176.67,37.49,196.6z"/>
		</g>
	</g>
</g>
</svg>
