<?xml version="1.0" encoding="utf-8"?>
<!-- Generator: Adobe Illustrator 13.0.0, SVG Export Plug-In . SVG Version: 6.00 Build 14948)  -->
<svg version="1.2" baseProfile="tiny" id="Layer_1" xmlns="http://www.w3.org/2000/svg" xmlns:xlink="http://www.w3.org/1999/xlink"
	 x="0px" y="0px" width="552.57px" height="538.64px" viewBox="0 0 552.57 538.64" xml:space="preserve">
<g>
	
		<polygon fill-rule="evenodd" fill="#FFFFFF" stroke="#161717" stroke-width="1.0286" stroke-linecap="round" stroke-linejoin="round" stroke-miterlimit="10" points="
		138.76,440.53 52.55,430.63 64.43,326.97 0.51,268.25 71.03,191.38 53.8,106.28 156.03,85.56 192.08,6.58 286.94,49.93 
		362.51,7.25 413.79,98.11 500.01,107.99 488.11,211.67 552.05,270.37 481.52,347.26 498.77,432.34 396.54,453.08 360.49,532.05 
		265.61,488.7 190.06,531.39 	"/>
	
		<polygon fill-rule="evenodd" fill="#FFFFFF" stroke="#161717" stroke-width="2.0286" stroke-linecap="round" stroke-linejoin="round" stroke-miterlimit="10" points="
		287.68,67 356.75,27.97 404.36,112.33 483.17,121.38 472.13,217.64 530.56,271.3 465.09,342.69 480.84,420.45 385.92,439.69 
		352.98,511.88 264.89,471.64 195.81,510.65 148.19,426.29 69.39,417.24 80.44,320.99 22,267.33 87.48,195.95 71.73,118.16 
		166.64,98.92 199.59,26.74 	"/>
	
		<polygon fill-rule="evenodd" fill="#FFFFFF" stroke="#161717" stroke-width="3.0286" stroke-linecap="round" stroke-linejoin="round" stroke-miterlimit="10" points="
		530.56,271.3 475.41,331.4 401.01,247.06 376.76,252.1 372.5,268.52 393.1,293.52 354.59,325.27 356.56,357.59 306.78,360.63 
		289.37,387.94 247.29,361.11 217.17,372.98 198.89,326.54 167.56,318.42 180.04,270.1 159.47,245.11 197.97,213.36 195.99,181.03 
		245.79,177.99 263.2,150.68 305.28,177.51 335.38,165.64 349.52,201.55 370.19,193.4 472.13,217.64 	"/>
	
		<polygon fill-rule="evenodd" fill="#FFFFFF" stroke="#161717" stroke-width="1.0286" stroke-linecap="round" stroke-linejoin="round" stroke-miterlimit="10" points="
		380.42,524.6 483.8,450.73 411.36,460.49 	"/>
	
		<polygon fill-rule="evenodd" fill="#FFFFFF" stroke="#161717" stroke-width="1.0286" stroke-linecap="round" stroke-linejoin="round" stroke-miterlimit="10" points="
		510.5,414.6 550.75,294.05 497.88,344.55 	"/>
	
		<polygon fill-rule="evenodd" fill="#FFFFFF" stroke="#161717" stroke-width="1.0286" stroke-linecap="round" stroke-linejoin="round" stroke-miterlimit="10" points="
		551.12,249.1 512.85,127.91 499.76,199.86 	"/>
	
		<polygon fill-rule="evenodd" fill="#FFFFFF" stroke="#161717" stroke-width="1.0286" stroke-linecap="round" stroke-linejoin="round" stroke-miterlimit="10" points="
		172.15,14.04 68.75,87.91 141.21,78.12 	"/>
	
		<polygon fill-rule="evenodd" fill="#FFFFFF" stroke="#161717" stroke-width="1.0286" stroke-linecap="round" stroke-linejoin="round" stroke-miterlimit="10" points="
		42.05,124.02 1.82,244.59 54.69,194.08 	"/>
	
		<polygon fill-rule="evenodd" fill="#FFFFFF" stroke="#161717" stroke-width="1.0286" stroke-linecap="round" stroke-linejoin="round" stroke-miterlimit="10" points="
		1.43,289.51 39.7,410.73 52.81,338.76 	"/>
	
		<polygon fill-rule="evenodd" fill="#FFFFFF" stroke="#161717" stroke-width="1.0286" stroke-linecap="round" stroke-linejoin="round" stroke-miterlimit="10" points="
		65.8,447.28 167.97,522.83 136.29,456.91 	"/>
	
		<polygon fill-rule="evenodd" fill="#FFFFFF" stroke="#161717" stroke-width="1.0286" stroke-linecap="round" stroke-linejoin="round" stroke-miterlimit="10" points="
		210.56,537.07 337.6,538.12 273.25,503.41 	"/>
	
		<polygon fill-rule="evenodd" fill="#FFFFFF" stroke="#161717" stroke-width="1.0286" stroke-linecap="round" stroke-linejoin="round" stroke-miterlimit="10" points="
		486.77,91.33 384.6,15.79 416.28,81.7 	"/>
	
		<polygon fill-rule="evenodd" fill="#FFFFFF" stroke="#161717" stroke-width="1.0286" stroke-linecap="round" stroke-linejoin="round" stroke-miterlimit="10" points="
		342.01,1.55 214.97,0.51 279.32,35.2 	"/>
	
		<polyline fill="none" stroke="#161717" stroke-width="3.0286" stroke-linecap="round" stroke-linejoin="round" stroke-miterlimit="10" points="
		376.76,252.1 372.5,268.52 393.1,293.52 354.59,325.27 356.56,357.59 306.78,360.63 289.37,387.94 247.29,361.11 217.17,372.98 
		198.89,326.54 167.56,318.42 180.04,270.1 159.47,245.11 197.97,213.36 195.99,181.03 245.79,177.99 263.2,150.68 305.28,177.51 
		335.38,165.64 349.52,201.55 	"/>
	
		<polyline fill="none" stroke="#161717" stroke-width="2.0286" stroke-linecap="round" stroke-linejoin="round" stroke-miterlimit="10" points="
		396.87,263.13 425.15,296.11 377.46,335.22 380.89,378.43 319.42,382.14 296.9,419.11 244.9,385.96 204.99,402.61 182.36,345.24 
		140.1,335.18 155.7,275.51 127.46,242.7 175.08,203.4 171.74,160.05 233.13,156.49 255.53,119.35 307.67,152.66 347.67,135.99 
		361.6,171.49 474.75,194.67 	"/>
	
		<polygon fill-rule="evenodd" fill="#FFFFFF" stroke="#161717" stroke-width="3.0286" stroke-linecap="round" stroke-linejoin="round" stroke-miterlimit="10" points="
		404.36,112.33 396.85,99.02 293.67,143.75 307.67,152.66 	"/>
	
		<polygon fill-rule="evenodd" fill="#FFFFFF" stroke="#161717" stroke-width="3.0286" stroke-linecap="round" stroke-linejoin="round" stroke-miterlimit="10" points="
		465.09,342.69 475.41,331.4 401.01,247.06 376.76,252.1 372.5,268.52 396.87,263.13 	"/>
	
		<polygon fill-rule="evenodd" fill="#FFFFFF" stroke="#161717" stroke-width="3.0286" stroke-linecap="round" stroke-linejoin="round" stroke-miterlimit="10" points="
		385.8,440.9 400.92,436.66 390.28,324.67 377.46,335.22 	"/>
	
		<polygon fill-rule="evenodd" fill="#FFFFFF" stroke="#161717" stroke-width="3.0286" stroke-linecap="round" stroke-linejoin="round" stroke-miterlimit="10" points="
		278.79,477.98 264.89,471.64 319.42,382.14 335.98,381.13 	"/>
	
		<polygon fill-rule="evenodd" fill="#FFFFFF" stroke="#161717" stroke-width="3.0286" stroke-linecap="round" stroke-linejoin="round" stroke-miterlimit="10" points="
		244.9,385.96 258.9,394.89 155.72,439.62 148.19,426.29 	"/>
	
		<polygon fill-rule="evenodd" fill="#FFFFFF" stroke="#161717" stroke-width="3.0286" stroke-linecap="round" stroke-linejoin="round" stroke-miterlimit="10" points="
		182.36,345.24 188.44,360.68 78.69,336.19 80.44,320.99 	"/>
	
		<polygon fill-rule="evenodd" fill="#FFFFFF" stroke="#161717" stroke-width="3.0286" stroke-linecap="round" stroke-linejoin="round" stroke-miterlimit="10" points="
		155.5,275.39 151.34,291.46 76.94,207.12 87.28,195.85 	"/>
	
		<polygon fill-rule="evenodd" fill="#FFFFFF" stroke="#161717" stroke-width="3.0286" stroke-linecap="round" stroke-linejoin="round" stroke-miterlimit="10" points="
		174.99,203.34 162.17,213.91 151.53,101.92 166.53,98.88 	"/>
	
		<polygon fill-rule="evenodd" fill="#FFFFFF" stroke="#161717" stroke-width="3.0286" stroke-linecap="round" stroke-linejoin="round" stroke-miterlimit="10" points="
		233.09,156.18 216.52,157.19 273.72,60.32 287.64,66.68 	"/>
	
		<polygon fill-rule="evenodd" fill="#FFFFFF" stroke="#161717" stroke-width="3.0286" stroke-linecap="round" stroke-linejoin="round" stroke-miterlimit="10" points="
		232.08,202.14 278.33,236.32 326.34,202.27 306.79,257.27 353.17,291.26 294.84,291.07 275.51,346.13 259,291.01 200.66,291.05 
		248.81,257.18 	"/>
	
		<polyline fill="none" stroke="#161717" stroke-width="3.0286" stroke-linecap="round" stroke-linejoin="round" stroke-miterlimit="10" points="
		349.52,201.55 370.19,193.4 472.13,217.64 	"/>
</g>
</svg>
