<?xml version="1.0" encoding="utf-8"?>
<!-- Generator: Adobe Illustrator 13.0.0, SVG Export Plug-In . SVG Version: 6.00 Build 14948)  -->
<svg version="1.2" baseProfile="tiny" id="Layer_1" xmlns="http://www.w3.org/2000/svg" xmlns:xlink="http://www.w3.org/1999/xlink"
	 x="0px" y="0px" width="417.49px" height="418.1px" viewBox="0 0 417.49 418.1" xml:space="preserve">
<g>
	<g id="XMLID_1_">
		<g>
			<path fill="#FFFFFE" stroke="#000000" stroke-width="4" stroke-linecap="round" stroke-linejoin="round" d="M213.68,58.89c21.1,10.43,25.33,25.74,22.9,46.76c-5.23-1.34-10.62-2.29-16.12-2.82
				c-3.43-0.34-6.9-0.51-10.41-0.51c-4.16,0-8.27,0.24-12.31,0.71c-1.96,0.22-3.9,0.5-5.82,0.83
				C188.63,88.15,193.17,71.49,213.68,58.89z"/>
			<path fill="#FFFFFE" stroke="#000000" stroke-width="4" stroke-linecap="round" stroke-linejoin="round" d="M274.76,73.43c15.05,18.12,12.68,33.8,1.91,52.03l-0.05,0.06c-4.34-3.44-8.94-6.54-13.78-9.29
				c-6.38-3.62-13.17-6.61-20.28-8.87c-1.97-0.63-3.96-1.2-5.98-1.71C239.98,89.94,250.93,76.57,274.76,73.43z"/>
			<path fill="#FFFFFE" stroke="#000000" stroke-width="4" stroke-linecap="round" stroke-linejoin="round" d="M324.65,111.55c6.37,22.68-2.14,36.05-19.39,48.31l-0.05,0.03c-2.54-4.82-5.44-9.43-8.66-13.78
				c-4.48-6.06-9.58-11.63-15.2-16.62c-1.54-1.38-3.11-2.7-4.73-3.97l0.05-0.06C286.16,112.49,301.61,104.75,324.65,111.55z"/>
			<path fill="#FFFFFE" stroke="#000000" stroke-width="4" stroke-linecap="round" stroke-linejoin="round" d="M354.75,166.69c-3.4,23.31-16.65,32.06-37.38,36.26c-0.36-5.61-1.15-11.11-2.35-16.46
				c-1.58-7.11-3.88-13.96-6.81-20.46c-0.93-2.08-1.93-4.13-3-6.14l0.05-0.03C319.17,151.89,336.44,151.09,354.75,166.69z"/>
			<path fill="#FFFFFE" stroke="#000000" stroke-width="4" stroke-linecap="round" stroke-linejoin="round" d="M317.37,202.95c15.96-1.63,32.07,4.65,42.44,26.34c-12.57,19.91-28.25,22.54-48.87,17.91h-0.01
				c1.88-5.09,3.4-10.35,4.5-15.76c1.42-6.96,2.17-14.16,2.17-21.52c0-0.23,0-0.46-0.01-0.69
				C317.58,207.12,317.51,205.03,317.37,202.95z"/>
			<path fill="#FFFFFE" stroke="#000000" stroke-width="4" stroke-linecap="round" stroke-linejoin="round" d="M338.99,288.55c-19.59,13.08-34.96,9.11-51.95-3.52l-0.06-0.06c3.77-3.85,7.23-7.97,10.37-12.34
				c4.44-6.16,8.24-12.8,11.3-19.83c0.82-1.84,1.57-3.71,2.28-5.6h0.01C326.16,252.2,338.33,264.52,338.99,288.55z"/>
			<path fill="#FFFFFE" stroke="#000000" stroke-width="4" stroke-linecap="round" stroke-linejoin="round" d="M287.04,285.03c11.91,10.77,18.02,26.94,8.82,49.2c-23.21,3.97-35.63-5.94-46-24.37v-0.01
				c5.16-2.06,10.12-4.52,14.85-7.34c6.31-3.74,12.21-8.11,17.61-13.02c1.6-1.46,3.16-2.97,4.66-4.52L287.04,285.03z"/>
			<path fill="#FFFFFE" stroke="#000000" stroke-width="4" stroke-linecap="round" stroke-linejoin="round" d="M249.86,309.86c6.48,14.69,5.48,31.94-11.94,48.51v0.03c-22.81-5.83-30.15-19.91-32.15-40.97
				c1.42,0.06,2.85,0.09,4.28,0.09c4.02,0,7.99-0.22,11.9-0.67c7.58-0.83,14.92-2.46,21.94-4.81
				C245.91,311.37,247.9,310.64,249.86,309.86L249.86,309.86z"/>
			<path fill="#FFFFFE" stroke="#000000" stroke-width="4" stroke-linecap="round" stroke-linejoin="round" d="M199.63,317.01c2.03,0.2,4.08,0.34,6.14,0.42c-0.03,16.03-7.97,31.4-30.62,39.46
				c-18.47-14.6-19.44-30.46-12.71-50.52l0.01-0.02c4.72,2.36,9.64,4.37,14.72,6C184.36,314.68,191.87,316.26,199.63,317.01z"/>
			<path fill="#FFFFFE" stroke="#000000" stroke-width="4" stroke-linecap="round" stroke-linejoin="round" d="M162.45,306.35l-0.01,0.02c-6.56,14.66-20.04,25.46-44.03,23.6c-10.94-20.85-5.37-35.74,8.94-51.31
				l0.05-0.05c3.49,4.2,7.29,8.13,11.37,11.74c5.48,4.89,11.47,9.21,17.87,12.9C158.54,304.34,160.48,305.38,162.45,306.35z"/>
			<path fill="#FFFFFE" stroke="#000000" stroke-width="4" stroke-linecap="round" stroke-linejoin="round" d="M127.4,278.61l-0.05,0.05c-11.97,10.71-28.67,15.09-49.83,3.63c-1.52-23.52,9.62-34.83,29.03-43.23
				c1.43,5.07,3.23,10,5.36,14.75c3.17,7.07,7.09,13.74,11.65,19.91C124.79,275.39,126.07,277.02,127.4,278.61z"/>
			<path fill="#FFFFFE" stroke="#000000" stroke-width="4" stroke-linecap="round" stroke-linejoin="round" d="M103.65,194.4c-0.74,5.07-1.12,10.25-1.12,15.52c0,0.22,0,0.44,0.01,0.66
				c0.04,7.61,0.88,15.04,2.45,22.21c0.45,2.11,0.97,4.2,1.56,6.27c-15.28,4.91-32.32,2.11-47-16.97
				C67.72,200,82.48,194.2,103.65,194.4z"/>
			<path fill="#FFFFFE" stroke="#000000" stroke-width="4" stroke-linecap="round" stroke-linejoin="round" d="M119.15,152.46l0.05,0.03c-2.94,4.62-5.52,9.48-7.73,14.54c-2.97,6.78-5.25,13.92-6.77,21.34
				c-0.4,1.99-0.76,4-1.05,6.03c-15.97-1.71-30.39-11.2-36.04-34.6C84.05,142.95,99.9,143.63,119.15,152.46z"/>
			<path fill="#FFFFFE" stroke="#000000" stroke-width="4" stroke-linecap="round" stroke-linejoin="round" d="M150.37,120.43l0.03,0.05c-4.44,2.98-8.66,6.28-12.6,9.87c-5.57,5.07-10.61,10.71-15.01,16.83
				c-1.25,1.73-2.45,3.5-3.59,5.31l-0.05-0.03c-13.88-8.09-23.22-22.63-18.85-46.29C122.18,97.46,136.37,104.55,150.37,120.43z"/>
			<path fill="#FFFFFE" stroke="#000000" stroke-width="4" stroke-linecap="round" stroke-linejoin="round" d="M151.96,70.49c23.54,0.94,33.62,13.2,39.96,33.37c-5.38,0.91-10.61,2.23-15.68,3.93
				c-7.33,2.43-14.31,5.64-20.84,9.53c-1.7,1-3.37,2.06-5,3.16l-0.03-0.05C140.97,107.4,138.37,90.32,151.96,70.49z"/>
			<path fill="#FFFFFE" stroke="#000000" stroke-width="3" stroke-linecap="round" stroke-linejoin="round" d="M316.32,71.13c3.24-1.17,6.19-2.76,8.67-4.87c-0.93,2.68-1.64,5.31-2.18,7.9
				c-3.05,14.47-0.58,27.38,1.84,37.39c-23.04-6.8-38.49,0.94-47.98,13.91c10.77-18.23,13.14-33.91-1.91-52.03
				C285.79,74.14,303.38,75.87,316.32,71.13z"/>
			<path fill="#FFFFFE" stroke="#000000" stroke-width="3" stroke-linecap="round" stroke-linejoin="round" d="M363.57,126.38c3.43,0.24,6.77-0.01,9.89-0.92c-1.93,2.07-3.66,4.18-5.2,6.31
				c-8.67,11.98-11.64,24.79-13.51,34.92c-18.31-15.6-35.58-14.8-49.49-6.83c17.25-12.26,25.76-25.63,19.39-48.31
				C334.43,116.69,349.81,125.43,363.57,126.38z"/>
			<path fill="#FFFFFE" stroke="#000000" stroke-width="3" stroke-linecap="round" stroke-linejoin="round" d="M386.36,202.89c-12.79,7.43-20.74,17.91-26.55,26.4c-10.37-21.69-26.48-27.97-42.44-26.34
				c20.73-4.2,33.98-12.95,37.38-36.26c6.83,8.69,17.33,22.92,29.5,29.37c3.04,1.62,6.2,2.74,9.42,3.17
				C391.07,200.33,388.64,201.56,386.36,202.89z"/>
			<path fill="#FFFFFE" stroke="#000000" stroke-width="3" stroke-linecap="round" stroke-linejoin="round" d="M359.81,229.29c2.71,10.72,6.51,28,15.02,38.86c2.12,2.72,4.54,5.03,7.31,6.74
				c-2.83-0.06-5.55,0.07-8.17,0.36c-14.7,1.56-26.21,7.91-34.98,13.3c-0.66-24.03-12.83-36.35-28.05-41.35
				C331.56,251.83,347.24,249.2,359.81,229.29z"/>
			<path fill="#FFFFFE" stroke="#000000" stroke-width="3" stroke-linecap="round" stroke-linejoin="round" d="M333.24,336.3c-14.06-4.54-27.17-3.43-37.38-2.07c9.2-22.26,3.09-38.43-8.82-49.2
				c16.99,12.63,32.36,16.6,51.95,3.52c-1.87,10.9-5.43,28.23-2.08,41.61c0.83,3.34,2.1,6.44,3.93,9.13
				C338.28,338.09,335.75,337.11,333.24,336.3z"/>
			<path fill="#FFFFFE" stroke="#000000" stroke-width="3" stroke-linecap="round" stroke-linejoin="round" d="M271.21,375.5c-11-9.88-23.43-14.19-33.29-17.1v-0.03c17.42-16.57,18.42-33.82,11.94-48.51
				c10.37,18.43,22.79,28.34,46,24.37c-6.14,9.19-16.43,23.57-18.81,37.14c-0.6,3.4-0.7,6.75-0.12,9.95
				C275.08,379.19,273.17,377.25,271.21,375.5z"/>
			<path fill="#FFFFFE" stroke="#000000" stroke-width="3" stroke-linecap="round" stroke-linejoin="round" d="M198.61,386.06c-6.03-13.49-15.63-22.48-23.46-29.17c22.65-8.06,30.59-23.43,30.62-39.46
				c2,21.06,9.34,35.14,32.15,40.97c-9.35,5.9-24.61,14.85-32.3,26.29c-1.92,2.86-3.37,5.87-4.14,9.03
				C200.66,391.01,199.7,388.46,198.61,386.06z"/>
			<path fill="#FFFFFE" stroke="#000000" stroke-width="3" stroke-linecap="round" stroke-linejoin="round" d="M162.44,306.37c-6.73,20.06-5.76,35.92,12.71,50.52c-10.95,1.58-28.53,3.56-40.21,10.88
				c-2.92,1.82-5.47,3.98-7.45,6.55c0.35-2.8,0.51-5.52,0.5-8.15c-0.03-14.78-5.12-26.91-9.58-36.2
				C142.4,331.83,155.88,321.03,162.44,306.37z"/>
			<path fill="#FFFFFE" stroke="#000000" stroke-width="3" stroke-linecap="round" stroke-linejoin="round" d="M77.52,282.29c21.16,11.46,37.86,7.08,49.83-3.63c-14.31,15.57-19.88,30.46-8.94,51.31
				c-10.62-2.99-27.5-8.35-41.14-6.41c-3.4,0.48-6.61,1.42-9.46,2.96c1.46-2.42,2.7-4.85,3.77-7.26
				C77.54,305.74,77.81,292.59,77.52,282.29z"/>
			<path fill="#FFFFFE" stroke="#000000" stroke-width="3" stroke-linecap="round" stroke-linejoin="round" d="M59.55,222.09c14.68,19.08,31.72,21.88,47,16.97c-19.41,8.4-30.55,19.71-29.03,43.23
				c-8.48-7.06-21.71-18.81-34.96-22.6c-3.32-0.94-6.64-1.39-9.88-1.14c2.32-1.62,4.45-3.32,6.4-5.09
				C50.04,243.54,55.63,231.64,59.55,222.09z"/>
			<path fill="#FFFFFE" stroke="#000000" stroke-width="3" stroke-linecap="round" stroke-linejoin="round" d="M67.61,159.8c5.65,23.4,20.07,32.89,36.04,34.6c-21.17-0.2-35.93,5.6-44.1,27.69
				c-4.89-9.89-12.19-26.01-22.75-34.87c-2.64-2.21-5.49-3.97-8.55-5.07c2.77-0.53,5.41-1.22,7.91-2.04
				C50.21,175.51,60.14,166.9,67.61,159.8z"/>
			<path fill="#FFFFFE" stroke="#000000" stroke-width="3" stroke-linecap="round" stroke-linejoin="round" d="M119.15,152.46c-19.25-8.83-35.1-9.51-51.54,7.34c-0.44-11.04-0.56-28.73-6.61-41.12
				c-1.5-3.1-3.38-5.86-5.73-8.11c2.75,0.64,5.43,1.08,8.05,1.35c14.69,1.51,27.26-2.3,36.98-5.75
				C95.93,129.83,105.27,144.37,119.15,152.46z"/>
			<path fill="#FFFFFE" stroke="#000000" stroke-width="3" stroke-linecap="round" stroke-linejoin="round" d="M151.96,70.49c-13.59,19.83-10.99,36.91-1.59,49.94c-14-15.88-28.19-22.97-50.07-14.26
				c4.09-10.25,11.17-26.47,10.67-40.24c-0.12-3.45-0.72-6.74-1.96-9.76c2.26,1.71,4.54,3.2,6.83,4.52
				C128.66,68.05,141.69,69.69,151.96,70.49z"/>
			<path fill="#FFFFFE" stroke="#000000" stroke-width="3" stroke-linecap="round" stroke-linejoin="round" d="M184.65,35.23c8.71,11.95,19.96,18.76,29.03,23.66c-20.51,12.6-25.05,29.26-21.76,44.97
				c-6.34-20.17-16.42-32.43-39.96-33.37c7.93-7.73,21-19.67,26.14-32.46c1.28-3.19,2.07-6.44,2.16-9.68
				C181.63,30.82,183.1,33.11,184.65,35.23z"/>
			<path fill="#FFFFFE" stroke="#000000" stroke-width="3" stroke-linecap="round" stroke-linejoin="round" d="M257.87,40c3.1,14.45,10.61,25.26,16.89,33.43c-23.83,3.14-34.78,16.51-38.18,32.22
				c2.43-21.02-1.8-36.33-22.9-46.76c10.37-3.82,27.16-9.41,37.06-19c2.47-2.4,4.51-5.04,5.92-7.97
				C256.9,34.73,257.31,37.42,257.87,40z"/>
			<path fill="#FFFFFE" stroke="#000000" stroke-width="2" stroke-linecap="round" stroke-linejoin="round" d="M129.83,174.59c-2.47,5.57-4.37,11.44-5.63,17.54l-1.27-0.28c0.16-0.8,0.2-1.63,0.11-2.48
				c-0.52-4.71-4.74-8.14-9.46-7.65c-3.84,0.39-6.83,3.28-7.52,6.91l-1.36-0.26c1.52-7.42,3.8-14.56,6.77-21.34l1.24,0.54
				c-0.3,0.73-0.5,1.52-0.58,2.35c-0.52,4.71,2.91,8.94,7.62,9.43c3.89,0.42,7.44-1.84,8.86-5.29L129.83,174.59z"/>
			<path fill="#FFFFFE" stroke="#000000" stroke-width="2" stroke-linecap="round" stroke-linejoin="round" d="M123.04,189.37c0.09,0.85,0.05,1.68-0.11,2.48c-0.69,3.64-3.69,6.56-7.55,6.95
				c-4.71,0.52-8.94-2.91-9.42-7.63c-0.1-0.87-0.06-1.73,0.1-2.54c0.69-3.63,3.68-6.52,7.52-6.91
				C118.3,181.23,122.52,184.66,123.04,189.37z"/>
			<path fill="#FFFFFE" stroke="#000000" stroke-width="2" stroke-linecap="round" stroke-linejoin="round" d="M315.8,206.6c-1.46-4.51-6.31-7-10.82-5.51c-3.64,1.18-5.94,4.55-5.94,8.18l-1.3,0.02
				c-0.04-6.31-0.75-12.47-2.08-18.41l1.27-0.27c0.18,0.91,0.5,1.81,0.99,2.65c2.37,4.11,7.63,5.51,11.74,3.14
				c3.43-1.98,4.97-5.97,4.01-9.62l1.35-0.29c1.2,5.35,1.99,10.85,2.35,16.46c0.14,2.08,0.21,4.17,0.22,6.28l-1.37,0.02
				C316.22,208.37,316.08,207.48,315.8,206.6z"/>
			<path fill="#FFFFFE" stroke="#000000" stroke-width="2" stroke-linecap="round" stroke-linejoin="round" d="M172.33,122.32c2.37,3.28,6.62,4.37,10.19,2.91l0.41,1.26c-6.09,1.98-11.89,4.62-17.31,7.85l-0.69-1.16
				c0.78-0.44,1.51-1.01,2.14-1.72c3.2-3.54,2.91-8.97-0.63-12.14c-2.92-2.64-7.18-2.89-10.36-0.86l-0.68-1.14
				c6.53-3.89,13.51-7.1,20.84-9.53l0.43,1.3c-0.85,0.27-1.67,0.68-2.43,1.23C170.38,113.12,169.56,118.49,172.33,122.32z"/>
			<path fill="#FFFFFE" stroke="#000000" stroke-width="2" stroke-linecap="round" stroke-linejoin="round" d="M123.2,229.2c0.68,3.5-0.89,7.21-4.13,9.09c-4.12,2.37-9.37,0.97-11.74-3.14
				c-0.49-0.85-0.81-1.75-0.99-2.65c-0.69-3.5,0.87-7.19,4.13-9.07c4.11-2.4,9.37-0.97,11.74,3.14
				C122.7,227.41,123.02,228.3,123.2,229.2z"/>
			<path fill="#FFFFFE" stroke="#000000" stroke-width="2" stroke-linecap="round" stroke-linejoin="round" d="M130.14,245.96c2.64,5.82,5.89,11.3,9.67,16.36l-1.1,0.8c-0.56-0.85-1.27-1.6-2.14-2.23
				c-3.85-2.8-9.22-1.94-11.99,1.88c-2.27,3.13-2.13,7.26,0.04,10.19l-1.06,0.76c-4.56-6.17-8.48-12.84-11.65-19.91l1.25-0.55
				c0.36,0.97,0.91,1.89,1.65,2.71c3.17,3.52,8.6,3.8,12.14,0.63c2.9-2.62,3.6-6.77,1.98-10.12L130.14,245.96z"/>
			<path fill="#FFFFFE" stroke="#000000" stroke-width="2" stroke-linecap="round" stroke-linejoin="round" d="M124.2,192.13c-1.19,5.75-1.82,11.7-1.82,17.79c0,0.21,0,0.42,0.01,0.63l-1.3,0.02
				c0-0.88-0.14-1.77-0.42-2.65c-1.49-4.52-6.32-6.97-10.83-5.52c-3.62,1.17-5.94,4.54-5.94,8.16l-1.36,0.02
				c-0.01-0.22-0.01-0.44-0.01-0.66c0-5.27,0.38-10.45,1.12-15.52c0.29-2.03,0.65-4.04,1.05-6.03l1.36,0.26
				c-0.16,0.81-0.2,1.67-0.1,2.54c0.48,4.72,4.71,8.15,9.42,7.63c3.86-0.39,6.86-3.31,7.55-6.95L124.2,192.13z"/>
			<path fill="#FFFFFE" stroke="#000000" stroke-width="2" stroke-linecap="round" stroke-linejoin="round" d="M168.87,181.52c6.43,2.11,9.97,9,7.88,15.43c-2.11,6.42-8.99,9.97-15.42,7.85
				c-6.42-2.08-9.97-8.97-7.85-15.4C155.56,182.95,162.44,179.43,168.87,181.52z"/>
			<path fill="#FFFFFE" stroke="#000000" stroke-width="2" stroke-linecap="round" stroke-linejoin="round" d="M314.17,228.66c-0.48-4.71-4.71-8.14-9.42-7.63c-3.87,0.4-6.86,3.32-7.55,6.95l-1.27-0.28
				c1.19-5.74,1.82-11.69,1.82-17.78c0-0.21,0-0.42-0.01-0.63l1.3-0.02c0,0.88,0.14,1.77,0.42,2.65c1.46,4.51,6.31,6.97,10.83,5.51
				c3.63-1.19,5.93-4.55,5.93-8.18l1.37-0.02c0.01,0.23,0.01,0.46,0.01,0.69c0,7.36-0.75,14.56-2.17,21.52l-1.36-0.26
				C314.23,230.37,314.26,229.52,314.17,228.66z"/>
			<path fill="#FFFFFE" stroke="#000000" stroke-width="2" stroke-linecap="round" stroke-linejoin="round" d="M314.17,228.66c0.09,0.86,0.06,1.71-0.1,2.52c-0.69,3.62-3.67,6.51-7.52,6.94
				c-4.72,0.48-8.94-2.95-9.46-7.66c-0.09-0.85-0.05-1.68,0.11-2.48c0.69-3.63,3.68-6.55,7.55-6.95
				C309.46,220.52,313.69,223.95,314.17,228.66z"/>
			<path fill="#FFFFFE" stroke="#000000" stroke-width="2" stroke-linecap="round" stroke-linejoin="round" d="M295.51,146.87c2.17,2.93,2.31,7.06,0.04,10.19c-2.77,3.83-8.14,4.69-11.99,1.89
				c-0.87-0.63-1.58-1.39-2.14-2.24c-1.89-2.9-1.92-6.8,0.25-9.76c2.77-3.83,8.14-4.69,12-1.89
				C294.39,145.58,295,146.2,295.51,146.87z"/>
			<path fill="#FFFFFE" stroke="#000000" stroke-width="2" stroke-linecap="round" stroke-linejoin="round" d="M175.64,219.5c1.77,6.29-1.73,12.92-8,14.96c-6.42,2.09-13.33-1.43-15.42-7.86
				c-0.05-0.16-0.1-0.31-0.14-0.47c-1.77-6.29,1.73-12.92,7.99-14.96c6.43-2.08,13.34,1.43,15.43,7.86
				C175.55,219.19,175.6,219.34,175.64,219.5z"/>
			<path fill="#FFFFFE" stroke="#000000" stroke-width="2" stroke-linecap="round" stroke-linejoin="round" d="M212.08,149.72c6.77,0,12.25,5.48,12.25,12.23c0,6.77-5.48,12.25-12.25,12.25c-0.08,0-0.16,0-0.24-0.01
				c-6.63-0.12-11.98-5.55-11.98-12.24C199.86,155.2,205.34,149.72,212.08,149.72z"/>
			<path fill="#FFFFFE" stroke="#000000" stroke-width="2" stroke-linecap="round" stroke-linejoin="round" d="M281.35,129.49c5.62,4.99,10.72,10.56,15.2,16.62l-1.04,0.76c-0.51-0.67-1.12-1.29-1.84-1.81
				c-3.86-2.8-9.23-1.94-12,1.89c-2.17,2.96-2.14,6.86-0.25,9.76l-1.1,0.81c-3.68-4.93-7.87-9.46-12.48-13.51l0.92-1.03
				c0.73,0.73,1.6,1.34,2.6,1.79c4.34,1.95,9.43-0.02,11.34-4.34c1.58-3.54,0.56-7.58-2.2-9.98L281.35,129.49z"/>
			<path fill="#FFFFFE" stroke="#000000" stroke-width="2" stroke-linecap="round" stroke-linejoin="round" d="M304.66,175.97c2.72-2.43,3.52-6.2,2.31-9.4l1.24-0.54c2.93,6.5,5.23,13.35,6.81,20.46l-1.35,0.29
				c-0.19-0.71-0.48-1.42-0.87-2.09c-2.37-4.12-7.63-5.54-11.74-3.17c-3.26,1.88-4.82,5.59-4.13,9.09l-1.27,0.27
				c-1.31-5.91-3.23-11.61-5.68-17.01l1.22-0.52c0.35,0.71,0.8,1.38,1.35,2C295.72,178.89,301.15,179.17,304.66,175.97z"/>
			<path fill="#FFFFFE" stroke="#000000" stroke-width="2" stroke-linecap="round" stroke-linejoin="round" d="M133.4,144.89c4.51,1.48,6.97,6.31,5.51,10.83c-0.3,0.91-0.73,1.73-1.27,2.46
				c-2.14,2.89-5.95,4.24-9.55,3.05c-4.51-1.46-7-6.31-5.51-10.83c0.3-0.9,0.73-1.72,1.27-2.45
				C125.98,145.08,129.8,143.72,133.4,144.89z"/>
			<path fill="#FFFFFE" stroke="#000000" stroke-width="2" stroke-linecap="round" stroke-linejoin="round" d="M233.9,307.6c2.24,3.07,6.13,4.23,9.56,3.13l0.43,1.31c-7.02,2.35-14.36,3.98-21.94,4.81l-0.16-1.38
				c0.88-0.09,1.77-0.32,2.62-0.7c4.35-1.91,6.29-7,4.35-11.34c-1.6-3.63-5.41-5.58-9.15-4.99l-0.16-1.31
				c6.12-0.66,12.06-1.95,17.74-3.81l0.42,1.27c-0.62,0.26-1.23,0.59-1.8,1.01C231.95,298.4,231.1,303.77,233.9,307.6z"/>
			<path fill="#FFFFFE" stroke="#000000" stroke-width="2" stroke-linecap="round" stroke-linejoin="round" d="M191.37,116.4c1.54,3.47,5.13,5.43,8.73,5.05l0.15,1.27c-5.98,0.67-11.77,1.94-17.32,3.77l-0.41-1.26
				c0.62-0.26,1.23-0.59,1.8-1c3.85-2.8,4.68-8.17,1.91-12c-2.24-3.07-6.14-4.23-9.56-3.14l-0.43-1.3c5.07-1.7,10.3-3.02,15.68-3.93
				c1.92-0.33,3.86-0.61,5.82-0.83l0.16,1.38c-0.74,0.12-1.48,0.33-2.19,0.65C191.37,106.97,189.43,112.06,191.37,116.4z"/>
			<path fill="#FFFFFE" stroke="#000000" stroke-width="2" stroke-linecap="round" stroke-linejoin="round" d="M253.69,300.52c2.92,2.64,7.17,2.88,10.34,0.85l0.68,1.14c-4.73,2.82-9.69,5.28-14.85,7.34
				c-1.96,0.79-3.95,1.52-5.97,2.19l-0.43-1.31c0.85-0.27,1.67-0.68,2.43-1.24c3.83-2.77,4.68-8.14,1.91-12
				c-2.38-3.26-6.62-4.37-10.19-2.9l-0.42-1.27c6.08-1.99,11.87-4.62,17.29-7.83l0.69,1.16c-0.78,0.45-1.51,1.02-2.14,1.72
				C249.86,291.89,250.14,297.35,253.69,300.52z"/>
			<path fill="#FFFFFE" stroke="#000000" stroke-width="2" stroke-linecap="round" stroke-linejoin="round" d="M120.67,207.92c0.28,0.88,0.42,1.77,0.42,2.65c0,3.62-2.3,7-5.94,8.18c-4.51,1.45-9.36-1-10.82-5.52
				c-0.29-0.89-0.43-1.78-0.43-2.67c0-3.62,2.32-6.99,5.94-8.16C114.35,200.95,119.18,203.4,120.67,207.92z"/>
			<path fill="#FFFFFE" stroke="#000000" stroke-width="2" stroke-linecap="round" stroke-linejoin="round" d="M266.65,230.43l2.71,0.97c-4.59,12.63-13.12,23.41-24.08,30.83l-2.3-1.88c0.28-0.17,0.56-0.35,0.83-0.55
				c5.45-3.97,6.65-11.63,2.68-17.08c-3.58-4.94-10.14-6.41-15.39-3.75l-2.35-1.32c5.56-3.77,9.94-9.16,12.44-15.48l2.19,0.69
				c-2.09,6.46,1.42,13.34,7.85,15.43C257.65,240.37,264.57,236.86,266.65,230.43z"/>
			<path fill="#FFFFFE" stroke="#000000" stroke-width="2" stroke-linecap="round" stroke-linejoin="round" d="M121.55,162.26c4.71,0.51,8.14,4.74,7.65,9.46c-0.09,0.83-0.29,1.61-0.59,2.34
				c-1.42,3.45-4.97,5.71-8.86,5.29c-4.71-0.49-8.14-4.72-7.62-9.43c0.08-0.83,0.28-1.62,0.58-2.35
				C114.11,164.12,117.67,161.86,121.55,162.26z"/>
			<path fill="#FFFFFE" stroke="#000000" stroke-width="2" stroke-linecap="round" stroke-linejoin="round" d="M138.71,263.12c1.89,2.89,1.92,6.78-0.25,9.77c-2.77,3.83-8.17,4.68-12,1.88
				c-0.72-0.52-1.33-1.14-1.84-1.81c-2.17-2.93-2.31-7.06-0.04-10.19c2.77-3.82,8.14-4.68,11.99-1.88
				C137.44,261.52,138.15,262.27,138.71,263.12z"/>
			<path fill="#FFFFFE" stroke="#000000" stroke-width="2" stroke-linecap="round" stroke-linejoin="round" d="M139.81,262.32c3.69,4.92,7.86,9.43,12.47,13.48l-0.92,1.04c-0.73-0.73-1.6-1.34-2.59-1.78
				c-4.34-1.94-9.43,0-11.34,4.34c-1.58,3.55-0.58,7.58,2.19,9.99l-0.85,0.96c-4.08-3.61-7.88-7.54-11.37-11.74
				c-1.33-1.59-2.61-3.22-3.84-4.89l1.06-0.76c0.51,0.67,1.12,1.29,1.84,1.81c3.83,2.8,9.23,1.95,12-1.88
				c2.17-2.99,2.14-6.88,0.25-9.77L139.81,262.32z"/>
			<path fill="#FFFFFE" stroke="#000000" stroke-width="2" stroke-linecap="round" stroke-linejoin="round" d="M246.49,242.72c3.97,5.45,2.77,13.11-2.68,17.08c-0.27,0.2-0.55,0.38-0.83,0.55
				c-5.41,3.29-12.51,1.95-16.28-3.26c-3.97-5.46-2.77-13.12,2.71-17.09c0.54-0.39,1.11-0.74,1.69-1.03
				C236.35,236.31,242.91,237.78,246.49,242.72z"/>
			<path fill="#FFFFFE" stroke="#000000" stroke-width="2" stroke-linecap="round" stroke-linejoin="round" d="M268.18,194.17c1.46,6.15-2.01,12.5-8.13,14.49c-6.42,2.09-13.33-1.43-15.42-7.86
				c-0.05-0.16-0.1-0.31-0.14-0.47c-1.77-6.29,1.73-12.92,8-14.96c6.42-2.08,13.33,1.43,15.42,7.86
				C268.01,193.54,268.1,193.86,268.18,194.17z"/>
			<path fill="#FFFFFE" stroke="#000000" stroke-width="2" stroke-linecap="round" stroke-linejoin="round" d="M236.22,126.17c-5.6-1.76-11.44-2.97-17.46-3.57l0.11-1.27c0.83,0.07,1.67,0.02,2.52-0.16
				c4.62-1,7.59-5.57,6.62-10.2c-0.82-3.78-4.01-6.46-7.68-6.78l0.13-1.36c5.5,0.53,10.89,1.48,16.12,2.82
				c2.02,0.51,4.01,1.08,5.98,1.71l-0.43,1.32c-0.8-0.25-1.66-0.39-2.55-0.39c-4.74,0-8.6,3.83-8.6,8.57c0,3.7,2.36,6.87,5.65,8.08
				L236.22,126.17z"/>
			<path fill="#FFFFFE" stroke="#000000" stroke-width="2" stroke-linecap="round" stroke-linejoin="round" d="M183.5,293.51c5.72,1.83,11.7,3.08,17.87,3.69l-0.11,1.31c-0.83-0.07-1.67-0.03-2.52,0.15
				c-4.65,1-7.59,5.54-6.62,10.2c0.82,3.77,3.98,6.44,7.64,6.76l-0.13,1.39c-7.76-0.75-15.27-2.33-22.46-4.66l0.43-1.32
				c0.92,0.34,1.91,0.52,2.95,0.52c4.71,0,8.57-3.86,8.57-8.58c0-3.85-2.55-7.12-6.03-8.21L183.5,293.51z"/>
			<path fill="#FFFFFE" stroke="#000000" stroke-width="2" stroke-linecap="round" stroke-linejoin="round" d="M195.8,257.86c0,6.74,5.51,12.26,12.25,12.26l-0.11,2.87c-13.84-0.45-26.58-5.41-36.79-13.45l1.92-2.11
				c5.45,3.97,13.11,2.74,17.08-2.71c3.96-5.46,2.77-13.12-2.72-17.09c-0.27-0.2-0.55-0.38-0.83-0.56l2.2-1.35
				c5.47,4.52,12.4,7.34,19.96,7.63l-0.08,2.3c-0.21-0.01-0.42-0.02-0.63-0.02C201.31,245.63,195.8,251.12,195.8,257.86z"/>
			<path fill="#FFFFFE" stroke="#000000" stroke-width="2" stroke-linecap="round" stroke-linejoin="round" d="M208.68,245.65c6.45,0.32,11.59,5.68,11.59,12.21c0,6.74-5.48,12.26-12.22,12.26
				c-6.74,0-12.25-5.52-12.25-12.26c0-6.74,5.51-12.23,12.25-12.23C208.26,245.63,208.47,245.64,208.68,245.65z"/>
			<path fill="#FFFFFE" stroke="#000000" stroke-width="2" stroke-linecap="round" stroke-linejoin="round" d="M260.05,116.63c-4.62-0.97-9.19,1.97-10.16,6.63c-0.84,3.88,1.11,7.71,4.48,9.44l-0.68,1.15
				c-5.48-3.16-11.33-5.75-17.47-7.68l0.41-1.23c0.92,0.33,1.91,0.52,2.95,0.52c4.74,0,8.59-3.86,8.59-8.6
				c0-3.85-2.54-7.1-6.04-8.18l0.43-1.32c7.11,2.26,13.9,5.25,20.28,8.87l-0.65,1.16C261.53,117.05,260.81,116.79,260.05,116.63z"/>
			<path fill="#FFFFFE" stroke="#000000" stroke-width="2" stroke-linecap="round" stroke-linejoin="round" d="M187.43,237.63c5.49,3.97,6.68,11.63,2.72,17.09c-3.97,5.45-11.63,6.68-17.08,2.71
				c-5.49-3.97-6.68-11.63-2.71-17.11c3.76-5.19,10.87-6.56,16.24-3.25C186.88,237.25,187.16,237.43,187.43,237.63z"/>
			<path fill="#FFFFFE" stroke="#000000" stroke-width="2" stroke-linecap="round" stroke-linejoin="round" d="M152.28,275.8c4.36,3.84,9.11,7.25,14.17,10.17l-0.69,1.16c-0.66-0.34-1.37-0.6-2.12-0.76
				c-4.65-0.97-9.19,1.98-10.19,6.63c-0.78,3.62,0.87,7.21,3.85,9.08l-0.66,1.17c-6.4-3.69-12.39-8.01-17.87-12.9l0.85-0.96
				c0.63,0.55,1.35,1.01,2.15,1.36c4.34,1.94,9.42-0.03,11.34-4.35c1.49-3.34,0.67-7.12-1.75-9.56L152.28,275.8z"/>
			<path fill="#FFFFFE" stroke="#000000" stroke-width="2" stroke-linecap="round" stroke-linejoin="round" d="M242.13,108.68c3.5,1.08,6.04,4.33,6.04,8.18c0,4.74-3.85,8.6-8.59,8.6c-1.04,0-2.03-0.19-2.95-0.52
				c-3.29-1.21-5.65-4.38-5.65-8.08c0-4.74,3.86-8.57,8.6-8.57C240.47,108.29,241.33,108.43,242.13,108.68z"/>
			<path fill="#FFFFFE" stroke="#000000" stroke-width="2" stroke-linecap="round" stroke-linejoin="round" d="M228.76,303.43c1.94,4.34,0,9.43-4.35,11.34c-0.85,0.38-1.74,0.61-2.62,0.7
				c-3.6,0.38-7.18-1.57-8.71-5.04c-1.94-4.34,0.03-9.43,4.34-11.34c0.71-0.32,1.45-0.53,2.19-0.65
				C223.35,297.85,227.16,299.8,228.76,303.43z"/>
			<path fill="#FFFFFE" stroke="#000000" stroke-width="2" stroke-linecap="round" stroke-linejoin="round" d="M258.8,215c6.42,2.09,9.93,9,7.85,15.43c-2.08,6.43-9,9.94-15.42,7.86c-6.43-2.09-9.94-8.97-7.85-15.43
				C245.46,216.43,252.37,212.92,258.8,215z"/>
			<path fill="#FFFFFE" stroke="#000000" stroke-width="2" stroke-linecap="round" stroke-linejoin="round" d="M212.08,174.2c6.77,0,12.25-5.48,12.25-12.25c0-6.75-5.48-12.23-12.25-12.23l0.11-2.88
				c14.37,0.48,27.55,5.81,37.95,14.4l-2.48,1.62c-0.19-0.16-0.39-0.31-0.6-0.46c-5.45-3.97-13.11-2.77-17.08,2.72
				c-3.97,5.45-2.77,13.11,2.69,17.08l-2.61,0.92c-5.16-3.86-11.46-6.27-18.29-6.62l0.07-2.31C211.92,174.2,212,174.2,212.08,174.2z
				"/>
			<path fill="#FFFFFE" stroke="#000000" stroke-width="2" stroke-linecap="round" stroke-linejoin="round" d="M199.86,161.95c0,6.69,5.35,12.12,11.98,12.24l-0.07,2.31c-0.57-0.03-1.14-0.04-1.72-0.04
				c-6.62,0-12.8,1.94-18,5.29l-2.16-1.37c0.28-0.17,0.56-0.35,0.83-0.55c5.45-3.97,6.68-11.63,2.71-17.08
				c-3.58-4.94-10.14-6.41-15.42-3.75l-1.91-2.23c9.81-6.31,21.47-9.97,33.95-9.97c0.72,0,1.43,0.01,2.14,0.04l-0.11,2.88
				C205.34,149.72,199.86,155.2,199.86,161.95z"/>
			<path fill="#FFFFFE" stroke="#000000" stroke-width="2" stroke-linecap="round" stroke-linejoin="round" d="M313.67,186.78c0.96,3.65-0.58,7.64-4.01,9.62c-4.11,2.37-9.37,0.97-11.74-3.14
				c-0.49-0.84-0.81-1.74-0.99-2.65c-0.69-3.5,0.87-7.21,4.13-9.09c4.11-2.37,9.37-0.95,11.74,3.17
				C313.19,185.36,313.48,186.07,313.67,186.78z"/>
			<path fill="#FFFFFE" stroke="#000000" stroke-width="2" stroke-linecap="round" stroke-linejoin="round" d="M236.22,126.17c6.14,1.93,11.99,4.52,17.47,7.68c5.06,2.92,9.79,6.32,14.15,10.16
				c4.61,4.05,8.8,8.58,12.48,13.51c3.78,5.06,7.03,10.54,9.66,16.35c2.45,5.4,4.37,11.1,5.68,17.01c1.33,5.94,2.04,12.1,2.08,18.41
				c0.01,0.21,0.01,0.42,0.01,0.63c0,6.09-0.63,12.04-1.82,17.78c-1.26,6.1-3.16,11.97-5.63,17.54c-2.44,5.52-5.43,10.74-8.9,15.6
				c-3.56,4.96-7.62,9.55-12.11,13.66c-4.53,4.16-9.49,7.85-14.81,10.99c-5.42,3.21-11.21,5.84-17.29,7.83
				c-5.68,1.86-11.62,3.15-17.74,3.81c-3.09,0.33-6.23,0.5-9.4,0.5c-2.93,0-5.83-0.14-8.68-0.43c-6.17-0.61-12.15-1.86-17.87-3.69
				c-5.99-1.91-11.7-4.45-17.05-7.54c-5.06-2.92-9.81-6.33-14.17-10.17c-4.61-4.05-8.78-8.56-12.47-13.48
				c-3.78-5.06-7.03-10.54-9.67-16.36c-2.45-5.41-4.36-11.1-5.67-17.03c-1.33-5.92-2.04-12.07-2.08-18.38
				c-0.01-0.21-0.01-0.42-0.01-0.63c0-6.09,0.63-12.04,1.82-17.79c1.26-6.1,3.16-11.97,5.63-17.54c2.44-5.53,5.43-10.76,8.91-15.61
				c3.65-5.11,7.83-9.8,12.47-14c4.41-4.02,9.24-7.6,14.41-10.64c5.42-3.23,11.22-5.87,17.31-7.85c5.55-1.83,11.34-3.1,17.32-3.77
				c3.22-0.36,6.49-0.55,9.8-0.55c2.94,0,5.84,0.15,8.71,0.43C224.78,123.2,230.62,124.41,236.22,126.17z M273.13,209.92
				c0-5.71-0.76-11.24-2.2-16.5c-3.46-12.78-10.86-23.97-20.79-32.18c-10.4-8.59-23.58-13.92-37.95-14.4
				c-0.71-0.03-1.42-0.04-2.14-0.04c-12.48,0-24.14,3.66-33.95,9.97c-11.58,7.43-20.59,18.55-25.36,31.67
				c-2.44,6.71-3.77,13.94-3.77,21.48c0,5.88,0.81,11.57,2.32,16.97c3.67,13.08,11.45,24.46,21.86,32.65
				c10.21,8.04,22.95,13,36.79,13.45c0.7,0.03,1.4,0.04,2.11,0.04c13.03,0,25.16-3.98,35.23-10.8c10.96-7.42,19.49-18.2,24.08-30.83
				C271.8,224.69,273.13,217.46,273.13,209.92z"/>
			<path fill="#FFFFFE" stroke="#000000" stroke-width="2" stroke-linecap="round" stroke-linejoin="round" d="M310.93,247.2c-0.71,1.89-1.46,3.76-2.28,5.6l-1.23-0.54c0.3-0.73,0.5-1.51,0.58-2.34
				c0.52-4.72-2.91-8.95-7.62-9.46c-3.91-0.4-7.47,1.86-8.87,5.31l-1.21-0.53c2.47-5.57,4.37-11.44,5.63-17.54l1.27,0.28
				c-0.16,0.8-0.2,1.63-0.11,2.48c0.52,4.71,4.74,8.14,9.46,7.66c3.85-0.43,6.83-3.32,7.52-6.94l1.36,0.26
				C314.33,236.85,312.81,242.11,310.93,247.2z"/>
			<path fill="#FFFFFE" stroke="#000000" stroke-width="2" stroke-linecap="round" stroke-linejoin="round" d="M210.05,191.95c9.91,0,17.96,8.05,17.96,17.97c0,9.88-8.05,17.97-17.96,17.97
				c-9.88,0-17.96-8.09-17.96-17.97C192.09,200,200.17,191.95,210.05,191.95z"/>
			<path fill="#FFFFFE" stroke="#000000" stroke-width="2" stroke-linecap="round" stroke-linejoin="round" d="M193.43,162.75c3.97,5.45,2.74,13.11-2.71,17.08c-0.27,0.2-0.55,0.38-0.83,0.55
				c-5.38,3.29-12.48,1.95-16.25-3.26c-4-5.46-2.77-13.12,2.68-17.09c0.54-0.4,1.11-0.74,1.69-1.03
				C183.29,156.34,189.85,157.81,193.43,162.75z"/>
			<path fill="#FFFFFE" stroke="#000000" stroke-width="2" stroke-linecap="round" stroke-linejoin="round" d="M207.05,109.4c1.91,4.35-0.03,9.43-4.34,11.35c-0.85,0.38-1.73,0.61-2.61,0.7
				c-3.6,0.38-7.19-1.58-8.73-5.05c-1.94-4.34,0-9.43,4.34-11.34c0.71-0.32,1.45-0.53,2.19-0.65
				C201.64,103.82,205.43,105.77,207.05,109.4z"/>
			<path fill="#FFFFFE" stroke="#000000" stroke-width="2" stroke-linecap="round" stroke-linejoin="round" d="M297.55,269.4c1.46-4.51-1-9.34-5.51-10.83c-3.6-1.16-7.41,0.19-9.55,3.07l-1.09-0.8
				c3.47-4.86,6.46-10.08,8.9-15.6l1.21,0.53c-0.3,0.73-0.5,1.52-0.59,2.35c-0.48,4.71,2.95,8.94,7.66,9.43
				c3.89,0.42,7.44-1.84,8.84-5.29l1.23,0.54c-3.06,7.03-6.86,13.67-11.3,19.83l-1.06-0.77
				C296.83,271.13,297.26,270.31,297.55,269.4z"/>
			<path fill="#FFFFFE" stroke="#000000" stroke-width="2" stroke-linecap="round" stroke-linejoin="round" d="M176.61,209.92c0,3.17,0.44,6.23,1.27,9.14l-2.24,0.44c-0.04-0.16-0.09-0.31-0.14-0.47
				c-2.09-6.43-9-9.94-15.43-7.86c-6.26,2.04-9.76,8.67-7.99,14.96l-2.79,0.76c-1.51-5.4-2.32-11.09-2.32-16.97
				c0-7.54,1.33-14.77,3.77-21.48l2.74,0.96c-2.12,6.43,1.43,13.32,7.85,15.4c6.43,2.12,13.31-1.43,15.42-7.85l2.18,0.72
				C177.43,201.47,176.61,205.6,176.61,209.92z"/>
			<path fill="#FFFFFE" stroke="#000000" stroke-width="2" stroke-linecap="round" stroke-linejoin="round" d="M292.04,258.57c4.51,1.49,6.97,6.32,5.51,10.83c-0.29,0.91-0.72,1.73-1.26,2.46
				c-2.14,2.9-5.96,4.24-9.56,3.06c-4.52-1.46-6.97-6.32-5.51-10.83c0.3-0.9,0.73-1.73,1.27-2.45
				C284.63,258.76,288.44,257.41,292.04,258.57z"/>
			<path fill="#FFFFFE" stroke="#000000" stroke-width="2" stroke-linecap="round" stroke-linejoin="round" d="M183.09,294.76c3.48,1.09,6.03,4.36,6.03,8.21c0,4.72-3.86,8.58-8.57,8.58c-1.04,0-2.03-0.18-2.95-0.52
				c-3.29-1.21-5.65-4.37-5.65-8.06c0-4.74,3.86-8.6,8.6-8.6C181.43,294.37,182.28,294.51,183.09,294.76z"/>
			<path fill="#FFFFFE" stroke="#000000" stroke-width="2" stroke-linecap="round" stroke-linejoin="round" d="M265.17,287.75c3.51,3.17,3.79,8.6,0.62,12.11c-0.53,0.59-1.13,1.1-1.76,1.51
				c-3.17,2.03-7.42,1.79-10.34-0.85c-3.55-3.17-3.83-8.63-0.66-12.15c0.63-0.7,1.36-1.27,2.14-1.72
				C258.31,284.88,262.35,285.21,265.17,287.75z"/>
			<path fill="#FFFFFE" stroke="#000000" stroke-width="2" stroke-linecap="round" stroke-linejoin="round" d="M171.95,302.97c0,3.69,2.36,6.85,5.65,8.06l-0.43,1.32c-5.08-1.63-10-3.64-14.72-6
				c-1.97-0.97-3.91-2.01-5.81-3.1l0.66-1.17c0.83,0.52,1.76,0.9,2.77,1.12c4.63,0.97,9.2-2,10.17-6.63
				c0.84-3.89-1.11-7.71-4.48-9.44l0.69-1.16c5.35,3.09,11.06,5.63,17.05,7.54l-0.41,1.25c-0.81-0.25-1.66-0.39-2.54-0.39
				C175.81,294.37,171.95,298.23,171.95,302.97z"/>
			<path fill="#FFFFFE" stroke="#000000" stroke-width="2" stroke-linecap="round" stroke-linejoin="round" d="M186.23,112.23c2.77,3.83,1.94,9.2-1.91,12c-0.57,0.41-1.18,0.74-1.8,1c-3.57,1.46-7.82,0.37-10.19-2.91
				c-2.77-3.83-1.95-9.2,1.91-12c0.76-0.55,1.58-0.96,2.43-1.23C180.09,108,183.99,109.16,186.23,112.23z"/>
			<path fill="#FFFFFE" stroke="#000000" stroke-width="2" stroke-linecap="round" stroke-linejoin="round" d="M296.55,146.11c3.22,4.35,6.12,8.96,8.66,13.78c1.07,2.01,2.07,4.06,3,6.14l-1.24,0.54
				c-0.37-0.98-0.91-1.9-1.65-2.71c-3.17-3.54-8.63-3.83-12.14-0.63c-2.9,2.62-3.6,6.77-1.98,10.12l-1.22,0.52
				c-2.63-5.81-5.88-11.29-9.66-16.35l1.1-0.81c0.56,0.85,1.27,1.61,2.14,2.24c3.85,2.8,9.22,1.94,11.99-1.89
				c2.27-3.13,2.13-7.26-0.04-10.19L296.55,146.11z"/>
			<path fill="#FFFFFE" stroke="#000000" stroke-width="2" stroke-linecap="round" stroke-linejoin="round" d="M208.91,305.29c1,4.63-1.97,9.2-6.6,10.17c-0.86,0.19-1.72,0.23-2.55,0.16
				c-3.66-0.32-6.82-2.99-7.64-6.76c-0.97-4.66,1.97-9.2,6.62-10.2c0.85-0.18,1.69-0.22,2.52-0.15
				C204.93,298.83,208.11,301.48,208.91,305.29z"/>
			<path fill="#FFFFFE" stroke="#000000" stroke-width="2" stroke-linecap="round" stroke-linejoin="round" d="M243.52,209.92c0-3.17-0.44-6.23-1.27-9.14l2.24-0.45c0.04,0.16,0.09,0.31,0.14,0.47
				c2.09,6.43,9,9.95,15.42,7.86c6.12-1.99,9.59-8.34,8.13-14.49l2.75-0.75c1.44,5.26,2.2,10.79,2.2,16.5
				c0,7.54-1.33,14.77-3.77,21.48l-2.71-0.97c2.08-6.43-1.43-13.34-7.85-15.43c-6.43-2.08-13.34,1.43-15.42,7.86l-2.19-0.69
				C242.69,218.37,243.52,214.24,243.52,209.92z"/>
			<path fill="#FFFFFE" stroke="#000000" stroke-width="2" stroke-linecap="round" stroke-linejoin="round" d="M242.25,200.78c0.83,2.91,1.27,5.97,1.27,9.14c0,4.32-0.83,8.45-2.33,12.25
				c-2.5,6.32-6.88,11.71-12.44,15.48c-5.34,3.61-11.78,5.72-18.7,5.72c-0.43,0-0.86-0.01-1.29-0.02
				c-7.56-0.29-14.49-3.11-19.96-7.63c-5.17-4.27-9.04-10.05-10.92-16.66c-0.83-2.91-1.27-5.97-1.27-9.14
				c0-4.32,0.82-8.45,2.32-12.25c2.61-6.58,7.24-12.15,13.12-15.92c5.2-3.35,11.38-5.29,18-5.29c0.58,0,1.15,0.01,1.72,0.04
				c6.83,0.35,13.13,2.76,18.29,6.62C235.86,187.46,240.21,193.64,242.25,200.78z M228.01,209.92c0-9.92-8.05-17.97-17.96-17.97
				c-9.88,0-17.96,8.05-17.96,17.97c0,9.88,8.08,17.97,17.96,17.97C219.96,227.89,228.01,219.8,228.01,209.92z"/>
			<path fill="#FFFFFE" stroke="#000000" stroke-width="2" stroke-linecap="round" stroke-linejoin="round" d="M262.19,117.39c3.38,1.73,5.3,5.54,4.49,9.44c-1,4.63-5.54,7.6-10.2,6.63c-0.75-0.16-1.46-0.42-2.11-0.76
				c-3.37-1.73-5.32-5.56-4.48-9.44c0.97-4.66,5.54-7.6,10.16-6.63C260.81,116.79,261.53,117.05,262.19,117.39z"/>
			<path fill="#FFFFFE" stroke="#000000" stroke-width="2" stroke-linecap="round" stroke-linejoin="round" d="M210.05,297.63c3.17,0,6.31-0.17,9.4-0.5l0.16,1.31c-0.74,0.12-1.48,0.33-2.19,0.65
				c-4.31,1.91-6.28,7-4.34,11.34c1.53,3.47,5.11,5.42,8.71,5.04l0.16,1.38c-3.91,0.45-7.88,0.67-11.9,0.67
				c-1.43,0-2.86-0.03-4.28-0.09c-2.06-0.08-4.11-0.22-6.14-0.42l0.13-1.39c0.83,0.07,1.69,0.03,2.55-0.16
				c4.63-0.97,7.6-5.54,6.6-10.17c-0.8-3.81-3.98-6.46-7.65-6.78l0.11-1.31C204.22,297.49,207.12,297.63,210.05,297.63z"/>
			<path fill="#FFFFFE" stroke="#000000" stroke-width="2" stroke-linecap="round" stroke-linejoin="round" d="M166.44,119.32c3.54,3.17,3.83,8.6,0.63,12.14c-0.63,0.71-1.36,1.28-2.14,1.72
				c-3.13,1.77-7.16,1.44-9.97-1.09c-3.54-3.17-3.82-8.6-0.63-12.14c0.53-0.59,1.12-1.09,1.75-1.49
				C159.26,116.43,163.52,116.68,166.44,119.32z"/>
			<path fill="#FFFFFE" stroke="#000000" stroke-width="2" stroke-linecap="round" stroke-linejoin="round" d="M316.22,209.25c0,3.63-2.3,6.99-5.93,8.18c-4.52,1.46-9.37-1-10.83-5.51c-0.28-0.88-0.42-1.77-0.42-2.65
				c0-3.63,2.3-7,5.94-8.18c4.51-1.49,9.36,1,10.82,5.51C316.08,207.48,316.22,208.37,316.22,209.25z"/>
			<path fill="#FFFFFE" stroke="#000000" stroke-width="2" stroke-linecap="round" stroke-linejoin="round" d="M154.96,132.09c2.81,2.53,6.84,2.86,9.97,1.09l0.69,1.16c-5.17,3.04-10,6.62-14.41,10.64l-0.92-1.03
				c0.54-0.53,1.02-1.14,1.42-1.83c2.37-4.12,0.97-9.37-3.14-11.75c-3.23-1.87-7.19-1.39-9.88,0.93l-0.89-0.95
				c3.94-3.59,8.16-6.89,12.6-9.87c1.63-1.1,3.3-2.16,5-3.16l0.68,1.14c-0.63,0.4-1.22,0.9-1.75,1.49
				C151.14,123.49,151.42,128.92,154.96,132.09z"/>
			<path fill="#FFFFFE" stroke="#000000" stroke-width="2" stroke-linecap="round" stroke-linejoin="round" d="M152.22,226.6c2.09,6.43,9,9.95,15.42,7.86c6.27-2.04,9.77-8.67,8-14.96l2.24-0.44
				c1.88,6.61,5.75,12.39,10.92,16.66l-2.2,1.35c-5.37-3.31-12.48-1.94-16.24,3.25c-3.97,5.48-2.78,13.14,2.71,17.11l-1.92,2.11
				c-10.41-8.19-18.19-19.57-21.86-32.65l2.79-0.76C152.12,226.29,152.17,226.44,152.22,226.6z"/>
			<path fill="#FFFFFE" stroke="#000000" stroke-width="2" stroke-linecap="round" stroke-linejoin="round" d="M283.27,286.32c2.37-4.12,0.97-9.37-3.14-11.75c-3.25-1.87-7.22-1.39-9.91,0.93l-0.93-1
				c4.49-4.11,8.55-8.7,12.11-13.66l1.09,0.8c-0.54,0.72-0.97,1.55-1.27,2.45c-1.46,4.51,0.99,9.37,5.51,10.83
				c3.6,1.18,7.42-0.16,9.56-3.06l1.06,0.77c-3.14,4.37-6.6,8.49-10.37,12.34c-1.5,1.55-3.06,3.06-4.66,4.52l-0.88-0.95
				C282.15,287.92,282.77,287.18,283.27,286.32z"/>
			<path fill="#FFFFFE" stroke="#000000" stroke-width="2" stroke-linecap="round" stroke-linejoin="round" d="M217.82,104.35c-4.63,1-7.6,5.57-6.63,10.2c0.82,3.78,4.01,6.46,7.68,6.78l-0.11,1.27
				c-2.87-0.28-5.77-0.43-8.71-0.43c-3.31,0-6.58,0.19-9.8,0.55l-0.15-1.27c0.88-0.09,1.76-0.32,2.61-0.7
				c4.31-1.92,6.25-7,4.34-11.35c-1.62-3.63-5.41-5.58-9.15-4.99l-0.16-1.38c4.04-0.47,8.15-0.71,12.31-0.71
				c3.51,0,6.98,0.17,10.41,0.51l-0.13,1.36C219.51,104.12,218.67,104.17,217.82,104.35z"/>
			<path fill="#FFFFFE" stroke="#000000" stroke-width="2" stroke-linecap="round" stroke-linejoin="round" d="M247.66,162.86c4.94,4.08,5.93,11.38,2.11,16.63c-3.97,5.48-11.62,6.68-17.1,2.71
				c-5.46-3.97-6.66-11.63-2.69-17.08c3.97-5.49,11.63-6.69,17.08-2.72C247.27,162.55,247.47,162.7,247.66,162.86z"/>
			<path fill="#FFFFFE" stroke="#000000" stroke-width="2" stroke-linecap="round" stroke-linejoin="round" d="M151.36,276.84c2.42,2.44,3.24,6.22,1.75,9.56c-1.92,4.32-7,6.29-11.34,4.35
				c-0.8-0.35-1.52-0.81-2.15-1.36c-2.77-2.41-3.77-6.44-2.19-9.99c1.91-4.34,7-6.28,11.34-4.34
				C149.76,275.5,150.63,276.11,151.36,276.84z"/>
			<path fill="#FFFFFE" stroke="#000000" stroke-width="2" stroke-linecap="round" stroke-linejoin="round" d="M122.39,210.55c0.04,6.31,0.75,12.46,2.08,18.38l-1.27,0.27c-0.18-0.9-0.5-1.79-0.99-2.63
				c-2.37-4.11-7.63-5.54-11.74-3.14c-3.26,1.88-4.82,5.57-4.13,9.07l-1.35,0.29c-1.57-7.17-2.41-14.6-2.45-22.21l1.36-0.02
				c0,0.89,0.14,1.78,0.43,2.67c1.46,4.52,6.31,6.97,10.82,5.52c3.64-1.18,5.94-4.56,5.94-8.18L122.39,210.55z"/>
			<path fill="#FFFFFE" stroke="#000000" stroke-width="2" stroke-linecap="round" stroke-linejoin="round" d="M228.01,110.97c0.97,4.63-2,9.2-6.62,10.2c-0.85,0.18-1.69,0.23-2.52,0.16c-3.67-0.32-6.86-3-7.68-6.78
				c-0.97-4.63,2-9.2,6.63-10.2c0.85-0.18,1.69-0.23,2.51-0.16C224,104.51,227.19,107.19,228.01,110.97z"/>
			<path fill="#FFFFFE" stroke="#000000" stroke-width="2" stroke-linecap="round" stroke-linejoin="round" d="M280.13,274.57c4.11,2.38,5.51,7.63,3.14,11.75c-0.5,0.86-1.12,1.6-1.83,2.22
				c-2.69,2.31-6.65,2.79-9.91,0.92c-4.08-2.37-5.51-7.63-3.14-11.74c0.5-0.86,1.12-1.61,1.83-2.22
				C272.91,273.18,276.88,272.7,280.13,274.57z"/>
			<path fill="#FFFFFE" stroke="#000000" stroke-width="2" stroke-linecap="round" stroke-linejoin="round" d="M306.97,166.57c1.21,3.2,0.41,6.97-2.31,9.4c-3.51,3.2-8.94,2.92-12.11-0.62c-0.55-0.62-1-1.29-1.35-2
				c-1.62-3.35-0.92-7.5,1.98-10.12c3.51-3.2,8.97-2.91,12.14,0.63C306.06,164.67,306.6,165.59,306.97,166.57z"/>
			<path fill="#FFFFFE" stroke="#000000" stroke-width="2" stroke-linecap="round" stroke-linejoin="round" d="M276.62,125.52c1.62,1.27,3.19,2.59,4.73,3.97l-0.85,0.96c-0.63-0.55-1.34-1.01-2.14-1.36
				c-4.34-1.94-9.42,0-11.34,4.34c-1.49,3.34-0.69,7.11,1.74,9.55l-0.92,1.03c-4.36-3.84-9.09-7.24-14.15-10.16l0.68-1.15
				c0.65,0.34,1.36,0.6,2.11,0.76c4.66,0.97,9.2-2,10.2-6.63c0.81-3.9-1.11-7.71-4.49-9.44l0.65-1.16
				C267.68,118.98,272.28,122.08,276.62,125.52z"/>
			<path fill="#FFFFFE" stroke="#000000" stroke-width="2" stroke-linecap="round" stroke-linejoin="round" d="M192.05,181.75c-5.88,3.77-10.51,9.34-13.12,15.92l-2.18-0.72c2.09-6.43-1.45-13.32-7.88-15.43
				c-6.43-2.09-13.31,1.43-15.39,7.88l-2.74-0.96c4.77-13.12,13.78-24.24,25.36-31.67l1.91,2.23c-0.58,0.29-1.15,0.63-1.69,1.03
				c-5.45,3.97-6.68,11.63-2.68,17.09c3.77,5.21,10.87,6.55,16.25,3.26L192.05,181.75z"/>
			<path fill="#FFFFFE" stroke="#000000" stroke-width="2" stroke-linecap="round" stroke-linejoin="round" d="M300.38,240.46c4.71,0.51,8.14,4.74,7.62,9.46c-0.08,0.83-0.28,1.61-0.58,2.34
				c-1.4,3.45-4.95,5.71-8.84,5.29c-4.71-0.49-8.14-4.72-7.66-9.43c0.09-0.83,0.29-1.62,0.59-2.35
				C292.91,242.32,296.47,240.06,300.38,240.46z"/>
			<path fill="#FFFFFE" stroke="#000000" stroke-width="2" stroke-linecap="round" stroke-linejoin="round" d="M128.93,246.48c1.62,3.35,0.92,7.5-1.98,10.12c-3.54,3.17-8.97,2.89-12.14-0.63
				c-0.74-0.82-1.29-1.74-1.65-2.71c-1.21-3.22-0.41-7,2.28-9.43c3.54-3.17,8.97-2.88,12.14,0.66
				C128.14,245.1,128.58,245.77,128.93,246.48z"/>
			<path fill="#FFFFFE" stroke="#000000" stroke-width="2" stroke-linecap="round" stroke-linejoin="round" d="M268.39,277.72c-2.37,4.11-0.94,9.37,3.14,11.74c3.26,1.87,7.22,1.39,9.91-0.92l0.88,0.95
				c-5.4,4.91-11.3,9.28-17.61,13.02l-0.68-1.14c0.63-0.41,1.23-0.92,1.76-1.51c3.17-3.51,2.89-8.94-0.62-12.11
				c-2.82-2.54-6.86-2.87-10-1.1l-0.69-1.16c5.32-3.14,10.28-6.83,14.81-10.99l0.93,1C269.51,276.11,268.89,276.86,268.39,277.72z"
				/>
			<path fill="#FFFFFE" stroke="#000000" stroke-width="2" stroke-linecap="round" stroke-linejoin="round" d="M280.5,130.45c2.76,2.4,3.78,6.44,2.2,9.98c-1.91,4.32-7,6.29-11.34,4.34c-1-0.45-1.87-1.06-2.6-1.79
				c-2.43-2.44-3.23-6.21-1.74-9.55c1.92-4.34,7-6.28,11.34-4.34C279.16,129.44,279.87,129.9,280.5,130.45z"/>
			<path fill="#FFFFFE" stroke="#000000" stroke-width="2" stroke-linecap="round" stroke-linejoin="round" d="M242.25,200.78c-2.04-7.14-6.39-13.32-12.19-17.66l2.61-0.92c5.48,3.97,13.13,2.77,17.1-2.71
				c3.82-5.25,2.83-12.55-2.11-16.63l2.48-1.62c9.93,8.21,17.33,19.4,20.79,32.18l-2.75,0.75c-0.08-0.31-0.17-0.63-0.27-0.94
				c-2.09-6.43-9-9.94-15.42-7.86c-6.27,2.04-9.77,8.67-8,14.96L242.25,200.78z"/>
			<path fill="#FFFFFE" stroke="#000000" stroke-width="2" stroke-linecap="round" stroke-linejoin="round" d="M138.74,158.98c-3.48,4.85-6.47,10.08-8.91,15.61l-1.22-0.53c0.3-0.73,0.5-1.51,0.59-2.34
				c0.49-4.72-2.94-8.95-7.65-9.46c-3.88-0.4-7.44,1.86-8.84,5.31l-1.24-0.54c2.21-5.06,4.79-9.92,7.73-14.54
				c1.14-1.81,2.34-3.58,3.59-5.31l1.06,0.77c-0.54,0.73-0.97,1.55-1.27,2.45c-1.49,4.52,1,9.37,5.51,10.83
				c3.6,1.19,7.41-0.16,9.55-3.05L138.74,158.98z"/>
			<path fill="#FFFFFE" stroke="#000000" stroke-width="2" stroke-linecap="round" stroke-linejoin="round" d="M220.27,257.86c0-6.53-5.14-11.89-11.59-12.21l0.08-2.3c0.43,0.01,0.86,0.02,1.29,0.02
				c6.92,0,13.36-2.11,18.7-5.72l2.35,1.32c-0.58,0.29-1.15,0.64-1.69,1.03c-5.48,3.97-6.68,11.63-2.71,17.09
				c3.77,5.21,10.87,6.55,16.28,3.26l2.3,1.88c-10.07,6.82-22.2,10.8-35.23,10.8c-0.71,0-1.41-0.01-2.11-0.04l0.11-2.87
				C214.79,270.12,220.27,264.6,220.27,257.86z"/>
			<path fill="#FFFFFE" stroke="#000000" stroke-width="2" stroke-linecap="round" stroke-linejoin="round" d="M124.47,228.93c1.31,5.93,3.22,11.62,5.67,17.03l-1.21,0.52c-0.35-0.71-0.79-1.38-1.35-1.99
				c-3.17-3.54-8.6-3.83-12.14-0.66c-2.69,2.43-3.49,6.21-2.28,9.43l-1.25,0.55c-2.13-4.75-3.93-9.68-5.36-14.75
				c-0.59-2.07-1.11-4.16-1.56-6.27l1.35-0.29c0.18,0.9,0.5,1.8,0.99,2.65c2.37,4.11,7.62,5.51,11.74,3.14
				c3.24-1.88,4.81-5.59,4.13-9.09L124.47,228.93z"/>
			<path fill="#FFFFFE" stroke="#000000" stroke-width="2" stroke-linecap="round" stroke-linejoin="round" d="M148.57,130.37c4.11,2.38,5.51,7.63,3.14,11.75c-0.4,0.69-0.88,1.3-1.42,1.83
				c-2.68,2.62-6.9,3.28-10.29,1.31c-4.11-2.37-5.51-7.63-3.14-11.74c0.5-0.86,1.12-1.61,1.83-2.22
				C141.38,128.98,145.34,128.5,148.57,130.37z"/>
			<path fill="#FFFFFE" stroke="#000000" stroke-width="2" stroke-linecap="round" stroke-linejoin="round" d="M247.8,297.49c2.77,3.86,1.92,9.23-1.91,12c-0.76,0.56-1.58,0.97-2.43,1.24
				c-3.43,1.1-7.32-0.06-9.56-3.13c-2.8-3.83-1.95-9.2,1.91-12c0.57-0.42,1.18-0.75,1.8-1.01
				C241.18,293.12,245.42,294.23,247.8,297.49z"/>
			<path fill="#FFFFFE" stroke="#000000" stroke-width="2" stroke-linecap="round" stroke-linejoin="round" d="M136.86,133.52c-2.37,4.11-0.97,9.37,3.14,11.74c3.39,1.97,7.61,1.31,10.29-1.31l0.92,1.03
				c-4.64,4.2-8.82,8.89-12.47,14l-1.1-0.8c0.54-0.73,0.97-1.55,1.27-2.46c1.46-4.52-1-9.35-5.51-10.83
				c-3.6-1.17-7.42,0.19-9.55,3.06l-1.06-0.77c4.4-6.12,9.44-11.76,15.01-16.83l0.89,0.95
				C137.98,131.91,137.36,132.66,136.86,133.52z"/>
			<path fill="#FFFFFE" stroke="#000000" stroke-width="2" stroke-linecap="round" stroke-linejoin="round" d="M165.76,287.13c3.37,1.73,5.32,5.55,4.48,9.44c-0.97,4.63-5.54,7.6-10.17,6.63
				c-1.01-0.22-1.94-0.6-2.77-1.12c-2.98-1.87-4.63-5.46-3.85-9.08c1-4.65,5.54-7.6,10.19-6.63
				C164.39,286.53,165.1,286.79,165.76,287.13z"/>
			<path fill="#FFFFFE" stroke="#000000" stroke-width="2" stroke-linecap="round" stroke-linejoin="round" d="M77.52,282.29c0.29,10.3,0.02,23.45-5.94,36.97c-9.66-8.03-35.33-23.29-49.64-15.57
				c18.54-10.66,24.96-27.83,20.62-44C55.81,263.48,69.04,275.23,77.52,282.29z"/>
			<path fill="#FFFFFE" stroke="#000000" stroke-width="2" stroke-linecap="round" stroke-linejoin="round" d="M118.41,329.97c4.46,9.29,9.55,21.42,9.58,36.2c-12.09-3.42-41.74-6.91-51.67,5.95
				c12.59-17.26,11.5-35.56,0.95-48.56C90.91,321.62,107.79,326.98,118.41,329.97z"/>
			<path fill="#FFFFFE" stroke="#000000" stroke-width="2" stroke-linecap="round" stroke-linejoin="round" d="M175.15,356.89c7.83,6.69,17.43,15.68,23.46,29.17c-12.44,1.81-40.93,10.67-44.76,26.46
				c4.48-20.89-3.97-37.17-18.91-44.75C146.62,360.45,164.2,358.47,175.15,356.89z"/>
			<path fill="#FFFFFE" stroke="#000000" stroke-width="2" stroke-linecap="round" stroke-linejoin="round" d="M237.92,358.4c9.86,2.91,22.29,7.22,33.29,17.1c-10.62,6.68-33.06,26.39-30.15,42.39
				c-4.39-20.92-18.73-32.34-35.44-33.2C213.31,373.25,228.57,364.3,237.92,358.4z"/>
			<path fill="#FFFFFE" stroke="#000000" stroke-width="2" stroke-linecap="round" stroke-linejoin="round" d="M333.24,336.3c-6.97,10.44-19.47,37.56-10.3,50.99c-12.51-17.32-30.27-21.92-45.89-15.92
				c2.38-13.57,12.67-27.95,18.81-37.14C306.07,332.87,319.18,331.76,333.24,336.3z"/>
			<path fill="#FFFFFE" stroke="#000000" stroke-width="2" stroke-linecap="round" stroke-linejoin="round" d="M373.97,275.25c-2.14,12.38-2.5,42.24,11.31,50.78c-18.44-10.74-36.55-7.71-48.37,4.13
				c-3.35-13.38,0.21-30.71,2.08-41.61C347.76,283.16,359.27,276.81,373.97,275.25z"/>
			<path fill="#FFFFFE" stroke="#000000" stroke-width="2" stroke-linecap="round" stroke-linejoin="round" d="M417.35,244.69c-21.25-2.29-36.53,7.83-42.52,23.46c-8.51-10.86-12.31-28.14-15.02-38.86
				c5.81-8.49,13.76-18.97,26.55-26.4C389.42,215.06,401.24,242.52,417.35,244.69z"/>
			<path fill="#FFFFFE" stroke="#000000" stroke-width="2" stroke-linecap="round" stroke-linejoin="round" d="M368.26,131.77c7.74,9.83,29.7,30.12,45.29,25.55c-20.33,6.57-30.19,22.03-29.3,38.74
				c-12.17-6.45-22.67-20.68-29.5-29.37C356.62,156.56,359.59,143.75,368.26,131.77z"/>
			<path fill="#FFFFFE" stroke="#000000" stroke-width="2" stroke-linecap="round" stroke-linejoin="round" d="M363.57,126.37L363.57,126.37c-13.76-0.94-29.14-9.68-38.92-14.82c-2.42-10.01-4.89-22.92-1.84-37.39
				c11.12,5.85,39.4,15.4,51.76,4.9C358.69,93.32,355.95,111.46,363.57,126.37z"/>
			<path fill="#FFFFFE" stroke="#000000" stroke-width="2" stroke-linecap="round" stroke-linejoin="round" d="M257.87,40c12.51,0.83,42.25-1.91,49.3-16.57c-8.73,19.48-3.86,37.15,9.15,47.7
				c-12.94,4.74-30.53,3.01-41.56,2.3C268.48,65.26,260.97,54.45,257.87,40z"/>
			<path fill="#FFFFFE" stroke="#000000" stroke-width="2" stroke-linecap="round" stroke-linejoin="round" d="M250.74,39.89c-9.9,9.59-26.69,15.18-37.06,19c-9.07-4.9-20.32-11.71-29.03-23.66h0.01
				c11.77-4.31,37.81-18.94,38.3-35.2C222.9,21.4,234.55,35.57,250.74,39.89z"/>
			<path fill="#FFFFFE" stroke="#000000" stroke-width="2" stroke-linecap="round" stroke-linejoin="round" d="M178.09,38.03h0.01c-5.14,12.79-18.21,24.73-26.14,32.46c-10.27-0.8-23.3-2.44-36.12-9.8
				c8.99-8.74,26.84-32.72,20.67-47.74C145.17,32.46,161.56,40.66,178.09,38.03z"/>
			<path fill="#FFFFFE" stroke="#000000" stroke-width="2" stroke-linecap="round" stroke-linejoin="round" d="M110.97,65.93c0.5,13.77-6.58,29.99-10.67,40.24c-9.72,3.45-22.29,7.26-36.98,5.75
				c4.66-11.63,11.23-40.8-0.51-52.03C78.63,74.23,96.95,75.03,110.97,65.93z"/>
			<path fill="#FFFFFE" stroke="#000000" stroke-width="2" stroke-linecap="round" stroke-linejoin="round" d="M61,118.68c6.05,12.39,6.17,30.08,6.61,41.12c-7.47,7.1-17.4,15.71-31.45,20.31
				c-0.48-12.56-6.34-41.85-21.61-47.31C34.81,139.43,51.88,132.73,61,118.68z"/>
			<path fill="#FFFFFE" stroke="#000000" stroke-width="2" stroke-linecap="round" stroke-linejoin="round" d="M36.8,187.22c10.56,8.86,17.86,24.98,22.75,34.87c-3.92,9.55-9.51,21.45-20.47,31.37
				C33.54,242.2,16.29,217.8,0.1,219.03C21.34,216.83,34.19,203.77,36.8,187.22L36.8,187.22z"/>
		</g>
	</g>
</g>
</svg>
