<?xml version="1.0" encoding="utf-8"?>
<svg baseprofile="tiny" height="501px" id="layer_1" version="1.1" viewBox="0 0 501 501" width="501px" x="0px" xmlns="http://www.w3.org/2000/svg" y="0px" xml:space="preserve">
<title>14</title>
    <!--左上-->
<path d="M90,160.5a89.89,89.89,0,0,1,73.9,38.63,100.49,100.49,0,0,1,35-35.07A90,90,0,0,1,250,0C111.93,0,0,111.93,0,250c0,0.08,0,.17,0,0.25A90,90,0,0,1,90,160.5Z" fill="#ffffff" stroke="#000000" />
    <!--右上-->
<path d="M340,90a89.89,89.89,0,0,1-38.86,74.06,100.49,100.49,0,0,1,35,35.07A90,90,0,0,1,500,250.25c0-.08,0-0.17,0-0.25C500,111.93,388.07,0,250,0A90,90,0,0,1,340,90Z" fill="#ffffff" stroke="#000000"/>
    <!--左下-->
<path d="M160,410a89.89,89.89,0,0,1,38.86-74.06,100.5,100.5,0,0,1-34.64-34.53A90,90,0,0,1,0,253.07C1.69,389.73,113,500,250,500A90,90,0,0,1,160,410Z" fill="#ffffff" stroke="#000000"/>
    <!--右下-->
<path d="M410,340.5a89.9,89.9,0,0,1-74.22-39.09,100.5,100.5,0,0,1-34.64,34.53A90,90,0,0,1,250,500c137,0,248.31-110.27,250-246.93A90,90,0,0,1,410,340.5Z" fill="#ffffff" stroke="#000000"/>
    <!--右-->
<circle cx="410.5" cy="251" fill="#ffffff" r="90" stroke="#000000"/>
    <!--上-->
<circle cx="250.5" cy="90.5" fill="#ffffff" r="90" stroke="#000000"/>
    <!--左-->
<circle cx="90.5" cy="251" fill="#ffffff" r="90" stroke="#000000"/>
    <!--下-->
<circle cx="250.5" cy="410.5" fill="#ffffff" r="90" stroke="#000000"/>
    <!--中-->
<circle cx="250.5" cy="250.5" fill="#ffffff" r="100" stroke="#000000"/>
</svg>