<?xml version="1.0" encoding="utf-8"?>
<!-- Generator: Adobe Illustrator 13.0.0, SVG Export Plug-In . SVG Version: 6.00 Build 14948)  -->
<svg version="1.2" baseProfile="tiny" id="Layer_1" xmlns="http://www.w3.org/2000/svg" xmlns:xlink="http://www.w3.org/1999/xlink"
	 x="0px" y="0px" width="494.29px" height="498.05px" viewBox="0 0 494.29 498.05" xml:space="preserve">
<g id="XMLID_1_">
	<g>	
		<path fill="#FFFFFE" stroke="#000000" stroke-width="2" stroke-linecap="round" stroke-linejoin="round" d="M474.03,259.66c2.53,1.91,1.84,3.22,0.64,4l-23.3-0.44l4.54,20.95c1.55,6.24-2.06,5.53-3.48,3.42
			l-10.61-22.65l-22.07,10.37c-2.26,0.81-2.04-1.43,0.34-3.54l17.73-14.4l-12.67-20.28c-1.2-1.18,0.1-3.74,2.28-2.63l17.61,14.44
			l12.42-18.03c2.46-2.68,2.8,0.1,1.92,1.7l-6.58,21.37L474.03,259.66z"/>
		<path fill="#FFFFFE" stroke="#000000" stroke-width="2" stroke-linecap="round" stroke-linejoin="round" d="M456.33,156.81c3.12,0.62,4.42,2.46,2.04,2.88l-24.28,2.06l2.13,24.93c-0.17,2.53-2.94,4.96-4.71-1.23
			l-6.55-20.41L405,177.08c-1.43-0.08-2.68-0.86-1.45-3.79l15.54-15.57l-16.38-15.23c-1.57-0.93-2.65-3.51,0.81-2.4l19.77,9.38
			l8.05-21.3c1.32-2.06,3.73-0.51,3.26,1.13l-0.81,23.9L456.33,156.81z"/>
		<path fill="#FFFFFE" stroke="#000000" stroke-width="2" stroke-linecap="round" stroke-linejoin="round" d="M443.83,344.13c2.46,0.1,2.31,2.97,0.67,3.39l-21.09,11.25l8.15,21.35c1.01,2.99,0.07,5.06-1.47,3.22
			l-13.95-20.02l-20.5,14.32c-2.28,1.1-5.77-0.1-1.3-4.72l14.39-15.87l-20.41-11.27c-0.63-1.3-0.58-2.75,2.56-3.17l21.26,5.67
			l4.98-21.78c0.03-1.85,1.72-4.08,2.51-0.5l1.74,21.79L443.83,344.13z"/>
		<path fill="#FFFFFE" stroke="#000000" stroke-width="2" stroke-linecap="round" stroke-linejoin="round" d="M247.13,2.01c135.03,0,245.14,110.96,245.14,247.01c0,136.03-110.11,247.01-245.14,247.01
			c-135.01,0-245.12-110.98-245.12-247.01C2.01,112.97,112.12,2.01,247.13,2.01z M479.7,249.02
			c0-129.08-104.46-234.33-232.57-234.33c-128.08,0-232.55,105.25-232.55,234.33c0,129.06,104.47,234.34,232.55,234.34
			C375.24,483.36,479.7,378.08,479.7,249.02z"/>
		<path fill="#FFFFFE" stroke="#000000" stroke-width="2" stroke-linecap="round" stroke-linejoin="round" d="M418.87,237.11c0.27,3.02,0.05,6.88-0.91,11.18c-0.96,4.32-2.63,9.06-4.1,12.52
			c-1.48,3.44-2.75,5.58-4.67,7.27c-1.94,1.7-4.51,2.98-7.14,4.08c-2.63,1.11-5.3,2.07-9.33,2.78c-4.03,0.73-9.43,1.23-16.18,1.5
			s-14.85,0.31-21.73-0.1c-6.85-0.45-12.47-1.35-18.58-2.19c-6.09-0.83-12.65-1.6-18.42-3.68c-5.74-2.09-10.68-5.51-16.37-10.54
			c-5.67-5.06-12.13-11.77-16.38-15.11c-4.27-3.34-6.33-3.29-7.93-1.42c-1.59,1.86-2.67,5.52-2.67,9.58c0,4.05,1.08,8.5,4.44,14.05
			c3.36,5.52,8.96,12.13,17.73,20.24c8.74,8.08,20.59,17.63,29.14,24.83c8.54,7.17,13.75,11.99,18.31,17.76
			c4.54,5.8,8.45,12.55,10.49,18.74c2.03,6.17,2.21,11.79,0.51,18.2c-1.69,6.44-5.28,13.64-8.84,19.09
			c-3.56,5.48-7.07,9.19-10.14,11.81c-3.06,2.66-5.67,4.2-7.68,4.35c-1,0.09-1.86-0.2-2.6-0.59l-1.5-1.5
			c-0.68-0.28-1.24-0.43-1.71-0.48c-0.01,0-0.01,0-0.01,0c-0.45-0.16-0.81-0.17-1.1-0.01c-0.14,0.08-0.26,0.21-0.36,0.36v0.01
			c-0.42,0.36-0.59,0.94-0.63,1.57l0.75,1.25c0.14,0.58,0.15,1.15-0.38,1.68c-0.88,0.88-3.26,1.62-5.82,2.18
			c-2.55,0.57-5.25,0.98-7.46,0.71c-2.18-0.27-3.88-1.22-3.68-3.26c0.17-2.04,2.21-5.18,5.13-8.45c2.92-3.29,6.73-6.73,10.31-11.84
			c3.58-5.11,6.92-11.87,8.03-17.74c1.08-5.87-0.1-10.85-3-16.13c-2.89-5.29-7.51-10.86-12.76-16.61
			c-5.23-5.75-11.08-11.69-16.89-17.95c-5.82-6.27-11.62-12.83-16.18-19.75c-4.55-6.91-7.86-14.15-10.34-17.22
			c-2.46-3.05-4.1-1.92-5.89,0.83c-1.77,2.78-3.73,7.18-5.8,13.22c-2.06,6.07-4.22,13.75-5.74,21.76
			c-1.52,8.01-2.38,16.31-1.79,22.87c0.59,6.58,2.62,11.42,4.2,15.11c1.59,3.68,2.7,6.19,2.67,8.2c-0.01,0.91-0.27,1.71-0.66,2.51
			c-1.6,1.99-3.21,4.64-4.53,7.43c-0.36,0.5-0.71,0.9-1.04,1.14c-1.11,0.81-2.02-0.22-3.29-1.8c-1.31-1.59-2.98-3.7-5.09-8.79
			c-2.11-5.08-4.64-13.09-5.62-20.76c-0.96-7.66-0.37-14.95,0.96-22.94c1.35-7.98,3.44-16.63,5.03-27.16
			c1.62-10.52,2.75-22.87,2.78-29.82c0.02-6.93-1.08-8.43-3.44-6.61c-2.36,1.82-5.97,6.93-11.17,14
			c-5.18,7.07-11.93,16.09-17.78,24.86c-5.84,8.77-10.78,17.29-13.72,24.29c-2.95,7.03-3.9,12.5-4.13,17.83
			c-0.22,5.33,0.27,10.49,2.34,15.38c2.06,4.91,5.69,9.53,10.11,14.57c4.44,5.03,9.7,10.46,12.84,14.39
			c3.12,3.91,4.13,6.31,3.83,8.11c-0.29,1.79-1.89,2.97-4.52,3.8c-2.62,0.84-6.31,1.33-10.11,0.45c-3.83-0.91-7.83-3.25-12.42-7.35
			c-4.59-4.1-9.82-9.97-13.33-17.44c-3.52-7.47-5.33-16.48-5.9-25.08c-0.56-8.57,0.13-16.75,3.02-25.13
			c2.9-8.37,8.03-16.99,14.54-25.89c6.53-8.86,14.46-18.02,20.94-26.5c6.48-8.47,11.51-16.28,13.85-20.56
			c2.33-4.3,1.96-5.06,0.09-3.73c-1.89,1.35-5.27,4.79-11.19,10.61c-5.92,5.82-14.34,14.03-23.2,22.47
			c-8.87,8.43-18.15,17.08-27.13,24.03c-8.96,6.92-17.63,12.13-25.56,16.26c-7.93,4.12-15.12,7.17-20.6,9.11
			c-5.5,1.97-9.25,2.83-13.75,3.22c-4.49,0.39-9.74,0.32-11.56-0.52c-1.23-0.54-0.94-1.43-0.35-2.32c0.01-0.01,0.01-0.01,0.01-0.02
			l1.64-1.64c1.23-2.92-0.02-3.71-1.45-3.78l-4.44,2.68c-1.68,0.8-3.47,1.56-4.69,1.5c-2.04-0.1-2.53-2.46-2.82-3.84
			c-0.3-1.35-0.37-1.71-0.27-2.99c0.12-1.3,0.44-3.51,1.91-5.5c1.47-1.97,4.1-3.69,8.05-4.28c3.98-0.59,9.28-0.05,15.62,0.25
			c6.33,0.29,13.72,0.34,19.54-0.57c5.82-0.91,10.09-2.77,16.43-6.56c6.35-3.78,14.78-9.48,23.84-17.07
			c9.05-7.61,18.75-17.07,25.9-24.04c7.12-6.96,11.71-11.4,13.35-13.81c1.67-2.43,0.4-2.85-2.6-2.14
			c-2.99,0.69-7.71,2.51-13.77,5.16c-6.07,2.66-13.51,6.14-20.67,8.67c-7.2,2.51-14.12,4.06-20.55,5.19
			c-6.44,1.13-12.38,1.86-17.51,1.2c-5.11-0.66-9.43-2.7-12.15-4.27c-2.75-1.6-3.93-2.73-4.69-3.66c-0.79-0.94-1.13-1.65,0.05-2.46
			c1.18-0.79,3.88-1.65,6.85-2.06c2.97-0.4,6.18-0.35,9.79,0c3.61,0.36,7.59,1.05,12.77,1.03c5.21-0.03,11.59-0.76,18.41-1.99
			c6.85-1.25,14.15-3.02,20.5-5.45c6.34-2.44,11.74-5.51,15.79-8.23c4.05-2.73,6.78-5.06,7.81-6.39c1.05-1.33,0.41-1.6-2.43-1.45
			c-2.83,0.12-7.86,0.69-12.92,0.71c-5.03,0-10.11-0.49-15.39-1.08s-10.75-1.27-15.42-1.18c-4.64,0.1-8.44,0.96-11.73,2.66
			c-3.27,1.69-6.04,4.25-8.08,5.99c-2.04,1.74-3.37,2.7-3.22,1.08c0.15-1.6,1.72-5.77,3.66-8.94c1.92-3.19,4.17-5.36,6.95-6.9
			c2.75-1.55,6.01-2.46,9.84-2.83c3.83-0.39,8.23-0.24,15.74,0.32c7.49,0.57,18.09,1.55,25.63,1.6c7.54,0.05,12.03-0.86,14.78-2.75
			c2.75-1.92,3.73-4.82,3.68-8.13c-0.05-3.32-1.12-7.03-2.92-13.27c-1.79-6.21-4.27-14.98-4.51-23.5
			c-0.25-8.5,1.74-16.81,5.13-23.78c3.41-7,8.2-12.65,13.18-17.25c4.98-4.56,10.16-8.05,15.66-10.21c5.53-2.16,11.4-3.02,17.26-3.86
			l1.23,6.26l0.81,0.69l5.99,3.27l0.66,0.27l6.95,3.81c0.69,0.32,0.71,0.27,1.5,0.27h3.39c0.59,0.19,0.34,0.07,0.81,0.54l3.8,1.49
			l6.26-0.14h0.42l5.16,1.5c0.71,0.12,0.95,0.29,1.77,0.41l3.92,0.4c0.69,0,0.52-0.13,1.11,0.27l4.47-0.27l3.68-3.39
			c0.54-1.23,0.59-0.4,0.69-0.96c1.32,1.08,2.65,2.14,4.39,4.79c1.74,2.68,3.86,6.93,5.16,11.67c1.3,4.74,1.74,9.94,0.83,16.09
			c-0.91,6.14-3.16,13.21-6.87,19.4c-3.73,6.19-8.89,11.5-12.65,14.91c-3.75,3.44-6.11,4.96-5.94,8.2c0.17,3.25,2.9,8.18,6.9,12.11
			c4.03,3.93,9.33,6.83,15.91,8.92c6.6,2.09,14.49,3.34,21.02,3.22c6.5-0.15,11.68-1.7,15.49-4.1c3.8-2.44,6.23-5.75,6.31-8.92
			c0.07-3.17-2.24-6.22-2.95-8.3c-0.69-2.09,0.22-3.22,2.73-3.74c2.5-0.51,6.63-0.41,9.77,0.22c3.12,0.67,5.25,1.9,6.5,3.52
			c1.28,1.64,1.7,3.68,1.16,6.95c-0.57,3.27-2.04,7.74-3.81,11.74c-1.76,3.98-3.8,7.47-6.72,9.78c-2.9,2.3-6.66,3.46-11.99,4.15
			c-5.32,0.71-12.2,0.98-18.19,1.03c-5.96,0.05-11.05-0.15-16.18-1.65c-5.15-1.5-10.36-4.3-15.54-7.15
			c-5.15-2.87-10.26-5.77-14.02-7.09c-3.73-1.35-6.08-1.11-6.97,1.03c-0.88,2.16-0.29,6.24,1.43,10.27c1.71,4.05,4.59,8.03,8.46,11
			c3.91,2.97,8.84,4.91,15.05,6.73c6.22,1.82,13.68,3.49,23.06,4.54c9.38,1.09,20.67,1.53,29.68,1.43
			c9.01-0.12,15.76-0.81,20.38-2.11c4.59-1.33,7.04-3.27,9.97-6.98c2.92-3.73,6.31-9.21,9.45-12.97c3.17-3.76,6.06-5.8,7.9-5.75
			C417.81,231.93,418.6,234.11,418.87,237.11z M341.26,335.54c0-3.84-3.09-6.96-6.92-6.96s-6.95,3.12-6.95,6.96
			c0,3.8,3.12,6.92,6.95,6.92S341.26,339.34,341.26,335.54z M302.67,301.24c0-2.62-2.14-4.76-4.77-4.76c-2.62,0-4.76,2.14-4.76,4.76
			c0,2.63,2.14,4.79,4.76,4.79C300.53,306.03,302.67,303.87,302.67,301.24z M290.61,172.7c4.13-2.57,5.92-8.25,4.03-12.67
			c-1.92-4.42-6.8-5.9-10.93-3.32c-4.1,2.58-5.92,8.28-4,12.68C281.6,173.81,286.49,175.31,290.61,172.7z M268.42,252.29
			c0-3.81-3.12-6.93-6.95-6.93c-3.81,0-6.93,3.12-6.93,6.93c0,3.83,3.12,6.95,6.93,6.95C265.3,259.24,268.42,256.12,268.42,252.29z
			 M262.06,163.44c4.12-2.57,5.91-8.25,4-12.67c-1.89-4.42-6.78-5.9-10.9-3.32c-4.13,2.58-5.92,8.28-4,12.68
			C253.05,164.55,257.93,166.02,262.06,163.44z M255.36,227.26c0-3.81-3.12-6.93-6.93-6.93c-3.83,0-6.95,3.12-6.95,6.93
			c0,3.83,3.12,6.95,6.95,6.95C252.24,234.21,255.36,231.09,255.36,227.26z M229.8,223.77c0-3.81-3.1-6.93-6.93-6.93
			s-6.94,3.12-6.94,6.93c0,3.83,3.11,6.95,6.94,6.95S229.8,227.6,229.8,223.77z M212.42,379.04c0-3.81-3.12-6.93-6.95-6.93
			c-3.81,0-6.93,3.12-6.93,6.93c0,3.83,3.12,6.95,6.93,6.95C209.3,385.99,212.42,382.87,212.42,379.04z M188.5,328.31
			c0-1.42-1.18-2.6-2.6-2.6s-2.6,1.18-2.6,2.6c0,1.45,1.18,2.61,2.6,2.61S188.5,329.76,188.5,328.31z"/>
		<path fill="#FFFFFE" stroke="#000000" stroke-width="2" stroke-linecap="round" stroke-linejoin="round" d="M247.13,14.69c128.11,0,232.57,105.25,232.57,234.33c0,129.06-104.46,234.34-232.57,234.34
			c-128.08,0-232.55-105.28-232.55-234.34C14.58,119.94,119.05,14.69,247.13,14.69z M474.67,263.66c1.2-0.78,1.89-2.09-0.64-4
			l-21.23-5.72l6.58-21.37c0.88-1.6,0.54-4.38-1.92-1.7l-12.42,18.03l-17.61-14.44c-2.18-1.11-3.48,1.45-2.28,2.63l12.67,20.28
			l-17.73,14.4c-2.38,2.11-2.6,4.35-0.34,3.54l22.07-10.37l10.61,22.65c1.42,2.11,5.03,2.82,3.48-3.42l-4.54-20.95L474.67,263.66z
			 M458.37,159.69c2.38-0.42,1.08-2.26-2.04-2.88l-22.54-3.61l0.81-23.9c0.47-1.64-1.94-3.19-3.26-1.13l-8.05,21.3l-19.77-9.38
			c-3.46-1.11-2.38,1.47-0.81,2.4l16.38,15.23l-15.54,15.57c-1.23,2.93,0.02,3.71,1.45,3.79l19.96-12.04l6.55,20.41
			c1.77,6.19,4.54,3.76,4.71,1.23l-2.13-24.93L458.37,159.69z M444.5,347.52c1.64-0.42,1.79-3.29-0.67-3.39l-22.46,3.66L419.63,326
			c-0.79-3.58-2.48-1.35-2.51,0.5l-4.98,21.78l-21.26-5.67c-3.14,0.42-3.19,1.87-2.56,3.17l20.41,11.27l-14.39,15.87
			c-4.47,4.62-0.98,5.82,1.3,4.72l20.5-14.32l13.95,20.02c1.54,1.84,2.48-0.23,1.47-3.22l-8.15-21.35L444.5,347.52z M417.96,248.29
			c0.96-4.3,1.18-8.16,0.91-11.18c-0.27-3-1.06-5.18-2.88-5.26c-1.84-0.05-4.73,1.99-7.9,5.75c-3.14,3.76-6.53,9.24-9.45,12.97
			c-2.93,3.71-5.38,5.65-9.97,6.98c-4.62,1.3-11.37,1.99-20.38,2.11c-9.01,0.1-20.3-0.34-29.68-1.43
			c-9.38-1.05-16.84-2.72-23.06-4.54c-6.21-1.82-11.14-3.76-15.05-6.73c-3.87-2.97-6.75-6.95-8.46-11
			c-1.72-4.03-2.31-8.11-1.43-10.27c0.89-2.14,3.24-2.38,6.97-1.03c3.76,1.32,8.87,4.22,14.02,7.09c5.18,2.85,10.39,5.65,15.54,7.15
			c5.13,1.5,10.22,1.7,16.18,1.65c5.99-0.05,12.87-0.32,18.19-1.03c5.33-0.69,9.09-1.85,11.99-4.15c2.92-2.31,4.96-5.8,6.72-9.78
			c1.77-4,3.24-8.47,3.81-11.74c0.54-3.27,0.12-5.31-1.16-6.95c-1.25-1.62-3.38-2.85-6.5-3.52c-3.14-0.63-7.27-0.73-9.77-0.22
			c-2.51,0.52-3.42,1.65-2.73,3.74c0.71,2.08,3.02,5.13,2.95,8.3c-0.08,3.17-2.51,6.48-6.31,8.92c-3.81,2.4-8.99,3.95-15.49,4.1
			c-6.53,0.12-14.42-1.13-21.02-3.22c-6.58-2.09-11.88-4.99-15.91-8.92c-4-3.93-6.73-8.86-6.9-12.11c-0.17-3.24,2.19-4.76,5.94-8.2
			c3.76-3.41,8.92-8.72,12.65-14.91c3.71-6.19,5.96-13.26,6.87-19.4c0.91-6.15,0.47-11.35-0.83-16.09
			c-1.3-4.74-3.42-8.99-5.16-11.67c-1.74-2.65-3.07-3.71-4.39-4.79l-0.15-1.89l-4.76-0.27l-2.58,0.71l-0.27-64.86l0.42,0.21l5.3,1.5
			h0.93l4.08-1.77c0.32,0,0.64,0,0.96,0l1.49-3.39l-2.57-1.65h-3.96l-1.08-7.73l-2.85-1.5l-4.34,3.53
			c-0.98,0.59-0.59,0.42-1.92,0.42l0.54-1.1l-0.81-3.39l-3.66-0.15l-0.68,1.23l-1.65,6.38l5.45,5.19l0.8,0.41l-36.54,49.77
			l-0.27,5.58c-0.05-0.05-0.1-0.1-0.15-0.15l-0.27-3.39v-0.69l-0.42-4.08l-1.47-1.49c-0.91-0.59-0.2,0.04-1.38-0.55l-2.16,0.96
			l-0.95,2.85c0.17,0.54,0.07,0.35,0.39,0.69l1.91,4.2c-5.86,0.84-11.73,1.7-17.26,3.86c-5.5,2.16-10.68,5.65-15.66,10.21
			c-4.98,4.6-9.77,10.25-13.18,17.25c-3.39,6.97-5.38,15.28-5.13,23.78c0.24,8.52,2.72,17.29,4.51,23.5
			c1.8,6.24,2.87,9.95,2.92,13.27c0.05,3.31-0.93,6.21-3.68,8.13c-2.75,1.89-7.24,2.8-14.78,2.75c-7.54-0.05-18.14-1.03-25.63-1.6
			c-7.51-0.56-11.91-0.71-15.74-0.32c-3.83,0.37-7.09,1.28-9.84,2.83c-2.78,1.54-5.03,3.71-6.95,6.9c-1.94,3.17-3.51,7.34-3.66,8.94
			c-0.15,1.62,1.18,0.66,3.22-1.08c2.04-1.74,4.81-4.3,8.08-5.99c3.29-1.7,7.09-2.56,11.73-2.66c4.67-0.09,10.14,0.59,15.42,1.18
			s10.36,1.08,15.39,1.08c5.06-0.02,10.09-0.59,12.92-0.71c2.84-0.15,3.48,0.12,2.43,1.45c-1.03,1.33-3.76,3.66-7.81,6.39
			c-4.05,2.72-9.45,5.79-15.79,8.23c-6.35,2.43-13.65,4.2-20.5,5.45c-6.82,1.23-13.2,1.96-18.41,1.99
			c-5.18,0.02-9.16-0.67-12.77-1.03c-3.61-0.35-6.82-0.4-9.79,0c-2.97,0.41-5.67,1.27-6.85,2.06c-1.18,0.81-0.84,1.52-0.05,2.46
			c0.76,0.93,1.94,2.06,4.69,3.66c2.72,1.57,7.04,3.61,12.15,4.27c5.13,0.66,11.07-0.07,17.51-1.2c6.43-1.13,13.35-2.68,20.55-5.19
			c7.16-2.53,14.6-6.01,20.67-8.67c6.06-2.65,10.78-4.47,13.77-5.16c3-0.71,4.27-0.29,2.6,2.14c-1.64,2.41-6.23,6.85-13.35,13.81
			c-7.15,6.97-16.85,16.43-25.9,24.04c-9.06,7.59-17.49,13.29-23.84,17.07c-6.34,3.79-10.61,5.65-16.43,6.56
			c-5.82,0.91-13.21,0.86-19.54,0.57c-6.34-0.3-11.64-0.84-15.62-0.25c-3.95,0.59-6.58,2.31-8.05,4.28c-1.47,1.99-1.79,4.2-1.91,5.5
			c-0.1,1.28-0.03,1.64,0.27,2.99c0.29,1.38,0.78,3.74,2.82,3.84c1.22,0.06,3.01-0.7,4.69-1.5l-15.52,9.36l-6.55-20.41
			c-1.77-6.19-4.54-3.76-4.72-1.23l2.14,24.93l-24.31,2.06c-2.35,0.42-1.05,2.26,2.07,2.88l22.53,3.61l-0.81,23.9
			c-0.46,1.64,1.94,3.19,3.27,1.13l8.05-21.3l19.77,9.38c3.46,1.11,2.38-1.47,0.81-2.4l-16.38-15.23l13.89-13.92
			c-0.59,0.89-0.88,1.78,0.35,2.32c1.82,0.84,7.07,0.91,11.56,0.52c4.5-0.39,8.25-1.25,13.75-3.22c5.48-1.94,12.67-4.99,20.6-9.11
			c7.93-4.13,16.6-9.34,25.56-16.26c8.98-6.95,18.26-15.6,27.13-24.03c8.86-8.44,17.28-16.65,23.2-22.47
			c5.92-5.82,9.3-9.26,11.19-10.61c1.87-1.33,2.24-0.57-0.09,3.73c-2.34,4.28-7.37,12.09-13.85,20.56
			c-6.48,8.48-14.41,17.64-20.94,26.5c-6.51,8.9-11.64,17.52-14.54,25.89c-2.89,8.38-3.58,16.56-3.02,25.13
			c0.57,8.6,2.38,17.61,5.9,25.08c3.51,7.47,8.74,13.34,13.33,17.44c4.59,4.1,8.59,6.44,12.42,7.35c3.8,0.88,7.49,0.39,10.11-0.45
			c2.63-0.83,4.23-2.01,4.52-3.8c0.3-1.8-0.71-4.2-3.83-8.11c-3.14-3.93-8.4-9.36-12.84-14.39c-4.42-5.04-8.05-9.66-10.11-14.57
			c-2.07-4.89-2.56-10.05-2.34-15.38c0.23-5.33,1.18-10.8,4.13-17.83c2.94-7,7.88-15.52,13.72-24.29
			c5.85-8.77,12.6-17.79,17.78-24.86c5.2-7.07,8.81-12.18,11.17-14c2.36-1.82,3.46-0.32,3.44,6.61c-0.03,6.95-1.16,19.3-2.78,29.82
			c-1.59,10.53-3.68,19.18-5.03,27.16c-1.33,7.99-1.92,15.28-0.96,22.94c0.98,7.67,3.51,15.68,5.62,20.76
			c2.11,5.09,3.78,7.2,5.09,8.79c1.27,1.58,2.18,2.61,3.29,1.8c0.33-0.24,0.68-0.64,1.04-1.14c-0.46,0.98-0.88,1.98-1.26,2.98h-0.01
			c-1.39,0.07-1.3-1.18-2.62-0.59c-1.3,0.57-2.95,1.45-3.32,3.1l-1.18,4.96c-0.29,2.21-0.93,4.42-0.88,6.65
			c0.05,2.02,0.39,4.13,1.23,5.85c0.71,1.52,2.16,2.36,3.24,3.54c1.08,1.13,1.96,2.65,3.24,3.39c1.15,0.66,3.24,2.11,3.8,0.66
			l0.89-2.29c1.34,1.37,2.86,2.51,4.52,3.37l-0.15,0.27c-0.74,2.06-2.01,4.03-2.24,6.24l-0.61,6.44c-0.17,1.81,2.16,2.92,3.24,4.39
			c0,0,4.22,0.86,5.16,0.76c0.95-0.09,4.52-1.47,4.52-1.47c0.56-0.88,1.25-3.59,1.74-2.63l1.5,2.97c0.93,0.45,1.76,1.21,2.77,1.33
			c1.42,0.2,2.45,0.64,4.32-0.39c1.87-1.01-0.12-4.99,2.7-5.26l3.83-0.34l1.72-0.3c1.1-1.2,2.55-2.16,3.34-3.61
			c0.74-1.4-0.22-4.1-0.62-5.62c-0.76-2.8-4.05-4.87-6.5-6.34c-0.49-0.3-3.59-1.43-3.59-1.43l-0.01-0.01
			c1.4-1.67,2.57-3.58,3.47-5.69l0.01,0.01l5.28-1.04c1.08-0.22,2.03-1.47,2.57-2.72c0.62-1.45,0.44-3.22,0.67-4.84
			c-0.28-1.92,0.05-4.13-0.79-5.72c-0.54-1.06-1.82-1.36-2.82-1.23l-3.56,0.39c-1.12-4.28-3.59-7.75-6.8-10.53
			c-1.73-1.51-3.67-2.82-5.73-3.95c-1.18-0.65-2.41-1.24-3.65-1.78c-4.59-1.99-7.47-2.31-11.07,1.06c-0.6,0.55-1.21,1.22-1.82,1.99
			c0.39-0.8,0.65-1.6,0.66-2.51c0.03-2.01-1.08-4.52-2.67-8.2c-1.58-3.69-3.61-8.53-4.2-15.11c-0.59-6.56,0.27-14.86,1.79-22.87
			c1.52-8.01,3.68-15.69,5.74-21.76c2.07-6.04,4.03-10.44,5.8-13.22c1.79-2.75,3.43-3.88,5.89-0.83
			c2.48,3.07,5.79,10.31,10.34,17.22c4.56,6.92,10.36,13.48,16.18,19.75c5.81,6.26,11.66,12.2,16.89,17.95
			c5.25,5.75,9.87,11.32,12.76,16.61c2.9,5.28,4.08,10.26,3,16.13c-1.11,5.87-4.45,12.63-8.03,17.74
			c-3.58,5.11-7.39,8.55-10.31,11.84c-2.92,3.27-4.96,6.41-5.13,8.45c-0.2,2.04,1.5,2.99,3.68,3.26c2.21,0.27,4.91-0.14,7.46-0.71
			c2.56-0.56,4.94-1.3,5.82-2.18c0.53-0.53,0.52-1.1,0.38-1.68l11.28,18.72l-20.37,6.54c-6.19,1.79-3.78,4.54-1.23,4.74l24.89-2.14
			l2.07,24.29c0.44,2.39,2.26,1.06,2.89-2.03l3.61-22.55l23.89,0.81c1.62,0.44,3.19-1.97,1.13-3.29l-21.31-8.06l9.4-19.75
			c1.11-3.49-1.47-2.41-2.43-0.81l-15.22,16.38l-14.04-14.05c0.74,0.39,1.6,0.68,2.6,0.59c2.01-0.15,4.62-1.69,7.68-4.35
			c3.07-2.62,6.58-6.33,10.14-11.81c3.56-5.45,7.15-12.65,8.84-19.09c1.7-6.41,1.52-12.03-0.51-18.2
			c-2.04-6.19-5.95-12.94-10.49-18.74c-4.56-5.77-9.77-10.59-18.31-17.76c-8.55-7.2-20.4-16.75-29.14-24.83
			c-8.77-8.11-14.37-14.72-17.73-20.24c-3.36-5.55-4.44-10-4.44-14.05c0-4.06,1.08-7.72,2.67-9.58c1.6-1.87,3.66-1.92,7.93,1.42
			c4.25,3.34,10.71,10.05,16.38,15.11c5.69,5.03,10.63,8.45,16.37,10.54c5.77,2.08,12.33,2.85,18.42,3.68
			c6.11,0.84,11.73,1.74,18.58,2.19c6.88,0.41,14.98,0.37,21.73,0.1s12.15-0.77,16.18-1.5c4.03-0.71,6.7-1.67,9.33-2.78
			c2.63-1.1,5.2-2.38,7.14-4.08c1.92-1.69,3.19-3.83,4.67-7.27C415.33,257.35,417,252.61,417.96,248.29z M400.4,318.49
			c0.47-0.81,1.4-5.01,1.4-5.01c-0.91-1.6-0.98-4.2-2.72-4.77l-6.14-2.04c-2.09-0.69-4.4-0.32-6.6-0.46l-0.29,0.02
			c-0.12-1.86-0.55-3.71-1.26-5.48l2.45,0.1c1.55,0.07,1.06-2.43,0.94-3.73c-0.17-1.5-1.21-2.9-1.8-4.35
			c-0.63-1.47-0.83-3.12-1.93-4.4c-1.26-1.45-3.02-2.6-4.84-3.49c-2.04-0.95-4.32-1.22-6.46-1.86l-5.01-0.93
			c-1.64-0.32-3.11,0.83-4.17,1.79c-1.08,0.96,0.12,1.4-0.52,2.65c-5.28-0.28-11.07,0.49-14.43,1.94c-4.52,1.97-5.38,4.69-5.43,9.73
			c-0.01,1.36,0.03,2.72,0.15,4.07c0.2,2.33,0.61,4.63,1.3,6.81c1.25,4.07,3.43,7.74,6.88,10.5l-1.8,3.08
			c-0.49,0.89-0.73,2.17,0,3.1c1.13,1.37,3.29,1.99,4.91,3c1.57,0.44,3.12,1.32,4.69,1.35c1.38,0,2.92-0.35,3.54-1.26l3.07-4.42
			c2.31,0.03,4.54-0.27,6.63-0.87v0.01c0,0-0.23,3.29-0.15,3.86c0.37,2.85,0.91,6.7,3.17,8.5c1.22,0.98,3.31,2.95,4.88,2.85
			c1.65-0.13,3.12-1.08,4.67-1.62l0.95-1.45l1.87-3.34c1.37-2.48,4.2,0.93,5.89-0.37c1.7-1.3,1.7-2.41,2.11-3.81
			c0.3-0.96-0.07-2.01-0.1-3.05l-2.13-2.6c-0.66-0.81,2.09-0.34,3.12-0.52C397.24,322.02,399.96,319.32,400.4,318.49z
			 M398.19,170.05c0.59-2.04-0.05-2.95-0.54-4.3c-0.34-0.95-1.25-1.62-1.89-2.4l-3.24-0.86c-1.03-0.25,1.45-1.5,2.19-2.26
			c0,0,0.59-3.79,0.49-4.72c-0.12-0.93-1.87-4.86-1.87-4.86c-1.67-0.76-3.26-2.8-5.01-2.24l-6.13,1.99
			c-2.11,0.69-3.73,2.36-5.63,3.54l-0.21,0.18c-1.19-1.43-2.63-2.66-4.25-3.67l2.03-1.38c1.3-0.86-0.56-2.57-1.44-3.56
			c-1.01-1.1-2.68-1.64-4.03-2.45c-1.38-0.79-2.5-2.02-4.17-2.41c-1.85-0.42-3.96-0.29-5.95,0.07c-2.18,0.45-4.22,1.55-6.31,2.31
			l-4.59,2.21c-1.52,0.72-2.03,2.51-2.3,3.91c-0.3,1.42,0.93,1.06,1.15,2.43l0.01,0.01c-4.42,2.89-8.64,6.96-10.49,10.11
			c-2.51,4.25-1.58,6.98,1.35,11.05c0.79,1.1,1.63,2.16,2.52,3.18c1.54,1.77,3.24,3.4,5.09,4.77c3.42,2.52,7.34,4.19,11.76,4.36
			l0.37,3.56c0.09,1.01,0.66,2.19,1.81,2.48c1.75,0.47,3.83-0.32,5.75-0.46c1.52-0.57,3.29-0.79,4.59-1.7
			c1.1-0.78,2.13-1.99,2.11-3.09l-0.15-5.36c1.88-1.35,3.51-2.92,4.84-4.64c0,0,1.74,2.8,2.14,3.19c1.98,2.09,4.71,4.87,7.61,4.99
			c1.57,0.07,4.41,0.42,5.59-0.59c1.26-1.08,1.89-2.7,2.83-4.05l-0.1-1.75l-0.47-3.8C393.31,171.03,397.61,172.12,398.19,170.05z
			 M386.92,67.48c1.85-1.58-0.22-2.48-3.21-1.48l-21.34,8.16l-11.22-21.13c-0.44-1.64-3.29-1.77-3.41,0.67l3.68,22.47l-21.8,1.75
			c-3.56,0.78-1.35,2.48,0.49,2.5l21.81,5.01l-5.68,21.25c0.4,3.14,1.87,3.19,3.15,2.55l11.27-20.41l15.86,14.4
			c4.64,4.47,5.81,1,4.71-1.31L366.92,81.4L386.92,67.48z M287.81,59.52c6.24,1.55,5.53-2.07,3.41-3.49l-22.63-10.59l10.36-22.08
			c0.83-2.28-1.43-2.06-3.51,0.32l-14.39,17.73l-20.3-12.65c-1.18-1.22-3.73,0.08-2.6,2.26l14.41,17.64l-18,12.41
			c-2.7,2.48,0.07,2.82,1.67,1.91l21.38-6.56l5.7,21.25c1.92,2.53,3.22,1.84,4,0.64l-0.44-23.34L287.81,59.52z M266.75,432.9
			c2.7-2.45-0.08-2.82-1.67-1.91l-21.39,6.58L238,416.3c-1.94-2.53-3.22-1.82-4-0.64l0.44,23.34l-20.94-4.55
			c-6.24-1.55-5.53,2.06-3.44,3.49l22.66,10.59l-10.36,22.08c-0.84,2.28,1.42,2.06,3.51-0.32l14.39-17.74l20.28,12.68
			c1.2,1.2,3.75-0.1,2.62-2.29l-14.41-17.63L266.75,432.9z M235.54,102.97c-0.02-2.24,0.32-4.52-0.07-6.73
			c-0.32-1.99-0.98-4-2.04-5.6c-0.93-1.43-2.48-2.04-3.71-3.05c-1.22-0.95-2.33-2.33-3.7-2.9c-1.23-0.46-3.51-1.62-3.86-0.09
			l-0.56,2.38l-0.01,0.01c-1.51-1.16-3.16-2.07-4.91-2.68l0.08-0.28c0.44-2.16,1.42-4.3,1.33-6.51l-0.32-6.46
			c-0.08-1.82-2.56-2.58-3.86-3.88c0,0-4.29-0.24-5.2,0c-0.91,0.22-4.25,2.09-4.25,2.09c-0.44,0.96-0.74,3.73-1.35,2.87l-1.91-2.75
			c-0.99-0.29-1.92-0.93-2.93-0.91c-1.44,0.03-2.52-0.27-4.22,1.01c-1.72,1.28,0.81,4.94-1.94,5.6l-3.73,0.88l-1.65,0.55
			c-0.93,1.35-2.23,2.5-2.79,4.05c-0.52,1.5,0.81,4.03,1.42,5.48c1.13,2.65,4.71,4.22,7.34,5.35c0.5,0.21,3.55,0.84,3.75,0.88
			c-1.14,1.85-2.02,3.93-2.61,6.15l-5.07,1.76c-1.03,0.37-1.79,1.77-2.16,3.07c-0.39,1.53,0.03,3.27,0.05,4.89
			c0.52,1.84,0.54,4.08,1.57,5.53c0.69,0.98,1.99,1.1,2.97,0.83l3.46-0.89c1.74,4.08,4.69,7.16,8.27,9.45
			c1.92,1.25,4.02,2.26,6.22,3.08c1.27,0.48,2.57,0.89,3.88,1.24c4.84,1.3,7.71,1.2,10.8-2.63c2.31-2.85,4.61-8.23,5.76-13.39
			c1.36-0.26,1.46,0.98,2.69,0.22c1.2-0.76,2.7-1.87,2.84-3.54L235.54,102.97z M199.58,167.62c0.78-1.18,1.66-2.82,1.1-4.4
			l-1.69-4.79c-0.96-2.03-1.62-4.25-2.88-6.09c-1.15-1.67-2.57-3.24-4.19-4.22c-1.45-0.91-3.1-0.84-4.65-1.23
			c-1.52-0.37-3.09-1.18-4.56-1.08c-1.33,0.05-3.86-0.03-3.56,1.5l0.49,2.4v0.01c-1.85-0.43-3.74-0.56-5.59-0.38l-0.03-0.29
			c-0.52-2.16-0.49-4.49-1.52-6.46l-2.98-5.75c-0.83-1.62-3.41-1.27-5.1-1.94c0,0-4.03,1.6-4.77,2.16
			c-0.73,0.59-2.97,3.69-2.97,3.69c0,1.05,0.89,3.71-0.02,3.17l-2.9-1.7c-1,0.12-2.11-0.05-3.04,0.39c-1.3,0.62-2.38,0.82-3.41,2.68
			c-1.04,1.87,2.79,4.13,0.56,5.9l-3.02,2.36l-1.28,1.17c-0.27,1.63-0.98,3.22-0.83,4.87c0.12,1.55,2.41,3.31,3.56,4.37
			c2.14,1.94,6.04,1.89,8.91,1.79c0.57,0,3.78-0.76,3.78-0.76c-0.27,2.16-0.22,4.41,0.17,6.68l-3.88,3.74
			c-0.78,0.76-0.9,2.35-0.66,3.68c0.27,1.55,1.38,2.95,2.06,4.42c1.26,1.45,2.19,3.49,3.74,4.37c1.03,0.62,2.25,0.18,3.07-0.46
			l2.75-2.27c3.26,2.99,7.23,4.56,11.44,5.16c2.27,0.33,4.6,0.37,6.94,0.2c1.35-0.1,2.7-0.27,4.03-0.49
			c4.96-0.83,7.54-2.11,8.74-6.9c0.91-3.54,0.76-9.4-0.35-14.57h0.01C198.18,167.74,198.79,168.85,199.58,167.62z M189.14,66.05
			c6.19-1.79,3.76-4.54,1.23-4.74l-24.9,2.16l-2.06-24.32c-0.44-2.38-2.26-1.05-2.9,2.07l-3.6,22.55l-23.89-0.84
			c-1.65-0.44-3.19,1.97-1.13,3.29l21.28,8.06l-9.38,19.75c-1.1,3.49,1.48,2.41,2.41,0.83l15.22-16.4l15.57,15.57
			c2.94,1.2,3.71-0.03,3.8-1.48l-12.05-19.96L189.14,66.05z M171.69,416.05c3.56-0.78,1.32-2.48-0.5-2.5l-21.8-4.99l5.67-21.27
			c-0.39-3.14-1.86-3.19-3.14-2.55l-11.27,20.41l-15.86-14.4c-4.64-4.47-5.82-0.98-4.71,1.3l14.31,20.51l-20.01,13.93
			c-1.84,1.57,0.2,2.51,3.22,1.48l21.31-8.16l11.24,21.13c0.42,1.64,3.29,1.79,3.42-0.67l-3.69-22.47L171.69,416.05z M165.17,343.27
			c0.17-2.29,0.06-4.63-0.26-6.95c-0.19-1.35-0.45-2.68-0.76-4c-1.18-4.87-2.6-7.35-7.47-8.26c-3.59-0.66-9.43-0.12-14.51,1.33
			c-0.88-1.08,0.18-1.77-1.08-2.48c-1.22-0.69-2.92-1.47-4.46-0.81l-4.67,2.04c-1.96,1.08-4.12,1.86-5.89,3.26
			c-1.57,1.23-3.05,2.78-3.93,4.45c-0.81,1.52-0.61,3.14-0.93,4.72c-0.25,1.54-0.94,3.17-0.76,4.64c0.14,1.33,0.24,3.86,1.74,3.44
			l2.36-0.64h0.01c-0.3,1.89-0.31,3.78-0.02,5.61l-0.29,0.04c-2.11,0.66-4.44,0.81-6.33,1.94l-5.53,3.36
			c-1.57,0.94-1.05,3.49-1.59,5.24c0,0,1.84,3.9,2.48,4.59c0.61,0.69,3.88,2.73,3.88,2.73c1.03-0.05,3.61-1.13,3.14-0.18l-1.5,3
			c0.2,1.01,0.1,2.11,0.59,3c0.71,1.28,0.96,2.36,2.9,3.24c1.94,0.91,3.93-3.07,5.84-0.96l2.55,2.85l1.26,1.2
			c1.64,0.18,3.29,0.77,4.91,0.52c1.54-0.22,3.14-2.6,4.12-3.86c1.79-2.26,1.47-6.14,1.2-8.99c-0.04-0.54-0.94-3.52-1-3.72
			c2.17,0.11,4.41-0.09,6.65-0.63V363l3.95,3.61c0.84,0.73,2.43,0.73,3.74,0.41c1.54-0.36,2.84-1.54,4.27-2.33
			c1.37-1.35,3.34-2.43,4.12-4.03c0.52-1.08,0-2.28-0.69-3.02l-2.43-2.61C163.54,351.58,164.85,347.51,165.17,343.27z
			 M142.81,215.72c3.78-3.32,5.31-5.75,3.83-10.47c-1.1-3.49-4.3-8.4-7.95-12.21c0.54-1.3,1.62-0.68,1.67-2.13
			c0.05-1.4-0.05-3.27-1.38-4.33l-3.97-3.17c-1.87-1.22-3.59-2.77-5.63-3.68c-1.84-0.81-3.88-1.4-5.79-1.4
			c-1.69,0-3.07,0.93-4.59,1.4c-1.5,0.49-3.24,0.64-4.47,1.5c-1.08,0.74-3.29,1.99-2.23,3.14l1.69,1.8
			c-1.81,0.61-3.49,1.48-4.98,2.62l-0.18-0.24c-1.54-1.57-2.77-3.56-4.66-4.72l-5.55-3.31c-1.57-0.94-3.58,0.71-5.38,1.05
			c0,0-2.57,3.44-2.89,4.33c-0.32,0.88-0.59,4.71-0.59,4.71c0.54,0.89,2.67,2.68,1.62,2.7l-3.34,0.08
			c-0.81,0.64-1.84,1.08-2.38,1.91c-0.79,1.23-1.62,1.97-1.5,4.11c0.1,2.11,4.54,2.03,3.56,4.69l-1.3,3.61l-0.49,1.67
			c0.61,1.52,0.86,3.24,1.84,4.57c0.93,1.27,3.78,1.57,5.33,1.86c2.84,0.52,6.11-1.57,8.52-3.17c0.46-0.29,2.82-2.62,2.82-2.62
			c0.91,1.97,2.13,3.86,3.65,5.59l-1.32,5.19c-0.29,1.08,0.44,2.48,1.35,3.51c1.06,1.18,2.73,1.77,4.08,2.68
			c1.84,0.59,3.7,1.82,5.47,1.74c1.21-0.02,2.02-1.05,2.36-2.01l1.17-3.36c4.34,0.82,8.53,0.07,12.43-1.63
			c2.1-0.91,4.12-2.1,6.02-3.48C140.74,217.46,141.8,216.61,142.81,215.72z M122.75,274.4c1.4-4.84,1.35-7.72-2.43-10.88
			c-2.78-2.37-8.12-4.77-13.25-6.02c-0.25-1.38,1.03-1.45,0.27-2.68c-0.72-1.23-1.82-2.75-3.46-2.92l-5.09-0.54
			c-2.23-0.03-4.49-0.4-6.7-0.05c-2.01,0.29-4.05,0.88-5.65,1.91c-1.45,0.91-2.08,2.43-3.11,3.66c-0.99,1.23-2.39,2.29-2.98,3.66
			c-0.51,1.21-1.69,3.47-0.17,3.84l2.38,0.61l0.01,0.01c-1.2,1.49-2.15,3.14-2.79,4.89l-0.28-0.11c-2.17-0.49-4.25-1.52-6.46-1.45
			l-6.46,0.17c-1.84,0.05-2.65,2.53-3.98,3.78c0,0-0.32,4.3-0.12,5.21c0.22,0.94,2.04,4.3,2.04,4.3c0.93,0.47,3.71,0.81,2.82,1.4
			l-2.77,1.87c-0.32,0.98-0.98,1.89-0.98,2.9c0,1.45-0.32,2.53,0.93,4.25c1.25,1.74,4.93-0.72,5.55,2.03L70.9,298l0.47,1.67
			c1.35,0.96,2.48,2.29,4.03,2.88c1.47,0.56,4.02-0.74,5.49-1.33c2.68-1.08,4.3-4.62,5.48-7.22c0.25-0.52,0.96-3.76,0.96-3.76
			c1.82,1.18,3.88,2.11,6.09,2.74v0.01l1.67,5.11c0.34,1.06,1.74,1.84,3.04,2.21c1.5,0.44,3.24,0.05,4.86,0.05
			c1.87-0.47,4.1-0.44,5.57-1.45c0.99-0.69,1.13-1.96,0.89-2.97l-0.83-3.45c4.11-1.65,7.25-4.54,9.62-8.08
			c1.29-1.91,2.34-4,3.2-6.19C121.95,276.97,122.38,275.69,122.75,274.4z M110.41,151.36c3.16-0.42,3.21-1.87,2.57-3.15
			l-20.42-11.29l14.41-15.87c4.47-4.62,0.98-5.82-1.3-4.69l-20.5,14.29l-13.95-19.99c-1.54-1.87-2.48,0.19-1.47,3.22l8.15,21.32
			l-21.09,11.25c-1.64,0.41-1.79,3.29,0.66,3.41l22.47-3.68l1.74,21.81c0.79,3.56,2.48,1.33,2.5-0.52l4.99-21.78L110.41,151.36z
			 M81.41,234.33c2.53-1.94,1.84-3.24,0.64-4.02l-23.3,0.44l4.52-20.95c1.57-6.24-2.04-5.53-3.46-3.42L49.2,229.03l-22.07-10.37
			c-2.26-0.81-2.04,1.43,0.34,3.54l17.7,14.39l-12.64,20.29c-1.2,1.21,0.1,3.74,2.28,2.63l17.61-14.42l12.42,18.01
			c2.45,2.67,2.8-0.08,1.91-1.7l-6.58-21.37L81.41,234.33z"/>
		<path fill="#FFFFFE" stroke="#000000" stroke-width="2" stroke-linecap="round" stroke-linejoin="round" d="M401.8,313.48c0,0-0.93,4.2-1.4,5.01c-0.44,0.83-3.16,3.53-3.16,3.53c-1.03,0.18-3.78-0.29-3.12,0.52
			l2.13,2.6c0.03,1.04,0.4,2.09,0.1,3.05c-0.41,1.4-0.41,2.51-2.11,3.81c-1.69,1.3-4.52-2.11-5.89,0.37l-1.87,3.34l-0.95,1.45
			c-1.55,0.54-3.02,1.49-4.67,1.62c-1.57,0.1-3.66-1.87-4.88-2.85c-2.26-1.8-2.8-5.65-3.17-8.5c-0.08-0.57,0.15-3.86,0.15-3.86
			v-0.01c5.73-1.64,10.36-5.51,12.25-10.99c0.72-2.08,0.98-4.22,0.84-6.34l0.29-0.02c2.2,0.14,4.51-0.23,6.6,0.46l6.14,2.04
			C400.82,309.28,400.89,311.88,401.8,313.48z"/>
		<path fill="#FFFFFE" stroke="#000000" stroke-width="2" stroke-linecap="round" stroke-linejoin="round" d="M397.65,165.75c0.49,1.35,1.13,2.26,0.54,4.3c-0.58,2.07-4.88,0.98-4.54,3.79l0.47,3.8l0.1,1.75
			c-0.94,1.35-1.57,2.97-2.83,4.05c-1.18,1.01-4.02,0.66-5.59,0.59c-2.9-0.12-5.63-2.9-7.61-4.99c-0.4-0.39-2.14-3.19-2.14-3.19
			c3.65-4.71,5.1-10.58,3.39-16.11c-0.66-2.1-1.71-3.99-3.09-5.62l0.21-0.18c1.9-1.18,3.52-2.85,5.63-3.54l6.13-1.99
			c1.75-0.56,3.34,1.48,5.01,2.24c0,0,1.75,3.93,1.87,4.86c0.1,0.93-0.49,4.72-0.49,4.72c-0.74,0.76-3.22,2.01-2.19,2.26l3.24,0.86
			C396.4,164.13,397.31,164.8,397.65,165.75z"/>
		<path fill="#FFFFFE" stroke="#000000" stroke-width="2" stroke-linecap="round" stroke-linejoin="round" d="M388.18,297.12c0.12,1.3,0.61,3.8-0.94,3.73l-2.45-0.1c-2.27-5.68-7.4-10.63-14.29-13.02
			c-1.99-0.68-4.46-1.07-7.05-1.2c0.64-1.25-0.56-1.69,0.52-2.65c1.06-0.96,2.53-2.11,4.17-1.79l5.01,0.93
			c2.14,0.64,4.42,0.91,6.46,1.86c1.82,0.89,3.58,2.04,4.84,3.49c1.1,1.28,1.3,2.93,1.93,4.4
			C386.97,294.22,388.01,295.62,388.18,297.12z"/>
		<path fill="#FFFFFE" stroke="#000000" stroke-width="2" stroke-linecap="round" stroke-linejoin="round" d="M383.71,66c2.99-1,5.06-0.1,3.21,1.48l-20,13.92l14.31,20.51c1.1,2.31-0.07,5.78-4.71,1.31l-15.86-14.4
			l-11.27,20.41c-1.28,0.64-2.75,0.59-3.15-2.55l5.68-21.25l-21.81-5.01c-1.84-0.02-4.05-1.72-0.49-2.5l21.8-1.75l-3.68-22.47
			c0.12-2.44,2.97-2.31,3.41-0.67l11.22,21.13L383.71,66z"/>
		<path fill="#FFFFFE" stroke="#000000" stroke-width="2" stroke-linecap="round" stroke-linejoin="round" d="M351.92,319.58c-3.45-2.76-5.63-6.43-6.88-10.5l0.22-0.07c3.66-0.2,7.05-1.16,9.68-2.85l0.19-1.62
			c-4.02,0.12-7.88-0.3-11.19-2.29l-0.2,0.02c-0.12-1.35-0.16-2.71-0.15-4.07c0.05-5.04,0.91-7.76,5.43-9.73
			c3.36-1.45,9.15-2.22,14.43-1.94c2.59,0.13,5.06,0.52,7.05,1.2c6.89,2.39,12.02,7.34,14.29,13.02c0.71,1.77,1.14,3.62,1.26,5.48
			c0.14,2.12-0.12,4.26-0.84,6.34c-1.89,5.48-6.52,9.35-12.25,10.99c-2.09,0.6-4.32,0.9-6.63,0.87c-2.63-0.02-5.35-0.47-8.03-1.4
			C355.8,322.17,353.69,320.99,351.92,319.58z M366.06,297.39c0.68-2.02-0.35-4.2-2.31-4.89c-1.99-0.69-4.15,0.39-4.84,2.41
			c-0.69,2.01,0.35,4.2,2.31,4.89C363.18,300.48,365.34,299.4,366.06,297.39z"/>
		<path fill="#FFFFFE" stroke="#000000" stroke-width="2" stroke-linecap="round" stroke-linejoin="round" d="M371.21,180.49c-2.13,1.52-4.58,2.75-7.29,3.59c-2.52,0.78-4.92,1.08-7.19,0.98
			c-4.42-0.17-8.34-1.84-11.76-4.36l0.15-0.21c2.82-2.31,4.98-5.11,6.11-8.03l-0.79-1.43c-3.19,2.51-6.55,4.43-10.41,4.77
			l-0.15,0.13c-0.89-1.02-1.73-2.08-2.52-3.18c-2.93-4.07-3.86-6.8-1.35-11.05c1.85-3.15,6.07-7.22,10.49-10.11
			c2.16-1.43,4.37-2.56,6.37-3.18c6.97-2.17,14.03-1.2,19.23,2.04c1.62,1.01,3.06,2.24,4.25,3.67c1.38,1.63,2.43,3.52,3.09,5.62
			c1.71,5.53,0.26,11.4-3.39,16.11C374.72,177.57,373.09,179.14,371.21,180.49z M352.53,163.62c1.99-0.62,3.09-2.78,2.48-4.79
			c-0.64-2.04-2.78-3.2-4.76-2.58c-1.99,0.61-3.1,2.75-2.46,4.79C348.4,163.08,350.54,164.23,352.53,163.62z"/>
		<path fill="#FFFFFE" stroke="#000000" stroke-width="2" stroke-linecap="round" stroke-linejoin="round" d="M372.69,145.51c0.88,0.99,2.74,2.7,1.44,3.56l-2.03,1.38c-5.2-3.24-12.26-4.21-19.23-2.04
			c-2,0.62-4.21,1.75-6.37,3.18l-0.01-0.01c-0.22-1.37-1.45-1.01-1.15-2.43c0.27-1.4,0.78-3.19,2.3-3.91l4.59-2.21
			c2.09-0.76,4.13-1.86,6.31-2.31c1.99-0.36,4.1-0.49,5.95-0.07c1.67,0.39,2.79,1.62,4.17,2.41
			C370.01,143.87,371.68,144.41,372.69,145.51z"/>
		<path fill="#FFFFFE" stroke="#000000" stroke-width="2" stroke-linecap="round" stroke-linejoin="round" d="M371.36,185.85c0.02,1.1-1.01,2.31-2.11,3.09c-1.3,0.91-3.07,1.13-4.59,1.7c-1.92,0.14-4,0.93-5.75,0.46
			c-1.15-0.29-1.72-1.47-1.81-2.48l-0.37-3.56c2.27,0.1,4.67-0.2,7.19-0.98c2.71-0.84,5.16-2.07,7.29-3.59L371.36,185.85z"/>
		<path fill="#FFFFFE" stroke="#000000" stroke-width="2" stroke-linecap="round" stroke-linejoin="round" d="M369.42,427.75c2.06,1.32,0.49,3.73-1.13,3.29l-23.89-0.81l-3.61,22.55c-0.63,3.09-2.45,4.42-2.89,2.03
			l-2.07-24.29l-24.89,2.14c-2.55-0.2-4.96-2.95,1.23-4.74l20.37-6.54l-11.28-18.72c-0.09-0.39-0.23-0.77-0.3-1.15
			c-0.14-0.67-0.07-1.27,0.18-1.67v-0.01c0.32-0.28,0.79-0.42,1.46-0.35c0,0,0,0,0.01,0c0.37,0.14,0.81,0.38,1.32,0.73
			c0.54,0.36,1.16,0.86,1.89,1.25l14.04,14.05l15.22-16.38c0.96-1.6,3.54-2.68,2.43,0.81l-9.4,19.75L369.42,427.75z"/>
		<path fill="#FFFFFE" stroke="#000000" stroke-width="2" stroke-linecap="round" stroke-linejoin="round" d="M366.33,324.43l-3.07,4.42c-0.62,0.91-2.16,1.26-3.54,1.26c-1.57-0.03-3.12-0.91-4.69-1.35
			c-1.62-1.01-3.78-1.63-4.91-3c-0.73-0.93-0.49-2.21,0-3.1l1.8-3.08c1.77,1.41,3.88,2.59,6.38,3.45
			C360.98,323.96,363.7,324.41,366.33,324.43z"/>
		<path fill="#FFFFFE" stroke="#000000" stroke-width="2" stroke-linecap="round" stroke-linejoin="round" d="M363.75,292.5c1.96,0.69,2.99,2.87,2.31,4.89c-0.72,2.01-2.88,3.09-4.84,2.41c-1.96-0.69-3-2.88-2.31-4.89
			C359.6,292.89,361.76,291.81,363.75,292.5z"/>
		<path fill="#FFFFFE" stroke="#000000" stroke-width="2" stroke-linecap="round" stroke-linejoin="round" d="M355.13,304.54l-0.19,1.62c-2.63,1.69-6.02,2.65-9.68,2.85l-0.22,0.07c-0.69-2.18-1.1-4.48-1.3-6.81
			l0.2-0.02C347.25,304.24,351.11,304.66,355.13,304.54z"/>
		<path fill="#FFFFFE" stroke="#000000" stroke-width="2" stroke-linecap="round" stroke-linejoin="round" d="M355.01,158.83c0.61,2.01-0.49,4.17-2.48,4.79c-1.99,0.61-4.13-0.54-4.74-2.58
			c-0.64-2.04,0.47-4.18,2.46-4.79C352.23,155.63,354.37,156.79,355.01,158.83z"/>
		<path fill="#FFFFFE" stroke="#000000" stroke-width="2" stroke-linecap="round" stroke-linejoin="round" d="M350.44,171.03l0.79,1.43c-1.13,2.92-3.29,5.72-6.11,8.03l-0.15,0.21c-1.85-1.37-3.55-3-5.09-4.77
			l0.15-0.13C343.89,175.46,347.25,173.54,350.44,171.03z"/>
		<path fill="#FFFFFE" stroke="#000000" stroke-width="2" stroke-linecap="round" stroke-linejoin="round" d="M334.34,328.58c3.83,0,6.92,3.12,6.92,6.96c0,3.8-3.09,6.92-6.92,6.92s-6.95-3.12-6.95-6.92
			C327.39,331.7,330.51,328.58,334.34,328.58z"/>
		<path fill="#FFFFFE" stroke="#000000" stroke-width="2" stroke-linecap="round" stroke-linejoin="round" d="M321.69,59.15l-1.49,3.39c-0.32,0-0.64,0-0.96,0l-4.08,1.77h-0.93l-5.3-1.5l-0.42-0.21v-0.18l-3.54-1.65
			l-0.01,0.02l-0.8-0.41l-5.45-5.19l1.65-6.38l0.68-1.23l3.66,0.15l0.81,3.39l-0.54,1.1c1.33,0,0.94,0.17,1.92-0.42l4.34-3.53
			l2.85,1.5l1.08,7.73h3.96L321.69,59.15z"/>
		<path fill="#FFFFFE" stroke="#000000" stroke-width="2" stroke-linecap="round" stroke-linejoin="round" d="M316.12,127.02l0.15,1.89c-0.1,0.56-0.15-0.27-0.69,0.96l-3.68,3.39l-4.47,0.27
			c-0.59-0.4-0.42-0.27-1.11-0.27l-3.92-0.4c-0.82-0.12-1.06-0.29-1.77-0.41l-5.16-1.5h-0.42l-6.26,0.14l-3.8-1.49
			c-0.47-0.47-0.22-0.35-0.81-0.54h-3.39c-0.79,0-0.81,0.05-1.5-0.27l-6.95-3.81l-0.66-0.27l-5.99-3.27l-0.81-0.69l-1.23-6.26
			l-1.91-4.2c-0.32-0.34-0.22-0.15-0.39-0.69l0.95-2.85l2.16-0.96c1.18,0.59,0.47-0.04,1.38,0.55l1.47,1.49l0.42,4.08v0.69
			l0.27,3.39c0.05,0.05,0.1,0.1,0.15,0.15c0.13,0.13,0.23,0.22,0.31,0.29l0.72,0.7c0.01,0,0.01,0.01,0.02,0.02
			c0.08,0.09,0.18,0.2,0.3,0.34l0.24,0.18l2.21,2.13l10.31,4.76l11.3,3.54l5.34-0.22l6.07,0.64l3.81-1.06l2.58-0.71L316.12,127.02z"
			/>
		<path fill="#FFFFFE" stroke="#000000" stroke-width="2" stroke-linecap="round" stroke-linejoin="round" d="M308.51,62.6l0.27,64.86l-9.88,0.42l-4.39-0.47l-10.87-2.7l-10.19-4.23l-3.71-2.81l-0.54-0.52
			c-0.01-0.01-0.01-0.02-0.02-0.02c-0.43-0.49-0.46-0.48-0.72-0.7c-0.08-0.07-0.18-0.16-0.31-0.29l0.27-5.58l36.54-49.77
			L308.51,62.6z M306.62,74.11c0-1.72-1.48-3.12-3.27-3.12c-1.81,0-3.26,1.4-3.26,3.12c0,1.72,1.45,3.12,3.26,3.12
			C305.14,77.23,306.62,75.83,306.62,74.11z M303.48,89.07c0-2.48-1.94-4.5-4.35-4.5s-4.35,2.02-4.35,4.5s1.94,4.49,4.35,4.49
			S303.48,91.55,303.48,89.07z M298.44,117.22c0-3.15-2.77-5.73-6.18-5.73c-3.39,0-6.19,2.58-6.19,5.73c0,3.14,2.8,5.72,6.19,5.72
			C295.67,122.94,298.44,120.36,298.44,117.22z M293.48,101.79c0-3.41-2.62-6.19-5.84-6.19c-3.22,0-5.84,2.78-5.84,6.19
			c0,3.39,2.62,6.17,5.84,6.17C290.86,107.96,293.48,105.18,293.48,101.79z"/>
		<path fill="#FFFFFE" stroke="#000000" stroke-width="2" stroke-linecap="round" stroke-linejoin="round" d="M303.35,70.99c1.79,0,3.27,1.4,3.27,3.12c0,1.72-1.48,3.12-3.27,3.12c-1.81,0-3.26-1.4-3.26-3.12
			C300.09,72.39,301.54,70.99,303.35,70.99z"/>
		<path fill="#FFFFFE" stroke="#000000" stroke-width="2" stroke-linecap="round" stroke-linejoin="round" d="M299.13,84.57c2.41,0,4.35,2.02,4.35,4.5s-1.94,4.49-4.35,4.49s-4.35-2.01-4.35-4.49
			S296.72,84.57,299.13,84.57z"/>
		<path fill="#FFFFFE" stroke="#000000" stroke-width="2" stroke-linecap="round" stroke-linejoin="round" d="M297.9,296.48c2.63,0,4.77,2.14,4.77,4.76c0,2.63-2.14,4.79-4.77,4.79c-2.62,0-4.76-2.16-4.76-4.79
			C293.14,298.62,295.28,296.48,297.9,296.48z"/>
		<polygon fill="#FFFFFE" stroke="#000000" stroke-width="2" stroke-linecap="round" stroke-linejoin="round" points="298.9,127.88 293.56,128.1 282.26,124.56 271.95,119.8 269.74,117.67 273.45,120.48 
			283.64,124.71 294.51,127.41 		"/>
		<path fill="#FFFFFE" stroke="#000000" stroke-width="2" stroke-linecap="round" stroke-linejoin="round" d="M292.26,111.49c3.41,0,6.18,2.58,6.18,5.73c0,3.14-2.77,5.72-6.18,5.72c-3.39,0-6.19-2.58-6.19-5.72
			C286.07,114.07,288.87,111.49,292.26,111.49z"/>
		<path fill="#FFFFFE" stroke="#000000" stroke-width="2" stroke-linecap="round" stroke-linejoin="round" d="M294.64,160.03c1.89,4.42,0.1,10.1-4.03,12.67c-4.12,2.61-9.01,1.11-10.9-3.31c-1.92-4.4-0.1-10.1,4-12.68
			C287.84,154.13,292.72,155.61,294.64,160.03z M287.12,169.24c2.04-1.28,2.93-4.1,1.99-6.29c-0.93-2.18-3.36-2.92-5.4-1.62
			c-2.04,1.28-2.92,4.08-1.99,6.27C282.66,169.78,285.09,170.52,287.12,169.24z"/>
		<path fill="#FFFFFE" stroke="#000000" stroke-width="2" stroke-linecap="round" stroke-linejoin="round" d="M287.64,95.6c3.22,0,5.84,2.78,5.84,6.19c0,3.39-2.62,6.17-5.84,6.17c-3.22,0-5.84-2.78-5.84-6.17
			C281.8,98.38,284.42,95.6,287.64,95.6z"/>
		<path fill="#FFFFFE" stroke="#000000" stroke-width="2" stroke-linecap="round" stroke-linejoin="round" d="M291.22,56.03c2.12,1.42,2.83,5.04-3.41,3.49l-20.94-4.55l0.44,23.34c-0.78,1.2-2.08,1.89-4-0.64
			l-5.7-21.25l-21.38,6.56c-1.6,0.91-4.37,0.57-1.67-1.91l18-12.41l-14.41-17.64c-1.13-2.18,1.42-3.48,2.6-2.26l20.3,12.65
			l14.39-17.73c2.08-2.38,4.34-2.6,3.51-0.32l-10.36,22.08L291.22,56.03z"/>
		<path fill="#FFFFFE" stroke="#000000" stroke-width="2" stroke-linecap="round" stroke-linejoin="round" d="M290.66,376.83c0.84,1.59,0.51,3.8,0.79,5.72c-0.23,1.62-0.05,3.39-0.67,4.84
			c-0.54,1.25-1.49,2.5-2.57,2.72l-5.28,1.04l-0.01-0.01c1.03-2.42,1.71-5.09,1.95-7.93c0.22-2.63,0-5.03-0.59-7.22l3.56-0.39
			C288.84,375.47,290.12,375.77,290.66,376.83z"/>
		<path fill="#FFFFFE" stroke="#000000" stroke-width="2" stroke-linecap="round" stroke-linejoin="round" d="M289.55,404.61c0.4,1.52,1.36,4.22,0.62,5.62c-0.79,1.45-2.24,2.41-3.34,3.61l-1.72,0.3l-3.83,0.34
			c-2.82,0.27-0.83,4.25-2.7,5.26c-1.87,1.03-2.9,0.59-4.32,0.39c-1.01-0.12-1.84-0.88-2.77-1.33l-1.5-2.97
			c-0.49-0.96-1.18,1.75-1.74,2.63c0,0-3.57,1.38-4.52,1.47c-0.94,0.1-5.16-0.76-5.16-0.76c-1.08-1.47-3.41-2.58-3.24-4.39
			l0.61-6.44c0.23-2.21,1.5-4.18,2.24-6.24l0.15-0.27c1.88,0.99,3.94,1.61,6.13,1.79c5.78,0.48,11.2-2.19,14.99-6.79l0.01,0.01
			c0,0,3.1,1.13,3.59,1.43C285.5,399.74,288.79,401.81,289.55,404.61z"/>
		<path d="M289.11,162.95c0.94,2.19,0.05,5.01-1.99,6.29c-2.03,1.28-4.46,0.54-5.4-1.64c-0.93-2.19-0.05-4.99,1.99-6.27
			C285.75,160.03,288.18,160.77,289.11,162.95z"/>
		<path fill="#FFFFFE" stroke="#000000" stroke-width="2" stroke-linecap="round" stroke-linejoin="round" d="M284.28,375.99c0.59,2.19,0.81,4.59,0.59,7.22c-0.24,2.84-0.92,5.51-1.95,7.93
			c-0.9,2.11-2.07,4.02-3.47,5.69c-3.79,4.6-9.21,7.27-14.99,6.79c-2.19-0.18-4.25-0.8-6.13-1.79c-1.66-0.86-3.18-2-4.52-3.37
			c-4.29-4.38-6.75-11.07-6.14-18.34c0.18-2.09,0.82-4.5,1.75-6.93c0.38-1,0.8-2,1.26-2.98c0.87-1.19,1.81-2.95,2.71-4.41
			c0.68-1.13,1.35-2.07,1.82-3.02c0.61-0.77,1.22-1.44,1.82-1.99c3.6-3.37,6.48-3.05,11.07-1.06c1.24,0.54,2.47,1.13,3.65,1.78
			l-0.09,0.16c0.51,3.86-0.66,7.54-2.41,11.2l1.57,0.47c2.6-1.75,4.86-4.45,6.51-7.71l0.15-0.17
			C280.69,368.24,283.16,371.71,284.28,375.99z M262.45,376.51c0.2-2.07-1.4-3.91-3.53-4.08c-2.12-0.17-3.98,1.37-4.15,3.44
			c-0.18,2.09,1.4,3.9,3.53,4.1C260.44,380.14,262.28,378.59,262.45,376.51z"/>
		<path fill="#FFFFFE" stroke="#000000" stroke-width="2" stroke-linecap="round" stroke-linejoin="round" d="M277.48,365.46l-0.15,0.17c-1.65,3.26-3.91,5.96-6.51,7.71l-1.57-0.47c1.75-3.66,2.92-7.34,2.41-11.2
			l0.09-0.16C273.81,362.64,275.75,363.95,277.48,365.46z"/>
		<path fill="#FFFFFE" stroke="#000000" stroke-width="2" stroke-linecap="round" stroke-linejoin="round" d="M265.08,430.99c1.59-0.91,4.37-0.54,1.67,1.91l-18,12.41l14.41,17.63c1.13,2.19-1.42,3.49-2.62,2.29
			l-20.28-12.68l-14.39,17.74c-2.09,2.38-4.35,2.6-3.51,0.32l10.36-22.08l-22.66-10.59c-2.09-1.43-2.8-5.04,3.44-3.49l20.94,4.55
			L234,415.66c0.78-1.18,2.06-1.89,4,0.64l5.69,21.27L265.08,430.99z"/>
		<path fill="#FFFFFE" stroke="#000000" stroke-width="2" stroke-linecap="round" stroke-linejoin="round" d="M261.47,245.36c3.83,0,6.95,3.12,6.95,6.93c0,3.83-3.12,6.95-6.95,6.95c-3.81,0-6.93-3.12-6.93-6.95
			C254.54,248.48,257.66,245.36,261.47,245.36z"/>
		<path fill="#FFFFFE" stroke="#000000" stroke-width="2" stroke-linecap="round" stroke-linejoin="round" d="M266.06,150.77c1.91,4.42,0.12,10.1-4,12.67c-4.13,2.58-9.01,1.11-10.9-3.31c-1.92-4.4-0.13-10.1,4-12.68
			C259.28,144.87,264.17,146.35,266.06,150.77z M259.06,160.03c2.04-1.28,2.92-4.1,1.99-6.29c-0.96-2.18-3.36-2.92-5.4-1.64
			c-2.04,1.3-2.95,4.1-1.99,6.28C254.59,160.57,257.03,161.31,259.06,160.03z"/>
		<path fill="#FFFFFE" stroke="#000000" stroke-width="2" stroke-linecap="round" stroke-linejoin="round" d="M258.92,372.43c2.13,0.17,3.73,2.01,3.53,4.08c-0.17,2.08-2.01,3.63-4.15,3.46
			c-2.13-0.2-3.71-2.01-3.53-4.1C254.94,373.8,256.8,372.26,258.92,372.43z"/>
		<path d="M261.05,153.74c0.93,2.19,0.05,5.01-1.99,6.29c-2.03,1.28-4.47,0.54-5.4-1.65c-0.96-2.18-0.05-4.98,1.99-6.28
			C257.69,150.82,260.09,151.56,261.05,153.74z"/>
		<path fill="#FFFFFE" stroke="#000000" stroke-width="2" stroke-linecap="round" stroke-linejoin="round" d="M253.81,398.46l-0.89,2.29c-0.56,1.45-2.65,0-3.8-0.66c-1.28-0.74-2.16-2.26-3.24-3.39
			c-1.08-1.18-2.53-2.02-3.24-3.54c-0.84-1.72-1.18-3.83-1.23-5.85c-0.05-2.23,0.59-4.44,0.88-6.65l1.18-4.96
			c0.37-1.65,2.02-2.53,3.32-3.1c1.32-0.59,1.23,0.66,2.62,0.59h0.01c-0.93,2.43-1.57,4.84-1.75,6.93
			C247.06,387.39,249.52,394.08,253.81,398.46z"/>
		<path fill="#FFFFFE" stroke="#000000" stroke-width="2" stroke-linecap="round" stroke-linejoin="round" d="M248.43,220.33c3.81,0,6.93,3.12,6.93,6.93c0,3.83-3.12,6.95-6.93,6.95c-3.83,0-6.95-3.12-6.95-6.95
			C241.48,223.45,244.6,220.33,248.43,220.33z"/>
		<path fill="#FFFFFE" stroke="#000000" stroke-width="2" stroke-linecap="round" stroke-linejoin="round" d="M235.47,96.24c0.39,2.21,0.05,4.49,0.07,6.73l-0.42,5.08c-0.14,1.67-1.64,2.78-2.84,3.54
			c-1.23,0.76-1.33-0.48-2.69-0.22c0.57-2.53,0.85-5.02,0.72-7.12c-0.46-7.28-3.85-13.55-8.72-17.26l0.01-0.01l0.56-2.38
			c0.35-1.53,2.63-0.37,3.86,0.09c1.37,0.57,2.48,1.95,3.7,2.9c1.23,1.01,2.78,1.62,3.71,3.05
			C234.49,92.24,235.15,94.25,235.47,96.24z"/>
		<path fill="#FFFFFE" stroke="#000000" stroke-width="2" stroke-linecap="round" stroke-linejoin="round" d="M194.66,113.62c-0.89-2.09-1.45-4.45-1.62-7.09c-0.17-2.83,0.12-5.56,0.8-8.1
			c0.59-2.22,1.47-4.3,2.61-6.15h0.01c3.11-5.09,8.09-8.52,13.87-8.86c2.2-0.14,4.34,0.18,6.35,0.89c1.75,0.61,3.4,1.52,4.91,2.68
			c4.87,3.71,8.26,9.98,8.72,17.26c0.13,2.1-0.15,4.59-0.72,7.12c-1.15,5.16-3.45,10.54-5.76,13.39c-3.09,3.83-5.96,3.93-10.8,2.63
			c-1.31-0.35-2.61-0.76-3.88-1.24l0.07-0.19c-1.05-3.73-0.41-7.56,0.79-11.42l-1.62-0.22c-2.33,2.09-4.17,5.08-5.33,8.55l-0.13,0.2
			C199.35,120.78,196.4,117.7,194.66,113.62z M220.27,113.51c2.14-0.15,3.76-1.94,3.64-4.03c-0.13-2.06-1.97-3.66-4.08-3.54
			c-2.14,0.15-3.76,1.94-3.63,4.03C216.32,112.03,218.16,113.63,220.27,113.51z"/>
		<path fill="#FFFFFE" stroke="#000000" stroke-width="2" stroke-linecap="round" stroke-linejoin="round" d="M222.87,216.84c3.83,0,6.93,3.12,6.93,6.93c0,3.83-3.1,6.95-6.93,6.95s-6.94-3.12-6.94-6.95
			C215.93,219.96,219.04,216.84,222.87,216.84z"/>
		<path fill="#FFFFFE" stroke="#000000" stroke-width="2" stroke-linecap="round" stroke-linejoin="round" d="M223.91,109.48c0.12,2.09-1.5,3.88-3.64,4.03c-2.11,0.12-3.95-1.48-4.07-3.54
			c-0.13-2.09,1.49-3.88,3.63-4.03C221.94,105.82,223.78,107.42,223.91,109.48z"/>
		<path fill="#FFFFFE" stroke="#000000" stroke-width="2" stroke-linecap="round" stroke-linejoin="round" d="M218.09,77.52c0.09,2.21-0.89,4.35-1.33,6.51l-0.08,0.28c-2.01-0.71-4.15-1.03-6.35-0.89
			c-5.78,0.34-10.76,3.77-13.87,8.86h-0.01c-0.2-0.04-3.25-0.67-3.75-0.88c-2.63-1.13-6.21-2.7-7.34-5.35
			c-0.61-1.45-1.94-3.98-1.42-5.48c0.56-1.55,1.86-2.7,2.79-4.05l1.65-0.55l3.73-0.88c2.75-0.66,0.22-4.32,1.94-5.6
			c1.7-1.28,2.78-0.98,4.22-1.01c1.01-0.02,1.94,0.62,2.93,0.91l1.91,2.75c0.61,0.86,0.91-1.91,1.35-2.87c0,0,3.34-1.87,4.25-2.09
			c0.91-0.24,5.2,0,5.2,0c1.3,1.3,3.78,2.06,3.86,3.88L218.09,77.52z"/>
		<path fill="#FFFFFE" stroke="#000000" stroke-width="2" stroke-linecap="round" stroke-linejoin="round" d="M205.47,372.11c3.83,0,6.95,3.12,6.95,6.93c0,3.83-3.12,6.95-6.95,6.95c-3.81,0-6.93-3.12-6.93-6.95
			C198.54,375.23,201.66,372.11,205.47,372.11z"/>
		<path fill="#FFFFFE" stroke="#000000" stroke-width="2" stroke-linecap="round" stroke-linejoin="round" d="M208.39,114.32l1.62,0.22c-1.2,3.86-1.84,7.69-0.79,11.42l-0.07,0.19c-2.2-0.82-4.3-1.83-6.22-3.08
			l0.13-0.2C204.22,119.4,206.06,116.41,208.39,114.32z"/>
		<path fill="#FFFFFE" stroke="#000000" stroke-width="2" stroke-linecap="round" stroke-linejoin="round" d="M200.68,163.22c0.56,1.58-0.32,3.22-1.1,4.4c-0.79,1.23-1.4,0.12-2.53,0.93h-0.01
			c-0.53-2.53-1.31-4.9-2.3-6.75c-3.43-6.44-9.13-10.72-15.1-12.08v-0.01l-0.49-2.4c-0.3-1.53,2.23-1.45,3.56-1.5
			c1.47-0.1,3.04,0.71,4.56,1.08c1.55,0.39,3.2,0.32,4.65,1.23c1.62,0.98,3.04,2.55,4.19,4.22c1.26,1.84,1.92,4.06,2.88,6.09
			L200.68,163.22z"/>
		<path fill="#FFFFFE" stroke="#000000" stroke-width="2" stroke-linecap="round" stroke-linejoin="round" d="M166.24,185.15c-1.68-1.53-3.17-3.43-4.42-5.76c-1.34-2.51-2.22-5.13-2.66-7.72
			c-0.39-2.27-0.44-4.52-0.17-6.68c0.71-5.92,3.81-11.1,8.91-13.83c1.95-1.04,4.03-1.64,6.15-1.82c1.85-0.18,3.74-0.05,5.59,0.38
			c5.97,1.36,11.67,5.64,15.1,12.08c0.99,1.85,1.77,4.22,2.3,6.75c1.11,5.17,1.26,11.03,0.35,14.57c-1.2,4.79-3.78,6.07-8.74,6.9
			c-1.33,0.22-2.68,0.39-4.03,0.49l-0.02-0.19c-2.48-2.98-3.51-6.71-4.03-10.71l-1.57,0.44c-1.25,2.87-1.67,6.36-1.28,10l-0.04,0.26
			C173.47,189.71,169.5,188.14,166.24,185.15z M189.48,174.35c1.87-0.98,2.61-3.29,1.62-5.13c-0.98-1.85-3.31-2.53-5.18-1.53
			c-1.89,1.01-2.62,3.32-1.64,5.16C185.26,174.69,187.59,175.36,189.48,174.35z"/>
		<path fill="#FFFFFE" stroke="#000000" stroke-width="2" stroke-linecap="round" stroke-linejoin="round" d="M194.66,113.62l-3.46,0.89c-0.98,0.27-2.28,0.15-2.97-0.83c-1.03-1.45-1.05-3.69-1.57-5.53
			c-0.02-1.62-0.44-3.36-0.05-4.89c0.37-1.3,1.13-2.7,2.16-3.07l5.07-1.76c-0.68,2.54-0.97,5.27-0.8,8.1
			C193.21,109.17,193.77,111.53,194.66,113.62z"/>
		<path fill="#FFFFFE" stroke="#000000" stroke-width="2" stroke-linecap="round" stroke-linejoin="round" d="M191.1,169.22c0.99,1.84,0.25,4.15-1.62,5.13c-1.89,1.01-4.22,0.34-5.2-1.5
			c-0.98-1.84-0.25-4.15,1.64-5.16C187.79,166.69,190.12,167.37,191.1,169.22z"/>
		<path fill="#FFFFFE" stroke="#000000" stroke-width="2" stroke-linecap="round" stroke-linejoin="round" d="M190.37,61.31c2.53,0.2,4.96,2.95-1.23,4.74l-20.4,6.54l12.05,19.96c-0.09,1.45-0.86,2.68-3.8,1.48
			l-15.57-15.57l-15.22,16.4c-0.93,1.58-3.51,2.66-2.41-0.83l9.38-19.75l-21.28-8.06c-2.06-1.32-0.52-3.73,1.13-3.29l23.89,0.84
			l3.6-22.55c0.64-3.12,2.46-4.45,2.9-2.07l2.06,24.32L190.37,61.31z"/>
		<path fill="#FFFFFE" stroke="#000000" stroke-width="2" stroke-linecap="round" stroke-linejoin="round" d="M185.9,325.71c1.42,0,2.6,1.18,2.6,2.6c0,1.45-1.18,2.61-2.6,2.61s-2.6-1.16-2.6-2.61
			C183.3,326.89,184.48,325.71,185.9,325.71z"/>
		<path fill="#FFFFFE" stroke="#000000" stroke-width="2" stroke-linecap="round" stroke-linejoin="round" d="M184.6,190.32l0.02,0.19c-2.34,0.17-4.67,0.13-6.94-0.2l0.04-0.26c-0.39-3.64,0.03-7.13,1.28-10l1.57-0.44
			C181.09,183.61,182.12,187.34,184.6,190.32z"/>
		<path fill="#FFFFFE" stroke="#000000" stroke-width="2" stroke-linecap="round" stroke-linejoin="round" d="M174.02,149.05l0.03,0.29c-2.12,0.18-4.2,0.78-6.15,1.82c-5.1,2.73-8.2,7.91-8.91,13.83
			c0,0-3.21,0.76-3.78,0.76c-2.87,0.1-6.77,0.15-8.91-1.79c-1.15-1.06-3.44-2.82-3.56-4.37c-0.15-1.65,0.56-3.24,0.83-4.87
			l1.28-1.17l3.02-2.36c2.23-1.77-1.6-4.03-0.56-5.9c1.03-1.86,2.11-2.06,3.41-2.68c0.93-0.44,2.04-0.27,3.04-0.39l2.9,1.7
			c0.91,0.54,0.02-2.12,0.02-3.17c0,0,2.24-3.1,2.97-3.69c0.74-0.56,4.77-2.16,4.77-2.16c1.69,0.67,4.27,0.32,5.1,1.94l2.98,5.75
			C173.53,144.56,173.5,146.89,174.02,149.05z"/>
		<path fill="#FFFFFE" stroke="#000000" stroke-width="2" stroke-linecap="round" stroke-linejoin="round" d="M171.19,413.55c1.82,0.02,4.06,1.72,0.5,2.5l-21.81,1.75l3.69,22.47c-0.13,2.46-3,2.31-3.42,0.67
			l-11.24-21.13l-21.31,8.16c-3.02,1.03-5.06,0.09-3.22-1.48l20.01-13.93l-14.31-20.51c-1.11-2.28,0.07-5.77,4.71-1.3l15.86,14.4
			l11.27-20.41c1.28-0.64,2.75-0.59,3.14,2.55l-5.67,21.27L171.19,413.55z"/>
		<path fill="#FFFFFE" stroke="#000000" stroke-width="2" stroke-linecap="round" stroke-linejoin="round" d="M166.24,185.15l-2.75,2.27c-0.82,0.64-2.04,1.08-3.07,0.46c-1.55-0.88-2.48-2.92-3.74-4.37
			c-0.68-1.47-1.79-2.87-2.06-4.42c-0.24-1.33-0.12-2.92,0.66-3.68l3.88-3.74c0.44,2.59,1.32,5.21,2.66,7.72
			C163.07,181.72,164.56,183.62,166.24,185.15z"/>
		<path fill="#FFFFFE" stroke="#000000" stroke-width="2" stroke-linecap="round" stroke-linejoin="round" d="M164.91,336.32c0.32,2.32,0.43,4.66,0.26,6.95l-0.26-0.02c-3.61,0.64-7.12,0.44-10.07-0.62l-0.54-1.54
			c3.96-0.77,7.61-2.04,10.41-4.74L164.91,336.32z"/>
		<path fill="#FFFFFE" stroke="#000000" stroke-width="2" stroke-linecap="round" stroke-linejoin="round" d="M160.78,355.03c-1.41,1.78-3.2,3.4-5.45,4.8c-2.41,1.5-4.96,2.55-7.51,3.16
			c-2.24,0.54-4.48,0.74-6.65,0.63c-5.96-0.33-11.32-3.08-14.39-7.99c-1.16-1.87-1.9-3.9-2.24-6.01c-0.29-1.83-0.28-3.72,0.02-5.61
			c0.94-6.05,4.83-12.03,11.03-15.87c1.78-1.11,4.09-2.04,6.58-2.75c5.08-1.45,10.92-1.99,14.51-1.33c4.87,0.91,6.29,3.39,7.47,8.26
			c0.31,1.32,0.57,2.65,0.76,4l-0.2,0.03c-2.8,2.7-6.45,3.97-10.41,4.74l0.54,1.54c2.95,1.06,6.46,1.26,10.07,0.62l0.26,0.02
			C164.85,347.51,163.54,351.58,160.78,355.03z M147.31,337.82c1.76-1.11,2.3-3.46,1.17-5.26c-1.13-1.81-3.48-2.41-5.25-1.3
			c-1.77,1.11-2.28,3.49-1.15,5.28C143.21,338.36,145.54,338.92,147.31,337.82z"/>
		<path fill="#FFFFFE" stroke="#000000" stroke-width="2" stroke-linecap="round" stroke-linejoin="round" d="M163.21,357.64c0.69,0.74,1.21,1.94,0.69,3.02c-0.78,1.6-2.75,2.68-4.12,4.03
			c-1.43,0.79-2.73,1.97-4.27,2.33c-1.31,0.32-2.9,0.32-3.74-0.41l-3.95-3.61v-0.01c2.55-0.61,5.1-1.66,7.51-3.16
			c2.25-1.4,4.04-3.02,5.45-4.8L163.21,357.64z"/>
		<path fill="#FFFFFE" stroke="#000000" stroke-width="2" stroke-linecap="round" stroke-linejoin="round" d="M148.48,332.56c1.13,1.8,0.59,4.15-1.17,5.26c-1.77,1.1-4.1,0.54-5.23-1.28
			c-1.13-1.79-0.62-4.17,1.15-5.28C145,330.15,147.35,330.75,148.48,332.56z"/>
		<path fill="#FFFFFE" stroke="#000000" stroke-width="2" stroke-linecap="round" stroke-linejoin="round" d="M121.2,223.36c-2.23-0.42-4.5-1.25-6.79-2.58c-2.46-1.43-4.58-3.19-6.32-5.17
			c-1.52-1.73-2.74-3.62-3.65-5.59c-2.5-5.41-2.59-11.45,0.32-16.46c1.1-1.9,2.55-3.5,4.25-4.77c1.49-1.14,3.17-2.01,4.98-2.62
			c5.79-2,12.88-1.34,19.17,2.33c1.82,1.05,3.73,2.66,5.53,4.54c3.65,3.81,6.85,8.72,7.95,12.21c1.48,4.72-0.05,7.15-3.83,10.47
			c-1.01,0.89-2.07,1.74-3.16,2.53l-0.13-0.18c-3.68-1.18-6.5-3.83-9.06-6.97l-1.08,1.2c0.45,3.1,1.92,6.31,4.15,9.19l0.1,0.24
			C129.73,223.43,125.54,224.18,121.2,223.36z M135.3,201.96c1.08-1.84,0.47-4.2-1.33-5.23c-1.79-1.06-4.12-0.42-5.2,1.42
			s-0.49,4.2,1.33,5.23C131.89,204.44,134.22,203.8,135.3,201.96z"/>
		<path fill="#FFFFFE" stroke="#000000" stroke-width="2" stroke-linecap="round" stroke-linejoin="round" d="M142.17,367.34c0.27,2.85,0.59,6.73-1.2,8.99c-0.98,1.26-2.58,3.64-4.12,3.86
			c-1.62,0.25-3.27-0.34-4.91-0.52l-1.26-1.2l-2.55-2.85c-1.91-2.11-3.9,1.87-5.84,0.96c-1.94-0.88-2.19-1.96-2.9-3.24
			c-0.49-0.89-0.39-1.99-0.59-3l1.5-3c0.47-0.95-2.11,0.13-3.14,0.18c0,0-3.27-2.04-3.88-2.73c-0.64-0.69-2.48-4.59-2.48-4.59
			c0.54-1.75,0.02-4.3,1.59-5.24l5.53-3.36c1.89-1.13,4.22-1.28,6.33-1.94l0.29-0.04c0.34,2.11,1.08,4.14,2.24,6.01
			c3.07,4.91,8.43,7.66,14.39,7.99C141.23,363.82,142.13,366.8,142.17,367.34z"/>
		<path fill="#FFFFFE" stroke="#000000" stroke-width="2" stroke-linecap="round" stroke-linejoin="round" d="M141.09,322.91c1.26,0.71,0.2,1.4,1.08,2.48c-2.49,0.71-4.8,1.64-6.58,2.75
			c-6.2,3.84-10.09,9.82-11.03,15.87h-0.01l-2.36,0.64c-1.5,0.42-1.6-2.11-1.74-3.44c-0.18-1.47,0.51-3.1,0.76-4.64
			c0.32-1.58,0.12-3.2,0.93-4.72c0.88-1.67,2.36-3.22,3.93-4.45c1.77-1.4,3.93-2.18,5.89-3.26l4.67-2.04
			C138.17,321.44,139.87,322.22,141.09,322.91z"/>
		<path fill="#FFFFFE" stroke="#000000" stroke-width="2" stroke-linecap="round" stroke-linejoin="round" d="M138.98,186.58c1.33,1.06,1.43,2.93,1.38,4.33c-0.05,1.45-1.13,0.83-1.67,2.13
			c-1.8-1.88-3.71-3.49-5.53-4.54c-6.29-3.67-13.38-4.33-19.17-2.33l-1.69-1.8c-1.06-1.15,1.15-2.4,2.23-3.14
			c1.23-0.86,2.97-1.01,4.47-1.5c1.52-0.47,2.9-1.4,4.59-1.4c1.91,0,3.95,0.59,5.79,1.4c2.04,0.91,3.76,2.46,5.63,3.68
			L138.98,186.58z"/>
		<path fill="#FFFFFE" stroke="#000000" stroke-width="2" stroke-linecap="round" stroke-linejoin="round" d="M139.52,218.07l0.13,0.18c-1.9,1.38-3.92,2.57-6.02,3.48l-0.1-0.24c-2.23-2.88-3.7-6.09-4.15-9.19
			l1.08-1.2C133.02,214.24,135.84,216.89,139.52,218.07z"/>
		<path fill="#FFFFFE" stroke="#000000" stroke-width="2" stroke-linecap="round" stroke-linejoin="round" d="M133.97,196.73c1.8,1.03,2.41,3.39,1.33,5.23c-1.08,1.84-3.41,2.48-5.2,1.42
			c-1.82-1.03-2.41-3.39-1.33-5.23S132.18,195.67,133.97,196.73z"/>
		<path fill="#FFFFFE" stroke="#000000" stroke-width="2" stroke-linecap="round" stroke-linejoin="round" d="M108.62,292.49c-2.1,0.84-4.46,1.36-7.1,1.46c-2.84,0.11-5.57-0.23-8.1-0.97
			c-2.21-0.63-4.27-1.56-6.09-2.74c-5.02-3.21-8.33-8.25-8.57-14.05c-0.09-2.19,0.27-4.31,1.02-6.3c0.64-1.75,1.59-3.4,2.79-4.89
			c3.8-4.79,10.14-8.07,17.43-8.36c2.09-0.09,4.55,0.24,7.07,0.86c5.13,1.25,10.47,3.65,13.25,6.02c3.78,3.16,3.83,6.04,2.43,10.88
			c-0.37,1.29-0.8,2.57-1.31,3.82l-0.18-0.07c-3.76,0.99-7.56,0.28-11.39-1l-0.27,1.62c2.03,2.36,4.98,4.27,8.44,5.5l0.2,0.14
			C115.87,287.95,112.73,290.84,108.62,292.49z M105.4,270.86c2.08-0.07,3.7-1.89,3.61-4c-0.08-2.14-1.85-3.81-3.93-3.71
			c-2.09,0.07-3.71,1.86-3.61,4C101.57,269.29,103.31,270.96,105.4,270.86z"/>
		<path fill="#FFFFFE" stroke="#000000" stroke-width="2" stroke-linecap="round" stroke-linejoin="round" d="M121.26,278.15l0.18,0.07c-0.86,2.19-1.91,4.28-3.2,6.19l-0.2-0.14c-3.46-1.23-6.41-3.14-8.44-5.5
			l0.27-1.62C113.7,278.43,117.5,279.14,121.26,278.15z"/>
		<path fill="#FFFFFE" stroke="#000000" stroke-width="2" stroke-linecap="round" stroke-linejoin="round" d="M121.2,223.36l-1.17,3.36c-0.34,0.96-1.15,1.99-2.36,2.01c-1.77,0.08-3.63-1.15-5.47-1.74
			c-1.35-0.91-3.02-1.5-4.08-2.68c-0.91-1.03-1.64-2.43-1.35-3.51l1.32-5.19c1.74,1.98,3.86,3.74,6.32,5.17
			C116.7,222.11,118.97,222.94,121.2,223.36z"/>
		<path fill="#FFFFFE" stroke="#000000" stroke-width="2" stroke-linecap="round" stroke-linejoin="round" d="M112.98,148.21c0.64,1.28,0.59,2.73-2.57,3.15l-21.24-5.67l-4.99,21.78c-0.02,1.85-1.71,4.08-2.5,0.52
			l-1.74-21.81l-22.47,3.68c-2.45-0.12-2.3-3-0.66-3.41L77.9,135.2l-8.15-21.32c-1.01-3.03-0.07-5.09,1.47-3.22l13.95,19.99
			l20.5-14.29c2.28-1.13,5.77,0.07,1.3,4.69l-14.41,15.87L112.98,148.21z"/>
		<path fill="#FFFFFE" stroke="#000000" stroke-width="2" stroke-linecap="round" stroke-linejoin="round" d="M109.45,295.94c0.24,1.01,0.1,2.28-0.89,2.97c-1.47,1.01-3.7,0.98-5.57,1.45c-1.62,0-3.36,0.39-4.86-0.05
			c-1.3-0.37-2.7-1.15-3.04-2.21l-1.67-5.11v-0.01c2.53,0.74,5.26,1.08,8.1,0.97c2.64-0.1,5-0.62,7.1-1.46L109.45,295.94z"/>
		<path fill="#FFFFFE" stroke="#000000" stroke-width="2" stroke-linecap="round" stroke-linejoin="round" d="M109.01,266.86c0.09,2.11-1.53,3.93-3.61,4c-2.09,0.1-3.83-1.57-3.93-3.71c-0.1-2.14,1.52-3.93,3.61-4
			C107.16,263.05,108.93,264.72,109.01,266.86z"/>
		<path fill="#FFFFFE" stroke="#000000" stroke-width="2" stroke-linecap="round" stroke-linejoin="round" d="M108.83,188.55l0.18,0.24c-1.7,1.27-3.15,2.87-4.25,4.77c-2.91,5.01-2.82,11.05-0.32,16.46
			c0,0-2.36,2.33-2.82,2.62c-2.41,1.6-5.68,3.69-8.52,3.17c-1.55-0.29-4.4-0.59-5.33-1.86c-0.98-1.33-1.23-3.05-1.84-4.57l0.49-1.67
			l1.3-3.61c0.98-2.66-3.46-2.58-3.56-4.69c-0.12-2.14,0.71-2.88,1.5-4.11c0.54-0.83,1.57-1.27,2.38-1.91l3.34-0.08
			c1.05-0.02-1.08-1.81-1.62-2.7c0,0,0.27-3.83,0.59-4.71c0.32-0.89,2.89-4.33,2.89-4.33c1.8-0.34,3.81-1.99,5.38-1.05l5.55,3.31
			C106.06,184.99,107.29,186.98,108.83,188.55z"/>
		<path fill="#FFFFFE" stroke="#000000" stroke-width="2" stroke-linecap="round" stroke-linejoin="round" d="M107.34,254.82c0.76,1.23-0.52,1.3-0.27,2.68c-2.52-0.62-4.98-0.95-7.07-0.86
			c-7.29,0.29-13.63,3.57-17.43,8.36l-0.01-0.01l-2.38-0.61c-1.52-0.37-0.34-2.63,0.17-3.84c0.59-1.37,1.99-2.43,2.98-3.66
			c1.03-1.23,1.66-2.75,3.11-3.66c1.6-1.03,3.64-1.62,5.65-1.91c2.21-0.35,4.47,0.02,6.7,0.05l5.09,0.54
			C105.52,252.07,106.62,253.59,107.34,254.82z"/>
		<path fill="#FFFFFE" stroke="#000000" stroke-width="2" stroke-linecap="round" stroke-linejoin="round" d="M98.6,351.48c1.57,0.93,2.65,3.51-0.81,2.4l-19.77-9.38l-8.05,21.3c-1.33,2.06-3.73,0.51-3.27-1.13
			l0.81-23.9l-22.53-3.61c-3.12-0.62-4.42-2.46-2.07-2.88l24.31-2.06l-2.14-24.93c0.18-2.53,2.95-4.96,4.72,1.23l6.55,20.41
			l15.52-9.36c1.1-0.52,2.16-1.05,2.99-1.38c2.09-0.83,2.73-0.37,2.97,0.27c0.25,0.64,0.08,1.43-0.78,2.61
			c-0.28,0.38-0.64,0.81-0.93,1.24c0,0.01,0,0.01-0.01,0.02l-13.89,13.92L98.6,351.48z"/>
		<path fill="#FFFFFE" stroke="#000000" stroke-width="2" stroke-linecap="round" stroke-linejoin="round" d="M87.33,290.24c0,0-0.71,3.24-0.96,3.76c-1.18,2.6-2.8,6.14-5.48,7.22c-1.47,0.59-4.02,1.89-5.49,1.33
			c-1.55-0.59-2.68-1.92-4.03-2.88L70.9,298l-0.83-3.76c-0.62-2.75-4.3-0.29-5.55-2.03c-1.25-1.72-0.93-2.8-0.93-4.25
			c0-1.01,0.66-1.92,0.98-2.9l2.77-1.87c0.89-0.59-1.89-0.93-2.82-1.4c0,0-1.82-3.36-2.04-4.3c-0.2-0.91,0.12-5.21,0.12-5.21
			c1.33-1.25,2.14-3.73,3.98-3.78l6.46-0.17c2.21-0.07,4.29,0.96,6.46,1.45l0.28,0.11c-0.75,1.99-1.11,4.11-1.02,6.3
			C79,281.99,82.31,287.03,87.33,290.24z"/>
		<path fill="#FFFFFE" stroke="#000000" stroke-width="2" stroke-linecap="round" stroke-linejoin="round" d="M82.05,230.31c1.2,0.78,1.89,2.08-0.64,4.02l-21.24,5.7l6.58,21.37c0.89,1.62,0.54,4.37-1.91,1.7
			l-12.42-18.01l-17.61,14.42c-2.18,1.11-3.48-1.42-2.28-2.63l12.64-20.29l-17.7-14.39c-2.38-2.11-2.6-4.35-0.34-3.54l22.07,10.37
			l10.61-22.65c1.42-2.11,5.03-2.82,3.46,3.42l-4.52,20.95L82.05,230.31z"/>
					<path fill="none" stroke="#000000" stroke-width="2.345" stroke-linecap="round" stroke-linejoin="round" stroke-miterlimit="10" d="
			M251.01,139.5c2.65-0.79,5.33-1.58,7.76-1.7c2.4-0.1,4.59,0.47,6.55,0.86c1.94,0.39,3.64,0.61,5.36,0.84"/>
		<path fill="none" stroke="#000000" stroke-width="2.345" stroke-linecap="round" stroke-linejoin="round" stroke-miterlimit="10" d="
			M288.25,144.58c3.05,1.45,6.07,2.9,8.72,4.89c2.65,1.96,4.93,4.44,7.19,6.95"/>
		<path fill="none" stroke="#000000" stroke-width="2.345" stroke-linecap="round" stroke-linejoin="round" stroke-miterlimit="10" d="
			M295.32,184.57c-4.56,4.94-9.15,9.87-14.87,13.16c-5.75,3.3-12.62,4.92-18.44,4.75c-5.8-0.18-10.51-2.19-14.14-5.65
			c-3.66-3.47-6.24-8.4-7.56-12.19c-1.31-3.78-1.35-6.41-1.18-9.63c0.19-3.2,0.59-7.01,1-10.83c0-0.01,0-0.01,0-0.02"/>
		<path fill="none" stroke="#000000" stroke-width="2.345" stroke-linecap="round" stroke-linejoin="round" stroke-miterlimit="10" d="
			M293.83,182.38c1.54,1.28,3.09,2.56,4.61,3.81"/>
		<path fill="none" stroke="#000000" stroke-width="2.345" stroke-linecap="round" stroke-linejoin="round" stroke-miterlimit="10" d="
			M236.21,165.11c1.3-0.31,2.61-0.62,3.92-0.93c1.32-0.32,2.64-0.64,3.96-0.96"/>
	</g>
</g>
</svg>
