<?xml version="1.0" encoding="utf-8"?>
<svg version="1.2" baseProfile="tiny" id="Layer_1" xmlns="http://www.w3.org/2000/svg" xmlns:xlink="http://www.w3.org/1999/xlink"
	 x="0px" y="0px" width="590.44px" height="590.38px" viewBox="0 0 590.44 590.38" xml:space="preserve">
<g>
	<g id="XMLID_1_">
		<g>
			<path fill="#FFFFFE" stroke="#000000" stroke-width="2" stroke-linecap="round" stroke-linejoin="round" d="M149.77,385.72c-0.08,0.31-1.78,6.66-2.3,7.67c-2.65,5.32-6.36,12.51-11.99,14.55
				c-3.07,1.09-8.5,3.53-11.5,2.23c-3.13-1.34-5.38-4.2-8.06-6.3l-0.89-3.47l-1.39-7.85c-1.02-5.79-8.88-1-11.31-4.7
				c-2.43-3.71-1.71-5.89-1.57-8.89c0.09-2.12,1.5-3.96,2.27-5.93l5.91-3.66c1.86-1.14-3.82-2.1-5.75-3.14c0,0-3.48-7.14-3.82-9.05
				c-0.36-1.91,0.69-10.8,0.69-10.8c2.86-2.5,4.74-7.54,8.54-7.5l13.4,0.18c4.59,0.05,8.87,2.37,13.3,3.55l0.53,0.22
				c-1.72,4.07-2.65,8.46-2.65,13.03C133.18,367.88,139.64,378.62,149.77,385.72z"/>
			<path fill="#FFFFFE" stroke="#000000" stroke-width="2" stroke-linecap="round" stroke-linejoin="round" d="M194.28,313.97c1.43,2.63-1.18,2.68-0.79,5.54v0.01c-5.17-1.48-10.26-2.39-14.61-2.39
				c-15.14,0-28.56,6.24-36.87,15.84l-4.87-1.48c-3.09-0.91-0.46-5.48,0.72-7.95c1.3-2.8,4.3-4.89,6.43-7.32
				c2.28-2.44,3.73-5.53,6.8-7.32c3.41-1.98,7.68-3.05,11.84-3.5c4.61-0.53,9.29,0.45,13.95,0.68l10.43,1.57
				C190.76,308.15,192.87,311.37,194.28,313.97z"/>
			<path fill="#FFFFFE" stroke="#000000" stroke-width="2" stroke-linecap="round" stroke-linejoin="round" d="M195.14,399.42c0.41,2.07,0.03,4.75-2.09,6.07c-3.13,1.95-7.77,1.7-11.65,2.54
				c-3.36-0.18-7,0.5-10.11-0.52c-2.68-0.91-5.48-2.66-6.09-4.86l-3.05-10.73c5.18,1.73,10.82,2.68,16.73,2.68
				c5.48,0,10.41-0.87,14.84-2.45L195.14,399.42z"/>
			<path fill="#FFFFFE" stroke="#000000" stroke-width="2" stroke-linecap="round" stroke-linejoin="round" d="M221.12,363.57l0.37,0.17c-1.97,4.44-4.34,8.68-7.16,12.51l-0.42-0.31c-7.02-2.85-12.99-7.05-17.02-12.14
				l0.71-3.32C205.44,363.48,213.28,365.25,221.12,363.57z"/>
			<path fill="#FFFFFE" stroke="#000000" stroke-width="2" stroke-linecap="round" stroke-linejoin="round" d="M149.77,385.72c-10.13-7.1-16.59-17.84-16.59-29.86c0-4.57,0.93-8.96,2.65-13.03
				c1.5-3.56,3.59-6.87,6.18-9.86c8.31-9.6,21.73-15.84,36.87-15.84c4.35,0,9.44,0.91,14.61,2.39c10.53,3.04,21.38,8.48,26.97,13.59
				c7.59,6.91,7.4,12.86,4.09,22.75c-0.9,2.67-1.91,5.31-3.06,7.88l-0.37-0.17c-7.84,1.68-15.68-0.09-23.52-3.09l-0.71,3.32
				c4.03,5.09,10,9.29,17.02,12.14l0.42,0.31c-5.21,7.12-11.96,12.85-20.61,15.9c-4.43,1.58-9.36,2.45-14.84,2.45
				c-5.91,0-11.55-0.95-16.73-2.68C157.62,390.41,153.45,388.31,149.77,385.72z M196.71,339.06c0-4.41-3.52-8.02-7.84-8.02
				c-4.31,0-7.84,3.61-7.84,8.02c0,4.41,3.53,8,7.84,8C193.19,347.06,196.71,343.47,196.71,339.06z"/>
			<path fill="#FFFFFE" stroke="#000000" stroke-width="2" stroke-linecap="round" stroke-linejoin="round" d="M227.27,252.13c6.16,0,11.16,5.1,11.16,11.32c0,6.26-5,11.35-11.16,11.35c-6.13,0-11.15-5.09-11.15-11.35
				C216.12,257.23,221.14,252.13,227.27,252.13z"/>
			<path fill="#FFFFFE" stroke="#000000" stroke-width="2" stroke-linecap="round" stroke-linejoin="round" d="M243.7,67.16c14.45-2.55,30.99,12.57,10.11,21.34c1.98,1.05,1.86,3.14,0.23,5.78v0.01
				c-3.9-0.45-8.13,0.74-11.84,4.35c-1.59-8.14-14.4-27.89-26.99-0.48c-5.5-9.95-18.36-11.61-22.22,5.71
				c-6.91-1.71-14.49,4.44-14.33,11.33c-10.06,11.72-34.39,6.74-35.73-8.9c-13.79-2.97-17.54-22.37,1.3-27.78
				c-13.43-12.73,12.92-29,30.76-16.59c2.2-8.12,20.09-27.87,37.67-0.46C220.32,51.49,238.29,49.84,243.7,67.16z"/>
			<path fill="#FFFFFE" stroke="#000000" stroke-width="2" stroke-linecap="round" stroke-linejoin="round" d="M244,326.72c6.72,0,12.2,4.86,12.2,10.82c0,5.93-5.48,10.8-12.2,10.8c-6.71,0-12.18-4.87-12.18-10.8
				C231.82,331.58,237.29,326.72,244,326.72z"/>
			<path fill="#FFFFFE" stroke="#000000" stroke-width="2" stroke-linecap="round" stroke-linejoin="round" d="M242.45,301.21c0,5.3-4.45,9.6-9.93,9.6c-5.45,0-9.93-4.3-9.93-9.6c0-5.27,4.48-9.57,9.93-9.57
				C238,291.64,242.45,295.94,242.45,301.21z"/>
			<path fill="#FFFFFE" stroke="#000000" stroke-width="2" stroke-linecap="round" stroke-linejoin="round" d="M242.38,511.51c2.87,0.57,5.84,3.82,0.07,4.03l-34.42-3.46l-0.64,36.03c-0.88,3.78-5.29,2.73-5.5,0.05
				l-11.49-36.03l-35.5,6.63c-4.97,0.71-7.9-1.31-4.58-3.22l35.08-16.01l-16.45-35.98c-1.09-3.87,1.75-8.96,7.68-0.69l20.61,26.92
				l23.33-28.57c2.18-0.64,4.45-0.16,4.18,4.86l-12.88,33.8L242.38,511.51z"/>
			<path fill="#FFFFFE" stroke="#000000" stroke-width="2" stroke-linecap="round" stroke-linejoin="round" d="M239.13,180.71c4.8,0,8.71,4,8.71,8.89c0,4.91-3.91,8.88-8.71,8.88c-4.79,0-8.72-3.97-8.72-8.88
				C230.41,184.71,234.34,180.71,239.13,180.71z"/>
			<path fill="#FFFFFE" stroke="#000000" stroke-width="2" stroke-linecap="round" stroke-linejoin="round" d="M178.66,115.2c-0.16-6.89,7.42-13.04,14.33-11.33c3.86-17.32,16.72-15.66,22.22-5.71
				c12.59-27.41,25.4-7.66,26.99,0.48c3.71-3.61,7.94-4.8,11.84-4.35c9.5,1.1,17.01,11.92,10.18,20.95
				c13.52,5.41,10.81,24.8,0.95,27.75c-1.02,16.46-20.27,21.12-26.65,6.94c-12.7,19.37-30.79,8.07-28.54-6.78
				c-18.74,10.19-34.44-10.34-24.26-17.96C180.74,122.27,178.73,118.65,178.66,115.2z"/>
			<path fill="#FFFFFE" stroke="#000000" stroke-width="2" stroke-linecap="round" stroke-linejoin="round" d="M259.01,268.52c5.39,0,9.78,4,9.78,8.87c0,4.89-4.39,8.87-9.78,8.87c-5.38,0-9.79-3.98-9.79-8.87
				C249.22,272.52,253.63,268.52,259.01,268.52z"/>
			<path fill="#FFFFFE" stroke="#000000" stroke-width="2" stroke-linecap="round" stroke-linejoin="round" d="M278.01,202.33c6.63,0,12.04,5.27,12.04,11.73c0,6.45-5.41,11.73-12.04,11.73
				c-6.66,0-12.07-5.28-12.07-11.73C265.94,207.6,271.35,202.33,278.01,202.33z"/>
			<path fill="#FFFFFE" stroke="#000000" stroke-width="2" stroke-linecap="round" stroke-linejoin="round" d="M301.69,238.95c3.63,0,6.59,2.95,6.59,6.59c0,3.64-2.96,6.59-6.59,6.59c-3.62,0-6.57-2.95-6.57-6.59
				C295.12,241.9,298.07,238.95,301.69,238.95z"/>
			<path fill="#FFFFFE" stroke="#000000" stroke-width="2" stroke-linecap="round" stroke-linejoin="round" d="M301.64,279.68c7.77,0,14.11,5.8,14.11,12.89c0,7.12-6.34,12.89-14.11,12.89
				c-7.77,0-14.09-5.77-14.09-12.89C287.55,285.48,293.87,279.68,301.64,279.68z"/>
			<path fill="#FFFFFE" stroke="#000000" stroke-width="2" stroke-linecap="round" stroke-linejoin="round" d="M329.7,94.18l-0.02,0.01l-10.86-2.12L304.8,90.5l-6.84-1.25l-1.89-0.93l-0.29-1.7l3.27-1.57l30.33-3.71
				l0.03,0.01c-0.42,1.87-0.64,3.82-0.64,5.81C328.77,89.59,329.09,91.94,329.7,94.18z"/>
			<path fill="#FFFFFE" stroke="#000000" stroke-width="2" stroke-linecap="round" stroke-linejoin="round" d="M336.28,105.82l-10.21,3.53l-12.91,5.66l-6.57,2.34l-2.06,0.14l-1.14-1.34l2.05-2.98l24.43-18.38
				C331.1,99,333.33,102.77,336.28,105.82z"/>
			<path fill="#FFFFFE" stroke="#000000" stroke-width="2" stroke-linecap="round" stroke-linejoin="round" d="M342.58,314.72c0,5.47-4.74,9.91-10.56,9.91c-5.84,0-10.57-4.44-10.57-9.91c0-5.46,4.73-9.92,10.57-9.92
				C337.84,304.8,342.58,309.26,342.58,314.72z"/>
			<path fill="#FFFFFE" stroke="#000000" stroke-width="2" stroke-linecap="round" stroke-linejoin="round" d="M328.68,37.9l18.05,24c-4.11,1.35-7.77,3.74-10.7,6.87l-3.53-10.25l-5.66-12.91l-2.34-6.55l-0.12-2.09
				l1.32-1.14L328.68,37.9z"/>
			<path fill="#FFFFFE" stroke="#000000" stroke-width="2" stroke-linecap="round" stroke-linejoin="round" d="M347.88,112.77l-6.89,7.92l-8.36,11.37l-4.5,5.3l-1.75,1.16l-1.63-0.6l0.29-3.61l11.86-27.87
				C339.95,109.41,343.71,111.62,347.88,112.77z"/>
			<path fill="#FFFFFE" stroke="#000000" stroke-width="2" stroke-linecap="round" stroke-linejoin="round" d="M360.33,376.05c0,6.05-5.07,10.96-11.31,10.96c-6.23,0-11.32-4.91-11.32-10.96
				c0-6.05,5.09-10.98,11.32-10.98C355.26,365.07,360.33,370,360.33,376.05z"/>
			<path fill="#FFFFFE" stroke="#000000" stroke-width="2" stroke-linecap="round" stroke-linejoin="round" d="M356.78,31.49l3.64,29.79c-1.85-0.44-3.78-0.67-5.75-0.67c-2.39,0-4.7,0.33-6.89,0.96l2.01-10.3
				l1.54-14.03l1.25-6.84l0.93-1.87l1.71-0.31L356.78,31.49z"/>
			<path fill="#FFFFFE" stroke="#000000" stroke-width="2" stroke-linecap="round" stroke-linejoin="round" d="M361.58,112.74l-2,10.32l-1.55,14l-1.25,6.87l-0.93,1.86l-1.7,0.32l-1.57-3.28l-3.63-29.78
				c1.84,0.43,3.75,0.66,5.72,0.66C357.06,113.71,359.38,113.38,361.58,112.74z"/>
			<path fill="#FFFFFE" stroke="#000000" stroke-width="2" stroke-linecap="round" stroke-linejoin="round" d="M381.57,340.97c0,5.39-4.63,9.8-10.31,9.8c-5.68,0-10.32-4.41-10.32-9.8c0-5.41,4.64-9.82,10.32-9.82
				C376.94,331.15,381.57,335.56,381.57,340.97z"/>
			<path fill="#FFFFFE" stroke="#000000" stroke-width="2" stroke-linecap="round" stroke-linejoin="round" d="M379.49,79.51c0.07,0.21,0.13,0.42,0.18,0.64c0.61,2.24,0.93,4.59,0.93,7.01c0,1.99-0.22,3.93-0.63,5.8
				c-0.04,0.21-0.09,0.42-0.15,0.63c-1.04,4.29-3.11,8.17-5.92,11.35c-0.18,0.2-0.36,0.4-0.56,0.6c-2.92,3.13-6.59,5.52-10.71,6.88
				c-0.35,0.12-0.7,0.23-1.05,0.32c-2.2,0.64-4.52,0.97-6.91,0.97c-1.97,0-3.88-0.23-5.72-0.66c-0.36-0.08-0.72-0.17-1.07-0.28
				c-4.17-1.15-7.93-3.36-10.98-6.33c-0.22-0.2-0.42-0.41-0.62-0.62c-2.95-3.05-5.18-6.82-6.41-11.03c-0.07-0.2-0.12-0.4-0.17-0.61
				c-0.61-2.24-0.93-4.59-0.93-7.02c0-1.99,0.22-3.94,0.64-5.81c0.03-0.2,0.08-0.41,0.14-0.61c1.04-4.28,3.1-8.16,5.91-11.35
				c0.19-0.21,0.38-0.42,0.57-0.62c2.93-3.13,6.59-5.52,10.7-6.87c0.34-0.12,0.7-0.23,1.05-0.33c2.19-0.63,4.5-0.96,6.89-0.96
				c1.97,0,3.9,0.23,5.75,0.67c0.36,0.08,0.72,0.17,1.07,0.27c4.16,1.16,7.92,3.37,10.96,6.34c0.22,0.18,0.42,0.39,0.61,0.6
				C376.02,71.53,378.25,75.3,379.49,79.51z"/>
			<path fill="#FFFFFE" stroke="#000000" stroke-width="2" stroke-linecap="round" stroke-linejoin="round" d="M329.38,81.34l-30.33,3.71l-3.27,1.57l0.29,1.7l1.89,0.93l6.84,1.25l14.02,1.57l10.86,2.12l0.02-0.01
				c0.05,0.21,0.1,0.41,0.17,0.61l-24.43,18.38l-2.05,2.98l1.14,1.34l2.06-0.14l6.57-2.34l12.91-5.66l10.21-3.53
				c0.2,0.21,0.4,0.42,0.62,0.62l-11.86,27.87l-0.29,3.61l1.63,0.6l1.75-1.16l4.5-5.3l8.36-11.37l6.89-7.92
				c0.35,0.11,0.71,0.2,1.07,0.28l3.63,29.78l1.57,3.28l1.7-0.32l0.93-1.86l1.25-6.87l1.55-14l2-10.32c0.35-0.09,0.7-0.2,1.05-0.32
				l18.06,24l2.98,2.05l1.34-1.11l-0.14-2.1l-2.34-6.54l-5.66-12.94l-3.53-10.24c0.2-0.2,0.38-0.4,0.56-0.6l27.92,11.87l3.61,0.29
				l0.59-1.64l-1.16-1.75l-5.31-4.5l-11.34-8.36l-8.36-7.25l-0.03-0.01c0.06-0.21,0.11-0.42,0.15-0.63h0.01l30.34-3.71l3.27-1.54
				l-0.3-1.73l-1.88-0.93l-6.84-1.23l-14.02-1.57l-10.86-2.11l-0.02,0.01c-0.05-0.22-0.11-0.43-0.18-0.64l24.44-18.38l2.05-2.97
				l-1.14-1.32l-2.07,0.11l-6.56,2.36l-12.91,5.67l-10.24,3.51c-0.19-0.21-0.39-0.42-0.61-0.6l11.87-27.9l0.3-3.61l-1.64-0.57
				l-1.75,1.14l-4.5,5.32l-8.36,11.36l-6.88,7.92c-0.35-0.1-0.71-0.19-1.07-0.27l-3.64-29.79l-1.56-3.27l-1.71,0.31l-0.93,1.87
				l-1.25,6.84l-1.54,14.03l-2.01,10.3c-0.35,0.1-0.71,0.21-1.05,0.33l-18.05-24l-2.98-2.07l-1.32,1.14l0.12,2.09l2.34,6.55
				l5.66,12.91l3.53,10.25c-0.19,0.2-0.38,0.41-0.57,0.62L307.55,57.5l-3.61-0.28l-0.59,1.64l1.15,1.75l5.32,4.5l11.34,8.34
				l8.36,7.28l0.03,0.01c-0.06,0.2-0.11,0.41-0.14,0.61L329.38,81.34z M295.23,4.03c105.42,0,198.07,56.52,249.18,140.81
				c-28.83-6.7-60.68-16.11-91.33-11.26c-48.72,7.73-88.91,52.33-140.28,51.61c-64.42-0.94-146.47-47.13-202-41.92
				c-28.01,2.62-54.87,12.46-77.12,24.11C81.16,70.78,180.65,4.03,295.23,4.03z M265.17,142.99c9.86-2.95,12.57-22.34-0.95-27.75
				c6.83-9.03-0.68-19.85-10.18-20.95v-0.01c1.63-2.64,1.75-4.73-0.23-5.78c20.88-8.77,4.34-23.89-10.11-21.34
				c-5.41-17.32-23.38-15.67-31.04-5.69c-17.58-27.41-35.47-7.66-37.67,0.46c-17.84-12.41-44.19,3.86-30.76,16.59
				c-18.84,5.41-15.09,24.81-1.3,27.78c1.34,15.64,25.67,20.62,35.73,8.9c0.07,3.45,2.08,7.07,7.06,9.99
				c-10.18,7.62,5.52,28.15,24.26,17.96c-2.25,14.85,15.84,26.15,28.54,6.78C244.9,164.11,264.15,159.45,265.17,142.99z"/>
			<path fill="#FFFFFE" stroke="#000000" stroke-width="2" stroke-linecap="round" stroke-linejoin="round" d="M384.62,36.38l-0.3,3.61l-11.87,27.9c-3.04-2.97-6.8-5.18-10.96-6.34l6.88-7.92l8.36-11.36l4.5-5.32
				l1.75-1.14L384.62,36.38z"/>
			<path fill="#FFFFFE" stroke="#000000" stroke-width="2" stroke-linecap="round" stroke-linejoin="round" d="M384.87,135.26l0.14,2.1l-1.34,1.11l-2.98-2.05l-18.06-24c4.12-1.36,7.79-3.75,10.71-6.88l3.53,10.24
				l5.66,12.94L384.87,135.26z"/>
			<path fill="#FFFFFE" stroke="#000000" stroke-width="2" stroke-linecap="round" stroke-linejoin="round" d="M386.98,388.91l0.48,2.23c-2.73,3.43-6.75,6.26-11.48,8.16l-0.29,0.21c-1.89-2.58-3.48-5.42-4.81-8.41
				l0.26-0.12C376.42,392.12,381.71,390.92,386.98,388.91z"/>
			<path fill="#FFFFFE" stroke="#000000" stroke-width="2" stroke-linecap="round" stroke-linejoin="round" d="M392.84,369.07c2.91,0,5.3,2.43,5.3,5.39c0,2.98-2.39,5.41-5.3,5.41c-2.9,0-5.27-2.43-5.27-5.41
				C387.57,371.5,389.94,369.07,392.84,369.07z"/>
			<path fill="#FFFFFE" stroke="#000000" stroke-width="2" stroke-linecap="round" stroke-linejoin="round" d="M404.84,56.84l1.14,1.32l-2.05,2.97l-24.44,18.38c-1.24-4.21-3.47-7.98-6.43-11.02l10.24-3.51l12.91-5.67
				l6.56-2.36L404.84,56.84z"/>
			<path fill="#FFFFFE" stroke="#000000" stroke-width="2" stroke-linecap="round" stroke-linejoin="round" d="M404.86,113.71l1.16,1.75l-0.59,1.64l-3.61-0.29l-27.92-11.87c2.81-3.18,4.88-7.06,5.92-11.35l0.03,0.01
				l8.36,7.25l11.34,8.36L404.86,113.71z"/>
			<path fill="#FFFFFE" stroke="#000000" stroke-width="2" stroke-linecap="round" stroke-linejoin="round" d="M410.86,410.07L410.86,410.07l-2.04,7.24c-0.43,1.5-2.32,2.68-4.12,3.27c-2.09,0.71-4.54,0.25-6.81,0.37
				c-2.61-0.57-5.73-0.39-7.86-1.73c-1.41-0.89-1.68-2.68-1.41-4.09l0.98-4.89c2.99,1.06,6.3,1.64,9.99,1.64
				C403.57,411.88,407.37,411.24,410.86,410.07z"/>
			<path fill="#FFFFFE" stroke="#000000" stroke-width="2" stroke-linecap="round" stroke-linejoin="round" d="M413.29,85.98l0.3,1.73l-3.27,1.54l-30.34,3.71h-0.01c0.41-1.87,0.63-3.81,0.63-5.8
				c0-2.42-0.32-4.77-0.93-7.01l0.02-0.01l10.86,2.11l14.02,1.57l6.84,1.23L413.29,85.98z"/>
			<path fill="#FFFFFE" stroke="#000000" stroke-width="2" stroke-linecap="round" stroke-linejoin="round" d="M427.24,364c0.78,1.68,2.55,4.75,0.48,5.37l-3.29,1c-5.6-6.48-14.64-10.69-24.84-10.69
				c-2.93,0-6.36,0.61-9.84,1.62c0.25-1.94-1.5-1.96-0.54-3.73c0.95-1.75,2.39-3.94,4.7-4.28l7.05-1.04
				c3.11-0.16,6.27-0.82,9.38-0.48c2.79,0.32,5.68,1.05,7.97,2.39c2.07,1.18,3.05,3.27,4.57,4.91
				C424.34,360.73,426.36,362.11,427.24,364z"/>
			<path fill="#FFFFFE" stroke="#000000" stroke-width="2" stroke-linecap="round" stroke-linejoin="round" d="M389.6,410.24c-5.83-2.06-10.39-5.92-13.91-10.73l0.29-0.21c4.73-1.9,8.75-4.73,11.48-8.16l-0.48-2.23
				c-5.27,2.01-10.56,3.21-15.84,2.07l-0.26,0.12c-0.77-1.73-1.45-3.52-2.05-5.32c-2.23-6.64-2.37-10.66,2.75-15.32
				c3.76-3.45,11.08-7.12,18.17-9.16c3.48-1.01,6.91-1.62,9.84-1.62c10.2,0,19.24,4.21,24.84,10.69c1.75,2.01,3.16,4.25,4.17,6.65
				c1.15,2.74,1.78,5.69,1.78,8.76c0,8.1-4.35,15.34-11.19,20.13c-2.48,1.73-5.28,3.15-8.33,4.16c-3.49,1.17-7.29,1.81-11.27,1.81
				C395.9,411.88,392.59,411.3,389.6,410.24z M398.14,374.46c0-2.96-2.39-5.39-5.3-5.39c-2.9,0-5.27,2.43-5.27,5.39
				c0,2.98,2.37,5.41,5.27,5.41C395.75,379.87,398.14,377.44,398.14,374.46z"/>
			<path fill="#FFFFFE" stroke="#000000" stroke-width="2" stroke-linecap="round" stroke-linejoin="round" d="M452.69,379.39c0,0,0.71,6,0.48,7.3c-0.23,1.27-2.59,6.09-2.59,6.09c-1.27,0.7-5.11,1.34-3.86,2.11
				l4,2.46c0.5,1.34,1.45,2.57,1.52,4c0.09,2.02,0.57,3.5-1.07,5.98c-1.64,2.5-6.93-0.73-7.63,3.18l-0.93,5.28l-0.6,2.36
				c-1.79,1.41-3.31,3.32-5.43,4.23c-2.02,0.88-5.68-0.75-7.75-1.5c-3.79-1.37-6.29-6.21-8.08-9.8c-0.34-0.7-1.55-5.16-1.55-5.16
				l-0.01-0.01c6.84-4.79,11.19-12.03,11.19-20.13c0-3.07-0.63-6.02-1.78-8.76l0.37-0.15c2.98-0.8,5.86-2.37,8.95-2.41l9.03-0.12
				C449.49,374.32,450.78,377.71,452.69,379.39z"/>
			<path fill="#FFFFFE" stroke="#000000" stroke-width="2" stroke-linecap="round" stroke-linejoin="round" d="M525.49,473.06c-53.34,68.84-136.78,113.29-230.26,113.29c-99.46,0-187.55-50.3-240.12-126.76
				c72.18-4.81,147.94-23.05,233.12-0.29C367.32,474.67,439.74,489.17,525.49,473.06z M242.45,515.54c5.77-0.21,2.8-3.46-0.07-4.03
				l-30.51-11.64l12.88-33.8c0.27-5.02-2-5.5-4.18-4.86l-23.33,28.57l-20.61-26.92c-5.93-8.27-8.77-3.18-7.68,0.69l16.45,35.98
				l-35.08,16.01c-3.32,1.91-0.39,3.93,4.58,3.22l35.5-6.63l11.49,36.03c0.21,2.68,4.62,3.73,5.5-0.05l0.64-36.03L242.45,515.54z"/>
			<path fill="#FFFFFE" stroke="#000000" stroke-width="2" stroke-linecap="round" stroke-linejoin="round" d="M46.53,446.37c161.5-11.68,340.64-9.85,503.25-10.06c-7.18,12.88-15.31,25.16-24.29,36.75
				c-85.75,16.11-158.17,1.61-237.26-13.76c-85.18-22.76-160.94-4.52-233.12,0.29C52.13,455.27,49.27,450.86,46.53,446.37z"/>
			<path fill="#FFFFFE" stroke="#000000" stroke-width="2" stroke-linecap="round" stroke-linejoin="round" d="M544.41,144.84c3.32,5.47,6.47,11.06,9.41,16.76c-30.42,4.28-67.78-12.02-100.74-1.67
				c-57.94,18.19-100.29,58.95-152.92,70.88c-60.46,13.71-126.01-42.94-184.81-50.13c-22.83-2.77-78.41,32.69-106.09,59.52
				c4.92-25.61,13.23-50.04,24.42-72.82c22.25-11.65,49.11-21.49,77.12-24.11c55.53-5.21,137.58,40.98,202,41.92
				c51.37,0.72,91.56-43.88,140.28-51.61C483.73,128.73,515.58,138.14,544.41,144.84z M290.05,214.06c0-6.46-5.41-11.73-12.04-11.73
				c-6.66,0-12.07,5.27-12.07,11.73c0,6.45,5.41,11.73,12.07,11.73C284.64,225.79,290.05,220.51,290.05,214.06z M247.84,189.6
				c0-4.89-3.91-8.89-8.71-8.89c-4.79,0-8.72,4-8.72,8.89c0,4.91,3.93,8.88,8.72,8.88C243.93,198.48,247.84,194.51,247.84,189.6z"/>
			<path fill="#FFFFFE" stroke="#000000" stroke-width="2" stroke-linecap="round" stroke-linejoin="round" d="M574.07,211.34c-27.96,2.16-33.8-9.76-68.32-11.9c-34.58-2.14-82.12,61.97-131.65,65.86
				c-66.03,5.2-183.2-40.06-258.57-45.06c-52-3.46-76.54,17.88-108.86,35.77c0.71-5.31,1.58-10.58,2.59-15.81
				c27.68-26.83,83.26-62.29,106.09-59.52c58.8,7.19,124.35,63.84,184.81,50.13c52.63-11.93,94.98-52.69,152.92-70.88
				c32.96-10.35,70.32,5.95,100.74,1.67C562.04,177.4,568.84,194.03,574.07,211.34z M308.28,245.54c0-3.64-2.96-6.59-6.59-6.59
				c-3.62,0-6.57,2.95-6.57,6.59c0,3.64,2.95,6.59,6.57,6.59C305.32,252.13,308.28,249.18,308.28,245.54z"/>
			<path fill="#FFFFFE" stroke="#000000" stroke-width="2" stroke-linecap="round" stroke-linejoin="round" d="M574.07,211.34c8.02,26.57,12.34,54.72,12.34,83.85c0,51.14-13.3,99.28-36.63,141.12
				c-162.61,0.21-341.75-1.62-503.25,10.06c-26.95-44.11-42.5-95.89-42.5-151.18c0-13.28,0.9-26.36,2.64-39.18
				c32.32-17.89,56.86-39.23,108.86-35.77c75.37,5,192.54,50.26,258.57,45.06c49.53-3.89,97.07-68,131.65-65.86
				C540.27,201.58,546.11,213.5,574.07,211.34z M453.17,386.69c0.23-1.3-0.48-7.3-0.48-7.3c-1.91-1.68-3.2-5.07-5.74-5.05
				l-9.03,0.12c-3.09,0.04-5.97,1.61-8.95,2.41l-0.37,0.15c-1.01-2.4-2.42-4.64-4.17-6.65l3.29-1c2.07-0.62,0.3-3.69-0.48-5.37
				c-0.88-1.89-2.9-3.27-4.36-4.93c-1.52-1.64-2.5-3.73-4.57-4.91c-2.29-1.34-5.18-2.07-7.97-2.39c-3.11-0.34-6.27,0.32-9.38,0.48
				l-7.05,1.04c-2.31,0.34-3.75,2.53-4.7,4.28c-0.96,1.77,0.79,1.79,0.54,3.73c-7.09,2.04-14.41,5.71-18.17,9.16
				c-5.12,4.66-4.98,8.68-2.75,15.32c0.6,1.8,1.28,3.59,2.05,5.32c1.33,2.99,2.92,5.83,4.81,8.41c3.52,4.81,8.08,8.67,13.91,10.73
				l-0.98,4.89c-0.27,1.41,0,3.2,1.41,4.09c2.13,1.34,5.25,1.16,7.86,1.73c2.27-0.12,4.72,0.34,6.81-0.37
				c1.8-0.59,3.69-1.77,4.12-3.27l2.04-7.23v-0.01c3.05-1.01,5.85-2.43,8.33-4.16l0.01,0.01c0,0,1.21,4.46,1.55,5.16
				c1.79,3.59,4.29,8.43,8.08,9.8c2.07,0.75,5.73,2.38,7.75,1.5c2.12-0.91,3.64-2.82,5.43-4.23l0.6-2.36l0.93-5.28
				c0.7-3.91,5.99-0.68,7.63-3.18c1.64-2.48,1.16-3.96,1.07-5.98c-0.07-1.43-1.02-2.66-1.52-4l-4-2.46
				c-1.25-0.77,2.59-1.41,3.86-2.11C450.58,392.78,452.94,387.96,453.17,386.69z M371.26,350.77c5.68,0,10.31-4.41,10.31-9.8
				c0-5.41-4.63-9.82-10.31-9.82c-5.68,0-10.32,4.41-10.32,9.82C360.94,346.36,365.58,350.77,371.26,350.77z M349.02,387.01
				c6.24,0,11.31-4.91,11.31-10.96c0-6.05-5.07-10.98-11.31-10.98c-6.23,0-11.32,4.93-11.32,10.98
				C337.7,382.1,342.79,387.01,349.02,387.01z M332.02,324.63c5.82,0,10.56-4.44,10.56-9.91c0-5.46-4.74-9.92-10.56-9.92
				c-5.84,0-10.57,4.46-10.57,9.92C321.45,320.19,326.18,324.63,332.02,324.63z M315.75,292.57c0-7.09-6.34-12.89-14.11-12.89
				c-7.77,0-14.09,5.8-14.09,12.89c0,7.12,6.32,12.89,14.09,12.89C309.41,305.46,315.75,299.69,315.75,292.57z M268.79,277.39
				c0-4.87-4.39-8.87-9.78-8.87c-5.38,0-9.79,4-9.79,8.87c0,4.89,4.41,8.87,9.79,8.87C264.4,286.26,268.79,282.28,268.79,277.39z
				 M256.2,337.54c0-5.96-5.48-10.82-12.2-10.82c-6.71,0-12.18,4.86-12.18,10.82c0,5.93,5.47,10.8,12.18,10.8
				C250.72,348.34,256.2,343.47,256.2,337.54z M232.52,310.81c5.48,0,9.93-4.3,9.93-9.6c0-5.27-4.45-9.57-9.93-9.57
				c-5.45,0-9.93,4.3-9.93,9.57C222.59,306.51,227.07,310.81,232.52,310.81z M238.43,263.45c0-6.22-5-11.32-11.16-11.32
				c-6.13,0-11.15,5.1-11.15,11.32c0,6.26,5.02,11.35,11.15,11.35C233.43,274.8,238.43,269.71,238.43,263.45z M224.55,355.86
				c3.31-9.89,3.5-15.84-4.09-22.75c-5.59-5.11-16.44-10.55-26.97-13.59v-0.01c-0.39-2.86,2.22-2.91,0.79-5.54
				c-1.41-2.6-3.52-5.82-6.97-6.32l-10.43-1.57c-4.66-0.23-9.34-1.21-13.95-0.68c-4.16,0.45-8.43,1.52-11.84,3.5
				c-3.07,1.79-4.52,4.88-6.8,7.32c-2.13,2.43-5.13,4.52-6.43,7.32c-1.18,2.47-3.81,7.04-0.72,7.95l4.87,1.48
				c-2.59,2.99-4.68,6.3-6.18,9.86l-0.53-0.22c-4.43-1.18-8.71-3.5-13.3-3.55l-13.4-0.18c-3.8-0.04-5.68,5-8.54,7.5
				c0,0-1.05,8.89-0.69,10.8c0.34,1.91,3.82,9.05,3.82,9.05c1.93,1.04,7.61,2,5.75,3.14l-5.91,3.66c-0.77,1.97-2.18,3.81-2.27,5.93
				c-0.14,3-0.86,5.18,1.57,8.89c2.43,3.7,10.29-1.09,11.31,4.7l1.39,7.85l0.89,3.47c2.68,2.1,4.93,4.96,8.06,6.3
				c3,1.3,8.43-1.14,11.5-2.23c5.63-2.04,9.34-9.23,11.99-14.55c0.52-1.01,2.22-7.36,2.3-7.67c3.68,2.59,7.85,4.69,12.38,6.2
				l3.05,10.73c0.61,2.2,3.41,3.95,6.09,4.86c3.11,1.02,6.75,0.34,10.11,0.52c3.88-0.84,8.52-0.59,11.65-2.54
				c2.12-1.32,2.5-4,2.09-6.07l-1.42-7.27c8.65-3.05,15.4-8.78,20.61-15.9c2.82-3.83,5.19-8.07,7.16-12.51
				C222.64,361.17,223.65,358.53,224.55,355.86z"/>
			<path fill="#FFFFFE" stroke="#000000" stroke-width="2" stroke-linecap="round" stroke-linejoin="round" d="M307.55,57.5l27.91,11.89c-2.81,3.19-4.87,7.07-5.91,11.35l-0.03-0.01l-8.36-7.28l-11.34-8.34l-5.32-4.5
				l-1.15-1.75l0.59-1.64L307.55,57.5z"/>
		</g>
	</g>
</g>
</svg>
