<?xml version="1.0" encoding="utf-8"?>
<svg version="1.2" baseProfile="tiny" id="Layer_1" xmlns="http://www.w3.org/2000/svg" xmlns:xlink="http://www.w3.org/1999/xlink"
	 x="0px" y="0px" width="426.02px" height="408.98px" viewBox="0 0 426.02 408.98" xml:space="preserve">
<g>
	<path fill="#FFFFFE" stroke="#000000" stroke-width="2" stroke-linecap="round" stroke-linejoin="round" stroke-miterlimit="10" d="
		M218.76,2.61c8.6,2.09,49.09,11.23,65,10.74c5.05-0.17,37.1,14.23,38.27,17.74c13.96,4.11,34.87,29.69,42.07,30.11
		c0.06,0.11,9.91,8.89,15.42,18.71c11.85,21.17,25.53,24.17,34.55,59.46c5.77,22.57,16.99,85.89,6.91,106.34
		c-8.6,17.4,5.25,13.2-17.25,43.08c-13.56,18.03-67.45,87.57-86.59,94.17c-26.59,9.2-26.36,13.69-61.25,15.03
		c-24.87,1-19.45,9.03-57.09,9.03c-12.91,0-56.77,4.57-65.65-6.51c-22.45-28-34.5-3.26-70.74-46.4
		c-5.51-6.57-34.55-38.4-36.92-42.69c-12.82-23.29-7.37-8.77-14.05-33.46c-1.34-4.94-5.6-15.2-7.85-23.29
		c-8.11-28.89,4.4-101.54,16.56-128.66c6.34-14.11,12.56-25.11,20.68-38.03c17.51-27.83,22.79-23.63,38.47-43.66
		c13.74-17.54,52.52-41.89,75.11-41.89c19.39,0,34.73,0.86,53.43-1.29C209.8,0.99,210.17,0.53,218.76,2.61L218.76,2.61z"/>
	<path fill="#FFFFFE" stroke="#000000" stroke-width="2" stroke-linecap="round" stroke-linejoin="round" stroke-miterlimit="10" d="
		M56.93,88.87c-0.69,2.54-14.82,21.37-15.62,31.6c-0.74,9.34-21.88,11.63-20.62,51.2c0.2,6.06-15.02,24.97-5.54,51.63
		c5.08,14.26-4.17,62.06,12.74,72.37c26.3,16,31.24,38.03,59.09,57.09c7.82,5.34,17.22,22.43,34.01,31.6
		c32.41,17.71,25.44,5.8,54.09,13.6c16.05,4.34,68.48,3.11,78.5-7.49c3.68-3.91,27.24-3.51,36.07-9.74
		c11.42-8.08,36.87-16.8,41.89-35.31c2.71-9.94,40.75-41.49,48.66-52.89c4.94-7.11,20.76-33.34,23.33-40.86
		c3.03-8.8,9-74,4.34-79.09c-17.05-18.57-9.71-71.06-41.27-93.43c-5.28-3.77-21.79-22.57-31.18-23.49
		c-0.97-0.09-19.02-11.71-26.19-14.03c-13.22-4.2-54.14-23.31-65.94-22.97c-0.17,0-27.96-7.86-39.61-7.86
		c-53.57,0-58.94-9.69-102.44,29.14c-8.2,7.31-0.37,6.06-13.45,17.37C85.23,59.53,56.96,88.76,56.93,88.87L56.93,88.87z"/>
	<path fill="#FFFFFE" stroke="#000000" stroke-width="2" stroke-linecap="round" stroke-linejoin="round" stroke-miterlimit="10" d="
		M236.41,28.73c-1.26-0.03-3.97-1.6-8.88-1.6c-15.02,0-11.54,1.57-21.79,11.31c-6.71,6.34-5,15.57-2.8,23.2
		c0.77,2.66-1.11,0.6,1.4,5c4.57,7.94,6.43,13.69,15.45,17.34c10.08,4.09,10.2,3.06,21.28,3.34c2.28,0.03,13.88-9.06,14.42-12.17
		c0.2-1.23,1.51-1.94,1.46-5.03c-0.03-3.66,0.49-9.49,0.49-13.86c0-7.77,0.54-9.51-5.85-15.37c-4.4-4-5.4-5.31-10.25-9.14
		C240.95,31.47,237.15,28.76,236.41,28.73L236.41,28.73z"/>
	<path fill="#FFFFFE" stroke="#000000" stroke-width="2" stroke-linecap="round" stroke-linejoin="round" stroke-miterlimit="10" d="
		M142.03,52.7c-1.03-0.74-2.4-3.54-6.45-6.31c-12.45-8.4-10.42-5.17-24.39-2.86c-9.11,1.51-12.85,10.11-15.31,17.66
		c-0.86,2.63-1.26-0.11-1.63,4.94c-0.69,9.11-2.34,14.94,3.08,23.03c6.05,9.03,6.71,8.23,15.74,14.66
		c1.86,1.34,16.56,0.31,18.76-1.97c0.86-0.91,2.34-0.77,4.03-3.34c2-3.06,5.71-7.6,8.17-11.23c4.34-6.43,5.77-7.57,3.74-16
		c-1.4-5.77-1.48-7.43-3.37-13.31C144.26,57.5,142.63,53.13,142.03,52.7L142.03,52.7z"/>
	<path fill="#FFFFFE" stroke="#000000" stroke-width="2" stroke-linecap="round" stroke-linejoin="round" stroke-miterlimit="10" d="
		M76.63,206.04c-0.83-0.57-1.94-2.86-5.23-5.09c-10.08-6.83-8.45-4.2-19.76-2.34c-7.4,1.23-10.42,8.2-12.39,14.34
		c-0.69,2.11-1.03-0.11-1.34,3.97c-0.51,7.4-1.88,12.11,2.51,18.66c4.91,7.34,5.43,6.69,12.77,11.89c1.51,1.09,13.42,0.26,15.19-1.6
		c0.71-0.74,1.91-0.63,3.26-2.71c1.63-2.46,4.63-6.14,6.63-9.08c3.51-5.23,4.68-6.14,3.03-12.94c-1.11-4.69-1.2-6.06-2.74-10.83
		C78.43,209.93,77.12,206.39,76.63,206.04L76.63,206.04z"/>
	<path fill="#FFFFFE" stroke="#000000" stroke-width="2" stroke-linecap="round" stroke-linejoin="round" stroke-miterlimit="10" d="
		M173.58,149.47c-0.43-1.17,0-4.29-1.83-8.83c-5.6-13.97-5.74-10.14-18.59-16.06c-8.4-3.86-16.31,1.17-22.56,6.06
		c-2.17,1.71-0.97-0.8-4.11,3.17c-5.65,7.17-10.31,11.06-10.37,20.8c-0.03,10.89,0.97,10.6,4.85,20.97
		c0.8,2.17,13.54,9.54,16.62,8.89c1.26-0.26,2.4,0.69,5.23-0.51c3.37-1.4,8.97-3.09,13.05-4.71c7.2-2.89,9.02-3.06,12.05-11.14
		c2.08-5.57,2.94-7,4.68-12.94C172.76,154.7,173.87,150.19,173.58,149.47L173.58,149.47z"/>
	<path fill="#FFFFFE" stroke="#000000" stroke-width="2" stroke-linecap="round" stroke-linejoin="round" stroke-miterlimit="10" d="
		M276.02,164.93c0.26-1,1.94-2.91,2.8-6.8c2.6-11.97,0.74-9.46-5.23-19.31c-3.88-6.43-11.51-6.66-17.96-6.2
		c-2.26,0.14-0.29-1-4.23,0.26c-7.08,2.26-11.99,2.74-16.45,9.31c-5,7.31-4.17,7.57-6.31,16.34c-0.43,1.8,4.8,12.6,7.17,13.57
		c0.97,0.37,1.31,1.54,3.77,2.03c2.91,0.57,7.45,2,10.94,2.77c6.17,1.31,7.48,2.06,13.22-2.03c3.94-2.8,5.17-3.37,9.02-6.57
		C273.08,168.04,275.88,165.5,276.02,164.93L276.02,164.93z"/>
	<path fill="#FFFFFE" stroke="#000000" stroke-width="2" stroke-linecap="round" stroke-linejoin="round" stroke-miterlimit="10" d="
		M225.76,48.16c3.11,0,5.68-2.74,5.68-6.11c0-3.37-2.57-6.14-5.68-6.14c-3.11,0-5.65,2.77-5.65,6.14
		C220.1,45.41,222.65,48.16,225.76,48.16L225.76,48.16z"/>
	<path fill="#FFFFFE" stroke="#000000" stroke-width="2" stroke-linecap="round" stroke-linejoin="round" stroke-miterlimit="10" d="
		M129.18,52.67c2.6,1.74,3.17,5.46,1.29,8.26c-1.91,2.8-5.54,3.63-8.14,1.89c-2.6-1.74-3.14-5.46-1.26-8.26
		C122.95,51.76,126.61,50.93,129.18,52.67L129.18,52.67z"/>
	<path fill="#FFFFFE" stroke="#000000" stroke-width="2" stroke-linecap="round" stroke-linejoin="round" stroke-miterlimit="10" d="
		M66.24,206.04c2.08,1.4,2.57,4.4,1.03,6.69c-1.54,2.26-4.48,2.94-6.6,1.51c-2.08-1.4-2.54-4.4-1.03-6.69
		C61.18,205.3,64.12,204.61,66.24,206.04L66.24,206.04z"/>
	<path fill="#FFFFFE" stroke="#000000" stroke-width="2" stroke-linecap="round" stroke-linejoin="round" stroke-miterlimit="10" d="
		M162.96,142.27c1.17,2.89-0.43,6.29-3.57,7.54c-3.14,1.26-6.63-0.09-7.8-3c-1.14-2.89,0.46-6.29,3.6-7.54
		C158.31,138.01,161.79,139.36,162.96,142.27L162.96,142.27z"/>
	<path fill="#FFFFFE" stroke="#000000" stroke-width="2" stroke-linecap="round" stroke-linejoin="round" stroke-miterlimit="10" d="
		M272.16,155.21c-0.54,2.49-3.17,4.03-5.85,3.46c-2.68-0.6-4.43-3.09-3.88-5.57c0.54-2.49,3.14-4.06,5.83-3.46
		C270.94,150.21,272.68,152.7,272.16,155.21L272.16,155.21z"/>
	<path fill="#FFFFFE" stroke="#000000" stroke-width="2" stroke-linecap="round" stroke-linejoin="round" stroke-miterlimit="10" d="
		M214.36,69.01c3.4,0,6.2-2.54,6.2-5.66s-2.8-5.69-6.2-5.69c-3.43,0-6.2,2.57-6.2,5.69S210.94,69.01,214.36,69.01L214.36,69.01z"/>
	<path fill="#FFFFFE" stroke="#000000" stroke-width="2" stroke-linecap="round" stroke-linejoin="round" stroke-miterlimit="10" d="
		M107.56,64.3c2.83,1.91,3.71,5.57,1.94,8.17c-1.74,2.6-5.48,3.14-8.31,1.23c-2.83-1.91-3.71-5.57-1.94-8.17
		C100.99,62.93,104.7,62.39,107.56,64.3L107.56,64.3z"/>
	<path fill="#FFFFFE" stroke="#000000" stroke-width="2" stroke-linecap="round" stroke-linejoin="round" stroke-miterlimit="10" d="
		M48.7,215.47c2.28,1.54,3,4.51,1.57,6.6c-1.4,2.11-4.43,2.54-6.71,1c-2.31-1.54-3-4.51-1.6-6.63
		C43.39,214.36,46.42,213.9,48.7,215.47L48.7,215.47z"/>
	<path fill="#FFFFFE" stroke="#000000" stroke-width="2" stroke-linecap="round" stroke-linejoin="round" stroke-miterlimit="10" d="
		M138.52,139.79c1.29,3.17-0.03,6.69-2.94,7.86c-2.91,1.17-6.28-0.49-7.57-3.66c-1.29-3.17,0.06-6.69,2.94-7.86
		C133.86,134.96,137.26,136.59,138.52,139.79L138.52,139.79z"/>
	<path fill="#FFFFFE" stroke="#000000" stroke-width="2" stroke-linecap="round" stroke-linejoin="round" stroke-miterlimit="10" d="
		M256.8,142.39c-0.57,2.71-3.08,4.49-5.57,3.94s-4.03-3.17-3.43-5.91c0.57-2.71,3.08-4.49,5.57-3.94
		C255.86,137.01,257.4,139.64,256.8,142.39L256.8,142.39z"/>
	<path fill="#FFFFFE" stroke="#000000" stroke-width="2" stroke-linecap="round" stroke-linejoin="round" stroke-miterlimit="10" d="
		M237.1,80.81c3.2,0,5.83-2.69,5.83-5.97s-2.63-5.97-5.83-5.97s-5.83,2.69-5.83,5.97S233.9,80.81,237.1,80.81L237.1,80.81z"/>
	<path fill="#FFFFFE" stroke="#000000" stroke-width="2" stroke-linecap="round" stroke-linejoin="round" stroke-miterlimit="10" d="
		M120.13,86.33c2.66,1.8,3.31,5.49,1.46,8.2c-1.83,2.74-5.48,3.49-8.14,1.69c-2.68-1.8-3.34-5.49-1.48-8.2
		C113.81,85.27,117.47,84.53,120.13,86.33L120.13,86.33z"/>
	<path fill="#FFFFFE" stroke="#000000" stroke-width="2" stroke-linecap="round" stroke-linejoin="round" stroke-miterlimit="10" d="
		M58.9,233.3c2.14,1.46,2.68,4.43,1.17,6.66c-1.48,2.2-4.45,2.83-6.6,1.37c-2.17-1.46-2.68-4.46-1.2-6.66
		C53.76,232.44,56.73,231.84,58.9,233.3L58.9,233.3z"/>
	<path fill="#FFFFFE" stroke="#000000" stroke-width="2" stroke-linecap="round" stroke-linejoin="round" stroke-miterlimit="10" d="
		M244.01,158.56c-0.57,2.54-3.14,4.14-5.77,3.6c-2.6-0.57-4.28-3.11-3.74-5.66c0.57-2.57,3.14-4.17,5.77-3.6
		C242.86,153.44,244.55,155.99,244.01,158.56L244.01,158.56z"/>
	<path fill="#FFFFFE" stroke="#000000" stroke-width="2" stroke-linecap="round" stroke-linejoin="round" stroke-miterlimit="10" d="
		M247.23,57.39c3.11,0,5.65-2.6,5.65-5.74c0-3.17-2.54-5.74-5.65-5.74c-3.14,0-5.68,2.57-5.68,5.74
		C241.55,54.79,244.09,57.39,247.23,57.39L247.23,57.39z"/>
	<path fill="#FFFFFE" stroke="#000000" stroke-width="2" stroke-linecap="round" stroke-linejoin="round" stroke-miterlimit="10" d="
		M141.37,72.96c2.6,1.77,3.26,5.31,1.48,7.94s-5.31,3.34-7.91,1.57c-2.6-1.74-3.26-5.29-1.48-7.91S138.77,71.21,141.37,72.96
		L141.37,72.96z"/>
	<path fill="#FFFFFE" stroke="#000000" stroke-width="2" stroke-linecap="round" stroke-linejoin="round" stroke-miterlimit="10" d="
		M76.12,222.47c2.08,1.43,2.63,4.31,1.2,6.43c-1.46,2.14-4.31,2.71-6.43,1.29c-2.08-1.43-2.63-4.29-1.2-6.43
		C71.15,221.64,74,221.04,76.12,222.47L76.12,222.47z"/>
	<path fill="#FFFFFE" stroke="#000000" stroke-width="2" stroke-linecap="round" stroke-linejoin="round" stroke-miterlimit="10" d="
		M152.62,157.81c1.17,2.91-0.26,6.23-3.2,7.4s-6.28-0.23-7.45-3.11c-1.17-2.91,0.29-6.23,3.23-7.4
		C148.14,153.5,151.48,154.9,152.62,157.81L152.62,157.81z"/>
	<path fill="#FFFFFE" stroke="#000000" stroke-width="2" stroke-linecap="round" stroke-linejoin="round" stroke-miterlimit="10" d="
		M162.96,49.36c-9.4-2.11-5.08,23.29-7.57,29.77c-2.83,7.37-7.05,14.34-8.97,19.97c-0.86,2.6,1.48,9.34,3.43,10.8
		c9.08,6.77,4.91,6.03,17.53,11.86c9.6,4.43,7.45,15.83,11.59,21.03c2.68,3.37,9.17,18.6,15.76,19.8
		c7.14,1.31,22.56,17.54,27.39-4.94c2.11-9.86,3.74-3.66,4.6-20.74c0.46-9.4,9.68-18.74,18.71-18.74c17.45,0,19.99,9.49,35.78,4.77
		c21.22-6.37,15.99-34.6,20.19-44.69c0.43-1.06,2.34-18.34-4.03-19.31c-15.99-2.46-19.76-12.86-27.96,11.2
		c-5.8,16.97-6.14,20.09-23.22,29.09c-12.31,6.49-25.59,2.89-36.15-5.11c-12.31-9.31-18.39-4.77-29.24-20.69
		C178.87,70.61,161.05,48.93,162.96,49.36L162.96,49.36z"/>
	<path fill="#FFFFFE" stroke="#000000" stroke-width="2" stroke-linecap="round" stroke-linejoin="round" stroke-miterlimit="10" d="
		M356.55,125.87c0,2.51-18.99,12.69-26.87,12.69c-14.94,0-12.22,1.97-24.84-5.03c-2.54-1.4-15.02-2.17-15.05,5.4
		c0,3.63-2.28,5.8-2.14,14.51c0.2,12.6-13.94,29.37-26.62,30.14c-3.54,0.23-4.31,1.54-12.19,1.54c-2.34,0-24.65,1.37-25.56,1.83
		c-5.85,2.97-10.79,15.83-8.45,23.51c2.8,9.29-3.06,14.74,14.36,24.26c22.76,12.43,15.02-22.71,55.77-16.26
		c15.08,2.4,24.47,26.43,33.81,35.43c5.03,4.86,0.17,7.74,10.79,7.74c11.91,0,12.94-4.14,13.96-15.11
		c1.08-11.54-8.11-21.17-11.28-31.69c-2.51-8.31-2.03-4.23-0.74-13.31c1.97-13.57,14.02-21.17,26.62-23.6
		c3.51-0.69,22.47-19.91,23.22-24c2.43-13.26-0.71-28.97-16.91-28.97C360.35,124.96,360.41,125.01,356.55,125.87L356.55,125.87z"/>
	<path fill="#FFFFFE" stroke="#000000" stroke-width="2" stroke-linecap="round" stroke-linejoin="round" stroke-miterlimit="10" d="
		M304.98,204.87c-3.2-1.54-2.54,0.71-7.68-3.29c-3.06-2.4-3.03-0.69-6.23-5.37c-3.8-5.51-3.31-7.63-3.31-14.34
		c0-3.77,1.8-10.69,4.63-13.46c2.08-2.06,1.14,2.06,1.14,4.2c0,5.54,2.31,6.14,2.2,10.63c-0.08,2.86,7.34,11.46,7.68,11.49
		C306.78,195.04,307.23,205.99,304.98,204.87L304.98,204.87z"/>
	<path fill="#FFFFFE" stroke="#000000" stroke-width="2" stroke-linecap="round" stroke-linejoin="round" stroke-miterlimit="10" d="
		M344.84,296.07c-2.68,3.2,0.09,3.08-5.97,7.8c-3.57,2.83-1.63,3.29-7.85,5.63c-7.37,2.74-9.65,1.6-17.33-0.31
		c-4.28-1.06-11.65-5.09-14.02-9.11c-1.74-2.94,2.68-0.71,5.11-0.11c6.34,1.57,7.68-0.89,12.77,0.54
		c3.23,0.89,15.14-5.14,15.25-5.51C334.13,291.21,346.73,293.79,344.84,296.07L344.84,296.07z"/>
	<path fill="#FFFFFE" stroke="#000000" stroke-width="2" stroke-linecap="round" stroke-linejoin="round" stroke-miterlimit="10" d="
		M210.94,109.1c-1.23,3.06,0.8,2.29-2.6,7.29c-2.03,2.97-0.43,2.86-4.57,6.11c-4.88,3.83-6.88,3.51-13.08,3.91
		c-3.48,0.23-9.97-1.06-12.74-3.51c-2-1.8,1.86-1.17,3.85-1.29c5.11-0.34,5.54-2.51,9.68-2.66c2.63-0.11,10.14-7.49,10.17-7.8
		C201.74,108.01,211.82,106.93,210.94,109.1L210.94,109.1z"/>
	<path fill="#FFFFFE" stroke="#000000" stroke-width="2" stroke-linecap="round" stroke-linejoin="round" stroke-miterlimit="10" d="
		M306.26,203.3l0.06-2.74c4.23,4.54,5.28-0.37,5.23,3.91C311.52,206.16,305.98,205.44,306.26,203.3L306.26,203.3z"/>
	<path fill="#FFFFFE" stroke="#000000" stroke-width="2" stroke-linecap="round" stroke-linejoin="round" stroke-miterlimit="10" d="
		M343.39,294.13l-3.11-0.83c6.4-3.54,1.06-6.14,5.97-4.83C348.16,288.96,345.76,295.1,343.39,294.13L343.39,294.13z"/>
	<path fill="#FFFFFE" stroke="#000000" stroke-width="2" stroke-linecap="round" stroke-linejoin="round" stroke-miterlimit="10" d="
		M209.4,107.99l-2.54,0.11c3.94-4.2-0.66-4.86,3.31-5.06C211.74,102.96,211.42,108.13,209.4,107.99L209.4,107.99z"/>
	<path fill="#FFFFFE" stroke="#000000" stroke-width="2" stroke-linecap="round" stroke-linejoin="round" stroke-miterlimit="10" d="
		M320.88,325.24c-9.37-0.91-8.82,5.11-8.42,12.51c0.11,1.83,5.94,6.6,7.6,7.09c15.74,4.6,13.11-11.11,11.08-13.31
		C326.8,326.84,326.62,325.79,320.88,325.24L320.88,325.24z"/>
	<path fill="#FFFFFE" stroke="#000000" stroke-width="2" stroke-linecap="round" stroke-linejoin="round" stroke-miterlimit="10" d="
		M116.67,201.96c-9.34-0.89-8.82,5.11-8.4,12.51c0.09,1.83,5.91,6.6,7.6,7.09c15.71,4.63,13.08-11.11,11.05-13.31
		C122.58,203.56,122.41,202.5,116.67,201.96L116.67,201.96z"/>
	<path fill="#FFFFFE" stroke="#000000" stroke-width="2" stroke-linecap="round" stroke-linejoin="round" stroke-miterlimit="10" d="
		M231.96,316.36c-9.34-0.89-8.82,5.11-8.4,12.51c0.09,1.83,5.91,6.6,7.57,7.09c15.74,4.63,13.11-11.11,11.08-13.29
		C237.87,317.99,237.7,316.9,231.96,316.36L231.96,316.36z"/>
	<path fill="#FFFFFE" stroke="#000000" stroke-width="2" stroke-linecap="round" stroke-linejoin="round" stroke-miterlimit="10" d="
		M72.29,99.93c-9.34-0.91-8.82,5.11-8.4,12.51c0.09,1.83,5.91,6.6,7.6,7.09c15.71,4.6,13.08-11.11,11.05-13.31
		C78.2,101.53,78.03,100.47,72.29,99.93L72.29,99.93z"/>
	<path fill="#FFFFFE" stroke="#000000" stroke-width="2" stroke-linecap="round" stroke-linejoin="round" stroke-miterlimit="10" d="
		M97.59,112.99c-9.34-0.89-8.8,5.14-8.4,12.51c0.11,1.86,5.94,6.6,7.6,7.09c15.73,4.63,13.11-11.11,11.08-13.29
		C103.53,114.61,103.33,113.53,97.59,112.99L97.59,112.99z"/>
	<path fill="#FFFFFE" stroke="#000000" stroke-width="2" stroke-linecap="round" stroke-linejoin="round" stroke-miterlimit="10" d="
		M322,331.44c-3.31,2-5.65-0.57-3.14,6.91c0.51,1.49,9.48,5.49,9.2-2.14C327.97,333.84,324.45,329.96,322,331.44L322,331.44z"/>
	<path fill="#FFFFFE" stroke="#000000" stroke-width="2" stroke-linecap="round" stroke-linejoin="round" stroke-miterlimit="10" d="
		M117.81,208.16c-3.34,2.03-5.68-0.57-3.17,6.92c0.51,1.49,9.48,5.49,9.22-2.14C123.78,210.59,120.24,206.67,117.81,208.16
		L117.81,208.16z"/>
	<path fill="#FFFFFE" stroke="#000000" stroke-width="2" stroke-linecap="round" stroke-linejoin="round" stroke-miterlimit="10" d="
		M233.07,322.56c-3.31,2.03-5.65-0.54-3.14,6.94c0.51,1.46,9.48,5.46,9.2-2.17C239.04,324.99,235.53,321.07,233.07,322.56
		L233.07,322.56z"/>
	<path fill="#FFFFFE" stroke="#000000" stroke-width="2" stroke-linecap="round" stroke-linejoin="round" stroke-miterlimit="10" d="
		M73.43,106.13c-3.34,2-5.68-0.57-3.17,6.91c0.51,1.49,9.51,5.49,9.22-2.14C79.4,108.53,75.86,104.64,73.43,106.13L73.43,106.13z"/>
	<path fill="#FFFFFE" stroke="#000000" stroke-width="2" stroke-linecap="round" stroke-linejoin="round" stroke-miterlimit="10" d="
		M98.74,119.19c-3.31,2.03-5.65-0.54-3.14,6.94c0.49,1.49,9.48,5.46,9.2-2.17C104.7,121.61,101.19,117.7,98.74,119.19L98.74,119.19z
		"/>
	<path fill="#FFFFFE" stroke="#000000" stroke-width="2" stroke-linecap="round" stroke-linejoin="round" stroke-miterlimit="10" d="
		M265.02,318.64c-9.31,17-10.97,1.77-11.77,27.31c-0.17,5.11,21.45,21.89,21.45,26c0,11.51-9,4.4-15.22,7.57
		c-1.88,0.97-82.82,2.31-86.96,0.34c-8.97-4.31-13.16-2.23-18.33-15.89c-2.06-5.4,0.6-11.91,4.85-15.29
		c9.08-7.2,4.54-19.29,8.51-25.34c1.48-2.31-5.11-27.23,13.05-18.11c1.91,0.97,33.9,1.43,37.21-1.37c6.31-5.43,5.4-7.31,8.48-10.2
		c11.25-10.63-4.25-31.14-3.88-36.94c0.43-6.66-8.71-22.23,11.62-14.23c1.86,0.71,9.31,23.77,13.88,30.31
		c9.45,13.51-0.06,8.54,20.88,14.03c5.25,1.37,21.56,0.26,26.5-1.06c3.37-0.89,14.28-0.8,21.13-3.03
		c14.88-4.91,15.02-14.54,30.3-8.09c0.11,0.06,16.48,17.03,13.51,22.06c-1.08,1.83-0.71,8.03-7.2,14.14
		c-8.42,7.91-9.37,8.4-19.91,10.71c-2.06,0.46-16.68-0.66-19.65-3.8c-2.31-2.46-10.59-9.6-13.62-9.57c-11.02,0.17-29.76-4-34.27,9.6
		L265.02,318.64z"/>
	<path fill="#FFFFFE" stroke="#000000" stroke-width="2" stroke-linecap="round" stroke-linejoin="round" stroke-miterlimit="10" d="
		M237.24,287.5c-1.4,0.71-2.71,4.37-2.28,5.94c1.17,4.4,2.31,5.57,5.6,9.09c0.89,0.94,4.54,3.14,4.91,4.11
		c0.34-0.2,5.03,3.86,10.05-1.14c-0.03,0.03,2.71-1.57,2.71-6.66c0,0-0.4-1.94-1.8-3.4c-2.48-2.54-5.6-6.26-8.48-8.23
		C241.12,282.5,239.01,286.64,237.24,287.5L237.24,287.5z"/>
	<path fill="#FFFFFE" stroke="#000000" stroke-width="2" stroke-linecap="round" stroke-linejoin="round" stroke-miterlimit="10" d="
		M83.11,272.67c-1.37,0.69-2.68,4.37-2.28,5.91c1.2,4.43,2.31,5.6,5.63,9.09c0.89,0.94,4.54,3.14,4.91,4.14
		c0.31-0.23,5.03,3.86,10.05-1.17c-0.03,0.06,2.71-1.54,2.71-6.66c0,0.03-0.4-1.94-1.8-3.37c-2.51-2.57-5.6-6.26-8.48-8.26
		C87.03,267.67,84.91,271.79,83.11,272.67L83.11,272.67z"/>
	<path fill="#FFFFFE" stroke="#000000" stroke-width="2" stroke-linecap="round" stroke-linejoin="round" stroke-miterlimit="10" d="
		M343.73,153.24c-0.68,1.4,0.54,5.11,1.8,6.09c3.63,2.77,5.25,3,10.02,3.77c1.29,0.2,5.51-0.31,6.4,0.26
		c0.11-0.37,6.34-0.03,7.25-7.09c-0.03,0.06,1.2-2.89-1.94-6.91c0.03,0-1.48-1.29-3.48-1.57c-3.54-0.49-8.25-1.54-11.74-1.34
		C343.76,146.9,344.61,151.47,343.73,153.24L343.73,153.24z"/>
	<path fill="#FFFFFE" stroke="#000000" stroke-width="2" stroke-linecap="round" stroke-linejoin="round" stroke-miterlimit="10" d="
		M173.98,26.01c-0.66,1.4,0.54,5.11,1.83,6.09c3.63,2.77,5.25,3,10,3.77c1.29,0.2,5.51-0.29,6.4,0.26c0.14-0.37,6.34-0.03,7.25-7.06
		c0,0.06,1.2-2.91-1.91-6.94c0,0-1.51-1.29-3.51-1.57c-3.54-0.49-8.22-1.54-11.74-1.34C174.01,19.67,174.87,24.24,173.98,26.01
		L173.98,26.01z"/>
	<path fill="#FFFFFE" stroke="#000000" stroke-width="2" stroke-linecap="round" stroke-linejoin="round" stroke-miterlimit="10" d="
		M46.56,136.59c-1.4,0.69-2.71,4.37-2.28,5.94c1.17,4.4,2.31,5.57,5.63,9.09c0.89,0.94,4.54,3.14,4.88,4.11
		c0.34-0.2,5.05,3.86,10.05-1.14c-0.03,0.03,2.74-1.57,2.74-6.66c0,0-0.4-1.94-1.83-3.4c-2.48-2.54-5.57-6.26-8.45-8.23
		C50.45,131.59,48.36,135.73,46.56,136.59L46.56,136.59z"/>
	<path fill="#FFFFFE" stroke="#000000" stroke-width="2" stroke-linecap="round" stroke-linejoin="round" stroke-miterlimit="10" d="
		M260.54,99.7c-1.4,0.69-2.71,4.37-2.28,5.91c1.17,4.43,2.31,5.6,5.63,9.11c0.88,0.94,4.54,3.14,4.88,4.11
		c0.34-0.23,5.05,3.86,10.05-1.14c-0.03,0.03,2.74-1.57,2.74-6.66c0,0-0.4-1.94-1.83-3.4c-2.48-2.54-5.57-6.26-8.45-8.23
		C264.43,94.7,262.34,98.84,260.54,99.7L260.54,99.7z"/>
	<path fill="#FFFFFE" stroke="#000000" stroke-width="2" stroke-linecap="round" stroke-linejoin="round" stroke-miterlimit="10" d="
		M75.23,86.96c11.28,2.51,10.54,0.83,16.79,10.83c3.91,6.31,16.51,12.74,23.87,12.29c5.88-0.4,12.99,8.74,1.08,16.37
		c-1.46,0.94-10.59,12.26-11.57,14.17c-4.08,8.14-14.08,0.31-20.59,6.83c-7.37,7.37-19.13,9.91-27.84,22.77
		c-6,8.86-7,6.2-10.82,10.66c-4.23,4.94-14.45-1.14-14.45-12.66c0-14.51-4.8-17.14,5.94-28.29c1.26-1.29,10.57-27.69,14.34-31.09
		c1.97-1.77,6.08-8.4,11.79-13.49C65.44,93.93,74.09,86.7,75.23,86.96L75.23,86.96z"/>
	<path fill="#FFFFFE" stroke="#000000" stroke-width="2" stroke-linecap="round" stroke-linejoin="round" stroke-miterlimit="10" d="
		M118.87,293.39c6.65,0,9.85-1.06,15.82-0.11c6.51,1.06,5.25,2.09,13.79,2.09c9.25,0,10.82-0.66,8.74-12.37
		c-1.91-10.83-8.28-18.11-8.48-18.86c-2.11-7.77,4-17.63,11.28-20.26c4.2-1.51,12.74-9.89,21.62-13.31
		c2.28-0.89,18.53-9.66,19.28-11.09c5.4-10.2,4.57-8.2,4.57-19.77c0-5.94-1.46-12.29-6.43-16.31c-0.89-0.74-14.05-3.03-17.33,6.86
		c-5.34,2.03,2.71,5.31-20.36,5.31c-23.27,0-18.48,5.91-38.7-8.4c-7.48-5.29-15.51-10.29-22.45-17.2c-3.08-3.09-28.99-5.91-32.38,7
		c-2.23,8.43-9.91,7.83,7.57,17.71c4.54,2.54,22.05,24.09,20.59,30.49c-2.71,11.94,4.08,14.37-7.14,25.66
		c-7.08,7.11-12.54,14.92-15.71,23.97c-5.08,14.63,10.42,31.31,26.24,30.54C104.25,305.07,109.79,293.39,118.87,293.39
		L118.87,293.39z"/>
	<path fill="#FFFFFE" stroke="#000000" stroke-width="2" stroke-linecap="round" stroke-linejoin="round" stroke-miterlimit="10" d="
		M26.57,211.59l2.11,1.8c-4.63,1.34-7.28,26.17-5.68,30.8c1.91,5.63-4.03,9.08,5,23.63c2.26,3.63,2.94,9.71,6.77,14.03
		c2.08,2.34,8.45,13.46,12.62,16.69c6.54,5.11,32.64,37.54,36.67,40.11c8.42,5.34,29.33,32.8,37.1,33.8
		c3.43,0.46,13.68,8.69,19.82,9.34c7.63,0.8,19.88,5.09,28.04,5.14c6.51,0.06,38.67,4,43.29,2.37c1.94-6.23-10.48-3.14-13.85-3.23
		c-13.68-0.37-16.22,1.57-29.16-2.97c-8.74-3.09-21.82-12.2-23.85-21.89c-0.86-3.97-2.97-11.26-8-9.54
		c-13.39,4.63-27.73,1.66-36.38-9.77c-1.94-2.54-15.36-8.51-21.68-16.71c-9.11-11.86-21.88-16.46-29.44-33.14
		c-2.66-5.86-6.74-5.11-7.05-18.03c-0.03-1.09-7.6-16.11-8.2-20.83c-0.49-3.69-4.23-12.51-4.23-19.66c0-6.06,2.03-16.69-3.08-20.69
		L26.57,211.59z"/>
	<path fill="#FFFFFE" stroke="#000000" stroke-width="2" stroke-linecap="round" stroke-linejoin="round" stroke-miterlimit="10" d="
		M78.4,256.5c-8.4-0.74-20.16,2.17-24.96,9.71c-2.91,4.6-1.06,22.71,5.63,27.69c6.94,5.2,3.71,10,14.62,18.51
		c4.57,3.57,24.87,25.17,26.02,8.4c0.23-3.57-16.08-11.8-20.82-16.08c-3.91-3.51-9.77-2.14-11.17-13
		c-0.86-6.49-1.86-4.74-1.86-13.69c0-12.83,4.48-7.66,11.08-18.69c0.06-0.09,2.14-2.11,2.14-2.11L78.4,256.5z"/>
	<path fill="#FFFFFE" stroke="#000000" stroke-width="2" stroke-linecap="round" stroke-linejoin="round" stroke-miterlimit="10" d="
		M188.86,240.3h2.71c-5-1.51-17.96,3.06-19.93,8.43c-1.46,3.97-7.77,2.49-9.34,14.57c-1.26,9.37,0.09,3.14,0.54,11.66
		c0.23,4.63,6.43,16.11,11.19,18.74c10.22,5.63,0.83,7.4,22.99,7.4c16.91,0,12.65-7.06,19.96-11.89c2.43-1.6,4.85-23.63,0.57-30.14
		c-3.6-5.46-1.06-2.8-5.77-7.66c-4.63-4.77-9.85-9.03-16.99-9.26C194.77,242.16,189.03,240.3,188.86,240.3L188.86,240.3z"/>
	<path fill="#FFFFFE" stroke="#000000" stroke-width="2" stroke-linecap="round" stroke-linejoin="round" stroke-miterlimit="10" d="
		M363.23,186.5c-4.23,0.8-10.57-0.23-13.65,8.23c-1.29,3.46-6.74,2.17-8.14,12.66c-1.06,8.17,0.11,2.74,0.49,10.14
		c0.23,4,5.6,14,9.74,16.29c8.88,4.89,0.74,6.43,19.99,6.43c14.68,0,10.99-6.11,17.33-10.31c2.11-1.4,4.23-20.54,0.51-26.2
		c-3.14-4.74-0.94-2.43-5.03-6.66c-4.03-4.14-8.57-7.86-14.76-8.06C369.69,189.01,364.03,186.59,363.23,186.5L363.23,186.5z"/>
	<path fill="#FFFFFE" stroke="#000000" stroke-width="2" stroke-linecap="round" stroke-linejoin="round" stroke-miterlimit="10" d="
		M283.67,318.04h2.23c-4.08-1.26-14.71,2.49-16.31,6.89c-1.2,3.26-6.34,2.03-7.65,11.92c-1,7.69,0.09,2.57,0.46,9.54
		c0.2,3.77,5.25,13.2,9.17,15.34c8.37,4.6,0.69,6.03,18.82,6.03c13.82,0,10.34-5.74,16.31-9.71c2-1.29,3.97-19.34,0.49-24.66
		c-2.94-4.46-0.89-2.29-4.74-6.26c-3.77-3.89-8.05-7.37-13.88-7.57C288.53,319.53,283.82,318.01,283.67,318.04L283.67,318.04z"/>
	<path fill="#FFFFFE" stroke="#000000" stroke-width="2" stroke-linecap="round" stroke-linejoin="round" stroke-miterlimit="10" d="
		M126.29,298.07h2.08c-3.86-1.17-13.79,2.34-15.31,6.46c-1.11,3.06-5.94,1.91-7.17,11.17c-0.94,7.2,0.09,2.4,0.43,8.94
		c0.17,3.54,4.94,12.37,8.6,14.4c7.82,4.29,0.63,5.66,17.65,5.66c12.97,0,9.68-5.4,15.31-9.11c1.86-1.23,3.71-18.14,0.43-23.11
		c-2.77-4.2-0.83-2.14-4.43-5.89c-3.54-3.66-7.57-6.91-13.05-7.11C130.83,299.47,126.44,298.04,126.29,298.07L126.29,298.07z"/>
	<path fill="#FFFFFE" stroke="#000000" stroke-width="2" stroke-linecap="round" stroke-linejoin="round" stroke-miterlimit="10" d="
		M279.68,223.07c-15.25-3.46-17.82,5.29-29.04,14.57c-2.26,1.83,2.34,15.74,2,21.2c-0.86,13.46,22.47,23.46,35.38,19.11
		c10.59-3.57,8.37-3.29,15.96-12.77c3.03-3.77,1.68-27.4-6.63-32.11c-4.23-2.4-6.68-8.23-14.76-9.03
		C281.1,223.9,282.56,223.73,279.68,223.07L279.68,223.07z"/>
	<path fill="#FFFFFE" stroke="#000000" stroke-width="2" stroke-linecap="round" stroke-linejoin="round" stroke-miterlimit="10" d="
		M181.92,261.19c3.14,0,5.74-2.4,5.74-5.31s-2.6-5.29-5.74-5.29c-3.17,0-5.77,2.37-5.77,5.29S178.75,261.19,181.92,261.19
		L181.92,261.19z"/>
	<path fill="#FFFFFE" stroke="#000000" stroke-width="2" stroke-linecap="round" stroke-linejoin="round" stroke-miterlimit="10" d="
		M358.49,205.56c2.77,0,5-2.09,5-4.6c0-2.54-2.23-4.6-5-4.6c-2.74,0-4.97,2.06-4.97,4.6C353.52,203.47,355.75,205.56,358.49,205.56
		L358.49,205.56z"/>
	<path fill="#FFFFFE" stroke="#000000" stroke-width="2" stroke-linecap="round" stroke-linejoin="round" stroke-miterlimit="10" d="
		M277.99,335.1c2.6,0,4.71-1.94,4.71-4.31c0-2.4-2.11-4.34-4.71-4.34c-2.57,0-4.68,1.94-4.68,4.34
		C273.31,333.16,275.42,335.1,277.99,335.1L277.99,335.1z"/>
	<path fill="#FFFFFE" stroke="#000000" stroke-width="2" stroke-linecap="round" stroke-linejoin="round" stroke-miterlimit="10" d="
		M203.06,267.53c2.51,0,4.54-1.97,4.54-4.4c0-2.4-2.03-4.37-4.54-4.37c-2.48,0-4.51,1.97-4.51,4.37
		C198.54,265.56,200.57,267.53,203.06,267.53L203.06,267.53z"/>
	<path fill="#FFFFFE" stroke="#000000" stroke-width="2" stroke-linecap="round" stroke-linejoin="round" stroke-miterlimit="10" d="
		M376.88,211.07c2.17,0,3.94-1.71,3.94-3.83c0-2.09-1.77-3.8-3.94-3.8c-2.17,0-3.94,1.71-3.94,3.8
		C372.94,209.36,374.71,211.07,376.88,211.07L376.88,211.07z"/>
	<path fill="#FFFFFE" stroke="#000000" stroke-width="2" stroke-linecap="round" stroke-linejoin="round" stroke-miterlimit="10" d="
		M295.3,340.3c2.06,0,3.71-1.6,3.71-3.57c0-2-1.66-3.6-3.71-3.6c-2.03,0-3.71,1.6-3.71,3.6C291.58,338.7,293.27,340.3,295.3,340.3
		L295.3,340.3z"/>
	<path fill="#FFFFFE" stroke="#000000" stroke-width="2" stroke-linecap="round" stroke-linejoin="round" stroke-miterlimit="10" d="
		M208.65,287.19c2.6,0,4.68-2.17,4.68-4.86c0-2.66-2.08-4.83-4.68-4.83c-2.57,0-4.68,2.17-4.68,4.83
		C203.97,285.01,206.08,287.19,208.65,287.19L208.65,287.19z"/>
	<path fill="#FFFFFE" stroke="#000000" stroke-width="2" stroke-linecap="round" stroke-linejoin="round" stroke-miterlimit="10" d="
		M381.77,228.16c2.23,0,4.05-1.89,4.05-4.2c0-2.31-1.83-4.23-4.05-4.23c-2.26,0-4.08,1.91-4.08,4.23
		C377.68,226.27,379.51,228.16,381.77,228.16L381.77,228.16z"/>
	<path fill="#FFFFFE" stroke="#000000" stroke-width="2" stroke-linecap="round" stroke-linejoin="round" stroke-miterlimit="10" d="
		M299.89,356.39c2.08,0,3.83-1.77,3.83-3.97c0-2.17-1.74-3.94-3.83-3.94c-2.11,0-3.86,1.77-3.86,3.94
		C296.04,354.61,297.78,356.39,299.89,356.39L299.89,356.39z"/>
	<path fill="#FFFFFE" stroke="#000000" stroke-width="2" stroke-linecap="round" stroke-linejoin="round" stroke-miterlimit="10" d="
		M141.49,334.01c1.97,0,3.6-1.66,3.6-3.69c0-2.06-1.63-3.71-3.6-3.71c-2,0-3.6,1.66-3.6,3.71
		C137.89,332.36,139.49,334.01,141.49,334.01L141.49,334.01z"/>
	<path fill="#FFFFFE" stroke="#000000" stroke-width="2" stroke-linecap="round" stroke-linejoin="round" stroke-miterlimit="10" d="
		M180.7,289.9c2.51,0,4.54-2.17,4.54-4.83c0-2.69-2.03-4.86-4.54-4.86c-2.48,0-4.54,2.17-4.54,4.86
		C176.15,287.73,178.21,289.9,180.7,289.9L180.7,289.9z"/>
	<path fill="#FFFFFE" stroke="#000000" stroke-width="2" stroke-linecap="round" stroke-linejoin="round" stroke-miterlimit="10" d="
		M357.47,230.53c2.17,0,3.94-1.92,3.94-4.23c0-2.31-1.77-4.2-3.94-4.2c-2.17,0-3.94,1.89-3.94,4.2
		C353.52,228.61,355.3,230.53,357.47,230.53L357.47,230.53z"/>
	<path fill="#FFFFFE" stroke="#000000" stroke-width="2" stroke-linecap="round" stroke-linejoin="round" stroke-miterlimit="10" d="
		M277.02,358.61c2.03,0,3.68-1.77,3.68-3.97c0-2.17-1.66-3.94-3.68-3.94c-2.06,0-3.71,1.77-3.71,3.94
		C273.31,356.84,274.96,358.61,277.02,358.61L277.02,358.61z"/>
	<path fill="#FFFFFE" stroke="#000000" stroke-width="2" stroke-linecap="round" stroke-linejoin="round" stroke-miterlimit="10" d="
		M120.04,336.13c1.91,0,3.46-1.69,3.46-3.71c0-2.06-1.54-3.71-3.46-3.71c-1.91,0-3.48,1.66-3.48,3.71
		C116.56,334.44,118.13,336.13,120.04,336.13L120.04,336.13z"/>
	<path fill="#FFFFFE" stroke="#000000" stroke-width="2" stroke-linecap="round" stroke-linejoin="round" stroke-miterlimit="10" d="
		M286.79,249.07c2.49,0,4.54-2.09,4.54-4.69c0-2.57-2.06-4.69-4.54-4.69c-2.48,0-4.54,2.11-4.54,4.69
		C282.25,246.99,284.3,249.07,286.79,249.07L286.79,249.07z"/>
	<path fill="#FFFFFE" stroke="#000000" stroke-width="2" stroke-linecap="round" stroke-linejoin="round" stroke-miterlimit="10" d="
		M265.94,257.24c4.14,0,7.54-3.06,7.54-6.8s-3.4-6.8-7.54-6.8c-4.17,0-7.57,3.06-7.57,6.8S261.77,257.24,265.94,257.24
		L265.94,257.24z"/>
	<path fill="#FFFFFE" stroke="#000000" stroke-width="2" stroke-linecap="round" stroke-linejoin="round" stroke-miterlimit="10" d="
		M283.76,266.93c2.83,0,5.14-1.86,5.14-4.08c0-2.26-2.31-4.09-5.14-4.09s-5.14,1.83-5.14,4.09
		C278.62,265.07,280.93,266.93,283.76,266.93L283.76,266.93z"/>
	<path fill="#FFFFFE" stroke="#000000" stroke-width="2" stroke-linecap="round" stroke-linejoin="round" stroke-miterlimit="10" d="
		M271.22,237.59c2.57,0,4.68-2.11,4.68-4.69s-2.11-4.69-4.68-4.69s-4.68,2.11-4.68,4.69S268.65,237.59,271.22,237.59L271.22,237.59z
		"/>
	<path fill="#FFFFFE" stroke="#000000" stroke-width="2" stroke-linecap="round" stroke-linejoin="round" stroke-miterlimit="10" d="
		M383.2,265.24c5.74,0,10.42-4.69,10.42-10.43c0-5.74-4.68-10.43-10.42-10.43s-10.42,4.69-10.42,10.43
		C372.77,260.56,377.46,265.24,383.2,265.24L383.2,265.24z"/>
	<path fill="#FFFFFE" stroke="#000000" stroke-width="2" stroke-linecap="round" stroke-linejoin="round" stroke-miterlimit="10" d="
		M285.19,93.81c5.77,0,10.45-4.69,10.45-10.43c0-5.74-4.68-10.46-10.45-10.46c-5.74,0-10.42,4.71-10.42,10.46
		C274.76,89.13,279.45,93.81,285.19,93.81L285.19,93.81z"/>
	<path fill="#FFFFFE" stroke="#000000" stroke-width="2" stroke-linecap="round" stroke-linejoin="round" stroke-miterlimit="10" d="
		M383.2,258.76c2.51,0,4.54-1.91,4.54-4.23c0-2.34-2.03-4.23-4.54-4.23c-2.48,0-4.54,1.89-4.54,4.23
		C378.65,256.84,380.71,258.76,383.2,258.76L383.2,258.76z"/>
	<path fill="#FFFFFE" stroke="#000000" stroke-width="2" stroke-linecap="round" stroke-linejoin="round" stroke-miterlimit="10" d="
		M285.19,87.3c2.51,0,4.54-1.89,4.54-4.23s-2.03-4.23-4.54-4.23c-2.48,0-4.51,1.89-4.51,4.23S282.7,87.3,285.19,87.3L285.19,87.3z"
		/>
	<path fill="#FFFFFE" stroke="#000000" stroke-width="2" stroke-linecap="round" stroke-linejoin="round" stroke-miterlimit="10" d="
		M325,118.87c9.57,0,2.37-0.34,9.8,4.49c2.26,1.46,6.14,5.49,7.17,0.11c1.34-6.91,4.63-5.46-1.28-7.11
		c-1.89-0.51-9.68,1.03-11.88-1.71c-2.51-3.11-1.23-1.71,0.29-6c1.06-3,3.4,5.86,6.88,0.6c3.11-4.74,1.83-10.8-0.31-13.69
		c-2.63-3.51-12.39-6.69-12.37,1.51c0,3.66,2.91,4.63,2.63,7.69c-0.6,6.23-1.17,7.43-4.51,2.8c-1.69-2.37-9.28-8.74-11.68-6
		c-3.83,4.43-3.2,3.4-2.14,7.09c1.88,6.74,6.4,2.03,8.88,3.29c3.37,1.77,1.57,3.6,3.51,5c-0.03,2.37-5.83,9.03-5.48,8.49l3.68,2.31
		L325,118.87z"/>
	<path fill="#FFFFFE" stroke="#000000" stroke-width="2" stroke-linecap="round" stroke-linejoin="round" stroke-miterlimit="10" d="
		M114.1,261.67c9.57,0,2.37-0.34,9.8,4.49c2.28,1.49,6.17,5.49,7.2,0.14c1.31-6.94,4.63-5.49-1.29-7.14
		c-1.88-0.51-9.68,1.03-11.88-1.69c-2.51-3.11-1.23-1.71,0.29-6.03c1.06-2.97,3.4,5.89,6.88,0.63c3.11-4.74,1.83-10.83-0.31-13.69
		c-2.63-3.54-12.39-6.71-12.39,1.51c0.03,3.63,2.94,4.63,2.66,7.66c-0.6,6.23-1.2,7.43-4.51,2.8c-1.71-2.34-9.28-8.74-11.68-5.97
		c-3.83,4.4-3.2,3.4-2.17,7.09c1.88,6.71,6.43,2,8.88,3.29c3.37,1.74,1.6,3.6,3.54,4.97c-0.03,2.37-5.83,9.03-5.48,8.51l3.66,2.29
		L114.1,261.67z"/>
	<path fill="#FFFFFE" stroke="#000000" stroke-width="2" stroke-linecap="round" stroke-linejoin="round" stroke-miterlimit="10" d="
		M247.72,191.41c-9.02,1.23-15.16-4.46-21.19,4.31c-2.11,3.06-4.74,4.03-5.57,8.17c-0.77,3.77-5.57,13.17,0.97,15.83
		c4.25,1.71,4.08,6.43,14.54,2.17c5.63-2.26,6.4-7.97,14.31-7.97c3.48,0,18.11,0.86,20.33-0.91c1.34-1.09,14.82,0.83,18.13-0.17
		c3.26-0.97,7.28-0.51,5.91-5.83c-0.74-2.89-11.08-0.83-17.11-3.6c-5-2.31-11.65-2.46-11.51-8.91c0.14-6.94-6.31-1.63-8.85,1.26
		c-3.23,3.63-7.45,5.86-12.88,4.77c-2.23-0.43-2.88-4.89,2.88-6.69C250.46,192.96,251.89,190.84,247.72,191.41L247.72,191.41z"/>
	<path fill="#FFFFFE" stroke="#000000" stroke-width="2" stroke-linecap="round" stroke-linejoin="round" stroke-miterlimit="10" d="
		M343.99,171.07c-6.43,1.49-14.79-1.94-22.56,2.43c-5.34,3-2.97,2.94-5,7.77c-2.43,5.86-0.97,21.69-0.77,28.63
		c0.14,4.89,3.11,11.54,6.94,14.66c2.23,1.77,8.62,4.29,8.62-0.31c0-3.11-3.63-5.4-3.63-14.17c0-6.97-0.63-8.74,0.71-15.6
		c0.91-4.6,1.11-8.31,6.63-10.14c1.26-0.4,5.25-4.11,9.85-5.69c1.49-0.51,5.68-2.97,5.63-4.66c-0.11-3.51-2.4-3.31-5.88-3.09
		L343.99,171.07z"/>
	<path fill="#FFFFFE" stroke="#000000" stroke-width="2" stroke-linecap="round" stroke-linejoin="round" stroke-miterlimit="10" d="
		M234.21,111.79c-1.97,0.83-8.94,8.03-12.25,10.37c-5.74,4.03-1.31,10.17-11.31,10.06c-2.94-0.03-15.54,8-16.93,11.6
		c-3.14,8.14-3.28,2.31-1.03,10c0.29,1.03,6.34,6.97,9.45,6.97c6.4,0,9.34-2.66,12.42-7.74c1.31-2.17,0-8,2.91-14.03
		c3.71-7.69,5.63-14.34,13.94-18.91c2.17-1.2,12.19-10.29,5.51-9.83C236.67,110.3,234.53,111.64,234.21,111.79L234.21,111.79z"/>
	<path fill="#FFFFFE" stroke="#000000" stroke-width="2" stroke-linecap="round" stroke-linejoin="round" stroke-miterlimit="10" d="
		M167.1,60.24c-3.06,3.6-5.63,0.26-6.63,10.63c-0.37,4.03,0.14,10.63-1.14,14.74c-1.43,4.46-1.23,8.69-3.68,13.54
		c-0.86,1.63-0.6,7.77,1.63,9.66c3.68,3.14,1.91,2.89,7.25,5.77c3.8,2.03,3.94,3.6,9.97,2.83c2.37-0.29,1.17-5.89-2.28-8.14
		c-4.37-2.89,4-6.03,5.23-7.97c1.83-2.83,9.48-0.57,13.59-6.57c2.2-3.23-6.43-5-8.88-5c-13.34,0-10.82-5.6-10.82-17.57
		c0-2.8,0.74-11.91-3.14-11.91C167.82,60.24,167.25,60.07,167.1,60.24L167.1,60.24z"/>
	<path fill="#FFFFFE" stroke="#000000" stroke-width="2" stroke-linecap="round" stroke-linejoin="round" stroke-miterlimit="10" d="
		M324.94,72.76c4.46,0,11.42-2.94,14.68-0.4c3.14,2.46,9.37,5.86,9.37,10.2c0,6.83,0.17,13.23,3.83,19.09
		c1.11,1.74,5.23,9.71,6.71,10.89c2.91,2.29,10.17,2.51,12.62-0.69c3.2-4.11,2.08-2.23,3.28-7.69
		c2.57-11.86-10.62-23.09-19.22-28.77c-4.77-3.17-8.85-7.66-14.62-9.23c-7-1.91-25.19-12.46-31.38-17.4
		c-3.25-2.63-3.88-3.54-7.6-5.71c-1.57-0.91-4.88-4.23-7.74-4.34c-1.14-0.03-12.19-6.23-24.07-6.06
		c-5.17,0.09-13.88-2.14-13.71,6.43c0.09,4.49,0.74,3.66,2.2,7.83c1.91,5.49,19.36,3.86,24.22,2.83c4.2-0.91,12.65,0.8,15.28,4.03
		c2,2.46,3.94,2.63,5.54,5.91c0.86,1.8,3.8,2.97,5.54,7.11C312.83,73.79,313.23,75.01,324.94,72.76L324.94,72.76z"/>
	<path fill="#FFFFFE" stroke="#000000" stroke-width="2" stroke-linecap="round" stroke-linejoin="round" stroke-miterlimit="10" d="
		M112.19,187.53l-17.39-8.49c-12.74-6.29-36.95-7.06-14.54,13.06c2.37,2.14,2.48,2.91,5.43,5c4.11,2.91,22.02,23.49,25.02,28.11
		c1.57,2.4,6.11,6.26,9.2,6.89c4.14,0.83,7.88,2.54,12.17,2.43c0.31-0.03,4.2,0.57,6.25,0.57c10.74,0,10.37-1.54,18.25-7.94
		c0.91-0.74,3.34-0.54,6.65-3.63c4.46-4.17,3.43-6.09,6.83-9.06c1.46-1.29,0.26-7.54-5.6-8.94c-6.25-1.51-12.96-0.2-19.65-0.2
		c-14.99,0-11.28,0.57-22.73-8.03c-3.26-2.46-2.86-1.74-6.05-4.97C113.81,190.1,113.84,189.76,112.19,187.53L112.19,187.53z"/>
	<path fill="#FFFFFE" stroke="#000000" stroke-width="2" stroke-linecap="round" stroke-linejoin="round" stroke-miterlimit="10" d="
		M141.46,242.9c-0.03,0-3.88,3.63-3.85,5.74c0.03,2.63-0.69,4.69,0.06,6.77c0.89,2.43-0.74,9.91,2.51,15.69
		c5.2,9.14-14.62,3.43-22.33,10.86c-2.6,2.49-12.85,3.94-10.42,8.26c0.34,0.57,3.68,2.11,5.57,1c1.48-0.86,6.45-3.43,8.25-3.2
		c5.65,0.71,5.97,2.09,13.79,2.09c9.2,0,13.31,1.11,14.65-9.49c0.83-6.69,0.66-8.77-4.23-13.51c-2.8-2.71-3.85-15.4,1.8-18.8
		c0.54-0.34,13.22-13.06,10.31-12.8c-3.54,0.34-3.74,0.51-6.57,3.26C148.4,241.27,145.86,242.93,141.46,242.9L141.46,242.9z"/>
	<path fill="#FFFFFE" stroke="#000000" stroke-width="2" stroke-linecap="round" stroke-linejoin="round" stroke-miterlimit="10" d="
		M201.51,313.76c-8.45-2.23-5.05-2.8-13.76-2.8c-9.68,0-9.74-3.06-13.48,8.17c-0.91,2.74-3.54,10.26-4.94,12.11
		c-1.31,1.71-3.63,9.49,1.37,9.77c11.25,0.69,6.25,0.14,15.94-3.57c4.94-1.89,11.54,6.83,23.62,5.43c2.8-0.31,4.17-5.4,4.25-7.66
		c0.37-11.06-0.11-9.46-12.82-9.46c-4.08,0-3.03-2.69-3.03-7.14C198.66,316.79,199.91,313.33,201.51,313.76L201.51,313.76z"/>
	<path fill="#FFFFFE" stroke="#000000" stroke-width="2" stroke-linecap="round" stroke-linejoin="round" stroke-miterlimit="10" d="
		M210.54,363.39c-0.17,0.03-5.65,5-6.48,5.69c-4.17,3.51-6.45,1.06-11.25,4.34c-3.51,2.4-13.65,1.91-15.88-4.06
		c-1.46-3.91-6.65-1.8-4.4-12.37c0.37-1.74,1.06-5.09-0.31-6.49c-3.8-3.94-11.14-2.46-11.68,6.14c-0.26,4.17-2.08,5.37,0.54,10.43
		c1.46,2.8,0.91,2.14,4.4,3.86c6.23,3.06,4.83,6.09,12.85,6.51c12.25,0.66,17.25,2.06,30.07-1.8c0.89-0.26,5.17-0.51,8.02-1.23
		c4.06-1.06,8.4-0.71,13.71-2.09c4.31-1.14,12.65,0.46,16.85,2.09c2.06,0.8,19.28,0.49,20.79-0.74c3.08-2.57,2.2-2.51-0.43-6.29
		c-3.17-4.63-10.42-0.51-16.11-8.43c-4.14-5.71-4.46-7.69-3.2-14.2c0.34-1.74,0.77-5.71-1.54-5.69
		c-10.48,0.14-3.8,15.23-13.42,20.63C232.98,359.73,212.28,363.16,210.54,363.39L210.54,363.39z"/>
</g>
</svg>
