<?xml version="1.0" encoding="utf-8"?>
<svg version="1.2" baseProfile="tiny" id="Layer_1" xmlns="http://www.w3.org/2000/svg" xmlns:xlink="http://www.w3.org/1999/xlink"
	 x="0px" y="0px" width="452.58px" height="442.95px" viewBox="0 0 452.58 442.95" xml:space="preserve">
<g>
	<g id="XMLID_1_">
		<g>
			<polygon fill="#FFFFFE" stroke="#000000" stroke-width="3" stroke-linecap="round" stroke-linejoin="round" points="451.08,202.17 433.89,202.42 428.42,218.63 423.33,202.58 406.13,202.9 420.17,192.72 
				415.01,176.7 428.79,186.47 442.79,176.25 437.27,192.45 			"/>
			<polygon fill="#FFFFFE" stroke="#000000" stroke-width="3" stroke-linecap="round" stroke-linejoin="round" points="428.01,312.21 414.02,322.06 419.49,338.05 405.44,328.14 391.49,338.05 396.8,322.06 
				382.7,312.21 400.03,312.23 405.27,296.22 410.68,312.23 			"/>
			<polygon fill="#FFFFFE" stroke="#000000" stroke-width="3" stroke-linecap="round" stroke-linejoin="round" points="396.81,73.66 383.04,83.98 388.15,100.31 374.6,90.32 360.86,100.69 366.26,84.21 352.66,74.27 
				369.55,74.08 374.88,57.57 379.92,73.93 			"/>
			<path fill="#FFFFFE" stroke="#000000" stroke-width="3" stroke-linecap="round" stroke-linejoin="round" d="M382.65,221.47c0,14.99-2.13,29.5-6.1,43.25c-15.08,0.73-23.7-1.07-29.03-5.16
				c3.79-12.03,5.84-24.83,5.84-38.09c0-14.14-2.33-27.75-6.62-40.47c6.71,0.17,14.75-3.43,26.52-12.89
				C379.33,184.77,382.65,202.75,382.65,221.47z"/>
			<path fill="#FFFFFE" stroke="#000000" stroke-width="3" stroke-linecap="round" stroke-linejoin="round" d="M347.52,259.56c5.33,4.09,13.95,5.89,29.03,5.16c-9.25,32.07-28.52,59.97-54.18,80.04
				c-12.63-8.29-18.52-14.82-20.4-21.27C323.22,307.66,339.39,285.37,347.52,259.56z"/>
			<path fill="#FFFFFE" stroke="#000000" stroke-width="3" stroke-linecap="round" stroke-linejoin="round" d="M322.37,344.76c25.66-20.07,44.93-47.97,54.18-80.04c3.97-13.75,6.1-28.26,6.1-43.25
				c0-18.72-3.32-36.7-9.39-53.36c-11.37-31.19-32.41-57.79-59.45-76.15c-25-16.98-55.14-26.92-87.51-26.92
				c-1.78,0-3.56,0.03-5.33,0.1c-34.1,1.14-65.5,13.31-90.72,33.05c-25.68,20.06-44.96,47.96-54.22,80.05
				c-3.96,13.74-6.09,28.24-6.09,43.23c0,18.72,3.32,36.7,9.39,53.37c11.37,31.19,32.41,57.8,59.45,76.16
				c25,16.98,55.14,26.92,87.52,26.92c1.78,0,3.56-0.03,5.33-0.1C265.74,376.68,297.14,364.5,322.37,344.76z M226.3,49.39
				c94.73,0,171.99,77.3,171.99,172.08c0,94.78-77.26,172.08-171.99,172.08c-94.74,0-172-77.3-172-172.08
				C54.3,126.69,131.56,49.39,226.3,49.39z"/>
			<path fill="#FFFFFE" stroke="#000000" stroke-width="3" stroke-linecap="round" stroke-linejoin="round" d="M373.26,168.11c-11.77,9.46-19.81,13.06-26.52,12.89c-8.64-25.63-25.25-47.64-46.85-63.06
				c5.55-3.79,9.95-11.41,13.92-25.98C340.85,110.32,361.89,136.92,373.26,168.11z"/>
			<polygon fill="#FFFFFE" stroke="#000000" stroke-width="3" stroke-linecap="round" stroke-linejoin="round" points="336.19,413.5 319.08,413.24 314.11,429.4 308.56,413.11 291.45,412.93 305.14,403.11 
				299.53,386.85 313.53,397.06 327.16,387.2 322.15,403.33 			"/>
			<path fill="#FFFFFE" stroke="#000000" stroke-width="3" stroke-linecap="round" stroke-linejoin="round" d="M346.74,181c-5.09-0.12-9.42-2.43-14.04-5.99c-10.71-8.27-23.59-14.83-36.89-4.41
				c-0.02,0.02-0.04,0.03-0.06,0.05c-10.62-14.5-25.66-25.57-43.1-31.2v-0.01c4.64-16.25,18.9-18.53,32.43-18.14
				c5.8,0.17,10.63-0.51,14.81-3.36C321.49,133.36,338.1,155.37,346.74,181z"/>
			<path fill="#FFFFFE" stroke="#000000" stroke-width="3" stroke-linecap="round" stroke-linejoin="round" d="M312.42,221.2c16.89-0.61,23.46,12.26,27.26,25.26c1.64,5.6,3.79,10.01,7.84,13.1
				c-8.13,25.81-24.3,48.1-45.55,63.93c-1.42-4.86-0.57-9.66,1.38-15.12c4.55-12.76,6.8-27.03-7.22-36.47
				c-0.02-0.01-0.04-0.03-0.06-0.04c10.28-14.19,16.34-31.6,16.34-50.39C312.41,221.38,312.41,221.29,312.42,221.2L312.42,221.2z"/>
			<path fill="#FFFFFE" stroke="#000000" stroke-width="3" stroke-linecap="round" stroke-linejoin="round" d="M301.97,323.49c1.88,6.45,7.77,12.98,20.4,21.27c-25.23,19.74-56.63,31.92-90.74,33.06
				c-5.36-14.13-6.31-22.89-4.08-29.23C255.38,348.32,281.12,339.03,301.97,323.49z"/>
			<path fill="#FFFFFE" stroke="#000000" stroke-width="3" stroke-linecap="round" stroke-linejoin="round" d="M296.65,230.64c9.69,9.46,0.86,7.91-16.03,8.52c1.82-5.57,2.81-11.52,2.81-17.69
				c0-6.15-0.98-12.08-2.8-17.63l0.02-0.01c13.3-10.42,21.33-14.37,7.94-16.32c-6.29-0.92-13.48-0.25,7.16-16.86
				c10.42,14.19,16.6,31.67,16.66,50.55C285.88,222.5,292.09,226.18,296.65,230.64z"/>
			<path fill="#FFFFFE" stroke="#000000" stroke-width="3" stroke-linecap="round" stroke-linejoin="round" d="M277.83,270.26c2.29,13.34-3.95,6.92-17.97-2.52l-0.03-0.04c9.64-7.01,17.02-16.97,20.79-28.54
				c16.89-0.61,25.72,0.94,16.03-8.52c-4.56-4.46-10.77-8.14,15.76-9.44c0,0.09,0,0.18,0,0.27c0,18.79-6.06,36.2-16.34,50.39
				C273.91,257.35,276.76,263.99,277.83,270.26z"/>
			<path fill="#FFFFFE" stroke="#000000" stroke-width="3" stroke-linecap="round" stroke-linejoin="round" d="M313.81,91.96c-3.97,14.57-8.37,22.19-13.92,25.98c-20.79-14.85-46.2-23.6-73.59-23.6
				c-0.42,0-0.84,0-1.26,0.01c2.23-6.33,1.28-15.09-4.07-29.21c1.77-0.07,3.55-0.1,5.33-0.1C258.67,65.04,288.81,74.98,313.81,91.96
				z"/>
			<path fill="#FFFFFE" stroke="#000000" stroke-width="3" stroke-linecap="round" stroke-linejoin="round" d="M296.13,271.9c14.02,9.44,11.77,23.71,7.22,36.47c-1.95,5.46-2.8,10.26-1.38,15.12
				c-20.85,15.54-46.59,24.83-74.42,25.1c1.69-4.8,5.21-8.21,10.03-11.5c11.18-7.65,21.38-17.87,15.59-33.76v-0.01
				c17.39-5.74,32.37-16.9,42.9-31.46C296.09,271.87,296.11,271.89,296.13,271.9z"/>
			<path fill="#FFFFFE" stroke="#000000" stroke-width="3" stroke-linecap="round" stroke-linejoin="round" d="M339.68,246.46c-3.8-13-10.37-25.87-27.26-25.26h-0.01c-0.06-18.88-6.24-36.36-16.66-50.55
				c0.02-0.02,0.04-0.03,0.06-0.05c13.3-10.42,26.18-3.86,36.89,4.41c4.62,3.56,8.95,5.87,14.04,5.99
				c4.29,12.72,6.62,26.33,6.62,40.47c0,13.26-2.05,26.06-5.84,38.09C343.47,256.47,341.32,252.06,339.68,246.46z"/>
			<path fill="#FFFFFE" stroke="#000000" stroke-width="3" stroke-linecap="round" stroke-linejoin="round" d="M288.59,187.51c13.39,1.95,5.36,5.9-7.94,16.32l-0.02,0.01c-3.76-11.57-11.13-21.54-20.76-28.56
				l0.03-0.04c4.64-16.25,8.83-24.18-3.16-17.88c-5.64,2.96-11.06,7.74-4.09-17.91c17.44,5.63,32.48,16.7,43.1,31.2
				C275.11,187.26,282.3,186.59,288.59,187.51z"/>
			<polygon fill="#FFFFFE" stroke="#000000" stroke-width="3" stroke-linecap="round" stroke-linejoin="round" points="286.06,28.27 269.22,28.16 264.2,44.62 258.89,28.11 242.05,28.07 255.58,17.98 250.2,1.5 
				263.9,11.76 277.4,1.62 272.33,18.06 			"/>
			<path fill="#FFFFFE" stroke="#000000" stroke-width="3" stroke-linecap="round" stroke-linejoin="round" d="M280.63,203.84c1.82,5.55,2.8,11.48,2.8,17.63c0,6.17-0.99,12.12-2.81,17.69
				c-3.77,11.57-11.15,21.53-20.79,28.54c-9.43,6.87-21.02,10.93-33.53,10.93c-0.01,0-0.02,0-0.03,0
				c-12.52-0.01-24.12-4.08-33.55-10.96c-9.63-7.03-17-16.99-20.77-28.56c-1.81-5.56-2.79-11.49-2.79-17.64
				c0-6.17,0.99-12.12,2.81-17.69c3.78-11.56,11.16-21.52,20.8-28.53c9.43-6.87,21.02-10.93,33.53-10.93c0.01,0,0.01,0,0.02,0
				c12.52,0,24.12,4.07,33.55,10.96C269.5,182.3,276.87,192.27,280.63,203.84z"/>
			<path fill="#FFFFFE" stroke="#000000" stroke-width="3" stroke-linecap="round" stroke-linejoin="round" d="M226.3,278.63c12.51,0,24.1-4.06,33.53-10.93l0.03,0.04c14.02,9.44,20.26,15.86,17.97,2.52
				c-1.07-6.27-3.92-12.91,18.24,1.6c-10.53,14.56-25.51,25.72-42.9,31.46c-9.43-24.84-11.01-17.79-13.85-12.07
				c-5.99,12.14-7.25,3.27-13.05-12.62C226.28,278.63,226.29,278.63,226.3,278.63z"/>
			<path fill="#FFFFFE" stroke="#000000" stroke-width="3" stroke-linecap="round" stroke-linejoin="round" d="M256.74,157.36c11.99-6.3,7.8,1.63,3.16,17.88l-0.03,0.04c-9.43-6.89-21.03-10.96-33.55-10.96v-0.01
				c-5.8-15.89-7.06-24.74-13.05-12.61c-2.84,5.71-4.42,12.76-13.84-12.07c8.46-2.81,17.5-4.32,26.87-4.32
				c9.18,0,18.04,1.45,26.35,4.14C245.68,165.1,251.1,160.32,256.74,157.36z"/>
			<path fill="#FFFFFE" stroke="#000000" stroke-width="3" stroke-linecap="round" stroke-linejoin="round" d="M253.17,303.33c5.79,15.89-4.41,26.11-15.59,33.76c-4.82,3.29-8.34,6.7-10.03,11.5
				c-0.42,0.01-0.83,0.01-1.25,0.01c-27.39,0-52.81-8.75-73.6-23.59c4.18-2.86,9.01-3.54,14.81-3.38
				c13.53,0.4,27.79-1.87,32.43-18.13c0-0.01,0-0.01,0-0.02h0.01c8.31,2.7,17.17,4.15,26.35,4.15c9.37,0,18.41-1.51,26.87-4.31
				V303.33z"/>
			<path fill="#FFFFFE" stroke="#000000" stroke-width="3" stroke-linecap="round" stroke-linejoin="round" d="M252.65,139.44L252.65,139.44c-8.31-2.68-17.17-4.13-26.35-4.13c-9.37,0-18.41,1.51-26.87,4.32
				c0-0.01-0.01-0.01-0.01-0.02c-5.8-15.87,4.41-26.11,15.59-33.74c4.82-3.3,8.34-6.71,10.03-11.52c0.42-0.01,0.84-0.01,1.26-0.01
				c27.39,0,52.8,8.75,73.59,23.6c-4.18,2.85-9.01,3.53-14.81,3.36C271.55,120.91,257.29,123.19,252.65,139.44z"/>
			<path fill="#FFFFFE" stroke="#000000" stroke-width="3" stroke-linecap="round" stroke-linejoin="round" d="M239.32,291.25c2.84-5.72,4.42-12.77,13.85,12.07c-8.46,2.8-17.5,4.31-26.87,4.31
				c-9.18,0-18.04-1.45-26.35-4.15c6.96-25.63,1.54-20.86-4.1-17.89c-11.99,6.29-7.8-1.62-3.16-17.88l0.03-0.04
				c9.43,6.88,21.03,10.95,33.55,10.96C232.07,294.52,233.33,303.39,239.32,291.25z"/>
			<path fill="#FFFFFE" stroke="#000000" stroke-width="3" stroke-linecap="round" stroke-linejoin="round" d="M227.55,348.59c-2.23,6.34-1.28,15.1,4.08,29.23c-1.77,0.07-3.55,0.1-5.33,0.1
				c-32.38,0-62.52-9.94-87.52-26.92c3.98-14.58,8.37-22.2,13.92-25.99c20.79,14.84,46.21,23.59,73.6,23.59
				C226.72,348.6,227.13,348.6,227.55,348.59z"/>
			<path fill="#FFFFFE" stroke="#000000" stroke-width="3" stroke-linecap="round" stroke-linejoin="round" d="M213.27,151.7c5.99-12.13,7.25-3.28,13.05,12.61v0.01c-0.01,0-0.01,0-0.02,0
				c-12.51,0-24.1,4.06-33.53,10.93l-0.04-0.05c-14.02-9.43-20.26-15.86-17.97-2.52c1.08,6.29,3.92,12.92-18.24-1.6
				c10.54-14.56,25.51-25.72,42.91-31.45C208.85,164.46,210.43,157.41,213.27,151.7z"/>
			<path fill="#FFFFFE" stroke="#000000" stroke-width="3" stroke-linecap="round" stroke-linejoin="round" d="M220.97,65.14c5.35,14.12,6.3,22.88,4.07,29.21c-27.83,0.27-53.57,9.57-74.42,25.11
				c-1.87-6.45-7.75-12.99-20.37-21.27C155.47,78.45,186.87,66.28,220.97,65.14z"/>
			<polygon fill="#FFFFFE" stroke="#000000" stroke-width="3" stroke-linecap="round" stroke-linejoin="round" points="210.54,414.87 197,424.96 202.39,441.45 188.7,431.18 175.19,441.34 180.26,424.9 166.53,414.69 
				183.37,414.79 188.39,398.32 193.7,414.83 			"/>
			<path fill="#FFFFFE" stroke="#000000" stroke-width="3" stroke-linecap="round" stroke-linejoin="round" d="M171.95,239.11c3.77,11.57,11.14,21.53,20.77,28.56l-0.03,0.04c-4.64,16.26-8.83,24.17,3.16,17.88
				c5.64-2.97,11.06-7.74,4.1,17.89h-0.01c-17.44-5.62-32.48-16.69-43.1-31.18v-0.01c20.64-16.6,13.45-15.94,7.16-16.86
				C150.61,253.48,158.64,249.54,171.95,239.11z"/>
			<path fill="#FFFFFE" stroke="#000000" stroke-width="3" stroke-linecap="round" stroke-linejoin="round" d="M171.97,203.78c-1.82,5.57-2.81,11.52-2.81,17.69c0,6.15,0.98,12.08,2.79,17.64
				c-13.31,10.43-21.34,14.37-7.95,16.32c6.29,0.92,13.48,0.26-7.16,16.86c-10.42-14.19-16.6-31.67-16.66-50.55
				c26.53-1.28,20.32-4.98,15.76-9.43C146.25,202.86,155.08,204.39,171.97,203.78z"/>
			<polygon fill="#FFFFFE" stroke="#000000" stroke-width="3" stroke-linecap="round" stroke-linejoin="round" points="161.14,30.02 147.45,39.83 153.06,56.1 139.06,45.88 125.42,55.75 130.44,39.62 116.4,29.45 
				133.51,29.7 138.48,13.54 144.03,29.83 			"/>
			<path fill="#FFFFFE" stroke="#000000" stroke-width="3" stroke-linecap="round" stroke-linejoin="round" d="M156.52,171.08c22.16,14.52,19.32,7.89,18.24,1.6c-2.29-13.34,3.95-6.91,17.97,2.52l0.04,0.05
				c-9.64,7.01-17.02,16.97-20.8,28.53c-16.89,0.61-25.72-0.92-16.03,8.53c4.56,4.45,10.77,8.15-15.76,9.43c0-0.09,0-0.18,0-0.27
				C140.18,202.68,146.25,185.26,156.52,171.08z"/>
			<path fill="#FFFFFE" stroke="#000000" stroke-width="3" stroke-linecap="round" stroke-linejoin="round" d="M156.84,272.3c10.62,14.49,25.66,25.56,43.1,31.18c0,0.01,0,0.01,0,0.02
				c-4.64,16.26-18.9,18.53-32.43,18.13c-5.8-0.16-10.63,0.52-14.81,3.38c-21.61-15.43-38.21-37.44-46.85-63.06
				c5.09,0.13,9.42,2.43,14.04,5.99c10.71,8.28,23.59,14.83,36.89,4.4C156.8,272.32,156.82,272.31,156.84,272.3z"/>
			<path fill="#FFFFFE" stroke="#000000" stroke-width="3" stroke-linecap="round" stroke-linejoin="round" d="M156.46,171.04c0.02,0.01,0.04,0.03,0.06,0.04c-10.27,14.18-16.34,31.6-16.34,50.39c0,0.09,0,0.18,0,0.27
				h-0.01c-16.89,0.61-23.44-12.26-27.26-25.24c-1.64-5.61-3.79-10.02-7.84-13.11c8.13-25.81,24.3-48.1,45.55-63.93
				c1.42,4.86,0.57,9.66-1.38,15.12C144.69,147.33,142.44,161.61,156.46,171.04z"/>
			<path fill="#FFFFFE" stroke="#000000" stroke-width="3" stroke-linecap="round" stroke-linejoin="round" d="M199.42,139.61c0,0.01,0.01,0.01,0.01,0.02c-17.4,5.73-32.37,16.89-42.91,31.45
				c-0.02-0.01-0.04-0.03-0.06-0.04c-14.02-9.43-11.77-23.71-7.22-36.46c1.95-5.46,2.8-10.26,1.38-15.12
				c20.85-15.54,46.59-24.84,74.42-25.11c-1.69,4.81-5.21,8.22-10.03,11.52C203.83,113.5,193.62,123.74,199.42,139.61z"/>
			<path fill="#FFFFFE" stroke="#000000" stroke-width="3" stroke-linecap="round" stroke-linejoin="round" d="M156.78,272.34c-13.3,10.43-26.18,3.88-36.89-4.4c-4.62-3.56-8.95-5.86-14.04-5.99
				c-4.29-12.72-6.62-26.34-6.62-40.48c0-13.26,2.05-26.05,5.84-38.08c4.05,3.09,6.2,7.5,7.84,13.11
				c3.82,12.98,10.37,25.85,27.26,25.24h0.01c0.06,18.88,6.24,36.36,16.66,50.55v0.01C156.82,272.31,156.8,272.32,156.78,272.34z"/>
			<path fill="#FFFFFE" stroke="#000000" stroke-width="3" stroke-linecap="round" stroke-linejoin="round" d="M150.62,119.46c-21.25,15.83-37.42,38.12-45.55,63.93c-5.33-4.09-13.95-5.89-29.04-5.15
				c9.26-32.09,28.54-59.99,54.22-80.05C142.87,106.47,148.75,113.01,150.62,119.46z"/>
			<path fill="#FFFFFE" stroke="#000000" stroke-width="3" stroke-linecap="round" stroke-linejoin="round" d="M79.33,274.84c11.77-9.46,19.81-13.06,26.52-12.89c8.64,25.62,25.24,47.63,46.85,63.06
				c-5.55,3.79-9.94,11.41-13.92,25.99C111.74,332.64,90.7,306.03,79.33,274.84z"/>
			<polygon fill="#FFFFFE" stroke="#000000" stroke-width="3" stroke-linecap="round" stroke-linejoin="round" points="99.93,368.67 83.04,368.88 77.71,385.38 72.67,369.02 55.78,369.29 69.55,358.98 64.44,342.64 
				78,352.62 91.73,342.25 86.33,358.74 			"/>
			<path fill="#FFFFFE" stroke="#000000" stroke-width="3" stroke-linecap="round" stroke-linejoin="round" d="M76.03,178.24c15.09-0.74,23.71,1.06,29.04,5.15c-3.79,12.03-5.84,24.82-5.84,38.08
				c0,14.14,2.33,27.76,6.62,40.48c-6.71-0.17-14.75,3.43-26.52,12.89c-6.07-16.67-9.39-34.65-9.39-53.37
				C69.94,206.48,72.07,191.98,76.03,178.24z"/>
			<polygon fill="#FFFFFE" stroke="#000000" stroke-width="3" stroke-linecap="round" stroke-linejoin="round" points="69.9,130.75 52.56,130.72 47.32,146.72 41.91,130.72 24.58,130.75 38.57,120.89 33.1,104.9 
				47.15,114.81 61.1,104.9 55.79,120.89 			"/>
			<polygon fill="#FFFFFE" stroke="#000000" stroke-width="3" stroke-linecap="round" stroke-linejoin="round" points="46.46,240.06 32.42,250.21 37.59,266.25 23.8,256.48 9.8,266.69 15.32,250.5 1.5,240.78 
				18.7,240.54 24.16,224.32 29.26,240.37 			"/>
		</g>
	</g>
</g>
</svg>
