<?xml version="1.0" encoding="utf-8"?>

<svg version="1.2" baseProfile="tiny" id="Layer_1" xmlns="http://www.w3.org/2000/svg" xmlns:xlink="http://www.w3.org/1999/xlink"
	 x="0px" y="0px" width="476.39px" height="476.63px" viewBox="0 0 476.39 476.63" xml:space="preserve">
<g>
	
		<polygon fill-rule="evenodd" fill="#FFFFFE" stroke="#000000" stroke-linecap="round" stroke-linejoin="round" stroke-miterlimit="10" points="
		231.7,0.5 225.19,1.1 218.71,11.53 204.06,19.99 196.63,29.07 181.84,61.27 180.47,72.01 195.89,67.61 201.92,64.9 210.08,62.79 
		229.44,68.07 236.53,61.59 238.5,52.5 238.04,43.27 234.56,36.79 233.81,31.19 235.78,24.84 237.44,7.76 236.24,3.53 	"/>
	
		<polygon fill-rule="evenodd" fill="#FFFFFE" stroke="#000000" stroke-linecap="round" stroke-linejoin="round" stroke-miterlimit="10" points="
		65.52,74.76 61.36,79.79 64.13,91.76 59.76,108.1 60.93,119.76 73.21,153.01 79.83,161.56 87.63,147.56 90,141.36 94.25,134.07 
		111.67,124.13 112.1,114.53 107.08,106.7 100.25,100.5 93.2,98.39 88.71,94.96 85.6,89.07 74.72,75.81 70.87,73.67 	"/>
	
		<polygon fill-rule="evenodd" fill="#FFFFFE" stroke="#000000" stroke-linecap="round" stroke-linejoin="round" stroke-miterlimit="10" points="
		0.5,244.81 1.1,251.33 11.52,257.81 19.98,272.47 29.06,279.9 61.24,294.7 71.98,296.07 67.58,280.64 64.87,274.61 62.75,266.44 
		68.04,247.07 61.56,239.99 52.47,238.01 43.25,238.47 36.77,241.96 31.17,242.7 24.83,240.73 7.75,239.07 3.53,240.27 	"/>
	
		<polygon fill-rule="evenodd" fill="#FFFFFE" stroke="#000000" stroke-linecap="round" stroke-linejoin="round" stroke-miterlimit="10" points="
		74.72,411.07 79.75,415.24 91.71,412.47 108.05,416.84 119.7,415.67 152.94,403.39 161.48,396.76 147.48,388.96 141.29,386.59 
		134.01,382.33 124.07,364.9 114.47,364.47 106.65,369.5 100.45,376.33 98.34,383.39 94.91,387.87 89.03,390.99 75.78,401.87 
		73.64,405.73 	"/>
	
		<polygon fill-rule="evenodd" fill="#FFFFFE" stroke="#000000" stroke-linecap="round" stroke-linejoin="round" stroke-miterlimit="10" points="
		244.69,476.13 251.21,475.53 257.69,465.1 272.34,456.64 279.76,447.56 294.55,415.36 295.93,404.61 280.5,409.01 274.48,411.73 
		266.31,413.84 246.95,408.56 239.87,415.04 237.9,424.13 238.35,433.36 241.84,439.84 242.58,445.44 240.61,451.79 238.95,468.87 
		240.15,473.1 	"/>
	
		<polygon fill-rule="evenodd" fill="#FFFFFE" stroke="#000000" stroke-linecap="round" stroke-linejoin="round" stroke-miterlimit="10" points="
		410.87,401.87 415.04,396.84 412.27,384.87 416.64,368.53 415.47,356.87 403.19,323.61 396.56,315.07 388.77,329.07 386.4,335.27 
		382.14,342.56 364.72,352.5 364.29,362.1 369.32,369.93 376.14,376.13 383.2,378.24 387.68,381.67 390.79,387.56 401.67,400.81 
		405.53,402.96 	"/>
	
		<polygon fill-rule="evenodd" fill="#FFFFFE" stroke="#000000" stroke-linecap="round" stroke-linejoin="round" stroke-miterlimit="10" points="
		475.89,231.81 475.29,225.3 464.87,218.81 456.42,204.16 447.34,196.73 415.15,181.93 404.42,180.56 408.81,195.99 411.53,202.01 
		413.64,210.19 408.36,229.56 414.84,236.64 423.92,238.61 433.14,238.16 439.63,234.67 445.22,233.93 451.56,235.9 468.64,237.56 
		472.87,236.36 	"/>
	
		<polygon fill-rule="evenodd" fill="#FFFFFE" stroke="#000000" stroke-linecap="round" stroke-linejoin="round" stroke-miterlimit="10" points="
		401.67,65.56 396.65,61.39 384.68,64.16 368.35,59.79 356.7,60.96 323.45,73.24 314.92,79.87 328.91,87.67 335.11,90.04 
		342.39,94.3 352.33,111.73 361.92,112.16 369.75,107.13 375.94,100.3 378.06,93.24 381.48,88.76 387.37,85.64 400.62,74.76 
		402.76,70.9 	"/>
	
		<polygon fill-rule="evenodd" fill="#FFFFFE" stroke="#000000" stroke-linecap="round" stroke-linejoin="round" stroke-miterlimit="10" points="
		247.26,0.56 253.75,1.19 260.26,11.61 274.91,20.07 282.33,29.16 297.13,61.36 298.5,72.07 283.08,67.7 277.02,64.99 268.88,62.87 
		249.52,68.16 242.44,61.64 240.47,52.59 240.92,43.36 244.38,36.84 245.15,31.27 243.18,24.9 241.52,7.81 242.72,3.59 	"/>
	
		<polygon fill-rule="evenodd" fill="#FFFFFE" stroke="#000000" stroke-linecap="round" stroke-linejoin="round" stroke-miterlimit="10" points="
		76.58,63.79 81.6,59.61 93.57,62.39 109.93,58.01 121.55,59.19 154.8,71.5 163.33,78.13 149.34,85.93 143.14,88.27 135.89,92.56 
		125.95,109.99 116.33,110.41 108.53,105.39 102.34,98.53 100.19,91.47 96.77,86.99 90.88,83.9 77.63,72.99 75.52,69.13 	"/>
	
		<polygon fill-rule="evenodd" fill="#FFFFFE" stroke="#000000" stroke-linecap="round" stroke-linejoin="round" stroke-miterlimit="10" points="
		0.56,229.24 1.19,222.76 11.61,216.24 20.06,201.59 29.14,194.16 61.33,179.36 72.04,177.99 67.67,193.41 64.95,199.47 
		62.84,207.61 68.12,226.99 61.61,234.07 52.56,236.04 43.34,235.59 36.82,232.13 31.26,231.36 24.89,233.33 7.81,234.99 
		3.58,233.79 	"/>
	
		<polygon fill-rule="evenodd" fill="#FFFFFE" stroke="#000000" stroke-linecap="round" stroke-linejoin="round" stroke-miterlimit="10" points="
		63.75,400.01 59.58,394.99 62.35,383.01 57.99,366.67 59.16,355.01 71.46,321.76 78.09,313.21 85.89,327.21 88.23,333.41 
		92.51,340.67 109.93,350.61 110.36,360.24 105.33,368.04 98.48,374.24 91.43,376.39 86.94,379.81 83.86,385.7 72.95,398.96 
		69.09,401.07 	"/>
	
		<polygon fill-rule="evenodd" fill="#FFFFFE" stroke="#000000" stroke-linecap="round" stroke-linejoin="round" stroke-miterlimit="10" points="
		229.13,476.07 222.65,475.44 216.14,465.01 201.49,456.56 194.06,447.47 179.27,415.27 177.9,404.56 193.32,408.93 199.37,411.64 
		207.51,413.76 226.87,408.47 233.96,414.99 235.93,424.04 235.47,433.27 232.01,439.79 231.24,445.36 233.21,451.73 234.87,468.81 
		233.67,473.04 	"/>
	
		<polygon fill-rule="evenodd" fill="#FFFFFE" stroke="#000000" stroke-linecap="round" stroke-linejoin="round" stroke-miterlimit="10" points="
		399.82,412.84 394.79,417.01 382.83,414.24 366.49,418.61 354.84,417.44 321.6,405.13 313.06,398.5 327.05,390.7 333.25,388.36 
		340.5,384.07 350.44,366.64 360.07,366.21 367.86,371.24 374.06,378.1 376.2,385.16 379.63,389.64 385.51,392.73 398.76,403.64 
		400.87,407.5 	"/>
	
		<polygon fill-rule="evenodd" fill="#FFFFFE" stroke="#000000" stroke-linecap="round" stroke-linejoin="round" stroke-miterlimit="10" points="
		475.84,247.39 475.21,253.87 464.78,260.39 456.33,275.04 447.25,282.47 415.07,297.27 404.36,298.64 408.73,283.21 411.44,277.16 
		413.55,269.01 408.27,249.64 414.78,242.56 423.83,240.59 433.06,241.04 439.57,244.5 445.14,245.27 451.51,243.3 468.58,241.64 
		472.81,242.84 	"/>
	
		<polygon fill-rule="evenodd" fill="#FFFFFE" stroke="#000000" stroke-linecap="round" stroke-linejoin="round" stroke-miterlimit="10" points="
		412.64,76.61 416.81,81.64 414.04,93.61 418.41,109.99 417.24,121.61 404.93,154.87 398.3,163.41 390.51,149.41 388.17,143.21 
		383.88,135.96 366.46,126.01 366.03,116.39 371.06,108.59 377.91,102.39 384.97,100.24 389.45,96.81 392.53,90.93 403.44,77.67 
		407.3,75.56 	"/>
	
		<polygon fill-rule="evenodd" fill="#FFFFFE" stroke="#000000" stroke-linecap="round" stroke-linejoin="round" stroke-miterlimit="10" points="
		196.8,5.93 186.21,2.76 181.52,4.13 176.24,9.87 173.96,16.07 176.1,21.04 189.98,34.36 204.48,15.16 212.97,9.87 212.97,6.39 
		207.97,1.84 201.17,3.07 	"/>
	
		<polygon fill-rule="evenodd" fill="#FFFFFE" stroke="#000000" stroke-linecap="round" stroke-linejoin="round" stroke-miterlimit="10" points="
		44.68,103.3 34.97,108.53 32.6,112.81 32.94,120.61 35.71,126.59 40.74,128.64 59.96,128.21 56.64,104.36 58.9,94.64 56.44,92.19 
		49.7,92.5 45.76,98.16 	"/>
	
		<polygon fill-rule="evenodd" fill="#FFFFFE" stroke="#000000" stroke-linecap="round" stroke-linejoin="round" stroke-miterlimit="10" points="
		5.93,279.73 2.76,290.33 4.13,295.01 9.87,300.3 16.06,302.59 21.03,300.44 34.34,286.56 15.15,272.04 9.87,263.56 6.38,263.56 
		1.84,268.56 3.07,275.36 	"/>
	
		<polygon fill-rule="evenodd" fill="#FFFFFE" stroke="#000000" stroke-linecap="round" stroke-linejoin="round" stroke-miterlimit="10" points="
		103.25,431.93 108.48,441.64 112.76,444.01 120.56,443.67 126.52,440.9 128.58,435.87 128.15,416.64 104.31,419.96 94.6,417.7 
		92.14,420.16 92.45,426.9 98.11,430.84 	"/>
	
		<polygon fill-rule="evenodd" fill="#FFFFFE" stroke="#000000" stroke-linecap="round" stroke-linejoin="round" stroke-miterlimit="10" points="
		279.59,470.7 290.19,473.87 294.87,472.5 300.15,466.76 302.44,460.56 300.29,455.59 286.42,442.27 271.91,461.47 263.43,466.76 
		263.43,470.24 268.42,474.79 275.22,473.56 	"/>
	
		<polygon fill-rule="evenodd" fill="#FFFFFE" stroke="#000000" stroke-linecap="round" stroke-linejoin="round" stroke-miterlimit="10" points="
		431.72,373.33 441.43,368.1 443.8,363.81 443.45,356.01 440.68,350.04 435.66,348.01 416.44,348.41 419.75,372.27 417.49,381.99 
		419.95,384.44 426.69,384.13 430.63,378.47 	"/>
	
		<polygon fill-rule="evenodd" fill="#FFFFFE" stroke="#000000" stroke-linecap="round" stroke-linejoin="round" stroke-miterlimit="10" points="
		470.47,196.9 473.64,186.3 472.27,181.61 466.53,176.33 460.33,174.04 455.36,176.19 442.05,190.07 461.24,204.59 466.53,213.07 
		470.01,213.07 474.55,208.07 473.32,201.27 	"/>
	
		<polygon fill-rule="evenodd" fill="#FFFFFE" stroke="#000000" stroke-linecap="round" stroke-linejoin="round" stroke-miterlimit="10" points="
		373.14,44.7 367.92,34.99 363.64,32.61 355.84,32.96 349.87,35.73 347.84,40.76 348.24,59.99 372.09,56.67 381.8,58.93 
		384.25,56.47 383.94,49.73 378.28,45.79 	"/>
	
		<polygon fill-rule="evenodd" fill="#FFFFFE" stroke="#000000" stroke-linecap="round" stroke-linejoin="round" stroke-miterlimit="10" points="
		282.76,5.7 293.36,2.53 298.04,3.9 303.32,9.64 305.61,15.84 303.46,20.81 289.59,34.13 275.08,14.93 266.6,9.64 266.6,6.16 
		271.59,1.61 278.39,2.84 	"/>
	
		<polygon fill-rule="evenodd" fill="#FFFFFE" stroke="#000000" stroke-linecap="round" stroke-linejoin="round" stroke-miterlimit="10" points="
		105.33,42.3 110.56,32.59 114.84,30.21 122.64,30.53 128.61,33.33 130.64,38.36 130.21,57.59 106.39,54.27 96.68,56.53 94.2,54.07 
		94.54,47.33 100.19,43.36 	"/>
	
		<polygon fill-rule="evenodd" fill="#FFFFFE" stroke="#000000" stroke-linecap="round" stroke-linejoin="round" stroke-miterlimit="10" points="
		5.7,193.73 2.53,183.13 3.9,178.44 9.64,173.16 15.83,170.87 20.8,173.01 34.11,186.9 14.92,201.41 9.64,209.9 6.15,209.9 
		1.61,204.9 2.84,198.1 	"/>
	
		<polygon fill-rule="evenodd" fill="#FFFFFE" stroke="#000000" stroke-linecap="round" stroke-linejoin="round" stroke-miterlimit="10" points="
		42.28,371.24 32.57,366.01 30.2,361.73 30.51,353.93 33.31,347.96 38.34,345.93 57.56,346.36 54.24,370.19 56.5,379.9 
		54.04,382.39 47.31,382.04 43.34,376.39 	"/>
	
		<polygon fill-rule="evenodd" fill="#FFFFFE" stroke="#000000" stroke-linecap="round" stroke-linejoin="round" stroke-miterlimit="10" points="
		193.63,470.93 183.04,474.1 178.35,472.73 173.07,466.99 170.79,460.79 172.93,455.81 186.81,442.5 201.32,461.7 209.8,466.99 
		209.8,470.47 204.8,475.01 198,473.79 	"/>
	
		<polygon fill-rule="evenodd" fill="#FFFFFE" stroke="#000000" stroke-linecap="round" stroke-linejoin="round" stroke-miterlimit="10" points="
		371.06,434.33 365.83,444.04 361.55,446.41 353.76,446.1 347.79,443.3 345.76,438.27 346.19,419.04 370,422.36 379.71,420.1 
		382.2,422.56 381.85,429.3 376.2,433.27 	"/>
	
		<polygon fill-rule="evenodd" fill="#FFFFFE" stroke="#000000" stroke-linecap="round" stroke-linejoin="round" stroke-miterlimit="10" points="
		470.7,282.9 473.87,293.5 472.5,298.19 466.76,303.47 460.56,305.76 455.59,303.61 442.28,289.73 461.47,275.21 466.76,266.73 
		470.24,266.73 474.78,271.73 473.55,278.53 	"/>
	
		<polygon fill-rule="evenodd" fill="#FFFFFE" stroke="#000000" stroke-linecap="round" stroke-linejoin="round" stroke-miterlimit="10" points="
		434.11,105.39 443.82,110.61 446.19,114.9 445.88,122.7 443.08,128.67 438.06,130.7 418.84,130.27 422.15,106.44 419.89,96.73 
		422.35,94.24 429.09,94.59 433.06,100.24 	"/>
	
		<polygon fill-rule="evenodd" fill="#FFFFFE" stroke="#000000" stroke-linecap="round" stroke-linejoin="round" stroke-miterlimit="10" points="
		166.1,18.64 167.47,22.73 166.28,28.01 166.1,34.36 165.5,41.61 178.04,59.61 179.73,60.21 180.15,58.7 186.35,42.07 185.15,35.27 
		172.76,26.5 170.5,20.3 167.47,17.59 	"/>
	
		<polygon fill-rule="evenodd" fill="#FFFFFE" stroke="#000000" stroke-linecap="round" stroke-linejoin="round" stroke-miterlimit="10" points="
		31.97,133.99 35.83,135.9 38.71,140.5 43.08,145.1 47.79,150.64 69.35,154.5 70.98,153.76 70.21,152.36 62.84,136.21 57.19,132.27 
		42.22,134.84 36.25,132.04 32.17,132.27 	"/>
	
		<polygon fill-rule="evenodd" fill="#FFFFFE" stroke="#000000" stroke-linecap="round" stroke-linejoin="round" stroke-miterlimit="10" points="
		18.63,310.44 22.72,309.07 28,310.27 34.34,310.44 41.59,311.04 59.58,298.5 60.18,296.81 58.67,296.39 42.05,290.19 35.25,291.39 
		26.49,303.79 20.29,306.04 17.58,309.07 	"/>
	
		<polygon fill-rule="evenodd" fill="#FFFFFE" stroke="#000000" stroke-linecap="round" stroke-linejoin="round" stroke-miterlimit="10" points="
		133.92,444.64 135.83,440.79 140.43,437.9 145.03,433.53 150.57,428.81 154.42,407.24 153.68,405.61 152.28,406.39 136.15,413.76 
		132.21,419.41 134.78,434.39 131.98,440.36 132.21,444.44 	"/>
	
		<polygon fill-rule="evenodd" fill="#FFFFFE" stroke="#000000" stroke-linecap="round" stroke-linejoin="round" stroke-miterlimit="10" points="
		310.29,457.99 308.92,453.9 310.12,448.61 310.29,442.27 310.89,435.01 298.35,417.01 296.67,416.41 296.24,417.93 290.04,434.56 
		291.24,441.36 303.64,450.13 305.89,456.33 308.92,459.04 	"/>
	
		<polygon fill-rule="evenodd" fill="#FFFFFE" stroke="#000000" stroke-linecap="round" stroke-linejoin="round" stroke-miterlimit="10" points="
		444.42,342.64 440.57,340.73 437.69,336.13 433.32,331.53 428.6,325.99 407.04,322.13 405.42,322.87 406.19,324.27 413.55,340.41 
		419.21,344.36 434.17,341.79 440.14,344.59 444.22,344.36 	"/>
	
		<polygon fill-rule="evenodd" fill="#FFFFFE" stroke="#000000" stroke-linecap="round" stroke-linejoin="round" stroke-miterlimit="10" points="
		457.76,166.19 453.68,167.56 448.39,166.36 442.05,166.19 434.8,165.59 416.81,178.13 416.21,179.81 417.72,180.24 434.34,186.44 
		441.14,185.24 449.91,172.84 456.1,170.59 458.82,167.56 	"/>
	
		<polygon fill-rule="evenodd" fill="#FFFFFE" stroke="#000000" stroke-linecap="round" stroke-linejoin="round" stroke-miterlimit="10" points="
		342.47,31.99 340.56,35.84 335.96,38.73 331.36,43.1 325.83,47.81 321.97,69.39 322.71,71.01 324.11,70.24 340.25,62.87 
		344.19,57.21 341.62,42.24 344.42,36.27 344.19,32.19 	"/>
	
		<polygon fill-rule="evenodd" fill="#FFFFFE" stroke="#000000" stroke-linecap="round" stroke-linejoin="round" stroke-miterlimit="10" points="
		313.15,18.04 311.8,22.1 313,27.41 313.15,33.76 313.75,41.01 301.21,59.01 299.55,59.61 299.1,58.1 292.9,41.47 294.1,34.67 
		306.49,25.9 308.78,19.7 311.8,16.99 	"/>
	
		<polygon fill-rule="evenodd" fill="#FFFFFE" stroke="#000000" stroke-linecap="round" stroke-linejoin="round" stroke-miterlimit="10" points="
		135.52,29.53 137.43,33.39 142.03,36.27 146.63,40.64 152.17,45.36 156.02,66.96 155.28,68.56 153.88,67.79 137.75,60.41 
		133.81,54.76 136.38,39.79 133.58,33.81 133.81,29.73 	"/>
	
		<polygon fill-rule="evenodd" fill="#FFFFFE" stroke="#000000" stroke-linecap="round" stroke-linejoin="round" stroke-miterlimit="10" points="
		18.03,163.33 22.09,164.7 27.4,163.47 33.74,163.33 40.99,162.73 58.99,175.27 59.58,176.93 58.07,177.39 41.45,183.59 
		34.65,182.39 25.89,169.99 19.69,167.7 16.98,164.7 	"/>
	
		<polygon fill-rule="evenodd" fill="#FFFFFE" stroke="#000000" stroke-linecap="round" stroke-linejoin="round" stroke-miterlimit="10" points="
		29.51,341.04 33.37,339.13 36.25,334.53 40.62,329.93 45.33,324.39 66.92,320.53 68.52,321.27 67.75,322.67 60.38,338.81 
		54.73,342.76 39.77,340.19 33.8,342.99 29.71,342.76 	"/>
	
		<polygon fill-rule="evenodd" fill="#FFFFFE" stroke="#000000" stroke-linecap="round" stroke-linejoin="round" stroke-miterlimit="10" points="
		163.25,458.59 164.62,454.53 163.39,449.21 163.25,442.87 162.65,435.61 175.19,417.61 176.84,417.01 177.3,418.53 183.5,435.16 
		182.3,441.96 169.9,450.73 167.62,456.93 164.62,459.64 	"/>
	
		<polygon fill-rule="evenodd" fill="#FFFFFE" stroke="#000000" stroke-linecap="round" stroke-linejoin="round" stroke-miterlimit="10" points="
		340.87,447.1 338.96,443.24 334.36,440.36 329.77,435.99 324.23,431.27 320.37,409.7 321.11,408.07 322.51,408.84 338.65,416.21 
		342.59,421.87 340.02,436.84 342.82,442.81 342.59,446.9 	"/>
	
		<polygon fill-rule="evenodd" fill="#FFFFFE" stroke="#000000" stroke-linecap="round" stroke-linejoin="round" stroke-miterlimit="10" points="
		458.36,313.3 454.3,311.96 448.99,313.16 442.65,313.3 435.4,313.9 417.41,301.36 416.81,299.7 418.32,299.24 434.94,293.04 
		441.74,294.24 450.51,306.64 456.7,308.93 459.42,311.96 	"/>
	
		<polygon fill-rule="evenodd" fill="#FFFFFE" stroke="#000000" stroke-linecap="round" stroke-linejoin="round" stroke-miterlimit="10" points="
		446.88,135.59 443.02,137.5 440.14,142.1 435.77,146.7 431.06,152.24 409.5,156.1 407.87,155.36 408.64,153.96 416.01,137.81 
		421.66,133.87 436.63,136.44 442.6,133.64 446.68,133.87 	"/>
	
		<path fill-rule="evenodd" fill="#FFFFFE" stroke="#000000" stroke-linecap="round" stroke-linejoin="round" stroke-miterlimit="10" d="
		M182.58,77.59l4.23-1.34l6.97-1.06l7.11-3.17l5.28,0.43l0.29,0.63l4.85,3.77l0.14,0.46l2.11,3.91c0,0.31,0,0.63,0,0.91l1.06,3.63
		v0.6l-7.71,14.37l-4.34,6.94l-2.91-0.43l-2.4-1.83l-5.77-5l-2.71-8l-4.68-9.83L182.58,77.59z"/>
	
		<path fill-rule="evenodd" fill="#FFFFFE" stroke="#000000" stroke-linecap="round" stroke-linejoin="round" stroke-miterlimit="10" d="
		M297.75,400.99l-4.23,1.37l-6.97,1.06l-7.11,3.17l-5.28-0.46l-0.29-0.6l-4.86-3.77l-0.14-0.46l-2.11-3.94c0-0.29,0-0.6,0-0.89
		l-1.06-3.63v-0.63l7.71-14.34l4.34-6.94l2.91,0.43l2.4,1.83l5.77,4.97l2.71,8.03l4.68,9.83L297.75,400.99z"/>
	
		<path fill-rule="evenodd" fill="#FFFFFE" stroke="#000000" stroke-linecap="round" stroke-linejoin="round" stroke-miterlimit="10" d="
		M77.95,296.3l-1.37-4.23l-1.06-6.97l-3.17-7.09l0.46-5.31l0.6-0.29l3.77-4.86l0.46-0.14l3.94-2.11c0.29,0,0.6,0,0.91,0l3.63-1.06
		h0.6l14.36,7.71l6.91,4.34l-0.43,2.91l-1.8,2.43l-5,5.74l-8.02,2.71l-9.8,4.69L77.95,296.3z"/>
	
		<path fill-rule="evenodd" fill="#FFFFFE" stroke="#000000" stroke-linecap="round" stroke-linejoin="round" stroke-miterlimit="10" d="
		M397.85,179.73l1.37,4.23l1.06,6.94l3.17,7.11l-0.46,5.29l-0.6,0.31l-3.77,4.83l-0.46,0.17l-3.94,2.11c-0.29,0-0.6,0-0.88,0
		l-3.63,1.06h-0.63l-14.34-7.71l-6.94-4.34l0.43-2.91l1.83-2.43l4.97-5.74l8.03-2.71l9.82-4.69L397.85,179.73z"/>
	
		<path fill-rule="evenodd" fill="#FFFFFE" stroke="#000000" stroke-linecap="round" stroke-linejoin="round" stroke-miterlimit="10" d="
		M393.65,306.13l-2.03,3.94l-4.17,5.66l-2.77,7.29l-4.05,3.43l-0.63-0.23l-6.11,0.74l-0.43-0.2l-4.25-1.29
		c-0.23-0.23-0.43-0.43-0.66-0.66l-3.31-1.8l-0.43-0.43l-4.68-15.6l-1.83-8l2.34-1.74l3-0.43l7.6-0.54l7.57,3.74l10.28,3.66
		L393.65,306.13z"/>
	
		<path fill-rule="evenodd" fill="#FFFFFE" stroke="#000000" stroke-linecap="round" stroke-linejoin="round" stroke-miterlimit="10" d="
		M169.45,390.44l-3.94-2.03l-5.68-4.17l-7.25-2.77l-3.43-4.06l0.23-0.66l-0.77-6.09l0.23-0.43l1.29-4.29
		c0.2-0.2,0.43-0.43,0.63-0.63l1.83-3.31l0.43-0.43l15.59-4.71l8-1.83l1.74,2.37l0.43,3l0.51,7.57l-3.74,7.6l-3.63,10.26
		L169.45,390.44z"/>
	
		<path fill-rule="evenodd" fill="#FFFFFE" stroke="#000000" stroke-linecap="round" stroke-linejoin="round" stroke-miterlimit="10" d="
		M87.29,168.53l2.03-3.94l4.17-5.66l2.77-7.29l4.06-3.4l0.66,0.2l6.08-0.74l0.43,0.2l4.28,1.29c0.2,0.23,0.43,0.43,0.63,0.66
		l3.31,1.8l0.43,0.43l4.71,15.63l1.83,7.97l-2.37,1.74l-3,0.43l-7.6,0.54l-7.57-3.74l-10.25-3.63L87.29,168.53z"/>
	
		<path fill-rule="evenodd" fill="#FFFFFE" stroke="#000000" stroke-linecap="round" stroke-linejoin="round" stroke-miterlimit="10" d="
		M310.86,86.84l3.94,2.03l5.65,4.17l7.28,2.77l3.43,4.09l-0.23,0.63l0.74,6.09l-0.2,0.43l-1.29,4.29c-0.23,0.2-0.43,0.43-0.66,0.63
		l-1.8,3.31l-0.43,0.43l-15.59,4.71l-8,1.83l-1.74-2.37l-0.43-2.97l-0.54-7.6l3.74-7.6l3.66-10.26L310.86,86.84z"/>
	
		<path fill-rule="evenodd" fill="#FFFFFE" stroke="#000000" stroke-linecap="round" stroke-linejoin="round" stroke-miterlimit="10" d="
		M297.13,78.13l-4.23-1.34l-6.94-1.06l-7.11-3.2l-5.28,0.46l-0.31,0.6l-4.83,3.8l-0.14,0.46l-2.11,3.91c0,0.31,0,0.6,0,0.91
		l-1.06,3.63v0.6l7.68,14.37l4.37,6.94l2.88-0.46l2.43-1.8l5.74-5l2.71-8l4.71-9.83L297.13,78.13z"/>
	
		<path fill-rule="evenodd" fill="#FFFFFE" stroke="#000000" stroke-linecap="round" stroke-linejoin="round" stroke-miterlimit="10" d="
		M183.21,400.44l4.23,1.37l6.94,1.06l7.11,3.17l5.28-0.46l0.31-0.6l4.83-3.77l0.14-0.46l2.11-3.94c0-0.29,0-0.6,0-0.89l1.06-3.63
		v-0.6l-7.68-14.37l-4.37-6.94l-2.88,0.43l-2.43,1.83l-5.74,4.97l-2.71,8.03l-4.71,9.83L183.21,400.44z"/>
	
		<path fill-rule="evenodd" fill="#FFFFFE" stroke="#000000" stroke-linecap="round" stroke-linejoin="round" stroke-miterlimit="10" d="
		M78.49,181.7l-1.37,4.23l-1.06,6.94l-3.17,7.11l0.46,5.29l0.6,0.31l3.77,4.83l0.46,0.14l3.94,2.14c0.29,0,0.6,0,0.89,0l3.63,1.06
		h0.63l14.34-7.71l6.94-4.37l-0.43-2.89l-1.83-2.43l-4.97-5.74l-8.02-2.71l-9.82-4.69L78.49,181.7z"/>
	
		<path fill-rule="evenodd" fill="#FFFFFE" stroke="#000000" stroke-linecap="round" stroke-linejoin="round" stroke-miterlimit="10" d="
		M399.59,299.16l1.37-4.23l1.06-6.94l3.17-7.11l-0.46-5.29l-0.6-0.31l-3.8-4.83l-0.43-0.14l-3.94-2.11c-0.31,0-0.6,0-0.91,0
		l-3.63-1.06h-0.6l-14.36,7.69l-6.91,4.37l0.43,2.89l1.8,2.43l5,5.74l8,2.71l9.82,4.69L399.59,299.16z"/>
	
		<path fill-rule="evenodd" fill="#FFFFFE" stroke="#000000" stroke-linecap="round" stroke-linejoin="round" stroke-miterlimit="10" d="
		M309.86,390.1l3.97-2.03l5.65-4.17l7.25-2.77l3.43-4.06l-0.2-0.66l0.74-6.09l-0.23-0.43l-1.29-4.29c-0.2-0.2-0.43-0.43-0.63-0.63
		l-1.83-3.31l-0.43-0.43l-15.59-4.71l-7.97-1.83l-1.74,2.37l-0.43,3l-0.54,7.57l3.74,7.6l3.63,10.26L309.86,390.1z"/>
	
		<path fill-rule="evenodd" fill="#FFFFFE" stroke="#000000" stroke-linecap="round" stroke-linejoin="round" stroke-miterlimit="10" d="
		M88.83,309.04l2.03,3.94l4.17,5.66l2.77,7.29l4.08,3.4l0.63-0.2l6.08,0.74l0.43-0.2l4.28-1.29c0.2-0.23,0.43-0.43,0.63-0.66
		l3.31-1.8l0.43-0.43l4.71-15.63l1.83-7.97l-2.37-1.74l-2.97-0.43l-7.6-0.54l-7.6,3.74l-10.25,3.63L88.83,309.04z"/>
	
		<path fill-rule="evenodd" fill="#FFFFFE" stroke="#000000" stroke-linecap="round" stroke-linejoin="round" stroke-miterlimit="10" d="
		M168.65,87.87l-3.94,2.06l-5.65,4.14l-7.28,2.8l-3.43,4.06l0.23,0.63l-0.74,6.11l0.2,0.43l1.28,4.26c0.23,0.23,0.43,0.43,0.66,0.66
		l1.8,3.31l0.43,0.43l15.59,4.69l8,1.83l1.74-2.34l0.43-3l0.54-7.6l-3.74-7.57l-3.66-10.29L168.65,87.87z"/>
	
		<path fill-rule="evenodd" fill="#FFFFFE" stroke="#000000" stroke-linecap="round" stroke-linejoin="round" stroke-miterlimit="10" d="
		M391.48,168.27l-2.03-3.97l-4.17-5.66l-2.8-7.26l-4.06-3.43l-0.63,0.2l-6.11-0.74l-0.43,0.23l-4.25,1.26
		c-0.23,0.23-0.43,0.43-0.66,0.66l-3.31,1.83l-0.43,0.4l-4.68,15.63l-1.83,7.97l2.34,1.74l3,0.43l7.6,0.54l7.6-3.74l10.25-3.63
		L391.48,168.27z"/>
	
		<polygon fill-rule="evenodd" fill="#FFFFFE" stroke="#000000" stroke-linecap="round" stroke-linejoin="round" stroke-miterlimit="10" points="
		205.71,68.81 218.39,68.39 222.79,71.1 224.76,75.19 226.56,85.9 228.84,90.44 222.48,89.1 215.54,89.53 216.74,84.7 217.34,80.61 
		217.34,80.01 216.45,76.39 	"/>
	
		<polygon fill-rule="evenodd" fill="#FFFFFE" stroke="#000000" stroke-linecap="round" stroke-linejoin="round" stroke-miterlimit="10" points="
		274.62,409.76 261.94,410.21 257.54,407.5 255.57,403.41 253.78,392.67 251.49,388.13 257.86,389.5 264.8,389.04 263.6,393.9 
		263,397.96 263,398.59 263.88,402.21 	"/>
	
		<polygon fill-rule="evenodd" fill="#FFFFFE" stroke="#000000" stroke-linecap="round" stroke-linejoin="round" stroke-miterlimit="10" points="
		69.18,273.16 68.72,260.47 71.44,256.07 75.52,254.13 86.26,252.3 90.8,250.04 89.43,256.39 89.88,263.33 85.06,262.13 
		80.97,261.53 80.37,261.53 76.75,262.44 	"/>
	
		<polygon fill-rule="evenodd" fill="#FFFFFE" stroke="#000000" stroke-linecap="round" stroke-linejoin="round" stroke-miterlimit="10" points="
		406.02,204.36 406.47,217.07 403.76,221.44 399.68,223.41 388.94,225.24 384.4,227.5 385.77,221.16 385.31,214.19 390.14,215.41 
		394.22,216.01 394.85,216.01 398.48,215.1 	"/>
	
		<polygon fill-rule="evenodd" fill="#FFFFFE" stroke="#000000" stroke-linecap="round" stroke-linejoin="round" stroke-miterlimit="10" points="
		381.08,332.01 372.43,341.3 367.41,342.47 363.15,340.99 354.27,334.67 349.47,333.07 354.93,329.56 359.52,324.3 362.06,328.59 
		364.52,331.9 364.95,332.33 368.18,334.24 	"/>
	
		<polygon fill-rule="evenodd" fill="#FFFFFE" stroke="#000000" stroke-linecap="round" stroke-linejoin="round" stroke-miterlimit="10" points="
		146.91,380.3 137.6,371.64 136.43,366.61 137.92,362.33 144.23,353.47 145.83,348.64 149.37,354.1 154.6,358.7 150.31,361.27 
		147,363.73 146.57,364.16 144.66,367.36 	"/>
	
		<polygon fill-rule="evenodd" fill="#FFFFFE" stroke="#000000" stroke-linecap="round" stroke-linejoin="round" stroke-miterlimit="10" points="
		97.42,145.99 106.08,136.67 111.1,135.5 115.39,137.01 124.24,143.3 129.06,144.93 123.61,148.44 119.01,153.67 116.44,149.41 
		113.99,146.1 113.56,145.67 110.36,143.73 	"/>
	
		<polygon fill-rule="evenodd" fill="#FFFFFE" stroke="#000000" stroke-linecap="round" stroke-linejoin="round" stroke-miterlimit="10" points="
		333.39,97.01 342.7,105.67 343.87,110.7 342.36,114.96 336.08,123.84 334.48,128.64 330.94,123.19 325.71,118.59 329.97,116.04 
		333.28,113.59 333.71,113.16 335.65,109.93 	"/>
	
		<polygon fill-rule="evenodd" fill="#FFFFFE" stroke="#000000" stroke-linecap="round" stroke-linejoin="round" stroke-miterlimit="10" points="
		273.88,69.21 261.17,68.76 256.8,71.47 254.83,75.56 253,86.3 250.75,90.81 257.09,89.47 264.06,89.93 262.83,85.07 262.23,80.99 
		262.23,80.39 263.14,76.76 	"/>
	
		<polygon fill-rule="evenodd" fill="#FFFFFE" stroke="#000000" stroke-linecap="round" stroke-linejoin="round" stroke-miterlimit="10" points="
		206.46,409.39 218.79,408.7 223.53,407.13 225.5,403.04 227.33,392.3 229.59,387.76 223.25,389.13 216.28,388.67 217.51,393.5 
		218.11,397.59 218.11,398.19 217.19,401.81 	"/>
	
		<polygon fill-rule="evenodd" fill="#FFFFFE" stroke="#000000" stroke-linecap="round" stroke-linejoin="round" stroke-miterlimit="10" points="
		69.55,204.99 69.09,217.67 71.84,222.07 75.89,224.01 86.63,225.84 91.17,228.1 89.8,221.76 90.26,214.81 85.43,216.01 
		81.35,216.61 80.75,216.61 77.12,215.7 	"/>
	
		<polygon fill-rule="evenodd" fill="#FFFFFE" stroke="#000000" stroke-linecap="round" stroke-linejoin="round" stroke-miterlimit="10" points="
		405.64,272.56 406.1,259.87 403.39,255.47 399.3,253.5 388.57,251.7 384.02,249.41 385.4,255.79 384.94,262.73 389.77,261.53 
		393.85,260.93 394.45,260.93 398.08,261.81 	"/>
	
		<polygon fill-rule="evenodd" fill="#FFFFFE" stroke="#000000" stroke-linecap="round" stroke-linejoin="round" stroke-miterlimit="10" points="
		332.62,379.96 341.93,371.3 343.1,366.27 341.62,361.99 335.31,353.13 333.71,348.3 330.17,353.76 324.94,358.36 329.22,360.93 
		332.54,363.39 332.96,363.81 334.88,367.01 	"/>
	
		<polygon fill-rule="evenodd" fill="#FFFFFE" stroke="#000000" stroke-linecap="round" stroke-linejoin="round" stroke-miterlimit="10" points="
		98.97,331.81 107.62,341.1 112.64,342.27 116.93,340.79 125.81,334.47 130.61,332.87 125.15,329.36 120.56,324.1 117.98,328.39 
		115.53,331.7 115.1,332.13 111.9,334.04 	"/>
	
		<polygon fill-rule="evenodd" fill="#FFFFFE" stroke="#000000" stroke-linecap="round" stroke-linejoin="round" stroke-miterlimit="10" points="
		145.89,98.04 136.6,106.7 135.4,111.73 136.92,115.99 143.23,124.87 144.83,129.67 148.34,124.21 153.6,119.64 149.31,117.07 
		146,114.61 145.57,114.19 143.66,110.96 	"/>
	
		<polygon fill-rule="evenodd" fill="#FFFFFE" stroke="#000000" stroke-linecap="round" stroke-linejoin="round" stroke-miterlimit="10" points="
		381.31,145.47 372.66,136.19 367.63,135.01 363.38,136.5 354.5,142.81 349.7,144.41 355.15,147.96 359.75,153.19 362.29,148.9 
		364.75,145.59 365.18,145.16 368.4,143.24 	"/>
	
		<polygon fill-rule="evenodd" fill="#FFFFFE" stroke="#000000" stroke-linecap="round" stroke-linejoin="round" stroke-miterlimit="10" points="
		236.24,68.99 229.59,74.73 227.16,80.47 228.07,84.41 228.53,84.41 230.33,88.93 232.16,90.9 235.64,90.59 235.78,88.64 
		236.24,87.87 236.38,85.16 236.98,80.61 237.44,75.01 236.53,72.61 	"/>
	
		<polygon fill-rule="evenodd" fill="#FFFFFE" stroke="#000000" stroke-linecap="round" stroke-linejoin="round" stroke-miterlimit="10" points="
		242.44,409.47 249.09,403.73 251.49,397.96 250.61,394.04 250.15,394.04 248.32,389.5 246.52,387.53 243.04,387.84 242.89,389.81 
		242.44,390.56 242.29,393.27 241.67,397.81 241.24,403.41 242.12,405.84 	"/>
	
		<polygon fill-rule="evenodd" fill="#FFFFFE" stroke="#000000" stroke-linecap="round" stroke-linejoin="round" stroke-miterlimit="10" points="
		69.32,242.61 75.06,249.27 80.8,251.7 84.74,250.79 84.74,250.33 89.28,248.53 91.25,246.7 90.94,243.24 88.97,243.07 
		88.23,242.61 85.49,242.47 80.97,241.87 75.38,241.41 72.95,242.33 	"/>
	
		<polygon fill-rule="evenodd" fill="#FFFFFE" stroke="#000000" stroke-linecap="round" stroke-linejoin="round" stroke-miterlimit="10" points="
		405.87,234.9 400.13,228.24 394.39,225.84 390.45,226.76 390.45,227.19 385.91,229.01 383.97,230.81 384.25,234.3 386.22,234.44 
		386.97,234.9 389.71,235.07 394.22,235.67 399.82,236.13 402.25,235.21 	"/>
	
		<polygon fill-rule="evenodd" fill="#FFFFFE" stroke="#000000" stroke-linecap="round" stroke-linejoin="round" stroke-miterlimit="10" points="
		359.41,353.5 360.04,344.73 357.69,338.96 354.27,336.81 353.95,337.13 349.47,335.21 346.79,335.1 344.56,337.79 345.84,339.27 
		346.04,340.13 347.87,342.16 350.64,345.79 354.27,350.07 356.61,351.13 	"/>
	
		<polygon fill-rule="evenodd" fill="#FFFFFE" stroke="#000000" stroke-linecap="round" stroke-linejoin="round" stroke-miterlimit="10" points="
		125.44,358.59 134.18,359.24 139.95,356.87 142.09,353.47 141.77,353.13 143.69,348.64 143.8,345.99 141.15,343.73 139.63,345.01 
		138.77,345.21 136.75,347.04 133.12,349.81 128.84,353.47 127.78,355.81 	"/>
	
		<polygon fill-rule="evenodd" fill="#FFFFFE" stroke="#000000" stroke-linecap="round" stroke-linejoin="round" stroke-miterlimit="10" points="
		119.13,124.5 118.47,133.27 120.84,139.04 124.24,141.19 124.58,140.84 129.06,142.79 131.72,142.87 133.98,140.21 132.69,138.73 
		132.46,137.87 130.66,135.81 127.89,132.19 124.24,127.93 121.9,126.84 	"/>
	
		<polygon fill-rule="evenodd" fill="#FFFFFE" stroke="#000000" stroke-linecap="round" stroke-linejoin="round" stroke-miterlimit="10" points="
		354.87,118.7 346.1,118.07 340.33,120.41 338.22,123.84 338.53,124.16 336.59,128.64 336.51,131.33 339.16,133.56 340.68,132.27 
		341.53,132.07 343.56,130.24 347.19,127.47 351.44,123.84 352.53,121.47 	"/>
	
		<polygon fill-rule="evenodd" fill="#FFFFFE" stroke="#000000" stroke-linecap="round" stroke-linejoin="round" stroke-miterlimit="10" points="
		243.35,69.36 249.98,75.1 252.4,80.84 251.49,84.79 251.03,84.79 249.23,89.3 247.41,91.27 243.95,90.99 243.78,89.01 
		243.35,88.24 243.18,85.53 242.58,80.99 242.12,75.41 243.04,72.99 	"/>
	
		<polygon fill-rule="evenodd" fill="#FFFFFE" stroke="#000000" stroke-linecap="round" stroke-linejoin="round" stroke-miterlimit="10" points="
		236.98,409.24 230.36,403.5 227.93,397.76 228.84,393.81 229.3,393.81 231.1,389.27 232.93,387.3 236.38,387.61 236.56,389.59 
		236.98,390.33 237.15,393.04 237.75,397.59 238.21,403.19 237.3,405.61 	"/>
	
		<polygon fill-rule="evenodd" fill="#FFFFFE" stroke="#000000" stroke-linecap="round" stroke-linejoin="round" stroke-miterlimit="10" points="
		69.69,235.53 75.46,228.87 81.2,226.44 85.12,227.36 85.12,227.81 89.66,229.61 91.63,231.44 91.31,234.9 89.34,235.07 
		88.6,235.53 85.89,235.67 81.35,236.27 75.75,236.73 73.32,235.81 	"/>
	
		<polygon fill-rule="evenodd" fill="#FFFFFE" stroke="#000000" stroke-linecap="round" stroke-linejoin="round" stroke-miterlimit="10" points="
		405.5,242.01 399.76,248.67 393.99,251.1 390.08,250.19 390.08,249.73 385.54,247.9 383.57,246.1 383.88,242.61 385.85,242.47 
		386.6,242.01 389.31,241.87 393.85,241.27 399.45,240.81 401.87,241.73 	"/>
	
		<polygon fill-rule="evenodd" fill="#FFFFFE" stroke="#000000" stroke-linecap="round" stroke-linejoin="round" stroke-miterlimit="10" points="
		354.13,358.24 345.36,358.9 339.59,356.53 337.45,353.13 337.76,352.79 335.85,348.3 335.73,345.64 338.39,343.39 339.9,344.67 
		340.76,344.9 342.79,346.7 346.42,349.47 350.7,353.13 351.76,355.47 	"/>
	
		<polygon fill-rule="evenodd" fill="#FFFFFE" stroke="#000000" stroke-linecap="round" stroke-linejoin="round" stroke-miterlimit="10" points="
		120.67,353.3 120.01,344.53 122.38,338.76 125.81,336.61 126.12,336.93 130.61,335.01 133.26,334.9 135.52,337.59 134.23,339.07 
		134.03,339.93 132.21,341.96 129.44,345.59 125.81,349.87 123.44,350.96 	"/>
	
		<polygon fill-rule="evenodd" fill="#FFFFFE" stroke="#000000" stroke-linecap="round" stroke-linejoin="round" stroke-miterlimit="10" points="
		124.41,119.73 133.18,119.1 138.95,121.44 141.09,124.87 140.75,125.19 142.69,129.67 142.8,132.36 140.12,134.59 138.63,133.3 
		137.77,133.1 135.75,131.27 132.09,128.5 127.84,124.87 126.75,122.53 	"/>
	
		<polygon fill-rule="evenodd" fill="#FFFFFE" stroke="#000000" stroke-linecap="round" stroke-linejoin="round" stroke-miterlimit="10" points="
		359.64,123.99 360.27,132.76 357.92,138.53 354.5,140.67 354.18,140.36 349.7,142.27 347.02,142.39 344.79,139.7 346.07,138.21 
		346.27,137.36 348.1,135.33 350.87,131.7 354.5,127.41 356.87,126.36 	"/>
	
		<path fill-rule="evenodd" fill="#FFFFFE" stroke="#000000" stroke-linecap="round" stroke-linejoin="round" stroke-miterlimit="10" d="
		M220.82,91.67c-0.2,0.06-0.71,0.29-0.91,0.29l-9.2,6.51l-5.45,14.34l-1.06,5.91l3.94,11.94l5.28,9.37l7.85,7.71l3.48-1.66l7.08-4.4
		l0.91-1.37l4.4-12.69l0.6-17.69l-3.63-8.49l-0.46-3.31l-6.65-1.37l-2.88-5.57L220.82,91.67z"/>
	
		<path fill-rule="evenodd" fill="#FFFFFE" stroke="#000000" stroke-linecap="round" stroke-linejoin="round" stroke-miterlimit="10" d="
		M259.51,386.93c0.2-0.06,0.71-0.29,0.91-0.29l9.2-6.51l5.46-14.37l1.06-5.89l-3.94-11.94l-5.28-9.37l-7.85-7.71l-3.48,1.66
		l-7.08,4.4l-0.91,1.34l-4.4,12.71l-0.6,17.69l3.63,8.46l0.46,3.34l6.65,1.34l2.88,5.6L259.51,386.93z"/>
	
		<path fill-rule="evenodd" fill="#FFFFFE" stroke="#000000" stroke-linecap="round" stroke-linejoin="round" stroke-miterlimit="10" d="
		M92,258.04c0.09,0.23,0.31,0.71,0.31,0.91l6.48,9.23l14.36,5.43l5.88,1.06l11.94-3.91l9.37-5.31l7.71-7.86l-1.66-3.46l-4.37-7.11
		l-1.37-0.91l-12.71-4.37l-17.68-0.63l-8.45,3.63l-3.31,0.46l-1.37,6.66l-5.6,2.89L92,258.04z"/>
	
		<path fill-rule="evenodd" fill="#FFFFFE" stroke="#000000" stroke-linecap="round" stroke-linejoin="round" stroke-miterlimit="10" d="
		M383.2,219.5c-0.06-0.23-0.31-0.71-0.31-0.91l-6.48-9.23l-14.36-5.43l-5.88-1.09l-11.94,3.94l-9.37,5.29l-7.71,7.86l1.66,3.49
		l4.37,7.11l1.37,0.91l12.71,4.37l17.68,0.6l8.45-3.63l3.34-0.46l1.34-6.63l5.6-2.89L383.2,219.5z"/>
	
		<path fill-rule="evenodd" fill="#FFFFFE" stroke="#000000" stroke-linecap="round" stroke-linejoin="round" stroke-miterlimit="10" d="
		M354.27,326.56c0.11-0.2,0.29-0.71,0.43-0.86l1.91-11.11l-6.28-14l-3.43-4.94l-11.22-5.66l-10.37-2.89l-11,0.11l-1.29,3.63
		l-1.94,8.11l0.34,1.63l5.88,12.06l12.05,12.94l8.57,3.43l2.66,2.03l5.68-3.74l5.97,1.91L354.27,326.56z"/>
	
		<path fill-rule="evenodd" fill="#FFFFFE" stroke="#000000" stroke-linecap="round" stroke-linejoin="round" stroke-miterlimit="10" d="
		M152.34,353.47c0.23,0.08,0.71,0.26,0.86,0.4l11.14,1.94l13.99-6.31l4.91-3.43l5.65-11.23l2.88-10.37l-0.11-11l-3.63-1.29
		l-8.11-1.91l-1.6,0.31l-12.08,5.89l-12.94,12.08l-3.43,8.54l-2.03,2.69l3.74,5.66l-1.91,5.97L152.34,353.47z"/>
	
		<path fill-rule="evenodd" fill="#FFFFFE" stroke="#000000" stroke-linecap="round" stroke-linejoin="round" stroke-miterlimit="10" d="
		M124.24,151.44c-0.09,0.2-0.29,0.71-0.43,0.86l-1.91,11.11l6.31,14l3.43,4.91l11.19,5.66l10.37,2.91l11.02-0.11l1.29-3.63
		l1.91-8.14l-0.31-1.6l-5.88-12.09l-12.08-12.94l-8.54-3.4l-2.68-2.03l-5.65,3.74l-6-1.94L124.24,151.44z"/>
	
		<path fill-rule="evenodd" fill="#FFFFFE" stroke="#000000" stroke-linecap="round" stroke-linejoin="round" stroke-miterlimit="10" d="
		M327.94,123.84c-0.2-0.11-0.71-0.29-0.86-0.43l-11.11-1.94l-13.99,6.31l-4.91,3.43l-5.65,11.23l-2.88,10.37l0.09,11l3.66,1.29
		l8.11,1.91l1.6-0.31l12.08-5.89L327,148.76l3.4-8.57l2.03-2.66l-3.74-5.69l1.94-5.97L327.94,123.84z"/>
	
		<path fill-rule="evenodd" fill="#FFFFFE" stroke="#000000" stroke-linecap="round" stroke-linejoin="round" stroke-miterlimit="10" d="
		M258.74,92.04c0.23,0.06,0.71,0.29,0.91,0.29l9.22,6.51l5.43,14.37l1.06,5.89l-3.91,11.94l-5.28,9.37l-7.88,7.71l-3.46-1.66
		l-7.11-4.4l-0.91-1.34l-4.37-12.71l-0.6-17.69l3.63-8.46l0.46-3.34l6.63-1.34l2.88-5.6L258.74,92.04z"/>
	
		<path fill-rule="evenodd" fill="#FFFFFE" stroke="#000000" stroke-linecap="round" stroke-linejoin="round" stroke-miterlimit="10" d="
		M221.59,386.56c-0.23-0.08-0.71-0.31-0.91-0.31l-9.22-6.49l-5.43-14.37l-1.06-5.89l3.91-11.94l5.28-9.37l7.88-7.71l3.46,1.66
		l7.11,4.37l0.91,1.37l4.37,12.71l0.6,17.69l-3.63,8.46l-0.46,3.31l-6.63,1.37l-2.88,5.6L221.59,386.56z"/>
	
		<path fill-rule="evenodd" fill="#FFFFFE" stroke="#000000" stroke-linecap="round" stroke-linejoin="round" stroke-miterlimit="10" d="
		M92.37,220.1c0.09-0.23,0.31-0.71,0.31-0.91l6.48-9.23l14.36-5.43l5.88-1.06l11.94,3.91l9.4,5.31l7.68,7.86l-1.66,3.46l-4.37,7.11
		l-1.37,0.91l-12.68,4.37l-17.68,0.63l-8.48-3.63l-3.31-0.46l-1.37-6.66l-5.6-2.89L92.37,220.1z"/>
	
		<path fill-rule="evenodd" fill="#FFFFFE" stroke="#000000" stroke-linecap="round" stroke-linejoin="round" stroke-miterlimit="10" d="
		M382.83,257.44c-0.09,0.2-0.31,0.69-0.31,0.92l-6.48,9.2l-14.36,5.46l-5.88,1.06l-11.94-3.94l-9.37-5.29l-7.71-7.86l1.66-3.49
		l4.37-7.09l1.37-0.91l12.68-4.4l17.71-0.6l8.45,3.63l3.31,0.46l1.37,6.66l5.6,2.86L382.83,257.44z"/>
	
		<path fill-rule="evenodd" fill="#FFFFFE" stroke="#000000" stroke-linecap="round" stroke-linejoin="round" stroke-miterlimit="10" d="
		M327.2,353.13c-0.23,0.09-0.71,0.29-0.86,0.43l-11.11,1.92l-14.02-6.31l-4.91-3.43l-5.65-11.2l-2.88-10.37l0.11-11.03l3.63-1.29
		l8.11-1.91l1.6,0.31l12.08,5.88l12.94,12.09l3.43,8.54l2.03,2.69l-3.74,5.66l1.91,6L327.2,353.13z"/>
	
		<path fill-rule="evenodd" fill="#FFFFFE" stroke="#000000" stroke-linecap="round" stroke-linejoin="round" stroke-miterlimit="10" d="
		M125.81,326.36c-0.11-0.2-0.29-0.71-0.43-0.86l-1.94-11.11l6.31-14l3.43-4.91l11.22-5.69l10.37-2.89l10.99,0.11l1.29,3.63
		l1.91,8.14l-0.31,1.6l-5.88,12.09l-12.08,12.91l-8.54,3.43l-2.68,2.03l-5.65-3.74l-5.97,1.91L125.81,326.36z"/>
	
		<path fill-rule="evenodd" fill="#FFFFFE" stroke="#000000" stroke-linecap="round" stroke-linejoin="round" stroke-miterlimit="10" d="
		M151.34,124.87c0.2-0.11,0.71-0.29,0.86-0.43l11.11-1.91l13.99,6.29l4.91,3.43l5.68,11.23l2.88,10.37l-0.11,11l-3.63,1.29
		l-8.14,1.94l-1.6-0.34l-12.08-5.86l-12.91-12.09l-3.43-8.57l-2.03-2.66l3.74-5.66l-1.94-6L151.34,124.87z"/>
	
		<path fill-rule="evenodd" fill="#FFFFFE" stroke="#000000" stroke-linecap="round" stroke-linejoin="round" stroke-miterlimit="10" d="
		M354.5,150.93c0.11,0.2,0.29,0.71,0.43,0.86l1.94,11.11l-6.31,14.03l-3.43,4.91l-11.22,5.66l-10.37,2.89l-11-0.11l-1.29-3.63
		l-1.91-8.11l0.31-1.6l5.88-12.09l12.05-12.94l8.57-3.43l2.66-2.03l5.68,3.74l5.97-1.91L354.5,150.93z"/>
	
		<polygon fill-rule="evenodd" fill="#FFFFFE" stroke="#000000" stroke-linecap="round" stroke-linejoin="round" stroke-miterlimit="10" points="
		232.47,143.21 230.19,147.76 224.59,151.39 224.59,157.41 224.59,157.87 230.79,162.27 233.21,162.87 235.78,168.84 238.27,167.01 
		237.35,164.39 236.53,157.87 233.47,145.21 	"/>
	
		<polygon fill-rule="evenodd" fill="#FFFFFE" stroke="#000000" stroke-linecap="round" stroke-linejoin="round" stroke-miterlimit="10" points="
		247.86,335.39 250.15,330.84 255.75,327.21 255.75,321.16 255.75,320.7 249.55,316.33 247.12,315.73 244.55,309.76 242.07,311.56 
		242.98,314.21 243.81,320.7 246.86,333.39 	"/>
	
		<polygon fill-rule="evenodd" fill="#FFFFFE" stroke="#000000" stroke-linecap="round" stroke-linejoin="round" stroke-miterlimit="10" points="
		143.52,246.41 148.06,248.67 151.68,254.27 157.74,254.27 158.19,254.27 162.56,248.07 163.16,245.64 169.13,243.07 167.33,240.59 
		164.68,241.5 158.19,242.33 145.54,245.39 	"/>
	
		<polygon fill-rule="evenodd" fill="#FFFFFE" stroke="#000000" stroke-linecap="round" stroke-linejoin="round" stroke-miterlimit="10" points="
		331.68,231.13 327.14,228.87 323.51,223.27 317.46,223.27 317,223.27 312.63,229.47 312.03,231.87 306.06,234.44 307.86,236.96 
		310.52,236.04 317,235.21 329.65,232.16 	"/>
	
		<polygon fill-rule="evenodd" fill="#FFFFFE" stroke="#000000" stroke-linecap="round" stroke-linejoin="round" stroke-miterlimit="10" points="
		308.92,297.59 307.29,292.79 308.69,286.24 304.41,281.99 304.09,281.67 296.61,282.93 294.47,284.21 288.44,281.81 287.96,284.87 
		290.47,286.1 295.67,290.1 306.78,296.9 	"/>
	
		<polygon fill-rule="evenodd" fill="#FFFFFE" stroke="#000000" stroke-linecap="round" stroke-linejoin="round" stroke-miterlimit="10" points="
		180.55,308.76 185.38,307.16 191.89,308.56 196.17,304.27 196.49,303.96 195.2,296.47 193.92,294.33 196.32,288.3 193.29,287.81 
		192.06,290.33 188.04,295.5 181.27,306.64 	"/>
	
		<polygon fill-rule="evenodd" fill="#FFFFFE" stroke="#000000" stroke-linecap="round" stroke-linejoin="round" stroke-miterlimit="10" points="
		168.9,179.67 170.53,184.47 169.13,190.99 173.41,195.27 173.73,195.59 181.21,194.3 183.35,193.01 189.38,195.44 189.86,192.39 
		187.35,191.16 182.15,187.16 171.04,180.36 	"/>
	
		<polygon fill-rule="evenodd" fill="#FFFFFE" stroke="#000000" stroke-linecap="round" stroke-linejoin="round" stroke-miterlimit="10" points="
		299.72,168.53 294.93,170.13 288.42,168.73 284.13,173.01 283.82,173.33 285.1,180.81 286.39,182.96 283.99,188.99 287.02,189.47 
		288.24,186.96 292.27,181.79 299.04,170.67 	"/>
	
		<polygon fill-rule="evenodd" fill="#FFFFFE" stroke="#000000" stroke-linecap="round" stroke-linejoin="round" stroke-miterlimit="10" points="
		247.12,143.59 249.38,148.13 254.97,151.76 254.97,157.81 254.97,158.24 248.78,162.64 246.35,163.24 243.78,169.21 241.3,167.41 
		242.21,164.76 243.04,158.24 246.09,145.59 	"/>
	
		<polygon fill-rule="evenodd" fill="#FFFFFE" stroke="#000000" stroke-linecap="round" stroke-linejoin="round" stroke-miterlimit="10" points="
		233.21,334.99 230.96,330.47 225.36,326.84 225.36,320.79 225.36,320.33 231.56,315.96 233.98,315.36 236.56,309.39 239.04,311.19 
		238.13,313.84 237.3,320.33 234.24,332.99 	"/>
	
		<polygon fill-rule="evenodd" fill="#FFFFFE" stroke="#000000" stroke-linecap="round" stroke-linejoin="round" stroke-miterlimit="10" points="
		143.92,231.73 148.43,229.47 152.05,223.87 158.11,223.87 158.56,223.87 162.93,230.07 163.56,232.5 169.53,235.07 167.7,237.56 
		165.08,236.64 158.56,235.81 145.91,232.76 	"/>
	
		<polygon fill-rule="evenodd" fill="#FFFFFE" stroke="#000000" stroke-linecap="round" stroke-linejoin="round" stroke-miterlimit="10" points="
		331.28,245.79 326.77,248.07 323.14,253.67 317.09,253.67 316.63,253.67 312.26,247.47 311.63,245.04 305.66,242.47 307.49,239.99 
		310.15,240.87 316.63,241.73 329.28,244.79 	"/>
	
		<polygon fill-rule="evenodd" fill="#FFFFFE" stroke="#000000" stroke-linecap="round" stroke-linejoin="round" stroke-miterlimit="10" points="
		299.58,307.21 294.78,305.61 288.24,307.01 283.99,302.73 283.65,302.41 284.93,294.93 286.22,292.79 283.82,286.76 286.87,286.27 
		288.1,288.79 292.1,293.96 298.9,305.07 	"/>
	
		<polygon fill-rule="evenodd" fill="#FFFFFE" stroke="#000000" stroke-linecap="round" stroke-linejoin="round" stroke-miterlimit="10" points="
		170.47,298.13 172.07,293.33 170.67,286.79 174.96,282.53 175.27,282.21 182.75,283.47 184.89,284.76 190.92,282.36 191.41,285.41 
		188.89,286.64 183.72,290.64 172.59,297.44 	"/>
	
		<polygon fill-rule="evenodd" fill="#FFFFFE" stroke="#000000" stroke-linecap="round" stroke-linejoin="round" stroke-miterlimit="10" points="
		179.55,169.56 184.35,171.16 190.86,169.76 195.15,174.04 195.46,174.36 194.18,181.84 192.89,183.99 195.32,190.04 192.26,190.5 
		191.03,187.99 187.04,182.81 180.24,171.7 	"/>
	
		<polygon fill-rule="evenodd" fill="#FFFFFE" stroke="#000000" stroke-linecap="round" stroke-linejoin="round" stroke-miterlimit="10" points="
		309.83,179.16 308.23,183.99 309.63,190.5 305.35,194.76 305.03,195.1 297.55,193.81 295.41,192.53 289.39,194.93 288.9,191.87 
		291.41,190.64 296.58,186.64 307.69,179.84 	"/>
	
		<polygon fill-rule="evenodd" fill="#FFFFFE" stroke="#000000" stroke-linecap="round" stroke-linejoin="round" stroke-miterlimit="10" points="
		222.33,157.27 220.82,160.07 223.25,166.04 222.1,168.01 225.73,176.24 224.68,178.96 226.7,181.24 232.53,181.76 233.9,179.5 
		235.47,173.44 230.42,163.47 222.65,159.53 	"/>
	
		<polygon fill-rule="evenodd" fill="#FFFFFE" stroke="#000000" stroke-linecap="round" stroke-linejoin="round" stroke-miterlimit="10" points="
		256.8,316.33 258.32,313.53 255.89,307.56 257.03,305.59 253.4,297.36 254.46,294.64 252.4,292.36 246.61,291.84 245.24,294.1 
		243.64,300.16 248.72,310.13 256.49,314.07 	"/>
	
		<polygon fill-rule="evenodd" fill="#FFFFFE" stroke="#000000" stroke-linecap="round" stroke-linejoin="round" stroke-miterlimit="10" points="
		161.71,254.73 164.5,256.24 170.47,253.81 172.44,254.96 180.67,251.33 183.38,252.39 185.67,250.33 186.18,244.53 183.92,243.16 
		177.87,241.56 167.9,246.64 163.96,254.41 	"/>
	
		<polygon fill-rule="evenodd" fill="#FFFFFE" stroke="#000000" stroke-linecap="round" stroke-linejoin="round" stroke-miterlimit="10" points="
		315.12,221.24 312.32,219.73 306.35,222.13 304.41,221.01 296.15,224.64 293.44,223.59 291.19,225.61 290.64,231.44 292.9,232.79 
		298.95,234.39 308.92,229.33 312.86,221.53 	"/>
	
		<polygon fill-rule="evenodd" fill="#FFFFFE" stroke="#000000" stroke-linecap="round" stroke-linejoin="round" stroke-miterlimit="10" points="
		282.65,171.3 279.59,172.21 277.08,178.16 274.91,178.73 271.62,187.13 268.97,188.3 268.8,191.36 272.54,195.84 275.11,195.19 
		280.5,192.04 283.99,181.41 281.25,173.13 	"/>
	
		<polygon fill-rule="evenodd" fill="#FFFFFE" stroke="#000000" stroke-linecap="round" stroke-linejoin="round" stroke-miterlimit="10" points="
		257.23,157.64 258.74,160.44 256.35,166.41 257.46,168.39 253.83,176.61 254.89,179.36 252.86,181.61 247.04,182.16 245.69,179.87 
		244.09,173.84 249.15,163.84 256.95,159.93 	"/>
	
		<polygon fill-rule="evenodd" fill="#FFFFFE" stroke="#000000" stroke-linecap="round" stroke-linejoin="round" stroke-miterlimit="10" points="
		224.3,316.56 222.79,313.76 225.22,307.79 224.08,305.81 227.7,297.59 226.65,294.87 228.67,292.59 234.5,292.07 235.87,294.33 
		237.44,300.39 232.39,310.36 224.62,314.3 	"/>
	
		<polygon fill-rule="evenodd" fill="#FFFFFE" stroke="#000000" stroke-linecap="round" stroke-linejoin="round" stroke-miterlimit="10" points="
		160.68,222.36 163.48,220.84 169.45,223.27 171.42,222.13 179.64,225.76 182.35,224.7 184.64,226.76 185.15,232.56 182.9,233.93 
		176.84,235.53 166.88,230.44 162.93,222.67 	"/>
	
		<polygon fill-rule="evenodd" fill="#FFFFFE" stroke="#000000" stroke-linecap="round" stroke-linejoin="round" stroke-miterlimit="10" points="
		315.72,256.84 312.92,258.36 306.95,255.93 305.01,257.07 296.75,253.44 294.04,254.5 291.79,252.44 291.24,246.61 293.5,245.27 
		299.55,243.67 309.52,248.76 313.46,256.53 	"/>
	
		<polygon fill-rule="evenodd" fill="#FFFFFE" stroke="#000000" stroke-linecap="round" stroke-linejoin="round" stroke-miterlimit="10" points="
		281.88,303.39 278.82,302.47 276.33,296.53 274.14,295.96 270.88,287.56 268.2,286.39 268.05,283.33 271.77,278.84 274.34,279.5 
		279.73,282.64 283.22,293.27 280.48,301.56 	"/>
	
		<polygon fill-rule="evenodd" fill="#FFFFFE" stroke="#000000" stroke-linecap="round" stroke-linejoin="round" stroke-miterlimit="10" points="
		305.55,278.3 302.86,280.01 296.73,278.04 294.84,279.3 286.39,276.3 283.73,277.56 281.33,275.67 280.39,269.9 282.53,268.39 
		288.44,266.36 298.78,270.7 303.27,278.16 	"/>
	
		<polygon fill-rule="evenodd" fill="#FFFFFE" stroke="#000000" stroke-linecap="round" stroke-linejoin="round" stroke-miterlimit="10" points="
		172.19,279.67 173.1,276.61 179.01,274.1 179.61,271.93 188.01,268.64 189.18,265.99 192.21,265.81 196.72,269.56 196.06,272.13 
		192.92,277.53 182.27,281.01 173.99,278.27 	"/>
	
		<polygon fill-rule="evenodd" fill="#FFFFFE" stroke="#000000" stroke-linecap="round" stroke-linejoin="round" stroke-miterlimit="10" points="
		200.54,301.59 198.86,298.87 200.94,292.79 199.72,290.87 202.86,282.44 201.66,279.79 203.57,277.41 209.37,276.56 210.82,278.76 
		212.77,284.7 208.25,294.96 200.72,299.3 	"/>
	
		<polygon fill-rule="evenodd" fill="#FFFFFE" stroke="#000000" stroke-linecap="round" stroke-linejoin="round" stroke-miterlimit="10" points="
		196.63,172.33 199.69,173.24 202.2,179.19 204.4,179.76 207.65,188.16 210.31,189.33 210.48,192.39 206.74,196.87 204.17,196.24 
		198.77,193.07 195.32,182.44 198.03,174.16 	"/>
	
		<polygon fill-rule="evenodd" fill="#FFFFFE" stroke="#000000" stroke-linecap="round" stroke-linejoin="round" stroke-miterlimit="10" points="
		307.06,196.27 306.15,199.3 300.21,201.81 299.64,204.01 291.24,207.27 290.07,209.96 287.02,210.1 282.53,206.36 283.19,203.81 
		286.33,198.41 296.95,194.93 305.24,197.64 	"/>
	
		<polygon fill-rule="evenodd" fill="#FFFFFE" stroke="#000000" stroke-linecap="round" stroke-linejoin="round" stroke-miterlimit="10" points="
		192.12,110.01 189.24,112.3 189.24,116.07 196.2,126.21 200.43,151.16 199.66,156.9 198.46,163.1 204.8,167.01 208.43,168.07 
		214.77,175.79 217.79,186.99 220.08,189.7 223.39,188.36 224.45,183.36 220.36,172.33 219.31,171.27 217.05,165.21 217.79,150.24 
		214.17,144.64 203.29,131.96 200.72,124.39 200.72,118.5 196.95,110.93 	"/>
	
		<polygon fill-rule="evenodd" fill="#FFFFFE" stroke="#000000" stroke-linecap="round" stroke-linejoin="round" stroke-miterlimit="10" points="
		110.36,286.79 112.62,289.64 116.41,289.64 126.52,282.7 151.45,278.44 157.19,279.21 163.39,280.41 167.33,274.07 168.39,270.44 
		176.1,264.1 187.27,261.07 190.01,258.81 188.64,255.47 183.64,254.41 172.62,258.5 171.56,259.56 165.5,261.81 150.57,261.07 
		144.97,264.7 132.26,275.59 124.72,278.16 118.81,278.16 111.27,281.93 	"/>
	
		<polygon fill-rule="evenodd" fill="#FFFFFE" stroke="#000000" stroke-linecap="round" stroke-linejoin="round" stroke-miterlimit="10" points="
		367.78,188.27 365.52,185.39 361.75,185.39 351.61,192.36 326.68,196.59 320.94,195.84 314.75,194.61 310.8,200.96 309.75,204.59 
		302.04,210.96 290.87,213.99 288.16,216.24 289.5,219.56 294.5,220.61 305.52,216.53 306.58,215.47 312.63,213.21 327.6,213.99 
		333.19,210.36 345.87,199.47 353.44,196.9 359.32,196.9 366.89,193.1 	"/>
	
		<polygon fill-rule="evenodd" fill="#FFFFFE" stroke="#000000" stroke-linecap="round" stroke-linejoin="round" stroke-miterlimit="10" points="
		287.47,110.41 290.33,112.67 290.33,116.44 283.39,126.59 279.16,151.53 279.91,157.27 281.1,163.47 274.76,167.41 271.14,168.47 
		264.8,176.19 261.77,187.36 259.51,190.07 256.17,188.73 255.12,183.73 259.2,172.7 260.26,171.64 262.54,165.59 261.77,150.61 
		265.4,145.01 276.28,132.33 278.85,124.76 278.85,118.87 282.62,111.3 	"/>
	
		<polygon fill-rule="evenodd" fill="#FFFFFE" stroke="#000000" stroke-linecap="round" stroke-linejoin="round" stroke-miterlimit="10" points="
		110.73,191.36 113.02,188.5 116.79,188.5 126.89,195.44 151.83,199.67 157.59,198.93 163.79,197.73 167.7,204.07 168.76,207.7 
		176.47,214.04 187.66,217.07 190.38,219.33 189.01,222.67 184.04,223.73 172.99,219.64 171.93,218.59 165.9,216.33 150.94,217.07 
		145.34,213.44 132.63,202.56 125.1,199.99 119.18,199.99 111.65,196.21 	"/>
	
		<polygon fill-rule="evenodd" fill="#FFFFFE" stroke="#000000" stroke-linecap="round" stroke-linejoin="round" stroke-miterlimit="10" points="
		366.43,289.33 364.15,292.21 360.38,292.21 350.24,285.24 325.31,281.01 319.57,281.79 313.37,282.99 309.46,276.64 308.41,273.01 
		300.69,266.67 289.5,263.64 286.79,261.36 288.16,258.04 293.13,256.99 304.18,261.07 305.24,262.13 311.26,264.39 326.23,263.64 
		331.82,267.27 344.5,278.16 352.07,280.73 357.95,280.73 365.52,284.5 	"/>
	
		<polygon fill-rule="evenodd" fill="#FFFFFE" stroke="#000000" stroke-linecap="round" stroke-linejoin="round" stroke-miterlimit="10" points="
		293.9,360.44 290.27,360.87 287.59,358.19 285.36,346.13 270.71,325.47 266.11,321.96 260.89,318.41 262.6,311.16 264.4,307.84 
		263.46,297.9 257.69,287.84 257.34,284.33 260.66,282.93 264.94,285.7 269.85,296.41 269.85,297.9 272.54,303.79 283.65,313.84 
		285.02,320.36 286.3,337.04 289.84,344.19 294.01,348.36 296.67,356.39 	"/>
	
		<polygon fill-rule="evenodd" fill="#FFFFFE" stroke="#000000" stroke-linecap="round" stroke-linejoin="round" stroke-miterlimit="10" points="
		192.38,363.27 189.52,360.99 189.52,357.21 196.46,347.07 200.69,322.13 199.94,316.39 198.72,310.19 205.08,306.27 208.71,305.21 
		215.05,297.5 218.08,286.3 220.33,283.59 223.65,284.93 224.73,289.93 220.65,300.96 219.59,302.01 217.31,308.07 218.08,323.04 
		214.45,328.64 203.57,341.33 201,348.9 201,354.79 197.2,362.36 	"/>
	
		<path fill-rule="evenodd" fill="#FFFFFE" stroke="#000000" stroke-linecap="round" stroke-linejoin="round" stroke-miterlimit="10" d="
		M239.27,250.47c6.48,0,11.79-5.29,11.79-11.77c0-6.51-5.31-11.8-11.79-11.8c-6.51,0-11.79,5.29-11.79,11.8
		C227.47,245.19,232.76,250.47,239.27,250.47L239.27,250.47z"/>
	
		<polygon fill-rule="evenodd" fill="#FFFFFE" stroke="#000000" stroke-linecap="round" stroke-linejoin="round" stroke-miterlimit="10" points="
		229.44,189.24 226.73,196.67 227.62,201.04 230.04,203.01 234.58,203.61 235.18,203.61 237.3,201.04 238.04,197.27 235.04,193.19 	
		"/>
	
		<polygon fill-rule="evenodd" fill="#FFFFFE" stroke="#000000" stroke-linecap="round" stroke-linejoin="round" stroke-miterlimit="10" points="
		213.14,195.59 213.11,203.5 215.45,207.3 218.39,208.33 222.88,207.33 223.45,207.13 224.53,203.99 223.96,200.19 219.73,197.39 	
		"/>
	
		<polygon fill-rule="evenodd" fill="#FFFFFE" stroke="#000000" stroke-linecap="round" stroke-linejoin="round" stroke-miterlimit="10" points="
		199.97,207.13 202.66,214.56 206.17,217.33 209.28,217.3 213.14,214.84 213.59,214.44 213.57,211.13 211.71,207.73 206.77,206.56 	
		"/>
	
		<polygon fill-rule="evenodd" fill="#FFFFFE" stroke="#000000" stroke-linecap="round" stroke-linejoin="round" stroke-miterlimit="10" points="
		191.55,222.47 196.6,228.56 200.86,229.96 203.77,228.84 206.57,225.21 206.86,224.7 205.68,221.56 202.8,219.01 197.75,219.61 	
		"/>
	
		<polygon fill-rule="evenodd" fill="#FFFFFE" stroke="#000000" stroke-linecap="round" stroke-linejoin="round" stroke-miterlimit="10" points="
		188.89,239.79 195.72,243.76 200.17,243.61 202.54,241.59 203.91,237.21 204.03,236.61 201.86,234.1 198.29,232.7 193.72,234.96 	
		"/>
	
		<polygon fill-rule="evenodd" fill="#FFFFFE" stroke="#000000" stroke-linecap="round" stroke-linejoin="round" stroke-miterlimit="10" points="
		192.29,256.96 200.06,258.36 204.23,256.7 205.74,253.96 205.54,249.39 205.46,248.81 202.54,247.16 198.69,247.07 195.2,250.76 	
		"/>
	
		<polygon fill-rule="evenodd" fill="#FFFFFE" stroke="#000000" stroke-linecap="round" stroke-linejoin="round" stroke-miterlimit="10" points="
		201.37,271.93 209.14,270.59 212.48,267.59 213,264.53 211.25,260.3 210.94,259.76 207.65,259.21 204,260.44 201.97,265.1 	"/>
	
		<polygon fill-rule="evenodd" fill="#FFFFFE" stroke="#000000" stroke-linecap="round" stroke-linejoin="round" stroke-miterlimit="10" points="
		215.02,282.87 221.88,278.96 223.99,275.01 223.39,271.96 220.31,268.59 219.85,268.19 216.59,268.79 213.57,271.21 213.25,276.27 
			"/>
	
		<polygon fill-rule="evenodd" fill="#FFFFFE" stroke="#000000" stroke-linecap="round" stroke-linejoin="round" stroke-miterlimit="10" points="
		231.59,288.5 236.67,282.47 237.33,278.04 235.73,275.39 231.67,273.24 231.1,273.04 228.24,274.73 226.25,278.04 227.67,282.9 	
		"/>
	
		<polygon fill-rule="evenodd" fill="#FFFFFE" stroke="#000000" stroke-linecap="round" stroke-linejoin="round" stroke-miterlimit="10" points="
		249.09,288.13 251.8,280.73 250.89,276.33 248.49,274.39 243.95,273.76 243.35,273.76 241.24,276.33 240.47,280.13 243.49,284.19 	
		"/>
	
		<polygon fill-rule="evenodd" fill="#FFFFFE" stroke="#000000" stroke-linecap="round" stroke-linejoin="round" stroke-miterlimit="10" points="
		265.4,281.79 265.43,273.9 263.06,270.07 260.12,269.07 255.66,270.04 255.09,270.24 253.97,273.39 254.55,277.21 258.8,280.01 	
		"/>
	
		<polygon fill-rule="evenodd" fill="#FFFFFE" stroke="#000000" stroke-linecap="round" stroke-linejoin="round" stroke-miterlimit="10" points="
		278.56,270.24 275.88,262.81 272.37,260.04 269.25,260.1 265.4,262.56 264.91,262.93 264.94,266.27 266.8,269.64 271.74,270.84 	
		"/>
	
		<polygon fill-rule="evenodd" fill="#FFFFFE" stroke="#000000" stroke-linecap="round" stroke-linejoin="round" stroke-miterlimit="10" points="
		286.96,254.9 281.9,248.84 277.68,247.44 274.76,248.56 271.97,252.16 271.65,252.7 272.82,255.81 275.74,258.36 280.76,257.79 	
		"/>
	
		<polygon fill-rule="evenodd" fill="#FFFFFE" stroke="#000000" stroke-linecap="round" stroke-linejoin="round" stroke-miterlimit="10" points="
		289.64,237.59 282.82,233.64 278.33,233.76 275.99,235.81 274.59,240.16 274.51,240.76 276.65,243.3 280.25,244.7 284.79,242.41 	
		"/>
	
		<polygon fill-rule="evenodd" fill="#FFFFFE" stroke="#000000" stroke-linecap="round" stroke-linejoin="round" stroke-miterlimit="10" points="
		286.22,220.41 278.45,219.04 274.31,220.7 272.79,223.41 272.97,227.99 273.08,228.59 275.96,230.21 279.82,230.3 283.33,226.61 	
		"/>
	
		<polygon fill-rule="evenodd" fill="#FFFFFE" stroke="#000000" stroke-linecap="round" stroke-linejoin="round" stroke-miterlimit="10" points="
		277.13,205.47 269.37,206.81 266.03,209.79 265.54,212.87 267.28,217.1 267.6,217.61 270.85,218.16 274.51,216.93 276.54,212.27 	
		"/>
	
		<polygon fill-rule="evenodd" fill="#FFFFFE" stroke="#000000" stroke-linecap="round" stroke-linejoin="round" stroke-miterlimit="10" points="
		263.51,194.5 256.66,198.41 254.55,202.36 255.12,205.44 258.2,208.81 258.66,209.19 261.94,208.59 264.94,206.19 265.25,201.1 	
		"/>
	
		<polygon fill-rule="evenodd" fill="#FFFFFE" stroke="#000000" stroke-linecap="round" stroke-linejoin="round" stroke-miterlimit="10" points="
		246.92,188.87 241.84,194.9 241.21,199.33 242.81,202.01 246.84,204.13 247.41,204.33 250.29,202.64 252.29,199.36 250.83,194.47 	
		"/>
	
		<polygon fill-rule="evenodd" fill="#FFFFFE" stroke="#000000" stroke-linecap="round" stroke-linejoin="round" stroke-miterlimit="10" points="
		229.44,189.24 226.73,196.67 227.62,201.04 230.04,203.01 234.58,203.61 235.18,203.61 237.3,201.04 238.04,197.27 235.04,193.19 	
		"/>
	
		<polygon fill-rule="evenodd" fill="#FFFFFE" stroke="#000000" stroke-linecap="round" stroke-linejoin="round" stroke-miterlimit="10" points="
		213.14,195.59 213.11,203.5 215.45,207.3 218.39,208.33 222.88,207.33 223.45,207.13 224.53,203.99 223.96,200.19 219.73,197.39 	
		"/>
	
		<polygon fill-rule="evenodd" fill="#FFFFFE" stroke="#000000" stroke-linecap="round" stroke-linejoin="round" stroke-miterlimit="10" points="
		199.97,207.13 202.66,214.56 206.17,217.33 209.28,217.3 213.14,214.84 213.59,214.44 213.57,211.13 211.71,207.73 206.77,206.56 	
		"/>
	
		<polygon fill-rule="evenodd" fill="#FFFFFE" stroke="#000000" stroke-linecap="round" stroke-linejoin="round" stroke-miterlimit="10" points="
		191.55,222.47 196.6,228.56 200.86,229.96 203.77,228.84 206.57,225.21 206.86,224.7 205.68,221.56 202.8,219.01 197.75,219.61 	
		"/>
	
		<polygon fill-rule="evenodd" fill="#FFFFFE" stroke="#000000" stroke-linecap="round" stroke-linejoin="round" stroke-miterlimit="10" points="
		188.89,239.79 195.72,243.76 200.17,243.61 202.54,241.59 203.91,237.21 204.03,236.61 201.86,234.1 198.29,232.7 193.72,234.96 	
		"/>
	
		<polygon fill-rule="evenodd" fill="#FFFFFE" stroke="#000000" stroke-linecap="round" stroke-linejoin="round" stroke-miterlimit="10" points="
		192.29,256.96 200.06,258.36 204.23,256.7 205.74,253.96 205.54,249.39 205.46,248.81 202.54,247.16 198.69,247.07 195.2,250.76 	
		"/>
	
		<polygon fill-rule="evenodd" fill="#FFFFFE" stroke="#000000" stroke-linecap="round" stroke-linejoin="round" stroke-miterlimit="10" points="
		201.37,271.93 209.14,270.59 212.48,267.59 213,264.53 211.25,260.3 210.94,259.76 207.65,259.21 204,260.44 201.97,265.1 	"/>
	
		<polygon fill-rule="evenodd" fill="#FFFFFE" stroke="#000000" stroke-linecap="round" stroke-linejoin="round" stroke-miterlimit="10" points="
		215.02,282.87 221.88,278.96 223.99,275.01 223.39,271.96 220.31,268.59 219.85,268.19 216.59,268.79 213.57,271.21 213.25,276.27 
			"/>
</g>
</svg>
