<?xml version="1.0" encoding="utf-8"?>
<!-- Generator: Adobe Illustrator 13.0.0, SVG Export Plug-In . SVG Version: 6.00 Build 14948)  -->
<svg version="1.2" baseProfile="tiny" id="Layer_1" xmlns="http://www.w3.org/2000/svg" xmlns:xlink="http://www.w3.org/1999/xlink"
	 x="0px" y="0px" width="540.04px" height="541.02px" viewBox="0 0 540.04 541.02" xml:space="preserve">
<g>
	<g id="XMLID_1_">
		<g>
			<path fill="#FFFFFE" stroke="#000000" stroke-width="3" stroke-linecap="round" stroke-linejoin="round" stroke-miterlimit="10"  d="M523.08,171.59l-14.77,11.99l-10.58,14.57c-1.85-5.71-3.91-11.32-6.18-16.83
				c-2.71-6.58-5.71-13.01-8.98-19.28l19.51,6.45L523.08,171.59z"/>
			<path fill="#FFFFFE" stroke="#000000" stroke-width="3" stroke-linecap="round" stroke-linejoin="round" stroke-miterlimit="10"  d="M538.52,311.61l-18.79,3l-16.25,7.25c1.3-5.77,2.38-11.62,3.24-17.55c0.98-6.79,1.68-13.67,2.06-20.63
				l13.12,14.69L538.52,311.61z"/>
			<path fill="#FFFFFE" stroke="#000000" stroke-width="3" stroke-linecap="round" stroke-linejoin="round" stroke-miterlimit="10"  d="M474.26,420.84l7.81,19.76l-17.8-6.79l-18.88-2.03l-0.18-0.16c4.2-4.48,8.23-9.13,12.07-13.92l0.03,0.01
				l-0.01-0.04c4.49-5.6,8.72-11.4,12.68-17.39L474.26,420.84z"/>
			<path fill="#FFFFFE" stroke="#000000" stroke-width="3" stroke-linecap="round" stroke-linejoin="round" stroke-miterlimit="10"  d="M439.79,58.08l-6.77,17.82l-2,18.91l-0.31,0.34c-4.51-4.07-9.17-7.97-13.98-11.69l0.2-0.59l-0.74,0.18
				c-5.59-4.3-11.37-8.35-17.34-12.16l0.42-0.64l20.78-4.35L439.79,58.08z"/>
			<path fill="#FFFFFE" stroke="#000000" stroke-width="3" stroke-linecap="round" stroke-linejoin="round" stroke-miterlimit="10"  d="M378.08,481.95l0.42,0.85l-6.64,20.21l-3.12,21.02l-11.97-14.78l-15.4-11.22l-0.35-1.09
				c5.77-1.79,11.44-3.79,17.02-5.99l0.73,0.84l0.37-1.28C365.6,487.93,371.92,485.07,378.08,481.95z"/>
			<path fill="#FFFFFE" stroke="#000000" stroke-width="3" stroke-linecap="round" stroke-linejoin="round" stroke-miterlimit="10"  d="M314.05,20.32l7.73,17.41l-0.27,1.2c-5.81-1.27-11.71-2.33-17.67-3.17l-0.27-1.38l-1.22,1.17
				c-6.71-0.91-13.51-1.54-20.38-1.87l0.06-1.37l15.81-14.17l13.18-16.63L314.05,20.32z"/>
			<path fill="#FFFFFE" stroke="#000000" stroke-width="3" stroke-linecap="round" stroke-linejoin="round" stroke-miterlimit="10"  d="M258.07,507.35l-0.06,1.36l-15.81,14.15l-13.19,16.64l-3.02-18.8l-7.73-17.42l0.27-1.19
				c5.79,1.27,11.66,2.33,17.6,3.16l0.27,1.37l1.21-1.16C244.35,506.38,251.17,507.01,258.07,507.35z"/>
			<path fill="#FFFFFE" stroke="#000000" stroke-width="3" stroke-linecap="round" stroke-linejoin="round" stroke-miterlimit="10"  d="M141.17,470.12l-0.42,0.65l-20.78,4.33l-19.73,7.82l6.78-17.81l1.98-18.94l0.29-0.32
				c4.52,4.07,9.18,7.97,14,11.7l-0.2,0.6l0.75-0.18C129.43,462.27,135.21,466.32,141.17,470.12z"/>
			<path fill="#FFFFFE" stroke="#000000" stroke-width="3" stroke-linecap="round" stroke-linejoin="round" stroke-miterlimit="10"  d="M57.46,378.97l-19.5-6.44l-21-3.12l14.78-12.02l10.56-14.53c1.84,5.71,3.91,11.32,6.17,16.82
				C51.18,366.26,54.18,372.7,57.46,378.97z"/>
			<path fill="#FFFFFE" stroke="#000000" stroke-width="3" stroke-linecap="round" stroke-linejoin="round" stroke-miterlimit="10"  d="M20.26,226.42l16.29-7.26c-1.3,5.78-2.38,11.63-3.24,17.56c-0.99,6.79-1.68,13.67-2.06,20.63l-13.13-14.7
				L1.51,229.4L20.26,226.42z"/>
			<path fill="#FFFFFE" stroke="#000000" stroke-width="3" stroke-linecap="round" stroke-linejoin="round" stroke-miterlimit="10"  d="M94.65,109.24l0.16,0.15c-4.2,4.48-8.22,9.12-12.06,13.91l-0.04-0.01l0.01,0.05
				c-4.47,5.59-8.7,11.38-12.67,17.36l-4.26-20.52l-7.82-19.77l17.79,6.78L94.65,109.24z"/>
			<path fill="#FFFFFE" stroke="#000000" stroke-width="3" stroke-linecap="round" stroke-linejoin="round" stroke-miterlimit="10"  d="M198.65,42.97l0.38,1.1c-5.77,1.79-11.45,3.79-17.03,5.99l-0.73-0.83l-0.37,1.27
				c-6.47,2.59-12.79,5.45-18.96,8.57l-0.42-0.85l6.66-20.21l3.1-21.04l11.97,14.8L198.65,42.97z"/>
			<path fill="#FFFFFE" stroke="#000000" stroke-width="3" stroke-linecap="round" stroke-linejoin="round" stroke-miterlimit="10"  d="M508.78,283.68c-0.38,6.96-1.08,13.84-2.06,20.63l-1.03-0.15l-45.66-47.85l6.15-6.7l2.15-8.82l-2.29-8.76
				l-6.21-6.61l-8.6-2.86l-8.9,1.68l48.59-42.66l0.63-0.26c2.27,5.51,4.33,11.12,6.18,16.83c7.42,22.82,11.42,47.14,11.42,72.36
				C509.15,274.93,509.03,279.32,508.78,283.68z M500.4,242.09l-11-12.83l-12.83,11.01l11,12.83L500.4,242.09z"/>
			<path fill="#FFFFFE" stroke="#000000" stroke-width="3" stroke-linecap="round" stroke-linejoin="round" stroke-miterlimit="10"  d="M503.48,321.86c-6.35,28.36-17.86,54.84-33.5,78.42c-3.96,5.99-8.19,11.79-12.68,17.39l-15.6-64.3
				l8.62-2.72l6.27-6.52l2.38-8.77l-2.06-8.82l-6.05-6.78l-8.53-2.98l63.36-12.62l1.03,0.15
				C505.86,310.24,504.78,316.09,503.48,321.86z M483.74,361.14l-3.12-16.62L464,347.64l3.12,16.62L483.74,361.14z"/>
			<path fill="#FFFFFE" stroke="#000000" stroke-width="3" stroke-linecap="round" stroke-linejoin="round" stroke-miterlimit="10"  d="M460.03,256.31l45.66,47.85l-63.36,12.62l-48.15-46.54v-0.01L460.03,256.31z M470.93,288.78
				c0.63-4.07-6.31-8.54-15.51-9.99c-9.2-1.48-17.19,0.63-17.84,4.7c-0.65,4.05,6.29,8.53,15.51,9.99
				C462.29,294.93,470.28,292.83,470.93,288.78z"/>
			<polygon fill="#FFFFFE" stroke="#000000" stroke-width="3" stroke-linecap="round" stroke-linejoin="round" stroke-miterlimit="10"  points="489.4,229.26 500.4,242.09 487.57,253.1 476.57,240.27 			"/>
			<path fill="#FFFFFE" stroke="#000000" stroke-width="3" stroke-linecap="round" stroke-linejoin="round" stroke-miterlimit="10"  d="M482.57,162.04c3.27,6.27,6.27,12.7,8.98,19.28l-0.63,0.26l-63.45-18.56l1.98-8.87l-2.49-8.74l-6.36-6.47
				l-8.71-2.57l-8.87,1.86l-6.9,5.9l20.61-60.67c4.81,3.72,9.47,7.62,13.98,11.69C451.75,114.13,469.39,136.77,482.57,162.04z
				 M449.72,146.59l5.61-15.96l-15.95-5.59L433.77,141L449.72,146.59z"/>
			<path fill="#FFFFFE" stroke="#000000" stroke-width="3" stroke-linecap="round" stroke-linejoin="round" stroke-miterlimit="10"  d="M490.92,181.58l-48.59,42.66l-62.16-17.78l47.3-43.44L490.92,181.58z M440.03,198.82
				c8.71-3.33,14.58-9.15,13.11-12.99s-9.73-4.25-18.44-0.9c-8.69,3.33-14.56,9.16-13.09,12.99
				C423.08,201.75,431.34,202.17,440.03,198.82z"/>
			
				<rect x="465.42" y="345.94" transform="matrix(-0.1845 -0.9828 0.9828 -0.1845 212.9977 885.5203)" fill="#FFFFFE" stroke="#000000" stroke-width="3" stroke-linecap="round" stroke-linejoin="round" stroke-miterlimit="10"  width="16.91" height="16.91"/>
			<path fill="#FFFFFE" stroke="#000000" stroke-width="3" stroke-linecap="round" stroke-linejoin="round" stroke-miterlimit="10"  d="M455.42,278.79c9.2,1.45,16.14,5.92,15.51,9.99c-0.65,4.05-8.64,6.15-17.84,4.7
				c-9.22-1.46-16.16-5.94-15.51-9.99C438.23,279.42,446.22,277.31,455.42,278.79z"/>
			<path fill="#FFFFFE" stroke="#000000" stroke-width="3" stroke-linecap="round" stroke-linejoin="round" stroke-miterlimit="10"  d="M466.04,232.03l2.29,8.76l-2.15,8.82l-6.15,6.7l-13.1-9.42l-15.77-3.29l-15.75,3.35l-13.06,9.39
				l-8.17,13.88l-0.45-34.64l-13.56-29.12l62.16,17.78l8.9-1.68l8.6,2.86L466.04,232.03z M459.47,244.28
				c3.5-2.02,4.71-6.5,2.68-9.99c-2.02-3.51-6.51-4.72-10.01-2.68c-3.49,2.01-4.7,6.5-2.66,9.99
				C451.49,245.11,455.96,246.32,459.47,244.28z"/>
			<path fill="#FFFFFE" stroke="#000000" stroke-width="3" stroke-linecap="round" stroke-linejoin="round" stroke-miterlimit="10"  d="M462.15,234.29c2.03,3.49,0.82,7.97-2.68,9.99c-3.51,2.04-7.98,0.83-9.99-2.68
				c-2.04-3.49-0.83-7.98,2.66-9.99C455.64,229.57,460.13,230.78,462.15,234.29z"/>
			<polygon fill="#FFFFFE" stroke="#000000" stroke-width="3" stroke-linecap="round" stroke-linejoin="round" stroke-miterlimit="10"  points="460.03,256.31 394.18,270.23 394.18,270.22 402.35,256.34 415.41,246.95 431.16,243.6 
				446.93,246.89 			"/>
			<path fill="#FFFFFE" stroke="#000000" stroke-width="3" stroke-linecap="round" stroke-linejoin="round" stroke-miterlimit="10"  d="M456.91,326.54l2.06,8.82l-2.38,8.77l-6.27,6.52l-8.62,2.72l-4.58-12.27l-8.62-9.86l-11.57-6.15l-13-1.63
				l-12.69,3.12l-10.79,7.47l14.14-31.84l-0.41-31.97l48.15,46.54l8.53,2.98L456.91,326.54z M454.51,335.24
				c0-4.03-3.28-7.31-7.31-7.31c-4.05,0-7.33,3.28-7.33,7.31c0,4.05,3.28,7.33,7.33,7.33C451.23,342.57,454.51,339.29,454.51,335.24
				z"/>
			<path fill="#FFFFFE" stroke="#000000" stroke-width="3" stroke-linecap="round" stroke-linejoin="round" stroke-miterlimit="10"  d="M441.7,353.37l15.6,64.3c0,0.01-0.01,0.02-0.02,0.03l-61.16-20.83l-15.67-62.82L441.7,353.37z
				 M434.88,386.82c2.57-3.19-1.19-10.53-8.43-16.41c-7.26-5.87-15.21-8.05-17.81-4.84c-2.57,3.19,1.2,10.54,8.43,16.41
				C424.31,387.86,432.29,390.03,434.88,386.82z"/>
			<path fill="#FFFFFE" stroke="#000000" stroke-width="3" stroke-linecap="round" stroke-linejoin="round" stroke-miterlimit="10"  d="M396.12,396.87l61.16,20.83c-3.84,4.79-7.87,9.44-12.07,13.92c-19.13,20.45-41.84,37.56-67.13,50.33
				c-6.16,3.12-12.48,5.98-18.94,8.56l18.19-62.26l8.81,1.98l8.71-2.52l6.45-6.38l2.63-8.68l-1.89-8.91L396.12,396.87z
				 M409.8,455.92l5.61-15.96l-15.95-5.61l-5.61,15.96L409.8,455.92z"/>
			<polygon fill="#FFFFFE" stroke="#000000" stroke-width="3" stroke-linecap="round" stroke-linejoin="round" stroke-miterlimit="10"  points="455.33,130.63 449.72,146.59 433.77,141 439.38,125.04 			"/>
			<path fill="#FFFFFE" stroke="#000000" stroke-width="3" stroke-linecap="round" stroke-linejoin="round" stroke-miterlimit="10"  d="M453.14,185.83c1.47,3.84-4.4,9.66-13.11,12.99c-8.69,3.35-16.95,2.93-18.42-0.9
				c-1.47-3.83,4.4-9.66,13.09-12.99C443.41,181.58,451.67,181.99,453.14,185.83z"/>
			<path fill="#FFFFFE" stroke="#000000" stroke-width="3" stroke-linecap="round" stroke-linejoin="round" stroke-miterlimit="10"  d="M447.2,327.93c4.03,0,7.31,3.28,7.31,7.31c0,4.05-3.28,7.33-7.31,7.33c-4.05,0-7.33-3.28-7.33-7.33
				C439.87,331.21,443.15,327.93,447.2,327.93z"/>
			<polygon fill="#FFFFFE" stroke="#000000" stroke-width="3" stroke-linecap="round" stroke-linejoin="round" stroke-miterlimit="10"  points="437.12,341.1 441.7,353.37 380.45,334.05 391.24,326.58 403.93,323.46 416.93,325.09 
				428.5,331.24 			"/>
			<path fill="#FFFFFE" stroke="#000000" stroke-width="3" stroke-linecap="round" stroke-linejoin="round" stroke-miterlimit="10"  d="M426.45,370.41c7.24,5.88,11,13.22,8.43,16.41c-2.59,3.21-10.57,1.04-17.81-4.84
				c-7.23-5.87-11-13.22-8.43-16.41C411.24,362.36,419.19,364.54,426.45,370.41z"/>
			<path fill="#FFFFFE" stroke="#000000" stroke-width="3" stroke-linecap="round" stroke-linejoin="round" stroke-miterlimit="10"  d="M426.96,145.41l2.49,8.74l-1.98,8.87l-12.87-2.18l-12.82,2.53l-11.11,6.96l-7.87,10.45l-3.67,12.62
				l1.04,13.06l-20.45-28.17l-26.29-18.45l62.69-15.71l6.9-5.9l8.87-1.86l8.71,2.57L426.96,145.41z M420.98,153.02
				c2.03-3.5,0.83-7.97-2.68-10.01c-3.5-2.01-7.97-0.82-10.01,2.68c-2.01,3.51-0.8,8,2.69,10.02
				C414.48,157.74,418.97,156.53,420.98,153.02z"/>
			<polygon fill="#FFFFFE" stroke="#000000" stroke-width="3" stroke-linecap="round" stroke-linejoin="round" stroke-miterlimit="10"  points="427.47,163.02 380.17,206.46 379.13,193.4 382.8,180.78 390.67,170.33 401.78,163.37 
				414.6,160.84 			"/>
			<path fill="#FFFFFE" stroke="#000000" stroke-width="3" stroke-linecap="round" stroke-linejoin="round" stroke-miterlimit="10"  d="M418.3,143.01c3.51,2.04,4.71,6.51,2.68,10.01c-2.01,3.51-6.5,4.72-10,2.69
				c-3.49-2.02-4.7-6.51-2.69-10.02C410.33,142.19,414.8,141,418.3,143.01z"/>
			<path fill="#FFFFFE" stroke="#000000" stroke-width="3" stroke-linecap="round" stroke-linejoin="round" stroke-miterlimit="10"  d="M416.73,83.46l-20.61,60.67l-62.69,15.71l19.33-61.29l63.43-15.5C416.37,83.19,416.55,83.33,416.73,83.46
				z M381.43,123.38c5.87-7.25,8.04-15.22,4.85-17.82c-3.19-2.57-10.53,1.19-16.4,8.44s-8.04,15.21-4.85,17.81
				C368.22,134.39,375.56,130.62,381.43,123.38z"/>
			<path fill="#FFFFFE" stroke="#000000" stroke-width="3" stroke-linecap="round" stroke-linejoin="round" stroke-miterlimit="10"  d="M416.19,83.05l-63.43,15.5l-2.75-8.68l-6.5-6.28l-8.78-2.4l-8.8,2.09l-6.73,6.06l-3.03,8.54l-12.33-62.12
				c5.96,0.84,11.86,1.9,17.67,3.17c27.9,6.12,54,17.08,77.34,31.96C404.82,74.7,410.6,78.75,416.19,83.05z M363.73,73.3
				l-3.12-16.62L344,59.8l3.12,16.62L363.73,73.3z"/>
			
				<rect x="396.18" y="436.69" transform="matrix(0.3316 -0.9434 0.9434 0.3316 -149.4915 679.2814)" fill="#FFFFFE" stroke="#000000" stroke-width="3" stroke-linecap="round" stroke-linejoin="round" stroke-miterlimit="10"  width="16.92" height="16.91"/>
			<path fill="#FFFFFE" stroke="#000000" stroke-width="3" stroke-linecap="round" stroke-linejoin="round" stroke-miterlimit="10"  d="M402.04,403.74l1.89,8.91l-2.63,8.68l-6.45,6.38l-8.71,2.52l-8.81-1.98l2.17-12.94l-2.52-12.83
				l-6.96-11.08l-10.44-7.91l-12.6-3.68l-13,1.03l28.09-20.47l18.38-26.32l15.67,62.82L402.04,403.74z M397.45,418.87
				c2.01-3.5,0.82-7.99-2.68-10.01c-3.51-2.02-8-0.82-10.01,2.68c-2.03,3.51-0.82,7.98,2.68,10.02
				C390.95,423.57,395.41,422.38,397.45,418.87z"/>
			<path fill="#FFFFFE" stroke="#000000" stroke-width="3" stroke-linecap="round" stroke-linejoin="round" stroke-miterlimit="10"  d="M394.77,408.86c3.5,2.02,4.69,6.51,2.68,10.01c-2.04,3.51-6.5,4.7-10.01,2.69
				c-3.5-2.04-4.71-6.51-2.68-10.02C386.77,408.04,391.26,406.84,394.77,408.86z"/>
			<path fill="#FFFFFE" stroke="#000000" stroke-width="3" stroke-linecap="round" stroke-linejoin="round" stroke-miterlimit="10"  d="M393.73,235.58l0.45,34.64l-0.01,0.01h0.01v0.01l0.41,31.97l-16.63-13.2l-12.14-17.47l-0.13-0.02
				l0.13-1.01l-0.46-3.49l0.4-0.05l11.71-17.73L393.73,235.58z M391.19,269.28l-9.16-9.67l-9.91,9.45l9.19,9.64L391.19,269.28z"/>
			<path fill="#FFFFFE" stroke="#000000" stroke-width="3" stroke-linecap="round" stroke-linejoin="round" stroke-miterlimit="10"  d="M394.59,302.21l-14.14,31.84l-18.38,26.32l-7.82-19.76l-1.8-21.22l-0.09-0.07l0.63-0.82l1.34-3.25
				l0.38,0.16l18.96-9.54L394.59,302.21z M375.56,330.1l-3.1-12.92l-13.29,3.21l3.12,12.94L375.56,330.1z"/>
			<polygon fill="#E00885" points="394.18,270.22 394.18,270.23 394.17,270.23 			"/>
			<polygon fill="#FFFFFE" stroke="#000000" stroke-width="3" stroke-linecap="round" stroke-linejoin="round" stroke-miterlimit="10"  points="382.03,259.61 391.19,269.28 381.31,278.7 372.12,269.06 			"/>
			<path fill="#FFFFFE" stroke="#000000" stroke-width="3" stroke-linecap="round" stroke-linejoin="round" stroke-miterlimit="10"  d="M386.28,105.56c3.19,2.6,1.02,10.57-4.85,17.82c-5.87,7.24-13.21,11.01-16.4,8.43
				c-3.19-2.6-1.02-10.56,4.85-17.81S383.09,102.99,386.28,105.56z"/>
			<polygon fill="#FFFFFE" stroke="#000000" stroke-width="3" stroke-linecap="round" stroke-linejoin="round" stroke-miterlimit="10"  points="376.98,402.48 379.5,415.31 377.33,428.25 333.98,380.84 346.98,379.81 359.58,383.49 
				370.02,391.4 			"/>
			<path fill="#FFFFFE" stroke="#000000" stroke-width="3" stroke-linecap="round" stroke-linejoin="round" stroke-miterlimit="10"  d="M333.98,380.84l43.35,47.41l-18.19,62.26c-0.36,0.15-0.73,0.3-1.1,0.44l-41.87-47.86L333.98,380.84z
				 M354.65,453.71c3.84-1.47,4.24-9.71,0.9-18.43c-3.33-8.71-9.15-14.57-12.99-13.09c-3.84,1.47-4.24,9.71-0.89,18.42
				C345,449.33,350.81,455.18,354.65,453.71z"/>
			<polygon fill="#FFFFFE" stroke="#000000" stroke-width="3" stroke-linecap="round" stroke-linejoin="round" stroke-miterlimit="10"  points="372.46,317.18 375.56,330.1 362.29,333.33 359.17,320.39 			"/>
			<polygon fill="#FFFFFE" stroke="#000000" stroke-width="3" stroke-linecap="round" stroke-linejoin="round" stroke-miterlimit="10"  points="374.35,208.72 370.46,221.89 357.72,218.09 361.57,204.97 			"/>
			<polygon fill="#FFFFFE" stroke="#000000" stroke-width="3" stroke-linecap="round" stroke-linejoin="round" stroke-miterlimit="10"  points="365.76,266.97 365.36,267.02 365.23,266.02 362.56,245.68 355.67,228.99 355.65,228.59 
				355.07,227.56 353.39,223.48 353.53,223.42 372.72,232.43 393.73,235.58 377.47,249.24 			"/>
			<polygon fill="#E00885" points="365.23,266.02 365.36,267.02 365.82,270.51 365.69,271.52 365.11,275.9 365.22,266.02 			"/>
			<polygon fill="#FFFFFE" stroke="#000000" stroke-width="3" stroke-linecap="round" stroke-linejoin="round" stroke-miterlimit="10"  points="362.56,245.68 365.23,266.02 365.22,266.02 360.3,256.17 351.41,249.61 356.06,239.62 
				355.67,228.99 			"/>
			<path fill="#FFFFFE" stroke="#000000" stroke-width="3" stroke-linecap="round" stroke-linejoin="round" stroke-miterlimit="10"  d="M362.68,274.24l-0.84-6.04l-4.86-3.84l-6.13,0.82l-3.71,4.86l0.82,6.17l4.89,3.72l6.04-0.79
				L362.68,274.24z M365.22,266.02l-0.11,9.88l-0.2,1.53l-4.96,9.4l-8.99,6.39l-11.8-21.27l12.25-22.34l8.89,6.56L365.22,266.02z"/>
			<polygon fill="#E00885" points="364.91,277.43 365.11,275.9 365.1,277.07 			"/>
			<polygon fill="#FFFFFE" stroke="#000000" stroke-width="3" stroke-linecap="round" stroke-linejoin="round" stroke-miterlimit="10"  points="364.91,277.43 362.56,295.34 354.71,314.33 355.37,303.3 350.96,293.22 359.95,286.83 			"/>
			
				<rect x="345.41" y="58.1" transform="matrix(-0.1845 -0.9828 0.9828 -0.1845 353.7491 426.6268)" fill="#FFFFFE" stroke="#000000" stroke-width="3" stroke-linecap="round" stroke-linejoin="round" stroke-miterlimit="10"  width="16.91" height="16.9"/>
			<polygon fill="#FFFFFE" stroke="#000000" stroke-width="3" stroke-linecap="round" stroke-linejoin="round" stroke-miterlimit="10"  points="361.84,268.2 362.68,274.24 358.89,279.14 352.85,279.93 347.96,276.21 347.14,270.04 
				350.85,265.18 356.98,264.36 			"/>
			<path fill="#FFFFFE" stroke="#000000" stroke-width="3" stroke-linecap="round" stroke-linejoin="round" stroke-miterlimit="10"  d="M362.07,360.37l-28.09,20.47l-29.09,13.57l3.11-21.02l8.99-19.21l-0.06-0.13l1.01-0.42l2.76-2.12
				l0.25,0.32l21.19,1.26L362.07,360.37z M331.66,375.02l3.75-12.8l-13.09-3.84l-3.75,12.75L331.66,375.02z"/>
			<path fill="#FFFFFE" stroke="#000000" stroke-width="3" stroke-linecap="round" stroke-linejoin="round" stroke-miterlimit="10"  d="M316.17,443.09l41.87,47.86c-5.58,2.2-11.25,4.2-17.02,5.99c-22.45,6.95-46.31,10.7-71.01,10.7
				c-4,0-7.99-0.1-11.94-0.29c-6.9-0.34-13.72-0.97-20.46-1.89l46.58-44.61l6.69,6.17l8.8,2.15l8.78-2.24l6.59-6.24l2.8-8.65
				L316.17,443.09z M311.25,489.99l-11.01-12.84l-12.83,11.03L298.42,501L311.25,489.99z"/>
			<path fill="#FFFFFE" stroke="#000000" stroke-width="3" stroke-linecap="round" stroke-linejoin="round" stroke-miterlimit="10"  d="M355.55,435.28c3.34,8.72,2.94,16.96-0.9,18.43s-9.65-4.38-12.98-13.1c-3.35-8.71-2.95-16.95,0.89-18.42
				C346.4,420.71,352.22,426.57,355.55,435.28z"/>
			<path fill="#FFFFFE" stroke="#000000" stroke-width="3" stroke-linecap="round" stroke-linejoin="round" stroke-miterlimit="10"  d="M352.01,227.54l-3.77-4.82l-6.12-0.9l-4.9,3.79l-0.77,6.07l3.78,4.94l6.1,0.77l4.85-3.72L352.01,227.54z
				 M350.24,218.95l4.83,8.61l0.6,1.43l0.39,10.63l-4.65,9.99l-20.78-12.53l-0.55-25.46l10.94,1.23L350.24,218.95z"/>
			<polygon fill="#E00885" points="355.67,228.99 355.07,227.56 355.65,228.59 			"/>
			<path fill="#FFFFFE" stroke="#000000" stroke-width="3" stroke-linecap="round" stroke-linejoin="round" stroke-miterlimit="10"  d="M348.59,320.02l2.3-5.66l-2.3-5.75l-5.71-2.35l-5.65,2.35l-2.38,5.75l2.38,5.66l5.65,2.35L348.59,320.02z
				 M354.71,314.33v0.01l-4.97,8.41l-1,1.31l-9,5.66l-10.97,0.98l0.42-24.34l21.77-13.14l4.41,10.08L354.71,314.33z"/>
			<polygon fill="#FFFFFE" stroke="#000000" stroke-width="3" stroke-linecap="round" stroke-linejoin="round" stroke-miterlimit="10"  points="354.71,314.34 354.71,314.33 362.56,295.34 364.91,277.43 365.1,277.07 365.11,275.9 
				365.69,271.52 365.82,271.54 377.96,289.01 394.59,302.21 373.67,305.87 354.71,315.41 354.33,315.25 			"/>
			<polygon fill="#E00885" points="354.71,314.34 354.33,315.25 352.99,318.5 352.36,319.32 349.74,322.75 			"/>
			<path fill="#FFFFFE" stroke="#000000" stroke-width="3" stroke-linecap="round" stroke-linejoin="round" stroke-miterlimit="10"  d="M353.53,223.42l-0.14,0.06l-0.4-0.96l-2.13-2.78l0.32-0.25l1.27-21.21l7.27-19.99l20.45,28.17
				l13.56,29.12l-21.01-3.15L353.53,223.42z M370.46,221.89l3.89-13.17l-12.78-3.75l-3.85,13.12L370.46,221.89z"/>
			<path fill="#FFFFFE" stroke="#000000" stroke-width="3" stroke-linecap="round" stroke-linejoin="round" stroke-miterlimit="10"  d="M350.01,89.87l2.75,8.68l-12.28,4.52l-9.85,8.65l-6.15,11.62l-1.58,12.97l3.12,12.77l7.41,10.76
				l-31.75-14.11l-31.98-2.81l46.47-45.04l3.03-8.54l6.73-6.06l8.8-2.09l8.78,2.4L350.01,89.87z M342.05,93.24
				c0-4.04-3.27-7.33-7.32-7.33s-7.33,3.29-7.33,7.33c0,4.05,3.28,7.33,7.33,7.33S342.05,97.29,342.05,93.24z"/>
			<polygon fill="#FFFFFE" stroke="#000000" stroke-width="3" stroke-linecap="round" stroke-linejoin="round" stroke-miterlimit="10"  points="352.76,98.55 333.43,159.84 326.02,149.08 322.9,136.31 324.48,123.34 330.63,111.72 
				340.48,103.07 			"/>
			<polygon fill="#FFFFFE" stroke="#000000" stroke-width="3" stroke-linecap="round" stroke-linejoin="round" stroke-miterlimit="10"  points="348.24,222.72 352.01,227.54 351.18,233.67 346.33,237.39 340.23,236.62 336.45,231.68 
				337.22,225.61 342.12,221.82 			"/>
			<polygon fill="#FFFFFE" stroke="#000000" stroke-width="3" stroke-linecap="round" stroke-linejoin="round" stroke-miterlimit="10"  points="351.18,219.49 350.86,219.74 337.76,202.62 323.41,191.59 323.23,191.31 322.4,190.82 
				318.75,188.01 318.83,187.91 339.97,186.11 359.72,178.29 352.45,198.28 			"/>
			<polygon fill="#FFFFFE" stroke="#000000" stroke-width="3" stroke-linecap="round" stroke-linejoin="round" stroke-miterlimit="10"  points="348.59,308.61 350.89,314.36 348.59,320.02 342.88,322.37 337.23,320.02 334.85,314.36 
				337.23,308.61 342.88,306.26 			"/>
			<polygon fill="#FFFFFE" stroke="#000000" stroke-width="3" stroke-linecap="round" stroke-linejoin="round" stroke-miterlimit="10"  points="337.76,202.62 350.86,219.74 352.99,222.52 353.39,223.48 355.07,227.56 350.24,218.95 
				341.02,212.85 330.08,211.62 329.1,200.62 323.41,191.59 			"/>
			<polygon fill="#E00885" points="349.74,322.75 349.1,323.83 348.74,324.06 			"/>
			<path fill="#FFFFFE" stroke="#000000" stroke-width="3" stroke-linecap="round" stroke-linejoin="round" stroke-miterlimit="10"  d="M334.73,85.91c4.05,0,7.32,3.29,7.32,7.33c0,4.05-3.27,7.33-7.32,7.33s-7.33-3.28-7.33-7.33
				C327.4,89.2,330.68,85.91,334.73,85.91z"/>
			<polygon fill="#FFFFFE" stroke="#000000" stroke-width="3" stroke-linecap="round" stroke-linejoin="round" stroke-miterlimit="10"  points="339.16,271.95 350.96,293.22 329.19,306.36 328.77,330.7 303.5,331.24 316.78,315.34 
				315.15,297.36 330.42,291.74 339.3,272.58 339.08,271.98 			"/>
			<polygon fill="#FFFFFE" stroke="#000000" stroke-width="3" stroke-linecap="round" stroke-linejoin="round" stroke-miterlimit="10"  points="339.08,271.98 339.3,272.58 330.42,291.74 315.15,297.36 314.87,294.32 308.65,289.12 
				313.63,270.51 309.2,253.95 314.82,250 315.65,245.18 332.05,252.77 			"/>
			<polygon fill="#FFFFFE" stroke="#000000" stroke-width="3" stroke-linecap="round" stroke-linejoin="round" stroke-miterlimit="10"  points="335.41,362.22 331.66,375.02 318.57,371.13 322.32,358.38 			"/>
			<path fill="#FFFFFE" stroke="#000000" stroke-width="3" stroke-linecap="round" stroke-linejoin="round" stroke-miterlimit="10"  d="M333.98,380.84l-17.81,62.25l1.68,8.95l-2.8,8.65l-6.59,6.24l-8.78,2.24l-8.8-2.15l-6.69-6.17l8.37-10.07
				l4.19-12.39l-0.45-13.12l-5.1-12.08l-9.08-9.45l-11.79-5.66l34.56-3.67L333.98,380.84z M306.22,462.74
				c3.5-2.03,4.71-6.51,2.68-10.01c-2.02-3.51-6.5-4.7-10.01-2.68c-3.49,2.01-4.7,6.5-2.68,10.01
				C298.24,463.56,302.71,464.76,306.22,462.74z"/>
			<polygon fill="#FFFFFE" stroke="#000000" stroke-width="3" stroke-linecap="round" stroke-linejoin="round" stroke-miterlimit="10"  points="329.54,164.77 332.75,178.06 319.83,181.2 316.63,167.89 			"/>
			<path fill="#FFFFFE" stroke="#000000" stroke-width="3" stroke-linecap="round" stroke-linejoin="round" stroke-miterlimit="10"  d="M319.41,192.44l-5.66-2.3l-5.75,2.3l-2.34,5.73l2.34,5.65l5.75,2.36l5.66-2.36l2.35-5.65L319.41,192.44z
				 M313.73,185.67l8.67,5.15l1.01,0.77l5.69,9.03l0.98,11l-24.25-0.41l-13.18-21.74l10.11-4.48L313.73,185.67z"/>
			<path fill="#FFFFFE" stroke="#000000" stroke-width="3" stroke-linecap="round" stroke-linejoin="round" stroke-miterlimit="10"  d="M321.46,350.86l-8.55,4.86l-1.45,0.6l-10.59,0.38l-9.99-4.65l12.28-20.5l0.09-0.01l0.25-0.3l25.27-0.54
				l-1.21,10.94L321.46,350.86z M313.51,352.63l4.82-3.77l0.89-6.12l-3.79-4.9l-6.06-0.77l-4.92,3.78l-0.79,6.1l3.71,4.86
				L313.51,352.63z"/>
			<polygon fill="#E00885" points="323.41,191.59 322.4,190.82 323.23,191.31 			"/>
			<polygon fill="#FFFFFE" stroke="#000000" stroke-width="3" stroke-linecap="round" stroke-linejoin="round" stroke-miterlimit="10"  points="319.41,192.44 321.76,198.17 319.41,203.82 313.75,206.18 308,203.82 305.66,198.17 308,192.44 
				313.75,190.14 			"/>
			<polygon fill="#FFFFFE" stroke="#000000" stroke-width="3" stroke-linecap="round" stroke-linejoin="round" stroke-miterlimit="10"  points="321.46,350.86 327.56,341.64 328.77,330.7 339.74,329.72 348.74,324.06 337.76,338.4 
				320.7,351.51 317.94,353.63 316.93,354.05 312.91,355.72 			"/>
			<polygon fill="#FFFFFE" stroke="#000000" stroke-width="3" stroke-linecap="round" stroke-linejoin="round" stroke-miterlimit="10"  points="320.95,351.83 320.7,351.51 337.76,338.4 348.74,324.06 349.1,323.83 349.74,322.75 
				352.36,319.32 352.45,319.39 354.25,340.61 362.07,360.37 342.14,353.09 			"/>
			<polygon fill="#FFFFFE" stroke="#000000" stroke-width="3" stroke-linecap="round" stroke-linejoin="round" stroke-miterlimit="10"  points="315.43,337.84 319.22,342.74 318.33,348.86 313.51,352.63 307.37,351.81 303.66,346.95 
				304.45,340.85 309.37,337.07 			"/>
			<path fill="#FFFFFE" stroke="#000000" stroke-width="3" stroke-linecap="round" stroke-linejoin="round" stroke-miterlimit="10"  d="M318.83,187.91l-0.08,0.1l-0.81-0.62l-3.27-1.36l0.15-0.36l-9.48-18.99l-3.66-20.95l31.75,14.11
				l26.29,18.45l-19.75,7.82L318.83,187.91z M332.75,178.06l-3.21-13.29l-12.91,3.12l3.2,13.31L332.75,178.06z"/>
			<polygon fill="#FFFFFE" stroke="#000000" stroke-width="3" stroke-linecap="round" stroke-linejoin="round" stroke-miterlimit="10"  points="306.29,211.86 318.43,229.13 315.65,245.18 312.89,243.9 305.69,246.54 291.83,232.6 
				275.07,228.11 274.5,221.79 270.74,218.65 285.5,208.25 305.73,211.76 			"/>
			<polygon fill="#FFFFFE" stroke="#000000" stroke-width="3" stroke-linecap="round" stroke-linejoin="round" stroke-miterlimit="10"  points="315.15,297.36 316.78,315.34 303.5,331.24 303.34,331.24 303.16,331.55 282.23,333.44 
				269.74,323 272.22,321.25 273.61,313.27 291.83,308.33 304.1,296.04 310.58,299.04 			"/>
			<path fill="#FFFFFE" stroke="#000000" stroke-width="3" stroke-linecap="round" stroke-linejoin="round" stroke-miterlimit="10"  d="M303.84,35.76l12.33,62.12l-46.47,45.04l-13.87-62.76l46.52-44.61
				C302.85,35.61,303.35,35.68,303.84,35.76z M292.97,87.35c1.47-9.21-0.63-17.2-4.7-17.85c-4.05-0.63-8.51,6.31-9.99,15.51
				c-1.45,9.21,0.65,17.2,4.7,17.85C287.05,103.51,291.51,96.55,292.97,87.35z"/>
			<polygon fill="#FFFFFE" stroke="#000000" stroke-width="3" stroke-linecap="round" stroke-linejoin="round" stroke-miterlimit="10"  points="315.65,245.18 314.82,250 309.2,253.95 307.79,248.66 305.69,246.54 312.89,243.9 			"/>
			<polygon fill="#FFFFFE" stroke="#000000" stroke-width="3" stroke-linecap="round" stroke-linejoin="round" stroke-miterlimit="10"  points="314.87,294.32 315.15,297.36 310.58,299.04 304.1,296.04 307.79,292.34 308.65,289.12 			"/>
			<polygon fill="#FFFFFE" stroke="#000000" stroke-width="3" stroke-linecap="round" stroke-linejoin="round" stroke-miterlimit="10"  points="314.82,185.67 314.67,186.03 294.81,177.8 276.93,175.45 276.57,175.26 275.36,175.24 
				271.04,174.68 271.06,174.54 288.48,162.37 301.68,145.73 305.34,166.68 			"/>
			<polygon fill="#FFFFFE" stroke="#000000" stroke-width="3" stroke-linecap="round" stroke-linejoin="round" stroke-miterlimit="10"  points="294.81,177.8 314.67,186.03 317.94,187.39 318.75,188.01 322.4,190.82 313.73,185.67 
				302.76,184.99 292.65,189.47 286.33,180.41 276.93,175.45 			"/>
			<polygon fill="#FFFFFE" stroke="#000000" stroke-width="3" stroke-linecap="round" stroke-linejoin="round" stroke-miterlimit="10"  points="309.2,253.95 313.63,270.51 308.65,289.12 298.65,280.77 288.32,281.69 284.15,270.35 
				288.67,260.61 297.56,262.15 			"/>
			<polygon fill="#E00885" points="312.91,355.72 311.88,356.3 311.46,356.32 			"/>
			<polygon fill="#FFFFFE" stroke="#000000" stroke-width="3" stroke-linecap="round" stroke-linejoin="round" stroke-miterlimit="10"  points="311.46,356.32 294.81,363.22 274.5,365.88 284.33,360.96 290.88,352.05 300.87,356.7 			"/>
			<polygon fill="#FFFFFE" stroke="#000000" stroke-width="3" stroke-linecap="round" stroke-linejoin="round" stroke-miterlimit="10"  points="300.24,477.15 311.25,489.99 298.42,501 287.41,488.18 			"/>
			<polygon fill="#FFFFFE" stroke="#000000" stroke-width="3" stroke-linecap="round" stroke-linejoin="round" stroke-miterlimit="10"  points="307.79,248.66 309.2,253.95 297.56,262.15 288.67,260.61 293.04,251.19 305.69,246.54 			"/>
			<path fill="#FFFFFE" stroke="#000000" stroke-width="3" stroke-linecap="round" stroke-linejoin="round" stroke-miterlimit="10"  d="M308.9,452.73c2.03,3.5,0.82,7.98-2.68,10.01c-3.51,2.02-7.98,0.82-10.01-2.68
				c-2.02-3.51-0.81-8,2.68-10.01C302.4,448.03,306.88,449.22,308.9,452.73z"/>
			<polygon fill="#FFFFFE" stroke="#000000" stroke-width="3" stroke-linecap="round" stroke-linejoin="round" stroke-miterlimit="10"  points="308.65,289.12 307.79,292.34 304.1,296.04 291.43,290.16 288.32,281.69 298.65,280.77 			"/>
			<polygon fill="#FFFFFE" stroke="#000000" stroke-width="3" stroke-linecap="round" stroke-linejoin="round" stroke-miterlimit="10"  points="305.83,211.21 330.08,211.62 330.63,237.08 351.41,249.61 339.16,271.95 339.08,271.98 
				332.05,252.77 315.65,245.18 318.43,229.13 306.29,211.86 305.73,211.76 			"/>
			<polygon fill="#FFFFFE" stroke="#000000" stroke-width="3" stroke-linecap="round" stroke-linejoin="round" stroke-miterlimit="10"  points="305.69,246.54 293.04,251.19 288.67,260.61 276.79,258.54 270.61,249.73 276.39,242.81 
				275.07,228.11 291.83,232.6 			"/>
			<polygon fill="#FFFFFE" stroke="#000000" stroke-width="3" stroke-linecap="round" stroke-linejoin="round" stroke-miterlimit="10"  points="291.43,290.16 304.1,296.04 291.83,308.33 273.61,313.27 275.85,300.4 269.88,291.91 
				277.62,282.64 288.32,281.69 			"/>
			<polygon fill="#E00885" points="303.5,331.24 303.25,331.54 303.16,331.55 303.34,331.24 			"/>
			<polygon fill="#FFFFFE" stroke="#000000" stroke-width="3" stroke-linecap="round" stroke-linejoin="round" stroke-miterlimit="10"  points="303.16,331.55 290.88,352.05 268.57,339.78 247.39,351.56 234.19,329.79 254.98,333.42 
				269.74,323 282.23,333.44 			"/>
			<path fill="#FFFFFE" stroke="#000000" stroke-width="3" stroke-linecap="round" stroke-linejoin="round" stroke-miterlimit="10"  d="M302.35,35.55l-46.52,44.61L249.16,74l-8.82-2.21l-8.76,2.3l-6.59,6.24l-2.8,8.65l1.66,8.9L182,50.06
				c5.58-2.2,11.26-4.2,17.03-5.99c22.44-6.95,46.29-10.69,70.98-10.69c4.01,0,8,0.1,11.96,0.3
				C288.84,34.01,295.64,34.64,302.35,35.55z M252.61,52.84L241.6,40.01l-12.82,11.01l11,12.83L252.61,52.84z"/>
			<polygon fill="#FFFFFE" stroke="#000000" stroke-width="3" stroke-linecap="round" stroke-linejoin="round" stroke-miterlimit="10"  points="296.3,425.27 296.75,438.39 292.56,450.78 284.19,460.85 270.33,398.08 282.12,403.74 
				291.2,413.19 			"/>
			<path fill="#FFFFFE" stroke="#000000" stroke-width="3" stroke-linecap="round" stroke-linejoin="round" stroke-miterlimit="10"  d="M288.27,69.5c4.07,0.65,6.17,8.64,4.7,17.85c-1.46,9.2-5.92,16.16-9.99,15.51
				c-4.05-0.65-6.15-8.64-4.7-17.85C279.76,75.81,284.22,68.87,288.27,69.5z"/>
			<path fill="#FFFFFE" stroke="#000000" stroke-width="3" stroke-linecap="round" stroke-linejoin="round" stroke-miterlimit="10"  d="M286.33,180.41l6.32,9.06l-21.2,11.75l-22.29-12.25l6.53-8.91l9.8-4.93l0.17-0.02l9.7,0.13l1.57,0.21
				L286.33,180.41z M279.33,188.19l-0.78-6.06l-4.89-3.79l-6.05,0.84l-3.84,4.88l0.83,6.13l4.85,3.7l6.17-0.8L279.33,188.19z"/>
			<path fill="#FFFFFE" stroke="#000000" stroke-width="3" stroke-linecap="round" stroke-linejoin="round" stroke-miterlimit="10"  d="M274.44,365.89l-9.81-0.13l-1.49-0.19l-9.43-4.98l-6.32-9.03l21.18-11.78l22.31,12.27l-6.55,8.91
				l-9.83,4.92L274.44,365.89z M266.84,363.31l6.05-0.84l3.83-4.86l-0.84-6.13l-4.85-3.72l-6.17,0.82l-3.72,4.9l0.79,6.04
				L266.84,363.31z"/>
			<path fill="#FFFFFE" stroke="#000000" stroke-width="3" stroke-linecap="round" stroke-linejoin="round" stroke-miterlimit="10"  d="M276.79,258.54l11.88,2.07l-4.52,9.74l4.17,11.34l-10.7,0.95l-7.74,9.27l-6.18-8.78l-11.89-2.08
				l4.52-9.75l-4.16-11.34l10.69-0.95l7.75-9.28L276.79,258.54z M278.7,270.83l-1.22-3.05l-1.25-3.06l-2.99-1.26l-3-1.26l-3,1.26
				l-2.98,1.26l-1.24,3.06l-1.25,3.05l1.25,3.05l1.24,3.05l2.98,1.28l3,1.26l3-1.26l2.99-1.28l1.25-3.05L278.7,270.83z"/>
			<path fill="#FFFFFE" stroke="#000000" stroke-width="3" stroke-linecap="round" stroke-linejoin="round" stroke-miterlimit="10"  d="M270.33,398.08l13.86,62.77l-46.58,44.61c-0.5-0.06-0.99-0.13-1.48-0.21l-12.28-62.16L270.33,398.08z
				 M261.74,455.99c1.47-9.2-0.63-17.2-4.7-17.83c-4.04-0.65-8.53,6.29-9.98,15.5c-1.48,9.22,0.64,17.2,4.69,17.85
				C255.82,472.15,260.29,465.21,261.74,455.99z"/>
			<polygon fill="#FFFFFE" stroke="#000000" stroke-width="3" stroke-linecap="round" stroke-linejoin="round" stroke-miterlimit="10"  points="271.45,372.8 280.86,382.7 271.24,391.89 261.85,381.98 			"/>
			<polygon fill="#FFFFFE" stroke="#000000" stroke-width="3" stroke-linecap="round" stroke-linejoin="round" stroke-miterlimit="10"  points="278.55,182.13 279.33,188.19 275.62,193.09 269.45,193.89 264.6,190.19 263.77,184.06 
				267.61,179.18 273.66,178.34 			"/>
			<polygon fill="#FFFFFE" stroke="#000000" stroke-width="3" stroke-linecap="round" stroke-linejoin="round" stroke-miterlimit="10"  points="277.48,267.78 278.7,270.83 277.48,273.88 276.23,276.93 273.24,278.21 270.24,279.47 
				267.24,278.21 264.26,276.93 263.02,273.88 261.77,270.83 263.02,267.78 264.26,264.72 267.24,263.46 270.24,262.2 
				273.24,263.46 276.23,264.72 			"/>
			<polygon fill="#FFFFFE" stroke="#000000" stroke-width="3" stroke-linecap="round" stroke-linejoin="round" stroke-miterlimit="10"  points="268.79,149.13 278.18,159.02 268.57,168.21 259.18,158.3 			"/>
			<polygon fill="#E00885" points="276.93,175.45 275.36,175.24 276.57,175.26 			"/>
			<polygon fill="#FFFFFE" stroke="#000000" stroke-width="3" stroke-linecap="round" stroke-linejoin="round" stroke-miterlimit="10"  points="275.88,351.48 276.72,357.61 272.89,362.47 266.84,363.31 261.93,359.52 261.14,353.48 
				264.86,348.58 271.03,347.76 			"/>
			<polygon fill="#FFFFFE" stroke="#000000" stroke-width="3" stroke-linecap="round" stroke-linejoin="round" stroke-miterlimit="10"  points="275.07,228.11 276.39,242.81 270.61,249.73 264.65,241.25 267.02,227.55 270.01,226.75 			"/>
			<polygon fill="#FFFFFE" stroke="#000000" stroke-width="3" stroke-linecap="round" stroke-linejoin="round" stroke-miterlimit="10"  points="269.88,291.91 275.85,300.4 273.61,313.27 270.01,314.25 265.37,312.99 264.09,298.84 			"/>
			<polygon fill="#E00885" points="275.36,175.24 265.66,175.11 266.54,175 270.01,174.54 271.04,174.68 			"/>
			<polygon fill="#FFFFFE" stroke="#000000" stroke-width="3" stroke-linecap="round" stroke-linejoin="round" stroke-miterlimit="10"  points="274.5,221.79 275.07,228.11 270.01,226.75 267.02,227.55 268.26,220.4 270.74,218.65 			"/>
			<polygon fill="#E00885" points="274.5,365.88 274.48,365.89 274.44,365.89 			"/>
			<polygon fill="#FFFFFE" stroke="#000000" stroke-width="3" stroke-linecap="round" stroke-linejoin="round" stroke-miterlimit="10"  points="274.48,365.89 274.5,365.88 294.81,363.22 311.46,356.32 311.88,356.3 312.91,355.72 
				316.93,354.05 316.99,354.18 308,373.39 304.89,394.41 291.23,378.14 273.53,366.43 273.48,366.02 274.44,365.89 			"/>
			<polygon fill="#E00885" points="274.44,365.89 273.48,366.02 270.01,366.47 269,366.34 264.63,365.76 			"/>
			<polygon fill="#FFFFFE" stroke="#000000" stroke-width="3" stroke-linecap="round" stroke-linejoin="round" stroke-miterlimit="10"  points="273.61,313.27 272.22,321.25 269.74,323 266,319.88 265.37,312.99 270.01,314.25 			"/>
			<path fill="#FFFFFE" stroke="#000000" stroke-width="3" stroke-linecap="round" stroke-linejoin="round" stroke-miterlimit="10"  d="M271.06,174.54l-0.02,0.14l-1.03-0.14l-3.47,0.46l-0.05-0.41l-17.7-11.71l-13.63-16.29l34.54-3.67
				l31.98,2.81l-13.2,16.64L271.06,174.54z M278.18,159.02l-9.39-9.89l-9.61,9.17l9.39,9.91L278.18,159.02z"/>
			<polygon fill="#FFFFFE" stroke="#000000" stroke-width="3" stroke-linecap="round" stroke-linejoin="round" stroke-miterlimit="10"  points="270.74,218.65 268.26,220.4 267.02,227.55 248.21,232.6 235.63,245.26 229.92,242.62 
				225.34,244.3 223.71,226.31 237.17,210.17 237.22,210.11 258.25,208.23 			"/>
			<polygon fill="#FFFFFE" stroke="#000000" stroke-width="3" stroke-linecap="round" stroke-linejoin="round" stroke-miterlimit="10"  points="270.61,249.73 262.86,259.01 252.17,259.96 249.07,251.49 235.63,245.26 248.21,232.6 
				267.02,227.55 264.65,241.25 			"/>
			<path fill="#FFFFFE" stroke="#000000" stroke-width="3" stroke-linecap="round" stroke-linejoin="round" stroke-miterlimit="10"  d="M268.98,366.47l0.02-0.13l1.01,0.13l3.47-0.45l0.05,0.41l17.7,11.71l13.66,16.27l-34.56,3.67l-31.98-2.81
				l13.19-16.64L268.98,366.47z M280.86,382.7l-9.41-9.9l-9.6,9.18l9.39,9.91L280.86,382.7z"/>
			<polygon fill="#FFFFFE" stroke="#000000" stroke-width="3" stroke-linecap="round" stroke-linejoin="round" stroke-miterlimit="10"  points="269.88,291.91 264.09,298.84 265.37,312.99 248.21,308.33 234.96,295.05 247.44,290.46 
				251.81,281.05 263.7,283.13 			"/>
			<polygon fill="#FFFFFE" stroke="#000000" stroke-width="3" stroke-linecap="round" stroke-linejoin="round" stroke-miterlimit="10"  points="269.74,323 254.98,333.42 234.19,329.79 222.05,312.52 224.83,296.48 227.59,297.76 
				234.96,295.05 248.21,308.33 265.37,312.99 266,319.88 			"/>
			<polygon fill="#FFFFFE" stroke="#000000" stroke-width="3" stroke-linecap="round" stroke-linejoin="round" stroke-miterlimit="10"  points="255.83,80.16 269.7,142.92 257.9,137.28 248.84,127.81 243.72,115.75 243.27,102.63 
				247.48,90.24 			"/>
			<path fill="#FFFFFE" stroke="#000000" stroke-width="3" stroke-linecap="round" stroke-linejoin="round" stroke-miterlimit="10"  d="M269.7,142.92l-34.54,3.67l-29.09,13.57l17.78-62.28l-1.66-8.9l2.8-8.65l6.59-6.24l8.76-2.3l8.82,2.21
				l6.67,6.16l-8.35,10.08l-4.21,12.39l0.45,13.12l5.12,12.06l9.06,9.47L269.7,142.92z M241.13,90.96c3.51-2.02,4.7-6.51,2.68-10
				c-2.03-3.5-6.5-4.71-10-2.68c-3.51,2.02-4.7,6.51-2.68,10C233.14,91.78,237.63,92.99,241.13,90.96z"/>
			<polygon fill="#FFFFFE" stroke="#000000" stroke-width="3" stroke-linecap="round" stroke-linejoin="round" stroke-miterlimit="10"  points="248.79,162.88 266.49,174.59 266.54,175 265.66,175.11 265.54,175.11 265.49,175.13 
				245.22,177.8 228.58,184.7 228.15,184.72 227.07,185.33 223.11,186.97 223.05,186.83 232.04,167.63 235.16,146.59 			"/>
			<polygon fill="#E00885" points="265.66,175.11 265.49,175.13 265.54,175.11 			"/>
			<polygon fill="#FFFFFE" stroke="#000000" stroke-width="3" stroke-linecap="round" stroke-linejoin="round" stroke-miterlimit="10"  points="265.49,175.13 255.69,180.06 249.16,188.97 239.17,184.3 228.58,184.7 245.22,177.8 			"/>
			<polygon fill="#E00885" points="264.63,365.76 263.48,365.75 263.14,365.57 			"/>
			<path fill="#FFFFFE" stroke="#000000" stroke-width="3" stroke-linecap="round" stroke-linejoin="round" stroke-miterlimit="10"  d="M257.04,438.16c4.07,0.63,6.17,8.63,4.7,17.83c-1.45,9.22-5.92,16.16-9.99,15.52
				c-4.05-0.65-6.17-8.63-4.69-17.85C248.51,444.45,253,437.51,257.04,438.16z"/>
			<polygon fill="#FFFFFE" stroke="#000000" stroke-width="3" stroke-linecap="round" stroke-linejoin="round" stroke-miterlimit="10"  points="252.17,259.96 256.33,271.3 251.81,281.05 242.92,279.5 231.05,287.87 226.41,270.51 
				231.33,252.1 241.85,260.88 			"/>
			<polygon fill="#FFFFFE" stroke="#000000" stroke-width="3" stroke-linecap="round" stroke-linejoin="round" stroke-miterlimit="10"  points="241.6,40.01 252.61,52.84 239.78,63.85 228.78,51.02 			"/>
			<polygon fill="#FFFFFE" stroke="#000000" stroke-width="3" stroke-linecap="round" stroke-linejoin="round" stroke-miterlimit="10"  points="249.07,251.49 252.17,259.96 241.85,260.88 231.33,252.1 232.25,248.66 235.63,245.26 			"/>
			<polygon fill="#FFFFFE" stroke="#000000" stroke-width="3" stroke-linecap="round" stroke-linejoin="round" stroke-miterlimit="10"  points="251.81,281.05 247.44,290.46 234.96,295.05 232.25,292.34 231.05,287.87 242.92,279.5 			"/>
			<path fill="#FFFFFE" stroke="#000000" stroke-width="3" stroke-linecap="round" stroke-linejoin="round" stroke-miterlimit="10"  d="M226.29,355.35l-8.64-5.14l-1.02-0.78l-5.74-9.05l-0.93-11.03l24.23,0.44l13.2,21.77l-10.13,4.48
				L226.29,355.35z M221.07,349.21l5.66,2.3l5.75-2.3l2.34-5.71l-2.34-5.65l-5.75-2.38l-5.66,2.38l-2.35,5.65L221.07,349.21z"/>
			<path fill="#FFFFFE" stroke="#000000" stroke-width="3" stroke-linecap="round" stroke-linejoin="round" stroke-miterlimit="10"  d="M243.81,80.96c2.02,3.49,0.83,7.98-2.68,10c-3.5,2.03-7.99,0.82-10-2.68c-2.02-3.49-0.83-7.98,2.68-10
				C237.31,76.25,241.78,77.46,243.81,80.96z"/>
			<polygon fill="#FFFFFE" stroke="#000000" stroke-width="3" stroke-linecap="round" stroke-linejoin="round" stroke-miterlimit="10"  points="237.22,210.11 237.17,210.17 236.68,209.76 249.16,188.97 271.45,201.22 292.65,189.47 
				305.83,211.21 305.73,211.76 285.5,208.25 270.74,218.65 258.25,208.23 			"/>
			<polygon fill="#FFFFFE" stroke="#000000" stroke-width="3" stroke-linecap="round" stroke-linejoin="round" stroke-miterlimit="10"  points="237.17,210.17 223.71,226.31 225.34,244.3 210.06,249.91 201.18,269.07 200.86,269.06 
				189.09,247.81 210.85,234.6 211.25,210.32 236.68,209.76 			"/>
			<polygon fill="#FFFFFE" stroke="#000000" stroke-width="3" stroke-linecap="round" stroke-linejoin="round" stroke-miterlimit="10"  points="233.11,189.86 236.82,194.72 236.05,200.8 231.11,204.6 225.05,203.82 221.26,198.91 
				222.15,192.79 226.97,189.02 			"/>
			<path fill="#FFFFFE" stroke="#000000" stroke-width="3" stroke-linecap="round" stroke-linejoin="round" stroke-miterlimit="10"  d="M223.85,443.09l12.28,62.16c-5.94-0.83-11.81-1.89-17.6-3.16c-27.91-6.11-54.01-17.08-77.36-31.97
				c-5.96-3.8-11.74-7.85-17.33-12.15l63.44-15.52l2.7,8.68l6.55,6.3l8.77,2.4l8.81-2.09l6.73-6.06L223.85,443.09z M196.04,481.22
				l-3.12-16.62l-16.61,3.12l3.12,16.62L196.04,481.22z"/>
			<polygon fill="#FFFFFE" stroke="#000000" stroke-width="3" stroke-linecap="round" stroke-linejoin="round" stroke-miterlimit="10"  points="235.63,245.26 232.25,248.66 231.33,252.1 225.61,247.33 225.34,244.3 229.92,242.62 			"/>
			<path fill="#FFFFFE" stroke="#000000" stroke-width="3" stroke-linecap="round" stroke-linejoin="round" stroke-miterlimit="10"  d="M235.16,146.59l-3.12,21.04l-8.99,19.2l0.06,0.14l-1.01,0.42l-2.77,2.13l-0.26-0.33l-21.19-1.28
				l-19.9-7.27l28.09-20.48L235.16,146.59z M217.7,182.64l3.77-12.77l-13.11-3.89l-3.75,12.8L217.7,182.64z"/>
			<polygon fill="#FFFFFE" stroke="#000000" stroke-width="3" stroke-linecap="round" stroke-linejoin="round" stroke-miterlimit="10"  points="234.96,295.05 227.59,297.76 224.83,296.48 225.66,291.67 231.05,287.87 232.25,292.34 			"/>
			<polygon fill="#FFFFFE" stroke="#000000" stroke-width="3" stroke-linecap="round" stroke-linejoin="round" stroke-miterlimit="10"  points="232.48,337.85 234.82,343.5 232.48,349.21 226.73,351.51 221.07,349.21 218.72,343.5 
				221.07,337.85 226.73,335.47 			"/>
			<polygon fill="#FFFFFE" stroke="#000000" stroke-width="3" stroke-linecap="round" stroke-linejoin="round" stroke-miterlimit="10"  points="222.05,312.52 234.19,329.79 209.96,329.35 209.4,303.93 188.63,291.41 200.86,269.06 
				201.18,269.07 208.45,288.9 224.83,296.48 			"/>
			<polygon fill="#FFFFFE" stroke="#000000" stroke-width="3" stroke-linecap="round" stroke-linejoin="round" stroke-miterlimit="10"  points="231.33,252.1 226.41,270.51 231.05,287.87 225.66,291.67 224.83,296.48 208.45,288.9 
				201.18,269.07 210.06,249.91 225.34,244.3 225.61,247.33 			"/>
			<polygon fill="#E00885" points="228.58,184.7 227.07,185.33 228.15,184.72 			"/>
			<polygon fill="#E00885" points="227.07,185.33 218.54,190.13 219.33,189.52 222.1,187.39 223.11,186.97 			"/>
			<polygon fill="#FFFFFE" stroke="#000000" stroke-width="3" stroke-linecap="round" stroke-linejoin="round" stroke-miterlimit="10"  points="226.29,355.35 237.26,356.04 247.39,351.56 253.71,360.59 263.14,365.57 245.22,363.22 
				225.37,354.99 222.1,353.63 221.27,352.99 217.65,350.21 			"/>
			<polygon fill="#FFFFFE" stroke="#000000" stroke-width="3" stroke-linecap="round" stroke-linejoin="round" stroke-miterlimit="10"  points="225.37,354.99 245.22,363.22 263.14,365.57 263.48,365.75 264.63,365.76 269,366.34 
				268.98,366.47 251.54,378.63 238.35,395.27 234.68,374.34 225.22,355.35 			"/>
			<path fill="#FFFFFE" stroke="#000000" stroke-width="3" stroke-linecap="round" stroke-linejoin="round" stroke-miterlimit="10"  d="M182,50.06l41.85,47.82l-17.78,62.28l-43.36-47.39L180.9,50.5C181.26,50.35,181.63,50.2,182,50.06z
				 M197.46,118.83c3.84-1.47,4.24-9.73,0.91-18.42c-3.34-8.72-9.16-14.59-12.98-13.12c-3.84,1.48-4.24,9.73-0.91,18.43
				C187.81,114.43,193.62,120.31,197.46,118.83z"/>
			<polygon fill="#FFFFFE" stroke="#000000" stroke-width="3" stroke-linecap="round" stroke-linejoin="round" stroke-miterlimit="10"  points="220.19,359.82 223.42,373.13 210.48,376.23 207.29,362.94 			"/>
			<path fill="#FFFFFE" stroke="#000000" stroke-width="3" stroke-linecap="round" stroke-linejoin="round" stroke-miterlimit="10"  d="M222.1,353.63l3.27,1.36l-0.15,0.36l9.46,18.99l3.67,20.93l-31.76-14.09l-26.28-18.47l19.75-7.81
				l21.13-1.81l0.08-0.1L222.1,353.63z M223.42,373.13l-3.23-13.31l-12.9,3.12l3.19,13.29L223.42,373.13z"/>
			<polygon fill="#FFFFFE" stroke="#000000" stroke-width="3" stroke-linecap="round" stroke-linejoin="round" stroke-miterlimit="10"  points="221.47,169.87 217.7,182.64 204.61,178.78 208.36,165.98 			"/>
			<polygon fill="#FFFFFE" stroke="#000000" stroke-width="3" stroke-linecap="round" stroke-linejoin="round" stroke-miterlimit="10"  points="219.07,189.19 219.33,189.52 218.54,190.13 218.53,190.14 202.28,202.62 191.31,216.94 
				190.93,217.18 190.26,218.32 187.69,221.68 187.6,221.61 185.74,200.41 177.98,180.64 197.88,187.91 			"/>
			<path fill="#FFFFFE" stroke="#000000" stroke-width="3" stroke-linecap="round" stroke-linejoin="round" stroke-miterlimit="10"  d="M218.54,190.13l8.53-4.8l1.51-0.63l10.59-0.4l9.99,4.67l-12.48,20.79l-25.43,0.56l1.23-10.96l6.05-9.22
				L218.54,190.13z M236.82,194.72l-3.71-4.86l-6.14-0.84l-4.82,3.77l-0.89,6.12l3.79,4.91l6.06,0.78l4.94-3.8L236.82,194.72z"/>
			<polygon fill="#FFFFFE" stroke="#000000" stroke-width="3" stroke-linecap="round" stroke-linejoin="round" stroke-miterlimit="10"  points="218.53,190.14 212.48,199.36 211.25,210.32 200.28,211.3 191.31,216.94 202.28,202.62 			"/>
			<polygon fill="#E00885" points="217.65,350.21 216.81,349.71 216.63,349.43 			"/>
			<polygon fill="#FFFFFE" stroke="#000000" stroke-width="3" stroke-linecap="round" stroke-linejoin="round" stroke-miterlimit="10"  points="214.02,391.94 217.12,404.69 215.49,417.66 209.4,429.25 199.56,437.9 187.28,442.45 
				206.59,381.18 			"/>
			<path fill="#FFFFFE" stroke="#000000" stroke-width="3" stroke-linecap="round" stroke-linejoin="round" stroke-miterlimit="10"  d="M211.25,210.32l-0.4,24.28l-21.76,13.21l-4.44-10.09l0.67-11.03v-0.01l0.01-0.02l4.93-8.34l1.05-1.38
				l8.97-5.64L211.25,210.32z M205.63,227.29l-2.37-5.66l-5.64-2.35l-5.73,2.35l-2.3,5.66l2.3,5.75l5.73,2.35l5.64-2.35
				L205.63,227.29z"/>
			<path fill="#FFFFFE" stroke="#000000" stroke-width="3" stroke-linecap="round" stroke-linejoin="round" stroke-miterlimit="10"  d="M205.3,440.44c4.04,0,7.32,3.28,7.32,7.33c0,4.05-3.28,7.33-7.32,7.33c-4.03,0-7.31-3.28-7.31-7.33
				C197.99,443.72,201.27,440.44,205.3,440.44z"/>
			<path fill="#FFFFFE" stroke="#000000" stroke-width="3" stroke-linecap="round" stroke-linejoin="round" stroke-miterlimit="10"  d="M189.8,322.06l-4.82-8.54l-0.63-1.53l-0.38-10.59l4.66-9.99l20.77,12.52l0.56,25.42l-10.99-1.19
				L189.8,322.06z M188.47,314.11l3.77,4.83l6.12,0.89l4.9-3.79l0.79-6.06l-3.8-4.93l-6.08-0.79l-4.86,3.72L188.47,314.11z"/>
			<path fill="#FFFFFE" stroke="#000000" stroke-width="3" stroke-linecap="round" stroke-linejoin="round" stroke-miterlimit="10"  d="M206.59,381.18l-19.31,61.27l-63.44,15.52c-0.18-0.14-0.37-0.28-0.55-0.42l20.58-60.68L206.59,381.18z
				 M170.16,427.01c5.87-7.24,8.03-15.22,4.84-17.8c-3.19-2.59-10.54,1.18-16.41,8.43c-5.87,7.25-8.04,15.22-4.85,17.8
				C156.95,438.04,164.29,434.25,170.16,427.01z"/>
			<path fill="#FFFFFE" stroke="#000000" stroke-width="3" stroke-linecap="round" stroke-linejoin="round" stroke-miterlimit="10"  d="M206.59,381.18l-62.72,15.69l-6.87,5.87l-8.85,1.9l-8.71-2.62l-6.37-6.41l-2.49-8.74l1.94-8.87
				l12.92,2.18l12.83-2.53l11.11-6.96l7.85-10.46l3.66-12.61l-1.04-13.08l20.46,28.17L206.59,381.18z M131.73,395.31
				c2.01-3.51,0.82-7.98-2.68-10.01c-3.51-2.02-7.99-0.83-10.01,2.68c-2.01,3.51-0.82,7.99,2.68,10.01
				C125.23,400.02,129.71,398.82,131.73,395.31z"/>
			<polygon fill="#FFFFFE" stroke="#000000" stroke-width="3" stroke-linecap="round" stroke-linejoin="round" stroke-miterlimit="10"  points="162.71,112.77 206.07,160.16 193.05,161.19 180.45,157.53 170.02,149.62 163.06,138.54 
				160.52,125.71 			"/>
			<path fill="#FFFFFE" stroke="#000000" stroke-width="3" stroke-linecap="round" stroke-linejoin="round" stroke-miterlimit="10"  d="M206.07,160.16l-28.09,20.48l-18.44,26.31l-15.67-62.82l-5.87-6.85l-1.91-8.91l2.63-8.69l6.45-6.39
				l8.67-2.52l8.87,2l-2.19,12.94l2.54,12.83l6.96,11.08l10.43,7.91l12.6,3.66L206.07,160.16z M155.28,129.46
				c2.02-3.49,0.82-7.98-2.68-9.99c-3.5-2.04-7.99-0.83-10.01,2.68c-2.03,3.49-0.82,7.98,2.68,9.99
				C148.78,134.18,153.25,132.97,155.28,129.46z"/>
			<polygon fill="#FFFFFE" stroke="#000000" stroke-width="3" stroke-linecap="round" stroke-linejoin="round" stroke-miterlimit="10"  points="203.26,221.63 205.63,227.29 203.26,233.04 197.62,235.39 191.89,233.04 189.59,227.29 
				191.89,221.63 197.62,219.28 			"/>
			<path fill="#FFFFFE" stroke="#000000" stroke-width="3" stroke-linecap="round" stroke-linejoin="round" stroke-miterlimit="10"  d="M205.3,455.1c4.04,0,7.32-3.28,7.32-7.33c0-4.05-3.28-7.33-7.32-7.33c-4.03,0-7.31,3.28-7.31,7.33
				C197.99,451.82,201.27,455.1,205.3,455.1z M270.33,398.08l-46.48,45.01l-3.01,8.59l-6.73,6.06l-8.81,2.09l-8.77-2.4l-6.55-6.3
				l-2.7-8.68l12.28-4.55l9.84-8.65l6.09-11.59l1.63-12.97l-3.1-12.75l-7.43-10.76l31.76,14.09L270.33,398.08z"/>
			<polygon fill="#FFFFFE" stroke="#000000" stroke-width="3" stroke-linecap="round" stroke-linejoin="round" stroke-miterlimit="10"  points="200.25,305.05 204.05,309.98 203.26,316.04 198.36,319.83 192.24,318.94 188.47,314.11 
				189.31,307.98 194.17,304.26 			"/>
			<path fill="#FFFFFE" stroke="#000000" stroke-width="3" stroke-linecap="round" stroke-linejoin="round" stroke-miterlimit="10"  d="M174.8,274.98l0.13-9.9l0.19-1.47l4.98-9.44l8.99-6.36l11.77,21.25l-12.23,22.35l-8.9-6.56L174.8,274.98z
				 M177.8,267.42l0.86,6.05l4.85,3.84l6.14-0.84l3.69-4.85l-0.8-6.18l-4.89-3.71l-6.06,0.79L177.8,267.42z"/>
			<path fill="#FFFFFE" stroke="#000000" stroke-width="3" stroke-linecap="round" stroke-linejoin="round" stroke-miterlimit="10"  d="M198.37,100.41c3.33,8.69,2.93,16.95-0.91,18.42c-3.84,1.48-9.65-4.4-12.98-13.11
				c-3.33-8.7-2.93-16.95,0.91-18.43C189.21,85.82,195.03,91.69,198.37,100.41z"/>
			
				<rect x="177.72" y="466.02" transform="matrix(-0.1845 -0.9828 0.9828 -0.1845 -245.7945 745.0055)" fill="#FFFFFE" stroke="#000000" stroke-width="3" stroke-linecap="round" stroke-linejoin="round" stroke-miterlimit="10"  width="16.91" height="16.9"/>
			<polygon fill="#FFFFFE" stroke="#000000" stroke-width="3" stroke-linecap="round" stroke-linejoin="round" stroke-miterlimit="10"  points="192.54,265.44 193.34,271.62 189.65,276.47 183.51,277.31 178.66,273.47 177.8,267.42 
				181.59,262.52 187.65,261.73 			"/>
			<polygon fill="#E00885" points="191.31,216.94 190.26,218.32 190.93,217.18 			"/>
			<polygon fill="#E00885" points="190.26,218.32 185.33,226.66 185.71,225.75 187.04,222.52 187.69,221.68 			"/>
			<polygon fill="#FFFFFE" stroke="#000000" stroke-width="3" stroke-linecap="round" stroke-linejoin="round" stroke-miterlimit="10"  points="189.8,322.06 198.97,328.16 209.96,329.35 210.89,340.38 216.63,349.43 202.28,338.4 
				189.17,321.28 187.04,318.5 186.64,317.54 184.98,313.52 			"/>
			<polygon fill="#FFFFFE" stroke="#000000" stroke-width="3" stroke-linecap="round" stroke-linejoin="round" stroke-miterlimit="10"  points="189.17,321.28 202.28,338.4 216.63,349.43 216.81,349.71 217.65,350.21 221.27,352.99 
				221.19,353.09 200.06,354.9 180.31,362.71 187.6,342.73 188.86,321.51 			"/>
			<polygon fill="#FFFFFE" stroke="#000000" stroke-width="3" stroke-linecap="round" stroke-linejoin="round" stroke-miterlimit="10"  points="184.65,237.72 189.09,247.81 180.1,254.17 175.12,263.61 177.48,245.68 185.32,226.69 			"/>
			<polygon fill="#FFFFFE" stroke="#000000" stroke-width="3" stroke-linecap="round" stroke-linejoin="round" stroke-miterlimit="10"  points="188.63,291.41 183.97,301.4 184.35,311.99 177.48,295.34 174.8,274.98 179.73,284.85 			"/>
			<path fill="#FFFFFE" stroke="#000000" stroke-width="3" stroke-linecap="round" stroke-linejoin="round" stroke-miterlimit="10"  d="M187.69,221.68l-0.65,0.84l-1.33,3.23l-0.39-0.16l-18.96,9.5l-20.91,3.7l14.09-31.84l18.44-26.31
				l7.76,19.77l1.86,21.2L187.69,221.68z M180.87,220.61l-3.12-12.95l-13.29,3.19l3.12,12.99L180.87,220.61z"/>
			<path fill="#FFFFFE" stroke="#000000" stroke-width="3" stroke-linecap="round" stroke-linejoin="round" stroke-miterlimit="10"  d="M187.04,318.5l2.13,2.78l-0.31,0.23l-1.26,21.22l-7.29,19.98l-20.46-28.17l-13.54-29.12l21.01,3.12
				l19.19,9.05l0.13-0.05L187.04,318.5z M178.47,336.05l3.83-13.13l-12.74-3.79l-3.89,13.17L178.47,336.05z"/>
			<polygon fill="#FFFFFE" stroke="#000000" stroke-width="3" stroke-linecap="round" stroke-linejoin="round" stroke-miterlimit="10"  points="185.32,226.68 185.32,226.69 177.48,245.68 175.12,263.61 174.94,263.95 174.93,265.08 
				174.34,269.5 174.21,269.48 162.08,252.01 145.45,238.79 166.36,235.09 185.32,225.59 185.71,225.75 185.33,226.66 			"/>
			<polygon fill="#E00885" points="184.98,313.52 184.37,312.43 184.35,311.99 			"/>
			<polygon fill="#FFFFFE" stroke="#000000" stroke-width="3" stroke-linecap="round" stroke-linejoin="round" stroke-miterlimit="10"  points="182.3,322.92 178.47,336.05 165.67,332.3 169.56,319.13 			"/>
			<path fill="#FFFFFE" stroke="#000000" stroke-width="3" stroke-linecap="round" stroke-linejoin="round" stroke-miterlimit="10"  d="M180.9,50.5l-18.19,62.27l-8.87-2l-8.67,2.52l-6.45,6.39l-2.63,8.69l1.91,8.91l5.87,6.85L82.75,123.3
				c3.84-4.79,7.86-9.43,12.06-13.91c19.13-20.44,41.85-37.55,67.13-50.32C168.11,55.95,174.43,53.09,180.9,50.5z M140.56,106.67
				l5.61-15.96l-15.95-5.61l-5.61,15.96L140.56,106.67z"/>
			<polygon fill="#FFFFFE" stroke="#000000" stroke-width="3" stroke-linecap="round" stroke-linejoin="round" stroke-miterlimit="10"  points="177.75,207.66 180.87,220.61 167.58,223.84 164.46,210.85 			"/>
			<path fill="#FFFFFE" stroke="#000000" stroke-width="3" stroke-linecap="round" stroke-linejoin="round" stroke-miterlimit="10"  d="M175,409.21c3.19,2.58,1.03,10.56-4.84,17.8c-5.87,7.24-13.21,11.03-16.42,8.43
				c-3.19-2.58-1.02-10.55,4.85-17.8C164.46,410.39,171.81,406.62,175,409.21z"/>
			<polygon fill="#E00885" points="174.94,263.95 175.12,263.61 174.93,265.08 			"/>
			<polygon fill="#E00885" points="174.93,265.08 174.8,274.98 174.67,273.98 174.21,270.51 174.34,269.5 			"/>
			<polygon fill="#FFFFFE" stroke="#000000" stroke-width="3" stroke-linecap="round" stroke-linejoin="round" stroke-miterlimit="10"  points="174.26,274.03 174.67,273.98 174.8,274.98 177.48,295.34 184.35,311.99 184.37,312.43 
				184.98,313.52 186.64,317.54 186.51,317.59 167.32,308.54 146.31,305.42 162.57,291.76 			"/>
			<path fill="#FFFFFE" stroke="#000000" stroke-width="3" stroke-linecap="round" stroke-linejoin="round" stroke-miterlimit="10"  d="M174.21,269.48l0.13,0.02l-0.13,1.01l0.46,3.47l-0.41,0.05l-11.69,17.73l-16.26,13.66l-3.66-34.59
				l2.8-32.04l16.63,13.22L174.21,269.48z M167.9,271.95l-9.17-9.63l-9.9,9.4l9.17,9.7L167.9,271.95z"/>
			<polygon fill="#FFFFFE" stroke="#000000" stroke-width="3" stroke-linecap="round" stroke-linejoin="round" stroke-miterlimit="10"  points="158.73,262.32 167.9,271.95 158,281.42 148.83,271.72 			"/>
			<polygon fill="#FFFFFE" stroke="#000000" stroke-width="3" stroke-linecap="round" stroke-linejoin="round" stroke-miterlimit="10"  points="159.85,334.54 160.89,347.62 157.23,360.23 149.38,370.69 138.27,377.65 125.44,380.18 
				112.52,378 			"/>
			<path fill="#FFFFFE" stroke="#000000" stroke-width="3" stroke-linecap="round" stroke-linejoin="round" stroke-miterlimit="10"  d="M146.31,305.42l13.54,29.12l-62.14-17.76l-8.9,1.61l-8.62-2.8L74,309l-2.31-8.77l2.17-8.82l6.14-6.7
				l10.07,8.37l12.39,4.2l13.09-0.45l12.06-5.12l9.45-9.08l5.59-11.8L146.31,305.42z M87.88,309.42c3.51-2.04,4.7-6.51,2.68-10.02
				c-2.03-3.5-6.5-4.7-10-2.68c-3.51,2.02-4.7,6.51-2.68,10.01C79.89,310.24,84.38,311.43,87.88,309.42z"/>
			<path fill="#FFFFFE" stroke="#000000" stroke-width="3" stroke-linecap="round" stroke-linejoin="round" stroke-miterlimit="10"  d="M159.85,334.54L112.52,378L49.1,359.42l48.61-42.64L159.85,334.54z M105.32,356.09
				c8.71-3.33,14.56-9.15,13.09-12.99c-1.47-3.84-9.71-4.25-18.42-0.92c-8.71,3.35-14.56,9.17-13.09,13
				C88.37,359.02,96.61,359.42,105.32,356.09z"/>
			<path fill="#FFFFFE" stroke="#000000" stroke-width="3" stroke-linecap="round" stroke-linejoin="round" stroke-miterlimit="10"  d="M143.87,144.13l15.67,62.82l-61.19-19.33l-15.63-64.28c0.01-0.01,0.02-0.03,0.03-0.04L143.87,144.13z
				 M131.38,175.45c2.59-3.19-1.18-10.54-8.43-16.41c-7.24-5.88-15.21-8.05-17.79-4.86c-2.59,3.19,1.19,10.54,8.43,16.41
				C120.83,176.46,128.8,178.64,131.38,175.45z"/>
			<path fill="#FFFFFE" stroke="#000000" stroke-width="3" stroke-linecap="round" stroke-linejoin="round" stroke-miterlimit="10"  d="M159.54,206.95l-14.09,31.84l-2.8,32.04l-44.94-46.59l-8.53-2.98l-6.06-6.78l-2.07-8.82l2.38-8.79
				l6.29-6.5l8.63-2.75l4.55,12.29l8.62,9.85l11.57,6.17l13,1.61l12.71-3.12L159.54,206.95z M100.17,205.76
				c0-4.05-3.28-7.33-7.33-7.33c-4.05,0-7.32,3.28-7.32,7.33c0,4.05,3.27,7.33,7.32,7.33C96.89,213.09,100.17,209.81,100.17,205.76z
				"/>
			<polygon fill="#FFFFFE" stroke="#000000" stroke-width="3" stroke-linecap="round" stroke-linejoin="round" stroke-miterlimit="10"  points="159.54,206.95 148.8,214.42 136.09,217.54 123.09,215.93 111.52,209.76 102.9,199.91 
				98.35,187.62 			"/>
			<path fill="#FFFFFE" stroke="#000000" stroke-width="3" stroke-linecap="round" stroke-linejoin="round" stroke-miterlimit="10"  d="M152.6,119.47c3.5,2.01,4.7,6.5,2.68,9.99c-2.03,3.51-6.5,4.72-10.01,2.68c-3.5-2.01-4.71-6.5-2.68-9.99
				C144.61,118.64,149.1,117.43,152.6,119.47z"/>
			
				<rect x="126.94" y="87.43" transform="matrix(0.3316 -0.9434 0.9434 0.3316 0.0329 191.8243)" fill="#FFFFFE" stroke="#000000" stroke-width="3" stroke-linecap="round" stroke-linejoin="round" stroke-miterlimit="10"  width="16.92" height="16.91"/>
			<path fill="#FFFFFE" stroke="#000000" stroke-width="3" stroke-linecap="round" stroke-linejoin="round" stroke-miterlimit="10"  d="M57.46,378.97c-3.28-6.27-6.28-12.71-8.99-19.29l0.63-0.26L112.52,378l-1.94,8.87l2.49,8.74l6.37,6.41
				l8.71,2.62l8.85-1.9l6.87-5.87l-20.58,60.68c-4.82-3.73-9.48-7.63-14-11.7C88.26,426.87,70.64,404.23,57.46,378.97z
				 M100.64,415.98l5.61-15.96l-15.95-5.61l-5.61,15.96L100.64,415.98z"/>
			<path fill="#FFFFFE" stroke="#000000" stroke-width="3" stroke-linecap="round" stroke-linejoin="round" stroke-miterlimit="10"  d="M97.71,224.24l44.94,46.59L80,284.71l-45.67-47.84L97.71,224.24z M102.45,257.54
				c0.64-4.07-6.29-8.54-15.5-10.01c-9.21-1.46-17.19,0.64-17.83,4.71c-0.65,4.05,6.29,8.52,15.49,10
				C93.82,263.69,101.8,261.59,102.45,257.54z"/>
			<polygon fill="#FFFFFE" stroke="#000000" stroke-width="3" stroke-linecap="round" stroke-linejoin="round" stroke-miterlimit="10"  points="142.65,270.83 137.06,282.63 127.61,291.71 115.55,296.83 102.46,297.28 90.07,293.08 80,284.71 
							"/>
			<path fill="#FFFFFE" stroke="#000000" stroke-width="3" stroke-linecap="round" stroke-linejoin="round" stroke-miterlimit="10"  d="M129.05,385.3c3.5,2.03,4.69,6.5,2.68,10.01c-2.02,3.51-6.5,4.71-10.01,2.68
				c-3.5-2.02-4.69-6.5-2.68-10.01C121.06,384.47,125.54,383.28,129.05,385.3z"/>
			<path fill="#FFFFFE" stroke="#000000" stroke-width="3" stroke-linecap="round" stroke-linejoin="round" stroke-miterlimit="10"  d="M122.95,159.04c7.25,5.87,11.02,13.22,8.43,16.41c-2.58,3.19-10.55,1.01-17.79-4.86
				c-7.24-5.87-11.02-13.22-8.43-16.41C107.74,150.99,115.71,153.16,122.95,159.04z"/>
			<path fill="#FFFFFE" stroke="#000000" stroke-width="3" stroke-linecap="round" stroke-linejoin="round" stroke-miterlimit="10"  d="M118.41,343.1c1.47,3.84-4.38,9.66-13.09,12.99c-8.71,3.33-16.95,2.93-18.42-0.91
				c-1.47-3.83,4.38-9.65,13.09-13C108.7,338.85,116.94,339.26,118.41,343.1z"/>
			<polygon fill="#FFFFFE" stroke="#000000" stroke-width="3" stroke-linecap="round" stroke-linejoin="round" stroke-miterlimit="10"  points="106.25,400.02 100.64,415.98 84.69,410.37 90.3,394.41 			"/>
			<path fill="#FFFFFE" stroke="#000000" stroke-width="3" stroke-linecap="round" stroke-linejoin="round" stroke-miterlimit="10"  d="M86.95,247.53c9.21,1.47,16.14,5.94,15.5,10.01c-0.65,4.05-8.63,6.15-17.84,4.7
				c-9.2-1.48-16.14-5.95-15.49-10C69.76,248.17,77.74,246.07,86.95,247.53z"/>
			<path fill="#FFFFFE" stroke="#000000" stroke-width="3" stroke-linecap="round" stroke-linejoin="round" stroke-miterlimit="10"  d="M92.84,198.43c4.05,0,7.33,3.28,7.33,7.33c0,4.05-3.28,7.33-7.33,7.33c-4.05,0-7.32-3.28-7.32-7.33
				C85.52,201.71,88.79,198.43,92.84,198.43z"/>
			<path fill="#FFFFFE" stroke="#000000" stroke-width="3" stroke-linecap="round" stroke-linejoin="round" stroke-miterlimit="10"  d="M70.05,140.7c3.97-5.98,8.2-11.77,12.67-17.36l15.63,64.28l-8.63,2.75l-6.29,6.5l-2.38,8.79l2.07,8.82
				l6.06,6.78l8.53,2.98l-63.38,12.63l-1.02-0.15c0.86-5.93,1.94-11.78,3.24-17.56C42.9,190.77,54.42,164.28,70.05,140.7z
				 M76.02,193.37l-3.12-16.62l-16.61,3.12l3.12,16.62L76.02,193.37z"/>
			<path fill="#FFFFFE" stroke="#000000" stroke-width="3" stroke-linecap="round" stroke-linejoin="round" stroke-miterlimit="10"  d="M31.25,257.35c0.38-6.96,1.07-13.84,2.06-20.63l1.02,0.15L80,284.71l-6.14,6.7l-2.17,8.82L74,309
				l6.19,6.59l8.62,2.8l8.9-1.61L49.1,359.42l-0.63,0.26c-2.26-5.5-4.33-11.11-6.17-16.82c-7.42-22.82-11.42-47.14-11.42-72.35
				C30.88,266.09,31,261.7,31.25,257.35z M63.47,300.74l-11.02-12.82l-12.83,11.01l11.02,12.84L63.47,300.74z"/>
			<path fill="#FFFFFE" stroke="#000000" stroke-width="3" stroke-linecap="round" stroke-linejoin="round" stroke-miterlimit="10"  d="M90.56,299.4c2.02,3.51,0.83,7.98-2.68,10.02c-3.5,2.01-7.99,0.82-10-2.69
				c-2.02-3.5-0.83-7.99,2.68-10.01C84.06,294.7,88.53,295.9,90.56,299.4z"/>
			
				<rect x="57.7" y="178.17" transform="matrix(-0.1845 -0.9828 0.9828 -0.1845 -105.0541 286.0807)" fill="#FFFFFE" stroke="#000000" stroke-width="3" stroke-linecap="round" stroke-linejoin="round" stroke-miterlimit="10"  width="16.91" height="16.9"/>
			<polygon fill="#FFFFFE" stroke="#000000" stroke-width="3" stroke-linecap="round" stroke-linejoin="round" stroke-miterlimit="10"  points="52.45,287.92 63.47,300.74 50.64,311.77 39.62,298.93 			"/>
		</g>
	</g>
</g>
</svg>
