<?xml version="1.0" encoding="utf-8"?>
<svg version="1.2" baseProfile="tiny" id="Layer_1" xmlns="http://www.w3.org/2000/svg" xmlns:xlink="http://www.w3.org/1999/xlink"
	 x="0px" y="0px" width="555.64px" height="555.92px" viewBox="0 0 555.64 555.92" xml:space="preserve">
<g>
	<g id="XMLID_1_">
		<g>
			<path fill="#FFFFFE" stroke="#000000" stroke-width="3" stroke-linecap="round" stroke-linejoin="round" stroke-miterlimit="10"  d="M269.04,439.08c20.89-6.33,38.21-19.31,43.69-37.05c37.71,22.96,67.47,19.35,87.75,3.63l0.49,0.63
				c15.82,60.1-42.48,120.68-85.09,142.95c-0.01,0-0.02,0.01-0.03,0C328.7,512.53,351.02,451.29,269.04,439.08L269.04,439.08z"/>
			<polygon fill="#FFFFFE" stroke="#000000" stroke-width="3" stroke-linecap="round" stroke-linejoin="round" stroke-miterlimit="10"  points="289.83,298.72 289.84,298.73 256.79,345.58 265.05,291.3 265.9,291.52 			"/>
			<path fill="#FFFFFE" stroke="#000000" stroke-width="3" stroke-linecap="round" stroke-linejoin="round" stroke-miterlimit="10"  d="M312.73,402.03c-16.24-23.86-32.05-45.62-55.94-56.45l33.05-46.85l48.25,23.19l0.12,0.12
				C322.35,337.99,312.39,362.18,312.73,402.03z M310.1,358.06c2.57-3.54,1.77-8.51-1.77-11.08c-3.54-2.57-8.51-1.8-11.08,1.74
				c-2.57,3.57-1.8,8.51,1.77,11.11C302.56,362.41,307.5,361.61,310.1,358.06z"/>
			<polygon fill="#FFFFFE" stroke="#000000" stroke-width="3" stroke-linecap="round" stroke-linejoin="round" stroke-miterlimit="10"  points="304.88,277.83 338.09,321.92 289.84,298.73 303.51,279.35 			"/>
			<path fill="#FFFFFE" stroke="#000000" stroke-width="3" stroke-linecap="round" stroke-linejoin="round" stroke-miterlimit="10"  d="M308.33,346.98c3.54,2.57,4.34,7.54,1.77,11.08c-2.6,3.55-7.54,4.35-11.08,1.77
				c-3.57-2.6-4.34-7.54-1.77-11.11C299.82,345.18,304.79,344.41,308.33,346.98z"/>
			<polygon fill="#FFFFFE" stroke="#000000" stroke-width="3" stroke-linecap="round" stroke-linejoin="round" stroke-miterlimit="10"  points="264.44,210.83 288.5,255.79 264.9,263.78 			"/>
			<path fill="#FFFFFE" stroke="#000000" stroke-width="3" stroke-linecap="round" stroke-linejoin="round" stroke-miterlimit="10"  d="M263.07,105.98c25.63-0.78,51.83,13.8,68.85,54.54c-23.5,32.97-45.55,46.79-67.48,50.31
				c-25.47,4.1-50.79-5.68-78.08-15.48c-7-20.53,2.74-44.69,20.42-62.72C221.67,117.45,242.18,106.62,263.07,105.98z M264.53,159.43
				l16.76-19.4l-25.1,6.29l-13.51-21.37l-1.91,25.2l-25.11,6.23l23.91,9.28l-2.03,25.2l16.7-19.48l23.85,9.37L264.53,159.43z"/>
			<path fill="#FFFFFE" stroke="#000000" stroke-width="3" stroke-linecap="round" stroke-linejoin="round" stroke-miterlimit="10"  d="M264.44,210.83c21.93-3.52,43.98-17.34,67.48-50.31c-0.86,28.38-2.29,54.97,8.7,77.63c0,0,0,0,0,0.01
				l-52.12,17.63L264.44,210.83z M313.13,212.72c4.17-1.34,6.45-5.83,5.08-10c-1.34-4.17-5.82-6.43-9.99-5.09
				c-4.17,1.35-6.46,5.83-5.08,10C304.48,211.81,308.96,214.09,313.13,212.72z"/>
			<polygon fill="#FFFFFE" stroke="#000000" stroke-width="3" stroke-linecap="round" stroke-linejoin="round" stroke-miterlimit="10"  points="304.88,277.83 303.51,279.35 289.84,298.73 289.83,298.72 265.9,291.52 265.05,291.3 
				265.13,290.75 264.9,263.78 288.5,255.79 289.06,256.83 			"/>
			<polygon fill="#FFFFFE" stroke="#000000" stroke-width="3" stroke-linecap="round" stroke-linejoin="round" stroke-miterlimit="10"  points="340.62,238.16 304.88,277.83 289.06,256.83 288.5,255.79 			"/>
			<path fill="#FFFFFE" stroke="#000000" stroke-width="3" stroke-linecap="round" stroke-linejoin="round" stroke-miterlimit="10"  d="M318.21,202.72c1.37,4.17-0.91,8.66-5.08,10c-4.17,1.37-8.65-0.91-9.99-5.09
				c-1.38-4.17,0.91-8.65,5.08-10C312.39,196.29,316.87,198.55,318.21,202.72z"/>
			<path fill="#FFFFFE" stroke="#000000" stroke-width="3" stroke-linecap="round" stroke-linejoin="round" stroke-miterlimit="10"  d="M256.79,345.58c23.89,10.83,39.7,32.59,55.94,56.45c-5.48,17.74-22.8,30.72-43.69,37.05
				c-24.25,7.35-53.31,5.72-74.19-7.85c-21.54-13.99-34.39-40.68-24.31-83.31C209.13,335,236.01,336.16,256.79,345.58z
				 M252.25,394.78l16.42-19.2l-24.94,5.94l-13.79-21.63l-1.54,25.23l-24.96,5.86l23.99,9.65l-1.63,25.23l16.36-19.25l23.96,9.74
				L252.25,394.78z"/>
			<path fill="#FFFFFE" stroke="#000000" stroke-width="3" stroke-linecap="round" stroke-linejoin="round" stroke-miterlimit="10"  d="M340.62,238.16c9.9,20.4,29.87,37.62,69.41,50.1c-27.27,7.89-53.49,15.33-71.82,33.78l-0.12-0.12
				l-33.21-44.09L340.62,238.16z M365.65,288.26c3.54-2.57,4.34-7.54,1.77-11.08c-2.57-3.55-7.54-4.35-11.08-1.77
				c-3.54,2.57-4.34,7.54-1.77,11.08S362.11,290.83,365.65,288.26z"/>
			<path fill="#FFFFFE" stroke="#000000" stroke-width="3" stroke-linecap="round" stroke-linejoin="round" stroke-miterlimit="10"  d="M367.42,277.18c2.57,3.54,1.77,8.51-1.77,11.08s-8.51,1.77-11.08-1.77s-1.77-8.51,1.77-11.08
				C359.88,272.83,364.85,273.63,367.42,277.18z"/>
			<path fill="#FFFFFE" stroke="#000000" stroke-width="3" stroke-linecap="round" stroke-linejoin="round" stroke-miterlimit="10"  d="M440.58,205.88c8.67,24.15,2.91,53.59-30.55,82.38c-39.54-12.48-59.51-29.7-69.41-50.1l0.01-0.01h-0.01
				c-10.99-22.66-9.56-49.25-8.7-77.63c15.77-11.83,38.68-11.42,59.69-2.8C413.18,166.56,432.76,184.07,440.58,205.88z
				 M400.12,211.81l16.13-19.46l-24.56,5.97l-13.65-21.97l-1.46,25.6l-24.55,5.88l23.64,9.86l-1.54,25.6l16.08-19.51l23.64,9.94
				L400.12,211.81z"/>
			<path fill="#FFFFFE" stroke="#000000" stroke-width="3" stroke-linecap="round" stroke-linejoin="round" stroke-miterlimit="10"  d="M431.33,340.66c36.92-74.24,85.98-43.29,116.9-19.72c-18.75,118.2-113.53,211.64-232.35,228.3
				c42.61-22.27,100.91-82.85,85.09-142.95l-0.49-0.63C419.71,390.76,430.43,364.98,431.33,340.66L431.33,340.66z M487.33,432.95
				c12.28-16.89,13.45-36.94,2.66-44.8c-10.8-7.86-29.5-0.54-41.78,16.34c-12.25,16.92-13.45,36.95-2.63,44.8
				C456.37,457.15,475.08,449.83,487.33,432.95z"/>
			<path fill="#FFFFFE" stroke="#000000" stroke-width="3" stroke-linecap="round" stroke-linejoin="round" stroke-miterlimit="10"  d="M410.03,288.26c15.27,10.76,22.07,31.02,21.29,52.4c-0.89,24.32-11.61,50.1-30.84,65
				c-20.28,15.72-50.04,19.33-87.75-3.63c-0.34-39.85,9.62-64.04,25.48-79.99C356.54,303.59,382.76,296.15,410.03,288.26z
				 M392.55,356.81l16.68-19.8l-24.79,6.54l-13.2-21.57l-2.05,25.57l-24.82,6.46l23.53,9.25l-2.17,25.57l16.59-19.85l23.51,9.34
				L392.55,356.81z"/>
			<path fill="#FFFFFE" stroke="#000000" stroke-width="3" stroke-linecap="round" stroke-linejoin="round" stroke-miterlimit="10"  d="M493.36,131.66c12.28,16.89,13.45,36.95,2.65,44.8c-10.82,7.83-29.5,0.52-41.78-16.37
				c-12.25-16.88-13.45-36.94-2.62-44.8C462.4,107.43,481.1,114.78,493.36,131.66z"/>
			<path fill="#FFFFFE" stroke="#000000" stroke-width="3" stroke-linecap="round" stroke-linejoin="round" stroke-miterlimit="10"  d="M548.23,320.94c-30.92-23.57-79.98-54.52-116.9,19.72h-0.01c0.78-21.38-6.02-41.64-21.29-52.4
				c33.46-28.79,39.22-58.23,30.55-82.38l0.77-0.27c61.98,3.48,98.88,67.87,106.88,115.3C548.23,320.92,548.23,320.93,548.23,320.94
				z"/>
			<path fill="#FFFFFE" stroke="#000000" stroke-width="3" stroke-linecap="round" stroke-linejoin="round" stroke-miterlimit="10"  d="M405.83,35.94c-48.01-4.55-121.33,13.96-142.79,69.21l0.03,0.83c-20.89,0.64-41.4,11.47-56.29,26.65
				c-73.5,38.32-101.09-15.8-112.26-53.05c-21.39,43.05-30.18,124.91,17.94,164.2h0.01c-7.78,23.45-2.63,50.89,9.78,71.71
				c13.74,81.8-46.69,83.09-85.56,82.17c34.33,33.69,105.5,67.89,157.7,34.26l0.46-0.69c20.88,13.57,49.94,15.2,74.19,7.85v0.01
				c81.98,12.2,59.66,73.44,46.81,110.15c-12.44,1.75-25.14,2.65-38.05,2.65c-150.78,0-273.77-123.06-273.77-273.94
				C4.03,127.09,127.02,4.03,277.8,4.03C324,4.03,367.59,15.58,405.83,35.94z M223.77,78.83c19.82-6.45,32.59-21.97,28.45-34.68
				c-4.11-12.72-23.56-17.77-43.41-11.32c-19.82,6.43-32.58,21.98-28.44,34.69C184.48,80.21,203.93,85.29,223.77,78.83z
				 M242.48,508.98c4.11-12.69-8.63-28.23-28.47-34.69c-19.82-6.43-39.27-1.37-43.38,11.34c-4.14,12.69,8.59,28.23,28.44,34.69
				S238.34,521.69,242.48,508.98z M75.3,273.03c0-20.82-10.85-37.8-24.18-37.8c-13.31,0-24.16,16.98-24.16,37.8
				c0,20.8,10.85,37.8,24.16,37.8C64.45,310.83,75.3,293.83,75.3,273.03z"/>
			<path fill="#FFFFFE" stroke="#000000" stroke-width="3" stroke-linecap="round" stroke-linejoin="round" stroke-miterlimit="10"  d="M489.99,388.15c10.79,7.86,9.62,27.91-2.66,44.8c-12.25,16.88-30.96,24.2-41.75,16.34
				c-10.82-7.85-9.62-27.88,2.63-44.8C460.49,387.61,479.19,380.29,489.99,388.15z"/>
			<path fill="#FFFFFE" stroke="#000000" stroke-width="3" stroke-linecap="round" stroke-linejoin="round" stroke-miterlimit="10"  d="M551.61,277.95c0,14.61-1.15,28.96-3.38,42.96c-8-47.43-44.9-111.82-106.88-115.3l-0.77,0.27
				c-7.82-21.81-27.4-39.32-48.97-48.16c-57.74-56.71-13.23-96.88,18.68-119.35C494.46,85.19,551.61,175.11,551.61,277.95z
				 M496.01,176.46c10.8-7.85,9.63-27.91-2.65-44.8c-12.26-16.88-30.96-24.23-41.75-16.37c-10.83,7.86-9.63,27.92,2.62,44.8
				C466.51,176.98,485.19,184.29,496.01,176.46z"/>
			<path fill="#FFFFFE" stroke="#000000" stroke-width="3" stroke-linecap="round" stroke-linejoin="round" stroke-miterlimit="10"  d="M51.12,235.23c13.33,0,24.18,16.98,24.18,37.8c0,20.8-10.85,37.8-24.18,37.8
				c-13.31,0-24.16-17-24.16-37.8C26.96,252.21,37.81,235.23,51.12,235.23z"/>
			<path fill="#FFFFFE" stroke="#000000" stroke-width="3" stroke-linecap="round" stroke-linejoin="round" stroke-miterlimit="10"  d="M211.42,277.46c-5.27,26-23.32,47.79-40.88,70.46c-19.31,0.29-36.87-13.27-48.29-32.43
				c-12.41-20.82-17.56-48.26-9.78-71.71c8.17-24.64,30.61-44.88,73.89-48.43C210.75,228.32,216.06,254.52,211.42,277.46z
				 M172.68,272.63l16.31-19.82l-24.47,6.34l-13.28-21.94l-1.77,25.82l-24.48,6.23l23.36,9.63l-1.85,25.8l16.22-19.88l23.33,9.71
				L172.68,272.63z"/>
			<path fill="#FFFFFE" stroke="#000000" stroke-width="3" stroke-linecap="round" stroke-linejoin="round" stroke-miterlimit="10"  d="M122.25,315.49c11.42,19.16,28.98,32.72,48.29,32.43c-10.08,42.63,2.77,69.32,24.31,83.31l-0.46,0.69
				c-52.2,33.63-123.37-0.57-157.7-34.26C75.56,398.58,135.99,397.29,122.25,315.49z"/>
			<path fill="#FFFFFE" stroke="#000000" stroke-width="3" stroke-linecap="round" stroke-linejoin="round" stroke-miterlimit="10"  d="M206.78,132.63c-17.68,18.03-27.42,42.19-20.42,62.72c-43.28,3.55-65.72,23.79-73.89,48.43h-0.01
				c-48.12-39.29-39.33-121.15-17.94-164.2C105.69,116.83,133.28,170.95,206.78,132.63z"/>
			<path fill="#FFFFFE" stroke="#000000" stroke-width="3" stroke-linecap="round" stroke-linejoin="round" stroke-miterlimit="10"  d="M220.38,313.43c4.17,1.35,6.45,5.83,5.11,10c-1.37,4.18-5.83,6.43-10,5.09c-4.17-1.34-6.45-5.83-5.11-10
				C211.75,314.35,216.21,312.06,220.38,313.43z"/>
			<path fill="#FFFFFE" stroke="#000000" stroke-width="3" stroke-linecap="round" stroke-linejoin="round" stroke-miterlimit="10"  d="M264.44,210.83l0.46,52.95l-53.48,13.68c4.64-22.94-0.67-49.14-25.06-82.11
				C213.65,205.15,238.97,214.93,264.44,210.83z M230.2,229.38c0-4.37-3.57-7.95-7.94-7.95s-7.94,3.58-7.94,7.95
				c0,4.37,3.57,7.94,7.94,7.94S230.2,233.75,230.2,229.38z"/>
			<path fill="#FFFFFE" stroke="#000000" stroke-width="3" stroke-linecap="round" stroke-linejoin="round" stroke-miterlimit="10"  d="M222.26,221.43c4.37,0,7.94,3.58,7.94,7.95c0,4.37-3.57,7.94-7.94,7.94s-7.94-3.57-7.94-7.94
				C214.32,225.01,217.89,221.43,222.26,221.43z"/>
			<path fill="#FFFFFE" stroke="#000000" stroke-width="3" stroke-linecap="round" stroke-linejoin="round" stroke-miterlimit="10"  d="M214.01,474.29c19.84,6.46,32.58,22,28.47,34.69c-4.14,12.71-23.56,17.8-43.41,11.34
				s-32.58-22-28.44-34.69C174.74,472.92,194.19,467.86,214.01,474.29z"/>
			<path fill="#FFFFFE" stroke="#000000" stroke-width="3" stroke-linecap="round" stroke-linejoin="round" stroke-miterlimit="10"  d="M170.54,347.92c17.56-22.67,35.61-44.46,40.88-70.46l53.63,13.84l-8.26,54.28
				C236.01,336.16,209.13,335,170.54,347.92z M225.49,323.43c1.34-4.17-0.94-8.65-5.11-10c-4.17-1.37-8.63,0.92-10,5.09
				c-1.34,4.17,0.94,8.66,5.11,10C219.66,329.86,224.12,327.61,225.49,323.43z"/>
			<path fill="#FFFFFE" stroke="#000000" stroke-width="3" stroke-linecap="round" stroke-linejoin="round" stroke-miterlimit="10"  d="M252.22,44.15c4.14,12.71-8.63,28.23-28.45,34.68c-19.84,6.46-39.29,1.38-43.4-11.31
				c-4.14-12.71,8.62-28.26,28.44-34.69C228.66,26.38,248.11,31.43,252.22,44.15z"/>
			<polygon fill="#FFFFFE" stroke="#000000" stroke-width="3" stroke-linecap="round" stroke-linejoin="round" stroke-miterlimit="10"  points="264.9,263.78 265.13,290.75 265.05,291.3 211.42,277.46 			"/>
			<path fill="#FFFFFE" stroke="#000000" stroke-width="3" stroke-linecap="round" stroke-linejoin="round" stroke-miterlimit="10"  d="M331.92,160.52c-17.02-40.74-43.22-55.32-68.85-54.54l-0.03-0.83c21.46-55.25,94.78-73.76,142.79-69.21
				c1.49,0.79,2.98,1.6,4.46,2.43c-31.91,22.47-76.42,62.64-18.68,119.35C370.6,149.1,347.69,148.69,331.92,160.52z"/>
			<polygon fill="#FFFFFE" stroke="#000000" stroke-width="3" stroke-linecap="round" stroke-linejoin="round" stroke-miterlimit="10"  points="416.25,192.35 400.12,211.81 413.85,233.72 390.21,223.78 374.13,243.29 375.67,217.69 
				352.03,207.83 376.58,201.95 378.04,176.35 391.69,198.32 			"/>
			<polygon fill="#FFFFFE" stroke="#000000" stroke-width="3" stroke-linecap="round" stroke-linejoin="round" stroke-miterlimit="10"  points="409.23,337.01 392.55,356.81 405.83,378.32 382.32,368.98 365.73,388.83 367.9,363.26 
				344.37,354.01 369.19,347.55 371.24,321.98 384.44,343.55 			"/>
			<polygon fill="#FFFFFE" stroke="#000000" stroke-width="3" stroke-linecap="round" stroke-linejoin="round" stroke-miterlimit="10"  points="281.29,140.03 264.53,159.43 278.09,180.75 254.24,171.38 237.54,190.86 239.57,165.66 
				215.66,156.38 240.77,150.15 242.68,124.95 256.19,146.32 			"/>
			<polygon fill="#FFFFFE" stroke="#000000" stroke-width="3" stroke-linecap="round" stroke-linejoin="round" stroke-miterlimit="10"  points="268.67,375.58 252.25,394.78 266.12,416.35 242.16,406.61 225.8,425.86 227.43,400.63 
				203.44,390.98 228.4,385.12 229.94,359.89 243.73,381.52 			"/>
			<polygon fill="#FFFFFE" stroke="#000000" stroke-width="3" stroke-linecap="round" stroke-linejoin="round" stroke-miterlimit="10"  points="188.99,252.81 172.68,272.63 186.05,294.52 162.72,284.81 146.5,304.69 148.35,278.89 
				124.99,269.26 149.47,263.03 151.24,237.21 164.52,259.15 			"/>
		</g>
	</g>
</g>
</svg>
