<?xml version="1.0" encoding="utf-8"?>
<!-- Generator: Adobe Illustrator 13.0.0, SVG Export Plug-In . SVG Version: 6.00 Build 14948)  -->
<svg version="1.2" baseProfile="tiny" id="Layer_1" xmlns="http://www.w3.org/2000/svg" xmlns:xlink="http://www.w3.org/1999/xlink"
	 x="0px" y="0px" width="420.83px" height="421.46px" viewBox="0 0 420.83 421.46" xml:space="preserve">
<g>
	
		<path fill-rule="evenodd" fill="#FFFFFF" stroke="#000000" stroke-width="4.0286" stroke-linecap="round" stroke-linejoin="round" stroke-miterlimit="10" d="
		M210.42,419.44c114.79,0,208.4-93.75,208.4-208.71S325.21,2.01,210.42,2.01S2.01,95.76,2.01,210.73S95.62,419.44,210.42,419.44
		L210.42,419.44z"/>
	
		<path fill-rule="evenodd" fill="#FFFFFF" stroke="#000000" stroke-width="1.5143" stroke-linecap="round" stroke-linejoin="round" stroke-miterlimit="10" d="
		M210.7,267.3c31.09,0,56.48-25.4,56.48-56.5c0-31.13-25.38-56.5-56.48-56.5c-31.12,0-56.48,25.37-56.48,56.5
		C154.22,241.91,179.58,267.3,210.7,267.3L210.7,267.3z"/>
	
		<polygon fill-rule="evenodd" fill="#FFFFFF" stroke="#000000" stroke-width="1.5143" stroke-linecap="round" stroke-linejoin="round" stroke-miterlimit="10" points="
		221.81,184.31 229.48,192.21 237.15,200.12 236.96,211.12 236.8,222.13 228.92,229.8 221.02,237.48 210.02,237.29 199.02,237.13 
		191.35,229.24 183.68,221.34 183.84,210.33 184.01,199.32 191.91,191.65 199.81,183.98 210.81,184.14 	"/>
	
		<path fill-rule="evenodd" fill="#FFFFFF" stroke="#000000" stroke-width="1.5143" stroke-linecap="round" stroke-linejoin="round" stroke-miterlimit="10" d="
		M210.7,252.87c23.17,0,42.05-18.89,42.05-42.07c0-23.18-18.88-42.09-42.05-42.09c-23.17,0-42.07,18.91-42.07,42.09
		C168.62,233.98,187.53,252.87,210.7,252.87L210.7,252.87z"/>
	
		<path fill-rule="evenodd" fill="#FFFFFF" stroke="#000000" stroke-width="1.5143" stroke-linecap="round" stroke-linejoin="round" stroke-miterlimit="10" d="
		M220.02,22.89c2.59-1.73,5.38-3.12,8.53-1.96c5.34,1.98,4.96,10.31,8.09,14.09c0.79,1,0.82,1.75,1.4,2.33
		c0-0.23,2.56-0.33,3.29,0.23c1.86,1.35,0.82,6.6,4.52,3.17c-0.7,3.71-3.89,1.49-6.25,1.4c-2.35-0.09-3.36,0.72-5.59-0.26
		c-0.7-0.3-0.33-2.52-0.86-3.03c-0.58-0.56-1.47,0.51-1.84,0.19c-0.26-0.26-2.28-2.68-2.15-2.68c-1.38-0.54-2.14,1.75-3.73,0.16
		c-2.8-2.8,0.37-6.79-3.89-7.95l-1.84-0.91c-1.63,0.89,0.93,4.06,1.51,4.85c2.12,2.73,3.82,5.01,6.2,6.6
		c0.61,0.4,2.94,1.21,4.24,2.15c1.63,1.21,3.45,2.71,4.73,4.29c1.75,2.12-0.21,4.94-3.12,5.22c0.35-4.9,0.61-4.69-4.01-7.91
		c-1.56-1.12-5.5-1.82-7.53-2.59c0.68,2.4,4.24,2.87,6.81,4.78c1,0.75,2.84,5.34,1.98,6.39c-2.61,3.15-6.39-0.68-4.03-1.68
		c4.73-2.03-10.91-8.4-11.44-8.7c-5.87-3.29-10.19,1.54-16.76,2.35c-2.68,0.33-7.62-1.7-9.74-0.26c-2.33,1.56-1.38,5.69-1.75,7.25
		c-0.37,1.54,1.63,1.94-0.77,3.08c-1.26,0.58-2-0.68-2-1.91c0-1.21,0.61-3.68,1.03-5.18c0.7-2.43,1.98-3.66,0.42-5.83
		c-1.4-1.94-3.05-2.31-4.8-0.91c-2.77,2.19-1.05,4.83-1.61,6.18c-0.56,1.33-3.31,3.26-2.42,0.21c0.82-2.89-0.42-7.37,2.68-9.56
		c2.84-2.03,5.76,0.44,8.62,0.58c-1.72-2.24-0.26-5.25-0.07-7.86c0.07-1.24,0.37-7.09-0.33-7.74c-1.89-1.75-2.8,0.93-4.52,0.58
		c-5.73-1.12,0.72-3.75-0.14-7.53c-0.49-2.22-4.52-3.22-5.92-4.66c0.47-1.03,4.24,1.4,6.2,2.33c1.68-0.26,3.01-0.28,4.52-1.05
		c-0.14,0.4-0.44,0.98-0.63,1.35c0.82-0.61,2.17-1.47,2.98-2.63c-0.3,0.51-0.89,2.4-1.35,3.17c3.94-2.8,4.08,2.59,7.6,1.21
		c-0.93,0.49-1.77,1.35-2.42,1.77c1.42-0.35,3.03-0.58,4.29-1.28c-5.22,3.92,2.61,4.94,3.71,6.25c-3.17-0.93-1.26,4.29,2.84,1.77
		c-1.7,1.31-2.35,2.96-0.72,4.59c2.52,2.52,6.32-1.12,9.14-1.77C218.32,24.38,215.61,25.8,220.02,22.89L220.02,22.89z"/>
	
		<path fill-rule="evenodd" fill="#FFFFFF" stroke="#000000" stroke-width="1.5143" stroke-linecap="round" stroke-linejoin="round" stroke-miterlimit="10" d="
		M84.48,71.34c0.61-3.08,1.61-6.04,4.64-7.44c5.17-2.38,10.82,3.75,15.69,4.24c1.26,0.14,1.79,0.65,2.61,0.65
		c-0.14-0.16,1.61-2.03,2.52-2.17c2.26-0.37,5.22,4.1,5.43-0.96c2.14,3.13-1.7,3.82-3.43,5.41c-1.73,1.61-1.86,2.89-4.15,3.78
		c-0.7,0.28-1.98-1.54-2.75-1.54c-0.79,0.02-0.65,1.42-1.14,1.45c-0.37,0-3.54-0.28-3.43-0.37c-1.35,0.58-0.28,2.75-2.52,2.75
		c-3.96,0-4.54-5.06-8.37-2.89l-1.96,0.68c-0.51,1.77,3.52,2.22,4.52,2.36c3.43,0.44,6.25,0.84,9.02,0.28
		c0.72-0.14,2.94-1.21,4.52-1.47c2.03-0.3,4.36-0.56,6.39-0.33c2.73,0.26,3.36,3.64,1.47,5.9c-3.22-3.71-2.87-3.73-8.41-2.75
		c-1.89,0.33-5.17,2.61-7.16,3.5c2.19,1.24,5.03-0.98,8.2-1.45c1.21-0.19,5.78,1.77,5.9,3.13c0.4,4.08-4.96,4.03-4.03,1.66
		c1.91-4.78-13.64,1.77-14.24,1.96c-6.48,1.84-6.11,8.3-10.16,13.53c-1.68,2.12-6.62,4.17-7.09,6.69c-0.54,2.75,3.05,4.99,3.89,6.39
		c0.82,1.35,2.52,0.21,1.61,2.71c-0.47,1.33-1.89,0.93-2.75,0.07s-2.19-3.03-2.94-4.38c-1.21-2.22-1.19-3.99-3.82-4.43
		c-2.35-0.37-3.8,0.54-4.03,2.75c-0.4,3.52,2.68,4.15,3.22,5.53c0.56,1.33-0.02,4.64-1.56,1.87c-1.45-2.64-5.5-4.92-4.85-8.67
		c0.56-3.43,4.38-3.75,6.5-5.67c-2.82-0.37-3.89-3.54-5.62-5.53c-0.82-0.93-4.73-5.27-5.71-5.25c-2.54,0.09-1.31,2.64-2.77,3.61
		c-4.83,3.26-2.14-3.15-5.41-5.22c-1.91-1.21-5.45,0.93-7.48,0.89c-0.4-1.05,3.99-2.03,6.01-2.73c1.03-1.38,1.94-2.33,2.47-3.94
		c0.16,0.37,0.37,1,0.51,1.4c0.16-1,0.49-2.59,0.23-3.96c0.16,0.56,1.07,2.31,1.31,3.19c0.82-4.78,4.71-1.05,6.22-4.52
		c-0.33,1-0.3,2.21-0.47,2.96c0.75-1.24,1.72-2.54,2.12-3.94c-0.93,6.46,5.34,1.66,7.04,1.8c-2.89,1.59,2.14,3.92,3.26-0.75
		c-0.28,2.12,0.42,3.75,2.75,3.75c3.54,0,3.66-5.27,5.2-7.72C84.34,73.58,83.43,76.5,84.48,71.34L84.48,71.34z"/>
	
		<path fill-rule="evenodd" fill="#FFFFFF" stroke="#000000" stroke-width="1.5143" stroke-linecap="round" stroke-linejoin="round" stroke-miterlimit="10" d="
		M22.88,201.47c-1.75-2.61-3.12-5.41-1.96-8.54c1.98-5.34,10.3-4.99,14.08-8.09c0.98-0.79,1.75-0.82,2.31-1.4
		c-0.21,0-0.3-2.56,0.26-3.31c1.33-1.87,6.6-0.79,3.17-4.52c3.71,0.7,1.49,3.92,1.4,6.27c-0.09,2.35,0.72,3.36-0.26,5.6
		c-0.3,0.7-2.52,0.33-3.05,0.86c-0.54,0.58,0.54,1.47,0.21,1.82c-0.26,0.26-2.68,2.31-2.68,2.17c-0.54,1.38,1.75,2.12,0.16,3.71
		c-2.8,2.8-6.81-0.35-7.95,3.89l-0.91,1.87c0.89,1.61,4.06-0.93,4.85-1.54c2.73-2.12,5.01-3.82,6.6-6.18
		c0.4-0.63,1.19-2.94,2.14-4.24c1.21-1.66,2.7-3.47,4.29-4.76c2.12-1.73,4.94,0.21,5.22,3.13c-4.89-0.35-4.69-0.58-7.9,4.01
		c-1.12,1.59-1.82,5.53-2.59,7.56c2.4-0.68,2.87-4.27,4.78-6.81c0.72-1.03,5.34-2.87,6.39-1.98c3.15,2.59-0.68,6.37-1.68,4.01
		c-2.03-4.71-8.39,10.91-8.69,11.47c-3.29,5.88,1.54,10.19,2.35,16.74c0.33,2.68-1.72,7.63-0.26,9.77c1.56,2.31,5.69,1.35,7.25,1.75
		c1.54,0.37,1.93-1.63,3.08,0.77c0.58,1.26-0.7,1.98-1.91,1.98c-1.21,0-3.68-0.58-5.17-1c-2.42-0.7-3.68-1.98-5.83-0.44
		c-1.93,1.4-2.31,3.06-0.91,4.83c2.19,2.75,4.83,1.03,6.18,1.61c1.33,0.54,3.26,3.29,0.21,2.43c-2.89-0.82-7.37,0.4-9.56-2.71
		c-2.03-2.82,0.44-5.76,0.58-8.61c-2.24,1.73-5.24,0.23-7.88,0.07c-1.21-0.09-7.06-0.4-7.74,0.33c-1.73,1.87,0.96,2.8,0.61,4.52
		c-1.12,5.71-3.75-0.72-7.53,0.12c-2.21,0.51-3.22,4.52-4.66,5.92c-1.03-0.47,1.4-4.24,2.33-6.18c-0.26-1.7-0.28-3.01-1.05-4.52
		c0.4,0.14,0.98,0.42,1.35,0.61c-0.61-0.82-1.47-2.17-2.63-2.96c0.51,0.28,2.38,0.86,3.17,1.35c-2.8-3.96,2.59-4.08,1.21-7.6
		c0.49,0.93,1.35,1.77,1.75,2.4c-0.33-1.4-0.56-3.01-1.26-4.29c3.92,5.25,4.94-2.61,6.25-3.69c-0.93,3.17,4.27,1.26,1.77-2.87
		c1.31,1.73,2.94,2.35,4.59,0.72c2.52-2.5-1.14-6.3-1.77-9.12C24.37,203.17,25.79,205.88,22.88,201.47L22.88,201.47z"/>
	
		<path fill-rule="evenodd" fill="#FFFFFF" stroke="#000000" stroke-width="1.5143" stroke-linecap="round" stroke-linejoin="round" stroke-miterlimit="10" d="
		M71.29,337.08c-3.08-0.63-6.01-1.63-7.41-4.66c-2.38-5.18,3.75-10.8,4.24-15.67c0.14-1.26,0.65-1.82,0.65-2.63
		c-0.16,0.16-2.05-1.61-2.17-2.5c-0.37-2.29,4.08-5.25-0.96-5.46c3.12-2.12,3.82,1.7,5.41,3.45c1.61,1.73,2.89,1.84,3.78,4.13
		c0.28,0.72-1.54,2.01-1.54,2.77c0.02,0.79,1.42,0.65,1.44,1.14c0,0.35-0.28,3.52-0.37,3.43c0.58,1.33,2.75,0.26,2.75,2.52
		c0,3.94-5.08,4.55-2.89,8.37l0.68,1.96c1.77,0.51,2.21-3.54,2.35-4.52c0.42-3.43,0.84-6.25,0.28-9.05
		c-0.16-0.7-1.23-2.91-1.47-4.52c-0.3-2.01-0.56-4.34-0.33-6.37c0.26-2.73,3.64-3.36,5.87-1.49c-3.68,3.22-3.71,2.89-2.73,8.42
		c0.33,1.91,2.61,5.2,3.5,7.16c1.21-2.17-0.98-5.04-1.44-8.19c-0.19-1.24,1.75-5.78,3.12-5.92c4.08-0.37,4.03,4.99,1.66,4.03
		c-4.78-1.91,1.77,13.67,1.96,14.27c1.84,6.46,8.3,6.11,13.52,10.17c2.12,1.66,4.17,6.6,6.69,7.09c2.75,0.54,4.99-3.06,6.39-3.89
		c1.35-0.82,0.19-2.52,2.7-1.63c1.31,0.47,0.93,1.89,0.07,2.77c-0.86,0.84-3.03,2.17-4.38,2.91c-2.21,1.24-4.01,1.21-4.43,3.85
		c-0.37,2.33,0.54,3.78,2.75,4.03c3.52,0.4,4.15-2.68,5.52-3.24c1.33-0.54,4.61,0.02,1.86,1.56c-2.63,1.47-4.92,5.5-8.67,4.87
		c-3.43-0.58-3.78-4.38-5.66-6.51c-0.37,2.8-3.54,3.87-5.52,5.62c-0.93,0.79-5.29,4.71-5.24,5.69c0.09,2.56,2.63,1.33,3.61,2.77
		c3.26,4.85-3.15,2.15-5.22,5.43c-1.24,1.91,0.91,5.46,0.89,7.46c-1.05,0.4-2.03-3.96-2.73-6.02c-1.38-1-2.33-1.91-3.94-2.45
		c0.37-0.19,0.98-0.4,1.38-0.51c-0.98-0.16-2.56-0.51-3.94-0.26c0.56-0.14,2.31-1.07,3.19-1.28c-4.78-0.82-1.05-4.71-4.52-6.23
		c1,0.33,2.21,0.3,2.96,0.47c-1.26-0.77-2.54-1.75-3.94-2.15c6.46,0.93,1.63-5.34,1.79-7.04c1.58,2.92,3.92-2.12-0.75-3.26
		c2.12,0.28,3.73-0.42,3.73-2.73c0.02-3.57-5.24-3.66-7.69-5.2C73.55,337.22,76.46,338.13,71.29,337.08L71.29,337.08z"/>
	
		<path fill-rule="evenodd" fill="#FFFFFF" stroke="#000000" stroke-width="1.5143" stroke-linecap="round" stroke-linejoin="round" stroke-miterlimit="10" d="
		M201.37,398.69c-2.61,1.75-5.41,3.12-8.55,1.98c-5.31-1.98-4.97-10.31-8.06-14.08c-0.82-1-0.82-1.75-1.4-2.33
		c0,0.23-2.59,0.3-3.31-0.23c-1.86-1.35-0.79-6.6-4.52-3.17c0.7-3.73,3.92-1.49,6.27-1.4c2.35,0.09,3.36-0.75,5.57,0.26
		c0.7,0.3,0.33,2.5,0.89,3.03c0.58,0.54,1.47-0.54,1.82-0.21c0.26,0.26,2.31,2.71,2.17,2.71c1.35,0.51,2.12-1.77,3.71-0.19
		c2.8,2.8-0.35,6.81,3.89,7.98l1.86,0.91c1.61-0.91-0.96-4.06-1.54-4.87c-2.12-2.73-3.82-5.01-6.2-6.6
		c-0.61-0.37-2.91-1.19-4.24-2.15c-1.63-1.21-3.45-2.68-4.73-4.27c-1.72-2.12,0.21-4.94,3.12-5.22c-0.35,4.9-0.58,4.66,4.01,7.91
		c1.58,1.1,5.52,1.82,7.55,2.57c-0.7-2.4-4.27-2.85-6.83-4.76c-1-0.75-2.84-5.34-1.98-6.39c2.61-3.17,6.39,0.68,4.03,1.68
		c-4.71,2.03,10.91,8.4,11.44,8.7c5.9,3.26,10.21-1.56,16.76-2.38c2.68-0.33,7.62,1.73,9.74,0.28c2.33-1.56,1.38-5.69,1.77-7.25
		c0.37-1.54-1.63-1.94,0.77-3.08c1.26-0.61,1.98,0.68,1.98,1.91c0,1.21-0.58,3.68-1.03,5.15c-0.7,2.45-1.96,3.68-0.42,5.85
		c1.4,1.94,3.05,2.31,4.8,0.91c2.77-2.19,1.05-4.83,1.63-6.2c0.54-1.33,3.29-3.24,2.42-0.19c-0.82,2.87,0.4,7.37-2.7,9.56
		c-2.82,2-5.76-0.44-8.6-0.61c1.73,2.26,0.23,5.27,0.07,7.88c-0.09,1.24-0.4,7.09,0.33,7.74c1.87,1.75,2.8-0.93,4.5-0.58
		c5.73,1.12-0.7,3.73,0.14,7.53c0.49,2.22,4.52,3.2,5.92,4.64c-0.47,1.05-4.24-1.38-6.18-2.31c-1.7,0.26-3.01,0.28-4.52,1.05
		c0.14-0.4,0.42-0.98,0.61-1.35c-0.82,0.58-2.17,1.47-2.96,2.61c0.28-0.51,0.86-2.38,1.35-3.17c-3.96,2.8-4.08-2.59-7.62-1.21
		c0.96-0.47,1.79-1.33,2.42-1.75c-1.4,0.35-3.01,0.56-4.29,1.28c5.24-3.92-2.61-4.94-3.71-6.25c3.17,0.93,1.26-4.29-2.84-1.77
		c1.7-1.33,2.35-2.96,0.72-4.59c-2.52-2.52-6.32,1.12-9.11,1.77C203.07,397.2,205.78,395.8,201.37,398.69L201.37,398.69z"/>
	
		<path fill-rule="evenodd" fill="#FFFFFF" stroke="#000000" stroke-width="1.5143" stroke-linecap="round" stroke-linejoin="round" stroke-miterlimit="10" d="
		M336.91,350.25c-0.63,3.08-1.63,6.04-4.66,7.44c-5.17,2.38-10.79-3.78-15.66-4.24c-1.28-0.14-1.82-0.65-2.63-0.65
		c0.16,0.16-1.61,2.03-2.52,2.17c-2.26,0.35-5.22-4.1-5.43,0.96c-2.12-3.13,1.7-3.82,3.45-5.41c1.73-1.61,1.84-2.91,4.13-3.78
		c0.72-0.28,2,1.54,2.75,1.52c0.82-0.02,0.68-1.4,1.17-1.42c0.35,0,3.52,0.28,3.43,0.37c1.33-0.58,0.26-2.75,2.49-2.75
		c3.96,0,4.57,5.06,8.39,2.89l1.96-0.7c0.51-1.77-3.54-2.19-4.52-2.33c-3.43-0.44-6.25-0.84-9.04-0.3
		c-0.72,0.16-2.91,1.24-4.52,1.49c-2,0.3-4.36,0.54-6.36,0.33c-2.73-0.26-3.36-3.64-1.49-5.9c3.22,3.71,2.89,3.73,8.41,2.75
		c1.91-0.33,5.2-2.61,7.16-3.52c-2.17-1.21-5.04,1-8.18,1.45c-1.23,0.21-5.78-1.75-5.92-3.1c-0.4-4.08,4.99-4.03,4.03-1.68
		c-1.91,4.78,13.66-1.77,14.24-1.94c6.48-1.84,6.13-8.3,10.19-13.53c1.66-2.12,6.6-4.17,7.09-6.72c0.54-2.75-3.08-4.99-3.89-6.37
		c-0.82-1.35-2.52-0.21-1.63-2.71c0.47-1.33,1.89-0.93,2.75-0.07c0.86,0.86,2.19,3.03,2.94,4.38c1.24,2.22,1.21,3.99,3.82,4.43
		c2.35,0.37,3.8-0.54,4.06-2.77c0.4-3.5-2.68-4.13-3.24-5.5c-0.56-1.33,0.02-4.64,1.56-1.87c1.47,2.61,5.5,4.92,4.87,8.68
		c-0.58,3.43-4.41,3.75-6.5,5.67c2.8,0.37,3.87,3.54,5.59,5.53c0.82,0.91,4.73,5.27,5.71,5.25c2.56-0.12,1.31-2.66,2.77-3.64
		c4.85-3.24,2.14,3.17,5.43,5.25c1.91,1.21,5.45-0.93,7.46-0.89c0.4,1.05-3.96,2.01-6.01,2.73c-1,1.38-1.93,2.31-2.45,3.94
		c-0.19-0.37-0.4-1-0.54-1.4c-0.14,1-0.49,2.57-0.23,3.96c-0.16-0.58-1.07-2.31-1.28-3.19c-0.82,4.76-4.71,1.05-6.25,4.52
		c0.33-1,0.3-2.22,0.49-2.96c-0.77,1.24-1.75,2.52-2.14,3.94c0.93-6.48-5.34-1.66-7.04-1.82c2.91-1.56-2.12-3.92-3.26,0.77
		c0.28-2.15-0.42-3.75-2.73-3.75c-3.57,0-3.68,5.27-5.2,7.72C337.05,347.99,337.96,345.1,336.91,350.25L336.91,350.25z"/>
	
		<path fill-rule="evenodd" fill="#FFFFFF" stroke="#000000" stroke-width="1.5143" stroke-linecap="round" stroke-linejoin="round" stroke-miterlimit="10" d="
		M398.49,220.13c1.75,2.61,3.12,5.41,1.96,8.53c-1.96,5.34-10.28,4.99-14.08,8.09c-0.98,0.79-1.73,0.82-2.31,1.4
		c0.21,0,0.3,2.57-0.23,3.31c-1.35,1.84-6.6,0.79-3.17,4.5c-3.73-0.7-1.51-3.89-1.4-6.25c0.07-2.36-0.75-3.36,0.26-5.6
		c0.3-0.7,2.49-0.33,3.03-0.86c0.54-0.58-0.54-1.47-0.21-1.82c0.26-0.26,2.7-2.31,2.7-2.17c0.51-1.38-1.77-2.15-0.19-3.73
		c2.8-2.8,6.81,0.37,7.97-3.87l0.89-1.87c-0.89-1.61-4.03,0.93-4.85,1.54c-2.73,2.1-5.01,3.8-6.6,6.18
		c-0.4,0.61-1.19,2.94-2.14,4.24c-1.21,1.63-2.68,3.47-4.27,4.73c-2.12,1.75-4.96-0.19-5.22-3.1c4.89,0.33,4.66,0.58,7.88-4.01
		c1.12-1.59,1.84-5.53,2.59-7.56c-2.4,0.68-2.87,4.24-4.78,6.81c-0.72,1-5.31,2.85-6.36,1.98c-3.17-2.61,0.65-6.37,1.68-4.03
		c2.03,4.73,8.39-10.89,8.69-11.45c3.26-5.88-1.56-10.19-2.38-16.77c-0.33-2.66,1.72-7.63,0.28-9.75c-1.56-2.31-5.69-1.35-7.27-1.75
		c-1.51-0.37-1.91,1.63-3.05-0.77c-0.61-1.26,0.68-2.01,1.91-2.01c1.21,0,3.68,0.61,5.15,1.03c2.45,0.7,3.68,1.98,5.85,0.42
		c1.91-1.4,2.31-3.06,0.91-4.8c-2.21-2.75-4.82-1.03-6.2-1.61c-1.33-0.56-3.24-3.29-0.19-2.43c2.87,0.82,7.34-0.42,9.56,2.68
		c2,2.85-0.44,5.78-0.61,8.63c2.26-1.73,5.25-0.26,7.88-0.07c1.24,0.07,7.06,0.4,7.74-0.33c1.75-1.89-0.93-2.8-0.61-4.52
		c1.14-5.71,3.75,0.72,7.55-0.14c2.21-0.49,3.19-4.5,4.64-5.9c1.03,0.47-1.38,4.24-2.31,6.18c0.26,1.68,0.26,3.01,1.03,4.52
		c-0.37-0.14-0.96-0.42-1.33-0.63c0.58,0.84,1.47,2.17,2.61,2.98c-0.51-0.3-2.38-0.89-3.17-1.35c2.8,3.96-2.59,4.08-1.21,7.6
		c-0.47-0.93-1.33-1.77-1.75-2.43c0.35,1.42,0.56,3.03,1.28,4.31c-3.92-5.25-4.94,2.59-6.27,3.68c0.96-3.17-4.27-1.26-1.77,2.85
		c-1.31-1.7-2.94-2.35-4.57-0.7c-2.52,2.5,1.12,6.3,1.77,9.12C397,218.42,395.6,215.72,398.49,220.13L398.49,220.13z"/>
	
		<path fill-rule="evenodd" fill="#FFFFFF" stroke="#000000" stroke-width="1.5143" stroke-linecap="round" stroke-linejoin="round" stroke-miterlimit="10" d="
		M350.08,84.52c3.08,0.61,6.04,1.61,7.44,4.66c2.35,5.15-3.78,10.8-4.24,15.67c-0.14,1.26-0.65,1.8-0.65,2.64
		c0.14-0.16,2.03,1.59,2.17,2.5c0.35,2.26-4.1,5.22,0.96,5.43c-3.12,2.15-3.82-1.7-5.43-3.43c-1.58-1.73-2.89-1.87-3.75-4.13
		c-0.28-0.72,1.54-2.01,1.51-2.78c-0.02-0.79-1.4-0.65-1.42-1.14c0-0.35,0.28-3.52,0.37-3.43c-0.61-1.35-2.75-0.28-2.75-2.52
		c0-3.94,5.06-4.55,2.87-8.37l-0.68-1.96c-1.77-0.51-2.19,3.52-2.33,4.52c-0.44,3.43-0.86,6.25-0.3,9.05
		c0.16,0.7,1.23,2.92,1.49,4.52c0.3,2.01,0.54,4.34,0.33,6.37c-0.28,2.73-3.64,3.36-5.9,1.49c3.71-3.22,3.73-2.89,2.75-8.42
		c-0.33-1.91-2.61-5.2-3.52-7.18c-1.21,2.19,0.98,5.04,1.44,8.21c0.19,1.24-1.75,5.78-3.12,5.92c-4.06,0.37-4.03-4.99-1.66-4.03
		c4.78,1.89-1.77-13.67-1.93-14.27c-1.84-6.46-8.3-6.11-13.52-10.17c-2.12-1.68-4.17-6.62-6.71-7.09c-2.75-0.54-4.99,3.05-6.36,3.89
		c-1.35,0.82-0.21,2.52-2.73,1.63c-1.31-0.49-0.91-1.91-0.05-2.78c0.84-0.86,3.03-2.17,4.36-2.92c2.24-1.24,4.01-1.21,4.45-3.85
		c0.37-2.36-0.54-3.78-2.77-4.03c-3.5-0.4-4.15,2.68-5.52,3.22c-1.31,0.56-4.62-0.02-1.84-1.56c2.61-1.45,4.92-5.5,8.67-4.85
		c3.4,0.58,3.75,4.38,5.66,6.51c0.37-2.8,3.54-3.87,5.5-5.62c0.93-0.82,5.29-4.73,5.25-5.69c-0.09-2.57-2.63-1.33-3.61-2.77
		c-3.24-4.85,3.17-2.15,5.24-5.43c1.21-1.91-0.93-5.46-0.91-7.49c1.07-0.4,2.03,3.99,2.75,6.02c1.38,1.03,2.31,1.94,3.92,2.47
		c-0.37,0.19-0.98,0.37-1.38,0.51c1,0.16,2.56,0.49,3.96,0.23c-0.58,0.16-2.31,1.07-3.19,1.31c4.75,0.82,1.05,4.71,4.5,6.23
		c-1-0.33-2.19-0.3-2.94-0.47c1.24,0.75,2.52,1.73,3.94,2.12c-6.48-0.91-1.66,5.36-1.82,7.04c-1.56-2.89-3.92,2.15,0.77,3.29
		c-2.15-0.28-3.75,0.42-3.75,2.73c0,3.54,5.24,3.66,7.69,5.2C347.82,84.38,344.91,83.47,350.08,84.52L350.08,84.52z"/>
	
		<path fill-rule="evenodd" fill="#FFFFFF" stroke="#000000" stroke-width="1.5143" stroke-linecap="round" stroke-linejoin="round" stroke-miterlimit="10" d="
		M299.76,158.54c2.59,1.52,1.77-2.98,5.38-2.52c1.98,2.17,2.63,3.96,1.58,6.79c5.66-3.43,17.55-1.52,20.33,4.9
		c-7.41,1.12-11.68,0.19-18.62-2.03c5.17,1.96,3.8,5.22,5.43,10.38c1.61,4.97-0.14,8.65-1.1,13.53c-0.07-3.82-3.61-8.12-5.38-11.45
		c-1.72-3.24-1.21-5.69-1.47-9.28c-1.05,6.74,0,6.72-3.8,12.87c1.63-7.65,1.82-7.74,0.77-14.44c-3.96-0.44-0.28,2.64-0.72,4.99
		c-0.44,2.4-2.71,2.29-3.57,4.94c-1.26,3.96-1.68,8-3.1,11.94c-0.35,0.98,0.16,2.85-0.63,3.06c-0.75,0.21-1.58,1.63-1.82,2.17
		c-0.28-4.59,3.5-10.4,2.21-14.76c-0.82-2.87-5.08-4.78-5.25-8c-0.21-4.9,3.31-1.42,5.83-3.24c2-1.47,0.14-3.19,0.63-5.18
		c0.68-2.87,2.08-1.38,0.3-4.59c-1.44-2.68-2-9.72,0.79-11.96C297.05,148.07,296.68,156.74,299.76,158.54L299.76,158.54z"/>
	
		<path fill-rule="evenodd" fill="#FFFFFF" stroke="#000000" stroke-width="1.5143" stroke-linecap="round" stroke-linejoin="round" stroke-miterlimit="10" d="
		M236.71,110.62c2.89-0.75-0.86-3.36,2.03-5.6c2.91,0.14,4.66,0.93,5.92,3.71c1.58-6.46,11.33-13.5,17.83-10.94
		c-4.47,6.04-8.11,8.4-14.61,11.73c5.06-2.29,6.39,1,11.19,3.5c4.62,2.38,6.01,6.23,8.79,10.35c-2.77-2.66-8.3-3.19-11.91-4.31
		c-3.52-1.07-4.87-3.15-7.6-5.5c4.03,5.5,4.76,4.76,6.41,11.8c-4.24-6.55-4.17-6.76-9.65-10.75c-3.12,2.5,1.66,2.05,3.01,4.03
		c1.4,2.01-0.3,3.52,0.98,6.02c1.91,3.68,4.47,6.83,6.25,10.63c0.44,0.96,2.12,1.89,1.73,2.59c-0.4,0.7,0.02,2.29,0.23,2.85
		c-3.45-3.05-4.87-9.84-8.86-12.03c-2.61-1.42-6.97,0.23-9.37-1.94c-3.61-3.31,1.33-3.36,1.84-6.41c0.37-2.45-2.17-2.36-3.22-4.08
		c-1.56-2.52,0.49-2.45-3.05-3.5c-2.91-0.84-8.3-5.43-7.88-9C227.41,105.11,233.26,111.52,236.71,110.62L236.71,110.62z"/>
	
		<path fill-rule="evenodd" fill="#FFFFFF" stroke="#000000" stroke-width="1.5143" stroke-linecap="round" stroke-linejoin="round" stroke-miterlimit="10" d="
		M158.25,121.34c1.52-2.59-2.98-1.77-2.52-5.39c2.17-1.98,3.96-2.64,6.78-1.59c-3.43-5.67-1.51-17.56,4.9-20.34
		c1.12,7.42,0.19,11.66-2.03,18.63c1.96-5.18,5.22-3.82,10.37-5.46c4.94-1.59,8.65,0.16,13.52,1.12c-3.82,0.07-8.11,3.61-11.44,5.36
		c-3.24,1.75-5.69,1.21-9.28,1.49c6.74,1.03,6.71,0,12.87,3.8c-7.65-1.63-7.74-1.82-14.43-0.77c-0.44,3.96,2.63,0.28,4.99,0.72
		c2.4,0.44,2.28,2.71,4.94,3.57c3.96,1.26,8,1.66,11.93,3.1c0.98,0.35,2.84-0.16,3.05,0.61c0.21,0.77,1.63,1.59,2.17,1.84
		c-4.59,0.28-10.4-3.52-14.75-2.24c-2.87,0.84-4.78,5.11-7.99,5.25c-4.9,0.23-1.42-3.29-3.24-5.83c-1.47-2.01-3.19-0.12-5.17-0.61
		c-2.87-0.68-1.38-2.08-4.59-0.3c-2.68,1.45-9.72,2.01-11.96-0.79C147.79,124.02,156.46,124.42,158.25,121.34L158.25,121.34z"/>
	
		<path fill-rule="evenodd" fill="#FFFFFF" stroke="#000000" stroke-width="1.5143" stroke-linecap="round" stroke-linejoin="round" stroke-miterlimit="10" d="
		M110.35,184.42c-0.75-2.89-3.36,0.86-5.59-2.03c0.14-2.94,0.93-4.66,3.71-5.92c-6.46-1.59-13.5-11.33-10.93-17.84
		c6.04,4.45,8.39,8.12,11.72,14.62c-2.28-5.06,1-6.39,3.5-11.19c2.38-4.64,6.22-6.02,10.35-8.79c-2.66,2.75-3.19,8.3-4.31,11.92
		c-1.07,3.52-3.15,4.87-5.5,7.6c5.5-4.03,4.75-4.76,11.79-6.41c-6.55,4.24-6.76,4.17-10.75,9.65c2.49,3.13,2.05-1.66,4.03-3.03
		c2-1.38,3.52,0.3,6.01-0.98c3.68-1.89,6.83-4.45,10.63-6.23c0.96-0.44,1.89-2.15,2.59-1.73c0.7,0.4,2.28-0.05,2.84-0.23
		c-3.05,3.45-9.84,4.87-12.03,8.86c-1.42,2.61,0.23,6.97-1.93,9.38c-3.31,3.59-3.36-1.35-6.41-1.84c-2.45-0.37-2.35,2.17-4.08,3.22
		c-2.52,1.56-2.45-0.49-3.5,3.03c-0.84,2.92-5.43,8.33-9,7.91C104.85,193.73,111.26,187.85,110.35,184.42L110.35,184.42z"/>
	
		<path fill-rule="evenodd" fill="#FFFFFF" stroke="#000000" stroke-width="1.5143" stroke-linecap="round" stroke-linejoin="round" stroke-miterlimit="10" d="
		M121.07,262.92c-2.59-1.52-1.77,2.98-5.38,2.52c-1.98-2.17-2.63-3.96-1.58-6.79c-5.66,3.43-17.55,1.52-20.32-4.9
		c7.41-1.12,11.65-0.21,18.62,2.03c-5.17-1.96-3.82-5.22-5.45-10.38c-1.58-4.97,0.16-8.65,1.12-13.53c0.07,3.8,3.61,8.12,5.36,11.45
		c1.75,3.24,1.21,5.69,1.49,9.28c1.03-6.74,0-6.74,3.8-12.87c-1.63,7.63-1.82,7.72-0.77,14.41c3.96,0.44,0.28-2.63,0.72-4.99
		c0.44-2.38,2.7-2.26,3.57-4.94c1.26-3.94,1.65-7.98,3.1-11.92c0.35-1-0.16-2.85,0.61-3.06c0.77-0.21,1.58-1.66,1.84-2.17
		c0.28,4.59-3.52,10.4-2.24,14.76c0.84,2.84,5.1,4.78,5.24,8c0.23,4.9-3.29,1.42-5.83,3.24c-2,1.47-0.12,3.19-0.61,5.18
		c-0.68,2.87-2.07,1.38-0.3,4.59c1.45,2.66,2,9.72-0.79,11.96C123.75,273.39,124.15,264.69,121.07,262.92L121.07,262.92z"/>
	
		<path fill-rule="evenodd" fill="#FFFFFF" stroke="#000000" stroke-width="1.5143" stroke-linecap="round" stroke-linejoin="round" stroke-miterlimit="10" d="
		M184.12,310.84c-2.89,0.75,0.86,3.36-2.03,5.57c-2.94-0.12-4.66-0.93-5.92-3.68c-1.58,6.46-11.33,13.5-17.83,10.94
		c4.45-6.04,8.11-8.39,14.61-11.73c-5.06,2.29-6.39-1-11.19-3.5c-4.64-2.38-6.01-6.23-8.79-10.35c2.75,2.64,8.3,3.19,11.91,4.29
		c3.52,1.07,4.87,3.17,7.6,5.53c-4.03-5.5-4.75-4.76-6.41-11.8c4.24,6.55,4.17,6.76,9.65,10.75c3.12-2.5-1.66-2.08-3.03-4.03
		c-1.38-2.01,0.3-3.54-0.98-6.02c-1.89-3.71-4.45-6.83-6.22-10.63c-0.44-0.96-2.14-1.89-1.72-2.61c0.4-0.68-0.05-2.26-0.23-2.82
		c3.45,3.06,4.87,9.84,8.86,12.01c2.61,1.45,6.97-0.21,9.37,1.96c3.59,3.31-1.35,3.33-1.84,6.41c-0.37,2.45,2.17,2.36,3.22,4.08
		c1.56,2.52-0.49,2.45,3.03,3.5c2.91,0.84,8.32,5.43,7.9,9C193.42,316.32,187.55,309.93,184.12,310.84L184.12,310.84z"/>
	
		<path fill-rule="evenodd" fill="#FFFFFF" stroke="#000000" stroke-width="1.5143" stroke-linecap="round" stroke-linejoin="round" stroke-miterlimit="10" d="
		M262.58,300.11c-1.51,2.59,2.98,1.77,2.52,5.39c-2.17,1.98-3.96,2.64-6.78,1.59c3.43,5.67,1.52,17.56-4.89,20.34
		c-1.12-7.42-0.21-11.68,2.03-18.63c-1.96,5.18-5.22,3.8-10.37,5.43c-4.96,1.61-8.65-0.14-13.52-1.1c3.8-0.07,8.11-3.61,11.44-5.39
		c3.24-1.73,5.69-1.21,9.28-1.47c-6.74-1.05-6.74,0-12.87-3.8c7.62,1.63,7.71,1.82,14.4,0.77c0.44-3.96-2.63-0.28-4.99-0.72
		c-2.38-0.44-2.26-2.71-4.94-3.57c-3.94-1.26-8-1.68-11.91-3.1c-1-0.35-2.84,0.16-3.05-0.63c-0.21-0.75-1.65-1.59-2.17-1.82
		c4.59-0.28,10.4,3.5,14.75,2.21c2.84-0.82,4.78-5.08,7.99-5.25c4.89-0.21,1.42,3.31,3.24,5.85c1.47,1.98,3.19,0.12,5.17,0.61
		c2.87,0.68,1.38,2.08,4.59,0.3c2.66-1.45,9.72-2.01,11.96,0.79C273.05,297.41,264.35,297.04,262.58,300.11L262.58,300.11z"/>
	
		<path fill-rule="evenodd" fill="#FFFFFF" stroke="#000000" stroke-width="1.5143" stroke-linecap="round" stroke-linejoin="round" stroke-miterlimit="10" d="
		M310.48,237.03c0.75,2.89,3.36-0.86,5.57,2.03c-0.12,2.92-0.93,4.66-3.68,5.92c6.46,1.59,13.5,11.33,10.93,17.84
		c-6.04-4.48-8.39-8.12-11.72-14.62c2.28,5.06-1,6.39-3.5,11.19c-2.38,4.62-6.22,6.02-10.35,8.79c2.63-2.78,3.19-8.3,4.29-11.92
		c1.07-3.52,3.17-4.87,5.52-7.6c-5.5,4.03-4.75,4.76-11.79,6.41c6.55-4.24,6.76-4.17,10.75-9.65c-2.49-3.13-2.08,1.66-4.03,3.03
		c-2,1.38-3.54-0.33-6.01,0.96c-3.71,1.91-6.83,4.48-10.63,6.25c-0.96,0.44-1.89,2.12-2.61,1.73c-0.68-0.4-2.26,0.02-2.82,0.23
		c3.05-3.45,9.84-4.87,12-8.86c1.44-2.61-0.21-6.97,1.96-9.37c3.31-3.61,3.33,1.33,6.41,1.84c2.45,0.37,2.35-2.17,4.08-3.22
		c2.52-1.56,2.45,0.49,3.5-3.06c0.84-2.92,5.43-8.3,9-7.88C315.96,227.73,309.57,233.58,310.48,237.03L310.48,237.03z"/>
	
		<path fill-rule="evenodd" fill="#FFFFFF" stroke="#000000" stroke-width="1.5143" stroke-linecap="round" stroke-linejoin="round" stroke-miterlimit="10" d="
		M253.35,63.21c2.77-2.75-3.19-3.22-1.4-7.63c3.38-1.77,5.85-2.03,9.07,0.26c-2.45-8.28,3.85-22.64,12.84-24.04
		c-1.05,9.72-5.5,17.4-10.61,25.44c4.17-5.9,9.77-5.71,16.78-6.06c6.76-0.37,10.86,3.01,16.69,5.83c-4.85-1.17-11.42,1.89-16.2,3.01
		c-4.66,1.12-9.6-0.19-14.22-1.05c8.14,3.52,9.28,2.31,15.78,9.12c-9.09-4.36-7.06-5.01-15.85-5.88c-1.86,4.85,2.4,1.17,5.22,2.5
		c2.87,1.33,1.98,4.15,5.06,6.11c4.57,2.89,9.51,4.73,14.01,7.81c1.12,0.79,3.64,0.75,3.64,1.8c0,1.03,1.54,2.54,2.12,3.03
		c-5.87-1.17-11.93-7.84-17.85-7.65c-3.87,0.09-7.69,4.83-11.82,3.96c-6.2-1.33-0.7-4.64-2.14-8.4c-1.19-3.01-3.99-1.24-6.32-2.47
		c-3.4-1.8-1.33-3.15-5.97-2.01c-3.82,0.98-14.33-1.33-16.22-5.6C237.59,62.39,250.09,66.49,253.35,63.21L253.35,63.21z"/>
	
		<path fill-rule="evenodd" fill="#FFFFFF" stroke="#000000" stroke-width="1.5143" stroke-linecap="round" stroke-linejoin="round" stroke-miterlimit="10" d="
		M136.55,76.27c0-3.92-4.52-0.02-6.39-4.41c1.14-3.64,2.7-5.57,6.6-6.25c-7.6-4.1-13.26-18.73-7.9-26.07
		c6.13,7.6,8.39,16.18,10.47,25.49c-1.21-7.11,2.87-10.94,7.58-16.18c4.52-5.04,9.81-5.53,15.92-7.65c-4.22,2.59-6.74,9.4-9.3,13.57
		c-2.52,4.08-6.95,6.67-10.81,9.33c8.25-3.26,8.2-4.94,17.62-4.71c-9.53,3.33-8.55,1.45-15.38,7.04c2.12,4.73,2.52-0.86,5.45-1.94
		c2.96-1.07,4.34,1.54,7.9,0.75c5.27-1.17,10.07-3.38,15.43-4.38c1.35-0.23,3.1-2.05,3.85-1.31c0.72,0.72,2.89,0.7,3.64,0.65
		c-4.99,3.33-13.98,2.89-18.04,7.21c-2.66,2.82-2,8.89-5.52,11.17c-5.34,3.45-3.78-2.78-7.48-4.41c-2.96-1.28-3.66,1.94-6.2,2.71
		c-3.68,1.14-3.17-1.28-5.64,2.82c-2.03,3.38-11.07,9.19-15.43,7.51C124.83,86.83,136.57,80.88,136.55,76.27L136.55,76.27z"/>
	
		<path fill-rule="evenodd" fill="#FFFFFF" stroke="#000000" stroke-width="1.5143" stroke-linecap="round" stroke-linejoin="round" stroke-miterlimit="10" d="
		M63.18,168.12c-2.77-2.77-3.22,3.17-7.62,1.4c-1.77-3.38-2.03-5.88,0.26-9.07c-8.27,2.45-22.63-3.87-24.03-12.87
		c9.72,1.05,17.39,5.53,25.43,10.61c-5.9-4.17-5.71-9.75-6.08-16.79c-0.37-6.76,3.03-10.84,5.85-16.67
		c-1.17,4.83,1.89,11.43,3.01,16.21c1.12,4.66-0.21,9.61-1.05,14.23c3.52-8.14,2.31-9.3,9.11-15.81c-4.36,9.12-5.01,7.09-5.87,15.86
		c4.85,1.87,1.17-2.38,2.49-5.2c1.33-2.87,4.15-1.98,6.11-5.06c2.89-4.57,4.73-9.54,7.81-14.02c0.79-1.12,0.72-3.64,1.8-3.64
		c1.03-0.02,2.54-1.56,3.03-2.12c-1.17,5.88-7.83,11.94-7.67,17.86c0.12,3.87,4.85,7.7,3.99,11.8c-1.33,6.23-4.64,0.7-8.41,2.17
		c-3.01,1.19-1.21,3.96-2.45,6.32c-1.79,3.38-3.15,1.31-2,5.95c0.98,3.85-1.33,14.34-5.59,16.23
		C62.36,183.89,66.46,171.36,63.18,168.12L63.18,168.12z"/>
	
		<path fill-rule="evenodd" fill="#FFFFFF" stroke="#000000" stroke-width="1.5143" stroke-linecap="round" stroke-linejoin="round" stroke-miterlimit="10" d="
		M76.21,284.98c-3.89,0-0.02,4.52-4.38,6.37c-3.66-1.12-5.57-2.71-6.25-6.58c-4.1,7.58-18.72,13.27-26.08,7.91
		c7.62-6.13,16.2-8.42,25.48-10.49c-7.11,1.21-10.91-2.87-16.15-7.58c-5.03-4.52-5.52-9.82-7.65-15.93
		c2.59,4.24,9.39,6.74,13.57,9.33c4.08,2.52,6.67,6.95,9.32,10.82c-3.26-8.28-4.94-8.21-4.73-17.63c3.36,9.51,1.47,8.54,7.04,15.37
		c4.75-2.12-0.84-2.52-1.91-5.43c-1.07-2.99,1.54-4.36,0.75-7.91c-1.19-5.29-3.38-10.1-4.38-15.46c-0.23-1.33-2.05-3.08-1.31-3.82
		c0.72-0.75,0.7-2.89,0.65-3.64c3.33,4.97,2.89,13.99,7.2,18.05c2.82,2.66,8.86,2.01,11.16,5.53c3.45,5.34-2.77,3.78-4.43,7.49
		c-1.28,2.96,1.96,3.66,2.73,6.2c1.14,3.66-1.28,3.15,2.82,5.62c3.38,2.03,9.18,11.1,7.51,15.44
		C86.79,296.71,80.84,284.96,76.21,284.98L76.21,284.98z"/>
	
		<path fill-rule="evenodd" fill="#FFFFFF" stroke="#000000" stroke-width="1.5143" stroke-linecap="round" stroke-linejoin="round" stroke-miterlimit="10" d="
		M168.02,358.39c-2.75,2.75,3.19,3.19,1.42,7.6c-3.38,1.8-5.87,2.03-9.09-0.23c2.47,8.28-3.85,22.62-12.84,24.04
		c1.05-9.73,5.5-17.4,10.61-25.44c-4.17,5.88-9.74,5.69-16.78,6.06c-6.76,0.37-10.84-3.03-16.67-5.83
		c4.83,1.14,11.4-1.89,16.18-3.03c4.66-1.1,9.63,0.21,14.24,1.07c-8.16-3.54-9.3-2.31-15.8-9.14c9.11,4.38,7.09,5.01,15.85,5.9
		c1.86-4.85-2.38-1.17-5.2-2.5c-2.87-1.33-1.98-4.17-5.06-6.11c-4.57-2.89-9.53-4.73-14.01-7.83c-1.14-0.77-3.64-0.72-3.66-1.8
		c0-1.03-1.54-2.52-2.12-3.01c5.9,1.14,11.96,7.84,17.88,7.65c3.87-0.12,7.67-4.85,11.79-3.96c6.22,1.33,0.7,4.62,2.17,8.39
		c1.19,3.01,3.96,1.21,6.29,2.47c3.4,1.8,1.33,3.15,5.97,1.98c3.85-0.96,14.33,1.35,16.22,5.62
		C183.77,359.21,171.28,355.1,168.02,358.39L168.02,358.39z"/>
	
		<path fill-rule="evenodd" fill="#FFFFFF" stroke="#000000" stroke-width="1.5143" stroke-linecap="round" stroke-linejoin="round" stroke-miterlimit="10" d="
		M284.84,345.33c0,3.92,4.52,0.02,6.36,4.41c-1.12,3.64-2.7,5.57-6.57,6.23c7.58,4.13,13.26,18.75,7.9,26.1
		c-6.13-7.6-8.41-16.21-10.49-25.49c1.21,7.11-2.87,10.94-7.58,16.16c-4.52,5.06-9.81,5.55-15.92,7.67c4.24-2.61,6.74-9.4,9.32-13.6
		c2.49-4.08,6.95-6.65,10.79-9.31c-8.25,3.26-8.18,4.94-17.6,4.71c9.51-3.33,8.53-1.45,15.36-7.04c-2.12-4.76-2.52,0.86-5.45,1.91
		c-2.96,1.1-4.33-1.54-7.88-0.75c-5.29,1.19-10.09,3.4-15.45,4.38c-1.33,0.26-3.08,2.05-3.85,1.31c-0.72-0.72-2.87-0.7-3.64-0.63
		c4.99-3.33,13.98-2.89,18.04-7.23c2.66-2.8,2.03-8.86,5.55-11.15c5.34-3.48,3.78,2.77,7.48,4.41c2.96,1.28,3.66-1.94,6.2-2.7
		c3.66-1.14,3.15,1.28,5.62-2.82c2.03-3.4,11.09-9.19,15.43-7.51C296.54,334.77,284.82,340.71,284.84,345.33L284.84,345.33z"/>
	
		<path fill-rule="evenodd" fill="#FFFFFF" stroke="#000000" stroke-width="1.5143" stroke-linecap="round" stroke-linejoin="round" stroke-miterlimit="10" d="
		M358.19,253.47c2.77,2.78,3.22-3.17,7.62-1.4c1.79,3.38,2.03,5.85-0.23,9.07c8.27-2.45,22.61,3.87,24.01,12.87
		c-9.7-1.05-17.39-5.53-25.41-10.63c5.87,4.17,5.69,9.77,6.06,16.79c0.37,6.79-3.03,10.87-5.83,16.7
		c1.14-4.85-1.89-11.43-3.03-16.21c-1.09-4.66,0.21-9.61,1.05-14.23c-3.52,8.14-2.29,9.28-9.11,15.79c4.36-9.09,5.01-7.07,5.9-15.83
		c-4.87-1.87-1.17,2.38-2.49,5.2c-1.35,2.87-4.17,1.98-6.11,5.06c-2.91,4.57-4.73,9.51-7.83,14.01c-0.77,1.12-0.72,3.64-1.79,3.64
		c-1.03,0-2.54,1.54-3.01,2.12c1.14-5.88,7.83-11.94,7.64-17.86c-0.12-3.87-4.85-7.7-3.99-11.8c1.33-6.23,4.64-0.7,8.41-2.17
		c3.01-1.19,1.21-3.96,2.47-6.32c1.79-3.38,3.15-1.33,1.98-5.97c-0.96-3.82,1.35-14.34,5.62-16.23
		C359.03,237.71,354.91,250.21,358.19,253.47L358.19,253.47z"/>
	
		<path fill-rule="evenodd" fill="#FFFFFF" stroke="#000000" stroke-width="1.5143" stroke-linecap="round" stroke-linejoin="round" stroke-miterlimit="10" d="
		M345.16,136.62c3.92,0,0.02-4.52,4.38-6.39c3.66,1.14,5.59,2.73,6.25,6.6c4.13-7.6,18.74-13.27,26.08-7.91
		c-7.62,6.13-16.2,8.4-25.48,10.47c7.11-1.21,10.93,2.87,16.15,7.6c5.06,4.5,5.52,9.82,7.67,15.9c-2.61-4.22-9.42-6.74-13.59-9.3
		c-4.08-2.52-6.64-6.95-9.32-10.82c3.29,8.25,4.96,8.21,4.73,17.63c-3.36-9.51-1.47-8.56-7.04-15.37c-4.75,2.1,0.86,2.5,1.91,5.43
		c1.1,2.98-1.54,4.36-0.75,7.91c1.19,5.27,3.38,10.07,4.38,15.44c0.26,1.35,2.05,3.1,1.3,3.85c-0.72,0.72-0.7,2.89-0.63,3.64
		c-3.36-4.99-2.91-13.99-7.23-18.05c-2.8-2.66-8.86-2.01-11.14-5.53c-3.47-5.34,2.77-3.78,4.41-7.49c1.28-2.96-1.96-3.66-2.73-6.2
		c-1.12-3.66,1.3-3.17-2.8-5.62c-3.4-2.03-9.18-11.1-7.5-15.44C334.6,124.89,340.55,136.64,345.16,136.62L345.16,136.62z"/>
	
		<polygon fill-rule="evenodd" fill="#FFFFFF" stroke="#000000" stroke-width="1.5143" stroke-linecap="round" stroke-linejoin="round" stroke-miterlimit="10" points="
		199.02,237.13 183.68,221.34 104.32,316.95 	"/>
	
		<polygon fill-rule="evenodd" fill="#FFFFFF" stroke="#000000" stroke-width="1.5143" stroke-linecap="round" stroke-linejoin="round" stroke-miterlimit="10" points="
		221.02,237.48 199.02,237.13 210.46,360.89 	"/>
	
		<polygon fill-rule="evenodd" fill="#FFFFFF" stroke="#000000" stroke-width="1.5143" stroke-linecap="round" stroke-linejoin="round" stroke-miterlimit="10" points="
		236.8,222.13 221.02,237.48 316.59,316.86 	"/>
	
		<polygon fill-rule="evenodd" fill="#FFFFFF" stroke="#000000" stroke-width="1.5143" stroke-linecap="round" stroke-linejoin="round" stroke-miterlimit="10" points="
		237.15,200.12 236.8,222.13 360.5,210.66 	"/>
	
		<polygon fill-rule="evenodd" fill="#FFFFFF" stroke="#000000" stroke-width="1.5143" stroke-linecap="round" stroke-linejoin="round" stroke-miterlimit="10" points="
		221.81,184.31 237.15,200.12 316.49,104.51 	"/>
	
		<polygon fill-rule="evenodd" fill="#FFFFFF" stroke="#000000" stroke-width="1.5143" stroke-linecap="round" stroke-linejoin="round" stroke-miterlimit="10" points="
		199.81,183.98 221.81,184.31 210.35,60.57 	"/>
	
		<polygon fill-rule="evenodd" fill="#FFFFFF" stroke="#000000" stroke-width="1.5143" stroke-linecap="round" stroke-linejoin="round" stroke-miterlimit="10" points="
		184.01,199.32 199.81,183.98 104.25,104.58 	"/>
	
		<polygon fill-rule="evenodd" fill="#FFFFFF" stroke="#000000" stroke-width="1.5143" stroke-linecap="round" stroke-linejoin="round" stroke-miterlimit="10" points="
		183.68,221.34 184.01,199.32 60.33,210.77 	"/>
	
		<path fill-rule="evenodd" fill="#FFFFFF" stroke="#000000" stroke-width="1.5143" stroke-linecap="round" stroke-linejoin="round" stroke-miterlimit="10" d="
		M192.07,278.33c1.07-4.38-3.94-4.64-5.94-7.37c2.14-0.7,7.58,5.64,6.32,0.54c1,1.84,2.28,1.82,2.4-0.3l1.24,1.31
		c1.33,1.94,4.75,4.13,5.94,5.97c2.45,3.69,2.75,4.97,6.97,4.9c0.44,0,0.93-0.02,1.47-0.05c2.61-0.16,3.17,0.3,5.27,0.96
		c1.12,0.35,3.5,0.42,4.48,0.98c4.82,2.75,0.35,7.07,0.56,10.47c0.05,0.77,1.56,1.73,1.91,4.06c0.44,1.98,0.37,4.27,0.75,6.25
		c0.23,1.21-2.96,5.2-2.94,1.03c0.02-3.17,1.28-7.09-1.96-9.82c-2.28-1.94-0.89,8.26-0.86,8.05l-1.91,1.03
		c-3.57-0.02-0.44-4.41-0.91-5.9l0.23-2.01l0.12-3.52c0.12-2.94-2.35-0.47-2.35,0.86c0.02,1.7,0.49,2.75,0.28,4.29
		c-0.05,0.23-0.12,0.49-0.26,0.77c-0.68,1.4-0.84,2.75-0.82,4.36c0,1.05,1.45,2.66,0.51,3.59c-1.51,1.52-2.77-2.43-2.84-3.36
		l-0.26-3.47l0.93-2.19c-0.3-0.42-0.19-0.84-0.47-1.56c-1.28-3.22-0.77-5.41-5.27-3.66c-2.35,0.89-1.35-0.19-2.17,1.77
		c-0.23,0.58-0.3,1.26-0.26,1.98c0.09,1.45,0.12,2.8,0.3,4.01l-2.96,6.48l-2.07-0.72c1.19-3.1,4.06-7.67,2.31-11.29
		c-0.07-0.12-0.12-0.23-0.21-0.35c-1.82-3.15-2.94-7.21-3.59-11.05c-0.3-1.84-0.51-3.64-0.63-5.22
		C192.38,283.37,190.84,283.32,192.07,278.33L192.07,278.33z"/>
	
		<path fill-rule="evenodd" fill="#FFFFFF" stroke="#000000" stroke-width="1.5143" stroke-linecap="round" stroke-linejoin="round" stroke-miterlimit="10" d="
		M245.24,271.52c-2.35-3.87-6.08-0.51-9.42-1.03c1.02-2.01,9.35-1.35,4.82-4.08c2,0.58,2.91-0.33,1.49-1.91l1.79,0.05
		c2.31,0.44,6.29-0.44,8.41,0c4.36,0.91,5.48,1.59,8.41-1.45c0.3-0.33,0.63-0.68,0.98-1.07c1.75-1.98,2.45-2.03,4.4-3.06
		c1.05-0.56,2.77-2.19,3.87-2.47c5.36-1.47,5.24,4.76,7.79,7.02c0.58,0.51,2.33,0.09,4.22,1.49c1.73,1.1,3.29,2.77,4.97,3.89
		c1.02,0.7,1.58,5.78-1.35,2.8c-2.24-2.26-4.13-5.9-8.34-5.55c-2.96,0.26,5.22,6.46,5.08,6.32l-0.61,2.08
		c-2.54,2.47-3.45-2.8-4.82-3.54l-1.26-1.59l-2.4-2.56c-1.98-2.17-2,1.35-1.05,2.26c1.21,1.19,2.31,1.61,3.22,2.84
		c0.14,0.21,0.28,0.44,0.37,0.75c0.51,1.47,1.35,2.52,2.49,3.64c0.75,0.75,2.91,0.86,2.91,2.19c0,2.12-3.68,0.23-4.41-0.37
		l-2.61-2.29l-0.89-2.19c-0.54-0.09-0.75-0.47-1.45-0.77c-3.17-1.38-4.36-3.31-6.32,1.12c-1.02,2.29-1.09,0.82-0.28,2.78
		c0.23,0.58,0.68,1.12,1.21,1.59c1.1,0.98,2.08,1.91,3.05,2.64l2.49,6.67l-1.98,0.98c-1.35-3.06-2.56-8.33-6.36-9.63
		c-0.12-0.05-0.23-0.07-0.37-0.12c-3.52-0.91-7.16-3.01-10.35-5.25c-1.51-1.1-2.94-2.22-4.15-3.26
		C249.01,274.86,247.87,275.91,245.24,271.52L245.24,271.52z"/>
	
		<path fill-rule="evenodd" fill="#FFFFFF" stroke="#000000" stroke-width="1.5143" stroke-linecap="round" stroke-linejoin="round" stroke-miterlimit="10" d="
		M277.99,229.08c-4.38-1.07-4.64,3.94-7.37,5.92c-0.7-2.12,5.64-7.56,0.54-6.3c1.84-1,1.82-2.29-0.3-2.4l1.3-1.24
		c1.93-1.33,4.13-4.76,5.97-5.95c3.68-2.45,4.97-2.75,4.9-6.97c0-0.44-0.02-0.93-0.05-1.47c-0.16-2.61,0.3-3.17,0.96-5.27
		c0.35-1.12,0.42-3.5,0.98-4.5c2.75-4.8,7.06-0.33,10.47-0.54c0.77-0.05,1.72-1.56,4.06-1.91c1.98-0.44,4.27-0.37,6.25-0.75
		c1.21-0.26,5.2,2.96,1.03,2.92c-3.17,0-7.09-1.26-9.81,1.98c-1.93,2.26,8.25,0.89,8.04,0.86l1.03,1.91
		c-0.02,3.54-4.41,0.44-5.9,0.91l-2-0.23l-3.52-0.12c-2.94-0.12-0.47,2.35,0.86,2.33c1.7,0,2.75-0.49,4.29-0.26
		c0.23,0.05,0.49,0.12,0.77,0.26c1.4,0.68,2.75,0.82,4.36,0.82c1.05,0,2.66-1.47,3.59-0.51c1.51,1.49-2.42,2.78-3.36,2.85
		l-3.47,0.26l-2.19-0.96c-0.42,0.33-0.84,0.21-1.56,0.49c-3.22,1.28-5.41,0.75-3.66,5.27c0.89,2.33-0.19,1.35,1.77,2.17
		c0.58,0.23,1.26,0.3,1.98,0.23c1.45-0.07,2.8-0.09,4.01-0.28l6.48,2.94l-0.72,2.1c-3.1-1.19-7.67-4.06-11.28-2.31
		c-0.12,0.07-0.23,0.12-0.35,0.19c-3.15,1.84-7.2,2.94-11.05,3.59c-1.84,0.33-3.64,0.51-5.22,0.65
		C283.02,228.78,282.98,230.32,277.99,229.08L277.99,229.08z"/>
	
		<path fill-rule="evenodd" fill="#FFFFFF" stroke="#000000" stroke-width="1.5143" stroke-linecap="round" stroke-linejoin="round" stroke-miterlimit="10" d="
		M271.18,175.89c-3.87,2.35-0.51,6.09-1.03,9.42c-2-1.03-1.35-9.35-4.08-4.85c0.58-2.01-0.33-2.89-1.91-1.47l0.05-1.8
		c0.44-2.31-0.44-6.3,0-8.44c0.91-4.34,1.59-5.46-1.45-8.4c-0.33-0.33-0.68-0.63-1.07-0.98c-1.98-1.75-2.03-2.47-3.05-4.41
		c-0.56-1.05-2.19-2.8-2.47-3.89c-1.47-5.34,4.75-5.22,7.02-7.79c0.51-0.56,0.09-2.31,1.49-4.2c1.1-1.73,2.77-3.29,3.89-4.97
		c0.7-1.03,5.78-1.59,2.8,1.35c-2.26,2.24-5.9,4.1-5.55,8.35c0.26,2.96,6.46-5.22,6.32-5.08l2.07,0.61c2.47,2.54-2.8,3.45-3.54,4.83
		l-1.59,1.26l-2.56,2.4c-2.17,1.98,1.35,2.01,2.26,1.05c1.19-1.21,1.61-2.31,2.84-3.22c0.21-0.14,0.44-0.28,0.75-0.37
		c1.47-0.51,2.52-1.35,3.64-2.52c0.75-0.75,0.86-2.89,2.19-2.89c2.12,0,0.23,3.66-0.37,4.38l-2.28,2.64l-2.19,0.89
		c-0.09,0.54-0.47,0.75-0.77,1.45c-1.38,3.17-3.31,4.36,1.12,6.32c2.28,1.03,0.82,1.1,2.77,0.28c0.58-0.23,1.12-0.7,1.58-1.21
		c0.98-1.1,1.91-2.08,2.63-3.06l6.67-2.5l0.98,1.98c-3.05,1.35-8.32,2.54-9.63,6.34c-0.05,0.14-0.07,0.26-0.12,0.4
		c-0.91,3.5-3.01,7.16-5.24,10.35c-1.1,1.52-2.21,2.92-3.26,4.15C274.51,172.11,275.56,173.23,271.18,175.89L271.18,175.89z"/>
	
		<path fill-rule="evenodd" fill="#FFFFFF" stroke="#000000" stroke-width="1.5143" stroke-linecap="round" stroke-linejoin="round" stroke-miterlimit="10" d="
		M228.76,143.12c-1.07,4.38,3.94,4.64,5.92,7.37c-2.12,0.7-7.55-5.64-6.29-0.54c-1-1.84-2.28-1.82-2.4,0.3l-1.24-1.31
		c-1.33-1.94-4.75-4.15-5.94-5.97c-2.45-3.71-2.75-4.97-6.97-4.9c-0.44-0.02-0.93,0.02-1.47,0.05c-2.61,0.16-3.17-0.3-5.27-0.96
		c-1.12-0.35-3.5-0.42-4.5-1c-4.8-2.75-0.33-7.04-0.54-10.45c-0.05-0.77-1.56-1.73-1.91-4.06c-0.44-1.98-0.37-4.27-0.75-6.27
		c-0.26-1.19,2.96-5.2,2.91-1.03c0,3.19-1.26,7.11,1.98,9.84c2.26,1.91,0.89-8.25,0.86-8.04l1.91-1.03c3.54,0.02,0.44,4.38,0.91,5.9
		l-0.23,2.01l-0.12,3.52c-0.12,2.92,2.35,0.47,2.33-0.89c0-1.68-0.49-2.75-0.26-4.27c0.05-0.26,0.12-0.51,0.26-0.79
		c0.68-1.38,0.84-2.73,0.82-4.34c0-1.05-1.47-2.66-0.51-3.59c1.49-1.52,2.77,2.4,2.84,3.36l0.26,3.47l-0.96,2.19
		c0.33,0.42,0.21,0.84,0.49,1.56c1.28,3.19,0.75,5.41,5.27,3.66c2.33-0.89,1.35,0.19,2.17-1.77c0.23-0.58,0.3-1.26,0.23-1.98
		c-0.07-1.45-0.09-2.8-0.28-4.01l2.94-6.48l2.1,0.72c-1.19,3.1-4.06,7.67-2.31,11.29c0.07,0.12,0.12,0.23,0.19,0.35
		c1.84,3.13,2.94,7.21,3.59,11.05c0.33,1.82,0.51,3.61,0.65,5.22C228.46,138.06,230,138.13,228.76,143.12L228.76,143.12z"/>
	
		<path fill-rule="evenodd" fill="#FFFFFF" stroke="#000000" stroke-width="1.5143" stroke-linecap="round" stroke-linejoin="round" stroke-miterlimit="10" d="
		M175.59,149.93c2.35,3.87,6.08,0.51,9.42,1.03c-1.03,1.98-9.35,1.35-4.85,4.08c-2-0.58-2.89,0.33-1.47,1.91l-1.79-0.05
		c-2.31-0.44-6.29,0.44-8.44,0c-4.34-0.91-5.45-1.59-8.39,1.45c-0.33,0.3-0.63,0.68-0.98,1.07c-1.75,1.98-2.47,2.03-4.41,3.05
		c-1.05,0.54-2.8,2.17-3.89,2.47c-5.34,1.47-5.22-4.76-7.78-7.02c-0.56-0.51-2.31-0.09-4.2-1.49c-1.72-1.1-3.29-2.77-4.96-3.92
		c-1.03-0.68-1.58-5.76,1.35-2.8c2.24,2.26,4.1,5.92,8.34,5.57c2.96-0.26-5.22-6.48-5.08-6.32l0.61-2.08
		c2.54-2.5,3.45,2.8,4.83,3.54l1.26,1.59l2.4,2.56c1.98,2.15,2-1.35,1.05-2.29c-1.21-1.17-2.31-1.59-3.22-2.82
		c-0.14-0.21-0.28-0.44-0.37-0.75c-0.51-1.47-1.35-2.52-2.52-3.66c-0.75-0.72-2.89-0.84-2.89-2.17c0-2.12,3.66-0.26,4.38,0.37
		l2.63,2.29l0.89,2.19c0.54,0.09,0.75,0.47,1.44,0.77c3.17,1.38,4.36,3.29,6.32-1.12c1.03-2.29,1.1-0.84,0.28-2.78
		c-0.23-0.61-0.7-1.12-1.21-1.59c-1.1-0.98-2.07-1.91-3.05-2.64l-2.49-6.67l1.98-0.98c1.35,3.03,2.54,8.33,6.34,9.63
		c0.14,0.02,0.26,0.07,0.4,0.09c3.5,0.93,7.16,3.03,10.35,5.27c1.52,1.1,2.91,2.22,4.15,3.24
		C171.82,146.6,172.94,145.55,175.59,149.93L175.59,149.93z"/>
	
		<path fill-rule="evenodd" fill="#FFFFFF" stroke="#000000" stroke-width="1.5143" stroke-linecap="round" stroke-linejoin="round" stroke-miterlimit="10" d="
		M142.84,192.38c4.38,1.07,4.64-3.94,7.37-5.95c0.7,2.15-5.64,7.58-0.54,6.32c-1.84,1-1.82,2.29,0.3,2.4l-1.31,1.24
		c-1.93,1.33-4.15,4.76-5.97,5.95c-3.71,2.45-4.96,2.75-4.89,6.97c-0.02,0.44,0.02,0.93,0.05,1.47c0.16,2.61-0.3,3.17-0.96,5.27
		c-0.35,1.12-0.42,3.5-1,4.48c-2.75,4.83-7.04,0.35-10.44,0.56c-0.77,0.05-1.73,1.56-4.06,1.91c-1.98,0.44-4.27,0.37-6.27,0.75
		c-1.19,0.23-5.2-2.96-1.03-2.94c3.19,0.02,7.11,1.28,9.84-1.96c1.91-2.29-8.25-0.89-8.04-0.86l-1.03-1.91
		c0.02-3.57,4.38-0.44,5.9-0.91l2,0.23l3.52,0.12c2.91,0.12,0.47-2.36-0.89-2.36c-1.68,0.02-2.75,0.49-4.27,0.28
		c-0.26-0.05-0.51-0.12-0.79-0.26c-1.38-0.68-2.73-0.84-4.33-0.82c-1.05,0-2.66,1.45-3.59,0.51c-1.51-1.52,2.4-2.78,3.36-2.85
		l3.47-0.26l2.19,0.93c0.42-0.3,0.84-0.19,1.56-0.47c3.19-1.28,5.41-0.77,3.66-5.27c-0.89-2.35,0.19-1.35-1.77-2.17
		c-0.58-0.23-1.26-0.3-1.98-0.26c-1.45,0.09-2.8,0.12-4.01,0.3l-6.48-2.96l0.72-2.08c3.1,1.19,7.67,4.06,11.28,2.31
		c0.12-0.07,0.23-0.12,0.35-0.21c3.12-1.82,7.2-2.94,11.05-3.59c1.82-0.3,3.61-0.51,5.22-0.63
		C137.79,192.68,137.86,191.14,142.84,192.38L142.84,192.38z"/>
	
		<path fill-rule="evenodd" fill="#FFFFFF" stroke="#000000" stroke-width="1.5143" stroke-linecap="round" stroke-linejoin="round" stroke-miterlimit="10" d="
		M149.65,245.57c3.87-2.36,0.51-6.09,1.03-9.42c1.98,1.03,1.35,9.35,4.08,4.83c-0.58,2.01,0.33,2.92,1.91,1.49l-0.05,1.8
		c-0.44,2.31,0.44,6.3,0,8.42c-0.91,4.36-1.58,5.48,1.44,8.42c0.3,0.3,0.68,0.63,1.07,0.98c1.98,1.75,2.03,2.45,3.05,4.41
		c0.54,1.05,2.17,2.77,2.47,3.87c1.47,5.36-4.75,5.25-7.02,7.79c-0.51,0.58-0.09,2.33-1.49,4.22c-1.1,1.73-2.77,3.29-3.92,4.97
		c-0.68,1.03-5.76,1.59-2.8-1.35c2.26-2.24,5.92-4.13,5.57-8.35c-0.26-2.96-6.48,5.22-6.32,5.08l-2.08-0.61
		c-2.49-2.54,2.8-3.45,3.54-4.83l1.58-1.26l2.56-2.4c2.14-1.98-1.35-2.01-2.28-1.05c-1.17,1.21-1.58,2.31-2.82,3.22
		c-0.21,0.14-0.44,0.28-0.75,0.37c-1.47,0.51-2.52,1.35-3.66,2.49c-0.72,0.75-0.84,2.92-2.17,2.92c-2.12,0-0.26-3.68,0.37-4.41
		l2.28-2.61l2.19-0.89c0.09-0.54,0.47-0.75,0.77-1.45c1.38-3.17,3.29-4.36-1.12-6.32c-2.28-1.03-0.84-1.1-2.77-0.28
		c-0.61,0.23-1.12,0.68-1.58,1.21c-0.98,1.1-1.91,2.08-2.63,3.05l-6.67,2.5l-0.98-1.98c3.03-1.35,8.32-2.56,9.63-6.37
		c0.02-0.12,0.07-0.23,0.09-0.37c0.93-3.52,3.03-7.18,5.27-10.35c1.1-1.52,2.21-2.94,3.26-4.15
		C146.32,249.35,145.27,248.2,149.65,245.57L149.65,245.57z"/>
	
		<path fill="#FFFFFF" stroke="#000000" stroke-width="1.5143" stroke-linecap="round" stroke-linejoin="round" stroke-miterlimit="10" d="
		M208.92,74c-34.92-10.96-43.84,14.08-48.39,22.83c-28.58-12.66-44.19,9.91-45.8,16.37"/>
	
		<path fill="#FFFFFF" stroke="#000000" stroke-width="1.5143" stroke-linecap="round" stroke-linejoin="round" stroke-miterlimit="10" d="
		M112.73,115.09c-32.42,16.95-21.05,41-18.06,50.39c-29.18,11.26-24.26,38.27-20.84,43.98"/>
	
		<path fill="#FFFFFF" stroke="#000000" stroke-width="1.5143" stroke-linecap="round" stroke-linejoin="round" stroke-miterlimit="10" d="
		M73.76,212.22c-10.95,34.93,14.08,43.87,22.82,48.41c-12.66,28.59,9.91,44.21,16.36,45.82"/>
	
		<path fill="#FFFFFF" stroke="#000000" stroke-width="1.5143" stroke-linecap="round" stroke-linejoin="round" stroke-miterlimit="10" d="
		M114.83,308.46c16.95,32.44,40.98,21.06,50.37,18.07c11.26,29.2,38.25,24.28,43.96,20.85"/>
	
		<path fill="#FFFFFF" stroke="#000000" stroke-width="1.5143" stroke-linecap="round" stroke-linejoin="round" stroke-miterlimit="10" d="
		M211.91,347.45c34.92,10.96,43.84-14.09,48.39-22.83c28.58,12.66,44.19-9.91,45.8-16.37"/>
	
		<path fill="#FFFFFF" stroke="#000000" stroke-width="1.5143" stroke-linecap="round" stroke-linejoin="round" stroke-miterlimit="10" d="
		M308.1,306.36c32.42-16.95,21.05-41,18.07-50.4c29.18-11.26,24.26-38.27,20.84-43.98"/>
	
		<path fill="#FFFFFF" stroke="#000000" stroke-width="1.5143" stroke-linecap="round" stroke-linejoin="round" stroke-miterlimit="10" d="
		M347.07,209.24c10.95-34.93-14.08-43.86-22.82-48.41c12.66-28.59-9.91-44.21-16.36-45.82"/>
	
		<path fill="#FFFFFF" stroke="#000000" stroke-width="1.5143" stroke-linecap="round" stroke-linejoin="round" stroke-miterlimit="10" d="
		M306,112.99c-16.95-32.44-40.98-21.06-50.37-18.07c-11.26-29.2-38.25-24.28-43.96-20.85"/>
	
		<path fill-rule="evenodd" fill="#FFFFFF" stroke="#000000" stroke-width="3.0286" stroke-linecap="round" stroke-linejoin="round" stroke-miterlimit="10" d="
		M116.41,104.58c0,6.74-5.45,12.17-12.17,12.17s-12.17-5.43-12.17-12.17c0-6.72,5.45-12.15,12.17-12.15S116.41,97.86,116.41,104.58
		L116.41,104.58z"/>
	
		<path fill-rule="evenodd" fill="#FFFFFF" stroke="#000000" stroke-width="3.0286" stroke-linecap="round" stroke-linejoin="round" stroke-miterlimit="10" d="
		M68.93,202.17c4.73,4.76,4.73,12.48,0,17.21c-4.75,4.76-12.45,4.76-17.2,0c-4.75-4.73-4.75-12.45,0-17.21
		C56.49,197.44,64.18,197.44,68.93,202.17L68.93,202.17z"/>
	
		<path fill-rule="evenodd" fill="#FFFFFF" stroke="#000000" stroke-width="3.0286" stroke-linecap="round" stroke-linejoin="round" stroke-miterlimit="10" d="
		M104.32,304.78c6.74,0,12.17,5.46,12.17,12.17c0,6.72-5.43,12.17-12.17,12.17c-6.71,0-12.14-5.46-12.14-12.17
		C92.17,310.23,97.6,304.78,104.32,304.78L104.32,304.78z"/>
	
		<path fill-rule="evenodd" fill="#FFFFFF" stroke="#000000" stroke-width="3.0286" stroke-linecap="round" stroke-linejoin="round" stroke-miterlimit="10" d="
		M201.86,352.28c4.75-4.76,12.47-4.76,17.2,0c4.76,4.76,4.76,12.45,0,17.21c-4.73,4.76-12.45,4.76-17.2,0
		C197.13,364.73,197.13,357.04,201.86,352.28L201.86,352.28z"/>
	
		<path fill-rule="evenodd" fill="#FFFFFF" stroke="#000000" stroke-width="3.0286" stroke-linecap="round" stroke-linejoin="round" stroke-miterlimit="10" d="
		M304.42,316.86c0-6.72,5.46-12.15,12.17-12.15s12.17,5.43,12.17,12.15c0,6.74-5.45,12.17-12.17,12.17S304.42,323.6,304.42,316.86
		L304.42,316.86z"/>
	
		<path fill-rule="evenodd" fill="#FFFFFF" stroke="#000000" stroke-width="3.0286" stroke-linecap="round" stroke-linejoin="round" stroke-miterlimit="10" d="
		M351.9,219.26c-4.76-4.73-4.76-12.45,0-17.21c4.75-4.73,12.45-4.73,17.2,0c4.75,4.76,4.75,12.48,0,17.21
		C364.35,224.02,356.65,224.02,351.9,219.26L351.9,219.26z"/>
	
		<path fill-rule="evenodd" fill="#FFFFFF" stroke="#000000" stroke-width="3.0286" stroke-linecap="round" stroke-linejoin="round" stroke-miterlimit="10" d="
		M316.49,116.68c-6.71,0-12.14-5.46-12.14-12.17c0-6.72,5.43-12.17,12.14-12.17c6.74,0,12.17,5.46,12.17,12.17
		C328.66,111.22,323.23,116.68,316.49,116.68L316.49,116.68z"/>
	
		<path fill-rule="evenodd" fill="#FFFFFF" stroke="#000000" stroke-width="3.0286" stroke-linecap="round" stroke-linejoin="round" stroke-miterlimit="10" d="
		M218.95,69.18c-4.73,4.73-12.45,4.73-17.2,0c-4.73-4.76-4.73-12.45,0-17.21c4.75-4.76,12.47-4.76,17.2,0
		C223.7,56.72,223.7,64.42,218.95,69.18L218.95,69.18z"/>
	
		<path fill-rule="evenodd" fill="#FFFFFF" stroke="#000000" stroke-width="1.5143" stroke-linecap="round" stroke-linejoin="round" stroke-miterlimit="10" d="
		M112.15,104.58c0,4.38-3.54,7.91-7.9,7.91s-7.9-3.52-7.9-7.91c0-4.36,3.54-7.88,7.9-7.88S112.15,100.21,112.15,104.58
		L112.15,104.58z"/>
	
		<path fill-rule="evenodd" fill="#FFFFFF" stroke="#000000" stroke-width="1.5143" stroke-linecap="round" stroke-linejoin="round" stroke-miterlimit="10" d="
		M65.9,205.2c3.1,3.08,3.1,8.09,0,11.17c-3.08,3.08-8.09,3.08-11.16,0c-3.08-3.08-3.08-8.09,0-11.17
		C57.81,202.1,62.83,202.1,65.9,205.2L65.9,205.2z"/>
	
		<path fill-rule="evenodd" fill="#FFFFFF" stroke="#000000" stroke-width="1.5143" stroke-linecap="round" stroke-linejoin="round" stroke-miterlimit="10" d="
		M104.32,309.05c4.38,0,7.9,3.54,7.9,7.91c0,4.36-3.52,7.91-7.9,7.91c-4.36,0-7.88-3.54-7.88-7.91
		C96.44,312.59,99.96,309.05,104.32,309.05L104.32,309.05z"/>
	
		<path fill-rule="evenodd" fill="#FFFFFF" stroke="#000000" stroke-width="1.5143" stroke-linecap="round" stroke-linejoin="round" stroke-miterlimit="10" d="
		M204.89,355.29c3.08-3.08,8.09-3.08,11.17,0c3.08,3.1,3.08,8.09,0,11.19c-3.08,3.08-8.09,3.08-11.17,0
		C201.79,363.38,201.79,358.39,204.89,355.29L204.89,355.29z"/>
	
		<path fill-rule="evenodd" fill="#FFFFFF" stroke="#000000" stroke-width="1.5143" stroke-linecap="round" stroke-linejoin="round" stroke-miterlimit="10" d="
		M308.69,316.86c0-4.36,3.54-7.91,7.9-7.91c4.36,0,7.9,3.54,7.9,7.91c0,4.38-3.54,7.91-7.9,7.91
		C312.23,324.76,308.69,321.24,308.69,316.86L308.69,316.86z"/>
	
		<path fill-rule="evenodd" fill="#FFFFFF" stroke="#000000" stroke-width="1.5143" stroke-linecap="round" stroke-linejoin="round" stroke-miterlimit="10" d="
		M354.91,216.26c-3.08-3.08-3.08-8.09,0-11.17c3.1-3.1,8.09-3.1,11.19,0c3.08,3.08,3.08,8.09,0,11.17
		C362.99,219.33,358.01,219.33,354.91,216.26L354.91,216.26z"/>
	
		<path fill-rule="evenodd" fill="#FFFFFF" stroke="#000000" stroke-width="1.5143" stroke-linecap="round" stroke-linejoin="round" stroke-miterlimit="10" d="
		M316.49,112.41c-4.36,0-7.9-3.54-7.9-7.91c0-4.36,3.54-7.91,7.9-7.91c4.38,0,7.9,3.54,7.9,7.91
		C324.39,108.87,320.88,112.41,316.49,112.41L316.49,112.41z"/>
	
		<path fill-rule="evenodd" fill="#FFFFFF" stroke="#000000" stroke-width="1.5143" stroke-linecap="round" stroke-linejoin="round" stroke-miterlimit="10" d="
		M215.94,66.14c-3.08,3.1-8.09,3.1-11.17,0c-3.1-3.08-3.1-8.09,0-11.17c3.08-3.08,8.09-3.08,11.17,0
		C219.02,58.05,219.02,63.07,215.94,66.14L215.94,66.14z"/>
	
		<polygon fill-rule="evenodd" fill="#FFFFFF" stroke="#000000" stroke-width="1.5143" stroke-linecap="round" stroke-linejoin="round" stroke-miterlimit="10" points="
		199.02,237.13 175.17,245.97 183.68,221.34 	"/>
	
		<polygon fill-rule="evenodd" fill="#FFFFFF" stroke="#000000" stroke-width="1.5143" stroke-linecap="round" stroke-linejoin="round" stroke-miterlimit="10" points="
		199.81,183.98 210.44,160.87 221.81,184.31 	"/>
	
		<polygon fill-rule="evenodd" fill="#FFFFFF" stroke="#000000" stroke-width="1.5143" stroke-linecap="round" stroke-linejoin="round" stroke-miterlimit="10" points="
		184.01,199.32 175.2,175.47 199.81,183.98 	"/>
	
		<polygon fill-rule="evenodd" fill="#FFFFFF" stroke="#000000" stroke-width="1.5143" stroke-linecap="round" stroke-linejoin="round" stroke-miterlimit="10" points="
		183.68,221.34 160.58,210.71 184.01,199.32 	"/>
	
		<polygon fill-rule="evenodd" fill="#FFFFFF" stroke="#000000" stroke-width="1.5143" stroke-linecap="round" stroke-linejoin="round" stroke-miterlimit="10" points="
		221.02,237.48 210.39,260.59 199.02,237.13 	"/>
	
		<polygon fill-rule="evenodd" fill="#FFFFFF" stroke="#000000" stroke-width="1.5143" stroke-linecap="round" stroke-linejoin="round" stroke-miterlimit="10" points="
		236.8,222.13 245.64,245.99 221.02,237.48 	"/>
	
		<polygon fill-rule="evenodd" fill="#FFFFFF" stroke="#000000" stroke-width="1.5143" stroke-linecap="round" stroke-linejoin="round" stroke-miterlimit="10" points="
		237.15,200.12 260.25,210.75 236.8,222.13 	"/>
	
		<polygon fill-rule="evenodd" fill="#FFFFFF" stroke="#000000" stroke-width="1.5143" stroke-linecap="round" stroke-linejoin="round" stroke-miterlimit="10" points="
		221.81,184.31 245.66,175.49 237.15,200.12 	"/>
	
		<polygon fill-rule="evenodd" fill="#FFFFFF" stroke="#000000" stroke-width="1.5143" stroke-linecap="round" stroke-linejoin="round" stroke-miterlimit="10" points="
		323.7,229.99 322.25,228.45 322.2,224.49 323.11,221.92 324.75,219.87 325.93,222.46 326.96,225.12 327.52,228.8 327.75,230.25 
		324.44,237.06 319.76,241.77 318.01,241.49 319.2,236.96 321.6,231.76 	"/>
	
		<polygon fill-rule="evenodd" fill="#FFFFFF" stroke="#000000" stroke-width="1.5143" stroke-linecap="round" stroke-linejoin="round" stroke-miterlimit="10" points="
		332.6,228.29 338.31,226.1 340.06,223.69 339.41,220.99 337.21,219.12 333.74,218.28 330.01,219.12 328.99,218.96 327.17,221.53 
		327.08,224.58 327.68,228.45 	"/>
	
		<polygon fill-rule="evenodd" fill="#FFFFFF" stroke="#000000" stroke-width="1.5143" stroke-linecap="round" stroke-linejoin="round" stroke-miterlimit="10" points="
		327.45,230.27 330.01,232.6 336.07,235.54 340.04,235 342.13,233.26 343.13,230.99 341.81,227.59 340.2,226.45 338.12,226.49 
		333.14,228.45 327.68,228.45 	"/>
	
		<polygon fill-rule="evenodd" fill="#FFFFFF" stroke="#000000" stroke-width="1.5143" stroke-linecap="round" stroke-linejoin="round" stroke-miterlimit="10" points="
		304.12,144.2 302.02,144.13 299.2,141.37 298.03,138.9 297.73,136.31 300.39,137.29 303,138.46 306,140.65 307.17,141.51 
		309.66,148.67 309.66,155.32 308.24,156.37 305.89,152.31 303.91,146.92 	"/>
	
		<polygon fill-rule="evenodd" fill="#FFFFFF" stroke="#000000" stroke-width="1.5143" stroke-linecap="round" stroke-linejoin="round" stroke-miterlimit="10" points="
		309.22,136.71 311.71,131.11 311.25,128.18 308.89,126.73 306,126.96 302.97,128.83 300.92,132.05 300.08,132.65 300.62,135.78 
		302.69,137.99 305.86,140.3 	"/>
	
		<polygon fill-rule="evenodd" fill="#FFFFFF" stroke="#000000" stroke-width="1.5143" stroke-linecap="round" stroke-linejoin="round" stroke-miterlimit="10" points="
		306.98,141.75 310.43,141.58 316.8,139.37 319.22,136.17 319.48,133.49 318.59,131.16 315.26,129.71 313.3,130.02 311.88,131.53 
		309.71,136.45 305.86,140.3 	"/>
	
		<polygon fill-rule="evenodd" fill="#FFFFFF" stroke="#000000" stroke-width="1.5143" stroke-linecap="round" stroke-linejoin="round" stroke-miterlimit="10" points="
		229.67,97.39 228.13,98.84 224.17,98.89 221.6,97.95 219.55,96.34 222.14,95.15 224.8,94.13 228.48,93.57 229.92,93.34 
		236.73,96.65 241.44,101.33 241.16,103.08 236.64,101.87 231.44,99.47 	"/>
	
		<polygon fill-rule="evenodd" fill="#FFFFFF" stroke="#000000" stroke-width="1.5143" stroke-linecap="round" stroke-linejoin="round" stroke-miterlimit="10" points="
		227.97,88.48 225.78,82.77 223.38,81.02 220.67,81.68 218.81,83.87 217.97,87.32 218.81,91.05 218.64,92.1 221.21,93.92 
		224.26,94.01 228.13,93.41 	"/>
	
		<polygon fill-rule="evenodd" fill="#FFFFFF" stroke="#000000" stroke-width="1.5143" stroke-linecap="round" stroke-linejoin="round" stroke-miterlimit="10" points="
		229.95,93.64 232.28,91.07 235.22,85.01 234.68,81.02 232.93,78.95 230.67,77.92 227.27,79.27 226.13,80.86 226.17,82.93 
		228.13,87.95 228.13,93.41 	"/>
	
		<polygon fill-rule="evenodd" fill="#FFFFFF" stroke="#000000" stroke-width="1.5143" stroke-linecap="round" stroke-linejoin="round" stroke-miterlimit="10" points="
		143.92,116.96 143.85,119.08 141.1,121.9 138.63,123.07 136.04,123.37 137.02,120.71 138.18,118.1 140.37,115.09 141.24,113.93 
		148.39,111.43 155.04,111.41 156.08,112.85 152.03,115.21 146.64,117.19 	"/>
	
		<polygon fill-rule="evenodd" fill="#FFFFFF" stroke="#000000" stroke-width="1.5143" stroke-linecap="round" stroke-linejoin="round" stroke-miterlimit="10" points="
		136.43,111.88 130.84,109.36 127.9,109.85 126.46,112.2 126.69,115.09 128.56,118.12 131.77,120.18 132.38,121.02 135.5,120.48 
		137.72,118.4 140.02,115.23 	"/>
	
		<polygon fill-rule="evenodd" fill="#FFFFFF" stroke="#000000" stroke-width="1.5143" stroke-linecap="round" stroke-linejoin="round" stroke-miterlimit="10" points="
		141.47,114.09 141.31,110.66 139.09,104.3 135.9,101.85 133.22,101.61 130.89,102.5 129.44,105.83 129.75,107.79 131.26,109.22 
		136.18,111.36 140.02,115.23 	"/>
	
		<polygon fill-rule="evenodd" fill="#FFFFFF" stroke="#000000" stroke-width="1.5143" stroke-linecap="round" stroke-linejoin="round" stroke-miterlimit="10" points="
		97.14,191.47 98.58,193.01 98.63,196.95 97.7,199.51 96.09,201.56 94.9,199 93.87,196.34 93.31,192.66 93.08,191.21 96.39,184.38 
		101.08,179.69 102.82,179.97 101.61,184.47 99.21,189.69 	"/>
	
		<polygon fill-rule="evenodd" fill="#FFFFFF" stroke="#000000" stroke-width="1.5143" stroke-linecap="round" stroke-linejoin="round" stroke-miterlimit="10" points="
		88.23,193.17 82.52,195.34 80.77,197.76 81.43,200.44 83.62,202.33 87.07,203.17 90.8,202.33 91.85,202.5 93.66,199.91 
		93.76,196.88 93.15,193.01 	"/>
	
		<polygon fill-rule="evenodd" fill="#FFFFFF" stroke="#000000" stroke-width="1.5143" stroke-linecap="round" stroke-linejoin="round" stroke-miterlimit="10" points="
		93.38,191.16 90.82,188.85 84.76,185.92 80.77,186.45 78.7,188.2 77.67,190.46 79.03,193.84 80.61,195.01 82.69,194.96 
		87.7,192.98 93.15,193.01 	"/>
	
		<polygon fill-rule="evenodd" fill="#FFFFFF" stroke="#000000" stroke-width="1.5143" stroke-linecap="round" stroke-linejoin="round" stroke-miterlimit="10" points="
		116.69,277.26 118.81,277.31 121.63,280.08 122.8,282.53 123.1,285.14 120.44,284.16 117.83,283 114.83,280.81 113.66,279.94 
		111.17,272.76 111.14,266.14 112.59,265.09 114.94,269.12 116.93,274.51 	"/>
	
		<polygon fill-rule="evenodd" fill="#FFFFFF" stroke="#000000" stroke-width="1.5143" stroke-linecap="round" stroke-linejoin="round" stroke-miterlimit="10" points="
		111.61,284.75 109.09,290.34 109.58,293.28 111.94,294.73 114.83,294.49 117.86,292.63 119.91,289.41 120.75,288.8 120.21,285.68 
		118.14,283.46 114.97,281.16 	"/>
	
		<polygon fill-rule="evenodd" fill="#FFFFFF" stroke="#000000" stroke-width="1.5143" stroke-linecap="round" stroke-linejoin="round" stroke-miterlimit="10" points="
		113.83,279.71 110.4,279.87 104.04,282.09 101.59,285.26 101.36,287.96 102.24,290.3 105.57,291.74 107.53,291.44 108.95,289.92 
		111.1,285 114.97,281.16 	"/>
	
		<polygon fill-rule="evenodd" fill="#FFFFFF" stroke="#000000" stroke-width="1.5143" stroke-linecap="round" stroke-linejoin="round" stroke-miterlimit="10" points="
		191.16,324.06 192.7,322.62 196.64,322.57 199.2,323.48 201.26,325.11 198.69,326.3 196.03,327.33 192.35,327.89 190.91,328.12 
		184.08,324.81 179.39,320.12 179.67,318.37 184.17,319.56 189.39,321.97 	"/>
	
		<polygon fill-rule="evenodd" fill="#FFFFFF" stroke="#000000" stroke-width="1.5143" stroke-linecap="round" stroke-linejoin="round" stroke-miterlimit="10" points="
		192.86,332.97 195.03,338.69 197.46,340.43 200.14,339.78 202.02,337.59 202.86,334.12 202.02,330.38 202.19,329.36 199.6,327.54 
		196.57,327.45 192.7,328.05 	"/>
	
		<polygon fill-rule="evenodd" fill="#FFFFFF" stroke="#000000" stroke-width="1.5143" stroke-linecap="round" stroke-linejoin="round" stroke-miterlimit="10" points="
		190.86,327.82 188.55,330.38 185.62,336.45 186.15,340.41 187.9,342.51 190.16,343.51 193.54,342.18 194.71,340.57 194.66,338.5 
		192.68,333.51 192.7,328.05 	"/>
	
		<polygon fill-rule="evenodd" fill="#FFFFFF" stroke="#000000" stroke-width="1.5143" stroke-linecap="round" stroke-linejoin="round" stroke-miterlimit="10" points="
		276.92,304.48 276.96,302.38 279.74,299.55 282.18,298.39 284.79,298.08 283.81,300.74 282.65,303.36 280.46,306.36 279.6,307.53 
		272.42,310.03 265.8,310.03 264.75,308.6 268.78,306.25 274.17,304.26 	"/>
	
		<polygon fill-rule="evenodd" fill="#FFFFFF" stroke="#000000" stroke-width="1.5143" stroke-linecap="round" stroke-linejoin="round" stroke-miterlimit="10" points="
		284.4,309.58 289.99,312.08 292.93,311.61 294.37,309.26 294.14,306.36 292.28,303.33 289.06,301.28 288.45,300.44 285.33,300.98 
		283.12,303.05 280.81,306.22 	"/>
	
		<polygon fill-rule="evenodd" fill="#FFFFFF" stroke="#000000" stroke-width="1.5143" stroke-linecap="round" stroke-linejoin="round" stroke-miterlimit="10" points="
		279.36,307.34 279.53,310.79 281.74,317.16 284.91,319.59 287.61,319.84 289.94,318.96 291.39,315.62 291.09,313.66 289.57,312.24 
		284.65,310.07 280.81,306.22 	"/>
	
		<polygon fill-rule="evenodd" fill="#FFFFFF" stroke="#000000" stroke-width="1.5143" stroke-linecap="round" stroke-linejoin="round" stroke-miterlimit="10" points="
		326.63,189.09 325.21,190.63 325.14,194.59 326.07,197.16 327.68,199.21 328.87,196.62 329.9,193.96 330.48,190.28 330.69,188.83 
		327.38,182.02 322.69,177.31 320.95,177.59 322.16,182.11 324.56,187.32 	"/>
	
		<polygon fill-rule="evenodd" fill="#FFFFFF" stroke="#000000" stroke-width="1.5143" stroke-linecap="round" stroke-linejoin="round" stroke-miterlimit="10" points="
		335.54,190.79 341.25,192.98 343,195.38 342.34,198.09 340.15,199.95 336.7,200.79 332.97,199.95 331.95,200.12 330.11,197.53 
		330.01,194.5 330.62,190.63 	"/>
	
		<polygon fill-rule="evenodd" fill="#FFFFFF" stroke="#000000" stroke-width="1.5143" stroke-linecap="round" stroke-linejoin="round" stroke-miterlimit="10" points="
		330.41,188.81 332.95,186.48 339.01,183.54 343,184.07 345.07,185.82 346.09,188.08 344.74,191.49 343.16,192.63 341.08,192.59 
		336.07,190.63 330.62,190.63 	"/>
	
		<polygon fill-rule="evenodd" fill="#FFFFFF" stroke="#000000" stroke-width="1.5143" stroke-linecap="round" stroke-linejoin="round" stroke-miterlimit="10" points="
		277.31,113.2 277.38,115.3 280.13,118.15 282.6,119.31 285.19,119.62 284.21,116.96 283.07,114.35 280.85,111.34 279.99,110.15 
		272.84,107.68 266.19,107.65 265.14,109.1 269.2,111.43 274.58,113.44 	"/>
	
		<polygon fill-rule="evenodd" fill="#FFFFFF" stroke="#000000" stroke-width="1.5143" stroke-linecap="round" stroke-linejoin="round" stroke-miterlimit="10" points="
		284.79,108.1 290.39,105.6 293.33,106.07 294.77,108.45 294.54,111.32 292.7,114.37 289.46,116.4 288.85,117.26 285.73,116.73 
		283.51,114.63 281.2,111.46 	"/>
	
		<polygon fill-rule="evenodd" fill="#FFFFFF" stroke="#000000" stroke-width="1.5143" stroke-linecap="round" stroke-linejoin="round" stroke-miterlimit="10" points="
		279.76,110.34 279.92,106.88 282.14,100.54 285.33,98.09 288.03,97.86 290.36,98.75 291.81,102.08 291.48,104.02 289.99,105.46 
		285.05,107.61 281.2,111.46 	"/>
	
		<polygon fill-rule="evenodd" fill="#FFFFFF" stroke="#000000" stroke-width="1.5143" stroke-linecap="round" stroke-linejoin="round" stroke-miterlimit="10" points="
		188.79,94.43 190.32,95.88 194.29,95.92 196.85,95.01 198.9,93.41 196.31,92.22 193.66,91.17 189.97,90.61 188.53,90.4 
		181.72,93.69 177.01,98.37 177.29,100.14 181.82,98.93 187.01,96.53 	"/>
	
		<polygon fill-rule="evenodd" fill="#FFFFFF" stroke="#000000" stroke-width="1.5143" stroke-linecap="round" stroke-linejoin="round" stroke-miterlimit="10" points="
		190.49,85.55 192.68,79.81 195.08,78.06 197.78,78.74 199.65,80.93 200.49,84.38 199.65,88.11 199.81,89.14 197.22,90.96 
		194.19,91.07 190.32,90.44 	"/>
	
		<polygon fill-rule="evenodd" fill="#FFFFFF" stroke="#000000" stroke-width="1.5143" stroke-linecap="round" stroke-linejoin="round" stroke-miterlimit="10" points="
		188.51,90.68 186.17,88.13 183.24,82.07 183.77,78.08 185.52,76.01 187.78,74.98 191.16,76.33 192.33,77.92 192.28,80 
		190.32,85.01 190.32,90.44 	"/>
	
		<polygon fill-rule="evenodd" fill="#FFFFFF" stroke="#000000" stroke-width="1.5143" stroke-linecap="round" stroke-linejoin="round" stroke-miterlimit="10" points="
		112.94,143.8 115.04,143.73 117.88,140.98 119.05,138.51 119.35,135.92 116.69,136.9 114.08,138.04 111.07,140.26 109.89,141.12 
		107.42,148.28 107.39,154.92 108.84,155.95 111.17,151.92 113.17,146.53 	"/>
	
		<polygon fill-rule="evenodd" fill="#FFFFFF" stroke="#000000" stroke-width="1.5143" stroke-linecap="round" stroke-linejoin="round" stroke-miterlimit="10" points="
		107.84,136.31 105.34,130.72 105.81,127.78 108.18,126.33 111.05,126.57 114.1,128.41 116.13,131.65 117,132.26 116.46,135.36 
		114.36,137.6 111.19,139.91 	"/>
	
		<polygon fill-rule="evenodd" fill="#FFFFFF" stroke="#000000" stroke-width="1.5143" stroke-linecap="round" stroke-linejoin="round" stroke-miterlimit="10" points="
		110.07,141.35 106.62,141.19 100.28,138.97 97.84,135.78 97.6,133.07 98.49,130.74 101.82,129.29 103.76,129.62 105.2,131.11 
		107.35,136.06 111.19,139.91 	"/>
	
		<polygon fill-rule="evenodd" fill="#FFFFFF" stroke="#000000" stroke-width="1.5143" stroke-linecap="round" stroke-linejoin="round" stroke-miterlimit="10" points="
		94.18,232.37 95.62,230.83 95.67,226.87 94.76,224.3 93.15,222.25 91.96,224.81 90.91,227.5 90.35,231.18 90.14,232.63 
		93.43,239.44 98.12,244.15 99.89,243.87 98.67,239.34 96.27,234.14 	"/>
	
		<polygon fill-rule="evenodd" fill="#FFFFFF" stroke="#000000" stroke-width="1.5143" stroke-linecap="round" stroke-linejoin="round" stroke-miterlimit="10" points="
		85.3,230.67 79.56,228.48 77.81,226.07 78.49,223.37 80.68,221.5 84.13,220.66 87.86,221.5 88.89,221.34 90.7,223.9 90.82,226.96 
		90.19,230.83 	"/>
	
		<polygon fill-rule="evenodd" fill="#FFFFFF" stroke="#000000" stroke-width="1.5143" stroke-linecap="round" stroke-linejoin="round" stroke-miterlimit="10" points="
		90.42,232.65 87.88,234.98 81.82,237.9 77.84,237.38 75.76,235.63 74.74,233.35 76.09,229.97 77.67,228.83 79.75,228.87 
		84.76,230.83 90.19,230.83 	"/>
	
		<polygon fill-rule="evenodd" fill="#FFFFFF" stroke="#000000" stroke-width="1.5143" stroke-linecap="round" stroke-linejoin="round" stroke-miterlimit="10" points="
		143.52,308.25 143.45,306.15 140.7,303.31 138.23,302.14 135.64,301.84 136.62,304.5 137.76,307.11 139.98,310.12 140.84,311.28 
		148,313.78 154.64,313.8 155.66,312.36 151.63,310.03 146.25,308.02 	"/>
	
		<polygon fill-rule="evenodd" fill="#FFFFFF" stroke="#000000" stroke-width="1.5143" stroke-linecap="round" stroke-linejoin="round" stroke-miterlimit="10" points="
		136.04,313.34 130.44,315.85 127.51,315.39 126.06,313.01 126.3,310.12 128.14,307.09 131.38,305.03 131.98,304.2 135.08,304.73 
		137.32,306.81 139.63,309.98 	"/>
	
		<polygon fill-rule="evenodd" fill="#FFFFFF" stroke="#000000" stroke-width="1.5143" stroke-linecap="round" stroke-linejoin="round" stroke-miterlimit="10" points="
		141.07,311.12 140.91,314.55 138.7,320.92 135.5,323.36 132.8,323.6 130.47,322.71 129.02,319.38 129.35,317.44 130.84,316 
		135.78,313.85 139.63,309.98 	"/>
	
		<polygon fill-rule="evenodd" fill="#FFFFFF" stroke="#000000" stroke-width="1.5143" stroke-linecap="round" stroke-linejoin="round" stroke-miterlimit="10" points="
		232.05,327 230.51,325.58 226.55,325.51 223.98,326.44 221.93,328.05 224.49,329.24 227.18,330.27 230.86,330.85 232.3,331.06 
		239.11,327.75 243.82,323.06 243.54,321.31 239.02,322.52 233.82,324.93 	"/>
	
		<polygon fill-rule="evenodd" fill="#FFFFFF" stroke="#000000" stroke-width="1.5143" stroke-linecap="round" stroke-linejoin="round" stroke-miterlimit="10" points="
		230.35,335.91 228.15,341.62 225.75,343.37 223.05,342.72 221.18,340.53 220.35,337.08 221.18,333.35 221.02,332.32 223.58,330.48 
		226.64,330.38 230.51,330.99 	"/>
	
		<polygon fill-rule="evenodd" fill="#FFFFFF" stroke="#000000" stroke-width="1.5143" stroke-linecap="round" stroke-linejoin="round" stroke-miterlimit="10" points="
		232.33,330.78 234.66,333.32 237.57,339.39 237.06,343.37 235.31,345.45 233.03,346.47 229.65,345.12 228.5,343.54 228.55,341.46 
		230.51,336.45 230.51,330.99 	"/>
	
		<polygon fill-rule="evenodd" fill="#FFFFFF" stroke="#000000" stroke-width="1.5143" stroke-linecap="round" stroke-linejoin="round" stroke-miterlimit="10" points="
		307.89,277.66 305.79,277.73 302.95,280.48 301.79,282.95 301.48,285.54 304.14,284.56 306.75,283.42 309.76,281.2 310.92,280.34 
		313.42,273.18 313.44,266.53 312,265.48 309.66,269.54 307.66,274.93 	"/>
	
		<polygon fill-rule="evenodd" fill="#FFFFFF" stroke="#000000" stroke-width="1.5143" stroke-linecap="round" stroke-linejoin="round" stroke-miterlimit="10" points="
		312.97,285.14 315.49,290.74 315.03,293.68 312.65,295.12 309.76,294.89 306.73,293.05 304.68,289.81 303.84,289.2 304.37,286.08 
		306.45,283.86 309.62,281.55 	"/>
	
		<polygon fill-rule="evenodd" fill="#FFFFFF" stroke="#000000" stroke-width="1.5143" stroke-linecap="round" stroke-linejoin="round" stroke-miterlimit="10" points="
		310.76,280.11 314.19,280.27 320.55,282.48 323,285.68 323.23,288.38 322.34,290.72 319.01,292.16 317.08,291.84 315.63,290.34 
		313.49,285.4 309.62,281.55 	"/>
	
		<path fill-rule="evenodd" fill="#FFFFFF" stroke="#000000" stroke-width="1.5143" stroke-linecap="round" stroke-linejoin="round" stroke-miterlimit="10" d="
		M219.86,204.48c2-1.26,4.17-2.24,6.53-1.28c4.01,1.66,3.52,7.95,5.78,10.91c0.58,0.77,0.58,1.35,1,1.8
		c0.02-0.16,1.98-0.16,2.52,0.28c1.38,1.05,0.44,5.01,3.36,2.52c-0.63,2.8-3.01,1.03-4.8,0.91c-1.77-0.14-2.56,0.47-4.24-0.35
		c-0.51-0.23-0.19-1.91-0.58-2.33c-0.42-0.42-1.12,0.37-1.38,0.12c-0.19-0.19-1.7-2.1-1.59-2.1c-1.03-0.44-1.65,1.28-2.82,0.05
		c-2.07-2.22,0.44-5.18-2.75-6.16l-1.4-0.72c-1.26,0.63,0.61,3.1,1.05,3.71c1.54,2.15,2.77,3.92,4.52,5.18
		c0.47,0.33,2.21,0.98,3.17,1.75c1.21,0.96,2.56,2.12,3.5,3.36c1.28,1.66-0.28,3.75-2.49,3.89c0.37-3.71,0.61-4.22-2.8-6.79
		c-1.35-1-1.75-0.42-3.19-0.93c-3.47-1.21,2.4,3.64,2.84,4.01c0.75,0.58,1.73,3.38,1.03,4.15c-2.05,2.33-5.57-0.7-3.75-1.4
		c3.64-1.42-7.34-6.62-7.74-6.88c-4.38-2.64-7.79,0.93-12.8,1.38c-2.05,0.19-4.71-1.31-6.36-0.26c-1.79,1.14-1.52,4.08-1.86,5.25
		c-0.33,1.17,0.51,1.54-1.35,2.36c-0.98,0.42-1.49-0.56-1.47-1.49c0.02-0.93-0.05-2.33,0.21-3.94c0.33-2.03,2.12-2.38,1-4.06
		c-1.03-1.49-1.96-1.68-3.31-0.65c-2.17,1.61-1.07,3.15-1.54,4.17c-0.44,0.98-2.59,2.38-1.84,0.09c0.7-2.17-0.14-5.62,2.28-7.21
		c2.19-1.47,4.36,0.49,6.53,0.68c-1.26-1.77-0.05-4.01,0.14-5.99c0.09-0.93,0.47-5.36-0.05-5.9c-1.38-1.38-2.14,0.65-3.45,0.35
		c-4.31-1,0.63-2.85,0.09-5.74c-0.33-1.7-3.36-2.54-4.38-3.69c0.37-0.77,3.19,1.17,4.64,1.91c1.28-0.14,2.28-0.14,3.45-0.68
		c-0.09,0.3-0.33,0.72-0.49,1c0.63-0.42,1.68-1.05,2.31-1.91c-0.23,0.37-0.7,1.8-1.1,2.38c3.08-2.03,3.03,2.08,5.76,1.1
		c-0.72,0.35-1.4,0.98-1.89,1.28c1.07-0.21,2.31-0.35,3.29-0.86c-4.06,2.84,1.86,3.82,2.66,4.85c-2.38-0.79-1.07,3.22,2.12,1.42
		c-1.33,0.96-1.86,2.17-0.65,3.47c1.84,1.96,4.82-0.7,6.97-1.12C218.5,205.57,216.43,206.58,219.86,204.48L219.86,204.48z"/>
</g>
</svg>
