<?xml version="1.0" encoding="utf-8"?>
<svg version="1.2" baseProfile="tiny" id="Layer_1" xmlns="http://www.w3.org/2000/svg" xmlns:xlink="http://www.w3.org/1999/xlink"
	 x="0px" y="0px" width="326.55px" height="326.7px" viewBox="0 0 326.55 326.7" xml:space="preserve">
<g>
	<g id="XMLID_1_">
		<g>
			<path fill="#FFFFFE" stroke="#000000" stroke-width="1,5" stroke-linecap="round" stroke-linejoin="round" d="M326.05,163.28c-2.21,53.26-25.02,102.43-69.43,133.6c-42.99,30.18-99.8,37.65-149.16,19.67
				c-56.59-20.62-97.76-72.43-105.6-132C-5.98,124.91,20.44,64.29,69.77,29.68C119.03-4.89,185.06-9,238.33,18.74
				C293.33,47.38,323.52,102.5,326.05,163.28z M319.89,163.28c-0.89-20.53-5.03-40.38-12.32-58.69c0.38-1.19-0.22-2.39-1.45-3.53
				c-13.73-32.31-37.47-59.54-70.63-76.83C184.28-2.48,120.65,1.48,73.28,34.74c-47.35,33.24-72.97,91.71-65.32,149
				c7.66,57.36,47.11,107.11,101.64,127c47.48,17.33,102.09,10.07,143.47-18.92C295.84,261.86,317.68,214.49,319.89,163.28z"/>
			<path fill="#FFFFFE" stroke="#000000" stroke-width="1,5" stroke-linecap="round" stroke-linejoin="round" d="M303.7,209.21c-2.07-0.2-4.03,0.11-5.9,0.76c-5.46-12.73-16.98-24.8-24.85-35.97
				c2.55-0.8,4.93,0.21,7.77,4.04c6.84,9.25,13.69,18.5,20.54,27.75C302.27,207.16,303.09,208.27,303.7,209.21z"/>
			<path fill="#FFFFFE" stroke="#000000" stroke-width="1,5" stroke-linecap="round" stroke-linejoin="round" d="M305.09,212.74c-9.2,1.1-15.2,8.13-24.18,11.64c-7.53,2.93-18.48,3.75-26.3,1.75l-0.05,0.13
				c-7.14-2.74-13.75-6.98-19.05-11.94c0.8-1.03,1.6-2.07,2.41-3.11c11.34,8.14,20.01,11.93,34.08,11.84
				c10.15-0.06,17.18-10.11,25.8-13.08c1.87-0.65,3.83-0.96,5.9-0.76C304.65,210.68,305.11,211.75,305.09,212.74z"/>
			<path fill="#FFFFFE" stroke="#000000" stroke-width="1,5" stroke-linecap="round" stroke-linejoin="round" d="M295.54,143.69c8.21-12.25,1.2-26.61-4.92-37.8c0.45-1.29,1.1-2.15,1.88-2.69l0.36,0.07
				c8.18,13.95,21.49,46.14-4.4,52.24c-10.14,2.39-18.68-2.01-25.76-8.66C274.19,151.26,286.57,157.06,295.54,143.69z"/>
			<path fill="#FFFFFE" stroke="#000000" stroke-width="1,5" stroke-linecap="round" stroke-linejoin="round" d="M294.46,165.62l-0.05-0.02c0.16-0.32,0.25-0.67,0.28-1.04l0.14,0.02c0.85-0.74,2.49-1.38,3.63-1.77
				c0.8,5.39-4.57,5.67-4.92,10.49c-0.12-0.26-0.24-0.51-0.36-0.75C292.92,170.2,293.4,167.77,294.46,165.62z"/>
			<path fill="#FFFFFE" stroke="#000000" stroke-width="1,5" stroke-linecap="round" stroke-linejoin="round" d="M295.34,177.62c5.68-2.95,3.29,7.58,2.88,4.98c-4.29,2.23-4.4-1.33-4.52-4.81
				c-0.01-0.3-0.02-0.61-0.04-0.9c-0.05-1.27-0.16-2.45-0.53-3.26l0.02-0.01c0.12,0.21,0.24,0.43,0.35,0.65
				c0.06,1.19,0.74,2.64,1.17,3.74C294.91,177.86,295.13,177.73,295.34,177.62z"/>
			<path fill="#FFFFFE" stroke="#000000" stroke-width="1,5" stroke-linecap="round" stroke-linejoin="round" d="M294.46,165.62c-1.06,2.15-1.54,4.58-1.28,6.93c-0.92-1.89-1.83-3.7-2.3-5.44
				c1.96,0.1,3.05-0.55,3.53-1.51L294.46,165.62z"/>
			<path fill="#FFFFFE" stroke="#000000" stroke-width="1,5" stroke-linecap="round" stroke-linejoin="round" d="M290.41,169.41c-0.77-1.59-1.66-2.99-2.82-3.87l0.17-0.21c1.84-9.56,7.23-4.38,6.93-0.77
				c-0.03,0.37-0.12,0.72-0.28,1.04c-0.48,0.96-1.57,1.61-3.53,1.51c0.47,1.74,1.38,3.55,2.3,5.44c0.12,0.24,0.24,0.49,0.36,0.75
				c0.67,1.37,1.31,2.79,1.76,4.24l0.04,0.08c-0.21,0.11-0.43,0.24-0.67,0.39c-0.43-1.1-1.11-2.55-1.17-3.74
				c-0.11-0.22-0.23-0.44-0.35-0.65C292.33,172.09,291.38,170.65,290.41,169.41z"/>
			<path fill="#FFFFFE" stroke="#000000" stroke-width="1,5" stroke-linecap="round" stroke-linejoin="round" d="M290.29,107.07c0.09-0.43,0.21-0.82,0.33-1.18c6.12,11.19,13.13,25.55,4.92,37.8
				c-8.97,13.37-21.35,7.57-32.84,3.16c-1.36-1.28-2.66-2.65-3.91-4.06C282.95,147.37,300.4,130.99,290.29,107.07z"/>
			<path fill="#FFFFFE" stroke="#000000" stroke-width="1,5" stroke-linecap="round" stroke-linejoin="round" d="M293.66,176.89c-1.15-2.14-2.06-5.03-3.25-7.48c0.97,1.24,1.92,2.68,2.74,4.21l-0.02,0.01
				C293.5,174.44,293.61,175.62,293.66,176.89z"/>
			<path fill="#FFFFFE" stroke="#000000" stroke-width="1,5" stroke-linecap="round" stroke-linejoin="round" d="M289.38,106.51c4.21,6.86-4.43,17.71-9.73,21.71c-6.51,4.91-17.76,8.48-26,8.16
				c-2.36-3.2-4.48-6.43-6.37-9.37l0.58-0.35c7.11-12.16,26.5-18.17,38.13-25.4c1.09,1.84,2.36,3.58,3.62,5.05L289.38,106.51z"/>
			<path fill="#FFFFFE" stroke="#000000" stroke-width="1,5" stroke-linecap="round" stroke-linejoin="round" d="M290.62,105.89c-0.12,0.36-0.24,0.75-0.33,1.18c-0.23-0.24-0.45-0.5-0.68-0.76
				c-1.26-1.47-2.53-3.21-3.62-5.05c-1.15-1.94-2.11-3.97-2.65-5.89c0.33-0.19,0.75-0.33,1.25-0.44c0.79-0.16,1.78-0.22,2.89-0.18
				c5.78,0.21,14.99,2.96,18.64,6.31c0.5,1.17,0.98,2.35,1.45,3.53c-0.05,0.18-0.13,0.36-0.23,0.54c-1.49,2.65-10.37-5-14.84-1.93
				C291.72,103.74,291.07,104.6,290.62,105.89z"/>
			<path fill="#FFFFFE" stroke="#000000" stroke-width="1,5" stroke-linecap="round" stroke-linejoin="round" d="M287.59,165.54c1.16,0.88,2.05,2.28,2.82,3.87c1.19,2.45,2.1,5.34,3.25,7.48c0.02,0.29,0.03,0.6,0.04,0.9
				c-2.29-2.83-3.83-6.48-5.82-8.82c-3.56,5.87-12.13-3.35-3.87-4.39C285.45,164.4,286.62,164.78,287.59,165.54z"/>
			<path fill="#FFFFFE" stroke="#000000" stroke-width="1,5" stroke-linecap="round" stroke-linejoin="round" d="M290.29,107.07c10.11,23.92-7.34,40.3-31.5,35.72c-1.83-2.06-3.54-4.23-5.14-6.41
				c8.24,0.32,19.49-3.25,26-8.16c5.3-4,13.94-14.85,9.73-21.71l0.23-0.2C289.84,106.57,290.06,106.83,290.29,107.07z"/>
			<path fill="#FFFFFE" stroke="#000000" stroke-width="1,5" stroke-linecap="round" stroke-linejoin="round" d="M272.95,174c7.87,11.17,19.39,23.24,24.85,35.97c-8.62,2.97-15.65,13.02-25.8,13.08
				c-14.07,0.09-22.74-3.7-34.08-11.84c8.73-11.26,18.05-22.87,28.4-32.5C268.84,176.36,270.95,174.63,272.95,174z M278.21,200.02
				c3.15,0.66,3.53-0.9,2.09-3.72C279.43,197.35,278.89,198.82,278.21,200.02z M272.02,208.83c3.15,0.61,3.56-0.92,2.09-3.72
				C273.23,206.16,272.69,207.63,272.02,208.83z M271.35,193.62c3.16,0.66,3.55-0.89,2.09-3.71
				C272.56,190.95,272.02,192.42,271.35,193.62z M270.83,184.49c3.17,0.61,3.57-0.94,2.09-3.75
				C272.04,181.8,271.5,183.29,270.83,184.49z M264.08,190.66c3.15,0.63,3.56-0.91,2.1-3.72C265.3,188,264.76,189.46,264.08,190.66z
				 M262.62,198.87c3.15,0.64,3.56-0.9,2.09-3.71C263.84,196.21,263.3,197.67,262.62,198.87z M262.03,210.92
				c3.15,0.61,3.57-0.92,2.09-3.71C263.24,208.25,262.7,209.72,262.03,210.92z M256.03,196.26c3.15,0.64,3.56-0.9,2.09-3.71
				C257.25,193.6,256.71,195.07,256.03,196.26z M253.94,206.61c3.16,0.66,3.55-0.89,2.09-3.71
				C255.15,203.95,254.61,205.42,253.94,206.61z"/>
			<path fill="#FFFFFE" stroke="#000000" stroke-width="1,5" stroke-linecap="round" stroke-linejoin="round" d="M283.34,95.37c-14.36-10.4-39.48,6.75-40.18,22.96l-0.88,0.31c-1.75-3.27-3.45-6.91-4.88-10.71l0.59-0.23
				c0.48-13.85,5.18-22.12,18.41-26.79c10.57-3.74,23.82,4.17,28.17,13.95l0.02,0.07C284.09,95.04,283.67,95.18,283.34,95.37z"/>
			<path fill="#FFFFFE" stroke="#000000" stroke-width="1,5" stroke-linecap="round" stroke-linejoin="round" d="M285.99,101.26c-11.63,7.23-31.02,13.24-38.13,25.4l-0.58,0.35c-0.39-0.6-0.76-1.18-1.13-1.75
				c-1.26-1.96-2.58-4.19-3.87-6.62l0.88-0.31c0.7-16.21,25.82-33.36,40.18-22.96C283.88,97.29,284.84,99.32,285.99,101.26z"/>
			<path d="M280.3,196.3c1.44,2.82,1.06,4.38-2.09,3.72C278.89,198.82,279.43,197.35,280.3,196.3z"/>
			<path d="M274.11,205.11c1.47,2.8,1.06,4.33-2.09,3.72C272.69,207.63,273.23,206.16,274.11,205.11z"/>
			<path d="M273.44,189.91c1.46,2.82,1.07,4.37-2.09,3.71C272.02,192.42,272.56,190.95,273.44,189.91z"/>
			<path d="M272.92,180.74c1.48,2.81,1.08,4.36-2.09,3.75C271.5,183.29,272.04,181.8,272.92,180.74z"/>
			<path fill="#FFFFFE" stroke="#000000" stroke-width="1,5" stroke-linecap="round" stroke-linejoin="round" d="M260.14,283.33c5.7-5.78,10.48-15.54,11.83-23.56c1.59-9.52-1.48-18.25,2.24-26.74
				c2.42,1.11,3.18,3.89,3.8,9.1c0.96,7.97-1.46,16.58-4.06,23.95c-2.4,6.79-7.49,12.75-13.63,17.48L260.14,283.33z"/>
			<path fill="#FFFFFE" stroke="#000000" stroke-width="1,5" stroke-linecap="round" stroke-linejoin="round" d="M268.34,232.57c0.77-0.08,1.47-0.13,2.11-0.14c-1.2,1.69-1.91,3.52-2.3,5.45
				c-13.76-1.62-29.78,2.03-43.43,3.16c0.78-2.98,3.46-4.21,9.09-4.8C245.32,235.02,256.83,233.79,268.34,232.57z"/>
			<path fill="#FFFFFE" stroke="#000000" stroke-width="1,5" stroke-linecap="round" stroke-linejoin="round" d="M268.15,237.88c-1.8,8.97,3.27,20.1-1.85,28.9c-7.07,12.18-14.68,17.74-27.48,23.38
				c-5.25-13.23-10.57-27.2-13.54-40.99c-0.78-3.62-1.06-6.24-0.56-8.13C238.37,239.91,254.39,236.26,268.15,237.88z M254.06,259.55
				c2.16-2.38,1.04-3.53-2.13-3.71C252.39,257.13,253.37,258.35,254.06,259.55z M250.78,269.23c2.2-2.39,1.06-3.53-2.13-3.72
				C249.1,266.81,250.09,268.03,250.78,269.23z M249.64,249.75c2.13-2.4,1.02-3.53-2.13-3.67
				C247.96,247.36,248.95,248.57,249.64,249.75z M243.01,274.05c2.13-2.39,1.02-3.53-2.14-3.72
				C241.33,271.63,242.32,272.85,243.01,274.05z M240.72,262.63c2.19-2.39,1.05-3.53-2.13-3.71
				C239.04,260.21,240.03,261.43,240.72,262.63z M240.68,252.44c2.14-2.41,0.99-3.55-2.17-3.71
				C238.97,250.02,239.98,251.24,240.68,252.44z M235.15,266.98c2.14-2.42,1-3.55-2.17-3.68
				C233.45,264.59,234.45,265.79,235.15,266.98z M234.4,257.18c2.14-2.41,1.04-3.54-2.13-3.68
				C232.72,254.79,233.71,256,234.4,257.18z M232.51,248.21c2.16-2.37,1.03-3.5-2.14-3.67
				C230.84,245.82,231.82,247.03,232.51,248.21z"/>
			<path d="M266.18,186.94c1.46,2.81,1.05,4.35-2.1,3.72C264.76,189.46,265.3,188,266.18,186.94z"/>
			<path d="M264.71,195.16c1.47,2.81,1.06,4.35-2.09,3.71C263.3,197.67,263.84,196.21,264.71,195.16z"/>
			<path d="M264.12,207.21c1.48,2.79,1.06,4.32-2.09,3.71C262.7,209.72,263.24,208.25,264.12,207.21z"/>
			<path fill="#FFFFFE" stroke="#000000" stroke-width="1,5" stroke-linecap="round" stroke-linejoin="round" d="M278.72,228.86c-7.99,1.58-16.38,0.38-24.16-2.6l0.05-0.13c7.82,2,18.77,1.18,26.3-1.75
				c8.98-3.51,14.98-10.54,24.18-11.64c-0.04,1.87-1.79,3.51-5.23,7.17C295.16,224.91,285.25,227.57,278.72,228.86z"/>
			<path fill="#FFFFFE" stroke="#000000" stroke-width="1,5" stroke-linecap="round" stroke-linejoin="round" d="M260.32,283.56c-6.19,4.79-13.43,8.34-20.04,10.28c-0.49-1.22-0.97-2.45-1.46-3.68
				c12.8-5.64,20.41-11.2,27.48-23.38c5.12-8.8,0.05-19.93,1.85-28.9c0.39-1.93,1.1-3.76,2.3-5.45c1.58-0.03,2.8,0.15,3.76,0.6
				c-3.72,8.49-0.65,17.22-2.24,26.74c-1.35,8.02-6.13,17.78-11.83,23.56L260.32,283.56z"/>
			<path d="M258.12,192.55c1.47,2.81,1.06,4.35-2.09,3.71C256.71,195.07,257.25,193.6,258.12,192.55z"/>
			<path d="M256.03,202.9c1.46,2.82,1.07,4.37-2.09,3.71C254.61,205.42,255.15,203.95,256.03,202.9z"/>
			<path d="M251.93,255.84c3.17,0.18,4.29,1.33,2.13,3.71C253.37,258.35,252.39,257.13,251.93,255.84z"/>
			<path d="M248.65,265.51c3.19,0.19,4.33,1.33,2.13,3.72C250.09,268.03,249.1,266.81,248.65,265.51z"/>
			<path d="M247.51,246.08c3.15,0.14,4.26,1.27,2.13,3.67C248.95,248.57,247.96,247.36,247.51,246.08z"/>
			<path fill="#FFFFFE" stroke="#000000" stroke-width="1,5" stroke-linecap="round" stroke-linejoin="round" d="M243.24,152.02c3.04,1.73,10.4,0.31,4.39-2.51c0.07-0.85,0.16-1.7,0.15-2.55
				c10.16-2.09,20.47,6.28,20.11,16.64c-0.4,11.48-6.87,17.23-16.34,20.04c-5.12,1.53-13.64-1.95-16.74-6.16
				c-6.34-8.61-7.95-20.35,1.64-27.59C238.83,150.94,241.15,151.87,243.24,152.02z"/>
			<path fill="#FFFFFE" stroke="#000000" stroke-width="1,5" stroke-linecap="round" stroke-linejoin="round" d="M245.23,149.54c0.44,0.63,0.83,1.29,1.17,1.97c-0.97,0.47-2.04,0.61-3.16,0.51
				c-2.09-0.15-4.41-1.08-6.79-2.13c-4.17-1.83-8.54-4-12.31-2.97C229.93,137.98,240.34,142.37,245.23,149.54z"/>
			<path fill="#FFFFFE" stroke="#000000" stroke-width="1,5" stroke-linecap="round" stroke-linejoin="round" d="M247.63,149.51c6.01,2.82-1.35,4.24-4.39,2.51c1.12,0.1,2.19-0.04,3.16-0.51
				c-0.34-0.68-0.73-1.34-1.17-1.97l1.06-0.16c0.32,0.93,0.8,1.86,1.25,2.36C247.51,150.99,247.57,150.25,247.63,149.51z"/>
			<path fill="#FFFFFE" stroke="#000000" stroke-width="1,5" stroke-linecap="round" stroke-linejoin="round" d="M247.78,146.96c0.01,0.85-0.08,1.7-0.15,2.55c-0.06,0.74-0.12,1.48-0.09,2.23
				c-0.45-0.5-0.93-1.43-1.25-2.36C245.66,147.58,245.66,145.75,247.78,146.96z"/>
			<path d="M240.87,270.33c3.16,0.19,4.27,1.33,2.14,3.72C242.32,272.85,241.33,271.63,240.87,270.33z"/>
			<path d="M238.59,258.92c3.18,0.18,4.32,1.32,2.13,3.71C240.03,261.43,239.04,260.21,238.59,258.92z"/>
			<path d="M238.51,248.73c3.16,0.16,4.31,1.3,2.17,3.71C239.98,251.24,238.97,250.02,238.51,248.73z"/>
			<path fill="#FFFFFE" stroke="#000000" stroke-width="1,5" stroke-linecap="round" stroke-linejoin="round" d="M256.4,80.91c-13.23,4.67-17.93,12.94-18.41,26.79l-0.59,0.23c-0.67-1.74-1.27-3.52-1.8-5.32l0.18-0.05
				c-0.84-11.1-0.53-25.07,12.2-29.41c10.28-3.5,18.95-1.23,27.2,4.51c3.77,4.02,7.09,8.31,9.74,11.83l2.57,4.46l-0.01,0.8
				c-1.11-0.04-2.1,0.02-2.89,0.18l-0.02-0.07C280.22,85.08,266.97,77.17,256.4,80.91z"/>
			<path fill="#FFFFFE" stroke="#000000" stroke-width="1,5" stroke-linecap="round" stroke-linejoin="round" d="M237.56,39.04c11.13-1.73,13.12,13.94,3.99,18.02c-8.95,3.99-18.33-10.03-9.7-16.52
				c1.85,0.57,3.61,1.03,5.04,0.79c-0.16-0.34-0.36-0.67-0.57-0.99l0.53-0.07l0.16-0.01c0.03,0.32,0.16,0.72,0.43,1.19
				C237.43,40.76,237.32,39.71,237.56,39.04z"/>
			<path fill="#FFFFFE" stroke="#000000" stroke-width="1,5" stroke-linecap="round" stroke-linejoin="round" d="M236.32,40.34c0.21,0.32,0.41,0.65,0.57,0.99c-1.43,0.24-3.19-0.22-5.04-0.79
				c-2.04-0.62-4.18-1.38-6.09-1.5C228.62,34.55,233.92,36.74,236.32,40.34z"/>
			<path fill="#FFFFFE" stroke="#000000" stroke-width="1,5" stroke-linecap="round" stroke-linejoin="round" d="M247.98,73.15c-12.73,4.34-13.04,18.31-12.2,29.41l-0.18,0.05c-3.12-10.57-3.62-21.73,2.71-29.71
				c12.38-15.61,26.35-6.48,36.87,4.76C266.93,71.92,258.26,69.65,247.98,73.15z"/>
			<path d="M232.98,263.3c3.17,0.13,4.31,1.26,2.17,3.68C234.45,265.79,233.45,264.59,232.98,263.3z"/>
			<path d="M232.27,253.5c3.17,0.14,4.27,1.27,2.13,3.68C233.71,256,232.72,254.79,232.27,253.5z"/>
			<path d="M230.37,244.54c3.17,0.17,4.3,1.3,2.14,3.67C231.82,247.03,230.84,245.82,230.37,244.54z"/>
			<path fill="#FFFFFE" stroke="#000000" stroke-width="1,5" stroke-linecap="round" stroke-linejoin="round" d="M231.6,193.67c-2.27,1.49-5,2.77-6.93,4.19c-0.29,0.05-0.59,0.1-0.89,0.15c2.52-2.64,5.94-4.6,7.98-6.96
				c-6.24-2.68,1.63-12.42,3.83-4.42c0.39,1.41,0.16,2.63-0.46,3.7C234.39,191.61,233.1,192.68,231.6,193.67z"/>
			<path fill="#FFFFFE" stroke="#000000" stroke-width="1,5" stroke-linecap="round" stroke-linejoin="round" d="M237.05,197.37c0.84,0.77,1.65,2.31,2.21,3.4c-5.19,1.38-6.29-3.74-11.02-3.53
				c0.23-0.15,0.46-0.31,0.7-0.46c2.23-0.55,4.69-0.41,6.91,0.32v-0.05c0.38,0.14,0.78,0.2,1.19,0.17L237.05,197.37z"/>
			<path fill="#FFFFFE" stroke="#000000" stroke-width="1,5" stroke-linecap="round" stroke-linejoin="round" d="M224.67,197.86c1.93-1.42,4.66-2.7,6.93-4.19c-1.12,1.15-2.45,2.28-3.89,3.31
				C226.95,197.4,225.85,197.64,224.67,197.86z"/>
			<path fill="#FFFFFE" stroke="#000000" stroke-width="1,5" stroke-linecap="round" stroke-linejoin="round" d="M226.94,69.5c0.7-0.39,1.15-1.55,1.34-2.29c0.01,0.02,0.03,0.04,0.03,0.06
				c-0.02,0.35-0.03,0.65,0.01,0.89c0.03-0.38,0.18-0.53-0.01-0.89c0.05-0.77,0.15-1.75-0.18-2.59c0.96-0.3,0.88-0.7,2.21-1.27
				c-0.12,0.71-0.51,1.2-0.6,1.63c0.3-0.59,1.63-1.78,2.17-2.93c0.24,0.75,0.54,1.7,0.71,2.29c0.52-0.98,1.25-1.56,1.94-2.41
				c1.03,2.25,1.4,1.06,1.26,3.56c0.58-0.14,2.27-0.21,3.04-0.51c-1.36,1.76-2.81,2.28-4.97,2.13c1.13,0.18,1.82,0.4,2.92,0.79
				c-0.95,0-1.93,0.02-2.88-0.04c0.22,0.34,0.53,0.55,0.94,0.63c-2.25,1.31-4.86,1.45-7.45,1.54c-0.03-0.05-0.06-0.09-0.1-0.14
				c-0.12-0.15-0.26-0.29-0.4-0.42L226.94,69.5z"/>
			<path fill="#FFFFFE" stroke="#000000" stroke-width="1,5" stroke-linecap="round" stroke-linejoin="round" d="M190.27,90.28c4.62-5.03,30.04-26.68,36.65-20.75c0.14,0.13,0.28,0.27,0.4,0.42
				c0.04,0.05,0.07,0.09,0.1,0.14C232.06,76.68,195.64,92.29,190.27,90.28z"/>
			<path fill="#FFFFFE" stroke="#000000" stroke-width="1,5" stroke-linecap="round" stroke-linejoin="round" d="M226.15,131.01c0.17-0.15,0.34-0.29,0.5-0.42c0.15-0.12,0.3-0.23,0.44-0.33
				c6.71-4.94,5.34,6.54,4.03,9.71c0.2-0.67,0.37-1.39,0.4-2.09c-2.17,1.56-6.28,1.69-6.99-1.72c-0.29-1.39,0.34-3.23,1.14-4.38
				c0-0.01,0.01-0.01,0.01-0.02c0.1-0.14,0.14-0.35,0.14-0.61c-0.01-0.61-0.26-1.5-0.58-2.45l0.03-0.01
				C225.56,129.49,225.87,130.27,226.15,131.01z"/>
			<path fill="#FFFFFE" stroke="#000000" stroke-width="1,5" stroke-linecap="round" stroke-linejoin="round" d="M223.25,270.74c1.1,5.43,6.01,28.3,1.99,31.59c-4.82-7.31-23.71-47.48-14.03-53.82
				c0.22-0.15,0.45-0.27,0.69-0.38c0.07-0.03,0.14-0.06,0.2-0.08C221.21,244.39,222.31,266.01,223.25,270.74z"/>
			<path fill="#FFFFFE" stroke="#000000" stroke-width="1,5" stroke-linecap="round" stroke-linejoin="round" d="M231.84,108.21c0.03,7.65-6.76,8.6-7.35,15.23c-0.21-0.44-0.42-0.86-0.64-1.29v-0.01
				c-0.15-3.85,1.48-6.47,2.3-10.41l-0.13-0.04c0.1-0.28,0.19-0.57,0.25-0.87l0.16,0.04C227.71,109.77,230.13,108.81,231.84,108.21z
				"/>
			<path fill="#FFFFFE" stroke="#000000" stroke-width="1,5" stroke-linecap="round" stroke-linejoin="round" d="M227.18,197.36c0.18-0.12,0.36-0.25,0.53-0.38c1.44-1.03,2.77-2.16,3.89-3.31
				c1.5-0.99,2.79-2.06,3.53-3.34l0.22,0.13c9.64,0.6,5.31,6.58,1.69,6.76c-0.41,0.03-0.81-0.03-1.19-0.17
				c-0.96-0.37-1.71-1.35-1.88-3.23c-1.65,0.68-3.31,1.81-5.03,2.96c-0.24,0.15-0.47,0.31-0.7,0.46c-1.28,0.85-2.6,1.67-3.98,2.3
				l-0.1,0.07c-0.13-0.2-0.28-0.41-0.46-0.62C224.72,198.43,226.04,197.6,227.18,197.36z"/>
			<path fill="#FFFFFE" stroke="#000000" stroke-width="1,5" stroke-linecap="round" stroke-linejoin="round" d="M220.51,114.69c0.68,2.32,2.02,4.83,3.34,7.45v0.01c0.22,0.43,0.43,0.85,0.64,1.29
				c1.08,2.21,2.08,4.5,2.6,6.82c-0.14,0.1-0.29,0.21-0.44,0.33c-1.46-4.55-4.27-9.25-7.08-12.73c-1.1-2.3-2.37-4.31-4.07-5.55
				l0.27-0.35c0.82-3.27,4.82-12.28,8.88-7.74c1.56,1.74,2.11,4.39,1.62,6.6c-0.06,0.3-0.15,0.59-0.25,0.87
				C225.24,113.77,223.42,115.22,220.51,114.69z"/>
			<path fill="#FFFFFE" stroke="#000000" stroke-width="1,5" stroke-linecap="round" stroke-linejoin="round" d="M223.85,122.14c-1.32-2.62-2.66-5.13-3.34-7.45c2.91,0.53,4.73-0.92,5.51-3l0.13,0.04
				C225.33,115.67,223.7,118.29,223.85,122.14z"/>
			<path fill="#FFFFFE" stroke="#000000" stroke-width="1,5" stroke-linecap="round" stroke-linejoin="round" d="M225.82,131.15c-2.67-3.35-4.14-8.87-6.25-13.29c2.81,3.48,5.62,8.18,7.08,12.73
				c-0.16,0.13-0.33,0.27-0.5,0.42c-0.28-0.74-0.59-1.52-0.88-2.32l-0.03,0.01C225.56,129.65,225.81,130.54,225.82,131.15z"/>
			<path fill="#FFFFFE" stroke="#000000" stroke-width="1,5" stroke-linecap="round" stroke-linejoin="round" d="M227.71,196.98c-0.17,0.13-0.35,0.26-0.53,0.38c-1.14,0.24-2.46,1.07-3.48,1.63
				c0.18,0.21,0.33,0.42,0.46,0.62c2.67,3.89-2.63,4.89-5.86,3.69c0.24-0.34,0.68,0.02,1.34-0.16c-2.79-3.94,0.71-4.54,4.14-5.13
				c0.3-0.05,0.6-0.1,0.89-0.15C225.85,197.64,226.95,197.4,227.71,196.98z"/>
			<path fill="#FFFFFE" stroke="#000000" stroke-width="1,5" stroke-linecap="round" stroke-linejoin="round" d="M225.64,131.76c-4.1-4.14-6.47-10.49-9.67-14.34c-4.7,11.35-20.14-10.06-3.06-6.3
				c0.97,0.21,1.82,0.62,2.59,1.19c1.7,1.24,2.97,3.25,4.07,5.55c2.11,4.42,3.58,9.94,6.25,13.29c0,0.26-0.04,0.47-0.14,0.61
				c0,0.01-0.01,0.01-0.01,0.02L225.64,131.76z"/>
			<path fill="#FFFFFE" stroke="#000000" stroke-width="1,5" stroke-linecap="round" stroke-linejoin="round" d="M214.35,148.33c7.43,0.21,3.03,38.76-1.26,42.33c-0.51-1.6-1.27-4.71-2-8.54
				c-0.73-3.84-1.44-8.4-1.86-12.92c-0.88-9.62-0.42-19.02,3.99-20.66c0.2-0.07,0.4-0.13,0.62-0.17
				C214.02,148.34,214.19,148.32,214.35,148.33z"/>
			<path fill="#FFFFFE" stroke="#000000" stroke-width="1,5" stroke-linecap="round" stroke-linejoin="round" d="M212.1,248.05c-0.06,0.02-0.13,0.05-0.2,0.08c-0.24,0.11-0.47,0.23-0.69,0.38l-0.02-0.02
				c-0.66-1.05-1.37-1.88-2.44-2.53c0.01,0,0.02,0,0.03,0c0.43,0.11,0.82,0.22,1.19,0.28c-0.41-0.14-0.67-0.4-1.19-0.28
				c-0.97-0.27-2.08-0.61-3.31-0.67c-0.19-1.24-0.27-1.19-0.87-3.2c1.27,0.48,1.03,0.45,1.86,1.3c-0.83-0.97-1.51-2.36-2.96-3.75
				c1.15,0.12,2.24-0.12,3.11-0.16c-1.05-0.75-1.51-2.39-2.4-3.28c2.05-1.44,2.96-1.94,5.01-0.39c-0.03-0.87,0.49-3,0.31-4.11
				c2.43,1.95,1.53,4.64,1.03,7.11c0.6-1.34,1.19-2.21,2.05-3.44c-0.5,1.17-0.63,2.49-1.06,3.68c0.07-0.02,1.12-0.78,1.15-0.96
				C213.76,241.31,212.81,244.78,212.1,248.05z"/>
			<path fill="#FFFFFE" stroke="#000000" stroke-width="1,5" stroke-linecap="round" stroke-linejoin="round" d="M211.38,145.03c0.38,0.23,0.75,0.44,1.12,0.63C212.16,145.44,211.89,145.04,211.38,145.03z
				 M215.34,137.68c0.97-1.25,2.22-2.02,3.23-3.2c-0.89,1.11-1.41,2.58-2.25,3.75c0.36-0.08,1.29-0.75,1.58-0.75
				c0.33,3.91-1.98,7.32-3.55,10.79v0.06c-0.16-0.01-0.33,0.01-0.51,0.04c-0.22,0.04-0.42,0.1-0.62,0.17l-0.01-0.03
				c-0.66-1.31-0.88-2.37-1.94-3.48c0.03,0,0.06,0,0.09,0c-1.01-0.59-2.11-1.24-3.52-1.7c0.11-1.55,0.81-1.09,0-3.79
				c1.26,0.88,1.03,0.74,1.66,1.97c-0.47-1.63-0.86-2.91-2.08-4.82c-0.03-0.05-0.07-0.1-0.1-0.15c1.14,0.42,2.6,0.48,3.48,0.75
				c-0.91-1.16-0.98-3.09-1.7-4.31c2.24-0.98,4.31-1.52,5.61,1.03c0.17-0.95,1.43-3.14,1.57-4.43
				C218.38,132.77,216.5,134.78,215.34,137.68z"/>
			<path fill="#FFFFFE" stroke="#000000" stroke-width="1,5" stroke-linecap="round" stroke-linejoin="round" d="M207.43,169.3c0.17,2-1.37,3.53-6.1,3.07l-0.12,0.04c-0.61-1.94-2.16-3.16-3.85-3.6l0.1-0.32
				C196.61,156.88,207.03,164.45,207.43,169.3z"/>
			<path fill="#FFFFFE" stroke="#000000" stroke-width="1,5" stroke-linecap="round" stroke-linejoin="round" d="M204.01,273.53c7.3,18.53-7.47,26-22.41,29.51c9.03-4.31,15.27-10.63,17.37-21.26
				c2.63-13.22-9.33-20.43-19.35-25.31l0.04-0.16C190.37,258.91,200.29,264.08,204.01,273.53z"/>
			<path fill="#FFFFFE" stroke="#000000" stroke-width="1,5" stroke-linecap="round" stroke-linejoin="round" d="M197.65,147.95c5.45-1.04,9.69,5.28,5.51,9.46c-4.19,4.2-10.44-0.15-9.41-5.55l-0.1-0.33
				c1.7-0.44,3.26-1.67,3.9-3.61L197.65,147.95z"/>
			<path fill="#FFFFFE" stroke="#000000" stroke-width="1,5" stroke-linecap="round" stroke-linejoin="round" d="M201.44,222.73c6.11,3.74-3.43,16-6.9,19.02c-5.69,4.97-13.9,8.31-21.39,9.02
				c-11.09,1.07-21.72-0.72-31.54-6.08c-9.44-5.17-7.81-11.92-10.38-20.58c-0.85-2.84-6.45-6.04-2.06-8.11
				c4.78-2.26,2.8,1.62,4.58,3.53c5.68,6.09,12.02,10.09,20.16,13.21c16.87,6.46,31.49-2.63,45.76-10.4
				C200.36,222,200.95,222.13,201.44,222.73z"/>
			<path fill="#FFFFFE" stroke="#000000" stroke-width="1,5" stroke-linecap="round" stroke-linejoin="round" d="M201.21,172.41c0.1,0.32,0.18,0.66,0.23,1.02c-0.36,2.68-2.31,4.28-4.41,4.68
				c-2.74,0.54-5.72-0.94-5.73-4.68c0-2.04,0.87-3.41,2.11-4.15h0.01c1.15-0.68,2.59-0.83,3.94-0.47
				C199.05,169.25,200.6,170.47,201.21,172.41z"/>
			<path fill="#FFFFFE" stroke="#000000" stroke-width="1,5" stroke-linecap="round" stroke-linejoin="round" d="M197.18,186.43c4.35-0.68,7.49,1.66,8.99,4.89c2.04,4.42,1,10.53-4.21,12.88
				c-2.58,1.17-5.25,0.95-7.55-0.11c-5.95-2.74-9.52-11.13-3.07-16.08c1.28,0.41,2.51,0.75,3.56,0.82l-0.01,0.13
				c1.29,0.31,2.03,0.71,3.36,0.04c0.23-1.21-0.54-0.62-1.23-1.31H197C197.01,187.24,197.05,186.79,197.18,186.43z"/>
			<path fill="#FFFFFE" stroke="#000000" stroke-width="1,5" stroke-linecap="round" stroke-linejoin="round" d="M198.21,128.71c-0.76,2.48-3.27,3.2-6.21,3.03c-4.1-0.25-9.02-2.22-11.16-3.54
				c-3.07-1.9-5.67-4.43-7.81-7.31c-2.06-2.76-3.72-5.83-4.99-8.97c-0.06-0.14-0.12-0.27-0.17-0.41
				c-2.89-7.27-3.66-15.42-1.52-22.99c1.95-6.84,8.9-6.12,12.28-11.2c0.73-1.1,3.14-5.88,4.62-1.42c0.99,2.99-1.58,1.63-2.09,3.47
				c-1.74,6.16-3.75,11.1-3.69,18.17c0.08,8.3,3.97,14.51,9.13,19.84c3.47,3.57,7.5,6.76,11.37,9.91
				C198.47,127.69,198.55,128.16,198.21,128.71z"/>
			<path fill="#FFFFFE" stroke="#000000" stroke-width="1,5" stroke-linecap="round" stroke-linejoin="round" d="M187.65,148.2c-0.09-0.41-0.14-0.86-0.14-1.35c0-0.64,0.08-1.21,0.23-1.72c0.9-3,4.18-3.81,6.77-2.67
				c1.63,0.71,2.99,2.2,3.3,4.39c-0.05,0.38-0.14,0.74-0.26,1.07c-0.64,1.94-2.2,3.17-3.9,3.61c-0.4,0.11-0.81,0.18-1.22,0.19
				C190.29,151.82,188.2,150.69,187.65,148.2z"/>
			<path fill="#FFFFFE" stroke="#000000" stroke-width="1,5" stroke-linecap="round" stroke-linejoin="round" d="M197.1,178.45c-2.01,3.53-4.2,4.62-6.15,4.29c-2.96-0.5-5.37-4.27-5.82-7.77
				c-0.52-4.01,1.53-7.68,8.28-5.69c-1.24,0.74-2.11,2.11-2.11,4.15c0.01,3.74,2.99,5.22,5.73,4.68L197.1,178.45z"/>
			<path fill="#FFFFFE" stroke="#000000" stroke-width="1,5" stroke-linecap="round" stroke-linejoin="round" d="M195.92,187.72c-1.24-1.85-3.23-3.32-5.27-3.71l0.3-1.27c1.95,0.33,4.14-0.76,6.15-4.29l-0.07-0.34
				c2.1-0.4,4.05-2,4.41-4.68c-0.05-0.36-0.13-0.7-0.23-1.02l0.12-0.04c4.73,0.46,6.27-1.07,6.1-3.07l1.8-0.1
				c0.42,4.52,1.13,9.08,1.86,12.92l-4.52,9.01l-0.4,0.19c-1.5-3.23-4.64-5.57-8.99-4.89c0.04-0.11-1.24,0.54-0.12,2.41
				c-0.03-0.34-0.06-0.75-0.06-1.15h0.02c0.69,0.69,1.46,0.1,1.23,1.31c-1.33,0.67-2.07,0.27-3.36-0.04l0.01-0.13
				c0.58,0.04,1.11,0,1.57-0.15C196.31,188.35,196.12,188.03,195.92,187.72z"/>
			<path fill="#FFFFFE" stroke="#000000" stroke-width="1,5" stroke-linecap="round" stroke-linejoin="round" d="M194.9,188.83c-1.05-0.07-2.28-0.41-3.56-0.82c-2.06-0.65-4.23-1.47-6-1.58c1.4-2.18,3.38-2.78,5.31-2.42
				c2.04,0.39,4.03,1.86,5.27,3.71c0.2,0.31,0.39,0.63,0.55,0.96C196.01,188.83,195.48,188.87,194.9,188.83z"/>
			<path fill="#FFFFFE" stroke="#000000" stroke-width="1,5" stroke-linecap="round" stroke-linejoin="round" d="M192.03,133.96c3.48,0,5.95,2.21,3.02,8.34l-0.54,0.16c-2.59-1.14-5.87-0.33-6.77,2.67
				C176.77,140.7,185.95,133.96,192.03,133.96z"/>
			<path fill="#FFFFFE" stroke="#000000" stroke-width="1,5" stroke-linecap="round" stroke-linejoin="round" d="M189.13,103c1.94,0.61,3.79,1.07,5.13,0.67c-0.16-0.33-0.35-0.65-0.57-0.97l0.53-0.1l0.15-0.01
				c0.04,0.32,0.17,0.72,0.44,1.2c-0.01-0.69-0.1-1.71,0.16-2.37c10.33-1.6,13.8,13.7,4.78,17.77
				C190.53,123.35,180.14,109.8,189.13,103z"/>
			<path fill="#FFFFFE" stroke="#000000" stroke-width="1,5" stroke-linecap="round" stroke-linejoin="round" d="M194.26,103.67c-1.34,0.4-3.19-0.06-5.13-0.67c-2.05-0.64-4.21-1.46-6-1.62
				c2.91-4.46,8.15-2.27,10.56,1.32C193.91,103.02,194.1,103.34,194.26,103.67z"/>
			<path fill="#FFFFFE" stroke="#000000" stroke-width="1,5" stroke-linecap="round" stroke-linejoin="round" d="M192.43,151.72l0.01,0.26c-0.11,1.44-0.73,2.61-1.85,3.52l-0.01,0.25c-0.87-0.04-1.75,0.11-2.58,0.47
				l-0.06-0.13c-4.25-1.46-4.41-6.12-0.29-7.89C188.2,150.69,190.29,151.82,192.43,151.72z"/>
			<path fill="#FFFFFE" stroke="#000000" stroke-width="1,5" stroke-linecap="round" stroke-linejoin="round" d="M191.15,44.9c0.95,8.17-1.56,19.56-5.96,26.62c-3.93,0.44-7.78,0.67-11.27,0.85l-0.03-0.66
				c-6.92-12.33-2.47-32.05-2.88-45.79c2.13-0.02,4.28-0.25,6.19-0.62l0.05,0.27C185.31,25.4,190.37,38.28,191.15,44.9z"/>
			<path fill="#FFFFFE" stroke="#000000" stroke-width="1,5" stroke-linecap="round" stroke-linejoin="round" d="M186.17,157.43c0.55-0.54,1.17-0.94,1.83-1.21c0.83-0.36,1.71-0.51,2.58-0.47
				c3.23,0.12,6.2,2.77,5.18,6.7c-1.51,5.83-9.3,4.96-10.82-0.32l-0.13-0.12c0.8-0.89,1.33-2.08,1.44-3.55
				c-0.03-0.35-0.08-0.69-0.16-1.01L186.17,157.43z"/>
			<path fill="#FFFFFE" stroke="#000000" stroke-width="1,5" stroke-linecap="round" stroke-linejoin="round" d="M177.35,24.23c0.24,0.29,0.52,0.58,0.84,0.87c-0.32,0.07-0.65,0.14-0.99,0.2
				c-1.91,0.37-4.06,0.6-6.19,0.62c-2.26,0.02-4.5-0.18-6.43-0.66c0-0.38,0.08-0.81,0.24-1.29c0.26-0.79,0.72-1.7,1.34-2.67
				c4.31-6.81,16.14-16.78,18.86-11.96c1.5,2.64-9.13,6.35-9.09,11.62C175.94,21.99,176.35,23.08,177.35,24.23z"/>
			<path fill="#FFFFFE" stroke="#000000" stroke-width="1,5" stroke-linecap="round" stroke-linejoin="round" d="M174.26,168.97c-0.84-1.32-0.59-3.15,1.71-5.39c0.22-0.23,0.48-0.46,0.75-0.69
				c1.68,1.28,4.11,1.46,6.1,0.58l0.55,0.05C190.62,172.31,176.9,173.23,174.26,168.97z"/>
			<path fill="#FFFFFE" stroke="#000000" stroke-width="1,5" stroke-linecap="round" stroke-linejoin="round" d="M177.94,142.07c0.5-0.31,0.99-0.47,1.47-0.51c5.1-0.42,8.85,12.73-1.33,9.79l-0.13-0.05
				c0.7-1.77,0.42-3.86-1.41-5.48c-0.36-0.32-0.72-0.57-1.1-0.77C176.24,143.55,177.09,142.59,177.94,142.07z"/>
			<path fill="#FFFFFE" stroke="#000000" stroke-width="1,5" stroke-linecap="round" stroke-linejoin="round" d="M172.84,186.03c-0.27-0.27-0.5-0.58-0.68-0.93c-0.27-0.51-0.45-1.1-0.52-1.79
				c-0.03-0.21-0.04-0.44-0.04-0.67c0-0.46,0.05-0.89,0.14-1.28c0.55-2.54,2.76-3.63,4.95-3.4c2.25,0.22,4.47,1.83,4.86,4.68
				c-0.21,1.54-0.96,2.72-1.96,3.51C177.57,187.76,174.52,187.78,172.84,186.03z"/>
			<path fill="#FFFFFE" stroke="#000000" stroke-width="1,5" stroke-linecap="round" stroke-linejoin="round" d="M180.09,186.19c4.51,6.65-2.88,8.76-6.73,6.8c-0.32-0.69-0.88-1.25-1.72-1.57
				c-0.71-1.27-0.56-3.08,1.2-5.39c1.68,1.75,4.73,1.73,6.75,0.12L180.09,186.19z"/>
			<path fill="#FFFFFE" stroke="#000000" stroke-width="1,5" stroke-linecap="round" stroke-linejoin="round" d="M176.72,162.89c-1.22-0.9-2.05-2.38-2.04-4.43c0.01-2.08,0.88-3.57,2.13-4.47
				c3.02-2.17,8.28-0.97,9.28,3.46c0.08,0.32,0.13,0.66,0.16,1.01c-0.11,1.47-0.64,2.66-1.44,3.55c-0.54,0.64-1.23,1.13-1.99,1.46
				C180.83,164.35,178.4,164.17,176.72,162.89z"/>
			<path fill="#FFFFFE" stroke="#000000" stroke-width="1,5" stroke-linecap="round" stroke-linejoin="round" d="M186.09,157.45c-1-4.43-6.26-5.63-9.28-3.46l-0.59-0.32c0.78-0.63,1.38-1.46,1.73-2.37l0.13,0.05
				c10.18,2.94,6.43-10.21,1.33-9.79c-4.86-6.24-5.67-11.2-7.85-18.81l1.47-1.86c2.14,2.88,4.74,5.41,7.81,7.31
				c2.14,1.32,7.06,3.29,11.16,3.54l0.03,2.22c-6.08,0-15.26,6.74-4.29,11.17c-0.15,0.51-0.23,1.08-0.23,1.72
				c0,0.49,0.05,0.94,0.14,1.35c-4.12,1.77-3.96,6.43,0.29,7.89l0.06,0.13c-0.66,0.27-1.28,0.67-1.83,1.21L186.09,157.45z"/>
			<path fill="#FFFFFE" stroke="#000000" stroke-width="1,5" stroke-linecap="round" stroke-linejoin="round" d="M178.19,25.1c-0.32-0.29-0.6-0.58-0.84-0.87c12.76,0.31,28.62,1.39,35.11,14.65
				c7.06,14.44-4.06,22.23-13.62,29.99c-1.8,0.55-3.65,1.01-5.53,1.38C209.3,51.68,204,28.24,178.19,25.1z"/>
			<path fill="#FFFFFE" stroke="#000000" stroke-width="1,5" stroke-linecap="round" stroke-linejoin="round" d="M191.15,44.9c-0.78-6.62-5.84-19.5-13.9-19.33l-0.05-0.27c0.34-0.06,0.67-0.13,0.99-0.2
				c25.81,3.14,31.11,26.58,15.12,45.15c-2.69,0.56-5.42,0.96-8.12,1.27C189.59,64.46,192.1,53.07,191.15,44.9z"/>
			<path fill="#FFFFFE" stroke="#000000" stroke-width="1,5" stroke-linecap="round" stroke-linejoin="round" d="M176.62,175.13c0.14,0.7,0.18,1.54,0.11,2.53l-0.04,0.3c-2.19-0.23-4.4,0.86-4.95,3.4
				c-4.13-0.87-5-2.93-4.3-4.89c0.51-1.43,1.85-2.8,3.36-3.61C173.18,171.57,175.98,171.67,176.62,175.13z"/>
			<path fill="#FFFFFE" stroke="#000000" stroke-width="1,5" stroke-linecap="round" stroke-linejoin="round" d="M176.18,20.95c16.07-0.08,50.8,4.49,42.98,29.95c-3.06,9.97-11.07,15.16-20.32,17.97
				c9.56-7.76,20.68-15.55,13.62-29.99c-6.49-13.26-22.35-14.34-35.11-14.65c-1-1.15-1.41-2.24-1.42-3.27L176.18,20.95z"/>
			<path fill="#FFFFFE" stroke="#000000" stroke-width="1,5" stroke-linecap="round" stroke-linejoin="round" d="M177.94,142.07c-0.85,0.52-1.7,1.48-2.5,2.98c-0.39-0.21-0.79-0.35-1.19-0.44
				c0.04-2.34-0.08-4.73-0.16-7.09C175.35,139.02,176.84,140.46,177.94,142.07z"/>
			<path fill="#FFFFFE" stroke="#000000" stroke-width="1,5" stroke-linecap="round" stroke-linejoin="round" d="M162.94,154.59c0.61-2.01,2.39-2.95,4.23-2.9c1.96,0.04,3.98,1.19,4.75,3.34
				c0.13,0.35,0.23,0.73,0.28,1.14c-0.65,4.88-6.99,5.93-8.92,2.39c-0.35-0.65-0.56-1.44-0.56-2.39
				C162.72,155.58,162.8,155.05,162.94,154.59z"/>
			<path fill="#FFFFFE" stroke="#000000" stroke-width="1,5" stroke-linecap="round" stroke-linejoin="round" d="M176.6,213.06c-1.15,2.72-4.34,3.77-4.59,7.47c-0.13-0.27-0.26-0.54-0.4-0.8
				c-0.17-1.88,0.1-3.86,0.78-5.68c0.15-0.42,0.33-0.83,0.53-1.23l-0.1-0.05c0.15-0.31,0.24-0.65,0.27-1l0.21,0.02
				c0.86-0.74,2.49-1.38,3.63-1.78C177.1,211.26,176.94,212.24,176.6,213.06z"/>
			<path fill="#FFFFFE" stroke="#000000" stroke-width="1,5" stroke-linecap="round" stroke-linejoin="round" d="M173.8,224.81c5.69-2.9,3.29,7.56,2.89,4.99c-4.3,2.21-4.41-1.33-4.53-4.81
				c-0.01-0.3-0.02-0.61-0.04-0.91c-0.05-1.25-0.16-2.43-0.52-3.24l0.01-0.01c0.13,0.22,0.25,0.44,0.36,0.67
				c0.06,1.17,0.71,2.61,1.13,3.72C173.35,225.06,173.58,224.93,173.8,224.81z"/>
			<path fill="#FFFFFE" stroke="#000000" stroke-width="1,5" stroke-linecap="round" stroke-linejoin="round" d="M170.14,169.7c-0.57-1.51-1.73-2.66-3.1-3.23l0.06-0.15c-0.71-5.6,6.22-7.76,8.85-2.76l0.02,0.02
				c-2.3,2.24-2.55,4.07-1.71,5.39c-1.22,0.7-2.54,0.92-3.96,0.67L170.14,169.7z"/>
			<path fill="#FFFFFE" stroke="#000000" stroke-width="1,5" stroke-linecap="round" stroke-linejoin="round" d="M172.16,185.1c-0.01,3.16-2.07,5.43-5.25,5.75l-0.1,0.02c-0.66-2.66-2.74-4.24-5.02-4.69l0.06-0.3
				c0.01-0.1,0.01-0.19,0.03-0.28c0.27-2.66,2.06-4.37,4.13-4.81c1.98-0.42,4.22,0.32,5.63,2.52
				C171.71,184,171.89,184.59,172.16,185.1z"/>
			<path fill="#FFFFFE" stroke="#000000" stroke-width="1,5" stroke-linecap="round" stroke-linejoin="round" d="M172.39,214.05c-0.68,1.82-0.95,3.8-0.78,5.68c-0.88-1.81-1.75-3.56-2.21-5.23
				c-0.02-0.06-0.03-0.12-0.05-0.18c1.93,0.09,3-0.58,3.47-1.55l0.1,0.05C172.72,213.22,172.54,213.63,172.39,214.05z"/>
			<path fill="#FFFFFE" stroke="#000000" stroke-width="1,5" stroke-linecap="round" stroke-linejoin="round" d="M184.94,162.13c1.52,5.28,9.31,6.15,10.82,0.32c1.02-3.93-1.95-6.58-5.18-6.7l0.01-0.25
				c1.12-0.91,1.74-2.08,1.85-3.52l-0.01-0.26c0.41-0.01,0.82-0.08,1.22-0.19l0.1,0.33c-1.03,5.4,5.22,9.75,9.41,5.55
				c4.18-4.18-0.06-10.5-5.51-9.46l-0.1-0.03c0.12-0.33,0.21-0.69,0.26-1.07c-0.31-2.19-1.67-3.68-3.3-4.39l0.54-0.16
				c2.93-6.13,0.46-8.34-3.02-8.34l-0.03-2.22c2.94,0.17,5.45-0.55,6.21-3.03c0.34-0.55,0.26-1.02-0.24-1.42
				c-3.87-3.15-7.9-6.34-11.37-9.91c8.64,5.18,14.92,11.01,20.76,19.35l0.06-0.04c1.22,1.91,1.61,3.19,2.08,4.82
				c-0.63-1.23-0.4-1.09-1.66-1.97c0.81,2.7,0.11,2.24,0,3.79c1.41,0.46,2.51,1.11,3.52,1.7c-0.03,0-0.06,0-0.09,0
				c1.06,1.11,1.28,2.17,1.94,3.48l0.01,0.03c-4.41,1.64-4.87,11.04-3.99,20.66l-1.8,0.1c-0.4-4.85-10.82-12.42-9.97-0.81l-0.1,0.32
				c-1.35-0.36-2.79-0.21-3.94,0.47h-0.01c-6.75-1.99-8.8,1.68-8.28,5.69l-0.74,0.04c-2.16-2.88-5.71-2.84-7.77,0.12
				c-0.64-3.46-3.44-3.56-5.82-2.27l-0.26-0.77c0.03-0.87-0.11-1.67-0.4-2.39l0.16-0.06c1.42,0.25,2.74,0.03,3.96-0.67
				c2.64,4.26,16.36,3.34,9.11-5.45l-0.55-0.05c0.76-0.33,1.45-0.82,1.99-1.46L184.94,162.13z"/>
			<path fill="#FFFFFE" stroke="#000000" stroke-width="1,5" stroke-linecap="round" stroke-linejoin="round" d="M170.8,172.86c-1.51,0.81-2.85,2.18-3.36,3.61l-0.14-0.04c-4.95,1.66-9.95-3.71-6.47-8.21
				c1.73-2.23,4.19-2.61,6.21-1.75c1.37,0.57,2.53,1.72,3.1,3.23c0.29,0.72,0.43,1.52,0.4,2.39L170.8,172.86z"/>
			<path fill="#FFFFFE" stroke="#000000" stroke-width="1,5" stroke-linecap="round" stroke-linejoin="round" d="M172.01,220.53c0.66,1.37,1.3,2.78,1.76,4.22l0.03,0.06c-0.22,0.12-0.45,0.25-0.7,0.41
				c-0.42-1.11-1.07-2.55-1.13-3.72c-0.11-0.23-0.23-0.45-0.36-0.67c-0.8-1.5-1.73-2.91-2.7-4.15c-0.78-1.62-1.69-3.05-2.87-3.94
				l0.16-0.2c2.04-9.54,7.25-4.38,6.89-0.77c-0.03,0.35-0.12,0.69-0.27,1c-0.47,0.97-1.54,1.64-3.47,1.55
				c0.02,0.06,0.03,0.12,0.05,0.18c0.46,1.67,1.33,3.42,2.21,5.23C171.75,219.99,171.88,220.26,172.01,220.53z"/>
			<path fill="#FFFFFE" stroke="#000000" stroke-width="1,5" stroke-linecap="round" stroke-linejoin="round" d="M171.56,122.75c2.18,7.61,2.99,12.57,7.85,18.81c-0.48,0.04-0.97,0.2-1.47,0.51
				c-1.1-1.61-2.59-3.05-3.85-4.55c0.08,2.36,0.2,4.75,0.16,7.09c-0.72-0.17-1.44-0.15-2.12,0.02l-0.01-0.04
				c0.66-1.97,0.42-3.49-0.3-4.58l0.06-0.04c0.04-1.1,0.08-2.21,0.12-3.32c-1,0.14-2,0.27-3,0.4l-0.08-0.02
				c0.13-0.65,0.16-1.25,0.1-1.79l0.1-0.01C175.1,133.99,166.68,125.58,171.56,122.75z"/>
			<path fill="#FFFFFE" stroke="#000000" stroke-width="1,5" stroke-linecap="round" stroke-linejoin="round" d="M171.6,220.84c0.36,0.81,0.47,1.99,0.52,3.24c-1.14-2.12-2.04-4.97-3.21-7.4c0.97,1.24,1.9,2.65,2.7,4.15
				L171.6,220.84z"/>
			<path fill="#FFFFFE" stroke="#000000" stroke-width="1,5" stroke-linecap="round" stroke-linejoin="round" d="M172.12,224.08c0.02,0.3,0.03,0.61,0.04,0.91c-2.29-2.84-3.8-6.51-5.85-8.82
				c-2.32,3.92-6.91,1.13-7.29-1.47c-0.18-1.31,0.7-2.57,3.47-2.91c1.43-0.18,2.58,0.2,3.55,0.95c1.18,0.89,2.09,2.32,2.87,3.94
				C170.08,219.11,170.98,221.96,172.12,224.08z"/>
			<path fill="#FFFFFE" stroke="#000000" stroke-width="1,5" stroke-linecap="round" stroke-linejoin="round" d="M175.44,145.05c0.38,0.2,0.74,0.45,1.1,0.77c1.83,1.62,2.11,3.71,1.41,5.48
				c-0.35,0.91-0.95,1.74-1.73,2.37c-1.12,0.92-2.59,1.46-4.18,1.31l-0.12,0.05c-0.77-2.15-2.79-3.3-4.75-3.34l0.01-0.26
				c0.44-1.73,0.55-3.07,0.4-4.07h0.79l0.2,0.12c0.76-1.41,2.07-2.49,3.56-2.85c0.68-0.17,1.4-0.19,2.12-0.02
				C174.65,144.7,175.05,144.84,175.44,145.05z"/>
			<path fill="#FFFFFE" stroke="#000000" stroke-width="1,5" stroke-linecap="round" stroke-linejoin="round" d="M167.58,147.36c0.15,1,0.04,2.34-0.4,4.07l-0.01,0.26c-1.84-0.05-3.62,0.89-4.23,2.9
				c-10.47-0.43-4.44-8,0.43-9.5C165.41,144.46,167.24,144.9,167.58,147.36z"/>
			<path fill="#FFFFFE" stroke="#000000" stroke-width="1,5" stroke-linecap="round" stroke-linejoin="round" d="M167.02,192.16c-0.02-0.24-0.04-0.47-0.09-0.7l0.06-0.01c2.07-0.5,3.59-0.46,4.65-0.03
				c0.37,0.67,0.98,1.19,1.72,1.57c2.19,4.65-6.06,15.47-9.81,4.89l-0.14-0.27C165.33,196.7,166.83,194.87,167.02,192.16z"/>
			<path fill="#FFFFFE" stroke="#000000" stroke-width="1,5" stroke-linecap="round" stroke-linejoin="round" d="M171.64,191.42c-1.06-0.43-2.58-0.47-4.65,0.03l-0.06,0.01c-0.02-0.2-0.06-0.4-0.12-0.59l0.1-0.02
				c3.18-0.32,5.24-2.59,5.25-5.75c0.18,0.35,0.41,0.66,0.68,0.93C171.08,188.34,170.93,190.15,171.64,191.42z"/>
			<path fill="#FFFFFE" stroke="#000000" stroke-width="1,5" stroke-linecap="round" stroke-linejoin="round" d="M154.25,193.01c-0.03-0.27-0.05-0.56-0.05-0.85c0-4.75,4.05-6.71,7.59-5.98
				c2.28,0.45,4.36,2.03,5.02,4.69c0.06,0.19,0.1,0.39,0.12,0.59c0.05,0.23,0.07,0.46,0.09,0.7c-0.19,2.71-1.69,4.54-3.61,5.45
				c-0.49,0.24-1.01,0.41-1.54,0.52c-1.76,0.38-3.64,0.1-5.1-0.86c-0.32-0.2-0.61-0.43-0.88-0.72
				C155.02,195.71,154.41,194.52,154.25,193.01z"/>
			<path fill="#FFFFFE" stroke="#000000" stroke-width="1,5" stroke-linecap="round" stroke-linejoin="round" d="M165.96,180.58l0.05,0.21c-2.07,0.44-3.86,2.15-4.13,4.81h-0.03c-3.58,0.06-5.88-2.63-5.25-6.16
				l-0.13-0.35c1.31-0.45,2.48-1.42,3.06-2.87l0.15,0.06C162.86,175.69,165.36,177.41,165.96,180.58z"/>
			<path fill="#FFFFFE" stroke="#000000" stroke-width="1,5" stroke-linecap="round" stroke-linejoin="round" d="M164.58,25.26c1.93,0.48,4.17,0.68,6.43,0.66c0.41,13.74-4.04,33.46,2.88,45.79l0.03,0.66
				c-0.71,0.04-1.4,0.07-2.08,0.11c-2.29,0.12-4.84,0.15-7.54,0.06l0.04-0.95C150.86,62.67,148.26,32.68,164.58,25.26z"/>
			<path fill="#FFFFFE" stroke="#000000" stroke-width="1,5" stroke-linecap="round" stroke-linejoin="round" d="M167.58,147.36c-0.34-2.46-2.17-2.9-4.21-2.27l-0.13-0.5c-0.32-1.01-0.42-1.9-0.33-2.68
				c0.46-4.47,6.79-5.07,8.91-1.9c0.72,1.09,0.96,2.61,0.3,4.58l0.01,0.04c-1.49,0.36-2.8,1.44-3.56,2.85l-0.2-0.12H167.58z"/>
			<path fill="#FFFFFE" stroke="#000000" stroke-width="1,5" stroke-linecap="round" stroke-linejoin="round" d="M162.33,255.01c13.48,8.92,16.09,38.91-0.24,46.33c-1.93-0.48-4.17-0.68-6.43-0.66
				c-0.4-13.74,4.04-33.46-2.88-45.79l-0.03-0.66c0.71-0.04,1.4-0.07,2.08-0.11c2.28-0.12,4.82-0.15,7.52-0.06L162.33,255.01z"/>
			<path fill="#FFFFFE" stroke="#000000" stroke-width="1,5" stroke-linecap="round" stroke-linejoin="round" d="M164.58,25.26c-16.32,7.42-13.72,37.41-0.24,46.33l-0.04,0.95c-3.74-0.12-7.78-0.47-11.83-1.14l0.11-0.64
				c-11.76-7.38-16.55-15.53-13.96-29.35c2.07-11.07,15.47-18.51,26.15-17.46l0.05,0.02C164.66,24.45,164.58,24.88,164.58,25.26z"/>
			<path fill="#FFFFFE" stroke="#000000" stroke-width="1,5" stroke-linecap="round" stroke-linejoin="round" d="M161.89,302.65c10.69,1.04,24.09-6.39,26.16-17.46c2.59-13.8-2.23-21.98-13.96-29.35l0.11-0.64
				c1.83,0.3,3.65,0.67,5.46,1.11l-0.04,0.16c10.02,4.88,21.98,12.09,19.35,25.31c-2.1,10.63-8.34,16.95-17.37,21.26
				c-5.39,1.28-10.8,2.03-15.21,2.61h-5.17l-0.71-0.32c0.62-0.98,1.08-1.89,1.34-2.69L161.89,302.65z"/>
			<path fill="#FFFFFE" stroke="#000000" stroke-width="1,5" stroke-linecap="round" stroke-linejoin="round" d="M162.97,158.72c1.73,3.45-1.71,7.39-5.76,6.72c-0.43-1.38-1.64-1.98-3.1-2.02l0.01-0.3
				c-0.64-1.62-0.48-3.26,0.18-4.58c1.33-2.62,4.64-3.98,7.46-1.4C162.31,157.64,162.7,158.18,162.97,158.72z"/>
			<path fill="#FFFFFE" stroke="#000000" stroke-width="1,5" stroke-linecap="round" stroke-linejoin="round" d="M162.84,141.91c0.08-2.43-1.77-4.19-3.87-4.6l0.08-0.3c-1.05-7.63,9.37-7.67,9.97-1.77
				c0.06,0.54,0.03,1.14-0.1,1.79l0.08,0.02c1-0.13,2-0.26,3-0.4c-0.04,1.11-0.08,2.22-0.12,3.32l-0.06,0.04
				c-2.12-3.17-8.45-2.57-8.91,1.9H162.84z"/>
			<path fill="#FFFFFE" stroke="#000000" stroke-width="1,5" stroke-linecap="round" stroke-linejoin="round" d="M155.66,300.68c2.26-0.02,4.5,0.18,6.43,0.66c0,0.38-0.08,0.82-0.24,1.3c-0.26,0.8-0.72,1.71-1.34,2.69
				c-4.31,6.81-16.17,16.75-18.9,11.93c-1.49-2.61,9.17-6.34,9.13-11.62c-0.01-1.03-0.43-2.12-1.43-3.27
				c-0.24-0.29-0.52-0.58-0.84-0.87c0.32-0.07,0.66-0.14,1-0.2v-0.01C151.38,300.93,153.53,300.7,155.66,300.68z"/>
			<path fill="#FFFFFE" stroke="#000000" stroke-width="1,5" stroke-linecap="round" stroke-linejoin="round" d="M156.77,197.27c1.46,0.96,3.34,1.24,5.1,0.86l0.06,0.31c3.96,3.9,1.01,11.32-4.93,9.99
				c-3.66-0.82-4.88-4.12-4.08-6.98c0.51-1.81,1.83-3.44,3.84-4.16L156.77,197.27z"/>
			<path fill="#FFFFFE" stroke="#000000" stroke-width="1,5" stroke-linecap="round" stroke-linejoin="round" d="M161.89,302.65l-0.04-0.01c0.16-0.48,0.24-0.92,0.24-1.3c16.33-7.42,13.72-37.41,0.24-46.33l0.02-0.95
				c3.75,0.12,7.79,0.47,11.85,1.14l-0.11,0.64c11.73,7.37,16.55,15.55,13.96,29.35C185.98,296.26,172.58,303.69,161.89,302.65z"/>
			<path fill="#FFFFFE" stroke="#000000" stroke-width="1,5" stroke-linecap="round" stroke-linejoin="round" d="M174.68,158.46c-0.01,2.05,0.82,3.53,2.04,4.43c-0.27,0.23-0.53,0.46-0.75,0.69l-0.02-0.02
				c-2.63-5-9.56-2.84-8.85,2.76l-0.06,0.15c-2.02-0.86-4.48-0.48-6.21,1.75c-3.48,4.5,1.52,9.87,6.47,8.21l0.14,0.04
				c-0.7,1.96,0.17,4.02,4.3,4.89c-0.09,0.39-0.14,0.82-0.14,1.28c0,0.23,0.01,0.46,0.04,0.67c-1.41-2.2-3.65-2.94-5.63-2.52
				l-0.05-0.21c-0.6-3.17-3.1-4.89-6.28-4.3l-0.15-0.06c0.17-0.41,0.29-0.85,0.35-1.33c-0.3-2.25-1.81-3.69-3.53-4.23l0.1-0.31
				c0.93-2.21,1.09-3.81,0.76-4.91c4.05,0.67,7.49-3.27,5.76-6.72l0.31-0.16c1.93,3.54,8.27,2.49,8.92-2.39
				c-0.05-0.41-0.15-0.79-0.28-1.14l0.12-0.05c1.59,0.15,3.06-0.39,4.18-1.31l0.59,0.32C175.56,154.89,174.69,156.38,174.68,158.46z
				"/>
			<path fill="#FFFFFE" stroke="#000000" stroke-width="1,5" stroke-linecap="round" stroke-linejoin="round" d="M150.86,172.73c0.97-2.09,3.39-2.74,5.49-2.07c1.72,0.54,3.23,1.98,3.53,4.23
				c-0.06,0.48-0.18,0.92-0.35,1.33c-0.58,1.45-1.75,2.42-3.06,2.87c-0.26,0.09-0.52,0.16-0.79,0.21c-1.98,0.35-4.07-0.41-4.9-2.41
				c-0.24-0.56-0.37-1.23-0.37-2C150.41,174.05,150.57,173.33,150.86,172.73z"/>
			<path fill="#FFFFFE" stroke="#000000" stroke-width="1,5" stroke-linecap="round" stroke-linejoin="round" d="M152.97,153.02c2.25-0.85,4.09-2.81,4.35-5.86c-0.23-2.89-1.88-4.81-3.94-5.73l0.15-0.31
				c0.09-0.34,0.2-0.66,0.32-0.96c1.02-2.46,3.18-3.23,5.12-2.85c2.1,0.41,3.95,2.17,3.87,4.6h0.07c-0.09,0.78,0.01,1.67,0.33,2.68
				l0.13,0.5c-4.87,1.5-10.9,9.07-0.43,9.5c-0.14,0.46-0.22,0.99-0.22,1.58c0,0.95,0.21,1.74,0.56,2.39l-0.31,0.16
				c-0.27-0.54-0.66-1.08-1.21-1.58c-2.82-2.58-6.13-1.22-7.46,1.4l-0.66-0.12c0.84-1.29,0.92-3.08-0.55-5.09L152.97,153.02z"/>
			<path fill="#FFFFFE" stroke="#000000" stroke-width="1,5" stroke-linecap="round" stroke-linejoin="round" d="M143.99,147.56c-0.02-0.13-0.02-0.26-0.02-0.4c-0.01-2.51,1.07-4.26,2.61-5.29
				c1.93-1.29,4.6-1.43,6.8-0.44c2.06,0.92,3.71,2.84,3.94,5.73c-0.26,3.05-2.1,5.01-4.35,5.86c-1.75,0.66-3.73,0.65-5.4-0.06
				C145.62,152.13,144.12,150.33,143.99,147.56z"/>
			<path fill="#FFFFFE" stroke="#000000" stroke-width="1,5" stroke-linecap="round" stroke-linejoin="round" d="M157.21,165.44c0.33,1.1,0.17,2.7-0.76,4.91l-0.1,0.31c-2.1-0.67-4.52-0.02-5.49,2.07
				c-9.39-3.48-1.65-9.48,3.25-9.31C155.57,163.46,156.78,164.06,157.21,165.44z"/>
			<path fill="#FFFFFE" stroke="#000000" stroke-width="1,5" stroke-linecap="round" stroke-linejoin="round" d="M158.97,137.31c-1.94-0.38-4.1,0.39-5.12,2.85l-0.02-0.01c3.08-7.19-7.7-7.17-8.97-2.88l-2.92-0.32
				c0.52-1.95,0.29-3.73-1.24-4.96c-0.37-0.54-0.83-0.63-1.38-0.27c-7.7,4.03-14.74,8.06-22.48,9.11
				c11.26-19.65,28.45-29.36,51.17-28.9l0.03-0.01c1.27,3.14,2.93,6.21,4.99,8.97l-1.47,1.86c-4.88,2.83,3.54,11.24-2.44,12.48
				l-0.1,0.01c-0.6-5.9-11.02-5.86-9.97,1.77L158.97,137.31z"/>
			<path fill="#FFFFFE" stroke="#000000" stroke-width="1,5" stroke-linecap="round" stroke-linejoin="round" d="M155.89,196.55c0.27,0.29,0.56,0.52,0.88,0.72l-0.01,0.02c-2.01,0.72-3.33,2.35-3.84,4.16l-0.22-0.05
				c-7.02,1.56-7.58-6.16-4.27-8.74c1.02-0.81,2.41-1.12,4.08-0.53c0.55,0.19,1.13,0.48,1.74,0.88
				C154.41,194.52,155.02,195.71,155.89,196.55z"/>
			<path fill="#FFFFFE" stroke="#000000" stroke-width="1,5" stroke-linecap="round" stroke-linejoin="round" d="M194.22,204.48c-5.87,3.6-11.12,6.18-17.56,8.61l-0.06-0.03c0.34-0.82,0.5-1.8,0.33-3.05
				c-1.14,0.4-2.77,1.04-3.63,1.78l-0.21-0.02c0.36-3.61-4.85-8.77-6.89,0.77l-0.16,0.2c-0.97-0.75-2.12-1.13-3.55-0.95
				c-2.77,0.34-3.65,1.6-3.47,2.91l-0.05,0.01c-4.21-0.48-8.26-1.32-12.31-2.56c-24.8-10.72-36.88-31.46-34.14-58.31v-0.04
				c0.33,0.02,0.67,0.02,1,0.02c7.09-0.05,14.42-1.53,20.27-5.87c2.38-1.76,7.03-6.76,8.15-11l2.92,0.32
				c-0.36,1.21,0.04,2.77,1.72,4.6c-1.54,1.03-2.62,2.78-2.61,5.29c0,0.14,0,0.27,0.02,0.4c-11.29-1.41-3.14,13.34,1.71,8.77
				c0.6,5.31,6.1,4.94,7.94,2.09l0.66,0.12c-0.66,1.32-0.82,2.96-0.18,4.58l-0.01,0.3c-4.9-0.17-12.64,5.83-3.25,9.31
				c-0.29,0.6-0.45,1.32-0.45,2.16c0,0.77,0.13,1.44,0.37,2c0.83,2,2.92,2.76,4.9,2.41l0.06,0.29c0.61,2.72-0.43,4.81-2.96,5.97
				l-0.1,0.32c-3.94-1.2-11.67,1.72-4.36,6.63l0.11,0.15c-3.31,2.58-2.75,10.3,4.27,8.74l0.22,0.05c-0.8,2.86,0.42,6.16,4.08,6.98
				c5.94,1.33,8.89-6.09,4.93-9.99l-0.06-0.31c0.53-0.11,1.05-0.28,1.54-0.52l0.14,0.27c3.75,10.58,12-0.24,9.81-4.89
				c3.85,1.96,11.24-0.15,6.73-6.8l-0.5-0.04c1-0.79,1.75-1.97,1.96-3.51c-0.39-2.85-2.61-4.46-4.86-4.68l0.04-0.3
				c0.07-0.99,0.03-1.83-0.11-2.53c2.06-2.96,5.61-3,7.77-0.12l0.74-0.04c0.45,3.5,2.86,7.27,5.82,7.77l-0.3,1.27
				c-1.93-0.36-3.91,0.24-5.31,2.42c1.77,0.11,3.94,0.93,6,1.58c-6.45,4.95-2.88,13.34,3.07,16.08L194.22,204.48z"/>
			<path fill="#FFFFFE" stroke="#000000" stroke-width="1,5" stroke-linecap="round" stroke-linejoin="round" d="M152.78,254.89c6.92,12.33,2.48,32.05,2.88,45.79c-2.13,0.02-4.28,0.25-6.19,0.61l-0.05-0.26
				c-8.06,0.16-13.12-12.71-13.9-19.33c-0.96-8.22,1.61-19.47,5.92-26.61c3.95-0.44,7.8-0.67,11.31-0.86L152.78,254.89z"/>
			<path fill="#FFFFFE" stroke="#000000" stroke-width="1,5" stroke-linecap="round" stroke-linejoin="round" d="M155.04,91.93c-0.21-2.32,0.27-4.75,1.31-6.89L156.26,85c0.16-0.31,0.25-0.66,0.28-1.03l0.18,0.03
				c0.85-0.73,2.5-1.36,3.63-1.74c0.7,5.33-4.56,5.71-4.92,10.48C155.3,92.47,155.17,92.2,155.04,91.93z"/>
			<path fill="#FFFFFE" stroke="#000000" stroke-width="1,5" stroke-linecap="round" stroke-linejoin="round" d="M156.53,97.47c0.25-0.16,0.49-0.3,0.71-0.41c5.67-2.96,3.26,7.53,2.88,4.99
				c-4.28,2.21-4.4-1.33-4.52-4.82c-0.01-0.31-0.02-0.62-0.04-0.93c-0.05-1.24-0.16-2.4-0.51-3.21c0.12,0.2,0.23,0.41,0.34,0.63
				C155.46,94.9,156.12,96.34,156.53,97.47z"/>
			<path fill="#FFFFFE" stroke="#000000" stroke-width="1,5" stroke-linecap="round" stroke-linejoin="round" d="M156.6,179.44c-0.63,3.53,1.67,6.22,5.25,6.16h0.03c-0.02,0.09-0.02,0.18-0.03,0.28l-0.06,0.3
				c-3.54-0.73-7.59,1.23-7.59,5.98c0,0.29,0.02,0.58,0.05,0.85c-0.61-0.4-1.19-0.69-1.74-0.88l0.03-0.09
				c3.35-3.57,2.33-5.5,0.14-6.16l0.1-0.32c2.53-1.16,3.57-3.25,2.96-5.97l-0.06-0.29c0.27-0.05,0.53-0.12,0.79-0.21L156.6,179.44z"
				/>
			<path fill="#FFFFFE" stroke="#000000" stroke-width="1,5" stroke-linecap="round" stroke-linejoin="round" d="M152.68,185.88c2.19,0.66,3.21,2.59-0.14,6.16l-0.03,0.09c-1.67-0.59-3.06-0.28-4.08,0.53l-0.11-0.15
				C141.01,187.6,148.74,184.68,152.68,185.88z"/>
			<path fill="#FFFFFE" stroke="#000000" stroke-width="1,5" stroke-linecap="round" stroke-linejoin="round" d="M153.09,153.33c1.47,2.01,1.39,3.8,0.55,5.09c-1.84,2.85-7.34,3.22-7.94-2.09
				c0.7-0.66,1.33-1.71,1.83-3.28l0.04-0.09c1.67,0.71,3.65,0.72,5.4,0.06L153.09,153.33z"/>
			<path fill="#FFFFFE" stroke="#000000" stroke-width="1,5" stroke-linecap="round" stroke-linejoin="round" d="M153.83,140.15l0.02,0.01c-0.12,0.3-0.23,0.62-0.32,0.96l-0.15,0.31c-2.2-0.99-4.87-0.85-6.8,0.44
				c-1.68-1.83-2.08-3.39-1.72-4.6C146.13,132.98,156.91,132.96,153.83,140.15z"/>
			<path fill="#FFFFFE" stroke="#000000" stroke-width="1,5" stroke-linecap="round" stroke-linejoin="round" d="M152.78,86.56c0.47,1.7,1.36,3.5,2.26,5.37c0.13,0.27,0.26,0.54,0.39,0.81c0.66,1.38,1.31,2.8,1.77,4.25
				l0.04,0.07c-0.22,0.11-0.46,0.25-0.71,0.41c-0.41-1.13-1.07-2.57-1.14-3.75c-0.11-0.22-0.22-0.43-0.34-0.63
				c0-0.02-0.01-0.04-0.02-0.05c-0.81-1.49-1.73-2.9-2.69-4.12c-0.79-1.63-1.7-3.07-2.9-3.96l0.18-0.21
				c2.05-9.44,7.26-4.38,6.92-0.78c-0.03,0.37-0.12,0.72-0.28,1.03C155.79,85.96,154.71,86.64,152.78,86.56z"/>
			<path fill="#FFFFFE" stroke="#000000" stroke-width="1,5" stroke-linecap="round" stroke-linejoin="round" d="M138.62,41.41c-2.59,13.82,2.2,21.97,13.96,29.35l-0.11,0.64c-1.82-0.3-3.65-0.66-5.46-1.1l0.04-0.17
				c-10.06-4.83-21.97-12.12-19.36-25.31c2.11-10.6,8.33-16.96,17.34-21.26c5.41-1.28,10.84-2.03,15.25-2.61h5.17l0.71,0.35
				c-0.62,0.97-1.08,1.88-1.34,2.67l-0.05-0.02C154.09,22.9,140.69,30.34,138.62,41.41z"/>
			<path fill="#FFFFFE" stroke="#000000" stroke-width="1,5" stroke-linecap="round" stroke-linejoin="round" d="M152.34,88.92c1.17,2.42,2.07,5.27,3.22,7.38c0.02,0.31,0.03,0.62,0.04,0.93
				c-2.32-2.84-3.8-6.55-5.86-8.85c-3.43,5.94-12.12-3.33-3.83-4.34c1.42-0.17,2.57,0.19,3.53,0.92
				C150.64,85.85,151.55,87.29,152.34,88.92z"/>
			<path fill="#FFFFFE" stroke="#000000" stroke-width="1,5" stroke-linecap="round" stroke-linejoin="round" d="M149.31,302.37c1,1.15,1.42,2.24,1.43,3.27l-0.25,0.01c-16.08,0.08-50.79-4.49-42.98-29.95
				c3.05-9.96,11.05-15.16,20.3-17.96c-9.55,7.76-20.66,15.55-13.6,29.97C120.7,300.97,136.55,302.06,149.31,302.37z"/>
			<path fill="#FFFFFE" stroke="#000000" stroke-width="1,5" stroke-linecap="round" stroke-linejoin="round" d="M148.47,301.5c0.32,0.29,0.6,0.58,0.84,0.87c-12.76-0.31-28.61-1.4-35.1-14.66
				c-7.06-14.42,4.05-22.21,13.6-29.97c1.81-0.56,3.66-1.01,5.54-1.39C117.37,274.92,122.67,298.35,148.47,301.5z"/>
			<path fill="#FFFFFE" stroke="#000000" stroke-width="1,5" stroke-linecap="round" stroke-linejoin="round" d="M149.42,301.03l0.05,0.26v0.01c-0.34,0.06-0.68,0.13-1,0.2c-25.8-3.15-31.1-26.58-15.12-45.15
				c2.68-0.56,5.41-0.96,8.09-1.26c-4.31,7.14-6.88,18.39-5.92,26.61C136.3,288.32,141.36,301.19,149.42,301.03z"/>
			<path fill="#FFFFFE" stroke="#000000" stroke-width="1,5" stroke-linecap="round" stroke-linejoin="round" d="M145.7,156.33c-4.85,4.57-13-10.18-1.71-8.77c0.13,2.77,1.63,4.57,3.58,5.4l-0.04,0.09
				C147.03,154.62,146.4,155.67,145.7,156.33z"/>
			<path fill="#FFFFFE" stroke="#000000" stroke-width="1,5" stroke-linecap="round" stroke-linejoin="round" d="M147.05,70.13l-0.04,0.17c-10.74-2.61-20.68-7.78-24.39-17.23c-7.27-18.52,7.49-25.99,22.41-29.51
				c-9.01,4.3-15.23,10.66-17.34,21.26C125.08,58.01,136.99,65.3,147.05,70.13z"/>
			<path fill="#FFFFFE" stroke="#000000" stroke-width="1,5" stroke-linecap="round" stroke-linejoin="round" d="M116.84,140.83c7.74-1.05,14.78-5.08,22.48-9.11c0.55-0.36,1.01-0.27,1.38,0.27
				c1.53,1.23,1.76,3.01,1.24,4.96c-1.12,4.24-5.77,9.24-8.15,11c-5.85,4.34-13.18,5.82-20.27,5.87c-0.33,0-0.67,0-1-0.02
				c-7.44-0.14-14.96-2.55-20.87-7.09c-5.66-4.35-2.31-10.62-5.85-15.59c-3.31-4.63,1.72-6.35,2.7-2.17
				c1.16,4.98,9.63,8.42,13.77,10.03C107.54,141.02,112.31,141.44,116.84,140.83z"/>
			<path fill="#FFFFFE" stroke="#000000" stroke-width="1,5" stroke-linecap="round" stroke-linejoin="round" d="M137.86,107.9c0.24,0.31,0.56,0.52,0.94,0.63c-2.23,1.29-4.81,1.41-7.4,1.54
				c-0.03-0.06-0.08-0.11-0.12-0.16c-0.12-0.15-0.26-0.28-0.4-0.4l0.03-0.03c0.67-0.38,1.13-1.59,1.34-2.3
				c0.01,0.02,0.02,0.03,0.03,0.05c-0.02,0.35-0.03,0.66,0.01,0.9c0.01-0.26,0.14-0.59-0.01-0.9c0.04-0.77,0.14-1.75-0.19-2.57
				c0.9-0.3,0.91-0.73,2.21-1.27c-0.12,0.69-0.54,1.23-0.63,1.62c0.34-0.64,1.66-1.74,2.21-2.92c0.24,0.74,0.54,1.68,0.71,2.29
				c0.51-0.96,1.24-1.59,1.9-2.41c0.63,1.35,0.97,0.89,2.13,1.82c0.12,0.46-0.84,1.32-0.87,1.74c0.62-0.15,2.28-0.2,3.08-0.52
				c-1.47,1.87-2.77,2.19-4.97,2.1c1.11,0.2,1.81,0.43,2.88,0.83C139.78,107.94,138.81,107.96,137.86,107.9z"/>
			<path fill="#FFFFFE" stroke="#000000" stroke-width="1,5" stroke-linecap="round" stroke-linejoin="round" d="M134.11,87.51c3.81,17.11-23.98,20.44-27.24,5.14c-2.72-12.8,14.72-27,24.8-13.77
				c-0.71,1.85-1.34,3.64-1.4,5.27h-0.03c-0.8,2.91-0.78,7.05,1.95,3.24C132.83,87.43,133.46,87.49,134.11,87.51z"/>
			<path fill="#FFFFFE" stroke="#000000" stroke-width="1,5" stroke-linecap="round" stroke-linejoin="round" d="M132.29,86.45c1.22-0.48,1.73-0.19,1.82,1.06c-0.65-0.02-1.28-0.08-1.92-0.12
				c-0.55-0.03-1.11-0.06-1.68-0.04C131.22,86.94,131.81,86.63,132.29,86.45z"/>
			<path fill="#FFFFFE" stroke="#000000" stroke-width="1,5" stroke-linecap="round" stroke-linejoin="round" d="M132.13,85.65c-0.47,0.33-0.96,0.62-1.46,0.87c-0.33-0.74-0.44-1.53-0.4-2.37
				c0.06-1.63,0.69-3.42,1.4-5.27c1.19-3.06,2.63-6.27,2.16-9.14C140.69,73.83,137.44,81.96,132.13,85.65z"/>
			<path fill="#FFFFFE" stroke="#000000" stroke-width="1,5" stroke-linecap="round" stroke-linejoin="round" d="M131.4,110.07c4.68,6.47-31.89,22.18-37.16,20.18c4.69-5.11,29.78-26.78,36.64-20.74
				c0.14,0.12,0.28,0.25,0.4,0.4C131.32,109.96,131.37,110.01,131.4,110.07z"/>
			<path fill="#FFFFFE" stroke="#000000" stroke-width="1,5" stroke-linecap="round" stroke-linejoin="round" d="M116.9,209.26c0.09-0.36,0.2-0.72,0.35-1.07c1.57-4.04,6.2-7.3,10.03-3.59
				c-1.81,0.57-3.76,1.79-5.63,2.83C119.95,208.39,118.31,209.21,116.9,209.26z"/>
			<path fill="#FFFFFE" stroke="#000000" stroke-width="1,5" stroke-linecap="round" stroke-linejoin="round" d="M117.25,208.19c-0.15,0.35-0.26,0.71-0.35,1.07c1.41-0.05,3.05-0.87,4.75-1.83
				c9.84,4.41,3.71,20.17-5.9,18.23c-9.8-1.98-11.26-17.82,0-18.45c0.39,0.6,0.51,1.61,0.63,2.29c0.16-0.54,0.19-0.96,0.13-1.29
				l0.19-0.02H117.25z"/>
			<path fill="#FFFFFE" stroke="#000000" stroke-width="1,5" stroke-linecap="round" stroke-linejoin="round" d="M112.12,236.24c1.73,7.01,0.26,14.5-2.43,21c-2.97,7.2-8.2,13.61-15.01,17.46
				c-6.21,3.51-10.64-1.91-16.62-0.59c-1.28,0.28-6.36,1.98-4.3-2.24c1.39-2.85,2.26-0.05,3.94-1.02
				c5.53-3.18,10.46-5.26,15.33-10.4c9.61-10.15,7.47-23.09,6.23-35.58c-0.1-0.63,0.16-1.02,0.78-1.15
				C105.49,220.67,111.09,232.05,112.12,236.24z"/>
			<path fill="#FFFFFE" stroke="#000000" stroke-width="1,5" stroke-linecap="round" stroke-linejoin="round" d="M95.19,36.3c1.86,0.56,3.62,1,5.05,0.77c-0.16-0.33-0.35-0.65-0.57-0.97l0.53-0.1l0.16-0.01
				c0.03,0.33,0.15,0.72,0.43,1.19c-0.03-0.7-0.12-1.72,0.12-2.4c11.12-1.66,13.14,13.92,3.99,18.01
				C95.99,56.78,86.52,42.76,95.19,36.3z"/>
			<path fill="#FFFFFE" stroke="#000000" stroke-width="1,5" stroke-linecap="round" stroke-linejoin="round" d="M100.24,37.07c-1.43,0.23-3.19-0.21-5.05-0.77c-2.03-0.61-4.17-1.36-6.08-1.52
				c2.86-4.53,8.15-2.27,10.56,1.32C99.89,36.42,100.08,36.74,100.24,37.07z"/>
			<path fill="#FFFFFE" stroke="#000000" stroke-width="1,5" stroke-linecap="round" stroke-linejoin="round" d="M94.03,58.7c7.16,7.56,7.63,17.13,5.4,26.58c-1.95-12.13-3.1-25.74-19.16-26.8
				c-14.71-0.98-23.6,12.25-30.22,23.14c-1.5,0.29-2.65,0.1-3.54-0.41l0.13-0.22C54.75,66.93,75.67,39.31,94.03,58.7z"/>
			<path fill="#FFFFFE" stroke="#000000" stroke-width="1,5" stroke-linecap="round" stroke-linejoin="round" d="M91.06,223.99c3.11,10.58,3.62,21.74-2.7,29.71c-12.35,15.58-26.28,6.52-36.8-4.68
				c8.21,5.68,16.9,7.93,27.1,4.43c12.74-4.38,13.07-18.27,12.23-29.41L91.06,223.99z"/>
			<path fill="#FFFFFE" stroke="#000000" stroke-width="1,5" stroke-linecap="round" stroke-linejoin="round" d="M94.89,98.43c-1.59,3.65-3.32,7.09-4.9,10.2l-0.6-0.3c-13.97-0.17-29.17-13.74-41.02-20.39
				c1.04-1.86,1.92-3.82,2.56-5.65l0.25,0.09c3.88-7.03,17.56-5.04,23.67-2.41C82.41,83.21,90.96,91.13,94.89,98.43z"/>
			<path fill="#FFFFFE" stroke="#000000" stroke-width="1,5" stroke-linecap="round" stroke-linejoin="round" d="M89.04,110.5c-1.03,2.01-2.25,4.21-3.66,6.48l-0.85-0.43c-14.45,7.42-41.68-5.58-39.94-23.35
				c1.38-1.44,2.68-3.28,3.78-5.26c11.85,6.65,27.05,20.22,41.02,20.39l0.6,0.3C89.67,109.27,89.35,109.89,89.04,110.5z"/>
			<path fill="#FFFFFE" stroke="#000000" stroke-width="1,5" stroke-linecap="round" stroke-linejoin="round" d="M79.58,164.44c8.5-3.3,24.34,26,26.94,32.38c-5.7-0.01-34.29-27.55-27.62-32.02
				c0.05-0.05,0.11-0.09,0.17-0.12C79.24,164.59,79.4,164.51,79.58,164.44z"/>
			<path fill="#FFFFFE" stroke="#000000" stroke-width="1,5" stroke-linecap="round" stroke-linejoin="round" d="M40.67,225.34c11.63-7.22,31.02-13.25,38.14-25.4l0.58-0.35c0.39,0.6,0.76,1.18,1.13,1.75
				c1.26,1.96,2.57,4.19,3.87,6.62l-0.88,0.31c-0.7,16.21-25.82,33.36-40.18,22.96C42.77,229.32,41.82,227.28,40.67,225.34z"/>
			<path fill="#FFFFFE" stroke="#000000" stroke-width="1,5" stroke-linecap="round" stroke-linejoin="round" d="M79.39,199.59l-0.58,0.35c-7.12,12.15-26.51,18.18-38.14,25.4c-1.09-1.84-2.35-3.59-3.61-5.06l0.23-0.2
				c-4.21-6.85,4.43-17.7,9.73-21.7c6.51-4.92,17.76-8.48,26-8.16C75.38,193.42,77.5,196.65,79.39,199.59z"/>
			<path fill="#FFFFFE" stroke="#000000" stroke-width="1,5" stroke-linecap="round" stroke-linejoin="round" d="M78.73,162.65c0.12-0.2,0.22-0.5,0.33-0.84C78.79,162.01,78.81,162.4,78.73,162.65z M76.05,157.59
				c0.36-0.47,0.97-1.25,1.46-1.86c0.1,1.3,0.94,2.79,1.02,3.48c0.05-0.34-0.12-1.05,0-1.7c1.05,0.99,0.79,1.3,1.62,1.94
				c-0.59,0.65-0.85,1.6-1.09,2.35c0.01,0,0.02-0.01,0.03-0.02c-0.04,0.73-0.02,2.02,0.47,2.61l0.02,0.05
				c-0.18,0.07-0.34,0.15-0.51,0.24c-0.06,0.03-0.12,0.07-0.17,0.12l-0.01-0.02c-2.38-1.02-4.76-2.05-6.4-4.07
				c0.41,0.04,0.78-0.05,1.11-0.27c-0.92-0.28-1.83-0.65-2.72-0.99c1.14,0.02,1.91,0.05,3.04,0.27c-2.08-0.57-3.27-1.56-3.95-3.75
				c0.62,0.57,2.17,1.24,2.68,1.58c0.75-2.39,0.66-1.12,2.45-2.88C75.42,155.68,75.91,156.54,76.05,157.59z"/>
			<path fill="#FFFFFE" stroke="#000000" stroke-width="1,5" stroke-linecap="round" stroke-linejoin="round" d="M74.59,130.85l0.13,0.12c-7.6,7.99-17.03,14.01-27.05,12.52c-19.65-2.92-18.78-19.52-14.36-34.23
				c-0.81,9.95,1.6,18.57,9.72,25.68C53.14,143.79,65.4,137.18,74.59,130.85z"/>
			<path fill="#FFFFFE" stroke="#000000" stroke-width="1,5" stroke-linecap="round" stroke-linejoin="round" d="M63.85,161.79c0.39-2.35,0.31-5.34,0.63-8.02c0.21-1.8,0.6-3.47,1.42-4.71c0.69-1.03,1.66-1.77,3.08-2.06
				c8.13-1.66,3.04,9.8-2.21,5.42c-1.21,2.84-1.41,6.8-2.65,10.25C64.02,162.38,63.93,162.08,63.85,161.79z"/>
			<path fill="#FFFFFE" stroke="#000000" stroke-width="1,5" stroke-linecap="round" stroke-linejoin="round" d="M64.48,153.77c-0.32,2.68-0.24,5.67-0.63,8.02c-0.35-1.21-0.64-2.36-0.55-3.25h-0.01
				C63.56,156.86,63.98,155.22,64.48,153.77z"/>
			<path fill="#FFFFFE" stroke="#000000" stroke-width="1,5" stroke-linecap="round" stroke-linejoin="round" d="M63.3,151.67c0.13,1.77-0.13,3.79-0.38,5.88c-0.51-2.33-1.81-4.55-3.56-6.26l0.05-0.05
				C60.16,152.06,61.42,152.4,63.3,151.67z"/>
			<path fill="#FFFFFE" stroke="#000000" stroke-width="1,5" stroke-linecap="round" stroke-linejoin="round" d="M64.48,153.77c-0.5,1.45-0.92,3.09-1.19,4.77c-0.05,0.26-0.09,0.52-0.12,0.79
				c0.31,1.12,0.17,2.69,0.13,3.87c-0.29-0.07-0.56-0.12-0.8-0.16l0.01-0.08c-0.03-1.51,0.12-3.05,0.3-4.57
				c0.03-0.28,0.07-0.56,0.11-0.84c0.25-2.09,0.51-4.11,0.38-5.88c-1.88,0.73-3.14,0.39-3.89-0.43c-0.2-0.22-0.36-0.47-0.49-0.74
				c-1.54-3.3,1.82-9.97,6.78-1.56l0.2,0.12C65.08,150.3,64.69,151.97,64.48,153.77z"/>
			<path fill="#FFFFFE" stroke="#000000" stroke-width="1,5" stroke-linecap="round" stroke-linejoin="round" d="M62.92,157.55c-0.04,0.28-0.08,0.56-0.11,0.84c-1.87-4.49-7.08-2.96-8.04-8.34
				c1.19,0.02,2.94,0.06,3.99,0.47l0.16-0.02c0.13,0.27,0.29,0.52,0.49,0.74l-0.05,0.05C61.11,153,62.41,155.22,62.92,157.55z"/>
			<path fill="#FFFFFE" stroke="#000000" stroke-width="1,5" stroke-linecap="round" stroke-linejoin="round" d="M64.12,162.67c1.02,3.33,2.06,6.71-2.72,6.02c0.43,2.52-5.19-6.61,1.1-5.65c0.24,0.04,0.51,0.09,0.8,0.16
				c0.04-1.18,0.18-2.75-0.13-3.87c0.03-0.27,0.07-0.53,0.12-0.79h0.01c-0.09,0.89,0.2,2.04,0.55,3.25
				C63.93,162.08,64.02,162.38,64.12,162.67z"/>
			<path fill="#FFFFFE" stroke="#000000" stroke-width="1,5" stroke-linecap="round" stroke-linejoin="round" d="M51.26,81.31C66.85,60.5,89.81,67.63,97.85,90.8c-0.86,2.61-1.88,5.16-2.96,7.63
				c-3.93-7.3-12.48-15.22-20.04-18.46c-6.11-2.63-19.79-4.62-23.67,2.41l-0.25-0.09C51.05,81.96,51.16,81.63,51.26,81.31z"/>
			<path fill="#FFFFFE" stroke="#000000" stroke-width="1,5" stroke-linecap="round" stroke-linejoin="round" d="M50.05,81.62c6.62-10.89,15.51-24.12,30.22-23.14c16.06,1.06,17.21,14.67,19.16,26.8
				c-0.43,1.85-0.96,3.7-1.58,5.52c-8.04-23.17-31-30.3-46.59-9.49C50.83,81.45,50.43,81.55,50.05,81.62z"/>
			<path fill="#FFFFFE" stroke="#000000" stroke-width="1,5" stroke-linecap="round" stroke-linejoin="round" d="M50.05,81.62c0.38-0.07,0.78-0.17,1.21-0.31c-0.1,0.32-0.21,0.65-0.33,0.98
				c-0.64,1.83-1.52,3.79-2.56,5.65c-1.1,1.98-2.4,3.82-3.78,5.26c-0.33-0.19-0.67-0.48-0.99-0.86c-0.56-0.61-1.1-1.44-1.62-2.44
				c-3.75-7.13-6.46-22.53-0.94-22.42c3.03,0.06,0.91,11.13,5.47,13.73C47.4,81.72,48.55,81.91,50.05,81.62z"/>
			<path fill="#FFFFFE" stroke="#000000" stroke-width="1,5" stroke-linecap="round" stroke-linejoin="round" d="M63.96,179.75c-11.48-4.42-23.88-10.2-32.83,3.16c-8.2,12.23-1.21,26.6,4.91,37.78
				c-0.51,1.49-1.29,2.4-2.22,2.91l-0.01-0.28c-8.17-13.94-21.5-46.13,4.4-52.23C48.34,168.71,56.88,173.09,63.96,179.75z"/>
			<path fill="#FFFFFE" stroke="#000000" stroke-width="1,5" stroke-linecap="round" stroke-linejoin="round" d="M44.59,93.2c-1.74,17.77,25.49,30.77,39.94,23.35l0.85,0.43c-1.96,3.18-4.28,6.51-6.88,9.7l-0.6-0.34
				c-12.22,6.56-21.72,6.56-32.37-2.56c-8.48-7.26-8.32-22.74-2.01-31.37l0.08-0.07C43.92,92.72,44.26,93.01,44.59,93.2z"/>
			<path fill="#FFFFFE" stroke="#000000" stroke-width="1,5" stroke-linecap="round" stroke-linejoin="round" d="M43.33,231.23c14.36,10.4,39.48-6.75,40.18-22.96l0.88-0.31c1.74,3.27,3.44,6.91,4.87,10.72l-0.58,0.22
				c-0.48,13.85-5.18,22.11-18.41,26.79c-10.58,3.75-23.81-4.16-28.17-13.95l-0.02-0.07C42.58,231.56,43,231.42,43.33,231.23z"/>
			<path fill="#FFFFFE" stroke="#000000" stroke-width="1,5" stroke-linecap="round" stroke-linejoin="round" d="M38.71,94.78l2.56-4.5l0.71-0.38c0.52,1,1.06,1.83,1.62,2.44l-0.08,0.07
				c-6.31,8.63-6.47,24.11,2.01,31.37c10.65,9.12,20.15,9.12,32.37,2.56l0.6,0.34c-1.2,1.47-2.46,2.91-3.78,4.29l-0.13-0.12
				c-9.19,6.33-21.45,12.94-31.56,4.09c-8.12-7.11-10.53-15.73-9.72-25.68C34.92,103.94,36.98,98.87,38.71,94.78z"/>
			<path fill="#FFFFFE" stroke="#000000" stroke-width="1,5" stroke-linecap="round" stroke-linejoin="round" d="M42.1,231.74c4.36,9.79,17.59,17.7,28.17,13.95c13.23-4.68,17.93-12.94,18.41-26.79l0.58-0.22
				c0.67,1.74,1.27,3.52,1.8,5.31l-0.17,0.05c0.84,11.14,0.51,25.03-12.23,29.41c-10.2,3.5-18.89,1.25-27.1-4.43
				c-3.79-4.04-7.14-8.37-9.81-11.91l-2.57-4.46l0.01-0.8c1.11,0.04,2.09-0.02,2.89-0.18L42.1,231.74z"/>
			<path fill="#FFFFFE" stroke="#000000" stroke-width="1,5" stroke-linecap="round" stroke-linejoin="round" d="M43.33,231.23c-0.33,0.19-0.75,0.33-1.25,0.44c-0.8,0.16-1.78,0.22-2.89,0.18
				c-8.02-0.28-22.64-5.45-19.86-10.38c1.45-2.59,9.9,4.62,14.49,2.13c0.93-0.51,1.71-1.42,2.22-2.91c0.13-0.35,0.24-0.74,0.34-1.16
				c0.22,0.24,0.45,0.49,0.68,0.75c1.26,1.47,2.52,3.22,3.61,5.06C41.82,227.28,42.77,229.32,43.33,231.23z"/>
			<path fill="#FFFFFE" stroke="#000000" stroke-width="1,5" stroke-linecap="round" stroke-linejoin="round" d="M36.38,219.53c-0.1,0.42-0.21,0.81-0.34,1.16c-6.12-11.18-13.11-25.55-4.91-37.78
				c8.95-13.36,21.35-7.58,32.83-3.16c1.36,1.28,2.67,2.64,3.92,4.06C43.79,179.24,26.14,195.63,36.38,219.53z"/>
			<path fill="#FFFFFE" stroke="#000000" stroke-width="1,5" stroke-linecap="round" stroke-linejoin="round" d="M47.02,198.38c-5.3,4-13.94,14.85-9.73,21.7l-0.23,0.2c-0.23-0.26-0.46-0.51-0.68-0.75
				c-10.24-23.9,7.41-40.29,31.5-35.72c1.83,2.06,3.54,4.23,5.14,6.41C64.78,189.9,53.53,193.46,47.02,198.38z"/>
			<path fill="#FFFFFE" stroke="#000000" stroke-width="1,5" stroke-linecap="round" stroke-linejoin="round" d="M33.46,144.95c15-2.68,17.16,20.13,4.06,23.7c-11.26,3.07-22.56-13.3-11.69-21.58
				c1.67,0.58,3.29,1.07,4.67,1.14v0.06c2.81,0.58,5.68,0.93,2.83-1.63C33.37,146.08,33.43,145.52,33.46,144.95z"/>
			<path fill="#FFFFFE" stroke="#000000" stroke-width="1,5" stroke-linecap="round" stroke-linejoin="round" d="M31.84,146.63c0.27,0.42,0.51,0.84,0.71,1.28c-0.59,0.26-1.28,0.35-2.05,0.3c-1.38-0.07-3-0.56-4.67-1.14
				c-2.67-0.92-5.48-2.07-7.73-2.12C21.65,139.09,28.8,141.96,31.84,146.63z"/>
			<path fill="#FFFFFE" stroke="#000000" stroke-width="1,5" stroke-linecap="round" stroke-linejoin="round" d="M234.56,61.99c-0.69,0.85-1.42,1.43-1.94,2.41c-0.17-0.59-0.47-1.54-0.71-2.29
				c-0.54,1.15-1.87,2.34-2.17,2.93c0.09-0.43,0.48-0.92,0.6-1.63c-1.33,0.57-1.25,0.97-2.21,1.27c0.33,0.84,0.23,1.82,0.18,2.59
				c0-0.02-0.02-0.04-0.03-0.06c-0.19,0.74-0.64,1.9-1.34,2.29l-0.02,0.03c-6.61-5.93-32.03,15.72-36.65,20.75
				c5.37,2.01,41.79-13.6,37.15-20.19c2.59-0.09,5.2-0.23,7.45-1.54c-0.41-0.08-0.72-0.29-0.94-0.63c0.95,0.06,1.93,0.04,2.88,0.04
				c-1.1-0.39-1.79-0.61-2.92-0.79c2.16,0.15,3.61-0.37,4.97-2.13c-0.77,0.3-2.46,0.37-3.04,0.51
				C235.96,63.05,235.59,64.24,234.56,61.99z M134.11,87.51c-0.09-1.25-0.6-1.54-1.82-1.06l-0.16-0.8
				c5.31-3.69,8.56-11.82,1.7-15.91c0.47,2.87-0.97,6.08-2.16,9.14c-10.08-13.23-27.52,0.97-24.8,13.77
				C110.13,107.95,137.92,104.62,134.11,87.51z M135.88,102.09c-0.55,1.18-1.87,2.28-2.21,2.92c0.09-0.39,0.51-0.93,0.63-1.62
				c-1.3,0.54-1.31,0.97-2.21,1.27c0.33,0.82,0.23,1.8,0.19,2.57c-0.01-0.02-0.02-0.03-0.03-0.05c-0.21,0.71-0.67,1.92-1.34,2.3
				l-0.03,0.03c-6.86-6.04-31.95,15.63-36.64,20.74c5.27,2,41.84-13.71,37.16-20.18c2.59-0.13,5.17-0.25,7.4-1.54
				c-0.38-0.11-0.7-0.32-0.94-0.63c0.95,0.06,1.92,0.04,2.88,0.04c-1.07-0.4-1.77-0.63-2.88-0.83c2.2,0.09,3.5-0.23,4.97-2.1
				c-0.8,0.32-2.46,0.37-3.08,0.52c0.03-0.42,0.99-1.28,0.87-1.74c-1.16-0.93-1.5-0.47-2.13-1.82c-0.66,0.82-1.39,1.45-1.9,2.41
				C136.42,103.77,136.12,102.83,135.88,102.09z M212.91,111.12c-17.08-3.76-1.64,17.65,3.06,6.3c3.2,3.85,5.57,10.2,9.67,14.34
				l0.03,0.02c-0.8,1.15-1.43,2.99-1.14,4.38c0.71,3.41,4.82,3.28,6.99,1.72c-0.03,0.7-0.2,1.42-0.4,2.09
				c1.31-3.17,2.68-14.65-4.03-9.71c-0.52-2.32-1.52-4.61-2.6-6.82c0.59-6.63,7.38-7.58,7.35-15.23c-1.71,0.6-4.13,1.56-5.41,2.65
				l-0.16-0.04c0.49-2.21-0.06-4.86-1.62-6.6c-4.06-4.54-8.06,4.47-8.88,7.74l-0.27,0.35C214.73,111.74,213.88,111.33,212.91,111.12
				z M212.7,238.09c-0.03,0.18-1.08,0.94-1.15,0.96c0.43-1.19,0.56-2.51,1.06-3.68c-0.86,1.23-1.45,2.1-2.05,3.44
				c0.5-2.47,1.4-5.16-1.03-7.11c0.18,1.11-0.34,3.24-0.31,4.11c-2.05-1.55-2.96-1.05-5.01,0.39c0.89,0.89,1.35,2.53,2.4,3.28
				c-0.87,0.04-1.96,0.28-3.11,0.16c1.45,1.39,2.13,2.78,2.96,3.75c-0.83-0.85-0.59-0.82-1.86-1.3c0.6,2.01,0.68,1.96,0.87,3.2
				c1.23,0.06,2.34,0.4,3.31,0.67c-0.01,0-0.02,0-0.03,0c1.07,0.65,1.78,1.48,2.44,2.53l0.02,0.02
				c-9.68,6.34,9.21,46.51,14.03,53.82c4.02-3.29-0.89-26.16-1.99-31.59c-0.94-4.73-2.04-26.35-11.15-22.69
				C212.81,244.78,213.76,241.31,212.7,238.09z M219.64,203.14c-0.66,0.18-1.1-0.18-1.34,0.16c3.23,1.2,8.53,0.2,5.86-3.69l0.1-0.07
				c1.38-0.63,2.7-1.45,3.98-2.3c4.73-0.21,5.83,4.91,11.02,3.53c-0.56-1.09-1.37-2.63-2.21-3.4l-0.01-0.15
				c3.62-0.18,7.95-6.16-1.69-6.76l-0.22-0.13c0.62-1.07,0.85-2.29,0.46-3.7c-2.2-8-10.07,1.74-3.83,4.42
				c-2.04,2.36-5.46,4.32-7.98,6.96C220.35,198.6,216.85,199.2,219.64,203.14z M116.7,208.19l-0.19,0.02
				c-0.12-0.94-0.84-1.13-0.76-1c-11.26,0.63-9.8,16.47,0,18.45c9.61,1.94,15.74-13.82,5.9-18.23c1.87-1.04,3.82-2.26,5.63-2.83
				c-3.83-3.71-8.46-0.45-10.03,3.59H116.7z M199.67,222.34c-14.27,7.77-28.89,16.86-45.76,10.4c-8.14-3.12-14.48-7.12-20.16-13.21
				c-1.78-1.91,0.2-5.79-4.58-3.53c-4.39,2.07,1.21,5.27,2.06,8.11c2.57,8.66,0.94,15.41,10.38,20.58
				c9.82,5.36,20.45,7.15,31.54,6.08c7.49-0.71,15.7-4.05,21.39-9.02c3.47-3.02,13.01-15.28,6.9-19.02
				C200.95,222.13,200.36,222,199.67,222.34z M106.52,196.82c-2.6-6.38-18.44-35.68-26.94-32.38l-0.02-0.05
				c-0.49-0.59-0.51-1.88-0.47-2.61c-0.01,0.01-0.02,0.02-0.03,0.02c0.24-0.75,0.5-1.7,1.09-2.35c-0.83-0.64-0.57-0.95-1.62-1.94
				c-0.12,0.65,0.05,1.36,0,1.7c-0.08-0.69-0.92-2.18-1.02-3.48c-0.49,0.61-1.1,1.39-1.46,1.86c-0.14-1.05-0.63-1.91-0.95-2.92
				c-1.79,1.76-1.7,0.49-2.45,2.88c-0.51-0.34-2.06-1.01-2.68-1.58c0.68,2.19,1.87,3.18,3.95,3.75c-1.13-0.22-1.9-0.25-3.04-0.27
				c0.89,0.34,1.8,0.71,2.72,0.99c-0.33,0.22-0.7,0.31-1.11,0.27c1.64,2.02,4.02,3.05,6.4,4.07l0.01,0.02
				C72.23,169.27,100.82,196.81,106.52,196.82z M99.67,36.1c-2.41-3.59-7.7-5.85-10.56-1.32c1.91,0.16,4.05,0.91,6.08,1.52
				c-8.67,6.46,0.8,20.48,9.71,16.49c9.15-4.09,7.13-19.67-3.99-18.01c0.04-0.1-0.64,0.27-0.55,1.21L100.2,36L99.67,36.1z
				 M37.52,168.65c13.1-3.57,10.94-26.38-4.06-23.7c-0.26,0.35-1.67,0.57-0.16,3.12c-0.03-0.49-0.01-0.96,0.03-1.43
				c2.85,2.56-0.02,2.21-2.83,1.63v-0.06c0.77,0.05,1.46-0.04,2.05-0.3c-0.2-0.44-0.44-0.86-0.71-1.28
				c-3.04-4.67-10.19-7.54-13.74-1.68c2.25,0.05,5.06,1.2,7.73,2.12C14.96,155.35,26.26,171.72,37.52,168.65z M41.04,67.48
				c-5.52-0.11-2.81,15.29,0.94,22.42l-0.71,0.38l-2.56,4.5c-1.73,4.09-3.79,9.16-5.4,14.48c-4.42,14.71-5.29,31.31,14.36,34.23
				c10.02,1.49,19.45-4.53,27.05-12.52c1.32-1.38,2.58-2.82,3.78-4.29c2.6-3.19,4.92-6.52,6.88-9.7c1.41-2.27,2.63-4.47,3.66-6.48
				c0.31-0.61,0.63-1.23,0.95-1.87c1.58-3.11,3.31-6.55,4.9-10.2c1.08-2.47,2.1-5.02,2.96-7.63c0.62-1.82,1.15-3.67,1.58-5.52
				c2.23-9.45,1.76-19.02-5.4-26.58c-18.36-19.39-39.28,8.23-47.39,22.29l-0.13,0.22C41.95,78.61,44.07,67.54,41.04,67.48z
				 M67.88,183.81c-1.25-1.42-2.56-2.78-3.92-4.06c-7.08-6.66-15.62-11.04-25.75-8.66c-25.9,6.1-12.57,38.29-4.4,52.23l0.01,0.28
				c-4.59,2.49-13.04-4.72-14.49-2.13c-2.78,4.93,11.84,10.1,19.86,10.38l-0.01,0.8l2.57,4.46c2.67,3.54,6.02,7.87,9.81,11.91
				c10.52,11.2,24.45,20.26,36.8,4.68c6.32-7.97,5.81-19.13,2.7-29.71c-0.53-1.79-1.13-3.57-1.8-5.31
				c-1.43-3.81-3.13-7.45-4.87-10.72c-1.3-2.43-2.61-4.66-3.87-6.62c-0.37-0.57-0.74-1.15-1.13-1.75c-1.89-2.94-4.01-6.17-6.37-9.37
				C71.42,188.04,69.71,185.87,67.88,183.81z M66.77,152.42c5.25,4.38,10.34-7.08,2.21-5.42c-1.42,0.29-2.39,1.03-3.08,2.06
				l-0.2-0.12c-4.96-8.41-8.32-1.74-6.78,1.56l-0.16,0.02c-1.05-0.41-2.8-0.45-3.99-0.47c0.96,5.38,6.17,3.85,8.04,8.34
				c-0.18,1.52-0.33,3.06-0.3,4.57l-0.01,0.08c-6.29-0.96-0.67,8.17-1.1,5.65c4.78,0.69,3.74-2.69,2.72-6.02
				C65.36,159.22,65.56,155.26,66.77,152.42z M287.88,168.97c1.99,2.34,3.53,5.99,5.82,8.82c0.12,3.48,0.23,7.04,4.52,4.81
				c0.41,2.6,2.8-7.93-2.88-4.98l-0.04-0.08c-0.45-1.45-1.09-2.87-1.76-4.24c0.35-4.82,5.72-5.1,4.92-10.49
				c-1.14,0.39-2.78,1.03-3.63,1.77l-0.14-0.02c0.3-3.61-5.09-8.79-6.93,0.77l-0.17,0.21c-0.97-0.76-2.14-1.14-3.58-0.96
				C275.75,165.62,284.32,174.84,287.88,168.97z M149.74,88.38c2.06,2.3,3.54,6.01,5.86,8.85c0.12,3.49,0.24,7.03,4.52,4.82
				c0.38,2.54,2.79-7.95-2.88-4.99l-0.04-0.07c-0.46-1.45-1.11-2.87-1.77-4.25c0.36-4.77,5.62-5.15,4.92-10.48
				c-1.13,0.38-2.78,1.01-3.63,1.74l-0.18-0.03c0.34-3.6-4.87-8.66-6.92,0.78l-0.18,0.21c-0.96-0.73-2.11-1.09-3.53-0.92
				C137.62,85.05,146.31,94.32,149.74,88.38z M150.49,305.65l0.25-0.01c0.04,5.28-10.62,9.01-9.13,11.62
				c2.73,4.82,14.59-5.12,18.9-11.93l0.71,0.32h5.17c4.41-0.58,9.82-1.33,15.21-2.61c14.94-3.51,29.71-10.98,22.41-29.51
				c-3.72-9.45-13.64-14.62-24.35-17.22c-1.81-0.44-3.63-0.81-5.46-1.11c-4.06-0.67-8.1-1.02-11.85-1.14
				c-2.7-0.09-5.24-0.06-7.52,0.06c-0.68,0.04-1.37,0.07-2.08,0.11c-3.51,0.19-7.36,0.42-11.31,0.86c-2.68,0.3-5.41,0.7-8.09,1.26
				c-1.88,0.38-3.73,0.83-5.54,1.39c-9.25,2.8-17.25,8-20.3,17.96C99.7,301.16,134.41,305.73,150.49,305.65z M241.55,57.06
				c9.13-4.08,7.14-19.75-3.99-18.02c0.04-0.11-0.65,0.25-0.55,1.22l-0.16,0.01l-0.53,0.07c-2.4-3.6-7.7-5.79-10.56-1.3
				c1.91,0.12,4.05,0.88,6.09,1.5C223.22,47.03,232.6,61.05,241.55,57.06z M240.28,293.84c6.61-1.94,13.85-5.49,20.04-10.28
				c6.14-4.73,11.23-10.69,13.63-17.48c2.6-7.37,5.02-15.98,4.06-23.95c-0.62-5.21-1.38-7.99-3.8-9.1c-0.96-0.45-2.18-0.63-3.76-0.6
				c-0.64,0.01-1.34,0.06-2.11,0.14c-11.51,1.22-23.02,2.45-34.53,3.67c-5.63,0.59-8.31,1.82-9.09,4.8
				c-0.5,1.89-0.22,4.51,0.56,8.13c2.97,13.79,8.29,27.76,13.54,40.99C239.31,291.39,239.79,292.62,240.28,293.84z M272.95,174
				c-2,0.63-4.11,2.36-6.63,4.71c-10.35,9.63-19.67,21.24-28.4,32.5c-0.81,1.04-1.61,2.08-2.41,3.11c5.3,4.96,11.91,9.2,19.05,11.94
				c7.78,2.98,16.17,4.18,24.16,2.6c6.53-1.29,16.44-3.95,21.14-8.95c3.44-3.66,5.19-5.3,5.23-7.17c0.02-0.99-0.44-2.06-1.39-3.53
				c-0.61-0.94-1.43-2.05-2.44-3.42c-6.85-9.25-13.7-18.5-20.54-27.75C277.88,174.21,275.5,173.2,272.95,174z M247.78,146.96
				c-2.12-1.21-2.12,0.62-1.49,2.42l-1.06,0.16c-4.89-7.17-15.3-11.56-21.09-2.62c3.77-1.03,8.14,1.14,12.31,2.97
				c-9.59,7.24-7.98,18.98-1.64,27.59c3.1,4.21,11.62,7.69,16.74,6.16c9.47-2.81,15.94-8.56,16.34-20.04
				C268.25,153.24,257.94,144.87,247.78,146.96z M73.28,34.74c47.37-33.26,111-37.22,162.21-10.51
				c33.16,17.29,56.9,44.52,70.63,76.83c-3.65-3.35-12.86-6.1-18.64-6.31l0.01-0.8l-2.57-4.46c-2.65-3.52-5.97-7.81-9.74-11.83
				c-10.52-11.24-24.49-20.37-36.87-4.76c-6.33,7.98-5.83,19.14-2.71,29.71c0.53,1.8,1.13,3.58,1.8,5.32
				c1.43,3.8,3.13,7.44,4.88,10.71c1.29,2.43,2.61,4.66,3.87,6.62c0.37,0.57,0.74,1.15,1.13,1.75c1.89,2.94,4.01,6.17,6.37,9.37
				c1.6,2.18,3.31,4.35,5.14,6.41c1.25,1.41,2.55,2.78,3.91,4.06c7.08,6.65,15.62,11.05,25.76,8.66c25.89-6.1,12.58-38.29,4.4-52.24
				l-0.36-0.07c4.47-3.07,13.35,4.58,14.84,1.93c0.1-0.18,0.18-0.36,0.23-0.54c7.29,18.31,11.43,38.16,12.32,58.69
				c-2.21,51.21-24.05,98.58-66.82,128.54c-41.38,28.99-95.99,36.25-143.47,18.92c-54.53-19.89-93.98-69.64-101.64-127
				C0.31,126.45,25.93,67.98,73.28,34.74z M193.69,102.7c-2.41-3.59-7.65-5.78-10.56-1.32c1.79,0.16,3.95,0.98,6,1.62
				c-8.99,6.8,1.4,20.35,10.62,16.19c9.02-4.07,5.55-19.37-4.78-17.77c0.04-0.11-0.71,0.18-0.6,1.17l-0.15,0.01L193.69,102.7z
				 M219.16,50.9c7.82-25.46-26.91-30.03-42.98-29.95l-0.25,0.01c-0.04-5.27,10.59-8.98,9.09-11.62
				c-2.72-4.82-14.55,5.15-18.86,11.96l-0.71-0.35h-5.17c-4.41,0.58-9.84,1.33-15.25,2.61c-14.92,3.52-29.68,10.99-22.41,29.51
				c3.71,9.45,13.65,14.62,24.39,17.23c1.81,0.44,3.64,0.8,5.46,1.1c4.05,0.67,8.09,1.02,11.83,1.14c2.7,0.09,5.25,0.06,7.54-0.06
				c0.68-0.04,1.37-0.07,2.08-0.11c3.49-0.18,7.34-0.41,11.27-0.85c2.7-0.31,5.43-0.71,8.12-1.27c1.88-0.37,3.73-0.83,5.53-1.38
				C208.09,66.06,216.1,60.87,219.16,50.9z M186.6,117.38c-5.16-5.33-9.05-11.54-9.13-19.84c-0.06-7.07,1.95-12.01,3.69-18.17
				c0.51-1.84,3.08-0.48,2.09-3.47c-1.48-4.46-3.89,0.32-4.62,1.42c-3.38,5.08-10.33,4.36-12.28,11.2
				c-2.14,7.57-1.37,15.72,1.52,22.99c0.05,0.14,0.11,0.27,0.17,0.41l-0.03,0.01c-22.72-0.46-39.91,9.25-51.17,28.9
				c-4.53,0.61-9.3,0.19-14.57-1.85c-4.14-1.61-12.61-5.05-13.77-10.03c-0.98-4.18-6.01-2.46-2.7,2.17
				c3.54,4.97,0.19,11.24,5.85,15.59c5.91,4.54,13.43,6.95,20.87,7.09v0.04c-2.74,26.85,9.34,47.59,34.14,58.31
				c4.05,1.24,8.1,2.08,12.31,2.56l0.05-0.01c0.38,2.6,4.97,5.39,7.29,1.47c2.05,2.31,3.56,5.98,5.85,8.82
				c0.12,3.48,0.23,7.02,4.53,4.81c0.4,2.57,2.8-7.89-2.89-4.99l-0.03-0.06c-0.46-1.44-1.1-2.85-1.76-4.22
				c0.25-3.7,3.44-4.75,4.59-7.47l0.06,0.03c6.44-2.43,11.69-5.01,17.56-8.61l0.19-0.39c2.3,1.06,4.97,1.28,7.55,0.11
				c5.21-2.35,6.25-8.46,4.21-12.88l0.4-0.19l4.52-9.01c0.73,3.83,1.49,6.94,2,8.54c4.29-3.57,8.69-42.12,1.26-42.33v-0.06
				c1.57-3.47,3.88-6.88,3.55-10.79c-0.29,0-1.22,0.67-1.58,0.75c0.84-1.17,1.36-2.64,2.25-3.75c-1.01,1.18-2.26,1.95-3.23,3.2
				c1.16-2.9,3.04-4.91,0.94-8.1c-0.14,1.29-1.4,3.48-1.57,4.43c-1.3-2.55-3.37-2.01-5.61-1.03c0.72,1.22,0.79,3.15,1.7,4.31
				c-0.88-0.27-2.34-0.33-3.48-0.75c0.03,0.05,0.07,0.1,0.1,0.15l-0.06,0.04C201.52,128.39,195.24,122.56,186.6,117.38z
				 M109.69,257.24c2.69-6.5,4.16-13.99,2.43-21c-1.03-4.19-6.63-15.57-12.08-12.52c-0.62,0.13-0.88,0.52-0.78,1.15
				c1.24,12.49,3.38,25.43-6.23,35.58c-4.87,5.14-9.8,7.22-15.33,10.4c-1.68,0.97-2.55-1.83-3.94,1.02
				c-2.06,4.22,3.02,2.52,4.3,2.24c5.98-1.32,10.41,4.1,16.62,0.59C101.49,270.85,106.72,264.44,109.69,257.24z"/>
		</g>
	</g>
</g>
</svg>
