<?xml version="1.0" encoding="utf-8"?>
<svg version="1.2" baseProfile="tiny" id="Layer_1" xmlns="http://www.w3.org/2000/svg" xmlns:xlink="http://www.w3.org/1999/xlink"
	 x="0px" y="0px" width="478.8px" height="479.26px" viewBox="0 0 478.8 479.26" xml:space="preserve">
<g>
	<g id="XMLID_1_">
		<g>
			<path fill="#FFFFFF" stroke="#000000" stroke-width="4" stroke-linecap="round" stroke-linejoin="round" stroke-miterlimit="10"  d="M203.42,22.26c3.11,2.86,5.81,6.24,7.98,10.08c-9.73,1.29-19.24,3.26-28.47,5.86
				c0.94-8.77,4.63-16.69,10.14-22.89C196.83,17.07,200.32,19.4,203.42,22.26z"/>
			<path fill="#FFFFFF" stroke="#000000" stroke-width="4" stroke-linecap="round" stroke-linejoin="round" stroke-miterlimit="10"  d="M137.53,36.97c6.94,1.74,13.47,5.34,18.87,10.66c-7.39,3.2-14.56,6.82-21.47,10.82
				C133.84,50.97,134.84,43.6,137.53,36.97z"/>
			<path fill="#FFFFFF" stroke="#000000" stroke-width="4" stroke-linecap="round" stroke-linejoin="round" stroke-miterlimit="10"  d="M156.16,176.58c1.02,4.94,2.84,9.85,5.51,14.51c-8.84,14.09-13.95,30.74-13.95,48.54
				c0,1.46,0.03,2.92,0.11,4.36c-4.59,2.76-8.56,6.15-11.86,9.96c-15.6-10.25-23.87-28.55-19.26-46.3
				C121.35,189.86,137.51,177.89,156.16,176.58z"/>
			<path fill="#FFFFFF" stroke="#000000" stroke-width="4" stroke-linecap="round" stroke-linejoin="round" stroke-miterlimit="10"  d="M160.11,433.23c-0.08,8.8,2.6,17.05,7.34,23.88c-9.76,3.23-20.7,2.77-30.58-1.91
				c-11-5.23-18.73-14.86-21.88-25.92c7.09-0.97,13.97-3.8,19.91-8.48c8.08,4.68,16.5,8.82,25.21,12.4V433.23z"/>
			<path fill="#FFFFFF" stroke="#000000" stroke-width="4" stroke-linecap="round" stroke-linejoin="round" stroke-miterlimit="10"  d="M142.32,390.14c11.45,7.43,23.79,13.54,36.84,18.23c-7.82,7.06-14.39,15.57-19.05,24.83
				c0,0,0-0.03,0-0.06C163,416.54,156.03,399.79,142.32,390.14z"/>
			<path fill="#FFFFFF" stroke="#000000" stroke-width="4" stroke-linecap="round" stroke-linejoin="round" stroke-miterlimit="10"  d="M160.11,433.2c8.91,3.68,18.14,6.74,27.59,9.14c-5.2,7.11-12.34,12.14-20.25,14.77
				c-4.74-6.83-7.42-15.08-7.34-23.88V433.2z"/>
			<path fill="#FFFFFF" stroke="#000000" stroke-width="4" stroke-linecap="round" stroke-linejoin="round" stroke-miterlimit="10"  d="M147.83,243.99c0.26,5.59,1.02,11.04,2.24,16.33c-5.16-1.43-9.89-3.61-14.1-6.37
				C139.27,250.14,143.24,246.75,147.83,243.99z"/>
			<path fill="#FFFFFF" stroke="#000000" stroke-width="4" stroke-linecap="round" stroke-linejoin="round" stroke-miterlimit="10"  d="M134.9,420.79c-5.94,4.68-12.82,7.51-19.91,8.48c-1.97-6.91-2.14-14.4-0.2-21.74
				C121.22,412.33,127.93,416.77,134.9,420.79z"/>
			<path fill="#FFFFFF" stroke="#000000" stroke-width="4" stroke-linecap="round" stroke-linejoin="round" stroke-miterlimit="10"  d="M171.64,177.95c-3.7,4.06-7.04,8.46-9.97,13.14c-2.67-4.66-4.49-9.57-5.51-14.51
				C161.2,176.22,166.42,176.64,171.64,177.95z"/>
			<path fill="#FFFFFF" stroke="#000000" stroke-width="4" stroke-linecap="round" stroke-linejoin="round" stroke-miterlimit="10"  d="M93.43,389.28c6.63-7.94,11.83-17.37,15.2-27.37c9.42,10.09,20.01,19.12,31.52,26.8
				C125.85,379.83,107.6,380.03,93.43,389.28z"/>
			<path fill="#FFFFFF" stroke="#000000" stroke-width="4" stroke-linecap="round" stroke-linejoin="round" stroke-miterlimit="10"  d="M137.53,36.97c-2.69,6.63-3.69,14-2.6,21.48c-8.14,4.72-15.91,9.95-23.31,15.69h-0.02
				c-7.57-4.49-16.08-6.29-24.36-5.6c2.08-10.09,7.94-19.37,16.93-25.57C114.19,36.05,126.39,34.14,137.53,36.97z"/>
			<path fill="#FFFFFF" stroke="#000000" stroke-width="4" stroke-linecap="round" stroke-linejoin="round" stroke-miterlimit="10"  d="M177.75,307.43c-1.31,5.23-1.73,10.45-1.38,15.5c-18.26,3.79-37.04-3.31-46.33-19.13
				s-6.32-35.72,5.93-49.85c4.21,2.76,8.94,4.94,14.1,6.37C154.35,278.76,164.2,295.09,177.75,307.43z"/>
			<path fill="#FFFFFF" stroke="#000000" stroke-width="4" stroke-linecap="round" stroke-linejoin="round" stroke-miterlimit="10"  d="M187.24,411.03c2.06,10.34,2.26,21.08,0.49,31.28c0,0,0,0.03-0.03,0.03c-9.45-2.4-18.68-5.46-27.59-9.14
				c4.66-9.26,11.23-17.77,19.05-24.83C181.82,409.31,184.53,410.2,187.24,411.03z"/>
			<path fill="#FFFFFF" stroke="#000000" stroke-width="4" stroke-linecap="round" stroke-linejoin="round" stroke-miterlimit="10"  d="M187.24,411.03c12.97,3.97,26.53,6.48,40.56,7.37c-16.8-0.49-32.45,8.8-40.07,23.91
				C189.5,432.11,189.3,421.37,187.24,411.03z"/>
			<path fill="#FFFFFF" stroke="#000000" stroke-width="4" stroke-linecap="round" stroke-linejoin="round" stroke-miterlimit="10"  d="M204.49,70.85c-6.51,15.2-17.42,28.26-31.98,35.6c-14.48,7.29-31.36,8.29-47.35,4.55
				c-0.26-2.75-0.66-5.49-1.23-8.23c10.25-8.66,21.45-16.17,33.47-22.4c0.54-0.23,1.09-0.49,1.63-0.74c0.57-0.29,1.11-0.6,1.66-0.89
				c12.05-5.94,24.87-10.54,38.26-13.63C200.72,67.11,202.55,69.03,204.49,70.85z"/>
			<path fill="#FFFFFF" stroke="#000000" stroke-width="4" stroke-linecap="round" stroke-linejoin="round" stroke-miterlimit="10"  d="M134.93,58.45c6.91-4,14.08-7.62,21.47-10.82c8.57-3.72,17.42-6.89,26.53-9.43
				c0,0.03-0.03,0.05-0.03,0.05c0.95,16.69-7.74,32.38-22.21,40.49c-1.12,0.51-2.2,1.09-3.29,1.63
				c-15.16,6.86-32.92,4.48-45.78-6.23C119.02,68.4,126.79,63.17,134.93,58.45z"/>
			<path fill="#FFFFFF" stroke="#000000" stroke-width="4" stroke-linecap="round" stroke-linejoin="round" stroke-miterlimit="10"  d="M177.75,307.43c4.06,3.71,8.45,7.05,13.13,9.98c-4.67,2.67-9.57,4.5-14.51,5.52
				C176.02,317.88,176.44,312.66,177.75,307.43z"/>
			<path fill="#FFFFFF" stroke="#000000" stroke-width="4" stroke-linecap="round" stroke-linejoin="round" stroke-miterlimit="10"  d="M157.6,364.23c13.65,8.97,22.99,23.2,27.73,39.05c-2.14,1.6-4.2,3.29-6.17,5.09
				c-13.05-4.69-25.39-10.8-36.84-18.23c0,0-0.03,0-0.03-0.03c-0.19-0.12-0.38-0.25-0.58-0.38s-0.39-0.26-0.59-0.39
				c-0.31-0.23-0.62-0.43-0.97-0.63c-11.51-7.68-22.1-16.71-31.52-26.8c0.85-2.51,1.6-5.05,2.19-7.63
				C127.22,352.33,143.98,355.28,157.6,364.23z"/>
			<path fill="#FFFFFF" stroke="#000000" stroke-width="4" stroke-linecap="round" stroke-linejoin="round" stroke-miterlimit="10"  d="M182.9,38.25c3.57,9.75,9.11,18.95,16.05,26.86c-13.39,3.09-26.21,7.69-38.26,13.63
				C175.16,70.63,183.85,54.94,182.9,38.25z"/>
			<path fill="#FFFFFF" stroke="#000000" stroke-width="4" stroke-linecap="round" stroke-linejoin="round" stroke-miterlimit="10"  d="M89.06,142.45c-7.28,11.26-13.33,23.4-17.96,36.2c-6.74-6.85-15.08-13.08-25.07-18.37c0,0,0.03,0,0.05,0
				C62.68,163.14,79.41,156.17,89.06,142.45z"/>
			<path fill="#FFFFFF" stroke="#000000" stroke-width="4" stroke-linecap="round" stroke-linejoin="round" stroke-miterlimit="10"  d="M198.95,65.11C192.01,57.2,186.47,48,182.9,38.25c0,0,0.03-0.02,0.03-0.05
				c9.23-2.6,18.74-4.57,28.47-5.86c0,0.01,0,0.02,0,0.03c0.36,6.46-0.07,13.04-1.23,19.53c-0.7,3.89-1.66,7.74-2.88,11.5
				c-0.7,0.12-1.39,0.24-2.09,0.38C203.09,64.17,201.01,64.62,198.95,65.11z"/>
			<path fill="#FFFFFF" stroke="#000000" stroke-width="4" stroke-linecap="round" stroke-linejoin="round" stroke-miterlimit="10"  d="M263.44,31.83c9.42,1.08,18.67,2.8,27.67,5.08c0,0.03,0,0.03,0,0.03c-0.03,0.03-0.03,0.03-0.03,0.03
				c-7.83,15.46-24.05,24.86-41.35,23.83c-17.28-1-32.36-12.17-38.33-28.43c0-0.01,0-0.02,0-0.03c9.17-1.26,18.51-1.89,28.02-1.89
				C247.53,30.45,255.52,30.94,263.44,31.83z"/>
			<path fill="#FFFFFF" stroke="#000000" stroke-width="4" stroke-linecap="round" stroke-linejoin="round" stroke-miterlimit="10"  d="M225.09,136.15c-2.77,4.21-4.94,8.95-6.36,14.12c-18.43,4.27-34.75,14.13-47.09,27.68
				c-5.22-1.31-10.44-1.73-15.48-1.37c-3.8-18.27,3.29-37.06,19.09-46.35C191.09,120.92,210.98,123.9,225.09,136.15z"/>
			<path fill="#FFFFFF" stroke="#000000" stroke-width="4" stroke-linecap="round" stroke-linejoin="round" stroke-miterlimit="10"  d="M80.24,321.6c6.91,15.17,4.57,33.05-6.17,45.94c-5.74-7.37-10.97-15.17-15.68-23.31
				c-3.99-6.95-7.62-14.12-10.82-21.52c-3.71-8.57-6.85-17.43-9.42-26.54c0.02,0,0.05,0,0.08,0h0.01
				c16.71-0.94,32.43,7.83,40.49,22.4C79.21,319.6,79.73,320.6,80.24,321.6z"/>
			<path fill="#FFFFFF" stroke="#000000" stroke-width="4" stroke-linecap="round" stroke-linejoin="round" stroke-miterlimit="10"  d="M267.4,446.94c4.32,7.66,10.8,13.49,18.31,17.03c-6.83,7.68-16.53,12.8-27.42,13.65
				c-12.16,0.98-23.67-3.48-31.92-11.51c5.65-4.37,10.22-10.28,13.05-17.31C248.9,448.79,258.24,448.17,267.4,446.94z"/>
			<path fill="#FFFFFF" stroke="#000000" stroke-width="4" stroke-linecap="round" stroke-linejoin="round" stroke-miterlimit="10"  d="M211.4,32.37c5.97,16.26,21.05,27.43,38.33,28.43c-3.43-0.2-6.86-0.29-10.31-0.29
				c-10.29,0-20.38,0.85-30.17,2.54c-0.65,0.11-1.29,0.23-1.93,0.34c1.21-3.76,2.16-7.61,2.85-11.49
				C211.33,45.41,211.76,38.83,211.4,32.37z"/>
			<path fill="#FFFFFF" stroke="#000000" stroke-width="4" stroke-linecap="round" stroke-linejoin="round" stroke-miterlimit="10"  d="M243.76,331.25c2.76,4.59,6.14,8.56,9.94,11.86c-10.25,15.6-28.53,23.86-46.27,19.25
				c-17.78-4.63-29.75-20.79-31.06-39.44c4.94-1.02,9.84-2.85,14.51-5.52c14.08,8.84,30.72,13.96,48.51,13.96
				C240.85,331.37,242.31,331.33,243.76,331.25z"/>
			<path fill="#FFFFFF" stroke="#000000" stroke-width="4" stroke-linecap="round" stroke-linejoin="round" stroke-miterlimit="10"  d="M271.46,415.88c-3.23,10.03-4.65,20.69-4.08,31.03c-5.83-15.91-20.36-26.94-37.19-28.37
				c3.06,0.14,6.14,0.23,9.23,0.23C250.36,418.77,261.06,417.79,271.46,415.88z"/>
			<path fill="#FFFFFF" stroke="#000000" stroke-width="4" stroke-linecap="round" stroke-linejoin="round" stroke-miterlimit="10"  d="M49.94,115.11c0.97,7.06,3.8,13.97,8.48,19.92c-4.68,8.08-8.85,16.51-12.42,25.25
				c-8.8-0.08-17.05,2.6-23.85,7.35c-3.25-9.8-2.79-20.75,1.92-30.63C29.29,126,38.89,118.25,49.94,115.11z"/>
			<path fill="#FFFFFF" stroke="#000000" stroke-width="4" stroke-linecap="round" stroke-linejoin="round" stroke-miterlimit="10"  d="M239.42,448.79c-2.83,7.03-7.4,12.94-13.05,17.31c-5.14-5-9.03-11.37-11.03-18.68
				C223.25,448.33,231.28,448.79,239.42,448.79z"/>
			<path fill="#FFFFFF" stroke="#000000" stroke-width="4" stroke-linecap="round" stroke-linejoin="round" stroke-miterlimit="10"  d="M239.39,178.2c33.84,0,61.43,27.6,61.43,61.43c0,33.85-27.59,61.45-61.43,61.45
				c-33.81,0-61.4-27.6-61.4-61.45C177.99,205.8,205.58,178.2,239.39,178.2z"/>
			<path fill="#FFFFFF" stroke="#000000" stroke-width="4" stroke-linecap="round" stroke-linejoin="round" stroke-miterlimit="10"  d="M31.81,215.57c-0.92,7.88-1.37,15.91-1.37,24.06c-7.06-2.8-12.94-7.35-17.31-13.03
				C18.1,221.45,24.5,217.57,31.81,215.57z"/>
			<path fill="#FFFFFF" stroke="#000000" stroke-width="4" stroke-linecap="round" stroke-linejoin="round" stroke-miterlimit="10"  d="M252.41,13.14c5.14,5,9.03,11.37,11.03,18.69c-7.92-0.89-15.91-1.38-24.02-1.38
				C242.22,23.43,246.76,17.54,252.41,13.14z"/>
			<path fill="#FFFFFF" stroke="#000000" stroke-width="4" stroke-linecap="round" stroke-linejoin="round" stroke-miterlimit="10"  d="M32.29,267.65v0.03C24.61,272,18.81,278.48,15.27,286c-7.68-6.86-12.76-16.57-13.62-27.46
				C0.68,246.4,5.1,234.88,13.13,226.6c4.37,5.68,10.25,10.23,17.31,13.03C30.44,249.13,31.06,258.49,32.29,267.65z"/>
			<path fill="#FFFFFF" stroke="#000000" stroke-width="4" stroke-linecap="round" stroke-linejoin="round" stroke-miterlimit="10"  d="M267.38,446.91c0.02,0,0.02,0.03,0.02,0.03c-9.16,1.23-18.5,1.86-27.98,1.86
				c-8.14,0-16.17-0.46-24.08-1.37c-9.39-1.09-18.64-2.81-27.64-5.09c0.03,0,0.03-0.03,0.03-0.03c7.62-15.11,23.27-24.4,40.07-23.91
				c0.02,0,0.08,0,0.11,0c0.71,0.05,1.46,0.08,2.17,0.14c0.03,0,0.09,0,0.11,0C247.02,419.97,261.55,431,267.38,446.91z"/>
			<path fill="#FFFFFF" stroke="#000000" stroke-width="4" stroke-linecap="round" stroke-linejoin="round" stroke-miterlimit="10"  d="M58.39,344.23c-7.48,1.08-14.85,0.08-21.44-2.63c1.74-6.95,5.31-13.49,10.62-18.89
				C50.77,330.11,54.4,337.28,58.39,344.23z"/>
			<path fill="#FFFFFF" stroke="#000000" stroke-width="4" stroke-linecap="round" stroke-linejoin="round" stroke-miterlimit="10"  d="M32.32,267.65c16.28-5.97,27.42-21.05,28.41-38.34c-0.19,3.43-0.28,6.86-0.28,10.32
				c0,10.97,1,21.71,2.88,32.14c-10.02-3.26-20.67-4.69-31.04-4.09v-0.03H32.32z"/>
			<path fill="#FFFFFF" stroke="#000000" stroke-width="4" stroke-linecap="round" stroke-linejoin="round" stroke-miterlimit="10"  d="M36.89,187.88L36.89,187.88c-2.31,9.01-4,18.26-5.08,27.69c-7.31,2-13.71,5.88-18.68,11.03
				c-7.08-9.15-10.19-21.15-7.82-33.17c2.11-10.78,8.33-19.89,16.84-25.8C24.75,175.51,29.78,182.65,36.89,187.88z"/>
			<path fill="#FFFFFF" stroke="#000000" stroke-width="4" stroke-linecap="round" stroke-linejoin="round" stroke-miterlimit="10"  d="M32.29,267.68c1.32,9.72,3.29,19.23,5.86,28.49c-8.74-0.94-16.65-4.63-22.88-10.17
				C18.81,278.48,24.61,272,32.29,267.68z"/>
			<path fill="#FFFFFF" stroke="#000000" stroke-width="4" stroke-linecap="round" stroke-linejoin="round" stroke-miterlimit="10"  d="M71.1,178.65c-0.63,1.72-1.23,3.43-1.8,5.18c-9.54,2.54-20.33,4-32.35,4.08c-0.03,0-0.06-0.02-0.06-0.02
				v-0.01c2.4-9.48,5.45-18.71,9.11-27.6c0,0,0,0,0.03,0C56.02,165.57,64.36,171.8,71.1,178.65z"/>
			<path fill="#FFFFFF" stroke="#000000" stroke-width="4" stroke-linecap="round" stroke-linejoin="round" stroke-miterlimit="10"  d="M89.89,93.51c9.31,14.26,9.45,32.57,0.49,46.94c-0.46,0.66-0.89,1.32-1.32,1.98v0.02
				c-9.65,13.72-26.38,20.69-42.98,17.83c-0.02,0-0.05,0-0.05,0c-0.03,0-0.03,0-0.03,0c3.57-8.74,7.74-17.17,12.42-25.25
				c4.03-6.98,8.45-13.69,13.22-20.12C77.24,107.37,83.35,100.23,89.89,93.51z"/>
			<path fill="#FFFFFF" stroke="#000000" stroke-width="4" stroke-linecap="round" stroke-linejoin="round" stroke-miterlimit="10"  d="M64.93,279.6c3.12,13.65,7.77,26.71,13.8,38.97c-8.06-14.57-23.78-23.34-40.49-22.4
				C48.67,291.48,57.54,285.88,64.93,279.6z"/>
			<path fill="#FFFFFF" stroke="#000000" stroke-width="4" stroke-linecap="round" stroke-linejoin="round" stroke-miterlimit="10"  d="M47.57,322.71c-5.31,5.4-8.88,11.94-10.62,18.89c-10.71-4.4-19.42-13.23-23.36-24.8
				c-3.54-10.4-2.72-21.4,1.68-30.8c6.23,5.54,14.14,9.23,22.88,10.17C40.72,305.28,43.86,314.14,47.57,322.71z"/>
			<path fill="#FFFFFF" stroke="#000000" stroke-width="4" stroke-linecap="round" stroke-linejoin="round" stroke-miterlimit="10"  d="M46,160.28c-3.66,8.89-6.71,18.12-9.11,27.6c-7.11-5.23-12.14-12.37-14.74-20.25
				C28.95,162.88,37.2,160.2,46,160.28z"/>
			<path fill="#FFFFFF" stroke="#000000" stroke-width="4" stroke-linecap="round" stroke-linejoin="round" stroke-miterlimit="10"  d="M117.25,108.74c2.6,0.89,5.23,1.63,7.91,2.26c2.68,29.97-13.79,59.34-50.66,71.31
				c-1.09-1.26-2.23-2.48-3.4-3.66c4.63-12.8,10.68-24.94,17.96-36.2v-0.02c0.29-0.38,0.55-0.75,0.8-1.15
				c0.17-0.25,0.35-0.54,0.52-0.83C98.09,128.85,107.11,118.23,117.25,108.74z"/>
			<path fill="#FFFFFF" stroke="#000000" stroke-width="4" stroke-linecap="round" stroke-linejoin="round" stroke-miterlimit="10"  d="M114.79,407.54c-1.94,7.34-1.77,14.83,0.2,21.74c-11.45,1.55-23.38-1.74-32.61-9.8
				c-8.28-7.25-13.02-17.2-13.91-27.54c8.17,1.71,16.85,0.94,24.93-2.66C100.12,395.83,107.25,401.94,114.79,407.54z"/>
			<path fill="#FFFFFF" stroke="#000000" stroke-width="4" stroke-linecap="round" stroke-linejoin="round" stroke-miterlimit="10"  d="M111.62,74.14c12.86,10.71,30.62,13.09,45.78,6.23c-12.02,6.23-23.22,13.74-33.47,22.4
				C121.88,92.94,117.76,83.17,111.62,74.14z"/>
			<path fill="#FFFFFF" stroke="#000000" stroke-width="4" stroke-linecap="round" stroke-linejoin="round" stroke-miterlimit="10"  d="M111.6,74.14c-7.66,5.94-14.94,12.4-21.71,19.37c-3.57-8.08-4.34-16.8-2.65-24.97
				C95.52,67.85,104.03,69.65,111.6,74.14z"/>
			<path fill="#FFFFFF" stroke="#000000" stroke-width="4" stroke-linecap="round" stroke-linejoin="round" stroke-miterlimit="10"  d="M93.4,389.28c-6.93-6.77-13.39-14.03-19.33-21.74c8.65-5.68,18.59-9.77,28.93-11.97
				c1.83,2.17,3.68,4.29,5.63,6.34c-3.37,10-8.57,19.43-15.2,27.37H93.4z"/>
			<path fill="#FFFFFF" stroke="#000000" stroke-width="4" stroke-linecap="round" stroke-linejoin="round" stroke-miterlimit="10"  d="M89.89,93.51c7.97,6.63,17.36,11.86,27.36,15.23c-10.14,9.49-19.16,20.11-26.87,31.71
				C99.34,126.08,99.2,107.77,89.89,93.51z"/>
			<path fill="#FFFFFF" stroke="#000000" stroke-width="4" stroke-linecap="round" stroke-linejoin="round" stroke-miterlimit="10"  d="M134.9,420.79c-6.97-4.03-13.68-8.46-20.11-13.26c-7.54-5.6-14.67-11.71-21.39-18.26h0.03
				c14.17-9.25,32.42-9.45,46.72-0.57c0.52,0.36,1.04,0.69,1.56,1.02c0.2,0.13,0.39,0.26,0.58,0.38c0,0.03,0.03,0.03,0.03,0.03
				c13.71,9.66,20.68,26.4,17.79,43c0,0.03,0,0.06,0,0.06C151.4,429.62,142.98,425.48,134.9,420.79z"/>
			<path fill="#FFFFFF" stroke="#000000" stroke-width="4" stroke-linecap="round" stroke-linejoin="round" stroke-miterlimit="10"  d="M80.24,321.6c6.28,12.2,13.94,23.6,22.76,33.97c-10.34,2.2-20.28,6.29-28.93,11.97
				C84.81,354.65,87.15,336.77,80.24,321.6z"/>
			<path fill="#FFFFFF" stroke="#000000" stroke-width="4" stroke-linecap="round" stroke-linejoin="round" stroke-miterlimit="10"  d="M74.07,367.54c5.94,7.71,12.4,14.97,19.33,21.74c-8.08,3.6-16.76,4.37-24.93,2.66
				C67.76,383.68,69.59,375.14,74.07,367.54z"/>
			<path fill="#FFFFFF" stroke="#000000" stroke-width="4" stroke-linecap="round" stroke-linejoin="round" stroke-miterlimit="10"  d="M87.24,68.54c-1.69,8.17-0.92,16.89,2.65,24.97c-6.54,6.72-12.65,13.86-18.25,21.4
				c-7.34-1.94-14.79-1.77-21.7,0.2c-1.54-11.48,1.74-23.43,9.8-32.66C66.96,74.17,76.9,69.4,87.24,68.54z"/>
			<path fill="#FFFFFF" stroke="#000000" stroke-width="4" stroke-linecap="round" stroke-linejoin="round" stroke-miterlimit="10"  d="M74.5,182.31c24.42,28,23.05,65-3.97,92.14c-2.37-1-4.77-1.91-7.2-2.68
				c-1.88-10.43-2.88-21.17-2.88-32.14c0-3.46,0.09-6.89,0.28-10.32c0.92-15.8,3.86-31.03,8.57-45.48
				C71.07,183.37,72.81,182.85,74.5,182.31z"/>
			<path fill="#FFFFFF" stroke="#000000" stroke-width="4" stroke-linecap="round" stroke-linejoin="round" stroke-miterlimit="10"  d="M70.53,274.45c15.28,6.52,28.44,17.49,35.81,32.15c7.31,14.57,8.28,31.6,4.48,47.68
				c-2.62,0.32-5.25,0.75-7.82,1.29c-8.82-10.37-16.48-21.77-22.76-33.97c-0.23-0.52-0.46-1-0.71-1.52
				c-0.26-0.51-0.52-1.03-0.8-1.51c-6.03-12.26-10.68-25.32-13.8-38.97C66.9,277.94,68.76,276.23,70.53,274.45z"/>
			<path fill="#FFFFFF" stroke="#000000" stroke-width="4" stroke-linecap="round" stroke-linejoin="round" stroke-miterlimit="10"  d="M74.07,367.54c-4.48,7.6-6.31,16.14-5.6,24.4C58.39,389.88,49.11,384,42.92,375
				c-6.89-10.03-8.8-22.23-5.97-33.4c6.59,2.71,13.96,3.71,21.44,2.63C63.1,352.37,68.33,360.17,74.07,367.54z"/>
			<path fill="#FFFFFF" stroke="#000000" stroke-width="4" stroke-linecap="round" stroke-linejoin="round" stroke-miterlimit="10"  d="M230.79,388.48c16.28,0.95,31.47,8.6,43.5,19.92c-1.06,2.46-2,4.97-2.83,7.48
				c-10.4,1.92-21.1,2.89-32.04,2.89c-3.09,0-6.17-0.09-9.23-0.23c-0.02,0-0.08,0-0.11,0c-0.34-0.03-0.68-0.06-1.03-0.09
				c-0.37-0.02-0.77-0.02-1.14-0.05c-0.03,0-0.09,0-0.11,0c-14.03-0.89-27.59-3.4-40.56-7.37c-0.51-2.6-1.17-5.2-1.91-7.75
				C198.55,393.4,214.54,387.54,230.79,388.48z"/>
			<path fill="#FFFFFF" stroke="#000000" stroke-width="4" stroke-linecap="round" stroke-linejoin="round" stroke-miterlimit="10"  d="M49.94,115.11c6.91-1.97,14.36-2.14,21.7-0.2c-4.77,6.43-9.19,13.14-13.22,20.12
				C53.74,129.08,50.91,122.17,49.94,115.11z"/>
			<path fill="#FFFFFF" stroke="#000000" stroke-width="4" stroke-linecap="round" stroke-linejoin="round" stroke-miterlimit="10"  d="M36.95,187.91c15.45,7.83,24.81,24.09,23.78,41.4c-0.99,17.29-12.13,32.37-28.41,38.34h-0.03
				c-1.23-9.16-1.85-18.52-1.85-28.02c0-8.15,0.45-16.18,1.37-24.06c1.08-9.43,2.77-18.68,5.08-27.68
				C36.89,187.89,36.92,187.91,36.95,187.91z"/>
			<path fill="#FFFFFF" stroke="#000000" stroke-width="4" stroke-linecap="round" stroke-linejoin="round" stroke-miterlimit="10"  d="M225.09,136.15c3.81,3.3,7.2,7.27,9.96,11.87c-5.58,0.25-11.04,1.02-16.32,2.25
				C220.15,145.1,222.32,140.36,225.09,136.15z"/>
			<path fill="#FFFFFF" stroke="#000000" stroke-width="4" stroke-linecap="round" stroke-linejoin="round" stroke-miterlimit="10"  d="M36.95,187.91c12.02-0.08,22.81-1.54,32.35-4.08c-4.71,14.45-7.65,29.68-8.57,45.48
				C61.76,212,52.4,195.74,36.95,187.91z"/>
			<path fill="#FFFFFF" stroke="#000000" stroke-width="4" stroke-linecap="round" stroke-linejoin="round" stroke-miterlimit="10"  d="M215.34,447.43c2,7.31,5.89,13.68,11.03,18.68c-9.14,7.09-21.13,10.23-33.13,7.86
				c-10.76-2.11-19.87-8.35-25.79-16.86c7.91-2.63,15.05-7.66,20.25-14.77C196.7,444.62,205.95,446.33,215.34,447.43z"/>
			<path fill="#FFFFFF" stroke="#000000" stroke-width="4" stroke-linecap="round" stroke-linejoin="round" stroke-miterlimit="10"  d="M63.33,271.77c0.46,2.63,1,5.26,1.6,7.83c-7.39,6.28-16.26,11.88-26.69,16.57h-0.01
				c-0.03,0-0.06,0-0.08,0c-2.57-9.26-4.54-18.77-5.86-28.49C42.66,267.08,53.31,268.51,63.33,271.77z"/>
			<path fill="#FFFFFF" stroke="#000000" stroke-width="4" stroke-linecap="round" stroke-linejoin="round" stroke-miterlimit="10"  d="M260.08,329c-1.43,5.17-3.61,9.91-6.38,14.11c-3.8-3.3-7.18-7.27-9.94-11.86
				C249.34,331,254.8,330.24,260.08,329z"/>
			<path fill="#FFFFFF" stroke="#000000" stroke-width="4" stroke-linecap="round" stroke-linejoin="round" stroke-miterlimit="10"  d="M89.89,93.51c6.77-6.97,14.05-13.43,21.71-19.37h0.02c6.14,9.03,10.26,18.8,12.31,28.63
				c-2.28,1.94-4.51,3.94-6.68,5.97C107.25,105.37,97.86,100.14,89.89,93.51z"/>
			<path fill="#FFFFFF" stroke="#000000" stroke-width="4" stroke-linecap="round" stroke-linejoin="round" stroke-miterlimit="10"  d="M477.16,220.74c0.97,12.14-3.49,23.65-11.5,31.93c0-0.01,0-0.01-0.01-0.02
				c-4.37-5.65-10.25-10.22-17.31-13.02c0-9.49-0.62-18.86-1.85-28c7.68-4.35,13.48-10.83,17.02-18.38
				C471.19,200.11,476.3,209.85,477.16,220.74z"/>
			<path fill="#FFFFFF" stroke="#000000" stroke-width="4" stroke-linecap="round" stroke-linejoin="round" stroke-miterlimit="10"  d="M465.22,162.45c3.54,10.43,2.69,21.43-1.71,30.8c-6.23-5.51-14.11-9.2-22.88-10.14
				c-2.57-9.11-5.71-18-9.42-26.57c5.31-5.37,8.91-11.91,10.65-18.86C452.57,142.05,461.28,150.88,465.22,162.45z"/>
			<path fill="#FFFFFF" stroke="#000000" stroke-width="4" stroke-linecap="round" stroke-linejoin="round" stroke-miterlimit="10"  d="M465.65,252.65c0.01,0.01,0.01,0.01,0.01,0.02l-0.01,0.01c-4.97,5.12-11.34,9-18.65,11
				c0.89-7.88,1.34-15.91,1.34-24.05C455.4,242.43,461.28,247,465.65,252.65z"/>
			<path fill="#FFFFFF" stroke="#000000" stroke-width="4" stroke-linecap="round" stroke-linejoin="round" stroke-miterlimit="10"  d="M456.65,311.65c3.23,9.8,2.77,20.75-1.91,30.63c-5.22,11-14.82,18.75-25.87,21.89
				c-0.97-7.09-3.8-14-8.48-19.94c4.68-8.09,8.82-16.49,12.39-25.2C441.58,319.11,449.83,316.4,456.65,311.65z"/>
			<path fill="#FFFFFF" stroke="#000000" stroke-width="4" stroke-linecap="round" stroke-linejoin="round" stroke-miterlimit="10"  d="M441.89,291.4c7.14,5.2,12.14,12.34,14.76,20.25c-6.82,4.75-15.07,7.46-23.87,7.38
				C436.44,310.08,439.49,300.88,441.89,291.4z"/>
			<path fill="#FFFFFF" stroke="#000000" stroke-width="4" stroke-linecap="round" stroke-linejoin="round" stroke-miterlimit="10"  d="M447,263.68c-1.08,9.43-2.8,18.69-5.11,27.69c-0.01,0-0.02,0-0.03,0l-0.01-0.01
				c-15.1-7.66-24.38-23.33-23.86-40.22c0-0.09,0-0.17,0.03-0.26c0.02-0.54,0.05-1.05,0.08-1.6c1.26-17,12.34-31.77,28.39-37.65
				c1.23,9.14,1.85,18.51,1.85,28C448.34,247.77,447.89,255.8,447,263.68z"/>
			<path fill="#FFFFFF" stroke="#000000" stroke-width="4" stroke-linecap="round" stroke-linejoin="round" stroke-miterlimit="10"  d="M446.49,211.63c-1.32-9.75-3.29-19.26-5.86-28.52c8.77,0.94,16.65,4.63,22.88,10.14
				C459.97,200.8,454.17,207.28,446.49,211.63z"/>
			<path fill="#FFFFFF" stroke="#000000" stroke-width="4" stroke-linecap="round" stroke-linejoin="round" stroke-miterlimit="10"  d="M435.87,104.28c6.91,10.03,8.82,22.23,5.99,33.4c-6.59-2.71-13.99-3.71-21.47-2.63
				c-4.69-8.11-9.94-15.91-15.65-23.31c4.48-7.6,6.28-16.14,5.59-24.43C420.41,89.4,429.67,95.25,435.87,104.28z"/>
			<path fill="#FFFFFF" stroke="#000000" stroke-width="4" stroke-linecap="round" stroke-linejoin="round" stroke-miterlimit="10"  d="M441.89,291.37c2.31-9,4.03-18.26,5.11-27.69c7.31-2,13.68-5.88,18.65-11l0.01-0.01
				c7.07,9.18,10.21,21.14,7.84,33.16c-2.11,10.8-8.34,19.91-16.85,25.82c-2.62-7.91-7.62-15.05-14.76-20.25V291.37z"/>
			<path fill="#FFFFFF" stroke="#000000" stroke-width="4" stroke-linecap="round" stroke-linejoin="round" stroke-miterlimit="10"  d="M432.72,319.03c-9.25-4.69-17.73-11.23-24.78-19.06c0.97-2.66,1.85-5.37,2.68-8.09
				c10.33-2.08,21.05-2.25,31.23-0.52l0.01,0.01c0.01,0,0.02,0,0.03,0v0.03c-2.4,9.48-5.45,18.68-9.11,27.63
				C432.75,319.03,432.75,319.03,432.72,319.03z"/>
			<path fill="#FFFFFF" stroke="#000000" stroke-width="4" stroke-linecap="round" stroke-linejoin="round" stroke-miterlimit="10"  d="M440.63,183.11c2.57,9.26,4.54,18.77,5.86,28.52c-10.34,0.57-20.99-0.86-31.02-4.09
				c-0.48-2.83-1.08-5.63-1.71-8.4c7.91-6.94,17.11-12.49,26.82-16.03C440.61,183.11,440.61,183.11,440.63,183.11z"/>
			<path fill="#FFFFFF" stroke="#000000" stroke-width="4" stroke-linecap="round" stroke-linejoin="round" stroke-miterlimit="10"  d="M441.86,137.68c-1.74,6.95-5.34,13.49-10.65,18.86c-3.2-7.37-6.8-14.54-10.82-21.49
				C427.87,133.97,435.27,134.97,441.86,137.68z"/>
			<path fill="#FFFFFF" stroke="#000000" stroke-width="4" stroke-linecap="round" stroke-linejoin="round" stroke-miterlimit="10"  d="M420.39,344.23c-4.03,7-8.46,13.71-13.25,20.14c-5.6,7.54-11.68,14.68-18.22,21.4
				c-9.34-14.26-9.48-32.63-0.43-47.03c0.4-0.57,0.8-1.17,1.17-1.8c0.03-0.03,0.03-0.06,0.06-0.08c9.65-13.75,26.38-20.75,43-17.83
				c0.03,0,0.03,0,0.06,0C429.21,327.74,425.07,336.14,420.39,344.23z"/>
			<path fill="#FFFFFF" stroke="#000000" stroke-width="4" stroke-linecap="round" stroke-linejoin="round" stroke-miterlimit="10"  d="M428.87,364.17c1.54,11.45-1.74,23.43-9.83,32.66c-7.22,8.25-17.16,13.03-27.47,13.91
				c1.69-8.17,0.92-16.88-2.65-24.97c6.54-6.72,12.62-13.86,18.22-21.4C414.47,366.31,421.96,366.14,428.87,364.17z"/>
			<path fill="#FFFFFF" stroke="#000000" stroke-width="4" stroke-linecap="round" stroke-linejoin="round" stroke-miterlimit="10"  d="M420.39,344.23c4.68,5.94,7.51,12.85,8.48,19.94c-6.91,1.97-14.4,2.14-21.73,0.2
				C411.93,357.94,416.36,351.23,420.39,344.23z"/>
			<path fill="#FFFFFF" stroke="#000000" stroke-width="4" stroke-linecap="round" stroke-linejoin="round" stroke-miterlimit="10"  d="M407.94,299.97c7.05,7.83,15.53,14.37,24.78,19.06c-16.62-2.92-33.35,4.08-43,17.83
				C397.14,325.4,403.28,313.03,407.94,299.97z"/>
			<path fill="#FFFFFF" stroke="#000000" stroke-width="4" stroke-linecap="round" stroke-linejoin="round" stroke-miterlimit="10"  d="M417.99,251.14c-0.52,16.89,8.76,32.56,23.86,40.22c-10.18-1.73-20.9-1.56-31.23,0.52
				C414.59,278.85,417.1,265.23,417.99,251.14z"/>
			<path fill="#FFFFFF" stroke="#000000" stroke-width="4" stroke-linecap="round" stroke-linejoin="round" stroke-miterlimit="10"  d="M415.47,207.54c1.89,10.4,2.89,21.14,2.89,32.09c0,3.25-0.09,6.45-0.26,9.65
				c-0.03,0.23-0.03,0.46-0.06,0.69c-0.02,0.31-0.02,0.6-0.02,0.91c-0.03,0.09-0.03,0.17-0.03,0.26
				c-0.89,14.09-3.4,27.71-7.37,40.74c-2.6,0.52-5.2,1.15-7.74,1.92c-9.88-13.26-15.73-29.26-14.79-45.55
				c0.94-16.28,8.59-31.51,19.93-43.54C410.45,205.77,412.93,206.71,415.47,207.54z"/>
			<path fill="#FFFFFF" stroke="#000000" stroke-width="4" stroke-linecap="round" stroke-linejoin="round" stroke-miterlimit="10"  d="M418.36,239.63c0-10.95-1-21.69-2.89-32.09c10.03,3.23,20.68,4.66,31.02,4.09
				c-16.05,5.88-27.13,20.65-28.39,37.65C418.27,246.08,418.36,242.88,418.36,239.63z"/>
			<path fill="#FFFFFF" stroke="#000000" stroke-width="4" stroke-linecap="round" stroke-linejoin="round" stroke-miterlimit="10"  d="M375.81,123.71c8.82,10.37,16.45,21.74,22.73,33.94c0.23,0.52,0.49,1.03,0.74,1.55
				c0.26,0.51,0.54,1.05,0.83,1.57c5.94,12.08,10.54,24.94,13.65,38.37c-2,1.77-3.91,3.63-5.74,5.57
				c-15.19-6.54-28.24-17.46-35.55-32.03c-7.31-14.57-8.28-31.6-4.49-47.68C370.61,124.68,373.24,124.25,375.81,123.71z"/>
			<path fill="#FFFFFF" stroke="#000000" stroke-width="4" stroke-linecap="round" stroke-linejoin="round" stroke-miterlimit="10"  d="M410.33,87.31c0.69,8.29-1.11,16.83-5.59,24.43c-5.94-7.71-12.43-14.97-19.37-21.74
				C393.46,86.4,402.17,85.63,410.33,87.31z"/>
			<path fill="#FFFFFF" stroke="#000000" stroke-width="4" stroke-linecap="round" stroke-linejoin="round" stroke-miterlimit="10"  d="M407.94,299.97c-4.66,13.06-10.8,25.43-18.22,36.89c-0.03,0.02-0.03,0.05-0.06,0.08
				c-0.23,0.34-0.49,0.71-0.71,1.06c-0.18,0.25-0.32,0.51-0.46,0.74c-7.74,11.63-16.79,22.31-26.93,31.8
				c-2.52-0.86-5.06-1.6-7.63-2.2c-1.94-16.43,1-33.2,9.94-46.86c8.94-13.6,23.19-22.94,39.01-27.68
				C404.48,295.94,406.14,298,407.94,299.97z"/>
			<path fill="#FFFFFF" stroke="#000000" stroke-width="4" stroke-linecap="round" stroke-linejoin="round" stroke-miterlimit="10"  d="M396.43,59.8c8.28,7.23,13.05,17.17,13.9,27.51c-8.16-1.68-16.87-0.91-24.96,2.69
				c-6.71-6.57-13.84-12.69-21.38-18.29c1.94-7.34,1.77-14.8-0.18-21.71C375.27,48.45,387.2,51.74,396.43,59.8z"/>
			<path fill="#FFFFFF" stroke="#000000" stroke-width="4" stroke-linecap="round" stroke-linejoin="round" stroke-miterlimit="10"  d="M420.39,135.05c4.02,6.95,7.62,14.12,10.82,21.49c3.71,8.57,6.85,17.46,9.42,26.57c-0.02,0-0.02,0-0.05,0
				c-16.71,0.92-32.39-7.8-40.47-22.34c-0.51-1.06-1.03-2.09-1.57-3.12c-6.88-15.2-4.54-33.05,6.2-45.91
				C410.45,119.14,415.7,126.94,420.39,135.05z"/>
			<path fill="#FFFFFF" stroke="#000000" stroke-width="4" stroke-linecap="round" stroke-linejoin="round" stroke-miterlimit="10"  d="M402.88,293.8c-15.82,4.74-30.07,14.08-39.01,27.68c-8.94,13.66-11.88,30.43-9.94,46.86
				c-16.07-3.8-33.07-2.83-47.63,4.49c-14.56,7.34-25.47,20.4-32.01,35.57c-12.03-11.32-27.22-18.97-43.5-19.92
				c-16.25-0.94-32.24,4.92-45.46,14.8c-4.74-15.85-14.08-30.08-27.73-39.05c-13.62-8.95-30.38-11.89-46.78-9.95
				c3.8-16.08,2.83-33.11-4.48-47.68c-7.37-14.66-20.53-25.63-35.81-32.15c27.02-27.14,28.39-64.14,3.97-92.14
				c36.87-11.97,53.34-41.34,50.66-71.31c15.99,3.74,32.87,2.74,47.35-4.55c14.56-7.34,25.47-20.4,31.98-35.6
				c12.03,11.35,27.25,19,43.52,19.95c16.28,0.94,32.27-4.92,45.5-14.8c4.74,15.85,14.05,30.08,27.67,39.03
				c13.62,8.97,30.38,11.91,46.8,9.97c-3.79,16.08-2.82,33.11,4.49,47.68c7.31,14.57,20.36,25.49,35.55,32.03
				c-11.34,12.03-18.99,27.26-19.93,43.54C387.15,264.54,393,280.54,402.88,293.8z M362.07,271.63c4.61-17.77-3.65-36.06-19.23-46.3
				c12.24-14.13,15.22-34.03,5.92-49.88c-9.28-15.8-28.06-22.89-46.33-19.1c-1.32-18.65-13.27-34.82-31.06-39.47
				c-17.76-4.61-36.05,3.66-46.28,19.27c-14.11-12.25-34-15.23-49.84-5.92c-15.8,9.29-22.89,28.08-19.09,46.35
				c-18.65,1.31-34.81,13.28-39.45,31.07c-4.61,17.75,3.66,36.05,19.26,46.3c-12.25,14.13-15.22,34.03-5.93,49.85
				s28.07,22.92,46.33,19.13c1.31,18.65,13.28,34.81,31.06,39.44c17.74,4.61,36.02-3.65,46.27-19.25
				c14.11,12.26,34.01,15.24,49.83,5.93c15.81-9.29,22.91-28.07,19.12-46.35C341.3,301.38,357.45,289.41,362.07,271.63z"/>
			<path fill="#FFFFFF" stroke="#000000" stroke-width="4" stroke-linecap="round" stroke-linejoin="round" stroke-miterlimit="10"  d="M400.11,160.77c8.08,14.54,23.76,23.26,40.47,22.34c-9.71,3.54-18.91,9.09-26.82,16.03
				C410.65,185.71,406.05,172.85,400.11,160.77z"/>
			<path fill="#FFFFFF" stroke="#000000" stroke-width="4" stroke-linecap="round" stroke-linejoin="round" stroke-miterlimit="10"  d="M404.74,111.74c-10.74,12.86-13.08,30.71-6.2,45.91c-6.28-12.2-13.91-23.57-22.73-33.94
				C386.12,121.51,396.05,117.43,404.74,111.74z"/>
			<path fill="#FFFFFF" stroke="#000000" stroke-width="4" stroke-linecap="round" stroke-linejoin="round" stroke-miterlimit="10"  d="M388.92,385.77c3.57,8.09,4.34,16.8,2.65,24.97c-8.28,0.69-16.82-1.12-24.39-5.6
				C374.87,399.2,382.12,392.71,388.92,385.77z"/>
			<path fill="#FFFFFF" stroke="#000000" stroke-width="4" stroke-linecap="round" stroke-linejoin="round" stroke-miterlimit="10"  d="M361.56,370.54c10.14-9.49,19.19-20.17,26.93-31.8c-9.05,14.4-8.91,32.77,0.43,47.03
				C380.95,379.11,371.55,373.91,361.56,370.54z"/>
			<path fill="#FFFFFF" stroke="#000000" stroke-width="4" stroke-linecap="round" stroke-linejoin="round" stroke-miterlimit="10"  d="M404.74,111.74c-8.69,5.69-18.62,9.77-28.93,11.97c-1.83-2.17-3.71-4.28-5.63-6.34
				c3.37-10,8.57-19.4,15.19-27.37C392.31,96.77,398.8,104.03,404.74,111.74z"/>
			<path fill="#FFFFFF" stroke="#000000" stroke-width="4" stroke-linecap="round" stroke-linejoin="round" stroke-miterlimit="10"  d="M361.56,370.54c9.99,3.37,19.39,8.57,27.36,15.23c-6.8,6.94-14.05,13.43-21.74,19.37
				c-5.68-8.69-9.76-18.63-11.96-28.94C357.39,374.37,359.5,372.48,361.56,370.54z"/>
			<path fill="#FFFFFF" stroke="#000000" stroke-width="4" stroke-linecap="round" stroke-linejoin="round" stroke-miterlimit="10"  d="M367.18,405.14c7.57,4.48,16.11,6.29,24.39,5.6c-2.08,10.09-7.94,19.34-16.93,25.54
				c-10.03,6.95-22.22,8.83-33.39,6c2.72-6.63,3.72-14,2.63-21.48C352.02,416.11,359.79,410.86,367.18,405.14z"/>
			<path fill="#FFFFFF" stroke="#000000" stroke-width="4" stroke-linecap="round" stroke-linejoin="round" stroke-miterlimit="10"  d="M363.81,50c1.95,6.91,2.12,14.37,0.18,21.71c-6.4-4.8-13.14-9.2-20.08-13.23
				C349.85,53.8,356.73,50.97,363.81,50z"/>
			<path fill="#FFFFFF" stroke="#000000" stroke-width="4" stroke-linecap="round" stroke-linejoin="round" stroke-miterlimit="10"  d="M342.84,225.33c15.58,10.24,23.84,28.53,19.23,46.3c-4.62,17.78-20.77,29.75-39.42,31.07
				c-1.02-4.95-2.84-9.86-5.5-14.54c8.83-14.09,13.94-30.73,13.94-48.53c0-1.45-0.03-2.9-0.11-4.34
				C335.57,232.53,339.54,229.14,342.84,225.33z"/>
			<path fill="#FFFFFF" stroke="#000000" stroke-width="4" stroke-linecap="round" stroke-linejoin="round" stroke-miterlimit="10"  d="M385.37,90c-6.62,7.97-11.82,17.37-15.19,27.37c-9.31-10-19.79-18.92-31.15-26.57
				C353.3,99.45,371.32,99.17,385.37,90z"/>
			<path fill="#FFFFFF" stroke="#000000" stroke-width="4" stroke-linecap="round" stroke-linejoin="round" stroke-miterlimit="10"  d="M367.18,405.14c-12.85-10.74-30.72-13.09-45.86-6.2c12.17-6.29,23.56-13.94,33.9-22.74
				C357.42,386.5,361.5,396.45,367.18,405.14z"/>
			<path fill="#FFFFFF" stroke="#000000" stroke-width="4" stroke-linecap="round" stroke-linejoin="round" stroke-miterlimit="10"  d="M299.67,70.94c11.4,4.08,22.27,9.27,32.47,15.47c0.73,0.45,1.45,0.9,2.17,1.35h0.01
				c0.72,0.46,1.43,0.92,2.14,1.38c-0.05-0.03-0.09-0.07-0.14-0.1c0.05,0.03,0.11,0.07,0.16,0.1c0,0,0.03,0,0.03,0.03
				c0.37,0.26,0.78,0.51,1.15,0.77c0.39,0.26,0.77,0.51,1.17,0.74c0.08,0.06,0.14,0.09,0.2,0.12c11.36,7.65,21.84,16.57,31.15,26.57
				c-0.85,2.51-1.6,5.06-2.2,7.63c-16.42,1.94-33.18-1-46.8-9.97c-13.62-8.95-22.93-23.18-27.67-39.03
				C295.65,74.4,297.7,72.71,299.67,70.94z"/>
			<path fill="#FFFFFF" stroke="#000000" stroke-width="4" stroke-linecap="round" stroke-linejoin="round" stroke-miterlimit="10"  d="M341.94,24.08c10.99,5.23,18.73,14.86,21.87,25.92c-7.08,0.97-13.96,3.8-19.9,8.48
				c-8.08-4.68-16.51-8.85-25.22-12.43c0.09-8.8-2.62-17.05-7.34-23.88C321.12,18.94,332.06,19.37,341.94,24.08z"/>
			<path fill="#FFFFFF" stroke="#000000" stroke-width="4" stroke-linecap="round" stroke-linejoin="round" stroke-miterlimit="10"  d="M353.93,368.33c0.29,2.63,0.75,5.26,1.29,7.86c-10.34,8.8-21.73,16.45-33.9,22.74
				c-0.51,0.23-1.03,0.49-1.54,0.71c-0.54,0.29-1.06,0.58-1.57,0.86c-12.08,5.94-24.93,10.57-38.38,13.66
				c-1.74-2-3.6-3.94-5.54-5.77c6.54-15.17,17.45-28.23,32.01-35.57C320.86,365.5,337.86,364.54,353.93,368.33z"/>
			<path fill="#FFFFFF" stroke="#000000" stroke-width="4" stroke-linecap="round" stroke-linejoin="round" stroke-miterlimit="10"  d="M348.76,175.45c9.3,15.85,6.32,35.75-5.92,49.88c-4.2-2.77-8.94-4.95-14.11-6.37
				c-4.27-18.43-14.12-34.77-27.66-47.12c1.3-5.23,1.72-10.45,1.36-15.49C320.7,152.56,339.48,159.65,348.76,175.45z"/>
			<path fill="#FFFFFF" stroke="#000000" stroke-width="4" stroke-linecap="round" stroke-linejoin="round" stroke-miterlimit="10"  d="M343.88,420.79c1.09,7.48,0.09,14.85-2.63,21.48c-6.94-1.74-13.47-5.31-18.84-10.63
				C329.8,428.43,336.97,424.83,343.88,420.79z"/>
			<path fill="#FFFFFF" stroke="#000000" stroke-width="4" stroke-linecap="round" stroke-linejoin="round" stroke-miterlimit="10"  d="M322.41,431.65c5.37,5.32,11.9,8.89,18.84,10.63c-4.37,10.72-13.19,19.43-24.78,23.4
				c-10.4,3.55-21.36,2.69-30.76-1.71c5.54-6.23,9.22-14.14,10.17-22.92C304.99,438.5,313.84,435.37,322.41,431.65z"/>
			<path fill="#FFFFFF" stroke="#000000" stroke-width="4" stroke-linecap="round" stroke-linejoin="round" stroke-miterlimit="10"  d="M342.84,225.33c-3.3,3.81-7.27,7.2-11.86,9.96c-0.25-5.59-1.02-11.05-2.25-16.33
				C333.9,220.38,338.64,222.56,342.84,225.33z"/>
			<path fill="#FFFFFF" stroke="#000000" stroke-width="4" stroke-linecap="round" stroke-linejoin="round" stroke-miterlimit="10"  d="M307.16,301.33c-12.34,13.55-28.66,23.4-47.08,27.68c-5.28,1.23-10.74,1.99-16.32,2.25
				c-1.45,0.08-2.91,0.11-4.37,0.11c-17.79,0-34.43-5.12-48.51-13.96c-4.68-2.93-9.07-6.27-13.13-9.98
				c-13.55-12.34-23.4-28.67-27.68-47.11c-1.22-5.29-1.98-10.74-2.24-16.33c-0.08-1.44-0.11-2.9-0.11-4.36
				c0-17.8,5.11-34.45,13.95-48.54c2.93-4.68,6.27-9.08,9.97-13.14c12.34-13.55,28.66-23.41,47.09-27.68
				c5.28-1.23,10.74-2,16.32-2.25c1.44-0.08,2.88-0.11,4.34-0.11c17.8,0,34.43,5.11,48.52,13.95c4.69,2.93,9.09,6.28,13.16,9.98
				c13.54,12.35,23.39,28.69,27.66,47.12c1.23,5.28,2,10.74,2.25,16.33c0.08,1.44,0.11,2.89,0.11,4.34
				c0,17.8-5.11,34.44-13.94,48.53C314.22,292.85,310.87,297.26,307.16,301.33z M300.82,239.63c0-33.83-27.59-61.43-61.43-61.43
				c-33.81,0-61.4,27.6-61.4,61.43c0,33.85,27.59,61.45,61.4,61.45C273.23,301.08,300.82,273.48,300.82,239.63z"/>
			<path fill="#FFFFFF" stroke="#000000" stroke-width="4" stroke-linecap="round" stroke-linejoin="round" stroke-miterlimit="10"  d="M322.65,302.7c3.79,18.28-3.31,37.06-19.12,46.35c-15.82,9.31-35.72,6.33-49.83-5.93
				c2.77-4.2,4.95-8.94,6.38-14.11c18.42-4.28,34.74-14.13,47.08-27.68C312.39,302.64,317.61,303.06,322.65,302.7z"/>
			<path fill="#FFFFFF" stroke="#000000" stroke-width="4" stroke-linecap="round" stroke-linejoin="round" stroke-miterlimit="10"  d="M322.65,302.7c-5.04,0.36-10.26-0.06-15.49-1.37c3.71-4.07,7.06-8.48,9.99-13.17
				C319.81,292.84,321.63,297.75,322.65,302.7z"/>
			<path fill="#FFFFFF" stroke="#000000" stroke-width="4" stroke-linecap="round" stroke-linejoin="round" stroke-miterlimit="10"  d="M318.69,46.14c0-0.03,0-0.06,0-0.09c8.71,3.58,17.14,7.75,25.22,12.43c6.94,4.03,13.68,8.43,20.08,13.23
				c7.54,5.6,14.67,11.72,21.38,18.29c-14.05,9.17-32.07,9.45-46.34,0.8c-0.06-0.03-0.12-0.06-0.2-0.12
				c-0.78-0.51-1.54-1.03-2.32-1.51c0-0.03-0.03-0.03-0.03-0.03c-0.05-0.03-0.11-0.07-0.16-0.1
				C322.73,79.33,315.82,62.65,318.69,46.14z"/>
			<path fill="#FFFFFF" stroke="#000000" stroke-width="4" stroke-linecap="round" stroke-linejoin="round" stroke-miterlimit="10"  d="M318.69,46.05c-8.91-3.65-18.1-6.71-27.58-9.14c5.22-7.11,12.33-12.11,20.24-14.74
				C316.07,29,318.78,37.25,318.69,46.05z"/>
			<path fill="#FFFFFF" stroke="#000000" stroke-width="4" stroke-linecap="round" stroke-linejoin="round" stroke-miterlimit="10"  d="M299.67,70.94c7.83-7.06,14.37-15.57,19.02-24.8c-2.87,16.51,4.04,33.19,17.63,42.9
				c-0.66-0.43-1.33-0.86-2-1.28h-0.01c-0.72-0.46-1.44-0.9-2.17-1.35C321.94,80.21,311.07,75.02,299.67,70.94z"/>
			<path fill="#FFFFFF" stroke="#000000" stroke-width="4" stroke-linecap="round" stroke-linejoin="round" stroke-miterlimit="10"  d="M302.43,156.35c0.36,5.04-0.06,10.26-1.36,15.49c-4.07-3.7-8.47-7.05-13.16-9.98
				C292.58,159.19,297.49,157.37,302.43,156.35z"/>
			<path fill="#FFFFFF" stroke="#000000" stroke-width="4" stroke-linecap="round" stroke-linejoin="round" stroke-miterlimit="10"  d="M285.54,5.31c10.79,2.12,19.9,8.34,25.81,16.86c-7.91,2.63-15.02,7.63-20.24,14.74
				c-9-2.28-18.25-4-27.67-5.08c-2-7.32-5.89-13.69-11.03-18.69C261.55,6.05,273.54,2.94,285.54,5.31z"/>
			<path fill="#FFFFFF" stroke="#000000" stroke-width="4" stroke-linecap="round" stroke-linejoin="round" stroke-miterlimit="10"  d="M343.88,420.79c-6.91,4.03-14.08,7.63-21.47,10.85c-8.57,3.72-17.42,6.86-26.53,9.4v-0.02
				c-0.95-16.75,7.79-32.43,22.33-40.52c1.03-0.51,2.08-1.03,3.11-1.57c15.14-6.89,33.01-4.54,45.86,6.2
				C359.79,410.86,352.02,416.11,343.88,420.79z"/>
			<path fill="#FFFFFF" stroke="#000000" stroke-width="4" stroke-linecap="round" stroke-linejoin="round" stroke-miterlimit="10"  d="M318.21,400.5c-14.54,8.09-23.28,23.77-22.33,40.52c-3.57-9.75-9.09-18.95-16.05-26.86
				C293.28,411.08,306.13,406.45,318.21,400.5z"/>
			<path fill="#FFFFFF" stroke="#000000" stroke-width="4" stroke-linecap="round" stroke-linejoin="round" stroke-miterlimit="10"  d="M295.88,441.04c-0.95,8.78-4.63,16.69-10.17,22.92c-7.51-3.54-13.99-9.37-18.31-17.03
				C277.11,445.62,286.62,443.65,295.88,441.04z"/>
			<path fill="#FFFFFF" stroke="#000000" stroke-width="4" stroke-linecap="round" stroke-linejoin="round" stroke-miterlimit="10"  d="M249.73,60.8c14.48,0.83,28.5,3.37,41.86,7.45c0.52,2.6,1.14,5.2,1.92,7.75
				c-13.23,9.88-29.22,15.74-45.5,14.8c-16.27-0.95-31.49-8.6-43.52-19.95c0.53-1.21,1.03-2.44,1.5-3.68
				c0.47-1.24,0.92-2.5,1.33-3.77c0.64-0.12,1.29-0.23,1.93-0.35c9.79-1.69,19.88-2.54,30.17-2.54
				C242.87,60.51,246.3,60.6,249.73,60.8z"/>
			<path fill="#FFFFFF" stroke="#000000" stroke-width="4" stroke-linecap="round" stroke-linejoin="round" stroke-miterlimit="10"  d="M291.11,36.91c9.48,2.43,18.67,5.49,27.58,9.14c0,0.03,0,0.06,0,0.09c-4.65,9.23-11.19,17.74-19.02,24.8
				c-2.65-0.97-5.36-1.86-8.08-2.69c-2.08-10.34-2.25-21.08-0.48-31.31C291.11,36.94,291.11,36.94,291.11,36.91z"/>
			<path fill="#FFFFFF" stroke="#000000" stroke-width="4" stroke-linecap="round" stroke-linejoin="round" stroke-miterlimit="10"  d="M249.73,60.8c17.3,1.03,33.52-8.37,41.35-23.83c0,0,0,0,0.03-0.03c-1.77,10.23-1.6,20.97,0.48,31.31
				C278.23,64.17,264.21,61.63,249.73,60.8z"/>
			<path fill="#FFFFFF" stroke="#000000" stroke-width="4" stroke-linecap="round" stroke-linejoin="round" stroke-miterlimit="10"  d="M302.43,156.35c-4.94,1.02-9.85,2.84-14.52,5.51c-14.09-8.84-30.72-13.95-48.52-13.95
				c-1.46,0-2.9,0.03-4.34,0.11c-2.76-4.6-6.15-8.57-9.96-11.87c10.23-15.61,28.52-23.88,46.28-19.27
				C289.16,121.53,301.11,137.7,302.43,156.35z"/>
			<path fill="#FFFFFF" stroke="#000000" stroke-width="4" stroke-linecap="round" stroke-linejoin="round" stroke-miterlimit="10"  d="M295.88,441.04c-9.26,2.6-18.77,4.57-28.48,5.89c0,0,0-0.03-0.02-0.03c-0.57-10.34,0.85-21,4.08-31.03
				c2.83-0.48,5.63-1.05,8.37-1.71c6.96,7.91,12.48,17.11,16.05,26.86V441.04z"/>
			<path fill="#FFFFFF" stroke="#000000" stroke-width="4" stroke-linecap="round" stroke-linejoin="round" stroke-miterlimit="10"  d="M193.07,15.31c-5.51,6.2-9.2,14.12-10.14,22.89c-9.11,2.54-17.96,5.71-26.53,9.43
				c-5.4-5.32-11.93-8.92-18.87-10.66c4.37-10.72,13.19-19.43,24.78-23.37C172.71,10.05,183.67,10.88,193.07,15.31z"/>
			<path fill="#FFFFFF" stroke="#000000" stroke-width="4" stroke-linecap="round" stroke-linejoin="round" stroke-miterlimit="10"  d="M252.41,13.14c-5.65,4.4-10.19,10.29-12.99,17.31c-9.51,0-18.85,0.63-28.02,1.89
				c-2.17-3.84-4.87-7.22-7.98-10.08c-3.1-2.86-6.59-5.19-10.35-6.95c6.85-7.71,16.56-12.8,27.44-13.66
				C232.68,0.68,244.19,5.14,252.41,13.14z"/>
		</g>
	</g>
</g>
</svg>
